<svg width="157" height="123" viewBox="0 0 157 123" fill="none" xmlns="http://www.w3.org/2000/svg">
<rect x="0.5" y="1.48096" width="156" height="120.615" rx="15.5" stroke="#BD6F6D"/>
<g clip-path="url(#clip0)">
<path d="M77.7042 118.302L77.678 118.403L77.6388 118.336L77.7042 118.302Z" stroke="#BD6F6D" stroke-width="0.131806" stroke-miterlimit="10"/>
<path d="M97.9882 122.015H76.7409L77.6818 118.403L77.708 118.302C78.0232 118.139 78.4414 117.902 78.9266 117.608C80.2335 116.822 81.4626 115.912 82.5971 114.893C82.7604 114.746 82.9238 114.596 83.0757 114.439C84.5214 113.026 85.8217 111.284 86.4146 109.267H88.4778C88.4996 109.341 88.5224 109.415 88.5464 109.488C88.5693 109.559 88.5938 109.633 88.6199 109.705C88.646 109.777 88.6705 109.849 88.6983 109.92L88.7489 110.053C88.7685 110.1 88.7865 110.146 88.8061 110.192C88.8862 110.384 88.9695 110.574 89.0642 110.76C89.0969 110.829 89.1312 110.897 89.1671 110.964C89.2031 111.031 89.2178 111.064 89.2455 111.113C89.2733 111.162 89.2929 111.203 89.319 111.247C89.4824 111.531 89.6457 111.809 89.8287 112.078C89.9006 112.186 89.9757 112.294 90.0509 112.405C90.126 112.516 90.1962 112.604 90.2698 112.702C90.2732 112.709 90.2776 112.714 90.2828 112.719C90.3547 112.813 90.4282 112.908 90.505 113.001C90.5192 113.022 90.5345 113.041 90.5507 113.06C90.6177 113.143 90.6879 113.223 90.7582 113.31C90.8562 113.428 90.9591 113.544 91.062 113.658C91.1208 113.723 91.1796 113.789 91.2401 113.852L91.3185 113.937L91.5292 114.156C91.6239 114.254 91.7203 114.351 91.8167 114.445L92.0454 114.664L92.2087 114.818C92.8354 115.393 93.4954 115.931 94.1853 116.428C94.3176 116.525 94.4483 116.618 94.5757 116.708C94.7031 116.798 94.8698 116.91 95.0119 117.005L95.3908 117.253L95.4301 117.278L95.6702 117.43C96.1439 117.727 96.567 117.969 96.9084 118.157L97.0718 118.247L97.9882 122.015Z" fill="#BD6F6D"/>
<path d="M95.4306 117.276L95.6707 117.428L95.4306 117.278V117.276Z" stroke="#BD6F6D" stroke-width="0.131806" stroke-miterlimit="10"/>
<path d="M97.0745 118.245L96.9111 118.155C96.5697 117.967 96.1466 117.725 95.6729 117.428L95.4328 117.276L95.3936 117.252L95.0146 117.003C94.8725 116.909 94.7271 116.811 94.5784 116.706C94.4298 116.602 94.3203 116.523 94.188 116.427C93.4963 115.928 92.8346 115.388 92.2065 114.811L92.0432 114.658L91.8145 114.439C91.7181 114.344 91.6218 114.248 91.527 114.15L91.3163 113.931L91.2379 113.846C91.1774 113.782 91.1186 113.717 91.0598 113.651C90.9569 113.537 90.854 113.421 90.756 113.303C90.6857 113.22 90.6155 113.14 90.5485 113.054C90.5323 113.035 90.517 113.015 90.5028 112.995C90.426 112.902 90.3525 112.807 90.2806 112.712C90.2754 112.707 90.271 112.702 90.2676 112.696C90.194 112.598 90.1205 112.5 90.0487 112.399C89.9768 112.297 89.8984 112.186 89.8265 112.072C89.6452 111.802 89.4737 111.525 89.3168 111.24C89.2907 111.196 89.2662 111.15 89.2433 111.106C89.2205 111.062 89.1894 111.008 89.1649 110.958C89.1404 110.907 89.0947 110.822 89.062 110.754C88.9689 110.567 88.884 110.378 88.8039 110.185C88.7843 110.139 88.7663 110.094 88.7467 110.046L88.6961 109.914C88.6689 109.842 88.6427 109.77 88.6177 109.698C88.5916 109.626 88.5671 109.553 88.5442 109.481C88.5213 109.409 88.4968 109.334 88.4756 109.26H94.897L97.0745 118.245Z" stroke="#BD6F6D" stroke-width="0.131806" stroke-miterlimit="10"/>
<path d="M95.4306 117.276L95.6707 117.428L95.4306 117.278V117.276Z" stroke="#BD6F6D" stroke-width="0.131806" stroke-miterlimit="10"/>
<path d="M54.599 114.911L51.0396 120.729L47.6124 114.911L50.9889 109.033L54.599 114.911Z" fill="#BD6F6D"/>
<path d="M61.619 114.942L58.0596 120.761L54.6341 114.942L58.0089 109.063L61.619 114.942Z" fill="#BD6F6D"/>
<path d="M68.6375 114.971L65.0797 120.79L61.6526 114.971L65.0275 109.094L68.6375 114.971Z" fill="#BD6F6D"/>
<path d="M75.6587 115.002L72.0993 120.821L68.6721 115.002L72.0486 109.123L75.6587 115.002Z" fill="#BD6F6D"/>
<path d="M103.738 115.122L100.179 120.94L96.7515 115.122L100.128 109.244L103.738 115.122Z" fill="#BD6F6D"/>
<path d="M110.757 115.153L107.199 120.97L103.772 115.153L107.147 109.274L110.757 115.153Z" fill="#BD6F6D"/>
<path d="M117.777 115.182L114.218 121.001L110.791 115.182L114.167 109.303L117.777 115.182Z" fill="#BD6F6D"/>
<path d="M124.797 115.211L121.237 121.03L117.81 115.211L121.187 109.334L124.797 115.211Z" fill="#BD6F6D"/>
<path d="M131.816 115.242L128.258 121.061L124.831 115.242L128.206 109.363L131.816 115.242Z" fill="#BD6F6D"/>
<path d="M138.837 115.272L135.277 121.09L131.85 115.272L135.227 109.394L138.837 115.272Z" fill="#BD6F6D"/>
<path d="M47.5753 114.927L44.0158 120.746L40.5887 114.927L43.9652 109.048L47.5753 114.927Z" fill="#BD6F6D"/>
<path d="M40.536 114.926L36.9782 120.745L33.5511 114.926L36.9259 109.047L40.536 114.926Z" fill="#BD6F6D"/>
<path d="M79.7841 110.317L77.7047 118.302L77.6393 118.336L77.3371 117.823L75.6938 115.032L79.0392 109.205L79.0686 109.153L79.7841 110.317Z" fill="#BD6F6D"/>
<path d="M86.4104 109.267C85.8174 111.284 84.5171 113.024 83.0715 114.439C82.9081 114.602 82.7546 114.746 82.5928 114.893C81.4583 115.912 80.2293 116.822 78.9223 117.608C78.4323 117.902 78.019 118.134 77.7037 118.302L79.7832 110.317L80.056 109.267H86.4104Z" stroke="#BD6F6D" stroke-width="0.131806" stroke-miterlimit="10"/>
<path d="M96.6556 122.015H77.9795L78.9221 117.605C80.229 116.818 81.4581 115.909 82.5926 114.89C82.756 114.743 82.9193 114.592 83.0712 114.436H91.8122L92.0409 114.654L92.2043 114.808C92.8322 115.387 93.4939 115.928 94.1857 116.428C94.318 116.525 94.4487 116.618 94.5761 116.708C94.7035 116.798 94.8702 116.91 95.0123 117.005L95.3913 117.253L95.4305 117.278L96.6556 122.015Z" fill="#BD6F6D"/>
<path d="M93.7552 122.015H80.9647L82.4365 116.806H92.3046L93.7552 122.015Z" fill="#BD6F6D"/>
<path d="M87.7392 75.5495C87.7392 75.6414 87.7232 75.7326 87.6919 75.8191C87.6849 75.8415 87.6761 75.8633 87.6657 75.8844C87.6164 75.9938 87.5478 76.0934 87.4632 76.1784C87.269 76.3678 87.0294 76.504 86.7673 76.5737C86.6528 76.6076 86.5351 76.6294 86.4161 76.6391C86.3403 76.649 86.2639 76.6539 86.1874 76.6538C86.0631 76.6538 85.939 76.6428 85.8166 76.6211C85.7053 76.6021 85.596 76.5732 85.4899 76.5345C85.355 76.4881 85.227 76.4238 85.1093 76.3434C85.0739 76.3201 85.04 76.2944 85.008 76.2666C84.9483 76.2207 84.8936 76.1687 84.8446 76.1115C84.7637 76.0155 84.7026 75.9045 84.665 75.7848C84.64 75.7066 84.6274 75.625 84.6274 75.543C84.6274 75.017 85.1419 74.5776 85.8313 74.4665C85.9048 74.4548 85.979 74.4483 86.0534 74.4469C86.0959 74.4469 86.14 74.4469 86.1841 74.4469C86.339 74.4471 86.4934 74.4635 86.6448 74.4959C87.2802 74.6331 87.7392 75.0529 87.7392 75.5495Z" fill="#BD6F6D"/>
<path d="M86.0924 74.6102C86.0924 74.6102 84.3445 74.2427 86.1708 69.3486H86.2623C88.0886 74.2492 86.4256 74.6102 86.4256 74.6102H86.0924Z" fill="#BD6F6D"/>
<path d="M59.8622 67.9895C61.8993 67.9895 63.5507 66.3381 63.5507 64.301C63.5507 62.2639 61.8993 60.6125 59.8622 60.6125C57.8251 60.6125 56.1737 62.2639 56.1737 64.301C56.1737 66.3381 57.8251 67.9895 59.8622 67.9895Z" fill="#BD6F6D"/>
<path d="M96.6197 54.4525V54.4558L63.4575 63.4728L60.8341 64.1867H60.8324L60.5515 64.2618L60.4518 64.2896L60.3734 64.3108L60.2558 64.3435L59.7674 64.4758L59.475 64.5558L59.3557 64.5885L59.2218 64.6245L58.9032 64.711L56.3435 65.4069L23.2516 74.4044L23.1046 74.1495V73.6529L56.1883 64.6114L57.6912 64.2014H57.6928L58.8248 63.891L59.2986 63.762H59.3002L59.555 63.6917L59.5812 63.6852V63.6835L59.7216 63.646L60.014 63.5659L60.3375 63.4777L60.4845 63.4369L61.5675 63.1412L63.1863 62.6985L96.1754 53.6831L96.1933 53.7141L96.2668 53.8416L96.6197 54.4525Z" fill="#BD6F6D"/>
<path d="M96.6197 74.0973V74.1496L96.1999 74.8765L63.2582 65.7435L61.2245 65.1799L60.7687 65.0541L60.1218 64.8744L59.934 64.8222L59.8556 64.8009L59.6612 64.747L59.3378 64.6572L59.2218 64.6245L59.0372 64.5739L57.6928 64.2014H57.6912L56.2096 63.7898L23.1046 54.611V54.4526L23.4607 53.8351L56.4236 62.9648L58.4753 63.5333L59.2986 63.762H59.3002L59.5452 63.829L59.5959 63.8437L59.7135 63.8764L60.0336 63.9646L60.3309 64.0462L60.5057 64.0952H60.5074L60.6119 64.1247L60.8324 64.1867H60.8341L63.4983 64.9251L96.6197 74.0973Z" fill="#BD6F6D"/>
<path d="M86.6597 37.3282L62.7155 61.9601L61.5687 63.1412L60.6131 64.1246L60.5364 64.203L60.453 64.2895L60.4024 64.3402L60.208 64.5427L60.2064 64.5444L59.9352 64.8221L59.878 64.8793L59.8356 64.925L59.0776 65.7042L57.6058 67.2185L33.807 91.7017L33.7874 91.6903L33.1356 91.3129L33.1176 91.3031L57.021 66.6533L58.9045 64.711L59.0384 64.5738L59.2655 64.3402L59.4713 64.1278L59.4729 64.1262L59.6297 63.9628L59.7147 63.8763L59.8307 63.757L60.0153 63.5659L60.2864 63.2866L60.6066 62.9566L62.1274 61.3884L85.8903 36.8839L85.9099 36.8953L86.6417 37.3184L86.6597 37.3282Z" fill="#BD6F6D"/>
<path d="M77.6897 81.9856C77.4611 82.1571 77.2307 82.3254 77.002 82.492L62.0961 67.2381L61.0833 66.2008L60.0542 65.1489L59.9121 65.0018L59.8353 64.9251L59.6622 64.747L59.476 64.5559L59.3877 64.466L59.2652 64.3403L58.8258 63.891L58.4762 63.5333L56.9767 62.0011L39.6237 44.2397L35.1936 39.7067L32.9459 37.4067L32.9541 37.392L33.6075 37.0196L33.6238 37.0098L35.2998 38.7201L40.1318 43.6533L57.5484 61.4277L59.4743 63.3879L59.6181 63.5349L59.7226 63.6411L59.8304 63.7522L60.0346 63.9596L60.2878 64.2177L60.3744 64.306L60.4022 64.3354L60.6407 64.5788L61.2255 65.175L62.6956 66.668L77.6897 81.9856Z" fill="#BD6F6D"/>
<path d="M79.4025 83.7351C79.2131 83.9425 79.0203 84.1516 78.8243 84.3591L77.7216 83.2287C77.9471 83.0523 78.1692 82.8759 78.3865 82.6962L79.4025 83.7351Z" fill="#BD6F6D"/>
<path d="M83.6506 88.0688C83.5673 88.3955 83.4873 88.7092 83.3941 89.0326L80.2676 85.8325C80.4309 85.5957 80.6025 85.3588 80.7576 85.1219L83.6506 88.0688Z" fill="#BD6F6D"/>
<path d="M69.5152 27.5435L68.9582 29.7602L67.2904 36.3857L61.1385 60.8396L60.606 62.9632L60.4851 63.4434L60.41 63.744L60.3316 64.0511L60.2875 64.2275L60.2564 64.3484L60.2074 64.5477L60.1241 64.8744L60.0555 65.1488L60.0065 65.3448L59.3531 67.9585L53.3826 91.7018L51.8242 97.8977C51.5759 98.1155 51.3265 98.3246 51.076 98.525L50.8195 98.7324L50.8735 98.5201L52.5985 91.6282L58.5641 67.7494L59.077 65.6993L59.3384 64.6522L59.3564 64.5836L59.3874 64.4611L59.4707 64.123L59.5442 63.8257L59.5671 63.7375L59.5801 63.6835L59.6161 63.5398L59.9689 62.1317L60.3414 60.6452L66.4132 36.3857L68.0712 29.7602L68.6266 27.5435H69.5152Z" fill="#BD6F6D"/>
<path d="M67.123 88.3057C66.8595 88.4287 66.5997 88.548 66.3438 88.6634L60.6967 67.8948L60.0041 65.3448L59.911 65.0018L59.8767 64.8793L59.8554 64.8009L59.7672 64.4742L59.6284 63.9613L59.5957 63.842L59.5679 63.7391L59.5549 63.6917L59.4732 63.3928L58.7626 60.7791L52.2089 36.6781L50.3826 29.9578L49.7652 27.6872L50.0135 27.5435H50.5166L51.17 29.9578L52.9326 36.3857L59.5581 60.6256L59.9698 62.1317L60.2851 63.2866L60.3373 63.4777L60.4092 63.7375L60.5056 64.0936L60.5334 64.2014L60.5497 64.2602L60.6379 64.5869L60.767 65.0573L61.0806 66.2008L61.4694 67.622L67.123 88.3057Z" fill="#BD6F6D"/>
<path d="M68.275 92.5169C68.0137 92.64 67.7507 92.7549 67.486 92.8616L67.1708 91.7018L66.7281 90.0683C66.9878 89.9441 67.2459 89.82 67.504 89.6909L67.9826 91.4404L68.275 92.5169Z" fill="#BD6F6D"/>
<path d="M96.2677 53.8416L96.1942 53.7141L96.1762 53.6831L96.1387 53.6178L95.8626 53.1391L95.2713 52.1149L94.8629 51.4076L94.2487 50.3458L88.8025 40.9106L86.772 37.392L86.6593 37.3283L86.6413 37.3185L85.9095 36.8954L85.8899 36.8839L84.557 36.1146L83.8251 35.6915L83.1717 35.3158L73.5486 29.7618L69.718 27.5435H50.0145L49.7662 27.6872L45.8326 29.9578L35.2997 36.0394L33.6171 37.0065L33.6008 37.0163L32.9474 37.3887L32.9392 37.4034L31.6112 39.7034L24.8124 51.4942L24.0431 52.8288L23.4615 53.835L23.1054 54.4525V74.1495L23.2524 74.4044L23.2622 74.4207L24.422 76.4299L26.3006 79.6839L31.8546 89.3021L32.6958 90.7576L32.9572 91.2101L33.1205 91.3032L33.1385 91.313L33.7919 91.6903L33.8115 91.7018L35.0873 92.4385L35.659 92.7652L36.0037 92.9645L38.699 94.5196L46.3586 98.9497L48.1735 99.9968L48.6537 100.274L49.3071 99.7991C49.8544 99.4055 50.2579 99.1833 50.8132 98.7357L51.0697 98.5283C51.3202 98.3257 51.5696 98.1166 51.8179 97.901C53.8866 96.1494 55.7009 94.1178 57.2085 91.8651C57.2085 91.8651 57.4437 91.8161 57.8799 91.7018C60.7829 90.9297 63.6148 89.9116 66.3448 88.6585C66.6018 88.5431 66.8615 88.4238 67.124 88.3008C70.5931 86.6797 73.9006 84.7331 77.0019 82.487C77.2306 82.3237 77.4609 82.1603 77.6896 81.9807C80.1861 80.1149 82.5215 78.0428 84.6713 75.7863C84.709 75.9061 84.7701 76.0171 84.851 76.113L84.7791 76.2094C83.3596 78.2007 81.1282 80.4696 78.3855 82.6978C78.1683 82.8775 77.9461 83.0539 77.7207 83.2303C74.5447 85.7286 71.1215 87.8956 67.5046 89.6974C67.2465 89.8265 66.9884 89.9506 66.7287 90.0748C65.4627 90.6759 64.1787 91.2182 62.8899 91.7083C62.1973 91.962 61.5036 92.1978 60.8088 92.4156C59.0009 94.8173 57.0003 97.0675 54.8268 99.1441C54.5279 99.4332 54.2257 99.7158 53.9235 99.9935C53.6213 100.271 53.3207 100.542 53.0201 100.81L52.7294 101.059H62.4995C65.3957 97.424 67.4213 92.891 67.4213 92.891L67.4866 92.8632C67.7513 92.7543 68.0143 92.6394 68.2756 92.5185C71.3483 91.0925 74.3197 88.7778 76.9121 86.2915C77.5753 85.6561 78.2189 85.0092 78.8233 84.3623C79.0193 84.1549 79.2121 83.9458 79.4016 83.7383C81.0202 81.9752 82.5271 80.1126 83.9134 78.1615V78.1533C84.4034 77.4509 84.8085 76.8367 85.1009 76.3564C85.2187 76.4368 85.3467 76.5011 85.4815 76.5476V76.5623C84.1809 79.5621 82.6009 82.4329 80.7623 85.1366C80.5989 85.3735 80.4356 85.6103 80.2722 85.8472C78.4725 88.4118 76.3599 90.7418 73.9832 92.7832C73.3575 94.8332 72.4672 97.6102 70.9268 100.373L82.2112 93.8596C82.2112 93.2846 82.1786 92.9808 82.1786 92.9808C82.6441 91.6528 83.0476 90.3345 83.3988 89.0473C83.487 88.7206 83.572 88.4037 83.6553 88.0835C84.8935 83.2597 85.4227 78.9962 85.8213 76.6358C85.9437 76.6575 86.0678 76.6684 86.1921 76.6684C86.2686 76.6685 86.345 76.6636 86.4208 76.6537C86.8194 79.0321 87.3519 83.2826 88.5885 88.0884L90.8477 84.1777C89.2818 81.7647 87.9159 79.2275 86.7639 76.5917C87.0259 76.5219 87.2656 76.3857 87.4597 76.1963C88.234 77.5032 89.8267 79.7672 91.9536 82.2404L92.5563 81.1966C90.5732 79.4373 88.9479 77.6927 87.8191 76.1212L87.6558 75.8974C87.6661 75.8763 87.6749 75.8545 87.6819 75.8321C89.3755 77.4505 91.1496 78.9825 92.9974 80.4223L93.7782 79.0681L96.1909 74.8895L96.547 74.2737L96.6107 74.1626V54.4525L96.2677 53.8416Z" stroke="#BD6F6D" stroke-width="0.131806" stroke-miterlimit="10"/>
<path d="M87.7842 56.6414V71.4624L87.6862 71.6258L87.4689 71.9966L87.2435 72.3886L87.103 72.632L86.0526 74.4469L85.9808 74.571L85.4548 75.4825L85.3045 75.7439L85.0039 76.265L83.9291 78.1484V78.1566C82.5428 80.1078 81.036 81.9703 79.4173 83.7334C79.2278 83.9409 79.035 84.15 78.839 84.3575C78.2297 85.0109 77.591 85.6512 76.9278 86.2866L68.1361 91.362L67.9989 91.442L67.5546 91.6969H62.8893C64.1781 91.2183 65.4621 90.6694 66.728 90.0634C66.9878 89.9392 67.2459 89.8151 67.504 89.686C71.121 87.8874 74.5447 85.7237 77.7217 83.2287C77.9471 83.0523 78.1693 82.8758 78.3865 82.6962C81.1292 80.468 83.3606 78.1991 84.7801 76.2078L84.852 76.1114C84.7711 76.0155 84.71 75.9044 84.6723 75.7847C82.5225 78.0412 80.1871 80.1133 77.6906 81.979C77.4619 82.1506 77.2316 82.3188 77.0029 82.4854C73.9016 84.7314 70.5941 86.6781 67.125 88.2991C66.8615 88.4222 66.6017 88.5415 66.3458 88.6569C63.614 89.9086 60.7805 90.9251 57.876 91.6952H52.7157L52.5899 91.6217L40.6031 84.7021L40.5198 84.6548H40.5051L40.015 84.3705H40.002L39.9023 84.315L39.8778 84.3019L32.6903 71.8479L32.5792 71.6552L32.4681 71.464V56.6414L32.6184 56.3801L32.736 56.1775L39.623 44.2528L39.8729 43.8199V43.8085L40.1212 43.6647L40.3597 43.5275H40.3728L52.1995 36.6994L52.5262 36.5148L52.7124 36.407H67.5334L79.6084 43.3789L79.7064 43.4344L79.7211 43.4442L80.2716 43.7627H80.2863L80.3696 43.8085L87.4444 56.0681V56.0795V56.091L87.4983 56.1873L87.7842 56.6414Z" stroke="#BD6F6D" stroke-width="0.131806" stroke-miterlimit="10"/>
<path d="M83.1732 40.9105H94.6585V33.9239C94.6585 33.9239 94.028 32.4243 88.9167 32.4243C83.8054 32.4243 83.1732 33.8847 83.1732 33.8847V40.9105Z" fill="#BD6F6D"/>
<path d="M93.8292 33.9043H91.619V36.1145H93.8292V33.9043Z" stroke="#BD6F6D" stroke-width="0.131806" stroke-miterlimit="10"/>
<path d="M86.0362 33.9043H83.8261V36.1145H86.0362V33.9043Z" stroke="#BD6F6D" stroke-width="0.131806" stroke-miterlimit="10"/>
<path d="M91.0473 33.9043H86.627V36.1145H91.0473V33.9043Z" stroke="#BD6F6D" stroke-width="0.131806" stroke-miterlimit="10"/>
<path d="M65.0581 29.7601H76.5434V22.7751C76.5434 22.7751 75.9129 21.2739 70.8016 21.2739C65.6903 21.2739 65.0581 22.7343 65.0581 22.7343V29.7601Z" fill="#BD6F6D"/>
<path d="M75.7131 22.7539H73.5029V24.9641H75.7131V22.7539Z" stroke="#BD6F6D" stroke-width="0.131806" stroke-miterlimit="10"/>
<path d="M67.9191 22.7539H65.709V24.9641H67.9191V22.7539Z" stroke="#BD6F6D" stroke-width="0.131806" stroke-miterlimit="10"/>
<path d="M72.9313 22.7539H68.511V24.9641H72.9313V22.7539Z" stroke="#BD6F6D" stroke-width="0.131806" stroke-miterlimit="10"/>
<path d="M42.9554 29.9578H54.4407V22.9713C54.4407 22.9713 53.8085 21.4717 48.6989 21.4717C43.5892 21.4717 42.9554 22.9321 42.9554 22.9321V29.9578Z" fill="#BD6F6D"/>
<path d="M53.6103 22.9517H51.4001V25.1618H53.6103V22.9517Z" stroke="#BD6F6D" stroke-width="0.131806" stroke-miterlimit="10"/>
<path d="M45.8153 22.9517H43.6051V25.1618H45.8153V22.9517Z" stroke="#BD6F6D" stroke-width="0.131806" stroke-miterlimit="10"/>
<path d="M50.8285 22.9517H46.4081V25.1618H50.8285V22.9517Z" stroke="#BD6F6D" stroke-width="0.131806" stroke-miterlimit="10"/>
<path d="M23.816 39.7066H35.2997V32.72C35.2997 32.72 34.6675 31.2205 29.5579 31.2205C24.4482 31.2205 23.816 32.6808 23.816 32.6808V39.7066Z" fill="#BD6F6D"/>
<path d="M34.4702 32.7004H32.2601V34.9106H34.4702V32.7004Z" stroke="#BD6F6D" stroke-width="0.131806" stroke-miterlimit="10"/>
<path d="M26.6741 32.7004H24.464V34.9106H26.6741V32.7004Z" stroke="#BD6F6D" stroke-width="0.131806" stroke-miterlimit="10"/>
<path d="M31.6884 32.7004H27.2681V34.9106H31.6884V32.7004Z" stroke="#BD6F6D" stroke-width="0.131806" stroke-miterlimit="10"/>
<path d="M16.5935 59.8349H28.0772V52.8483C28.0772 52.8483 27.4466 51.3488 22.3353 51.3488C17.224 51.3488 16.5935 52.8091 16.5935 52.8091V59.8349Z" fill="#BD6F6D"/>
<path d="M27.2489 52.8287H25.0387V55.0389H27.2489V52.8287Z" stroke="#BD6F6D" stroke-width="0.131806" stroke-miterlimit="10"/>
<path d="M19.4538 52.8287H17.2437V55.0389H19.4538V52.8287Z" stroke="#BD6F6D" stroke-width="0.131806" stroke-miterlimit="10"/>
<path d="M24.4649 52.8287H20.0446V55.0389H24.4649V52.8287Z" stroke="#BD6F6D" stroke-width="0.131806" stroke-miterlimit="10"/>
<path d="M14.8147 81.2259H26.3V74.241C26.3 74.241 25.6695 72.7397 20.5582 72.7397C15.4469 72.7397 14.8147 74.2001 14.8147 74.2001V81.2259Z" fill="#BD6F6D"/>
<path d="M25.4705 74.2197H23.2604V76.4299H25.4705V74.2197Z" stroke="#BD6F6D" stroke-width="0.131806" stroke-miterlimit="10"/>
<path d="M17.6765 74.2197H15.4664V76.4299H17.6765V74.2197Z" stroke="#BD6F6D" stroke-width="0.131806" stroke-miterlimit="10"/>
<path d="M22.6887 74.2197H18.2684V76.4299H22.6887V74.2197Z" stroke="#BD6F6D" stroke-width="0.131806" stroke-miterlimit="10"/>
<path d="M27.2083 97.7621H38.6936V90.782C38.6936 90.782 38.0614 89.2825 32.9501 89.2825C27.8388 89.2825 27.2083 90.7428 27.2083 90.7428V97.7621Z" fill="#BD6F6D"/>
<path d="M37.864 90.7559H35.6539V92.966H37.864V90.7559Z" stroke="#BD6F6D" stroke-width="0.131806" stroke-miterlimit="10"/>
<path d="M30.068 90.7559H27.8578V92.966H30.068V90.7559Z" stroke="#BD6F6D" stroke-width="0.131806" stroke-miterlimit="10"/>
<path d="M35.0822 90.7559H30.6619V92.966H35.0822V90.7559Z" stroke="#BD6F6D" stroke-width="0.131806" stroke-miterlimit="10"/>
<path d="M48.3183 100.506L48.645 100.271L49.2984 99.7958C49.8456 99.4021 50.2491 99.1799 50.8045 98.7324L51.061 98.5249H50.8584C50.682 98.5249 50.499 98.5249 50.3095 98.5249C48.4669 98.5249 47.2058 98.7144 46.3482 98.9578C44.8258 99.3874 44.5677 99.9836 44.5677 99.9836V102.87C44.9369 102.669 45.3305 102.447 45.7438 102.205L48.3183 100.506ZM54.8197 99.1456C54.5208 99.4348 54.2186 99.7174 53.9163 99.9951C53.6141 100.273 53.3136 100.544 53.013 100.812L52.7288 101.058L52.4478 101.3C52.0743 101.616 51.704 101.917 51.337 102.204C50.444 102.92 49.497 103.566 48.5045 104.136H56.0595V100.013C56.0595 100.013 55.8668 99.554 54.8262 99.144L54.8197 99.1456Z" fill="#BD6F6D"/>
<path d="M55.2298 99.9934V102.204H53.0197V100.805C53.3202 100.542 53.6224 100.271 53.923 99.9885L55.2298 99.9934Z" fill="#BD6F6D"/>
<path d="M92.924 79.055H104.409V72.07C104.409 72.07 103.777 70.5704 98.6659 70.5704C93.5546 70.5704 92.924 72.0292 92.924 72.0292V79.055Z" fill="#BD6F6D"/>
<path d="M103.58 72.0488H101.37V74.259H103.58V72.0488Z" stroke="#BD6F6D" stroke-width="0.131806" stroke-miterlimit="10"/>
<path d="M95.7837 72.0488H93.5735V74.259H95.7837V72.0488Z" stroke="#BD6F6D" stroke-width="0.131806" stroke-miterlimit="10"/>
<path d="M100.797 72.0488H96.3766V74.259H100.797V72.0488Z" stroke="#BD6F6D" stroke-width="0.131806" stroke-miterlimit="10"/>
<path d="M92.4088 58.4138H103.894V51.4272C103.894 51.4272 103.262 49.9276 98.1506 49.9276C93.0393 49.9276 92.4088 51.388 92.4088 51.388V58.4138Z" fill="#BD6F6D"/>
<path d="M103.064 51.4076H100.854V53.6178H103.064V51.4076Z" stroke="#BD6F6D" stroke-width="0.131806" stroke-miterlimit="10"/>
<path d="M95.2699 51.4076H93.0598V53.6178H95.2699V51.4076Z" stroke="#BD6F6D" stroke-width="0.131806" stroke-miterlimit="10"/>
<path d="M100.283 51.4076H95.8628V53.6178H100.283V51.4076Z" stroke="#BD6F6D" stroke-width="0.131806" stroke-miterlimit="10"/>
<path d="M140.986 107.807H31.7029C31.7029 106.959 31.9937 104.136 35.6234 104.136H137.206C137.206 104.136 140.806 104.811 140.986 107.807Z" stroke="#BD6F6D" stroke-width="0.131806" stroke-miterlimit="10"/>
<path d="M140.986 107.807H31.7029C31.7029 107.955 31.7029 108.044 31.7029 108.044V122.015H76.7424L77.6834 118.403L77.6442 118.336L77.342 117.823L75.6986 115.032L79.0441 109.205L79.0735 109.153L79.789 110.317L80.0618 109.267H94.9007L97.0798 118.251L97.9946 122.022H140.994V108.044C140.994 107.963 140.992 107.883 140.986 107.807ZM36.9792 120.746L33.5488 114.927L36.9237 109.046L40.5337 114.927L36.9792 120.746ZM44.0164 120.746L40.586 114.927L43.9625 109.046L47.5726 114.927L44.0164 120.746ZM51.0406 120.729L47.6102 114.911L50.9867 109.03L54.5968 114.911L51.0406 120.729ZM58.0647 120.76L54.6343 114.942L58.0092 109.061L61.6193 114.942L58.0647 120.76ZM65.0889 120.79L61.6585 114.971L65.0333 109.091L68.6434 114.971L65.0889 120.79ZM72.113 120.821L68.6826 115.002L72.0591 109.122L75.6692 115.002L72.113 120.821ZM100.192 120.94L96.7613 115.122L100.138 109.241L103.748 115.122L100.192 120.94ZM107.216 120.97L103.785 115.153L107.16 109.272L110.77 115.153L107.216 120.97ZM114.24 121.001L110.81 115.182L114.186 109.301L117.796 115.182L114.24 121.001ZM121.264 121.03L117.834 115.211L121.21 109.331L124.82 115.211L121.264 121.03ZM128.288 121.061L124.858 115.242L128.233 109.362L131.843 115.242L128.288 121.061ZM135.312 121.09L131.882 115.272L135.259 109.391L138.869 115.272L135.312 121.09Z" stroke="#BD6F6D" stroke-width="0.131806" stroke-miterlimit="10"/>
<path d="M40.5375 114.927L36.9797 120.746L33.5525 114.927L36.9274 109.048L40.5375 114.927Z" stroke="#BD6F6D" stroke-width="0.131806" stroke-miterlimit="10"/>
<path d="M47.5764 114.927L44.0169 120.746L40.5898 114.927L43.9663 109.048L47.5764 114.927Z" stroke="#BD6F6D" stroke-width="0.131806" stroke-miterlimit="10"/>
<path d="M54.599 114.911L51.0396 120.729L47.6125 114.911L50.989 109.033L54.599 114.911Z" stroke="#BD6F6D" stroke-width="0.131806" stroke-miterlimit="10"/>
<path d="M61.6201 114.942L58.0607 120.761L54.6352 114.942L58.01 109.063L61.6201 114.942Z" stroke="#BD6F6D" stroke-width="0.131806" stroke-miterlimit="10"/>
<path d="M68.6386 114.971L65.0808 120.79L61.6537 114.971L65.0285 109.094L68.6386 114.971Z" stroke="#BD6F6D" stroke-width="0.131806" stroke-miterlimit="10"/>
<path d="M75.6598 115.002L72.1004 120.821L68.6732 115.002L72.0497 109.123L75.6598 115.002Z" stroke="#BD6F6D" stroke-width="0.131806" stroke-miterlimit="10"/>
<path d="M103.738 115.122L100.179 120.94L96.7515 115.122L100.128 109.244L103.738 115.122Z" stroke="#BD6F6D" stroke-width="0.131806" stroke-miterlimit="10"/>
<path d="M110.757 115.153L107.199 120.97L103.772 115.153L107.147 109.274L110.757 115.153Z" stroke="#BD6F6D" stroke-width="0.131806" stroke-miterlimit="10"/>
<path d="M117.777 115.182L114.218 121.001L110.791 115.182L114.167 109.303L117.777 115.182Z" stroke="#BD6F6D" stroke-width="0.131806" stroke-miterlimit="10"/>
<path d="M124.797 115.211L121.237 121.03L117.81 115.211L121.187 109.334L124.797 115.211Z" stroke="#BD6F6D" stroke-width="0.131806" stroke-miterlimit="10"/>
<path d="M131.817 115.242L128.259 121.061L124.832 115.242L128.207 109.363L131.817 115.242Z" stroke="#BD6F6D" stroke-width="0.131806" stroke-miterlimit="10"/>
<path d="M138.838 115.272L135.279 121.09L131.851 115.272L135.228 109.394L138.838 115.272Z" stroke="#BD6F6D" stroke-width="0.131806" stroke-miterlimit="10"/>
<path d="M77.7046 118.302L77.6784 118.403L77.6392 118.336L77.7046 118.302Z" stroke="#BD6F6D" stroke-width="0.131806" stroke-miterlimit="10"/>
<path d="M95.4317 117.276L95.6718 117.428L95.4317 117.278V117.276Z" stroke="#BD6F6D" stroke-width="0.131806" stroke-miterlimit="10"/>
<path d="M47.4349 99.9936V101.165L45.7507 102.204H45.2247L45.2427 99.9919L47.4349 99.9936Z" stroke="#BD6F6D" stroke-width="0.131806" stroke-miterlimit="10"/>
<path d="M84.8513 76.1114L84.7794 76.2078C83.3599 78.1991 81.1285 80.4681 78.3858 82.6962C78.1685 82.8759 77.9464 83.0523 77.7209 83.2287C74.5449 85.727 71.1218 87.894 67.5049 89.6958C67.2468 89.8249 66.9887 89.949 66.729 90.0732C65.463 90.6743 64.179 91.2166 62.8902 91.7067C62.1976 91.9615 61.5039 92.1978 60.8091 92.4156C59.0012 94.8173 57.0006 97.0676 54.8271 99.1441C54.5282 99.4333 54.226 99.7159 53.9238 99.9936C53.6216 100.271 53.321 100.542 53.0204 100.81L52.7296 101.059L52.4487 101.3C52.0752 101.616 51.7049 101.917 51.3379 102.204C50.4449 102.92 49.4979 103.566 48.5054 104.136H42.048C42.5871 103.891 43.4741 103.47 44.5751 102.869C44.9443 102.668 45.3804 102.379 45.7937 102.143L47.4811 101.098C47.7343 100.918 48.0725 100.691 48.324 100.506L48.77 100.18L49.3058 99.791C49.853 99.3973 50.2565 99.1752 50.8119 98.7276L51.0684 98.5201C51.3188 98.3176 51.5682 98.1085 51.8165 97.8929C53.8852 96.1412 55.6995 94.1097 57.2071 91.857C57.2071 91.857 57.4424 91.808 57.8785 91.6936C60.7818 90.9243 63.6142 89.9089 66.3451 88.6585C66.6021 88.5431 66.8618 88.4239 67.1243 88.3008C70.5934 86.6797 73.9009 84.7331 77.0022 82.4871C77.2309 82.3237 77.4612 82.1604 77.6899 81.9807C80.1864 80.1149 82.5218 78.0429 84.6716 75.7864C84.7094 75.9055 84.7705 76.016 84.8513 76.1114V76.1114Z" stroke="#BD6F6D" stroke-width="0.131806" stroke-miterlimit="10"/>
<path d="M59.4381 104.136H56.0616H48.5066" stroke="#BD6F6D" stroke-width="0.131806" stroke-miterlimit="10"/>
<path d="M85.4897 76.5346V76.5492C84.1891 79.5491 82.6091 82.4199 80.7705 85.1236C80.6071 85.3605 80.4438 85.5973 80.2804 85.8342C78.4807 88.3988 76.368 90.7288 73.9913 92.7701C73.3657 94.8202 72.4754 97.5972 70.935 100.359C70.1909 101.703 69.3125 102.968 68.3132 104.135H59.4366C60.5229 103.329 61.5602 102.241 62.4995 101.057C65.3957 97.4224 67.4213 92.8894 67.4213 92.8894L67.4867 92.8616C67.7513 92.7527 68.0143 92.6378 68.2756 92.5169C71.3483 91.0909 74.3197 88.7762 76.9121 86.29C77.5753 85.6545 78.2189 85.0076 78.8233 84.3608C79.0193 84.1533 79.2121 83.9442 79.4016 83.7368C81.0203 81.9736 82.5271 80.1111 83.9134 78.1599V78.1517C84.4034 77.4493 84.8085 76.8351 85.1009 76.3549C85.2219 76.4319 85.3526 76.4924 85.4897 76.5346V76.5346Z" stroke="#BD6F6D" stroke-width="0.131806" stroke-miterlimit="10"/>
<path d="M80.8138 104.136C82.0929 99.1311 82.2268 95.4442 82.2072 93.845C82.2072 93.27 82.1746 92.9661 82.1746 92.9661C82.6401 91.6381 83.0436 90.3198 83.3948 89.0326C83.483 88.7059 83.568 88.389 83.6513 88.0688C84.8895 83.245 85.4187 78.9815 85.8173 76.6211C85.9397 76.6428 86.0638 76.6538 86.1881 76.6538C86.2646 76.6539 86.341 76.6489 86.4168 76.6391C86.8154 79.0175 87.3479 83.2679 88.5845 88.0737C88.9913 89.6484 89.4715 91.282 90.0547 92.9302C90.0547 92.9302 89.6773 97.3162 91.4252 104.138L80.8138 104.136Z" stroke="#BD6F6D" stroke-width="0.131806" stroke-miterlimit="10"/>
<path d="M113.309 104.136H103.957C100.659 100.341 99.1639 95.748 98.2393 92.7325C95.2533 90.2071 92.7997 87.1785 90.8378 84.1597C89.2719 81.7467 87.9061 79.2095 86.754 76.5737C87.0161 76.5039 87.2558 76.3677 87.4499 76.1783C88.2242 77.4852 89.8169 79.7492 91.9437 82.2224C95.3741 86.2098 100.173 90.7559 105.175 92.7848C105.188 92.7897 108.821 100.921 113.309 104.136Z" stroke="#BD6F6D" stroke-width="0.131806" stroke-miterlimit="10"/>
<path d="M103.958 104.136H91.4202" stroke="#BD6F6D" stroke-width="0.131806" stroke-miterlimit="10"/>
<path d="M131.895 104.136H124.286C120.449 102.079 114.848 96.4585 111.801 92.3159C104.697 90.0992 97.5146 85.5874 92.5601 81.1835C90.5771 79.4242 88.9517 77.6795 87.8229 76.1081L87.6596 75.8843C87.67 75.8632 87.6787 75.8414 87.6857 75.819C89.3793 77.4374 91.1534 78.9694 93.0012 80.4092C98.1811 84.4783 106.533 90.0274 115.531 91.9418C115.537 91.9418 121.059 99.8056 131.895 104.136Z" stroke="#BD6F6D" stroke-width="0.131806" stroke-miterlimit="10"/>
<path d="M84.6702 75.7912L84.7127 75.7455H87.6171L87.6906 75.819" stroke="#BD6F6D" stroke-width="0.131806" stroke-miterlimit="10"/>
<path d="M124.287 104.136H113.31" stroke="#BD6F6D" stroke-width="0.131806" stroke-miterlimit="10"/>
<path d="M80.8124 104.136H68.2996" stroke="#BD6F6D" stroke-width="0.131806" stroke-miterlimit="10"/>
<path d="M85.5729 75.4841C85.5386 75.5609 85.4977 75.6475 85.4471 75.7455C85.4275 75.7831 85.4062 75.8239 85.3834 75.8647C85.3066 76.0069 85.22 76.1669 85.1106 76.3434C84.8182 76.8334 84.418 77.446 83.923 78.1402V78.1484C82.5368 80.0996 81.0299 81.9622 79.4112 83.7253C79.2217 83.9327 79.029 84.1418 78.8329 84.3493C78.2236 85.0027 77.5849 85.643 76.9217 86.2785C74.3293 88.7647 71.3579 91.0794 68.2853 92.5055C68.0239 92.6285 67.7609 92.7434 67.4963 92.8501L67.4309 92.8779C67.4309 92.8779 65.4054 97.4126 62.5091 101.046C61.5666 102.23 60.5326 103.318 59.4463 104.123H48.5066C49.4991 103.553 50.4461 102.907 51.3391 102.191C51.705 101.905 52.0753 101.604 52.4499 101.287L52.7309 101.046L53.0216 100.792C53.3222 100.529 53.6244 100.258 53.925 99.9756C54.2255 99.693 54.5294 99.4153 54.8283 99.1261C57.0011 97.0553 59.0016 94.811 60.8103 92.4156C61.5051 92.1978 62.1988 91.9599 62.8914 91.7018C64.1802 91.2231 65.4642 90.6743 66.7302 90.0682C66.9899 89.9441 67.248 89.8199 67.5061 89.6909C71.1233 87.8907 74.547 85.7254 77.7238 83.2287C77.9492 83.0523 78.1714 82.8758 78.3886 82.6961C81.1313 80.468 83.3627 78.1991 84.7822 76.2078L84.8541 76.1114L85.0354 75.8647L85.1236 75.7455L85.318 75.4841H85.5729Z" fill="#BD6F6D"/>
<path d="M86.0298 75.5038C86.0119 75.5789 85.9939 75.659 85.9776 75.7456L85.953 75.8648C85.9089 76.0886 85.8632 76.3402 85.8158 76.6211C85.4172 78.9816 84.888 83.2451 83.6498 88.0689C83.5665 88.3956 83.4864 88.7092 83.3933 89.0326C83.0421 90.3199 82.6386 91.6463 82.1731 92.9662C82.1731 92.9662 82.1992 93.27 82.2057 93.845C82.2253 95.4426 82.0914 99.1295 80.8124 104.136H68.2996C69.2988 102.97 70.1772 101.705 70.9214 100.361C72.4618 97.5988 73.352 94.8218 73.9777 92.7718C76.3544 90.7304 78.4671 88.4004 80.2667 85.8358C80.4301 85.599 80.6016 85.3621 80.7568 85.1252C82.5954 82.4215 84.1755 79.5507 85.4761 76.5509V76.5362L85.7668 75.8664L85.8191 75.7472L85.9236 75.5054L86.0298 75.5038Z" fill="#BD6F6D"/>
<path d="M103.958 104.136H91.4204C89.6726 97.3145 90.0499 92.9285 90.0499 92.9285C89.4716 91.2803 88.9914 89.6468 88.5797 88.0721C87.3432 83.2695 86.8106 79.0191 86.412 76.6374C86.3647 76.3515 86.3189 76.0934 86.2732 75.8631L86.2487 75.7439C86.2291 75.6442 86.2095 75.5495 86.1899 75.4629H86.283L86.4039 75.7439L86.4561 75.8631L86.7355 76.5165L86.7633 76.5802C87.9153 79.2161 89.2812 81.7532 90.8471 84.1663C92.8073 87.1818 95.2576 90.2103 98.2486 92.739C99.165 95.748 100.66 100.341 103.958 104.136Z" fill="#BD6F6D"/>
<path d="M124.286 104.136H113.309C108.821 100.921 105.188 92.7897 105.188 92.7897C100.186 90.7609 95.3871 86.2148 91.9567 82.2273C89.8332 79.7493 88.2372 77.4901 87.4629 76.1833C87.3959 76.0722 87.3355 75.9677 87.2832 75.8697C87.2604 75.8288 87.2375 75.788 87.2179 75.7504C87.1427 75.6116 87.0823 75.4923 87.0382 75.3894H87.2947L87.5626 75.7504L87.6508 75.8697L87.6655 75.8893L87.8288 76.1131C88.9494 77.6845 90.5748 79.4291 92.566 81.1884C97.5205 85.5989 104.703 90.1042 111.807 92.3209C114.847 96.4651 120.449 102.08 124.286 104.136Z" fill="#BD6F6D"/>
</g>
<defs>
<clipPath id="clip0">
<rect width="128" height="103.06" fill="white" transform="translate(14 19.9209)"/>
</clipPath>
</defs>
</svg>
