<svg width="220" height="207" viewBox="0 0 220 207" fill="none" xmlns="http://www.w3.org/2000/svg">
<path d="M168.815 29.0674C170.833 25.4808 173.149 22.6414 175.69 20.4746C179.127 17.7099 180.92 18.756 181.219 23.5381C181.443 27.7224 184.656 31.0101 190.708 33.6253L197.06 36.2405C199.002 37.2119 200.123 38.3327 200.273 39.5282C200.497 41.3215 199.974 42.8906 198.704 44.1608C197.882 44.9827 196.387 45.8794 194.146 47.0002C191.755 48.1957 190.185 49.0923 189.438 49.6901C187.944 50.8856 187.271 52.3053 187.271 53.9491C187.271 55.2194 187.72 56.4149 188.542 57.6104L190.858 60.4498C192.576 62.6167 192.352 64.933 190.26 67.4735C188.616 69.4162 188.766 70.7612 190.783 71.5831C192.128 72.1061 194.818 72.4797 198.778 72.6292L207.745 73.3016C210.509 73.8247 211.63 74.8708 211.182 76.4399L209.164 82.4922C208.268 85.1821 207.819 87.4237 207.67 89.1423C207.296 94.3727 209.986 97.5857 215.665 98.9306C219.476 99.8273 220.671 101.77 219.326 104.834L213.946 112.754C212.975 114.323 212.004 116.191 211.032 118.507L208.94 123.738C207.296 127.324 204.681 129.566 201.244 130.388C199.227 130.911 197.657 131.957 196.462 133.526C195.416 135.02 195.042 136.44 195.266 137.86C195.416 138.831 196.238 140.4 197.732 142.567C199.077 144.585 199.75 146.154 199.75 147.349C199.75 150.039 197.956 152.355 194.295 154.522C189.887 156.988 183.535 158.482 175.316 158.856C173 159.006 172.253 160.724 173.075 164.012L174.419 168.794C174.943 170.811 175.241 172.455 175.316 173.875C175.316 175.668 173.448 177.984 169.563 180.749C165.603 183.588 163.51 186.129 163.361 188.371C163.062 192.331 161.867 194.647 159.774 195.245L156.561 195.469L152.825 195.394L139.525 195.843C134.818 196.366 132.053 197.935 131.231 200.475C130.409 203.09 127.57 204.958 122.638 206.079C117.632 207.275 114.046 206.677 111.804 204.286C109.787 202.119 107.321 200.55 104.482 199.504L97.4578 197.785C97.0842 197.711 94.8426 196.366 90.733 193.825C87.2959 191.658 85.5026 191.135 85.5026 192.107C85.5026 196.889 84.5313 199.877 82.6633 201.222C80.4217 202.717 75.789 202.791 68.9148 201.372C67.2709 199.055 65.2535 197.337 62.7877 196.216C61.5922 195.618 59.5 194.946 56.586 194.199C54.1202 193.601 52.4016 192.854 51.3555 192.032C49.8611 190.836 48.8898 188.968 48.4415 186.428C47.3207 179.105 43.3605 174.771 36.6357 173.651L28.7154 172.605C25.876 172.082 23.7838 171.035 22.5136 169.466C21.0192 167.598 19.8984 165.73 19.0765 163.862C17.8062 160.649 18.1798 158.557 20.1973 157.511C22.7378 156.241 23.2608 154.149 21.7664 151.309L19.8984 147.648C19.3006 146.154 19.1512 144.809 19.4501 143.613L21.617 137.86C22.663 135.02 23.1861 133.003 23.1861 131.882C23.0366 129.043 22.663 127.1 22.14 125.979C21.3928 124.634 20.1973 123.887 18.404 123.812C10.409 123.215 6.0752 120.45 5.328 115.518L4.87968 109.167C4.5808 106.702 3.75887 104.759 2.33919 103.414C-0.649608 100.5 -0.0518482 95.8671 4.20719 89.5906C5.7016 87.2743 7.42016 85.2569 9.28816 83.5383C11.0814 81.8944 12.3517 81.1472 12.9494 81.2967C17.7315 82.6416 20.795 81.3714 22.2894 77.3365C22.9619 75.618 23.2608 72.7039 23.3355 68.669L23.485 57.6104C24.008 49.0176 26.9968 44.8333 32.5261 45.0575C35.5149 45.2069 37.8312 43.5631 39.5498 40.2754C41.3431 36.8383 42.0155 32.5045 41.4925 27.1246C41.4178 25.8544 40.82 24.36 39.7739 22.5667C38.8026 20.8482 38.2795 19.8768 38.2795 19.5779C38.2795 17.6352 42.9869 16.7386 52.3269 16.7386C61.5175 16.7386 66.8226 17.411 68.2423 18.8307C71.0816 21.6701 74.0704 23.0898 77.0592 23.0898C80.1228 23.0898 81.6172 21.5206 81.6172 18.4571C81.6172 16.5144 83.1116 15.02 86.0257 14.1234C88.9397 13.2267 91.7044 13.3762 94.3943 14.497C100.297 17.0374 105.976 15.9166 111.356 10.9851L117.109 5.08223C119.127 2.91535 120.77 1.64511 122.041 1.27151C126.524 -0.073454 130.484 0.972627 133.772 4.40975C136.686 7.47327 139.749 13.0026 142.738 20.9976C144.98 26.9005 149.239 30.8606 155.515 32.8034C158.28 33.6253 160.82 33.7747 163.137 33.177C165.827 32.6539 167.62 31.2342 168.815 29.0674Z" fill="#EDE9D7"/>
</svg>
