<svg width="157" height="123" viewBox="0 0 157 123" fill="none" xmlns="http://www.w3.org/2000/svg">
<rect x="0.5" y="1.48096" width="156" height="121" rx="15.5" stroke="#BD6F6D"/>
<g clip-path="url(#clip0)">
<path d="M33.9965 84.9851V122.684H54.4663V96.7666H55.3988V84.9851H33.9965ZM42.3176 101.7H39.7653V93.646C39.7653 93.646 40.1082 92.4682 41.0407 92.4682C41.9732 92.4682 42.3176 93.4997 42.3176 93.4997V101.7ZM48.7843 101.675H46.232V93.6247C46.232 93.6247 46.5749 92.4468 47.5074 92.4468C48.4399 92.4468 48.7843 93.4784 48.7843 93.4784V101.675Z" stroke="#BD6F6D" stroke-width="0.150719" stroke-miterlimit="10"/>
<path d="M42.3176 93.5028V101.7H39.7654V93.646C39.7654 93.646 40.1082 92.4681 41.0408 92.4681C41.9733 92.4681 42.3176 93.5028 42.3176 93.5028Z" stroke="#BD6F6D" stroke-width="0.150719" stroke-miterlimit="10"/>
<path d="M105.565 85.0597V122.902H122.935V85.0597H105.565ZM110.677 101.688H108.125V93.6368C108.125 93.6368 108.467 92.4589 109.4 92.4589C110.333 92.4589 110.677 93.4905 110.677 93.4905V101.688ZM117.144 101.662H114.591V93.6124C114.591 93.6124 114.934 92.4346 115.867 92.4346C116.799 92.4346 117.144 93.4661 117.144 93.4661V101.662Z" stroke="#BD6F6D" stroke-width="0.150719" stroke-miterlimit="10"/>
<path d="M110.677 93.4936V101.691H108.124V93.6368C108.124 93.6368 108.467 92.459 109.4 92.459C110.332 92.459 110.677 93.4936 110.677 93.4936Z" stroke="#BD6F6D" stroke-width="0.150719" stroke-miterlimit="10"/>
<path d="M117.143 93.4661V101.662H114.591V93.6124C114.591 93.6124 114.934 92.4346 115.867 92.4346C116.799 92.4346 117.143 93.4661 117.143 93.4661Z" stroke="#BD6F6D" stroke-width="0.150719" stroke-miterlimit="10"/>
<path d="M55.399 69.6212V79.242H54.4665V82.1143H52.6014V79.242H49.8526V82.1143H47.9373V79.242H45.2388V82.1143H43.4225V79.242H43.0293V69.6212H55.399Z" stroke="#BD6F6D" stroke-width="0.150719" stroke-miterlimit="10"/>
<path d="M56.0219 51.5574L58.0027 53.3249V98.4594H58.2618V96.7665H61.1325V98.534H63.0463V96.7665H65.7738V98.4975H67.6525V80.3468H65.9521L74.4194 73.3665V53.3249L76.1824 51.5574H56.0219ZM64.1403 65.597H61.5835V60.3722C61.7088 60.1485 61.8895 59.9607 62.1083 59.8269C62.327 59.6932 62.5765 59.6178 62.8327 59.6082C63.0889 59.5986 63.3433 59.6549 63.5715 59.7719C63.7997 59.8889 63.994 60.0625 64.1358 60.2762L64.1403 65.597ZM70.6695 65.597H68.1127V60.3722C68.238 60.1485 68.4187 59.9607 68.6375 59.8269C68.8562 59.6932 69.1057 59.6178 69.3619 59.6082C69.6181 59.5986 69.8725 59.6549 70.1007 59.7719C70.3289 59.8889 70.5232 60.0625 70.665 60.2762L70.6695 65.597Z" stroke="#BD6F6D" stroke-width="0.150719" stroke-miterlimit="10"/>
<path d="M64.1359 60.2762V65.5971H61.5837V60.3722C61.709 60.1485 61.8897 59.9608 62.1084 59.827C62.3272 59.6932 62.5767 59.6179 62.8329 59.6082C63.0891 59.5986 63.3435 59.655 63.5717 59.7719C63.7999 59.8889 63.9942 60.0626 64.1359 60.2762V60.2762Z" stroke="#BD6F6D" stroke-width="0.150719" stroke-miterlimit="10"/>
<path d="M70.6652 60.2762V65.5971H68.113V60.3722C68.2383 60.1485 68.419 59.9608 68.6377 59.827C68.8565 59.6932 69.1059 59.6179 69.3622 59.6082C69.6184 59.5986 69.8728 59.655 70.101 59.7719C70.3292 59.8889 70.5234 60.0626 70.6652 60.2762V60.2762Z" stroke="#BD6F6D" stroke-width="0.150719" stroke-miterlimit="10"/>
<path d="M67.6467 80.3468V96.7666H69.5606V93.5271H74.6407V91.3604H82.1512V93.4585H87.2587V96.7361H89.2959V80.3468H67.6467ZM76.4844 88.6176H73.9291V83.3943C74.0422 83.1739 74.2115 82.9874 74.4197 82.8533C74.7544 82.6473 75.1558 82.5786 75.54 82.6615C75.9241 82.7444 76.2614 82.9726 76.4813 83.2983L76.4844 88.6176ZM83.0136 88.6176H80.4583V83.3943C80.5836 83.1706 80.7643 82.9828 80.983 82.849C81.2018 82.7153 81.4513 82.6399 81.7075 82.6303C81.9637 82.6207 82.2181 82.677 82.4463 82.794C82.6745 82.911 82.8688 83.0846 83.0105 83.2983L83.0136 88.6176Z" stroke="#BD6F6D" stroke-width="0.150719" stroke-miterlimit="10"/>
<path d="M83.0105 83.2983V88.6177H80.4583V83.3943C80.5836 83.1706 80.7643 82.9828 80.983 82.8491C81.2018 82.7153 81.4513 82.64 81.7075 82.6303C81.9637 82.6207 82.2181 82.6771 82.4463 82.794C82.6745 82.911 82.8688 83.0847 83.0105 83.2983V83.2983Z" stroke="#BD6F6D" stroke-width="0.150719" stroke-miterlimit="10"/>
<path d="M102.56 62.3591L102.536 64.9952H101.865V66.9273H100.154V64.9952H98.6074V66.9471H96.9694V64.9952H95.4777V66.9471H93.8397V64.9952H92.2748V66.9273H90.5819V64.9952H89.0354V66.9273H87.4705V65.0866H85.8142V66.8541H84.1579V64.9952H83.4768V62.7492H102.325L102.56 62.3591Z" stroke="#BD6F6D" stroke-width="0.150719" stroke-miterlimit="10"/>
<path d="M100.387 79.169V85.0598H102.325V96.6188H100.387V98.4976H98.4978V96.7666H95.7733V98.3863H93.858V96.7666H91.1457V98.4595H89.2929V80.3469H90.9126L83.4768 74.1803V69.1733H102.325V79.169H100.387Z" stroke="#BD6F6D" stroke-width="0.150719" stroke-miterlimit="10"/>
<path d="M109.493 59.1974V64.5168H106.939V59.2919C107.065 59.0683 107.246 58.8807 107.465 58.7471C107.684 58.6135 107.933 58.5383 108.19 58.5289C108.446 58.5194 108.7 58.5759 108.929 58.6929C109.157 58.81 109.351 58.9837 109.493 59.1974V59.1974Z" stroke="#BD6F6D" stroke-width="0.150719" stroke-miterlimit="10"/>
<path d="M116.405 79.265V82.1144H116.686" stroke="#BD6F6D" stroke-width="0.150719" stroke-miterlimit="10"/>
<path d="M113.886 53.8765L115.315 53.2959V53.2883H101.484L102.639 53.9237L102.612 56.8356L104.093 59.8038L102.56 62.3576L102.535 64.9936H103.503V69.1717H102.325V79.1704H102.401V82.1158H104.362V79.1704H107.014V82.1158H108.952V79.1704H111.695V82.1158H113.56V79.1704H116.389L113.886 53.8765ZM109.493 64.5167H106.939V59.2918C107.065 59.0682 107.246 58.8806 107.465 58.747C107.684 58.6134 107.933 58.5383 108.189 58.5288C108.446 58.5193 108.7 58.5758 108.928 58.6929C109.157 58.8099 109.351 58.9837 109.493 59.1974V64.5167Z" stroke="#BD6F6D" stroke-width="0.150719" stroke-miterlimit="10"/>
<path d="M113.738 41.5435V50.6737H113.027V49.6436H111.677V50.6737H110.375V49.6436H108.952V50.6737H107.652V49.6436H106.228V50.6737H104.878V49.6436H103.578V50.6737H102.694V41.5435H113.738Z" stroke="#BD6F6D" stroke-width="0.150719" stroke-miterlimit="10"/>
<path d="M113.738 53.2824V53.2885H102.694V53.2443L113.738 53.2824Z" stroke="#BD6F6D" stroke-width="0.150719" stroke-miterlimit="10"/>
<path d="M74.3464 38.8937V48.3911H73.3393V46.3539H71.8186V48.3911H70.1501V46.3539H68.5547V48.3911H66.9091V46.3539H65.364V48.3911H63.6453V46.3539H62.1231V48.3911H60.4789V46.3539H58.9583V48.3911H57.9998V38.8937H74.3464Z" stroke="#BD6F6D" stroke-width="0.150719" stroke-miterlimit="10"/>
<path d="M87.2585 110.069V122.684H69.7355V110.168C69.7355 110.168 70.9545 102.702 78.4726 102.702C85.9907 102.702 87.2585 110.069 87.2585 110.069Z" stroke="#BD6F6D" stroke-width="0.150719" stroke-miterlimit="10"/>
<path d="M102.325 85.0597V96.6187H100.387V98.4975H98.4978V96.7665H95.7734V98.3863H93.8581V96.7665H91.1458V98.4594H89.293V96.73H87.2588V93.4524H82.1543V91.3603H74.6407V93.5332H69.5606V96.7726H67.6468V98.5036H65.7741V96.7665H63.0436V98.5341H61.1298V96.7665H58.2591V98.4594H56.4169V96.7665H54.4665V122.684L105.565 122.902V85.0597H102.325ZM87.2588 122.684H69.7359V110.168C69.7359 110.168 70.9548 102.701 78.4729 102.701C85.991 102.701 87.2588 110.069 87.2588 110.069V122.684Z" stroke="#BD6F6D" stroke-width="0.150719" stroke-miterlimit="10"/>
<path d="M102.347 85.0597H102.325" stroke="#BD6F6D" stroke-width="0.150719" stroke-miterlimit="10"/>
<path d="M57.8348 38.8938H57.2086V37.1446H56.3614V35.2109H75.7691V37.0516H74.9844V38.8938H57.8348Z" stroke="#BD6F6D" stroke-width="0.150719" stroke-miterlimit="10"/>
<path d="M101.901 39.0219H114.658V40.6233H114.252V41.5436H102.361V40.6233H101.901V39.0219Z" stroke="#BD6F6D" stroke-width="0.150719" stroke-miterlimit="10"/>
<path d="M42.3173 93.5029V101.701H39.7651V93.6461C39.7651 93.6461 40.1079 92.4683 41.0404 92.4683C41.973 92.4683 42.3173 93.5029 42.3173 93.5029Z" stroke="#BD6F6D" stroke-width="0.150719" stroke-miterlimit="10"/>
<path d="M48.784 93.4783V101.675H46.2317V93.6246C46.2317 93.6246 46.5746 92.4468 47.5071 92.4468C48.4396 92.4468 48.784 93.4783 48.784 93.4783Z" stroke="#BD6F6D" stroke-width="0.150719" stroke-miterlimit="10"/>
<path d="M64.1357 60.2763V65.5972H61.5834V60.3723C61.7087 60.1486 61.8894 59.9609 62.1082 59.8271C62.3269 59.6933 62.5764 59.618 62.8326 59.6084C63.0888 59.5987 63.3432 59.6551 63.5714 59.7721C63.7996 59.889 63.9939 60.0627 64.1357 60.2763V60.2763Z" stroke="#BD6F6D" stroke-width="0.150719" stroke-miterlimit="10"/>
<path d="M47.2008 77.9729H51.2631V72.8059C51.2631 72.8059 50.7161 72.1614 49.232 72.1614C47.7478 72.1614 47.2008 72.905 47.2008 72.905V77.9729Z" stroke="#BD6F6D" stroke-width="0.150719" stroke-miterlimit="10"/>
<path d="M70.6648 60.2763V65.5972H68.1126V60.3723C68.2379 60.1486 68.4186 59.9609 68.6373 59.8271C68.8561 59.6933 69.1055 59.618 69.3618 59.6084C69.618 59.5987 69.8724 59.6551 70.1006 59.7721C70.3288 59.889 70.5231 60.0627 70.6648 60.2763V60.2763Z" stroke="#BD6F6D" stroke-width="0.150719" stroke-miterlimit="10"/>
<path d="M76.481 83.2984V88.6178H73.9288V83.3944C74.0419 83.1741 74.2111 82.9875 74.4194 82.8535C74.7541 82.6474 75.1555 82.5787 75.5396 82.6616C75.9238 82.7445 76.2611 82.9727 76.481 83.2984V83.2984Z" stroke="#BD6F6D" stroke-width="0.150719" stroke-miterlimit="10"/>
<path d="M83.0102 83.2984V88.6178H80.458V83.3944C80.5833 83.1707 80.764 82.983 80.9827 82.8492C81.2015 82.7154 81.4509 82.6401 81.7072 82.6305C81.9634 82.6208 82.2178 82.6772 82.446 82.7942C82.6742 82.9111 82.8685 83.0848 83.0102 83.2984V83.2984Z" stroke="#BD6F6D" stroke-width="0.150719" stroke-miterlimit="10"/>
<path d="M110.677 93.4936V101.691H108.124V93.6368C108.124 93.6368 108.467 92.459 109.4 92.459C110.332 92.459 110.677 93.4936 110.677 93.4936Z" stroke="#BD6F6D" stroke-width="0.150719" stroke-miterlimit="10"/>
<path d="M117.143 93.4663V101.662H114.591V93.6125C114.591 93.6125 114.934 92.4347 115.866 92.4347C116.799 92.4347 117.143 93.4663 117.143 93.4663Z" stroke="#BD6F6D" stroke-width="0.150719" stroke-miterlimit="10"/>
<path d="M109.493 59.1975V64.5169H106.939V59.292C107.064 59.0684 107.245 58.8808 107.464 58.7472C107.683 58.6136 107.933 58.5385 108.189 58.529C108.446 58.5195 108.7 58.576 108.928 58.6931C109.156 58.8101 109.351 58.9838 109.493 59.1975V59.1975Z" stroke="#BD6F6D" stroke-width="0.150719" stroke-miterlimit="10"/>
<path d="M106.989 48.5877H109.541V43.2684C109.4 43.0547 109.205 42.8811 108.977 42.7641C108.749 42.6472 108.495 42.5908 108.238 42.6004C107.982 42.6101 107.733 42.6854 107.514 42.8192C107.295 42.9529 107.114 43.1407 106.989 43.3644V48.5877Z" stroke="#BD6F6D" stroke-width="0.150719" stroke-miterlimit="10"/>
<path d="M91.1455 84.1395H94.8893V75.1891C94.7131 74.8459 94.4445 74.5589 94.1139 74.3602C93.7833 74.1615 93.4038 74.0591 93.0181 74.0645C91.6468 74.0645 91.1455 75.3506 91.1455 75.3506V84.1395Z" stroke="#BD6F6D" stroke-width="0.150719" stroke-miterlimit="10"/>
<path d="M56.4303 79.2422V84.9851H32.0826V79.2422H33.9964V82.1144H35.9605V79.2422H38.6118V82.1144H40.5743V79.2422H43.4222V82.1144H45.2385V79.2422H47.937V82.1144H49.8523V79.2422H52.6012V82.1144H54.4662V79.2422H56.4303Z" stroke="#BD6F6D" stroke-width="0.150719" stroke-miterlimit="10"/>
<path d="M49.214 47.6796L56.4289 67.1666L55.3988 69.6213H43.0291L41.9488 66.9213L49.214 47.6796Z" fill="#BD6F6D"/>
<path d="M76.335 46.354V51.5575H55.8652V46.354H57.264V48.3912H58.9584V46.354H60.4791V48.3912H62.1232V46.354H63.6454V48.3912H65.3641V46.354H66.9092V48.3912H68.5548V46.354H70.1502V48.3912H71.8187V46.354H73.3394V48.3912H74.985V46.354H76.335Z" stroke="#BD6F6D" stroke-width="0.150719" stroke-miterlimit="10"/>
<path d="M66.0998 9.98096L75.7694 35.2109H56.479L66.0998 9.98096Z" fill="#BD6F6D"/>
<path d="M104.093 59.804L102.56 62.3577V62.3593L102.325 62.7493H83.4766L81.8081 59.6074L92.9009 37.3716L102.612 56.8357L104.093 59.804Z" fill="#BD6F6D"/>
<path d="M108.216 24.2705L113.468 38.0633L112.879 39.0461H103.651L103.061 37.9658L108.216 24.2705Z" fill="#BD6F6D"/>
<path d="M115.333 49.6437V53.2884L113.738 53.2824L102.694 53.2443L101.147 53.2397V49.6437H102.179V50.6737H103.578V49.6437H104.877V50.6737H106.227V49.6437H107.652V50.6737H108.952V49.6437H110.375V50.6737H111.676V49.6437H113.026V50.6737H114.449V49.6437H115.333Z" stroke="#BD6F6D" stroke-width="0.150719" stroke-miterlimit="10"/>
<path d="M103.503 64.9954V69.1734H82.5197V64.9954H84.1577V66.8543H85.814V65.0868H87.4703V66.9275H89.0352V64.9954H90.5818V66.9275H92.2746V64.9954H93.8395V66.9473H95.4775V64.9954H96.9692V66.9473H98.6073V64.9954H100.154V66.9275H101.865V64.9954H103.503Z" stroke="#BD6F6D" stroke-width="0.150719" stroke-miterlimit="10"/>
<path d="M124.881 79.1691V85.0598H105.565H102.346H100.387V79.1691H102.401V82.1144H104.362V79.1691H107.014V82.1144H108.952V79.1691H111.701V82.1144H113.566V79.1691H116.395L116.404 79.2651V82.1144H118.181V79.1691H121.003V82.1144H122.844V79.1691H124.881Z" stroke="#BD6F6D" stroke-width="0.150719" stroke-miterlimit="10"/>
<path d="M116.405 79.1691V79.2656L116.395 79.1691H116.405Z" stroke="#BD6F6D" stroke-width="0.150719" stroke-miterlimit="10"/>
<path d="M90.9125 80.3469H65.9522L74.4196 73.3667L78.4697 70.0282L83.4766 74.1804L90.9125 80.3469Z" fill="#BD6F6D"/>
<path d="M87.2583 110.069V122.684H69.7354V110.168C69.7354 110.168 70.9544 102.702 78.4724 102.702C85.9905 102.702 87.2583 110.069 87.2583 110.069Z" fill="#BD6F6D"/>
</g>
<defs>
<clipPath id="clip0">
<rect width="93.0503" height="113" fill="white" transform="translate(32 9.98096)"/>
</clipPath>
</defs>
</svg>
