<svg width="21" height="21" viewBox="0 0 21 21" fill="none" xmlns="http://www.w3.org/2000/svg">
<path d="M14.7939 12.7684H13.8905L13.5703 12.4597C14.691 11.1561 15.3656 9.46369 15.3656 7.62264C15.3656 3.51744 12.038 0.189819 7.93282 0.189819C3.82762 0.189819 0.5 3.51744 0.5 7.62264C0.5 11.7278 3.82762 15.0555 7.93282 15.0555C9.77387 15.0555 11.4663 14.3808 12.7699 13.2601L13.0786 13.5803V14.4837L18.7962 20.1898L20.5 18.486L14.7939 12.7684ZM7.93282 12.7684C5.08548 12.7684 2.78702 10.47 2.78702 7.62264C2.78702 4.7753 5.08548 2.47684 7.93282 2.47684C10.7802 2.47684 13.0786 4.7753 13.0786 7.62264C13.0786 10.47 10.7802 12.7684 7.93282 12.7684Z" fill="#F8F1F0"/>
</svg>
