<svg width="697" height="842" viewBox="0 0 697 842" fill="none" xmlns="http://www.w3.org/2000/svg">
<path d="M276.233 841.466C508.321 841.466 696.465 653.097 696.465 420.733C696.465 188.369 508.321 0 276.233 0C44.1446 0 -144 188.369 -144 420.733C-144 653.097 44.1446 841.466 276.233 841.466Z" fill="#22222E"/>
<path d="M276.233 13.9778C500.078 13.9778 682.504 196.622 682.504 420.733C682.504 644.844 500.078 827.488 276.233 827.488C52.3878 827.488 -130.039 644.844 -130.039 420.733C-130.039 196.622 52.3878 13.9778 276.233 13.9778ZM276.233 0C44.0111 0 -144 188.235 -144 420.733C-144 653.231 44.0111 841.466 276.233 841.466C508.454 841.466 696.465 653.231 696.465 420.733C696.465 188.235 507.989 0 276.233 0Z" fill="#6B6B74"/>
<path d="M445.164 437.972C445.164 437.972 454.471 493.418 407.934 506.464C404.211 507.396 400.488 507.862 396.299 507.862C376.288 508.328 306.017 509.725 286.006 502.736C286.006 502.736 256.222 496.213 245.518 467.326C245.053 465.928 244.588 464.53 244.122 463.133C238.538 441.7 239.469 397.903 274.837 375.072C305.086 355.969 328.82 354.105 367.912 354.105C367.912 354.571 433.064 353.174 445.164 437.972Z" fill="#6B6B74"/>
<path d="M368.377 368.548C369.308 368.548 382.338 368.548 396.3 377.401C415.38 389.049 427.014 410.016 431.203 439.835C431.203 439.835 433.064 451.949 430.272 464.529C426.549 479.439 418.172 488.758 404.211 492.485C401.884 492.951 399.092 493.417 395.834 493.417C389.784 493.417 376.754 493.883 362.327 493.883C309.74 493.883 294.383 490.621 290.66 489.223L289.729 488.758H289.264C288.333 488.758 266.46 483.166 259.014 462.2L258.549 461.268C258.549 460.802 258.083 459.87 258.083 459.87C255.757 451.483 254.826 437.506 258.083 423.062C261.806 407.22 270.183 395.106 282.748 387.185C308.809 370.412 329.751 368.548 368.377 368.548ZM368.377 354.57C367.912 354.57 367.912 354.57 368.377 354.57C329.286 354.57 305.086 356.434 274.837 375.537C239.469 397.902 238.538 442.165 244.122 463.597C244.588 464.995 245.053 466.393 245.518 467.791C256.222 496.678 286.006 503.201 286.006 503.201C299.036 507.861 334.405 508.792 362.327 508.792C376.754 508.792 389.319 508.327 395.834 508.327C399.557 508.327 403.746 507.861 407.468 506.929C454.471 493.883 444.698 438.437 444.698 438.437C433.064 355.968 371.635 354.57 368.377 354.57Z" fill="#6B6B74"/>
<path d="M-10.9028 378.335C-2.52611 365.755 13.2966 353.175 41.219 358.766C54.7149 361.561 67.7453 368.084 77.5182 377.869C92.8755 392.313 112.421 420.268 112.421 465.929C112.421 465.929 113.817 494.351 62.6263 494.351H38.4268C18.4157 494.351 -1.12999 485.032 -13.2297 468.725C-18.8142 461.27 -21.6064 452.883 -21.6064 442.633L-20.6757 407.222C-19.7449 396.972 -16.4873 386.722 -10.9028 378.335Z" fill="#6B6B74"/>
<path d="M28.1885 371.345C31.4461 371.345 35.1691 371.811 38.8921 372.277C50.0611 374.607 60.2993 379.732 68.676 387.653C82.6372 401.164 99.3907 425.393 99.3907 465.928V466.394V466.86C99.3907 466.86 98.9253 469.656 96.5985 471.986C93.3409 475.247 84.9641 480.838 64.0223 480.838H39.8228C23.5347 480.838 8.64278 473.383 -0.664703 461.269C-4.85307 455.678 -6.24919 450.087 -6.71456 443.564L-5.78381 408.619C-5.31844 400.233 -2.99157 392.778 1.1968 386.721C7.24666 376.004 16.0888 371.345 28.1885 371.345ZM28.1885 357.367C8.17741 357.367 -3.45694 367.618 -10.4375 378.334C-16.022 387.187 -19.2797 396.971 -19.745 407.687L-20.6758 442.632C-20.6758 452.882 -17.8835 461.269 -12.2991 468.724C-0.199329 485.031 18.881 494.35 39.3575 494.35H63.5569C114.283 494.35 113.352 465.928 113.352 465.928C113.352 419.802 93.3408 392.312 78.4489 377.868C68.2106 368.084 55.6456 361.561 42.1497 358.765C36.5652 357.833 32.3769 357.367 28.1885 357.367Z" fill="#6B6B74"/>
<path d="M269.253 605.24C246.915 615.025 177.574 639.719 96.5989 605.706C90.0836 602.911 83.5684 609.434 86.3606 615.957C88.2221 620.15 91.0144 626.673 101.718 631.332C107.768 634.128 120.333 637.855 124.056 638.787C139.413 642.049 203.17 647.64 248.311 636.457C248.311 636.457 303.69 623.411 287.868 608.502C283.214 603.376 275.302 602.445 269.253 605.24Z" fill="#6B6B74"/>
<path d="M276.699 603.377C274.372 603.377 271.579 603.843 269.253 604.775C255.291 610.832 223.646 622.48 182.228 622.48C156.632 622.48 127.313 617.821 96.5987 604.775C95.668 604.309 94.7372 604.309 93.3411 604.309C88.222 604.309 84.0336 609.434 85.8951 615.025C87.7566 619.218 90.5489 625.741 101.252 630.401C107.302 633.196 119.867 636.924 123.59 637.856C131.967 639.719 155.701 642.049 182.693 642.049C204.1 642.049 227.834 640.651 247.845 635.526C247.845 635.526 303.225 622.48 287.402 607.57C285.075 605.241 280.887 603.377 276.699 603.377Z" fill="#6B6B74"/>
</svg>
