<svg width="640" height="777" viewBox="0 0 640 777" fill="none" xmlns="http://www.w3.org/2000/svg">
<g clip-path="url(#clip0)">
<path d="M14.2041 515.142V774.029H154.776V596.049H161.18V515.142H14.2041ZM71.3472 629.931H53.8203V574.619C53.8203 574.619 56.1746 566.53 62.5785 566.53C68.9824 566.53 71.3472 573.614 71.3472 573.614V629.931ZM115.756 629.753H98.2289V574.472C98.2289 574.472 100.583 566.384 106.987 566.384C113.391 566.384 115.756 573.468 115.756 573.468V629.753Z" stroke="#B25D5D" stroke-miterlimit="10"/>
<path d="M71.3473 573.635V629.931H53.8203V574.619C53.8203 574.619 56.1747 566.53 62.5786 566.53C68.9824 566.53 71.3473 573.635 71.3473 573.635Z" stroke="#B25D5D" stroke-miterlimit="10"/>
<path d="M505.681 515.655V775.525H624.969V515.655H505.681ZM540.787 629.847H523.26V574.556C523.26 574.556 525.615 566.467 532.019 566.467C538.423 566.467 540.787 573.551 540.787 573.551V629.847ZM585.196 629.669H567.669V574.388C567.669 574.388 570.023 566.3 576.427 566.3C582.831 566.3 585.196 573.384 585.196 573.384V629.669Z" stroke="#B25D5D" stroke-miterlimit="10"/>
<path d="M540.788 573.572V629.868H523.261V574.556C523.261 574.556 525.615 566.467 532.019 566.467C538.423 566.467 540.788 573.572 540.788 573.572Z" stroke="#B25D5D" stroke-miterlimit="10"/>
<path d="M585.196 573.384V629.669H567.669V574.388C567.669 574.388 570.023 566.3 576.427 566.3C582.831 566.3 585.196 573.384 585.196 573.384Z" stroke="#B25D5D" stroke-miterlimit="10"/>
<path d="M161.18 409.635V475.704H154.776V495.428H141.968V475.704H123.091V495.428H109.938V475.704H91.4065V495.428H78.9336V475.704H76.2339V409.635H161.18Z" stroke="#B25D5D" stroke-miterlimit="10"/>
<path d="M165.459 285.586L179.062 297.724V607.674H180.841V596.049H200.555V608.187H213.698V596.049H232.428V607.936H245.33V483.29H233.652L291.8 435.355V297.724L303.907 285.586H165.459ZM221.211 382H203.653V346.119C204.513 344.583 205.754 343.294 207.256 342.375C208.758 341.456 210.472 340.939 212.231 340.873C213.991 340.807 215.738 341.194 217.305 341.997C218.872 342.8 220.206 343.993 221.18 345.46L221.211 382ZM266.049 382H248.49V346.119C249.351 344.583 250.592 343.294 252.094 342.375C253.596 341.456 255.309 340.939 257.069 340.873C258.828 340.807 260.575 341.194 262.142 341.997C263.709 342.8 265.044 343.993 266.017 345.46L266.049 382Z" stroke="#B25D5D" stroke-miterlimit="10"/>
<path d="M221.179 345.46V382H203.652V346.119C204.513 344.583 205.754 343.294 207.256 342.375C208.758 341.456 210.471 340.939 212.231 340.873C213.991 340.807 215.738 341.194 217.305 341.997C218.872 342.8 220.206 343.993 221.179 345.46V345.46Z" stroke="#B25D5D" stroke-miterlimit="10"/>
<path d="M266.017 345.46V382H248.49V346.119C249.351 344.583 250.592 343.294 252.094 342.375C253.596 341.456 255.309 340.939 257.069 340.873C258.828 340.807 260.575 341.194 262.142 341.997C263.709 342.8 265.044 343.993 266.017 345.46V345.46Z" stroke="#B25D5D" stroke-miterlimit="10"/>
<path d="M245.288 483.29V596.049H258.431V573.802H293.317V558.923H344.894V573.332H379.968V595.839H393.959V483.29H245.288ZM305.978 540.088H288.431V504.218C289.207 502.705 290.37 501.423 291.8 500.503C294.098 499.088 296.855 498.616 299.493 499.186C302.131 499.755 304.447 501.322 305.958 503.559L305.978 540.088ZM350.816 540.088H333.268V504.218C334.129 502.682 335.37 501.392 336.872 500.474C338.374 499.555 340.087 499.038 341.847 498.971C343.606 498.905 345.353 499.292 346.92 500.096C348.487 500.899 349.822 502.091 350.795 503.559L350.816 540.088Z" stroke="#B25D5D" stroke-miterlimit="10"/>
<path d="M350.795 503.559V540.088H333.268V504.218C334.129 502.682 335.37 501.392 336.872 500.474C338.374 499.555 340.087 499.038 341.847 498.971C343.606 498.905 345.353 499.292 346.92 500.096C348.487 500.899 349.822 502.091 350.795 503.559V503.559Z" stroke="#B25D5D" stroke-miterlimit="10"/>
<path d="M485.046 359.764L484.879 377.867H480.275V391.135H468.524V377.867H457.903V391.271H446.655V377.867H436.41V391.271H425.162V377.867H414.415V391.135H402.79V377.867H392.169V391.135H381.423V378.494H370.049V390.633H358.674V377.867H353.997V362.443H483.435L485.046 359.764Z" stroke="#B25D5D" stroke-miterlimit="10"/>
<path d="M470.125 475.202V515.655H483.435V595.034H470.125V607.936H457.15V596.049H438.44V607.172H425.287V596.049H406.662V607.674H393.938V483.29H405.061L353.997 440.943V406.559H483.435V475.202H470.125Z" stroke="#B25D5D" stroke-miterlimit="10"/>
<path d="M532.657 338.052V374.581H515.12V338.7C515.983 337.165 517.225 335.877 518.729 334.959C520.232 334.042 521.946 333.526 523.707 333.461C525.467 333.395 527.214 333.783 528.781 334.587C530.349 335.391 531.683 336.584 532.657 338.052V338.052Z" stroke="#B25D5D" stroke-miterlimit="10"/>
<path d="M580.121 475.861V495.428H582.057" stroke="#B25D5D" stroke-miterlimit="10"/>
<path d="M562.825 301.512L572.64 297.525V297.473H477.659L485.591 301.836L485.402 321.833L495.573 342.216L485.047 359.754L484.879 377.856H491.524V406.548H483.435V475.212H483.958V495.439H497.425V475.212H515.633V495.439H528.943V475.212H547.778V495.439H560.585V475.212H580.017L562.825 301.512ZM532.657 374.581H515.12V338.7C515.983 337.165 517.225 335.877 518.729 334.959C520.233 334.042 521.947 333.526 523.707 333.461C525.467 333.395 527.214 333.783 528.782 334.587C530.349 335.391 531.683 336.584 532.657 338.052V374.581Z" stroke="#B25D5D" stroke-miterlimit="10"/>
<path d="M561.809 216.817V279.517H556.923V272.443H547.652V279.517H538.716V272.443H528.942V279.517H520.017V272.443H510.233V279.517H500.962V272.443H492.036V279.517H485.967V216.817H561.809Z" stroke="#B25D5D" stroke-miterlimit="10"/>
<path d="M561.809 297.431V297.473H485.967V297.169L561.809 297.431Z" stroke="#B25D5D" stroke-miterlimit="10"/>
<path d="M291.298 198.621V263.842H284.381V249.852H273.938V263.842H262.48V249.852H251.525V263.842H240.224V249.852H229.613V263.842H217.81V249.852H207.357V263.842H196.066V249.852H185.623V263.842H179.042V198.621H291.298Z" stroke="#B25D5D" stroke-miterlimit="10"/>
<path d="M379.968 687.398V774.028H259.634V688.078C259.634 688.078 268.005 636.805 319.634 636.805C371.262 636.805 379.968 687.398 379.968 687.398Z" stroke="#B25D5D" stroke-miterlimit="10"/>
<path d="M483.435 515.655V595.034H470.125V607.936H457.15V596.049H438.441V607.172H425.288V596.049H406.662V607.674H393.938V595.797H379.969V573.29H344.915V558.923H293.317V573.844H258.431V596.091H245.288V607.977H232.428V596.049H213.677V608.187H200.534V596.049H180.82V607.674H168.17V596.049H154.776V774.029L505.681 775.525V515.655H483.435ZM379.969 774.029H259.634V688.078C259.634 688.078 268.005 636.805 319.634 636.805C371.263 636.805 379.969 687.398 379.969 687.398V774.029Z" stroke="#B25D5D" stroke-miterlimit="10"/>
<path d="M483.582 515.655H483.435" stroke="#B25D5D" stroke-miterlimit="10"/>
<path d="M177.912 198.621H173.611V186.608H167.793V173.33H301.071V185.97H295.682V198.621H177.912Z" stroke="#B25D5D" stroke-miterlimit="10"/>
<path d="M480.526 199.5H568.13V210.497H565.346V216.817H483.686V210.497H480.526V199.5Z" stroke="#B25D5D" stroke-miterlimit="10"/>
<path d="M71.3473 573.635V629.931H53.8203V574.619C53.8203 574.619 56.1747 566.53 62.5786 566.53C68.9824 566.53 71.3473 573.635 71.3473 573.635Z" stroke="#B25D5D" stroke-miterlimit="10"/>
<path d="M115.756 573.468V629.753H98.229V574.472C98.229 574.472 100.583 566.384 106.987 566.384C113.391 566.384 115.756 573.468 115.756 573.468Z" stroke="#B25D5D" stroke-miterlimit="10"/>
<path d="M221.179 345.46V382H203.652V346.119C204.513 344.583 205.754 343.294 207.256 342.375C208.758 341.456 210.471 340.939 212.231 340.873C213.991 340.807 215.738 341.194 217.305 341.997C218.872 342.8 220.206 343.993 221.179 345.46V345.46Z" stroke="#B25D5D" stroke-miterlimit="10"/>
<path d="M104.884 466.987H132.78V431.504C132.78 431.504 129.024 427.078 118.832 427.078C108.64 427.078 104.884 432.185 104.884 432.185V466.987Z" stroke="#B25D5D" stroke-miterlimit="10"/>
<path d="M266.017 345.46V382H248.49V346.119C249.351 344.583 250.592 343.294 252.094 342.375C253.596 341.456 255.309 340.939 257.069 340.873C258.828 340.807 260.575 341.194 262.142 341.997C263.709 342.8 265.044 343.993 266.017 345.46V345.46Z" stroke="#B25D5D" stroke-miterlimit="10"/>
<path d="M305.958 503.559V540.088H288.431V504.218C289.208 502.705 290.37 501.423 291.8 500.503C294.098 499.088 296.855 498.616 299.493 499.186C302.131 499.755 304.447 501.322 305.958 503.559V503.559Z" stroke="#B25D5D" stroke-miterlimit="10"/>
<path d="M350.795 503.559V540.088H333.268V504.218C334.129 502.682 335.37 501.392 336.872 500.474C338.374 499.555 340.087 499.038 341.847 498.971C343.606 498.905 345.353 499.292 346.92 500.096C348.487 500.899 349.822 502.091 350.795 503.559V503.559Z" stroke="#B25D5D" stroke-miterlimit="10"/>
<path d="M540.788 573.572V629.868H523.261V574.556C523.261 574.556 525.615 566.467 532.019 566.467C538.423 566.467 540.788 573.572 540.788 573.572Z" stroke="#B25D5D" stroke-miterlimit="10"/>
<path d="M585.196 573.384V629.669H567.669V574.388C567.669 574.388 570.023 566.3 576.427 566.3C582.831 566.3 585.196 573.384 585.196 573.384Z" stroke="#B25D5D" stroke-miterlimit="10"/>
<path d="M532.657 338.052V374.581H515.12V338.7C515.983 337.165 517.225 335.877 518.729 334.959C520.232 334.042 521.946 333.526 523.707 333.461C525.467 333.395 527.214 333.783 528.781 334.587C530.349 335.391 531.683 336.584 532.657 338.052V338.052Z" stroke="#B25D5D" stroke-miterlimit="10"/>
<path d="M515.465 265.192H532.992V228.662C532.018 227.195 530.684 226.003 529.117 225.199C527.55 224.396 525.803 224.009 524.043 224.075C522.284 224.141 520.571 224.659 519.069 225.577C517.566 226.496 516.325 227.785 515.465 229.322V265.192Z" stroke="#B25D5D" stroke-miterlimit="10"/>
<path d="M406.662 509.335H432.371V447.87C431.161 445.514 429.317 443.542 427.047 442.178C424.776 440.813 422.17 440.11 419.522 440.148C410.104 440.148 406.662 448.979 406.662 448.979V509.335Z" stroke="#B25D5D" stroke-miterlimit="10"/>
<path d="M168.264 475.704V515.142H1.06152V475.704H14.2041V495.428H27.6921V475.704H45.8992V495.428H59.3766V475.704H78.9336V495.428H91.4065V475.704H109.938V495.428H123.091V475.704H141.968V495.428H154.776V475.704H168.264Z" stroke="#B25D5D" stroke-miterlimit="10"/>
<path d="M118.707 258.955L168.253 392.778L161.179 409.635H76.2338L68.8149 391.093L118.707 258.955Z" fill="#BD6F6D"/>
<path d="M304.953 249.852V285.586H164.381V249.852H173.987V263.842H185.623V249.852H196.066V263.842H207.356V249.852H217.81V263.842H229.613V249.852H240.223V263.842H251.524V249.852H262.48V263.842H273.938V249.852H284.381V263.842H295.682V249.852H304.953Z" stroke="#B25D5D" stroke-miterlimit="10"/>
<path d="M234.667 0.0689087L301.071 173.33H168.599L234.667 0.0689087Z" fill="#BD6F6D"/>
<path d="M495.573 342.216L485.046 359.754V359.764L483.435 362.443H353.997L342.539 340.866L418.716 188.167L485.402 321.833L495.573 342.216Z" fill="#BD6F6D"/>
<path d="M523.888 98.199L559.957 192.918L555.908 199.667H492.539L488.489 192.248L523.888 98.199Z" fill="#BD6F6D"/>
<path d="M572.765 272.443V297.473L561.81 297.431L485.967 297.169L475.347 297.138V272.443H482.431V279.517H492.037V272.443H500.962V279.517H510.233V272.443H520.017V279.517H528.943V272.443H538.716V279.517H547.652V272.443H556.923V279.517H566.696V272.443H572.765Z" stroke="#B25D5D" stroke-miterlimit="10"/>
<path d="M491.524 377.867V406.559H347.426V377.867H358.674V390.633H370.049V378.495H381.423V391.135H392.169V377.867H402.79V391.135H414.415V377.867H425.162V391.271H436.41V377.867H446.655V391.271H457.903V377.867H468.524V391.135H480.275V377.867H491.524Z" stroke="#B25D5D" stroke-miterlimit="10"/>
<path d="M638.332 475.202V515.655H505.681H483.582H470.125V475.202H483.958V495.428H497.425V475.202H515.632V495.428H528.942V475.202H547.819V495.428H560.627V475.202H580.058L580.121 475.861V495.428H592.322V475.202H611.701V495.428H624.341V475.202H638.332Z" stroke="#B25D5D" stroke-miterlimit="10"/>
<path d="M580.121 475.202V475.861L580.059 475.202H580.121Z" stroke="#B25D5D" stroke-miterlimit="10"/>
<path d="M405.061 483.29H233.652L291.8 435.355L319.613 412.429L353.997 440.943L405.061 483.29Z" fill="#BD6F6D"/>
<path d="M379.968 687.398V774.028H259.634V688.078C259.634 688.078 268.005 636.805 319.634 636.805C371.262 636.805 379.968 687.398 379.968 687.398Z" fill="#BD6F6D"/>
</g>
<defs>
<clipPath id="clip0">
<rect width="639" height="776" fill="white" transform="translate(0.5 0.0689087)"/>
</clipPath>
</defs>
</svg>
