<svg width="34" height="34" viewBox="0 0 34 34" fill="none" xmlns="http://www.w3.org/2000/svg">
<path d="M17 0.333252C7.71937 0.333252 0.187256 7.79992 0.187256 16.9999C0.187256 26.1999 7.71937 33.6666 17 33.6666C26.2806 33.6666 33.8127 26.1999 33.8127 16.9999C33.8127 7.79992 26.2806 0.333252 17 0.333252ZM17 30.3333C9.58558 30.3333 3.5498 24.3499 3.5498 16.9999C3.5498 9.64992 9.58558 3.66659 17 3.66659C24.4144 3.66659 30.4502 9.64992 30.4502 16.9999C30.4502 24.3499 24.4144 30.3333 17 30.3333ZM24.7171 9.63325L13.6375 20.6166L9.28295 16.3166L6.91235 18.6666L13.6375 25.3333L27.0876 11.9999L24.7171 9.63325Z" fill="#BD6F6D"/>
</svg>
