<svg width="157" height="122" viewBox="0 0 157 122" fill="none" xmlns="http://www.w3.org/2000/svg">
<rect x="0.5" y="0.5" width="156" height="121" rx="15.5" stroke="#BD6F6D"/>
<g clip-path="url(#clip0)">
<path d="M114.586 118.322V122H42.1699V118.259H52.5576V117.181H104.198V118.259H104.391L114.586 118.322Z" fill="#BD6F6D"/>
<path d="M45.4046 83.7542V118.258H42.1689V83.6617L43.6126 77.3161L43.8424 76.306L45.4046 83.7542Z" stroke="#BD6F6D" stroke-width="0.14811" stroke-miterlimit="10"/>
<path d="M52.5568 71.5341V87.8975H45.4048V83.7542L43.8426 76.306L43.6128 77.3161V71.2321H44.4279V71.5341H52.5568Z" stroke="#BD6F6D" stroke-width="0.14811" stroke-miterlimit="10"/>
<path d="M52.5568 87.8975H45.4048V118.258H52.5568V87.8975Z" stroke="#BD6F6D" stroke-width="0.14811" stroke-miterlimit="10"/>
<path d="M68.2295 71.5009H63.9692V93.9569H68.2295V71.5009Z" stroke="#BD6F6D" stroke-width="0.14811" stroke-miterlimit="10"/>
<path d="M68.2295 95.4931H63.9692V117.18H68.2295V95.4931Z" stroke="#BD6F6D" stroke-width="0.14811" stroke-miterlimit="10"/>
<path d="M68.2295 93.9569H63.9692V95.4931H68.2295V93.9569Z" stroke="#BD6F6D" stroke-width="0.14811" stroke-miterlimit="10"/>
<path d="M68.2295 49.6185V71.5009H63.9692V49.5492L63.9721 49.5361L64.0328 49.1647L64.1672 48.3641L64.3103 47.5086V47.5072L65.2439 41.9072L66.0647 36.9793L68.1515 49.1647L68.2151 49.5361L68.2295 49.6185Z" stroke="#BD6F6D" stroke-width="0.14811" stroke-miterlimit="10"/>
<path d="M56.8169 49.6185V117.18H52.5566V49.5492L54.6521 36.9793L55.5177 42.0373L55.603 42.5315L56.4556 47.5086L56.6218 48.4783L56.8169 49.6185Z" stroke="#BD6F6D" stroke-width="0.14811" stroke-miterlimit="10"/>
<path d="M64.3099 47.5072V47.5086L64.1668 48.3641L64.0324 49.1647L63.9717 49.5361L63.9689 49.5491V117.18H56.8169V49.6185L56.8024 49.5361L56.7388 49.1647L56.6218 48.4783L56.4556 47.5086L60.4427 38.9461L64.3099 47.5072Z" stroke="#BD6F6D" stroke-width="0.14811" stroke-miterlimit="10"/>
<path d="M60.5947 15.9005H60.2695L60.4299 14.9814L60.5947 15.9005Z" fill="#BD6F6D" stroke="#BD6F6D" stroke-width="0.14811" stroke-miterlimit="10"/>
<path d="M65.2436 41.9072L64.31 47.5072L60.4428 38.9461L56.4557 47.5086L55.603 42.5315L60.1523 16.5638L60.2694 15.9005H60.5945L60.7131 16.5638L65.2436 41.9072Z" fill="#BD6F6D"/>
<path d="M114.585 83.6617V118.258H111.35V83.7542L112.913 76.306L113.143 77.3161L114.585 83.6617Z" stroke="#BD6F6D" stroke-width="0.14811" stroke-miterlimit="10"/>
<path d="M113.143 71.2321V77.3161L112.913 76.306L111.349 83.7542V87.8975H104.197V71.5341H112.328V71.2321H113.143Z" stroke="#BD6F6D" stroke-width="0.14811" stroke-miterlimit="10"/>
<path d="M111.349 87.8975H104.197V118.258H111.349V87.8975Z" stroke="#BD6F6D" stroke-width="0.14811" stroke-miterlimit="10"/>
<path d="M92.7852 71.5009H88.5264V93.9598H92.7852V71.5009Z" stroke="#BD6F6D" stroke-width="0.14811" stroke-miterlimit="10"/>
<path d="M92.7852 95.496H88.5264V117.18H92.7852V95.496Z" stroke="#BD6F6D" stroke-width="0.14811" stroke-miterlimit="10"/>
<path d="M92.7852 93.9598H88.5264V95.496H92.7852V93.9598Z" stroke="#BD6F6D" stroke-width="0.14811" stroke-miterlimit="10"/>
<path d="M92.7852 49.5492V71.5009H88.5264V49.6185L88.5321 49.5838L88.5957 49.211L90.6912 36.9793L91.4195 41.3451V41.348L91.5568 42.1746V42.176L92.4441 47.5057L92.5872 48.3641L92.7288 49.211L92.7852 49.5492Z" stroke="#BD6F6D" stroke-width="0.14811" stroke-miterlimit="10"/>
<path d="M104.197 49.5492V117.18H99.937V49.6185L100.132 48.4783L100.298 47.5057L101.236 42.0388V42.0373L102.102 36.9793L104.197 49.5492Z" stroke="#BD6F6D" stroke-width="0.14811" stroke-miterlimit="10"/>
<path d="M100.298 47.5057L100.132 48.4783L100.006 49.211L99.9427 49.5838L99.9369 49.6185V117.18H92.7849V49.5491L92.7285 49.211L92.5869 48.3641L92.4438 47.5057L96.3125 38.9461L100.298 47.5057Z" stroke="#BD6F6D" stroke-width="0.14811" stroke-miterlimit="10"/>
<path d="M96.4907 15.9005H96.1641L96.3245 14.9814L96.4907 15.9005Z" fill="#BD6F6D" stroke="#BD6F6D" stroke-width="0.14811" stroke-miterlimit="10"/>
<path d="M101.236 42.0373V42.0387L100.298 47.5057L96.3126 38.9461L92.444 47.5057L91.5566 42.176V42.1746L96.0467 16.5638L96.1638 15.9005H96.4904L96.6117 16.5638L101.236 42.0373Z" fill="#BD6F6D"/>
<path d="M68.8682 69.9647H51.9688V71.5009H68.8682V69.9647Z" fill="#BD6F6D"/>
<path d="M104.846 69.9647H87.9468V71.5009H104.846V69.9647Z" fill="#BD6F6D"/>
<path d="M68.8316 93.9569V95.2705L68.5946 95.4931H51.9336V93.9569H68.8316Z" fill="#BD6F6D"/>
<path d="M104.846 93.9598V95.496H88.217L87.9468 95.2431V93.9598H104.846Z" fill="#BD6F6D"/>
<path d="M93.0063 57.9107H88.1304V58.2836H93.0063V57.9107Z" fill="#BD6F6D"/>
<path d="M93.0063 49.211H88.1304V49.5838H93.0063V49.211Z" fill="#BD6F6D"/>
<path d="M104.605 57.9107H99.729V58.2836H104.605V57.9107Z" fill="#BD6F6D"/>
<path d="M104.605 49.211H99.729V49.5838H104.605V49.211Z" fill="#BD6F6D"/>
<path d="M57.0209 57.8645H52.145V58.2373H57.0209V57.8645Z" fill="#BD6F6D"/>
<path d="M57.0209 49.1647H52.145V49.5376H57.0209V49.1647Z" fill="#BD6F6D"/>
<path d="M68.6196 57.8645H63.7437V58.2373H68.6196V57.8645Z" fill="#BD6F6D"/>
<path d="M68.6196 49.1647H63.7437V49.5376H68.6196V49.1647Z" fill="#BD6F6D"/>
<path d="M88.526 71.5009V75.0241L86.737 73.2798L86.2124 72.7682L78.4751 65.226L78.332 65.0859L78.1904 65.226L70.5485 72.7682L70.0311 73.2798L68.229 75.0574V71.5009H68.8678V70.5933L74.7654 64.6971L77.4418 62.0207H79.2959L81.7064 64.411L87.9465 70.5947V71.5009H88.526Z" fill="#BD6F6D"/>
<path d="M68.868 70.5933V71.5008H67.9604L68.868 70.5933Z" stroke="#BD6F6D" stroke-width="0.14811" stroke-miterlimit="10"/>
<path d="M88.8601 71.5009H87.9468V70.5948L88.5263 71.1699L88.8601 71.5009Z" stroke="#BD6F6D" stroke-width="0.14811" stroke-miterlimit="10"/>
<path d="M68.8318 93.9569V95.2705L68.5948 95.4931H67.3794V93.9569H68.8318Z" stroke="#BD6F6D" stroke-width="0.14811" stroke-miterlimit="10"/>
<path d="M90.6549 117.18H67.3794V118.258H90.6549V117.18Z" stroke="#BD6F6D" stroke-width="0.14811" stroke-miterlimit="10"/>
<path d="M90.655 93.9598V95.496H88.217L87.9468 95.2431V93.9598H90.655Z" stroke="#BD6F6D" stroke-width="0.14811" stroke-miterlimit="10"/>
<path d="M68.229 95.4931V95.8313L68.5946 95.4902L68.229 95.4931ZM73.1049 92.8789H77.6672V88.4611L73.1049 92.8789ZM79.1369 88.4611V92.8832H83.6993L79.1369 88.4611ZM86.7369 73.2871L86.2124 72.7755L78.4765 65.2261L78.332 65.0815L78.1875 65.2261L70.5456 72.7683L70.0311 73.2871L68.229 75.0646V93.9526H68.8316V95.2662L78.4071 86.3063L87.9451 95.2344V93.9511H88.5231V75.0212L86.7369 73.2871ZM78.4071 81.799C77.2569 81.7992 76.1324 81.4584 75.1758 80.8195C74.2193 80.1806 73.4737 79.2724 73.0334 78.2098C72.5931 77.1471 72.4778 75.9777 72.7021 74.8495C72.9265 73.7214 73.4803 72.6851 74.2937 71.8717C75.1071 71.0583 76.1434 70.5044 77.2716 70.2801C78.3997 70.0558 79.5691 70.1711 80.6318 70.6114C81.6944 71.0517 82.6026 71.7973 83.2415 72.7538C83.8804 73.7104 84.2212 74.8349 84.221 75.9851C84.221 77.5271 83.6084 79.0058 82.5181 80.0961C81.4278 81.1864 79.9491 81.799 78.4071 81.799V81.799ZM79.1369 96.483C78.8869 96.47 78.6297 96.4643 78.3652 96.4643C78.1268 96.4643 77.8941 96.4642 77.6672 96.4801C74.2408 96.6362 72.0673 97.9383 70.6973 99.3964C69.5629 100.607 68.7847 102.107 68.4487 103.732V117.094H70.6843V109.08H77.2019V117.088H79.4708V109.08H85.9913V117.088H88.2847V103.541C87.9527 101.986 87.1987 100.552 86.1054 99.3964C84.7499 97.9556 82.5807 96.6536 79.1369 96.483ZM79.1369 92.8789H83.6993L79.1369 88.4611V92.8789ZM77.6672 88.4611L73.1049 92.8832H77.6672V88.4611ZM88.2168 95.5003L88.526 95.7894V95.5003H88.2168ZM85.3019 94.3731H79.1369V96.4874C78.8869 96.4744 78.6297 96.4686 78.3652 96.4686C78.1268 96.4686 77.8941 96.4686 77.6672 96.4845V94.3688H71.7075L68.229 97.5481V117.18H88.526V97.5264L85.3019 94.3731Z" stroke="#BD6F6D" stroke-width="0.14811" stroke-miterlimit="10"/>
<path d="M84.2214 75.9851C84.2211 77.135 83.8799 78.2589 83.2409 79.2147C82.6018 80.1706 81.6938 80.9156 80.6314 81.3554C79.569 81.7952 78.4001 81.9101 77.2725 81.6856C76.1448 81.4611 75.109 80.9073 74.2961 80.0942C73.4831 79.2811 72.9296 78.2451 72.7054 77.1174C72.4811 75.9897 72.5964 74.8208 73.0364 73.7585C73.4765 72.6963 74.2217 71.7884 75.1777 71.1496C76.1338 70.5108 77.2578 70.1699 78.4076 70.1699C79.1712 70.1699 79.9273 70.3203 80.6327 70.6126C81.3382 70.9048 81.9792 71.3332 82.519 71.8732C83.0589 72.4132 83.4871 73.0543 83.7792 73.7599C84.0713 74.4654 84.2215 75.2215 84.2214 75.9851Z" stroke="#BD6F6D" stroke-width="0.14811" stroke-miterlimit="10"/>
<path d="M68.832 93.9569V95.2705L68.595 95.4931H66.1816V93.9569H68.832Z" stroke="#BD6F6D" stroke-width="0.14811" stroke-miterlimit="10"/>
<path d="M89.6549 93.9598V95.496H88.217L87.9468 95.2431V93.9598H89.6549Z" stroke="#BD6F6D" stroke-width="0.14811" stroke-miterlimit="10"/>
<path d="M89.6551 117.18H66.1816V119.589H89.6551V117.18Z" stroke="#BD6F6D" stroke-width="0.14811" stroke-miterlimit="10"/>
<path d="M78.4075 80.874C81.1075 80.874 83.2964 78.6852 83.2964 75.9851C83.2964 73.285 81.1075 71.0962 78.4075 71.0962C75.7074 71.0962 73.5186 73.285 73.5186 75.9851C73.5186 78.6852 75.7074 80.874 78.4075 80.874Z" fill="#BD6F6D"/>
<path d="M78.8784 53.5406V50.7703H77.9232L77.9289 53.5175H76.6558L78.4073 43.1588L80.0186 53.5406H78.8784Z" fill="#BD6F6D"/>
<path d="M81.7066 64.411L79.3771 62.1017L79.2961 62.0207H77.442L74.7656 64.6971L76.4983 54.4482H77.9233V60.6869H78.9016V54.4482H80.1603L81.7066 64.411Z" fill="#BD6F6D"/>
<path d="M61.1739 15.9005H59.6724V16.5638H61.1739V15.9005Z" fill="#BD6F6D"/>
<path d="M60.9847 14.4857H59.8618V14.9813H60.9847V14.4857Z" fill="#BD6F6D"/>
<path d="M45.5738 83.5909H42V83.9002H45.5738V83.5909Z" fill="#BD6F6D"/>
<path d="M45.5738 88.4553H42V88.7645H45.5738V88.4553Z" fill="#BD6F6D"/>
<path d="M114.754 83.3553H111.18V83.6646H114.754V83.3553Z" fill="#BD6F6D"/>
<path d="M114.754 88.2211H111.18V88.5304H114.754V88.2211Z" fill="#BD6F6D"/>
<path d="M81.6252 53.5407V54.4482H78.9011V60.6869H77.9227V54.4482H75.0483V53.5176H77.9285L77.9227 50.7704H78.878V53.5407H81.6252Z" stroke="#BD6F6D" stroke-width="0.14811" stroke-miterlimit="10"/>
<path d="M77.9227 54.4482H77.8418V60.6869H77.9227V54.4482Z" fill="#BD6F6D"/>
<path d="M77.9285 53.5176H77.8476L77.8418 50.7704H77.9227L77.9285 53.5176Z" fill="#BD6F6D"/>
<path d="M62.2146 10.5738V11.0666H60.6943V14.4497H60.1639V11.0666H58.6494V10.5623H60.1668L60.1639 9.07233H60.6813V10.5738H62.2146Z" stroke="#BD6F6D" stroke-width="0.14811" stroke-miterlimit="10"/>
<path d="M97.084 15.9005H95.5825V16.5638H97.084V15.9005Z" fill="#BD6F6D"/>
<path d="M96.8948 14.4857H95.772V14.9814H96.8948V14.4857Z" fill="#BD6F6D"/>
<path d="M98.116 10.5737V11.0665H96.5957V14.4496H96.0653V11.0665H94.5508V10.5621H96.0682L96.0653 9.0722H96.5827V10.5737H98.116Z" stroke="#BD6F6D" stroke-width="0.14811" stroke-miterlimit="10"/>
<path d="M79.9811 60.6869H76.6934V62.1017H79.9811V60.6869Z" fill="#BD6F6D"/>
<path d="M78.3665 101.826C78.0787 101.826 77.7973 101.911 77.558 102.071C77.3187 102.231 77.1321 102.458 77.022 102.724C76.9119 102.99 76.883 103.283 76.9392 103.565C76.9953 103.847 77.1339 104.107 77.3375 104.31C77.541 104.514 77.8003 104.652 78.0826 104.708C78.3649 104.765 78.6575 104.736 78.9234 104.626C79.1893 104.516 79.4166 104.329 79.5765 104.09C79.7364 103.85 79.8217 103.569 79.8217 103.281C79.8217 102.895 79.6684 102.525 79.3955 102.252C79.1226 101.979 78.7524 101.826 78.3665 101.826V101.826ZM82.7496 105.31C80.1194 105.31 79.6541 107.911 79.6541 107.911H85.848C85.848 107.911 85.3798 105.31 82.7496 105.31V105.31ZM70.6855 109.081V117.088H77.2031V109.081H70.6855ZM78.3665 101.826C78.0787 101.826 77.7973 101.911 77.558 102.071C77.3187 102.231 77.1321 102.458 77.022 102.724C76.9119 102.99 76.883 103.283 76.9392 103.565C76.9953 103.847 77.1339 104.107 77.3375 104.31C77.541 104.514 77.8003 104.652 78.0826 104.708C78.3649 104.765 78.6575 104.736 78.9234 104.626C79.1893 104.516 79.4166 104.329 79.5765 104.09C79.7364 103.85 79.8217 103.569 79.8217 103.281C79.8217 102.895 79.6684 102.525 79.3955 102.252C79.1226 101.979 78.7524 101.826 78.3665 101.826V101.826ZM82.7496 105.31C80.1194 105.31 79.6541 107.911 79.6541 107.911H85.848C85.848 107.911 85.3798 105.31 82.7496 105.31V105.31ZM79.472 109.081V117.088H85.9925V109.081H79.472ZM70.6855 109.081V117.088H77.2031V109.081H70.6855ZM73.1062 92.879H77.6685V88.4612L73.1062 92.879ZM78.3665 101.826C78.0787 101.826 77.7973 101.911 77.558 102.071C77.3187 102.231 77.1321 102.458 77.022 102.724C76.9119 102.99 76.883 103.283 76.9392 103.565C76.9953 103.847 77.1339 104.107 77.3375 104.31C77.541 104.514 77.8003 104.652 78.0826 104.708C78.3649 104.765 78.6575 104.736 78.9234 104.626C79.1893 104.516 79.4166 104.329 79.5765 104.09C79.7364 103.85 79.8217 103.569 79.8217 103.281C79.8217 102.895 79.6684 102.525 79.3955 102.252C79.1226 101.979 78.7524 101.826 78.3665 101.826V101.826ZM79.1382 88.4612V92.8834H83.7005L79.1382 88.4612ZM82.7511 105.314C80.1209 105.314 79.6556 107.916 79.6556 107.916H85.848C85.848 107.916 85.3798 105.31 82.7496 105.31L82.7511 105.314ZM79.4735 109.085V117.092H85.9925V109.081L79.4735 109.085ZM79.4735 109.085V117.092H85.9925V109.081L79.4735 109.085ZM82.7511 105.314C80.1209 105.314 79.6556 107.916 79.6556 107.916H85.848C85.848 107.916 85.3798 105.31 82.7496 105.31L82.7511 105.314ZM78.3679 101.83C78.0801 101.83 77.7987 101.916 77.5594 102.076C77.3201 102.235 77.1336 102.463 77.0234 102.729C76.9133 102.995 76.8845 103.287 76.9406 103.569C76.9968 103.852 77.1354 104.111 77.3389 104.315C77.5424 104.518 77.8017 104.657 78.084 104.713C78.3663 104.769 78.6589 104.74 78.9248 104.63C79.1907 104.52 79.418 104.333 79.5779 104.094C79.7378 103.855 79.8232 103.573 79.8232 103.286C79.8238 103.094 79.7865 102.904 79.7135 102.727C79.6406 102.55 79.5333 102.389 79.398 102.253C79.2626 102.118 79.1018 102.01 78.9248 101.937C78.7478 101.863 78.5581 101.826 78.3665 101.826L78.3679 101.83ZM70.687 109.085V117.092H77.2046V109.081L70.687 109.085ZM82.7511 105.314C80.1209 105.314 79.6556 107.916 79.6556 107.916H85.848C85.848 107.916 85.3798 105.31 82.7496 105.31L82.7511 105.314ZM78.3679 101.83C78.0801 101.83 77.7987 101.916 77.5594 102.076C77.3201 102.235 77.1336 102.463 77.0234 102.729C76.9133 102.995 76.8845 103.287 76.9406 103.569C76.9968 103.852 77.1354 104.111 77.3389 104.315C77.5424 104.518 77.8017 104.657 78.084 104.713C78.3663 104.769 78.6589 104.74 78.9248 104.63C79.1907 104.52 79.418 104.333 79.5779 104.094C79.7378 103.855 79.8232 103.573 79.8232 103.286C79.8238 103.094 79.7865 102.904 79.7135 102.727C79.6406 102.55 79.5333 102.389 79.398 102.253C79.2626 102.118 79.1018 102.01 78.9248 101.937C78.7478 101.863 78.5581 101.826 78.3665 101.826L78.3679 101.83ZM79.4735 109.085V117.092H85.9925V109.081L79.4735 109.085ZM82.7511 105.314C80.1209 105.314 79.6556 107.916 79.6556 107.916H85.848C85.848 107.916 85.3798 105.31 82.7496 105.31L82.7511 105.314ZM78.3679 101.83C78.0801 101.83 77.7987 101.916 77.5594 102.076C77.3201 102.235 77.1336 102.463 77.0234 102.729C76.9133 102.995 76.8845 103.287 76.9406 103.569C76.9968 103.852 77.1354 104.111 77.3389 104.315C77.5424 104.518 77.8017 104.657 78.084 104.713C78.3663 104.769 78.6589 104.74 78.9248 104.63C79.1907 104.52 79.418 104.333 79.5779 104.094C79.7378 103.855 79.8232 103.573 79.8232 103.286C79.8238 103.094 79.7865 102.904 79.7135 102.727C79.6406 102.55 79.5333 102.389 79.398 102.253C79.2626 102.118 79.1018 102.01 78.9248 101.937C78.7478 101.863 78.5581 101.826 78.3665 101.826L78.3679 101.83ZM70.687 109.085V117.092H77.2046V109.081L70.687 109.085Z" stroke="#BD6F6D" stroke-width="0.14811" stroke-miterlimit="10"/>
<path d="M88.2178 95.4962L87.9475 95.2433L78.4096 86.3152L68.834 95.2751L68.597 95.4976L68.23 95.8314V97.5497L71.7084 94.3704H77.6682V96.4818C77.8951 96.4716 78.1278 96.4659 78.3662 96.4659C78.6307 96.4659 78.8879 96.4659 79.1379 96.4847V94.369H85.3029L88.527 97.5338V95.7852L88.2178 95.4962ZM77.6682 92.879H73.1059L77.6682 88.4612V92.879ZM79.1379 92.879V88.4612L83.7002 92.8834L79.1379 92.879Z" stroke="#BD6F6D" stroke-width="0.14811" stroke-miterlimit="10"/>
<path d="M89.2123 117.181V118.259V119.415L67.3906 119.588L67.3978 118.257V117.179H68.2346V97.5526L71.713 94.3733H77.6685V96.4846C74.242 96.6407 72.0686 97.9428 70.6986 99.4009C69.5641 100.611 68.786 102.112 68.4499 103.736V117.098H88.283V103.541C87.951 101.986 87.1971 100.552 86.1038 99.3966C84.7511 97.9515 82.582 96.6508 79.1382 96.4832V94.369H85.3032L88.5273 97.5338V117.188L89.2123 117.181Z" stroke="#BD6F6D" stroke-width="0.14811" stroke-miterlimit="10"/>
<path d="M77.6683 88.4569V92.879H73.106L77.6683 88.4569Z" stroke="#BD6F6D" stroke-width="0.14811" stroke-miterlimit="10"/>
<path d="M83.7005 92.879H79.1382V88.4569L83.7005 92.879Z" stroke="#BD6F6D" stroke-width="0.14811" stroke-miterlimit="10"/>
<path d="M86.1036 99.3966C84.7509 97.9515 82.5818 96.6508 79.138 96.4832C78.888 96.4702 78.6307 96.4644 78.3663 96.4644C78.1278 96.4644 77.8952 96.4644 77.6683 96.4803C74.2418 96.6364 72.0683 97.9385 70.6984 99.3966C69.5639 100.607 68.7858 102.107 68.4497 103.732V117.094H70.6853V109.081H77.2029V117.088H79.4718V109.081H85.9923V117.088H88.2857V103.541C87.9529 101.985 87.1979 100.551 86.1036 99.3966V99.3966ZM78.3663 104.744C78.0785 104.744 77.7971 104.658 77.5578 104.498C77.3185 104.338 77.1319 104.111 77.0218 103.845C76.9117 103.579 76.8828 103.287 76.939 103.004C76.9951 102.722 77.1337 102.463 77.3373 102.259C77.5408 102.056 77.8001 101.917 78.0824 101.861C78.3647 101.805 78.6573 101.834 78.9232 101.944C79.1891 102.054 79.4164 102.241 79.5763 102.48C79.7362 102.719 79.8215 103.001 79.8215 103.288C79.8196 103.673 79.6655 104.041 79.3928 104.313C79.1201 104.584 78.751 104.736 78.3663 104.736V104.744ZM79.6539 107.923C79.6539 107.923 80.1192 105.322 82.7494 105.322C85.3796 105.322 85.8449 107.923 85.8449 107.923H79.6539Z" stroke="#BD6F6D" stroke-width="0.14811" stroke-miterlimit="10"/>
<path d="M77.2031 109.081H70.6855V117.088H77.2031V109.081Z" stroke="#BD6F6D" stroke-width="0.14811" stroke-miterlimit="10"/>
<path d="M78.3664 104.736C79.1701 104.736 79.8216 104.085 79.8216 103.281C79.8216 102.477 79.1701 101.826 78.3664 101.826C77.5627 101.826 76.9111 102.477 76.9111 103.281C76.9111 104.085 77.5627 104.736 78.3664 104.736Z" stroke="#BD6F6D" stroke-width="0.14811" stroke-miterlimit="10"/>
<path d="M79.6543 107.917C79.6543 107.917 80.1196 105.316 82.7498 105.316C85.38 105.316 85.8453 107.917 85.8453 107.917H79.6543Z" stroke="#BD6F6D" stroke-width="0.14811" stroke-miterlimit="10"/>
<path d="M85.9898 109.081H79.4722V117.088H85.9898V109.081Z" stroke="#BD6F6D" stroke-width="0.14811" stroke-miterlimit="10"/>
<path d="M77.2031 109.081H70.6855V117.088H77.2031V109.081Z" stroke="#BD6F6D" stroke-width="0.14811" stroke-miterlimit="10"/>
<path d="M78.3664 104.736C79.1701 104.736 79.8216 104.085 79.8216 103.281C79.8216 102.477 79.1701 101.826 78.3664 101.826C77.5627 101.826 76.9111 102.477 76.9111 103.281C76.9111 104.085 77.5627 104.736 78.3664 104.736Z" fill="#BD6F6D"/>
<path d="M73.9446 112.595H73.7119V113.037H73.9446V112.595Z" fill="#BD6F6D"/>
<path d="M73.9446 113.387H73.7119V114.12H73.9446V113.387Z" fill="#BD6F6D"/>
<path d="M74.4094 112.595H74.1768V113.037H74.4094V112.595Z" fill="#BD6F6D"/>
<path d="M74.4094 113.387H74.1768V114.12H74.4094V113.387Z" fill="#BD6F6D"/>
<path d="M85.9898 109.081H79.4722V117.088H85.9898V109.081Z" stroke="#BD6F6D" stroke-width="0.14811" stroke-miterlimit="10"/>
<path d="M85.8482 107.917H79.6543C79.6543 107.917 80.1196 105.316 82.7498 105.316C85.38 105.316 85.8482 107.917 85.8482 107.917Z" fill="#BD6F6D"/>
<path d="M77.0396 107.917H70.8486C70.8486 107.917 71.314 105.316 73.9441 105.316C76.5743 105.316 77.0396 107.917 77.0396 107.917Z" fill="#BD6F6D"/>
<path d="M82.7307 112.595H82.498V113.037H82.7307V112.595Z" fill="#BD6F6D"/>
<path d="M82.7307 113.387H82.498V114.12H82.7307V113.387Z" fill="#BD6F6D"/>
<path d="M83.196 112.595H82.9634V113.037H83.196V112.595Z" fill="#BD6F6D"/>
<path d="M83.196 113.387H82.9634V114.12H83.196V113.387Z" fill="#BD6F6D"/>
</g>
<defs>
<clipPath id="clip0">
<rect width="72.7543" height="113" fill="white" transform="translate(42 9)"/>
</clipPath>
</defs>
</svg>
