<svg width="21" height="28" viewBox="0 0 21 28" fill="none" xmlns="http://www.w3.org/2000/svg">
<path d="M6.83329 3.33332C12.7133 3.33332 17.5 8.11999 17.5 14C17.5 19.88 12.7133 24.6667 6.83329 24.6667C6.37996 24.6667 5.92663 24.64 5.48663 24.5733C8.03329 21.6933 9.49996 17.9333 9.49996 14C9.49996 10.0667 8.03329 6.30666 5.48663 3.42666C5.92663 3.35999 6.37996 3.33332 6.83329 3.33332ZM6.83329 0.666656C4.40663 0.666656 2.12663 1.33332 0.166626 2.46666C4.15329 4.77332 6.83329 9.06666 6.83329 14C6.83329 18.9333 4.15329 23.2267 0.166626 25.5333C2.12663 26.6667 4.40663 27.3333 6.83329 27.3333C14.1933 27.3333 20.1666 21.36 20.1666 14C20.1666 6.63999 14.1933 0.666656 6.83329 0.666656Z" fill="#2B2B39"/>
</svg>
