<svg width="28" height="28" viewBox="0 0 28 28" fill="none" xmlns="http://www.w3.org/2000/svg">
<path d="M23.5834 10.0347V4.41652H17.9652L14.0001 0.451416L10.035 4.41652H4.41676V10.0347L0.45166 13.9999L4.41676 17.965V23.5832H10.035L14.0001 27.5483L17.9652 23.5832H23.5834V17.965L27.5485 13.9999L23.5834 10.0347ZM21.1876 16.9707V21.1874H16.9709L14.0001 24.1582L11.0293 21.1874H6.8126V16.9707L3.84176 13.9999L6.8126 11.029V6.81235H11.0293L14.0001 3.84152L16.9709 6.81235H21.1876V11.029L24.1584 13.9999L21.1876 16.9707ZM14.3475 8.01027C13.461 8.01027 12.6105 8.21392 11.8558 8.56131C13.9162 9.50767 15.3537 11.592 15.3537 13.9999C15.3537 16.4077 13.9162 18.492 11.8558 19.4384C12.6105 19.7858 13.461 19.9894 14.3475 19.9894C17.6537 19.9894 20.3371 17.3061 20.3371 13.9999C20.3371 10.6936 17.6537 8.01027 14.3475 8.01027Z" fill="white"/>
</svg>
