<svg width="59" height="23" viewBox="0 0 59 23" fill="none" xmlns="http://www.w3.org/2000/svg">
<g clip-path="url(#clip0)">
<path d="M11.1851 4.5625H7.5791V18.9866H11.1851V4.5625Z" fill="#00263E"/>
<path d="M3.9732 18.9861H7.57922V22.5921H3.9732H0.367188V0.956055H7.57922V4.56207H3.9732V18.9861Z" fill="#00263E"/>
<path d="M22.5515 22.5921V18.9861H18.4493V4.56207H22.5515V0.956055H14.8433V22.5921H22.5515Z" fill="#00263E"/>
<path d="M31.5547 4.15562C31.5547 2.13758 30.2219 0.956055 28.3976 0.956055H26.1055V7.35047H28.3929C30.2125 7.35047 31.5547 6.1784 31.5547 4.15562ZM27.3532 6.19257V2.10922H28.3551C29.3996 2.10922 30.2692 2.76615 30.2692 4.15562C30.2692 5.5451 29.3948 6.19257 28.3504 6.19257H27.3532Z" fill="#00263E"/>
<path d="M33.5017 2.90332H32.3013V7.34113H33.5017V2.90332Z" fill="#00263E"/>
<path d="M32.8969 2.18044C33.3128 2.18044 33.6342 1.84489 33.6342 1.4479C33.6389 1.03673 33.3128 0.701172 32.8969 0.701172C32.4905 0.701172 32.1597 1.03673 32.1597 1.4479C32.1597 1.84489 32.4952 2.18044 32.8969 2.18044Z" fill="#00263E"/>
<path d="M36.38 8.13538C35.8129 8.13538 35.4253 7.78565 35.345 7.29886L34.2627 7.58715C34.3903 8.43312 35.1985 9.19402 36.4178 9.19402C38.0861 9.19402 38.743 8.08339 38.743 6.86878V2.90359H37.5899V3.42818C37.4386 3.13044 37.0322 2.82324 36.328 2.82324C35.1087 2.82324 34.2627 3.81572 34.2627 4.9878C34.2627 6.23076 35.1465 7.1429 36.328 7.1429C36.966 7.1429 37.3819 6.86406 37.5615 6.57577V6.90187C37.5615 7.75256 37.1362 8.13538 36.38 8.13538ZM36.5359 6.11261C35.9121 6.11261 35.4726 5.67781 35.4726 4.98307C35.4726 4.29779 35.9405 3.86298 36.5359 3.86298C37.1125 3.86298 37.5804 4.29779 37.5804 4.98307C37.5804 5.67308 37.1456 6.11261 36.5359 6.11261Z" fill="#00263E"/>
<path d="M40.2176 2.18044C40.6335 2.18044 40.9549 1.84489 40.9549 1.4479C40.9549 1.03673 40.6335 0.701172 40.2176 0.701172C39.8111 0.701172 39.4756 1.03673 39.4756 1.4479C39.4756 1.84489 39.8111 2.18044 40.2176 2.18044Z" fill="#00263E"/>
<path d="M40.8225 2.90332H39.6221V7.34113H40.8225V2.90332Z" fill="#00263E"/>
<path d="M43.5071 1.5752H42.4248V2.19904C42.4248 2.59603 42.2074 2.90323 41.7396 2.90323H41.5127V3.9666H42.3161V6.03191C42.3161 6.88733 42.8596 7.40248 43.7245 7.40248C44.0742 7.40248 44.2916 7.34104 44.4003 7.29378V6.3013C44.3389 6.3202 44.1735 6.33911 44.0317 6.33911C43.6867 6.33911 43.5071 6.2115 43.5071 5.82396V3.9666H44.4003V2.90323H43.5071V1.5752Z" fill="#00263E"/>
<path d="M47.5101 4.62396L46.4184 4.78465C45.6811 4.89335 45.0903 5.33287 45.0903 6.12686C45.0903 6.8216 45.6669 7.45962 46.6169 7.45962C47.2738 7.45962 47.6991 7.15242 47.926 6.80269C47.926 6.97283 47.9449 7.21859 47.9733 7.33674H49.0744C49.0461 7.18551 49.0224 6.86886 49.0224 6.63255V4.45382C49.0224 3.56059 48.4979 2.7666 47.0942 2.7666C45.9032 2.7666 45.2652 3.53223 45.1896 4.22697L46.253 4.45382C46.2908 4.06628 46.5791 3.73073 47.0989 3.73073C47.6046 3.73073 47.8456 3.99066 47.8456 4.30731C47.8409 4.46327 47.7606 4.59088 47.5101 4.62396ZM47.8409 5.54555C47.8409 6.33008 47.373 6.57584 46.8673 6.57584C46.4798 6.57584 46.2908 6.32536 46.2908 6.06069C46.2908 5.71569 46.5365 5.54555 46.839 5.50301L47.8409 5.35178V5.54555Z" fill="#00263E"/>
<path d="M51.0925 0.947266H49.8921V7.34168H51.0925V0.947266Z" fill="#00263E"/>
<path d="M29.0027 15.5311C30.7986 15.5311 31.7155 14.3402 31.9613 13.3571L30.7986 13.0074C30.6285 13.6029 30.0945 14.3165 29.0027 14.3165C27.9724 14.3165 27.0178 13.5698 27.0178 12.204C27.0178 10.7531 28.0292 10.0678 28.9838 10.0678C30.0945 10.0678 30.5907 10.7436 30.7419 11.358L31.914 10.9894C31.6635 9.95435 30.7514 8.87207 28.9838 8.87207C27.2682 8.87207 25.7275 10.1717 25.7275 12.2087C25.7323 14.2409 27.2163 15.5311 29.0027 15.5311Z" fill="#00263E"/>
<path d="M34.9813 12.6824L33.8896 12.8431C33.1523 12.9518 32.5615 13.3913 32.5615 14.1853C32.5615 14.88 33.1381 15.5181 34.0881 15.5181C34.745 15.5181 35.1703 15.2109 35.3972 14.8611C35.3972 15.0313 35.4161 15.277 35.4444 15.3952H36.5456C36.5173 15.2439 36.4936 14.9273 36.4936 14.691V12.5075C36.4936 11.6143 35.969 10.8203 34.5654 10.8203C33.3744 10.8203 32.7364 11.5859 32.6608 12.2807L33.7241 12.5075C33.762 12.12 34.0502 11.7844 34.5701 11.7844C35.0758 11.7844 35.3168 12.0444 35.3168 12.361C35.3121 12.5217 35.2318 12.6446 34.9813 12.6824ZM35.3121 13.604C35.3121 14.3885 34.8442 14.6343 34.3385 14.6343C33.951 14.6343 33.762 14.3838 33.762 14.1191C33.762 13.7741 34.0077 13.604 34.3102 13.5615L35.3121 13.4102V13.604Z" fill="#00263E"/>
<path d="M42.5336 10.834C41.9476 10.834 41.4797 11.0325 41.1253 11.5713C40.8984 11.0939 40.4116 10.834 39.8067 10.834C39.3199 10.834 38.7528 11.0703 38.507 11.5004V10.9569H37.3633V15.3947H38.5637V12.7953C38.5637 12.3085 38.8709 11.921 39.3955 11.921C39.939 11.921 40.18 12.2802 40.18 12.7622V15.3947H41.371V12.7953C41.371 12.318 41.6782 11.921 42.1934 11.921C42.7416 11.921 42.9779 12.2802 42.9779 12.7622V15.3947H44.1405V12.5165C44.1405 11.3302 43.356 10.834 42.5336 10.834Z" fill="#00263E"/>
<path d="M47.5433 10.8574C46.8769 10.8574 46.3806 11.1552 46.1822 11.4954V10.9567H45.0195V17.1101H46.22V14.9644C46.4374 15.2621 46.8863 15.5079 47.5007 15.5079C48.7531 15.5079 49.5944 14.5154 49.5944 13.1732C49.5897 11.8499 48.8429 10.8574 47.5433 10.8574ZM47.307 14.4304C46.6926 14.4304 46.1963 13.9625 46.1963 13.1779C46.1963 12.3934 46.6926 11.935 47.307 11.935C47.9214 11.935 48.4081 12.3934 48.4081 13.1779C48.4081 13.9719 47.9214 14.4304 47.307 14.4304Z" fill="#00263E"/>
<path d="M54.396 10.957H53.1955V13.5375C53.1955 14.0526 52.8883 14.4118 52.359 14.4118C51.8013 14.4118 51.5461 14.0148 51.5461 13.5186V10.957H50.3457V13.7643C50.3457 14.7285 50.9601 15.513 52.0329 15.513C52.5008 15.513 53.0159 15.3334 53.2617 14.9175C53.2617 15.0971 53.2806 15.305 53.2995 15.3948H54.4432C54.4243 15.2436 54.396 14.9364 54.396 14.5914V10.957Z" fill="#00263E"/>
<path d="M57.4114 12.7108L56.7781 12.5737C56.5324 12.5264 56.3717 12.3941 56.3717 12.1767C56.3717 11.9262 56.6222 11.7324 56.9388 11.7324C57.4445 11.7324 57.6336 12.068 57.6714 12.3279L58.6733 12.1011C58.6213 11.6237 58.196 10.8203 56.9341 10.8203C55.9794 10.8203 55.2752 11.4772 55.2752 12.2712C55.2752 12.8951 55.6628 13.4055 56.5182 13.5993L57.1042 13.7363C57.4492 13.8072 57.5816 13.9726 57.5816 14.1711C57.5816 14.4074 57.3925 14.6106 56.9955 14.6106C56.4709 14.6106 56.211 14.2845 56.1826 13.9348L55.1523 14.1617C55.2043 14.6674 55.6675 15.5322 57.0003 15.5322C58.1629 15.5322 58.7253 14.795 58.7253 14.0719C58.7253 13.4197 58.2858 12.8903 57.4114 12.7108Z" fill="#00263E"/>
<path d="M28.0481 17.2705H26.1104V22.5921H26.8476V20.4181H28.0481C29.0311 20.4181 29.6927 19.7517 29.6927 18.849C29.688 17.9511 29.0311 17.2705 28.0481 17.2705ZM27.911 19.7517H26.8476V17.9274H27.911C28.549 17.9274 28.9413 18.2866 28.9413 18.849C28.9413 19.402 28.549 19.7517 27.911 19.7517Z" fill="#00263E"/>
<path d="M33.0763 20.1867C33.0763 19.4826 32.6557 18.8682 31.5734 18.8682C30.7936 18.8682 30.1698 19.3502 30.0942 20.0402L30.77 20.1962C30.8173 19.7756 31.0914 19.4684 31.5876 19.4684C32.1358 19.4684 32.3674 19.7614 32.3674 20.1159C32.3674 20.2435 32.306 20.3569 32.0886 20.3852L31.115 20.527C30.4912 20.6168 30.0186 20.976 30.0186 21.6235C30.0186 22.1953 30.4912 22.7058 31.2284 22.7058C31.8759 22.7058 32.2351 22.3608 32.3911 22.1055C32.3911 22.3702 32.4147 22.5025 32.4289 22.5923H33.1189C33.1047 22.5025 33.0716 22.3135 33.0716 22.0016V20.1867H33.0763ZM32.3722 21.0422C32.3722 21.8314 31.909 22.1055 31.3277 22.1055C30.9685 22.1055 30.7416 21.8503 30.7416 21.5809C30.7416 21.2596 30.9685 21.0847 31.2662 21.0422L32.3674 20.8768V21.0422H32.3722Z" fill="#00263E"/>
<path d="M34.4898 19.6099V18.9814H33.7998V22.5921H34.504V20.782C34.504 19.988 34.901 19.6714 35.4965 19.6714C35.5957 19.6714 35.6997 19.6808 35.8037 19.695V18.9436C35.7659 18.9341 35.6666 18.9199 35.5721 18.9199C35.2035 18.9199 34.7545 19.057 34.4898 19.6099Z" fill="#00263E"/>
<path d="M37.0603 18.9814H36.3608V22.5922H37.0603V18.9814Z" fill="#00263E"/>
<path d="M36.706 17.1055C36.4272 17.1055 36.2051 17.3323 36.2051 17.6159C36.2051 17.8947 36.4319 18.1169 36.706 18.1169C36.9896 18.1169 37.2165 17.89 37.2165 17.6159C37.2165 17.3323 36.9943 17.1055 36.706 17.1055Z" fill="#00263E"/>
<path d="M39.4191 20.5128L38.8331 20.3852C38.5542 20.3238 38.4219 20.1678 38.4219 19.9504C38.4219 19.7047 38.6629 19.4684 39.0221 19.4684C39.594 19.4684 39.7405 19.8795 39.7736 20.0686L40.3974 19.837C40.3218 19.5156 40.0146 18.8682 39.0221 18.8682C38.3179 18.8682 37.7414 19.3928 37.7414 20.0072C37.7414 20.5176 38.0769 20.9004 38.644 21.0185L39.2584 21.1556C39.5609 21.2218 39.7216 21.3966 39.7216 21.6188C39.7216 21.874 39.5042 22.1008 39.1072 22.1008C38.5968 22.1008 38.3132 21.8031 38.266 21.425L37.6279 21.6518C37.6894 22.063 38.11 22.701 39.0977 22.701C39.991 22.701 40.4163 22.0914 40.4163 21.5809C40.4163 21.0516 40.0713 20.6546 39.4191 20.5128Z" fill="#00263E"/>
</g>
<defs>
<clipPath id="clip0">
<rect width="58.3579" height="22" fill="white" transform="translate(0.367188 0.701172)"/>
</clipPath>
</defs>
</svg>
