<svg width="500" height="777" viewBox="0 0 500 777" fill="none" xmlns="http://www.w3.org/2000/svg">
<g clip-path="url(#clip0)">
<path d="M498.65 750.812V776.069H1.3501V750.375H72.685V742.972H427.315V750.375H428.635L498.65 750.812Z" fill="#BD6F6D"/>
<path d="M23.5703 513.426V750.375H1.3501V512.791L11.2643 469.214L12.8423 462.277L23.5703 513.426Z" stroke="#BD6F6D" stroke-miterlimit="10"/>
<path d="M72.6848 429.507V541.879H23.5701V513.426L12.8421 462.277L11.2642 469.214V427.433H16.8614V429.507H72.6848Z" stroke="#BD6F6D" stroke-miterlimit="10"/>
<path d="M72.685 541.879H23.5703V750.375H72.685V541.879Z" stroke="#BD6F6D" stroke-miterlimit="10"/>
<path d="M180.313 429.279H151.056V583.491H180.313V429.279Z" stroke="#BD6F6D" stroke-miterlimit="10"/>
<path d="M180.313 594.04H151.056V742.972H180.313V594.04Z" stroke="#BD6F6D" stroke-miterlimit="10"/>
<path d="M180.313 583.491H151.056V594.04H180.313V583.491Z" stroke="#BD6F6D" stroke-miterlimit="10"/>
<path d="M180.313 279.007V429.279H151.056V278.531L151.076 278.442L151.493 275.891L152.416 270.393L153.398 264.518V264.508L159.809 226.052L165.446 192.211L179.777 275.891L180.213 278.442L180.313 279.007Z" stroke="#BD6F6D" stroke-miterlimit="10"/>
<path d="M101.941 279.007V742.972H72.6851V278.531L87.0751 192.211L93.0197 226.945L93.6052 230.339L99.4604 264.518L100.602 271.177L101.941 279.007Z" stroke="#BD6F6D" stroke-miterlimit="10"/>
<path d="M153.398 264.508V264.518L152.416 270.393L151.493 275.891L151.076 278.442L151.056 278.531V742.972H101.941V279.007L101.842 278.442L101.406 275.891L100.602 271.177L99.4604 264.518L126.841 205.717L153.398 264.508Z" stroke="#BD6F6D" stroke-miterlimit="10"/>
<path d="M127.883 47.4568H125.65L126.752 41.145L127.883 47.4568Z" fill="#BD6F6D" stroke="#BD6F6D" stroke-miterlimit="10"/>
<path d="M159.809 226.052L153.398 264.508L126.841 205.717L99.4602 264.518L93.605 230.339L124.846 52.012L125.65 47.4568H127.883L128.697 52.012L159.809 226.052Z" fill="#BD6F6D"/>
<path d="M498.65 512.791V750.375H476.43V513.426L487.168 462.277L488.746 469.214L498.65 512.791Z" stroke="#BD6F6D" stroke-miterlimit="10"/>
<path d="M488.745 427.433V469.214L487.168 462.277L476.43 513.426V541.879H427.315V429.507H483.148V427.433H488.745Z" stroke="#BD6F6D" stroke-miterlimit="10"/>
<path d="M476.43 541.879H427.315V750.375H476.43V541.879Z" stroke="#BD6F6D" stroke-miterlimit="10"/>
<path d="M348.944 429.279H319.697V583.51H348.944V429.279Z" stroke="#BD6F6D" stroke-miterlimit="10"/>
<path d="M348.944 594.06H319.697V742.972H348.944V594.06Z" stroke="#BD6F6D" stroke-miterlimit="10"/>
<path d="M348.944 583.51H319.697V594.06H348.944V583.51Z" stroke="#BD6F6D" stroke-miterlimit="10"/>
<path d="M348.944 278.531V429.279H319.697V279.007L319.737 278.769L320.174 276.209L334.564 192.211L339.565 222.191V222.211L340.508 227.888V227.898L346.602 264.498L347.584 270.393L348.557 276.209L348.944 278.531Z" stroke="#BD6F6D" stroke-miterlimit="10"/>
<path d="M427.315 278.531V742.972H398.059V279.007L399.398 271.177L400.54 264.498L406.98 226.955V226.945L412.925 192.211L427.315 278.531Z" stroke="#BD6F6D" stroke-miterlimit="10"/>
<path d="M400.539 264.498L399.398 271.177L398.535 276.209L398.098 278.769L398.058 279.007V742.972H348.944V278.531L348.557 276.209L347.584 270.393L346.602 264.498L373.169 205.717L400.539 264.498Z" stroke="#BD6F6D" stroke-miterlimit="10"/>
<path d="M374.389 47.4568H372.146L373.248 41.145L374.389 47.4568Z" fill="#BD6F6D" stroke="#BD6F6D" stroke-miterlimit="10"/>
<path d="M406.98 226.945V226.955L400.54 264.498L373.169 205.717L346.602 264.498L340.508 227.898V227.888L371.343 52.012L372.147 47.4568H374.389L375.223 52.012L406.98 226.945Z" fill="#BD6F6D"/>
<path d="M184.699 418.73H68.646V429.279H184.699V418.73Z" fill="#BD6F6D"/>
<path d="M431.771 418.73H315.718V429.279H431.771V418.73Z" fill="#BD6F6D"/>
<path d="M184.451 583.491V592.512L182.823 594.04H68.4077V583.491H184.451Z" fill="#BD6F6D"/>
<path d="M431.771 583.51V594.06H317.574L315.718 592.323V583.51H431.771Z" fill="#BD6F6D"/>
<path d="M350.462 335.952H316.978V338.513H350.462V335.952Z" fill="#BD6F6D"/>
<path d="M350.462 276.209H316.978V278.769H350.462V276.209Z" fill="#BD6F6D"/>
<path d="M430.114 335.952H396.629V338.513H430.114V335.952Z" fill="#BD6F6D"/>
<path d="M430.114 276.209H396.629V278.769H430.114V276.209Z" fill="#BD6F6D"/>
<path d="M103.341 335.635H69.8564V338.195H103.341V335.635Z" fill="#BD6F6D"/>
<path d="M103.341 275.891H69.8564V278.452H103.341V275.891Z" fill="#BD6F6D"/>
<path d="M182.992 335.635H149.508V338.195H182.992V335.635Z" fill="#BD6F6D"/>
<path d="M182.992 275.891H149.508V278.452H182.992V275.891Z" fill="#BD6F6D"/>
<path d="M319.697 429.279V453.474L307.411 441.496L303.809 437.982L250.675 386.188L249.692 385.226L248.72 386.188L196.241 437.982L192.688 441.496L180.312 453.702V429.279H184.699V423.047L225.199 382.556L243.579 364.177H256.312L272.865 380.591L315.718 423.057V429.279H319.697Z" fill="#BD6F6D"/>
<path d="M184.699 423.047V429.279H178.467L184.699 423.047Z" stroke="#BD6F6D" stroke-miterlimit="10"/>
<path d="M321.99 429.279H315.718V423.057L319.697 427.006L321.99 429.279Z" stroke="#BD6F6D" stroke-miterlimit="10"/>
<path d="M184.451 583.491V592.512L182.823 594.04H174.477V583.491H184.451Z" stroke="#BD6F6D" stroke-miterlimit="10"/>
<path d="M334.316 742.972H174.477V750.375H334.316V742.972Z" stroke="#BD6F6D" stroke-miterlimit="10"/>
<path d="M334.316 583.51V594.06H317.574L315.718 592.323V583.51H334.316Z" stroke="#BD6F6D" stroke-miterlimit="10"/>
<path d="M180.312 594.04V596.362L182.823 594.02L180.312 594.04ZM213.797 576.087H245.127V545.749L213.797 576.087ZM255.22 545.749V576.117H286.551L255.22 545.749ZM307.411 441.545L303.809 438.032L250.685 386.188L249.692 385.196L248.7 386.188L196.221 437.982L192.688 441.545L180.312 453.752V583.461H184.451V592.482L250.208 530.952L315.708 592.264V583.451H319.678V453.454L307.411 441.545ZM250.208 499.999C242.309 500.001 234.587 497.66 228.018 493.273C221.449 488.885 216.329 482.648 213.305 475.351C210.282 468.053 209.49 460.023 211.03 452.275C212.571 444.528 216.375 437.411 221.96 431.826C227.546 426.24 234.662 422.436 242.41 420.896C250.158 419.355 258.188 420.147 265.485 423.171C272.783 426.194 279.02 431.315 283.407 437.883C287.795 444.452 290.135 452.174 290.133 460.074C290.133 470.662 285.927 480.817 278.44 488.305C270.952 495.792 260.797 499.999 250.208 499.999V499.999ZM255.22 600.838C253.503 600.749 251.737 600.709 249.921 600.709C248.283 600.709 246.685 600.709 245.127 600.818C221.597 601.89 206.671 610.832 197.263 620.845C189.473 629.158 184.129 639.461 181.821 650.618V742.376H197.174V687.347H241.932V742.337H257.513V687.347H302.29V742.337H318.04V649.308C315.76 638.626 310.582 628.778 303.074 620.845C293.765 610.951 278.869 602.009 255.22 600.838ZM255.22 576.087H286.551L255.22 545.749V576.087ZM245.127 545.749L213.797 576.117H245.127V545.749ZM317.574 594.09L319.697 596.074V594.09H317.574ZM297.557 586.349H255.22V600.868C253.503 600.778 251.737 600.739 249.921 600.739C248.283 600.739 246.685 600.739 245.127 600.848V586.319H204.2L180.312 608.152V742.972H319.697V608.003L297.557 586.349Z" stroke="#BD6F6D" stroke-miterlimit="10"/>
<path d="M290.133 460.074C290.132 467.97 287.788 475.688 283.4 482.252C279.012 488.816 272.776 493.932 265.48 496.952C258.185 499.973 250.158 500.762 242.414 499.22C234.67 497.679 227.557 493.875 221.974 488.291C216.391 482.707 212.59 475.593 211.05 467.849C209.51 460.105 210.302 452.078 213.324 444.783C216.346 437.488 221.463 431.253 228.029 426.867C234.594 422.48 242.313 420.139 250.209 420.139C255.452 420.139 260.645 421.172 265.489 423.179C270.334 425.186 274.736 428.128 278.443 431.836C282.151 435.544 285.091 439.947 287.097 444.792C289.103 449.637 290.135 454.83 290.133 460.074Z" stroke="#BD6F6D" stroke-miterlimit="10"/>
<path d="M184.451 583.491V592.512L182.823 594.04H166.25V583.491H184.451Z" stroke="#BD6F6D" stroke-miterlimit="10"/>
<path d="M327.448 583.51V594.06H317.574L315.718 592.323V583.51H327.448Z" stroke="#BD6F6D" stroke-miterlimit="10"/>
<path d="M327.448 742.972H166.25V759.515H327.448V742.972Z" stroke="#BD6F6D" stroke-miterlimit="10"/>
<path d="M250.208 493.647C268.75 493.647 283.782 478.616 283.782 460.074C283.782 441.532 268.75 426.5 250.208 426.5C231.666 426.5 216.635 441.532 216.635 460.074C216.635 478.616 231.666 493.647 250.208 493.647Z" fill="#BD6F6D"/>
<path d="M253.444 305.941V286.917H246.884L246.923 305.783H238.18L250.208 234.646L261.274 305.941H253.444Z" fill="#BD6F6D"/>
<path d="M272.865 380.591L256.868 364.732L256.312 364.177H243.579L225.2 382.556L237.099 312.174H246.884V355.016H253.603V312.174H262.247L272.865 380.591Z" fill="#BD6F6D"/>
<path d="M131.863 47.4568H121.552V52.012H131.863V47.4568Z" fill="#BD6F6D"/>
<path d="M130.563 37.741H122.852V41.145H130.563V37.741Z" fill="#BD6F6D"/>
<path d="M24.7314 512.305H0.188965V514.428H24.7314V512.305Z" fill="#BD6F6D"/>
<path d="M24.7314 545.709H0.188965V547.833H24.7314V545.709Z" fill="#BD6F6D"/>
<path d="M499.811 510.687H475.269V512.811H499.811V510.687Z" fill="#BD6F6D"/>
<path d="M499.811 544.102H475.269V546.225H499.811V544.102Z" fill="#BD6F6D"/>
<path d="M272.31 305.941V312.174H253.603V355.016H246.884V312.174H227.145V305.783H246.924L246.884 286.917H253.444V305.941H272.31Z" stroke="#BD6F6D" stroke-miterlimit="10"/>
<path d="M246.884 312.174H246.328V355.016H246.884V312.174Z" fill="#BD6F6D"/>
<path d="M246.924 305.783H246.368L246.328 286.917H246.884L246.924 305.783Z" fill="#BD6F6D"/>
<path d="M139.008 10.8763V14.2605H128.568V37.4929H124.926V14.2605H114.525V10.7969H124.946L124.926 0.565125H128.479V10.8763H139.008Z" stroke="#BD6F6D" stroke-miterlimit="10"/>
<path d="M378.468 47.4568H368.157V52.012H378.468V47.4568Z" fill="#BD6F6D"/>
<path d="M377.168 37.741H369.457V41.145H377.168V37.741Z" fill="#BD6F6D"/>
<path d="M385.554 10.8763V14.2605H375.114V37.4929H371.472V14.2605H361.071V10.7969H371.492L371.472 0.565125H375.025V10.8763H385.554Z" stroke="#BD6F6D" stroke-miterlimit="10"/>
<path d="M261.016 355.016H238.438V364.732H261.016V355.016Z" fill="#BD6F6D"/>
<path d="M249.92 637.528C247.944 637.528 246.012 638.114 244.368 639.212C242.725 640.31 241.444 641.871 240.687 643.697C239.931 645.523 239.733 647.532 240.119 649.471C240.504 651.409 241.456 653.19 242.854 654.588C244.251 655.985 246.032 656.937 247.971 657.323C249.909 657.708 251.919 657.511 253.745 656.754C255.571 655.998 257.132 654.717 258.23 653.073C259.328 651.43 259.914 649.498 259.914 647.521C259.914 644.871 258.861 642.329 256.987 640.455C255.113 638.58 252.571 637.528 249.92 637.528V637.528ZM280.02 661.455C261.958 661.455 258.763 679.318 258.763 679.318H301.298C301.298 679.318 298.082 661.455 280.02 661.455V661.455ZM197.173 687.347V742.337H241.931V687.347H197.173ZM249.92 637.528C247.944 637.528 246.012 638.114 244.368 639.212C242.725 640.31 241.444 641.871 240.687 643.697C239.931 645.523 239.733 647.532 240.119 649.471C240.504 651.409 241.456 653.19 242.854 654.588C244.251 655.985 246.032 656.937 247.971 657.323C249.909 657.708 251.919 657.511 253.745 656.754C255.571 655.998 257.132 654.717 258.23 653.073C259.328 651.43 259.914 649.498 259.914 647.521C259.914 644.871 258.861 642.329 256.987 640.455C255.113 638.58 252.571 637.528 249.92 637.528V637.528ZM280.02 661.455C261.958 661.455 258.763 679.318 258.763 679.318H301.298C301.298 679.318 298.082 661.455 280.02 661.455V661.455ZM257.512 687.347V742.337H302.29V687.347H257.512ZM197.173 687.347V742.337H241.931V687.347H197.173ZM213.796 576.087H245.127V545.749L213.796 576.087ZM249.92 637.528C247.944 637.528 246.012 638.114 244.368 639.212C242.725 640.31 241.444 641.871 240.687 643.697C239.931 645.523 239.733 647.532 240.119 649.471C240.504 651.409 241.456 653.19 242.854 654.588C244.251 655.985 246.032 656.937 247.971 657.323C249.909 657.708 251.919 657.511 253.745 656.754C255.571 655.998 257.132 654.717 258.23 653.073C259.328 651.43 259.914 649.498 259.914 647.521C259.914 644.871 258.861 642.329 256.987 640.455C255.113 638.58 252.571 637.528 249.92 637.528V637.528ZM255.22 545.749V576.117H286.55L255.22 545.749ZM280.03 661.485C261.968 661.485 258.773 679.348 258.773 679.348H301.298C301.298 679.348 298.082 661.455 280.02 661.455L280.03 661.485ZM257.522 687.377V742.366H302.29V687.347L257.522 687.377ZM257.522 687.377V742.366H302.29V687.347L257.522 687.377ZM280.03 661.485C261.968 661.485 258.773 679.348 258.773 679.348H301.298C301.298 679.348 298.082 661.455 280.02 661.455L280.03 661.485ZM249.93 637.557C247.954 637.557 246.021 638.143 244.378 639.242C242.735 640.34 241.454 641.9 240.697 643.727C239.941 645.553 239.743 647.562 240.129 649.501C240.514 651.439 241.466 653.22 242.864 654.618C244.261 656.015 246.042 656.967 247.981 657.353C249.919 657.738 251.929 657.54 253.755 656.784C255.581 656.028 257.141 654.747 258.24 653.103C259.338 651.46 259.924 649.528 259.924 647.551C259.928 646.235 259.672 644.932 259.171 643.715C258.67 642.499 257.933 641.393 257.004 640.462C256.074 639.53 254.97 638.792 253.755 638.288C252.539 637.785 251.236 637.526 249.92 637.528L249.93 637.557ZM197.183 687.377V742.366H241.941V687.347L197.183 687.377ZM280.03 661.485C261.968 661.485 258.773 679.348 258.773 679.348H301.298C301.298 679.348 298.082 661.455 280.02 661.455L280.03 661.485ZM249.93 637.557C247.954 637.557 246.021 638.143 244.378 639.242C242.735 640.34 241.454 641.9 240.697 643.727C239.941 645.553 239.743 647.562 240.129 649.501C240.514 651.439 241.466 653.22 242.864 654.618C244.261 656.015 246.042 656.967 247.981 657.353C249.919 657.738 251.929 657.54 253.755 656.784C255.581 656.028 257.141 654.747 258.24 653.103C259.338 651.46 259.924 649.528 259.924 647.551C259.928 646.235 259.672 644.932 259.171 643.715C258.67 642.499 257.933 641.393 257.004 640.462C256.074 639.53 254.97 638.792 253.755 638.288C252.539 637.785 251.236 637.526 249.92 637.528L249.93 637.557ZM257.522 687.377V742.366H302.29V687.347L257.522 687.377ZM280.03 661.485C261.968 661.485 258.773 679.348 258.773 679.348H301.298C301.298 679.348 298.082 661.455 280.02 661.455L280.03 661.485ZM249.93 637.557C247.954 637.557 246.021 638.143 244.378 639.242C242.735 640.34 241.454 641.9 240.697 643.727C239.941 645.553 239.743 647.562 240.129 649.501C240.514 651.439 241.466 653.22 242.864 654.618C244.261 656.015 246.042 656.967 247.981 657.353C249.919 657.738 251.929 657.54 253.755 656.784C255.581 656.028 257.141 654.747 258.24 653.103C259.338 651.46 259.924 649.528 259.924 647.551C259.928 646.235 259.672 644.932 259.171 643.715C258.67 642.499 257.933 641.393 257.004 640.462C256.074 639.53 254.97 638.792 253.755 638.288C252.539 637.785 251.236 637.526 249.92 637.528L249.93 637.557ZM197.183 687.377V742.366H241.941V687.347L197.183 687.377Z" stroke="#BD6F6D" stroke-miterlimit="10"/>
<path d="M317.574 594.06L315.718 592.323L250.218 531.012L184.461 592.541L182.833 594.07L180.312 596.362V608.162L204.2 586.329H245.127V600.828C246.685 600.759 248.283 600.719 249.921 600.719C251.737 600.719 253.503 600.719 255.22 600.848V586.319H297.557L319.697 608.053V596.045L317.574 594.06ZM245.127 576.087H213.797L245.127 545.749V576.087ZM255.22 576.087V545.749L286.551 576.117L255.22 576.087Z" stroke="#BD6F6D" stroke-miterlimit="10"/>
<path d="M324.401 742.972V750.375V758.315L174.546 759.505L174.596 750.365V742.962H180.342V608.182L204.23 586.349H245.127V600.848C221.597 601.92 206.671 610.861 197.263 620.875C189.472 629.188 184.129 639.491 181.821 650.647V742.406H318.02V649.308C315.74 638.626 310.562 628.778 303.054 620.845C293.765 610.921 278.869 601.989 255.22 600.838V586.319H297.556L319.697 608.053V743.021L324.401 742.972Z" stroke="#BD6F6D" stroke-miterlimit="10"/>
<path d="M245.127 545.719V576.087H213.796L245.127 545.719Z" stroke="#BD6F6D" stroke-miterlimit="10"/>
<path d="M286.55 576.087H255.22V545.719L286.55 576.087Z" stroke="#BD6F6D" stroke-miterlimit="10"/>
<path d="M303.054 620.845C293.765 610.921 278.869 601.989 255.22 600.838C253.503 600.749 251.737 600.709 249.92 600.709C248.283 600.709 246.685 600.709 245.127 600.818C221.597 601.89 206.671 610.832 197.263 620.845C189.472 629.158 184.129 639.461 181.821 650.618V742.376H197.173V687.347H241.931V742.337H257.512V687.347H302.29V742.337H318.04V649.308C315.754 638.624 310.569 628.776 303.054 620.845V620.845ZM249.92 657.564C247.944 657.564 246.012 656.978 244.368 655.88C242.725 654.782 241.444 653.221 240.688 651.395C239.931 649.569 239.733 647.56 240.119 645.621C240.504 643.683 241.456 641.902 242.854 640.504C244.251 639.107 246.032 638.155 247.971 637.769C249.909 637.384 251.919 637.581 253.745 638.338C255.571 639.094 257.132 640.375 258.23 642.019C259.328 643.662 259.914 645.594 259.914 647.571C259.901 650.213 258.842 652.742 256.969 654.605C255.097 656.469 252.562 657.515 249.92 657.515V657.564ZM258.763 679.398C258.763 679.398 261.958 661.534 280.02 661.534C298.082 661.534 301.278 679.398 301.278 679.398H258.763Z" stroke="#BD6F6D" stroke-miterlimit="10"/>
<path d="M241.931 687.347H197.173V742.337H241.931V687.347Z" stroke="#BD6F6D" stroke-miterlimit="10"/>
<path d="M249.92 657.515C255.44 657.515 259.914 653.041 259.914 647.521C259.914 642.002 255.44 637.528 249.92 637.528C244.401 637.528 239.927 642.002 239.927 647.521C239.927 653.041 244.401 657.515 249.92 657.515Z" stroke="#BD6F6D" stroke-miterlimit="10"/>
<path d="M258.763 679.358C258.763 679.358 261.958 661.494 280.02 661.494C298.082 661.494 301.278 679.358 301.278 679.358H258.763Z" stroke="#BD6F6D" stroke-miterlimit="10"/>
<path d="M302.27 687.347H257.512V742.337H302.27V687.347Z" stroke="#BD6F6D" stroke-miterlimit="10"/>
<path d="M241.931 687.347H197.173V742.337H241.931V687.347Z" stroke="#BD6F6D" stroke-miterlimit="10"/>
<path d="M249.92 657.515C255.44 657.515 259.914 653.041 259.914 647.521C259.914 642.002 255.44 637.528 249.92 637.528C244.401 637.528 239.927 642.002 239.927 647.521C239.927 653.041 244.401 657.515 249.92 657.515Z" fill="#BD6F6D"/>
<path d="M219.552 711.482H217.955V714.519H219.552V711.482Z" fill="#BD6F6D"/>
<path d="M219.552 716.921H217.955V721.952H219.552V716.921Z" fill="#BD6F6D"/>
<path d="M222.748 711.482H221.15V714.519H222.748V711.482Z" fill="#BD6F6D"/>
<path d="M222.748 716.921H221.15V721.952H222.748V716.921Z" fill="#BD6F6D"/>
<path d="M302.27 687.347H257.512V742.337H302.27V687.347Z" stroke="#BD6F6D" stroke-miterlimit="10"/>
<path d="M301.298 679.358H258.763C258.763 679.358 261.958 661.494 280.02 661.494C298.082 661.494 301.298 679.358 301.298 679.358Z" fill="#BD6F6D"/>
<path d="M240.81 679.358H198.295C198.295 679.358 201.491 661.494 219.552 661.494C237.614 661.494 240.81 679.358 240.81 679.358Z" fill="#BD6F6D"/>
<path d="M279.891 711.482H278.293V714.519H279.891V711.482Z" fill="#BD6F6D"/>
<path d="M279.891 716.921H278.293V721.952H279.891V716.921Z" fill="#BD6F6D"/>
<path d="M283.087 711.482H281.489V714.519H283.087V711.482Z" fill="#BD6F6D"/>
<path d="M283.087 716.921H281.489V721.952H283.087V716.921Z" fill="#BD6F6D"/>
</g>
<defs>
<clipPath id="clip0">
<rect width="499.622" height="776" fill="white" transform="translate(0.188965 0.0689087)"/>
</clipPath>
</defs>
</svg>
