<svg width="27" height="33" viewBox="0 0 27 33" fill="none" xmlns="http://www.w3.org/2000/svg">
<g clip-path="url(#clip0)">
<path d="M6.03025 18.7978H1.93443V15.9932H11.304V25.4605H8.52498V21.0415L2.72313 26.9038L0.367188 24.5233L6.03025 18.7978ZM23.9435 0.701172L26.2995 3.08168L20.4976 8.94401H24.871V11.752H15.5014V2.28475H18.2805V6.42328L23.9435 0.701172ZM18.2771 21.322V25.4605H15.5014V15.9932H24.871V18.8012H20.4976L26.2995 24.6635L23.9435 27.0441L18.2771 21.322ZM0.367188 3.22191L2.72313 0.841403L8.52498 6.70374V2.28475H11.304V11.752H1.93443V8.94401H6.03025L0.367188 3.22191Z" fill="#130D0E"/>
<path d="M15.0581 13.8727C15.0581 14.7962 14.3167 15.5452 13.4028 15.5452C12.4889 15.5452 11.7476 14.7962 11.7476 13.8727C11.7476 12.9492 12.4889 12.2002 13.4028 12.2002C14.3167 12.2002 15.0581 12.9492 15.0581 13.8727Z" fill="#C52926"/>
<path d="M26.3708 27.5811H0.438477V32.7012H26.3708V27.5811Z" fill="#C52926"/>
<path d="M4.9403 31.3806V32.0817H2.72314V28.1963H4.90984V28.8974H3.55585V29.7628H4.63227V30.4708H3.55923V31.3806H4.9403Z" fill="white"/>
<path d="M11.3785 29.4105C11.3785 30.1287 10.8572 30.6247 9.96696 30.6247H9.76724V32.0851H8.93115V28.1963H9.96696C10.8572 28.1963 11.3785 28.6922 11.3785 29.4105ZM10.5424 29.4652C10.5424 29.1369 10.3596 28.8974 9.99742 28.8974H9.76724V30.0296H9.99742C10.3596 30.0296 10.5424 29.797 10.5424 29.4652Z" fill="white"/>
<path d="M17.5359 28.1963L16.6896 30.4844V32.0851H15.8535V30.4673L14.9531 28.1963H15.8468L16.1176 28.8974C16.236 29.2566 16.3003 29.6875 16.3342 30.0911H16.3511C16.385 29.6944 16.4527 29.2531 16.5407 28.9043L16.7776 28.1963H17.5359Z" fill="white"/>
<path d="M23.9841 28.1963V32.0851H23.148V30.4742H22.234V32.0851H21.3979V28.1963H22.234V29.7662H23.1514V28.1963H23.9841Z" fill="white"/>
</g>
<defs>
<clipPath id="clip0">
<rect width="26" height="32" fill="white" transform="translate(0.367188 0.701172)"/>
</clipPath>
</defs>
</svg>
