<svg width="26" height="33" viewBox="0 0 26 33" fill="none" xmlns="http://www.w3.org/2000/svg">
<path d="M13 16.1753C11.2409 16.1753 9.8016 14.736 9.8016 12.9768C9.8016 11.2177 11.2409 9.7784 13 9.7784C14.7592 9.7784 16.1985 11.2177 16.1985 12.9768C16.1985 14.736 14.7592 16.1753 13 16.1753ZM22.5953 13.2967C22.5953 7.49152 18.3574 3.38154 13 3.38154C7.64265 3.38154 3.40473 7.49152 3.40473 13.2967C3.40473 17.0388 6.5232 21.9964 13 27.9135C19.4769 21.9964 22.5953 17.0388 22.5953 13.2967ZM13 0.183105C19.7167 0.183105 25.7938 5.33258 25.7938 13.2967C25.7938 18.6061 21.5238 24.891 13 32.1674C4.47621 24.891 0.206299 18.6061 0.206299 13.2967C0.206299 5.33258 6.28332 0.183105 13 0.183105Z" fill="#BD6F6D"/>
</svg>
