<svg width="146" height="63" viewBox="0 0 146 63" fill="none" xmlns="http://www.w3.org/2000/svg">
<path d="M48.7248 41.162C54.8607 43.0777 61.3821 44.025 68.289 44.0039C85.8815 43.9502 100.924 37.6274 113.418 25.0353C113.884 24.5655 114.341 24.0921 114.79 23.6153L104.137 26.042L103.655 26.3927L102.892 25.8436L83.9149 13.0651C78.2351 15.8176 71.8735 16.9412 64.8303 16.4359L50.1007 39.2346L48.7248 41.162Z" fill="white"/>
<path d="M89.2152 9.88089L104.602 23.1241L116.534 21.6947C126.336 10.4955 131.493 -2.55935 132.003 -17.4698L104.516 -17.3885C103.941 -8.97818 100.456 -1.03333 94.6606 5.08073C92.9357 6.89626 91.1205 8.49631 89.2152 9.88089Z" fill="white"/>
<path d="M53.9954 14.0244L43.5894 26.6579L10.4211 8.11795C6.19852 -0.357329 4.06757 -9.68552 4.02821 -19.8666L31.4692 -19.9465C31.5186 -7.72844 36.768 2.30679 47.2174 10.1591C49.3149 11.7329 51.5932 13.0291 53.9954 14.0244Z" fill="white"/>
</svg>
