<svg width="544" height="563" viewBox="0 0 544 563" fill="none" xmlns="http://www.w3.org/2000/svg">
<path d="M829.472 477.644V562.518L506.503 562.653L50.5229 562.518L330.723 393.184H438.085L459.485 426.201L629.545 425.6L648.883 437.145L686.356 455.228L688.564 456.265L692.025 456.586L704.979 457.788L706.388 457.923L708.191 457.778L720.037 456.316L722.057 456.016L727.146 455.342L744.763 453.498L763.997 448.399L765.034 448.078L765.894 448.482L825.866 476.877L829.472 477.644Z" fill="#BD6F6D"/>
<path d="M256.729 132.995L459.847 131.202L459.433 445.787L438.054 393.194V207.89L455.671 139.7L256.729 132.995Z" stroke="#BD6F6D" stroke-width="1.03845" stroke-miterlimit="10"/>
<path d="M331.417 208.201H438.054L459.817 131.202H253.879L331.417 208.201Z" fill="#BD6F6D"/>
<path d="M516.503 260.017H609.461V425.631L516.503 425.838V260.017Z" stroke="#BD6F6D" stroke-width="1.03845" stroke-miterlimit="10"/>
<path d="M351.002 272.142H419.192V392.769L351.002 393.184V272.142Z" stroke="#BD6F6D" stroke-width="1.03845" stroke-miterlimit="10"/>
<path d="M50.8853 191.724L7.35986 166.126V410.801L50.8853 394.946V191.724ZM10.0025 393.184V174.272L25.0292 183.081V388.375L10.0025 393.184ZM46.6882 381.992L26.9982 388.002V183.847L46.6882 195.247V381.992Z" fill="#BD6F6D"/>
<path d="M7.73291 45.3955V163.95L30.0138 177.526L51.2583 190.273V111.72C51.2583 92.7553 35.7135 59.4894 7.73291 45.3955ZM25.3503 167.163L10.3237 158.147L9.70194 53.8933C15.4878 57.7167 20.7486 62.2807 25.3503 67.4691V167.163ZM47.0094 180.635L27.3194 168.303V68.9199C31.1537 72.6507 47.0094 93.2734 47.0094 115.658V180.635Z" fill="#BD6F6D"/>
<path d="M180.218 232.306L151.305 216.761V364.851L180.218 355.255V232.306ZM153.015 354.229V221.735L162.994 227.01V351.368L153.015 354.229ZM177.451 347.43L164.393 351.089V227.518L177.544 234.399L177.451 347.43Z" fill="#BD6F6D"/>
<path d="M151.305 143.638V215.455L166.134 223.694L180.218 231.342V183.837C180.218 172.365 169.865 152.219 151.305 143.638ZM162.963 217.403L152.984 211.962L152.517 148.902C156.337 151.175 159.824 153.965 162.88 157.193V217.445L162.963 217.403ZM177.327 225.559L164.269 218.087V157.918C166.881 160.209 177.327 172.707 177.327 186.21V225.559Z" fill="#BD6F6D"/>
<path d="M273.487 261.499L260.222 253.426V330.332L273.487 325.357V261.499ZM260.989 324.86V256.027L265.528 258.763V323.274L260.989 324.86ZM272.192 321.326L266.191 323.202V259.053L272.192 262.65V321.326Z" fill="#BD6F6D"/>
<path d="M260.222 215.518V252.825L266.989 257.074L273.487 261.033V236.348C273.487 230.43 268.74 219.984 260.222 215.518ZM265.6 253.789L261.061 250.98L260.854 218.253C262.619 219.451 264.215 220.88 265.6 222.502V253.789ZM272.16 258.038L266.16 254.152V222.979C267.341 224.129 272.16 230.617 272.16 237.684V258.038Z" fill="#BD6F6D"/>
<path d="M315.592 276.867L306.959 272.515V314.175L315.592 311.49V276.867ZM307.447 311.066V273.882L310.441 275.375V310.34L307.447 311.066ZM314.763 309.159L310.856 310.195V275.478L314.763 277.385V309.159Z" fill="#BD6F6D"/>
<path d="M306.959 251.933V272.1L311.415 274.421L315.664 276.577V263.208C315.591 260.048 312.534 254.379 306.959 251.933ZM310.441 272.66L307.446 271.116L307.311 253.395C308.44 254.035 309.485 254.815 310.42 255.716L310.441 272.66ZM314.762 274.929L310.856 272.857V255.965C311.622 256.628 314.762 260.11 314.762 263.903V274.929Z" fill="#BD6F6D"/>
</svg>
