<svg width="544" height="562" viewBox="0 0 544 562" fill="none" xmlns="http://www.w3.org/2000/svg">
<g clip-path="url(#clip0)">
<path d="M837.188 476.09V560.813L514.851 560.917L59.6885 560.813L339.303 391.781H446.473L467.783 424.781L637.538 424.16L656.882 435.642L694.33 453.642L696.502 454.677L699.916 454.987L712.846 456.228L714.295 456.332L716.053 456.228L727.846 454.78L729.915 454.47L734.984 453.746L752.57 451.884L771.811 446.815L772.845 446.504L773.673 446.918L833.568 475.263L837.188 476.09Z" fill="#D7A9A7"/>
<path d="M341.888 199.37L446.679 197.404L446.472 391.781L467.368 431.298L468.403 131.198H294.613L341.888 199.37Z" stroke="#D7A9A7" stroke-width="1.24453" stroke-miterlimit="10"/>
<path d="M468.402 131.198L455.989 174.853L455.886 175.163L446.782 207.749H341.371V201.335L330.716 197.611L282.924 149.405L294.613 131.198H468.402Z" fill="#D7A9A7"/>
<path d="M525.298 259.473H618.399V423.953L525.298 424.16V259.473V259.473Z" stroke="#D7A9A7" stroke-width="1.24453" stroke-miterlimit="10"/>
<path d="M359.784 271.886H428.059V391.471L359.784 391.885V271.886Z" stroke="#D7A9A7" stroke-width="1.24453" stroke-miterlimit="10"/>
<path d="M366.509 408.953L367.751 409.988L366.509 410.401V410.195L363.406 411.229V411.436L356.165 413.712L358.337 415.263L356.165 415.47L355.13 415.574V418.057L353.062 418.367L350.993 418.574L343.545 419.712L339.614 423.125V424.16L338.579 424.47V424.677L335.476 425.505L335.993 427.884L336.407 429.539L335.476 430.056L335.165 430.16L334.441 430.574L333.407 430.987L331.234 432.125L329.372 433.056L329.166 433.16L328.648 433.47L325.028 435.332L318.511 437.194L318.304 441.229L319.959 441.436L323.062 441.849L323.166 442.16L323.89 446.091L324.51 449.091L325.235 453.022H322.235L322.338 453.228L323.269 455.194L323.786 456.435L324.717 458.608L323.579 459.125L322.028 459.746V459.849L320.89 460.263L317.993 461.401L317.786 461.504L316.442 462.021L316.028 462.228L314.476 465.332L307.545 469.263L302.58 469.676L302.063 476.814L301.959 477.642V477.952L299.994 479.607L303.614 480.538L310.235 485.297L311.683 488.297L317.89 491.193C319.131 491.814 320.269 492.538 321.2 493.366L333.717 494.193V495.538L338.579 497.814L333.717 501.124L327.924 505.055L326.579 505.986L325.338 506.814L324.614 507.331L322.752 508.159L322.028 508.676V508.779L322.959 509.193L325.028 510.124L325.648 510.435L326.683 510.848L326.166 512.4V512.607L325.855 513.745L325.131 516.745L325.028 516.952L324.407 517.262L322.131 518.296H322.028L318.511 519.952L313.028 522.434L312.718 522.641V523.055L310.649 523.986V523.572L308.063 524.814L306.511 527.71L311.683 529.158L316.855 528.331V528.227L322.131 529.572L316.855 533.4L314.787 534.641V534.745L318.924 536.71L329.062 537.434C329.062 537.434 329.062 537.434 329.062 537.538L323.373 542.813L335.579 547.158L323.373 558.124L322.545 560.917H300.201L300.304 550.055L298.235 549.848L294.097 549.331V535.158L287.891 533.089V528.021L284.891 523.986C286.753 523.469 288.615 522.952 290.477 522.434C293.58 521.607 295.649 520.572 296.89 519.228L298.132 518.814V518.503L310.545 511.366V511.262L305.373 508.779L307.338 506.297L308.683 504.642L312.2 500.297L312.511 500.4V499.883L312.2 500.297L310.338 499.676L303.925 497.711L302.166 497.193L301.752 493.262L301.649 492.435V492.331L300.408 492.021L298.132 491.297L296.994 490.987L295.959 490.676L296.787 487.883C296.89 487.987 296.994 488.09 296.994 488.193C296.89 487.987 296.89 487.883 296.787 487.676V487.883C296.787 487.883 296.787 487.78 296.683 487.78L294.821 486.538L294.925 486.849L293.89 486.745L293.063 486.642C293.063 486.642 293.063 486.642 293.063 486.538H292.856H292.649L292.856 485.814L292.959 485.504L290.891 485.194L286.96 484.78L289.132 482.297L291.822 479.297L295.339 475.366L293.994 474.952L290.063 473.09L293.994 470.401V465.952L311.476 459.021L314.373 458.09H314.58L316.959 457.056L316.131 456.022L315.407 455.091L314.787 454.366L314.166 453.642L313.235 452.504L314.683 452.401H315.407L314.373 450.435L313.959 449.711L312.821 447.539L312.614 447.022V446.815L308.994 439.987L312.614 437.505L312.2 436.056L321.614 431.815L325.545 430.056L329.166 428.401V426.953L329.269 424.47V423.125L333.2 422.505V422.919L334.234 420.746H337.338L336.303 417.746L350.786 416.298L351.096 415.16L352.855 414.022L352.234 412.367L363.199 408.333V407.608L358.337 404.091L363.199 402.539L362.579 400.574L375.716 391.471H380.785L366.199 400.988L366.716 402.539L366.199 402.85L363.096 404.505L364.13 404.608V405.746L367.647 408.746L366.509 408.953Z" fill="#F8F1F0"/>
<path d="M296.994 519.227C295.753 520.572 293.684 521.503 290.581 522.434C288.719 522.951 286.857 523.469 284.995 523.986L284.374 523.158L296.994 519.227Z" fill="#F8F1F0"/>
<path d="M312.718 499.883V500.4L312.407 500.297L312.718 499.883Z" fill="#F8F1F0"/>
<path d="M297.201 488.193C297.201 488.09 297.098 487.987 296.994 487.883V487.676C297.098 487.883 297.201 488.09 297.201 488.193Z" fill="#F8F1F0"/>
<path d="M312.718 499.883V500.4L312.407 500.297L312.718 499.883Z" fill="#F8F1F0"/>
<path d="M297.201 488.193C297.201 488.09 297.098 487.987 296.994 487.883V487.676C297.098 487.883 297.201 488.09 297.201 488.193Z" fill="#F8F1F0"/>
<path d="M61.9639 484.263C62.7914 483.849 64.1362 483.849 63.9293 482.711C67.0327 483.849 69.2051 485.814 71.3775 487.78C73.2395 489.435 75.1015 491.09 76.9635 492.849C77.998 493.78 78.929 494.711 79.9635 495.642C80.6876 496.263 81.4117 496.883 82.1358 497.4C82.5496 497.711 83.2737 497.607 83.791 496.883C84.9289 495.332 85.8599 493.78 86.9978 492.125C87.2047 491.814 87.3081 491.504 87.6185 491.297C88.8598 490.47 89.4805 489.435 89.6874 488.401C89.7908 487.883 89.6874 487.263 89.2736 486.849C86.7909 484.676 84.2048 482.608 81.8255 480.435C79.86 478.573 77.998 476.608 76.3429 474.642C75.5153 473.608 75.1015 472.263 75.7222 470.297C76.4463 470.711 77.067 470.918 77.4808 471.228C79.2393 472.78 80.9979 474.332 82.6531 475.883C83.8944 477.125 84.9289 478.47 86.1702 479.711C88.2391 481.677 90.3081 483.642 92.377 485.504C92.8942 486.021 93.7218 486.228 94.3425 486.745C95.3769 487.573 96.4114 488.504 97.4458 489.435C98.5837 490.469 99.8251 491.504 100.963 492.435C101.273 492.745 101.584 493.056 101.894 493.366C101.997 493.469 102.204 493.78 102.411 493.78C103.756 493.676 103.859 494.711 104.687 495.228C105.515 495.745 106.342 496.366 107.17 496.987C107.584 497.297 107.894 497.711 108.411 498.021C109.032 498.331 109.756 498.642 110.377 498.952C110.48 498.849 110.583 498.745 110.687 498.642C110.687 498.538 110.79 498.331 110.687 498.228C109.756 497.814 109.549 496.883 109.446 495.952C109.446 495.538 109.446 495.021 109.446 494.607C109.446 494.297 109.446 493.883 109.239 493.676C107.79 491.297 106.239 488.918 104.687 486.539C104.377 486.125 103.963 486.021 103.342 486.745C102.825 487.263 102.308 487.78 101.894 488.297C100.963 489.332 100.446 489.435 100.135 488.504C99.9285 487.676 99.8251 486.642 100.135 485.608C100.342 484.573 101.066 483.435 101.48 482.297C101.584 482.09 101.17 481.883 100.963 481.78C100.653 481.573 100.135 481.573 99.8251 481.366C98.9975 480.539 98.17 479.711 97.5493 478.78C96.8252 477.849 96.4114 476.918 95.7907 475.987C94.8597 474.642 93.8252 473.297 92.8942 471.953C91.8598 470.608 91.0322 469.159 89.8943 467.815C88.6529 466.366 88.2391 464.504 86.9978 463.056C85.7564 461.608 84.722 460.056 83.5841 458.504C83.4806 458.401 83.3772 458.298 83.3772 458.091C83.2737 457.367 83.1703 456.642 83.0668 455.918C84.5151 455.298 83.1703 454.573 83.8944 453.642C84.5151 454.056 85.1358 454.573 85.7564 454.987C85.8599 454.987 86.1702 454.78 86.6875 454.573C87.1012 454.987 87.515 455.504 88.0323 456.022C89.377 457.056 90.7219 458.091 91.9632 459.125C93.5149 460.366 94.9631 461.608 96.4114 462.953C98.4803 464.711 100.446 466.573 102.515 468.332C103.549 469.263 104.377 468.953 105.515 467.401C106.446 466.056 107.48 464.815 108.515 463.47C109.239 462.539 109.032 461.815 108.721 461.194C107.377 458.918 106.032 456.642 104.584 454.367C100.653 447.953 96.6183 441.436 92.6873 434.919C92.1701 433.988 92.1701 432.746 91.9632 431.712C92.0666 431.608 92.2735 431.505 92.377 431.401C92.7908 431.401 93.308 431.401 93.7218 431.401C94.8597 431.401 95.2735 431.091 95.17 430.16C95.17 430.057 95.17 429.85 95.4804 429.539C95.6873 429.746 95.7907 429.85 95.9976 430.057C96.6183 430.574 97.2389 431.091 97.8596 431.712C98.0665 431.919 98.2734 432.022 98.3769 432.332C100.446 435.746 102.515 439.16 104.48 442.574C105.204 443.918 105.722 445.367 106.342 446.711C106.549 447.125 106.859 447.436 107.066 447.849C107.48 448.47 107.79 448.987 108.101 449.608C108.825 450.849 109.239 452.298 110.17 453.229C111.101 454.16 111.618 455.194 112.239 456.229C112.549 456.746 113.377 456.229 113.894 455.815C115.032 454.78 116.273 453.746 117.307 452.711C118.238 451.78 119.273 451.056 119.79 449.918C120.101 449.401 121.135 448.78 121.963 448.263C124.031 447.022 125.169 444.953 124.342 443.505C123.307 441.746 122.169 439.987 121.135 438.229C118.238 433.47 115.342 428.608 113.583 423.126C113.066 421.677 113.17 419.815 113.17 418.16C113.17 417.643 113.687 416.919 114.101 416.091C114.618 416.298 115.342 416.402 115.652 416.712C116.273 417.539 116.79 418.471 117.307 419.298C118.445 421.264 119.48 423.126 120.514 425.091C121.135 426.229 121.652 427.47 122.273 428.712C124.135 432.539 125.997 436.367 128.066 439.987C129.204 441.953 130.755 443.712 131.997 445.574C132.721 446.608 133.135 447.849 133.755 448.987C134.686 450.746 135.617 452.608 136.755 454.263C137.273 454.987 138.204 455.401 137.997 456.642C137.997 456.746 138.1 456.953 138.204 456.953C139.962 457.573 140.066 459.125 140.686 460.47C141.1 461.401 142.031 461.918 142.755 462.642C143.066 462.953 143.479 463.056 143.79 463.366C144.617 464.297 145.341 465.332 146.169 466.366C146.79 465.746 147.41 465.228 146.583 464.918C146.272 464.815 146.169 464.401 146.169 464.091C146.272 463.16 146.479 462.229 146.686 460.987C146.996 461.091 147.41 461.297 147.721 461.401C147.824 461.297 147.824 461.194 147.927 461.091C147.721 459.953 147.514 458.815 147.307 457.677C146.893 455.504 146.479 453.229 145.962 451.056C145.859 450.746 145.548 450.642 145.445 450.436C145.134 450.642 144.824 450.953 144.514 451.16C142.859 452.194 141.203 453.332 139.445 454.263C138.617 454.78 138.307 454.47 138.41 453.849C138.824 452.194 139.445 450.539 141.203 448.987C141.41 448.884 141.617 448.677 141.721 448.574C142.755 447.643 143.376 446.712 143.066 445.78C142.652 444.746 142.548 443.712 142.238 442.574C142.135 442.367 141.928 442.263 141.721 442.056C141.41 441.539 141.1 441.125 140.893 440.505C140.479 439.47 140.272 438.539 139.962 437.505C139.859 437.298 139.652 436.987 139.755 436.781C140.376 435.539 139.652 435.022 138.928 434.401C138.824 434.298 138.824 434.091 138.824 433.884C138.721 433.677 138.617 433.367 138.514 433.16C138.41 432.953 138.307 432.85 138.204 432.643C137.893 431.194 137.583 429.643 137.273 428.195C137.169 427.884 136.755 427.677 136.445 427.367C137.376 426.643 137.169 425.919 136.962 425.091C136.342 422.815 135.721 420.539 135.1 418.264C134.893 417.539 134.066 417.022 135.307 415.781C135.514 415.574 135.204 415.264 135.204 414.953C135.204 414.643 135.1 414.333 135.1 414.022C135.514 413.815 135.928 413.712 136.445 413.505C136.859 412.781 137.376 411.85 137.893 410.815C138.307 411.333 138.617 411.643 138.824 412.057C138.928 412.057 139.031 411.953 139.031 411.953C139.031 411.746 139.031 411.54 139.135 411.229C139.238 411.229 139.238 411.126 139.341 411.126C139.548 411.436 139.652 411.643 139.859 411.953C139.962 412.16 140.169 412.471 140.272 412.677C140.376 412.574 140.479 412.574 140.583 412.471C140.686 412.264 140.686 412.057 140.893 411.643C141.41 412.057 142.031 412.264 142.445 412.781C143.169 413.608 143.583 414.643 144.307 415.471C145.859 417.333 147.721 418.988 149.169 420.953C152.376 425.091 155.479 429.436 158.686 433.677C159.513 434.712 160.548 435.643 161.272 436.677C162.306 438.125 163.134 439.781 164.272 441.229C166.341 443.918 168.513 446.505 170.686 449.091C172.03 450.746 173.479 452.401 174.823 454.056C175.03 454.263 175.03 454.677 175.134 454.987C175.341 455.711 175.548 456.436 175.651 457.16C175.754 457.677 175.754 458.194 175.961 459.022C174.099 458.504 174.41 456.642 172.134 456.539C172.444 457.263 172.755 457.78 172.961 458.298C172.858 458.401 172.858 458.504 172.755 458.504C172.03 458.194 171.099 458.091 170.479 457.677C169.134 456.539 167.893 455.401 166.858 454.056C166.237 453.229 166.237 451.987 165.72 451.16C163.755 448.367 161.789 445.574 159.72 442.78C159.203 442.056 157.651 442.056 156.513 442.78C154.651 443.918 152.893 445.263 151.031 446.505C149.583 447.436 149.376 448.367 149.686 449.401C149.79 449.608 149.79 449.711 149.79 449.918C146.376 451.78 150.41 450.849 149.79 451.573C149.479 451.78 148.962 452.091 148.858 452.298C148.755 452.815 148.652 453.332 148.755 453.746C148.962 454.367 149.376 454.884 149.686 455.401C150.824 456.953 151.238 458.918 151.755 460.884C152.065 462.125 152.169 463.47 152.479 464.815C152.479 465.022 151.858 465.746 151.755 465.746C150.514 465.849 150.41 466.47 150.203 467.194C150.1 467.504 149.893 467.711 149.79 468.022C148.238 468.849 147.203 468.539 146.272 468.022C145.341 468.746 145.445 469.159 145.755 469.677C146.376 470.711 145.652 471.849 143.893 472.366C143.479 472.47 143.066 472.366 142.755 472.159C142.341 471.953 142.031 471.642 141.617 471.435C141.514 471.539 141.41 471.539 141.203 471.642C141.203 472.263 141.307 472.78 141.307 473.401C141.203 473.401 141.203 473.504 141.1 473.504C140.376 472.366 139.652 471.228 138.928 469.884C139.341 469.987 139.548 470.09 140.066 470.194C140.066 469.573 140.169 469.159 140.066 468.849C137.79 465.022 135.514 461.298 133.135 457.573C133.031 457.367 132.824 457.263 132.411 457.263C132.514 457.78 132.617 458.401 132.721 458.918C132.617 458.918 132.514 459.022 132.514 459.022C132.411 458.918 132.204 458.815 132.1 458.711C131.169 457.677 130.238 456.642 129.411 455.608C129.1 455.194 128.687 455.298 128.066 455.918C126.721 457.263 125.376 458.815 123.825 459.642C122.169 460.47 121.549 461.815 119.894 462.642C117.514 463.78 117.204 464.815 118.135 466.263C118.859 467.401 119.583 468.435 120.204 469.573C120.618 470.401 120.825 471.332 121.238 472.263C121.342 472.573 121.549 472.987 121.859 473.194C122.687 473.711 122.79 474.642 123.307 475.159C124.135 475.987 123.721 477.642 125.48 477.746C125.583 477.746 125.687 477.849 125.687 477.952C126.1 480.021 127.962 481.056 128.79 482.814C129.1 483.539 129.928 484.159 130.549 484.78C130.962 485.194 131.273 485.401 130.859 486.228C130.652 486.642 130.755 487.159 131.066 487.366C131.48 487.78 131.273 488.297 130.755 488.814C130.031 489.538 129.618 489.228 129.1 489.125C128.583 489.021 127.962 489.021 127.342 489.021C127.238 489.125 127.135 489.228 127.031 489.332C127.342 489.849 127.652 490.366 127.962 490.78C127.859 490.883 127.756 490.883 127.652 490.987C127.342 490.987 127.135 490.987 126.824 490.883C126.721 490.987 126.618 491.09 126.411 491.09C126.618 491.711 126.825 492.332 127.031 492.849C126.928 492.952 126.824 492.952 126.824 493.056C125.583 492.125 124.342 491.194 123.204 490.263C120.204 487.573 117.307 484.883 114.411 482.09C113.583 481.366 112.963 480.539 112.135 479.814C111.514 479.194 110.273 479.401 109.135 480.332C108.411 480.952 107.79 481.677 107.066 482.297C106.239 483.125 105.928 483.952 106.239 484.676C106.446 485.09 106.342 485.711 106.342 486.228C106.342 486.332 106.239 486.435 106.342 486.435C107.997 486.642 106.756 488.504 108.204 489.021C109.239 489.435 109.652 490.573 110.273 491.504C111.825 493.676 113.377 495.849 114.825 498.021C114.928 498.125 114.928 498.228 114.928 498.331C114.411 498.745 113.894 499.056 113.377 499.366C113.687 499.78 113.894 499.987 114.101 500.297C112.135 500.814 111.721 500.607 111.514 498.642C110.894 498.849 110.377 499.159 109.756 499.366C109.756 499.469 109.756 499.573 109.756 499.676C110.066 499.676 110.273 499.573 110.48 499.573C110.687 499.987 110.997 500.4 110.997 500.814C110.997 501.228 110.997 501.745 110.687 502.262C110.273 502.883 109.652 502.78 109.135 502.676C108.825 502.573 108.308 502.676 107.997 502.883C107.17 503.193 106.859 502.883 106.963 502.469C107.584 500.814 106.032 500.607 105.308 499.78C104.17 498.538 102.722 497.607 101.377 496.469C100.653 495.952 100.032 495.332 99.2044 494.814C98.9975 494.711 98.6872 494.607 98.3769 494.504C97.7562 494.4 97.1355 494.297 96.5148 494.09C95.4804 493.676 94.9631 493.883 94.0321 495.021C92.8942 496.469 91.7563 497.814 90.6184 499.262C90.515 499.366 90.515 499.366 90.4115 499.469C87.9288 501.849 87.9288 501.849 89.5839 503.4C90.7218 504.435 91.6529 505.573 92.7908 506.504C93.8252 507.435 95.0666 508.366 96.2045 509.297C97.3424 510.124 98.6872 510.642 99.7217 511.573C100.549 512.297 101.48 512.917 102.411 513.642C102.825 513.952 102.515 514.986 102.308 515.814C102.204 516.021 101.377 516.435 100.756 516.642C99.4113 517.055 99.101 516.745 99.4113 515.4C98.0665 516.228 97.9631 515.607 97.5493 514.986C97.2389 514.366 96.5148 514.055 95.8941 513.538C95.5838 513.331 95.0666 513.124 94.7562 512.917C92.0666 510.642 89.4805 508.366 86.8943 506.193C85.653 505.159 85.5495 505.159 83.9979 506.918C83.3772 507.538 82.7565 508.159 82.86 508.883C82.9634 509.297 82.1358 510.021 81.6186 510.849C80.9979 509.918 79.6531 509.918 80.2738 508.573C80.2738 508.469 80.2738 508.469 80.2738 508.366C78.5152 507.538 79.4462 505.676 80.4807 504.124C82.0324 501.849 80.9979 500.814 79.7566 499.78C77.5842 498.125 75.6187 496.263 73.4464 494.607C70.6533 492.332 67.8603 490.263 65.1707 487.883C63.7224 487.159 61.9639 486.332 61.9639 484.263ZM122.687 486.332C122.79 486.228 122.894 486.228 122.997 486.125C122.894 485.918 122.894 485.608 122.687 485.401C121.859 484.056 121.135 482.711 120.307 481.366C117.928 477.332 115.445 473.401 113.066 469.366C112.549 468.539 112.342 468.642 111.308 469.677C110.997 469.987 110.687 470.297 110.377 470.504C109.549 471.125 108.928 471.642 108.618 472.573C108.204 473.608 108.618 473.918 109.239 474.228C109.756 474.539 110.273 475.056 110.687 475.47C111.514 476.401 112.239 477.332 113.17 478.159C114.825 479.711 116.583 481.159 118.238 482.608C119.687 483.745 121.135 484.987 122.687 486.332ZM145.962 426.85C145.859 427.367 145.755 427.677 145.755 427.884C145.859 428.815 146.065 429.643 146.272 430.574C146.996 434.298 147.721 437.919 148.445 441.643C148.652 442.574 148.962 442.677 150.203 441.849C151.652 440.918 152.996 439.987 154.445 439.056C155.686 438.229 155.893 437.712 155.169 436.987C154.548 436.263 153.824 435.643 153.307 434.815C151.548 432.125 149.686 429.539 146.996 427.574C146.686 427.367 146.479 427.16 145.962 426.85ZM105.101 475.159C104.997 474.952 105.101 474.435 104.791 474.125C102.204 471.642 99.6182 469.159 96.3079 467.194C96.101 467.091 95.7907 467.091 95.3769 466.987C95.3769 467.401 95.3769 467.608 95.4804 467.815C95.8942 468.539 96.4114 469.366 96.9286 470.09C98.6872 472.78 100.549 475.47 102.308 478.159C102.722 478.677 103.239 479.09 103.756 479.504C104.584 478.677 105.618 477.849 106.342 477.021C106.653 476.608 106.756 475.883 106.549 475.573C106.446 475.366 105.722 475.366 105.101 475.159ZM143.79 443.091C143.583 443.194 143.376 443.298 143.169 443.401C143.272 443.815 143.479 444.229 143.583 444.643C143.583 444.643 143.893 444.436 144.1 444.436C143.997 443.918 143.893 443.505 143.79 443.091Z" fill="#F8F1F0"/>
<path d="M172.961 440.194C173.064 440.504 173.064 440.815 173.167 441.125C173.064 441.125 172.961 441.229 172.961 441.229C169.754 436.16 166.444 430.987 163.133 425.918C162.926 425.505 162.409 425.298 161.995 424.987C161.375 425.608 160.754 426.332 160.133 426.953C159.926 427.16 159.926 427.677 159.72 427.78C159.306 427.987 158.478 428.298 158.375 428.194C158.064 427.781 157.857 427.16 157.754 426.643C157.651 426.436 157.961 426.125 157.858 425.918C156.513 424.781 157.754 423.022 158.892 421.47C159.616 420.436 159.616 419.712 159.202 418.988C157.03 415.677 154.858 412.367 152.685 409.057C150.823 406.16 148.961 403.264 147.203 400.367C146.789 399.746 146.685 398.919 146.375 398.195C147.203 397.884 148.237 398.505 148.547 397.057C149.582 398.402 150.823 399.746 151.754 401.195C154.754 405.85 157.651 410.608 160.547 415.367C160.651 415.574 160.754 415.677 160.857 415.884C161.168 416.401 161.788 416.401 162.409 415.677C163.444 414.643 164.271 413.608 165.202 412.574C165.409 412.367 165.719 412.057 165.926 411.85C167.478 410.712 168.099 409.677 167.478 408.539C167.064 407.712 166.444 406.988 165.926 406.264C163.547 402.022 161.064 397.781 158.789 393.436C158.271 392.402 158.064 391.057 158.582 389.195C159.099 389.505 159.409 389.712 159.616 390.022C161.375 393.126 163.237 396.126 164.995 399.229C166.237 401.298 167.375 403.47 168.719 405.539C170.374 408.229 172.03 410.815 173.788 413.505C174.616 414.85 175.547 416.194 176.374 417.539C177.202 418.884 177.926 420.229 178.857 421.574C179.891 422.918 181.029 424.16 182.167 425.401C182.685 426.022 183.409 426.539 182.788 427.677C182.685 427.884 182.891 428.091 182.891 428.401C182.891 428.918 182.891 429.332 182.891 429.849C182.788 429.953 182.581 430.056 182.478 430.16C182.167 429.953 181.753 429.849 181.443 429.643C181.236 429.539 181.029 429.539 180.822 429.436C180.616 429.643 180.512 429.953 180.098 430.47C179.995 429.436 179.788 428.608 179.685 427.78C179.685 427.574 179.581 427.367 179.581 427.263C177.926 424.677 176.374 422.091 174.719 419.505C174.512 419.194 173.685 419.194 173.374 418.884C172.857 418.47 172.443 418.056 172.03 417.539C171.719 417.229 171.305 417.229 170.788 417.746C169.237 419.091 167.685 420.436 166.133 421.781C165.409 422.401 165.202 423.022 165.616 423.539C167.168 425.918 168.616 428.401 170.168 430.78C171.512 432.849 172.857 434.918 174.512 436.78C175.133 437.505 175.443 438.332 175.65 439.263C175.65 439.47 175.547 439.78 175.443 440.091C175.133 440.091 174.823 440.091 174.512 440.091C174.202 440.091 173.892 439.987 173.581 439.884C173.167 439.987 173.064 440.091 172.961 440.194Z" fill="#F8F1F0"/>
<path d="M197.478 406.884C196.753 406.574 196.029 406.16 195.305 405.85C195.202 405.953 195.098 406.057 194.995 406.16C195.305 406.471 195.512 406.677 195.822 406.988C194.788 407.195 194.271 406.884 193.133 406.471C191.167 405.643 190.443 403.884 188.788 402.747C187.34 401.815 186.099 400.678 184.754 399.747C184.133 399.229 183.202 399.54 182.374 400.264C181.443 400.988 180.512 401.815 179.685 402.643C178.961 403.264 178.754 403.884 179.064 404.505C179.168 404.712 178.961 405.126 178.961 405.643C178.961 405.643 179.478 405.746 179.375 405.85C178.444 407.712 180.926 407.505 181.133 408.746C181.34 409.988 182.168 411.022 182.788 412.057C182.995 412.471 183.202 412.988 183.409 413.195C182.995 413.919 182.685 414.333 182.271 414.85C181.961 415.264 181.443 415.884 181.34 415.884C180.823 415.884 179.995 415.781 179.892 415.47C179.478 414.436 178.961 413.298 179.271 412.057C179.478 410.712 178.961 409.884 178.547 408.85C178.133 407.815 177.616 406.988 176.995 406.057C176.892 405.953 176.168 406.057 175.961 406.16C175.237 406.781 174.513 407.402 173.788 408.022C173.582 408.229 173.064 408.436 172.857 408.436C172.651 408.436 172.547 408.022 172.651 407.815C172.961 406.884 173.375 406.057 173.788 405.126C174.099 404.505 174.409 403.988 174.719 403.367C174.719 403.367 174.926 403.367 175.133 403.264C174.823 402.747 174.513 402.333 174.306 401.815C174.202 401.815 174.202 401.919 174.099 401.919C174.202 402.126 174.202 402.436 174.306 402.643C174.202 402.746 174.099 402.747 173.995 402.85C173.375 401.815 172.651 400.678 172.03 399.643C170.685 397.574 169.237 395.609 167.892 393.436C167.064 392.091 166.34 390.54 165.513 389.091C164.996 388.16 164.582 387.126 164.168 386.195C164.271 386.195 164.375 386.092 164.582 386.092C164.892 385.471 165.306 384.85 165.616 384.126C165.72 384.126 165.927 384.229 166.34 384.333C166.34 384.023 166.34 383.712 166.34 383.505C166.961 383.712 166.754 384.747 168.099 384.126C168.202 384.023 168.513 384.229 168.616 384.333C173.064 387.436 177.512 390.643 181.961 393.85C183.409 394.885 184.65 396.229 186.202 397.367C188.271 398.919 190.547 400.367 192.719 401.919C193.96 402.746 195.305 403.471 196.443 404.402C197.167 405.022 197.478 406.057 197.995 406.884C197.581 406.781 197.478 406.884 197.478 406.884ZM173.685 392.091C173.582 392.195 173.478 392.195 173.375 392.298C173.375 392.505 173.375 392.712 173.375 392.816C174.409 394.781 175.34 396.747 176.375 398.816C177.513 400.988 177.616 400.988 180.409 398.298C181.237 397.471 181.34 397.057 180.719 396.54C179.478 395.609 178.444 394.678 177.099 393.85C176.064 393.126 174.823 392.609 173.685 392.091Z" fill="#F8F1F0"/>
<path d="M28.4476 204.646C24.9305 207.542 21.4133 210.439 17.8961 213.335V216.232C18.3099 216.232 18.8272 216.232 19.3444 216.335C19.4478 216.025 19.4478 215.818 19.5513 215.611C20.3788 212.715 21.7236 212.301 22.965 211.266C25.2408 209.404 27.6201 207.129 29.9993 205.06C29.4821 204.853 28.9649 204.749 28.4476 204.646ZM17.3789 336.747V337.265C18.2065 334.782 18.9306 332.196 19.5513 329.713C20.2754 326.61 22.1374 322.782 22.3443 319.886C20.8961 325.679 19.1375 331.265 17.3789 336.747ZM21.6202 316.989C21.6202 316.989 21.6202 316.886 21.6202 316.989C21.5167 317.403 21.5167 317.817 21.4133 318.334C21.6202 318.024 21.8271 317.713 21.9305 317.403C21.8271 317.196 21.7236 317.093 21.6202 316.989ZM22.034 313.886C21.8271 314.61 21.7236 315.334 21.6202 316.368C21.8271 315.541 22.2409 314.093 22.4478 313.162C23.3788 310.058 24.3098 307.058 25.2408 303.748C24.2063 307.162 23.1719 310.472 22.034 313.886ZM25.3442 320.196C23.7926 324.644 22.3443 329.092 20.6892 333.437C20.2754 334.679 19.7582 335.816 19.2409 337.058C18.7237 338.506 18.4134 339.954 18.3099 341.713C18.5168 341.403 18.7237 341.092 19.034 340.782C21.4133 334.058 23.7926 327.23 26.1718 320.506C25.8615 320.506 25.6546 320.299 25.3442 320.196ZM24.9305 294.231C25.4477 294.334 25.9649 294.231 26.4822 294.024C26.4822 292.265 26.4822 291.024 26.5856 289.886C25.5511 290.817 25.1374 292.369 24.9305 294.231ZM34.4475 190.06C32.482 186.129 29.9993 183.336 27.1028 182.198C26.9994 182.198 26.9994 182.198 26.8959 182.198C27.827 182.922 28.758 183.646 29.5855 184.577C31.4476 186.75 33.2061 189.439 34.4475 192.75C35.0682 194.301 35.7923 194.818 36.7233 194.612C35.8957 193.163 35.1716 191.508 34.4475 190.06ZM47.1714 253.68C46.861 255.438 46.3438 257.197 45.6197 258.852C42.3094 265.99 39.1026 273.128 35.7923 280.266C34.7578 282.438 33.3096 285.955 32.5855 285.955C30.8269 286.059 29.7924 289.576 28.4476 291.438C28.0338 291.955 27.7235 292.679 27.3097 293.507C29.9993 291.645 32.6889 286.679 35.0682 282.541C38.9991 275.817 42.4128 267.852 45.8266 260.3C46.6541 258.438 47.4817 254.714 47.1714 253.68ZM59.4814 170.302C58.7573 170.819 58.1366 171.026 58.1366 172.267C59.378 171.026 60.7228 169.681 61.9641 168.44C61.1366 169.06 60.309 169.681 59.4814 170.302ZM67.7571 161.922C67.3433 161.612 67.033 160.888 66.7227 160.371C66.6192 160.681 66.5158 160.991 66.4123 161.302C66.5158 161.922 66.7226 162.44 66.9295 163.267C67.6537 163.164 68.3778 163.06 69.1019 162.957C68.5847 162.853 68.1709 162.233 67.7571 161.922ZM82.2396 149.612C81.9292 150.44 81.5154 151.267 81.1016 151.681C77.3776 155.509 73.5501 159.336 69.826 162.853C70.3433 162.75 70.757 162.543 71.2743 162.233C73.6535 160.681 76.2397 158.509 78.7224 155.819C80.0672 154.371 81.8258 151.371 82.5499 148.991C82.6533 148.785 82.6533 148.474 82.6533 148.267C82.5499 148.785 82.4464 149.198 82.2396 149.612ZM85.5498 140.095C83.8947 138.44 82.0327 141.75 80.2741 144.957C80.6879 144.75 81.1016 144.647 81.6189 144.44C81.6189 144.336 81.5154 144.233 81.5154 144.129C83.0671 141.957 84.8257 139.888 85.8602 140.716C85.7567 140.509 85.6533 140.199 85.5498 140.095ZM86.6877 144.44C86.6877 144.543 86.6877 144.647 86.5843 144.854L86.6877 144.75C86.6877 144.647 86.6877 144.543 86.6877 144.44ZM91.5497 156.129C92.2738 157.371 92.8945 158.819 93.6186 160.164C93.6186 160.164 93.6186 160.164 93.6186 160.06C93.3083 157.784 92.4807 156.75 91.5497 156.129ZM94.6531 161.819C94.86 162.129 95.0669 162.44 95.2738 162.853C95.3772 162.646 95.4806 162.543 95.5841 162.336V161.405C95.1703 161.509 94.9634 161.715 94.6531 161.819ZM134.273 168.44C133.549 167.819 132.721 167.302 131.997 166.577C132.204 165.75 132.514 164.715 132.825 163.784C132.721 163.578 132.618 163.267 132.514 163.06C131.997 163.991 131.48 164.819 131.066 165.853C130.032 168.543 128.997 170.508 127.549 170.922C127.135 171.026 126.514 172.267 125.997 173.095C125.687 173.508 125.48 174.336 125.273 174.543C124.446 175.474 123.515 175.888 122.583 177.026C119.377 180.957 116.17 184.784 113.066 189.336C111.618 191.508 110.584 192.025 109.653 190.991C109.032 190.267 108.308 189.75 107.584 189.025C107.273 188.715 106.963 188.301 106.653 187.887C106.963 187.06 107.273 185.922 107.687 185.301C110.067 181.163 112.549 177.026 114.928 173.095C118.756 166.888 122.583 160.888 126.411 154.888C128.687 151.267 130.963 147.854 133.238 144.233C133.652 143.509 133.963 142.164 134.273 141.13C133.859 140.819 133.342 140.095 132.928 140.405C131.273 141.647 129.514 142.785 127.963 145.061C124.342 150.233 120.928 155.922 117.411 161.509C114.618 165.853 114.204 165.957 112.549 162.233C112.342 161.612 111.825 161.405 111.515 161.095C110.273 159.647 109.032 158.302 107.791 156.853L107.998 155.509C110.791 150.854 113.687 146.198 116.48 141.543C119.687 136.268 123.204 132.13 125.894 124.578C125.583 124.164 125.273 123.957 125.17 123.44C124.342 120.957 123.618 121.061 121.963 123.957C117.204 132.13 112.342 140.095 107.584 148.474C104.998 153.129 102.929 154.474 101.067 151.785C99.4116 149.612 97.5496 152.819 95.1703 155.612C96.722 157.474 98.0668 159.026 99.6185 160.888C98.0668 163.474 96.722 165.646 95.4806 167.715C95.1703 168.336 94.9634 168.853 94.9634 169.06C95.1703 173.508 93.8255 177.853 92.1704 181.991C94.6531 177.543 97.2392 172.991 99.7219 168.75C102.101 164.819 102.101 165.129 103.446 168.336C103.963 169.474 104.687 170.198 105.205 171.026C106.032 172.267 106.756 173.508 107.377 174.543C104.067 184.991 99.7219 190.267 95.5841 195.439C95.5841 197.301 95.5841 198.646 95.6875 199.68C95.791 200.508 96.1013 201.542 96.4116 201.542C98.4806 201.232 100.549 200.198 102.412 194.715C102.825 193.577 103.239 192.439 103.756 191.715C104.274 190.991 105.101 190.163 105.308 190.577C106.239 192.543 106.963 194.818 107.894 197.301C105.618 199.784 104.067 202.784 102.205 201.749C100.963 201.129 98.8944 203.611 97.2392 204.853C96.722 205.267 95.791 206.715 95.791 207.232C95.791 208.68 95.9979 210.025 96.3082 211.06C96.5151 211.68 97.4461 211.37 97.4461 212.094C97.7564 215.094 98.7909 213.646 99.9288 212.508C102.929 209.301 105.825 206.094 108.825 203.094C109.342 202.577 110.17 202.267 110.377 202.784C111.411 204.853 112.446 207.129 113.273 209.715C113.48 210.439 113.273 212.922 112.86 213.646C109.756 219.956 106.963 227.508 103.032 230.715C103.549 233.508 102.515 236.818 100.963 238.473C99.7219 239.714 98.4806 241.059 97.4461 243.025C95.6875 246.232 94.0324 249.956 92.2738 253.473C88.3429 261.335 84.4119 269.3 80.481 276.955C79.7569 278.3 78.6189 279.335 77.9983 279.231C76.3431 278.921 74.688 278.3 73.2398 277.059C71.1708 275.197 68.9985 279.024 66.8261 281.714C67.7571 283.265 68.7916 284.196 69.826 285.024C71.1708 286.162 72.6191 287.196 74.2742 288.334C68.3778 300.127 62.9986 311.093 57.516 322.058C57.9297 322.575 57.9297 322.575 58.3435 322.989C58.8608 322.782 59.4814 322.575 60.1021 322.368C60.2056 323.299 60.2056 324.851 60.5159 325.782C61.3435 328.368 63.6193 326.92 65.0675 323.403C66.7227 319.162 68.3778 314.713 70.2398 310.782C72.6191 305.61 75.2052 300.748 77.7914 295.989C78.3086 295.058 79.2396 294.541 79.7568 294.955C80.7913 295.783 81.5154 297.438 82.5499 298.472C84.4119 300.541 86.3774 302.403 88.2394 304.472C89.3773 305.817 89.2739 307.989 87.9291 310.989C87.1015 312.851 86.2739 314.61 85.4464 316.472C85.4464 316.575 85.5498 316.782 85.5498 316.886L86.9981 314.817C86.5843 316.575 86.0671 318.127 85.3429 319.162C82.9637 322.782 80.5844 326.196 78.2052 329.817C77.6879 330.541 77.2741 331.782 77.1707 331.886C77.8948 334.989 78.4121 337.575 78.9293 339.541C80.3775 339.023 81.7223 338.713 83.1706 337.989C83.7912 337.679 84.7223 336.851 85.136 335.713C86.9981 331.161 87.9291 325.058 90.6187 321.955C90.6187 321.955 90.7221 321.748 90.7221 321.644C91.9635 318.024 93.3083 314.817 95.0669 312.231C96.4117 310.162 97.8599 307.575 98.9978 304.679C102.308 295.886 106.239 289.058 110.273 282.438C113.377 277.369 116.377 271.886 119.377 266.404C119.79 265.68 120.204 264.024 120.204 263.197C120.204 262.369 119.687 261.749 119.273 261.645C116.17 261.335 113.066 264.955 110.17 270.231C106.549 276.748 103.032 283.369 99.515 290.196C98.2737 292.576 97.3427 293.403 96.3082 292.472C93.6186 290.196 90.929 288.024 88.3429 285.645C87.205 284.61 86.2739 283.265 85.0326 281.817C87.7222 276.335 90.1015 271.576 92.4807 267.024C96.4117 259.576 100.756 253.473 103.756 243.542C104.687 240.438 106.239 237.852 107.48 234.956C110.273 228.646 112.963 222.232 115.86 216.025C119.066 209.094 122.273 202.37 125.48 195.439C128.376 189.232 131.17 182.715 133.963 176.405C135.411 173.302 135.618 169.474 134.273 168.44ZM121.032 195.232C119.894 197.818 118.653 200.198 117.515 202.887C116.687 204.956 116.066 205.163 115.549 204.025C114.825 202.474 114.204 200.611 113.377 198.232C116.894 194.715 119.997 191.508 122.997 188.405C123.101 188.612 123.204 188.922 123.204 189.129C122.48 191.198 121.859 193.267 121.032 195.232Z" fill="#F8F1F0"/>
<path d="M97.3422 328.782C97.4457 327.851 97.6526 326.403 97.5491 326.093C96.6181 324.127 95.5836 322.472 94.6526 320.61C94.2388 319.782 93.9285 318.748 93.5147 317.817C93.6182 317.403 93.8251 316.989 93.9285 316.575C95.1699 317.3 96.4112 317.817 97.5491 318.748C98.687 319.679 99.7215 320.92 100.549 322.575C101.48 324.334 102.618 323.093 103.859 321.334C103.652 320.817 103.549 320.299 103.446 319.679C103.756 319.368 103.963 319.162 104.17 319.058C105.825 318.437 107.376 315.644 109.032 313.472C110.48 311.506 112.032 309.644 113.48 307.576C113.997 306.851 114.411 305.817 114.618 305.61C115.652 305.3 116.48 305.3 117.204 304.576C118.342 303.645 119.48 302.403 120.514 300.851C121.135 300.024 121.755 298.369 121.962 297.127C122.066 296.403 121.445 295.576 121.031 294.748C121.962 293.093 122.893 291.541 123.514 293.714C123.721 294.334 123.514 295.783 123.514 297.541C126.1 297.438 127.755 301.989 130.135 304.162C129.928 304.989 129.514 306.024 129.514 306.334C130.341 311.093 127.859 315.851 127.031 320.506C126.1 325.472 124.652 330.334 123.307 335.196C121.445 342.334 119.48 349.575 117.411 356.713C116.066 361.368 114.514 365.816 113.273 370.575C111.825 375.85 110.583 381.333 109.239 386.712C108.825 388.471 108.618 389.505 107.48 390.23C106.445 390.954 104.79 392.712 104.17 396.436C103.963 397.678 103.342 399.023 102.928 400.264C102.825 400.16 102.618 400.16 102.515 400.057C103.342 395.919 104.273 391.781 105.101 387.643C104.997 387.643 104.79 387.54 104.687 387.54C104.17 389.919 103.756 392.195 103.239 394.574C102.721 396.85 102.101 399.023 101.584 401.298C101.377 401.195 101.273 401.195 101.066 401.091C101.584 398.298 102.204 395.505 102.515 392.816C102.721 390.54 103.963 387.333 102.618 386.195C102.515 386.092 102.721 384.85 102.825 384.126C103.135 381.85 103.549 379.575 103.963 377.092C103.239 376.988 101.894 378.023 102.618 374.402C104.48 374.609 105.825 370.782 107.066 367.885C108.514 364.161 109.756 360.023 110.997 355.885C111.307 354.851 111.411 352.989 111.204 352.471C108.825 347.506 106.549 342.541 103.859 338.299C103.239 337.265 101.377 338.816 100.135 339.954C97.5491 342.437 94.8595 345.437 92.2734 348.127C91.032 349.368 90.2045 349.058 89.3769 347.403C88.4459 345.23 86.9976 344.299 85.9632 342.334C85.3425 341.196 85.239 339.127 84.9287 337.472C85.0322 337.058 85.2391 336.644 85.3425 336.23C86.8942 335.713 88.4459 335.506 89.9976 334.679C91.2389 334.058 92.5837 332.61 93.8251 331.575C95.0664 330.644 96.2043 329.713 97.3422 328.782C95.7905 330.851 94.1354 333.023 92.5837 335.196C92.5837 335.506 92.6872 335.713 92.6872 336.023C94.963 335.299 97.1353 333.541 99.7215 328.989C98.687 328.989 97.9629 328.886 97.3422 328.782ZM118.756 323.817C115.135 327.127 111.618 330.334 108.204 333.541C108.204 333.954 108.101 334.368 108.101 334.782C109.963 338.196 111.825 341.61 113.79 345.127C116.79 336.334 118.031 331.368 118.756 323.817Z" fill="#F8F1F0"/>
<path d="M17.8963 216.232C18.3101 216.232 18.8273 216.232 19.3445 216.335C19.448 216.025 19.448 215.818 19.5514 215.611C19.0342 215.818 18.4135 216.025 17.8963 216.232ZM21.6203 316.886C21.6203 316.679 21.6203 316.575 21.6203 316.369C21.6203 316.575 21.6203 316.782 21.6203 316.886ZM24.7237 311.713C22.8617 311.92 22.9651 315.024 21.9307 317.403C22.3445 318.127 22.5513 318.955 22.4479 319.989C23.172 317.3 23.9996 314.506 24.7237 311.713ZM28.3443 294.748C26.8961 296.093 25.7582 297.334 24.3099 298.783C24.6203 297.231 24.8272 295.576 24.9306 294.231C24.9306 294.231 24.8272 294.231 24.7237 294.231C22.241 300.955 25.0341 299.403 26.5857 299.714C26.172 301.058 25.7582 302.403 25.3444 303.748C26.2754 300.851 27.3099 297.852 28.3443 294.748ZM26.4823 294.024C26.4823 294.334 26.4823 294.748 26.4823 295.162C26.7926 294.541 26.9995 294.024 27.3099 293.61C26.9995 293.714 26.7926 293.817 26.4823 294.024ZM27.4133 311.92C26.8961 312.955 26.3788 313.782 25.9651 314.92C23.3789 321.955 20.8962 329.196 18.4135 336.23C18.1032 337.058 17.7928 337.885 17.379 338.713V337.368C16.448 340.161 15.517 342.851 14.6895 345.644C14.9998 345.747 15.3101 345.954 15.6205 346.058C16.8618 343.058 17.9997 340.058 19.2411 337.058C19.7583 335.403 20.4824 333.851 21.1031 332.196C22.241 328.886 23.172 325.472 24.3099 322.162C25.4478 318.851 26.5857 315.748 27.7236 312.541C27.6202 312.438 27.5168 312.127 27.4133 311.92ZM17.8963 216.232C18.3101 216.232 18.8273 216.232 19.3445 216.335C19.448 216.025 19.448 215.818 19.5514 215.611C19.0342 215.818 18.4135 216.025 17.8963 216.232ZM17.8963 216.232C18.3101 216.232 18.8273 216.232 19.3445 216.335C19.448 216.025 19.448 215.818 19.5514 215.611C19.0342 215.818 18.4135 216.025 17.8963 216.232ZM66.9297 163.371C66.6193 163.371 66.309 163.474 65.8952 163.578C65.5849 163.991 64.447 165.853 63.3091 167.095C62.8953 167.612 62.3781 168.026 61.9643 168.44C63.6194 167.095 65.378 165.647 67.1366 164.198C67.0331 163.888 67.0331 163.578 66.9297 163.371ZM69.102 163.06C69.3089 163.164 69.6193 163.164 69.8262 162.957C69.8262 162.957 69.8262 162.957 69.9296 162.853C69.6193 162.957 69.3089 163.06 69.102 163.06ZM81.619 144.44C82.0328 145.888 82.7569 147.13 82.7569 148.371C83.2741 146.923 83.7914 145.267 84.5155 143.302C83.5845 143.612 82.55 144.026 81.619 144.44ZM86.6879 142.785C86.481 141.647 86.2741 141.026 85.8603 140.716C86.1706 141.647 86.3775 143.199 86.5844 144.44C86.6879 143.819 86.7913 143.199 86.6879 142.785ZM88.7568 151.992C88.7568 152.095 88.7568 152.198 88.7568 152.302C88.9637 154.681 89.5843 154.888 90.4119 155.405C90.8257 155.612 91.136 155.819 91.5498 156.129C90.7223 154.474 89.7912 153.026 88.7568 151.992Z" fill="#F8F1F0"/>
<path d="M95.1704 162.853C94.9636 162.543 94.7567 162.233 94.5498 161.819C94.2394 161.302 93.9291 160.681 93.6188 160.06C92.8946 158.715 92.1705 157.371 91.5498 156.026C91.1361 155.715 90.8257 155.509 90.4119 155.302C89.5844 154.784 88.8602 154.474 88.7568 152.198C88.7568 152.095 88.7568 151.991 88.7568 151.888C88.343 147.957 87.5154 147.543 86.0672 150.336C85.9638 150.336 85.7569 150.336 85.6534 150.233C85.9638 148.06 86.3775 146.198 86.5844 144.75C86.5844 144.647 86.5844 144.44 86.6879 144.336C86.481 143.095 86.2741 141.543 85.9638 140.612C84.9293 139.785 83.1707 141.854 81.619 144.026C81.619 144.129 81.619 144.233 81.7225 144.336C82.7569 143.923 83.6879 143.509 84.619 143.198C83.8948 145.164 83.3776 146.716 82.8604 148.267C82.8604 148.474 82.8604 148.785 82.7569 148.991C82.0328 151.371 80.2742 154.371 78.9294 155.819C76.4467 158.509 73.8606 160.681 71.4813 162.233C70.9641 162.543 70.4469 162.75 70.0331 162.853C70.0331 162.853 70.0331 162.957 69.9296 162.957C69.7227 163.164 69.4124 163.164 69.2055 163.06C68.4814 163.164 67.8607 163.267 67.0331 163.371C67.1366 163.681 67.1366 163.888 67.24 164.198C65.378 165.646 63.7229 167.095 62.0677 168.439C60.8264 169.784 59.4816 171.026 58.2402 172.267C56.5851 173.922 54.93 175.577 53.1714 177.336C49.5508 181.06 45.7233 186.129 42.3095 186.853C41.8958 186.956 41.482 187.37 40.7579 187.784C40.9647 189.025 41.0682 189.956 41.2751 191.094C39.5165 192.853 38.0683 194.405 36.8269 194.611C35.8959 194.818 35.0683 194.301 34.5511 192.749C33.3097 189.439 31.5512 186.75 29.6891 184.577C28.8616 183.646 27.9306 182.819 26.9995 182.198C25.7582 181.163 24.4134 180.336 23.172 179.405C22.7583 180.232 22.4479 180.957 22.0341 181.784C22.4479 183.75 22.8617 185.819 23.3789 187.474C24.7237 191.405 26.2754 194.818 27.5168 198.956C27.7237 199.784 26.8961 202.267 26.4823 204.129C23.9996 205.68 21.5169 207.129 19.1376 208.68C16.3446 210.439 13.4481 212.818 10.862 213.749C7.5517 214.99 4.55176 214.991 1.44838 215.611C1.0346 216.335 0.620815 217.059 0.207031 217.887C0.413923 221.197 0.207031 225.232 1.0346 227.508C2.48284 231.645 5.06899 233.921 6.41379 238.369C7.44825 241.887 8.99994 242.714 11.793 240.542C13.9653 238.887 16.0343 237.128 18.2066 235.37V237.749C18.4135 237.335 18.7239 236.921 18.9308 236.714C22.5514 233.611 26.172 230.508 29.7926 227.611C31.5512 226.163 33.4132 225.542 35.1718 223.68L35.2752 223.577C36.1028 223.473 36.62 223.68 37.0338 224.404C41.0682 233.197 44.1716 243.645 47.4818 253.783C47.7922 254.818 47.0681 258.542 46.2405 260.404C42.8268 268.059 39.3096 275.921 35.4821 282.645C33.1029 286.783 30.4133 291.748 27.7237 293.61C27.5168 294.024 27.2064 294.541 26.8961 295.162C26.8961 294.748 26.8961 294.334 26.8961 294.024C26.3789 294.231 25.8616 294.334 25.3444 294.231C25.1375 295.679 25.0341 297.231 24.7237 298.782C26.172 297.334 27.4133 296.196 28.7581 294.748C27.7237 297.851 26.7926 300.851 25.7582 303.644C24.7237 306.851 23.7927 309.955 22.9651 313.058C22.6548 313.989 22.241 315.437 22.1376 316.265C22.1376 316.265 22.1376 316.265 22.1376 316.368C22.1376 316.575 22.1376 316.679 22.1376 316.886V316.989C22.241 317.093 22.3445 317.299 22.4479 317.403C23.3789 315.127 23.3789 311.92 25.241 311.713C24.5168 314.506 23.7927 317.299 22.9651 319.989C22.7583 322.886 20.8962 326.713 20.1721 329.816C19.5514 332.299 18.7239 334.782 17.9997 337.368V338.713C18.3101 337.885 18.7239 337.058 19.0342 336.23C21.6203 329.196 24.1031 322.058 26.5858 314.92C26.9995 313.782 27.5168 312.955 28.034 311.92C28.1374 312.127 28.2409 312.334 28.3443 312.644C27.2064 315.851 25.9651 318.955 24.9306 322.265C23.7927 325.575 22.8617 328.989 21.7238 332.299C21.2066 333.954 20.4824 335.506 19.8618 337.161C20.379 335.92 20.7928 334.782 21.31 333.541C22.9651 329.196 24.4134 324.748 25.9651 320.299C26.172 320.403 26.4823 320.506 26.6892 320.61C24.3099 327.334 21.9307 334.058 19.5514 340.885C19.1376 341.92 18.8273 342.954 18.4135 344.092C18.6204 344.196 18.9308 344.402 19.1376 344.506C20.2756 342.127 21.7238 339.851 22.5514 337.472C24.8272 330.437 28.5512 327.541 30.7236 326.299C33.1029 325.058 33.827 323.196 35.0683 319.886C38.9993 309.748 42.9302 299.507 47.1715 289.679C50.8956 280.886 55.0334 272.61 58.8609 263.921C64.6539 250.576 70.24 237.128 75.9295 223.68C79.757 214.473 83.8948 205.37 86.9982 195.956C88.5499 191.301 91.0326 186.646 92.8946 181.991C94.5498 177.75 95.8946 173.508 95.6877 169.06C95.6877 168.75 95.8946 168.336 96.2049 167.715C96.6187 166.888 97.0325 165.957 97.4463 165.129C96.2049 164.302 95.6877 163.577 95.1704 162.853ZM15.3101 216.956C15.3101 216.439 15.3101 215.922 15.3101 215.404C18.9308 211.68 22.6548 207.853 26.2754 204.129C26.9995 204.335 27.7237 204.439 28.4478 204.646C28.965 204.749 29.3788 204.853 29.9995 204.956C30.2064 205.06 30.5167 205.06 30.7236 205.163C26.4823 210.853 22.8617 213.956 19.5514 215.611C19.448 215.818 19.448 216.128 19.3445 216.335C18.8273 216.335 18.3101 216.335 17.8963 216.232C17.0687 216.542 16.1377 216.853 15.3101 216.956ZM67.6538 202.267C66.9297 204.853 66.2056 207.542 65.4814 210.128C65.0677 211.473 64.6539 212.922 64.1366 214.059C61.8608 219.128 59.585 223.99 57.3092 229.059C56.4816 231.025 55.7575 233.404 55.0334 235.576C54.1024 238.266 53.2748 238.473 52.7576 236.818C50.5852 230.921 48.5163 225.025 46.4474 219.025C46.2405 218.508 46.137 217.99 46.0336 217.577C46.137 217.163 46.2405 216.749 46.3439 216.335C53.4817 211.37 60.6195 206.404 68.0676 201.232C67.8607 201.439 67.7573 201.853 67.6538 202.267Z" fill="#F8F1F0"/>
<path d="M290.269 305.61C290.062 312.437 288.097 314.403 286.648 316.885C286.545 316.989 286.441 317.196 286.338 317.299C286.028 317.817 285.821 318.541 285.717 319.265C285.304 322.161 286.235 326.403 286.338 330.851L286.235 343.264L286.441 343.782C286.441 352.264 286.235 343.058 284.579 348.54C283.959 350.506 282.511 352.368 281.89 354.437C281.476 355.885 281.993 358.057 281.683 360.333C281.683 360.85 281.58 366.126 281.683 366.126C281.58 366.126 279.614 366.437 279.614 366.437L278.373 367.368L274.338 366.747L269.373 355.368H269.063L263.994 356.299L264.511 355.057L264.614 354.126V342.954L264.511 341.92L264.201 341.713C264.304 340.885 263.683 336.54 263.58 335.299V335.196C267.718 332.196 275.166 322.989 276.718 318.851C276.614 318.851 276.511 318.748 276.511 318.748C274.028 322.161 271.545 325.161 268.545 327.644C269.373 325.782 270.2 324.127 270.097 322.782C268.649 324.437 267.201 325.885 265.752 327.437C265.649 327.334 265.649 327.334 265.545 327.23C266.994 325.265 266.787 324.023 266.994 322.575C265.649 323.61 264.407 324.437 262.959 325.472V325.368C262.442 324.334 261.925 323.506 261.511 322.161C261.408 321.747 261.201 321.334 261.097 320.816C260.89 320.299 260.787 319.575 260.683 318.851C260.58 318.437 260.477 317.92 260.477 317.403C260.477 317.196 260.477 316.989 260.373 316.885C260.373 316.679 260.27 316.368 260.27 316.058C260.166 314.817 260.166 313.368 260.166 311.817C260.166 311.506 260.166 311.092 260.166 310.782C260.166 309.23 260.27 307.679 260.373 306.127C260.477 304.989 260.994 303.644 261.511 302.093C262.649 299.196 263.89 295.886 262.649 292.989C262.545 292.782 262.442 292.575 262.339 292.369L260.58 292.265L260.373 286.265L260.27 281.093C259.546 267.128 255.718 272.507 257.373 268.369C258.511 265.472 259.028 258.748 260.27 256.369C261.097 254.817 264.304 243.955 264.304 243.955C263.27 241.783 266.683 234.128 268.132 230.921C269.063 228.852 269.373 226.99 273.097 230.507C274.235 231.645 274.442 229.473 275.58 229.576C276.2 229.576 277.442 227.921 277.442 230.507C277.442 236.507 278.269 238.99 279.717 241.266C280.959 243.231 281.58 240.852 281.993 246.955C282.304 251.197 281.993 251.921 283.338 252.748C284.476 253.473 285.924 251.404 286.441 256.679C286.648 258.645 286.441 263.197 286.338 268.369C286.028 277.576 285.614 288.438 287.062 289.369L289.855 292.265C290.166 296.817 290.372 300.955 290.269 305.61Z" fill="#F8F1F0"/>
<path d="M261.097 315.748C260.89 316.162 260.683 316.575 260.58 316.886C260.58 316.679 260.477 316.368 260.477 316.058C260.683 316.058 260.89 315.851 261.097 315.748Z" fill="#22222E"/>
<path d="M262.752 308.3C262.028 309.541 261.201 310.679 260.477 311.92C260.477 311.61 260.477 311.196 260.477 310.886C261.304 309.851 262.028 308.92 262.752 308.3Z" fill="#22222E"/>
<path d="M262.545 317.61C262.131 318.748 261.717 319.886 261.407 320.92C261.2 320.403 261.097 319.679 260.993 318.955C261.407 318.541 261.924 318.024 262.545 317.61Z" fill="#22222E"/>
<path d="M263.166 325.472C262.649 324.437 262.132 323.61 261.718 322.265C262.752 321.644 263.787 321.023 264.925 320.299C264.304 322.058 263.787 323.713 263.166 325.472Z" fill="#22222E"/>
<path d="M277.132 318.023C277.028 318.23 277.028 318.541 276.925 318.748C276.821 318.748 276.718 318.644 276.718 318.644C276.821 318.437 276.925 318.23 277.132 318.023Z" fill="white"/>
<path d="M286.545 316.782C286.441 316.886 286.338 317.092 286.234 317.196C285.924 317.713 285.717 318.437 285.614 319.161C283.234 319.886 280.959 320.196 278.476 319.472C277.855 319.265 277.338 319.058 276.821 318.748C276.717 318.748 276.614 318.644 276.614 318.644C274.545 317.299 273.304 314.817 273.2 311.92C274.338 312.334 275.269 312.644 276.304 313.058C275.89 315.024 276.097 315.748 277.131 316.161C278.269 316.679 279.2 316.265 280.648 314.61C282.614 315.334 284.476 316.058 286.545 316.782Z" fill="#22222E"/>
<path d="M269.166 307.368C265.752 307.368 262.856 305.092 261.821 302.092C262.959 299.196 264.201 295.886 262.959 292.989C263.27 292.368 263.58 291.851 263.89 291.334C264.821 294.23 265.752 297.127 266.787 300.024C265.132 301.161 264.614 302.299 265.028 303.437C265.442 304.472 266.269 304.679 268.131 304.265C268.442 305.299 268.752 306.334 269.166 307.368Z" fill="#22222E"/>
<path d="M173.685 260.3V265.162L174.409 264.748L173.685 260.3ZM173.685 260.3V265.162L174.409 264.748L173.685 260.3ZM173.685 260.3V265.162L174.409 264.748L173.685 260.3ZM188.168 250.369V260.3L190.857 256.99V246.024L188.168 250.369ZM173.685 260.3V265.162L174.409 264.748L173.685 260.3ZM173.685 260.3V265.162L174.409 264.748L173.685 260.3ZM163.858 285.23L164.685 289.161V283.886L163.858 285.23ZM163.858 285.23L164.685 289.161V283.886L163.858 285.23ZM173.685 260.3V265.162L174.409 264.748L173.685 260.3ZM163.858 285.23L164.685 289.161V283.886L163.858 285.23ZM187.237 270.024V278.196L190.133 278.817L189.202 282.437L188.064 287.299V288.541L189.099 292.161L188.478 299.61L188.064 296.713V337.057L175.444 340.678V283.368L173.685 280.886V340.988L163.754 343.988V291.644L162.823 286.989V354.436L190.754 344.816V268.369L187.237 270.024ZM164.685 283.886L163.858 285.23L164.685 289.161V283.886ZM173.685 260.3V265.162L174.409 264.748L173.685 260.3ZM173.685 265.162L174.409 264.748L173.685 260.3V265.162ZM173.685 260.3V265.162L174.409 264.748L173.685 260.3ZM163.858 285.23L164.685 289.161V283.886L163.858 285.23ZM163.858 285.23L164.685 289.161V283.886L163.858 285.23ZM163.858 285.23L164.685 289.161V283.886L163.858 285.23ZM173.685 260.3V265.162L174.409 264.748L173.685 260.3ZM173.685 260.3V265.162L174.409 264.748L173.685 260.3ZM188.168 261.748V268.679L190.857 267.748V260.403L188.168 261.748ZM173.685 260.3V265.162L174.409 264.748L173.685 260.3ZM173.685 260.3V265.162L174.409 264.748L173.685 260.3ZM178.961 219.335L175.547 217.473V241.266V263.196V274.369L173.789 273.438V267.748L174.926 269.817L174.72 264.748V253.369L173.789 254.817V217.059L163.858 211.68V280.058L162.927 281.92V206.714L190.857 222.231V240.541L188.168 246.438V224.3L179.168 219.438L178.961 219.335Z" fill="#D7A9A7"/>
<path d="M162.926 133.888V205.473L177.201 213.645L190.856 221.3V173.922C190.856 162.439 180.822 142.371 162.926 133.888ZM173.684 207.025L163.753 201.646L163.236 138.75C166.65 140.819 170.788 143.819 173.581 146.922V207.025H173.684ZM188.167 215.507L175.546 208.059V148.06C178.029 150.336 188.167 162.853 188.167 176.301V215.507Z" fill="#D7A9A7"/>
<path d="M169.755 237.956L168.307 243.955L171.927 260.61L169.755 237.956Z" fill="#D7A9A7"/>
<path d="M190.858 240.335V246.128L188.168 250.473L185.996 253.783L186.72 259.369L184.341 262.886L185.892 254.093L181.03 261.852L188.168 246.335L190.858 240.335Z" fill="#D7A9A7"/>
<path d="M190.857 267.645V268.369L188.064 270.024L180.823 274.266L185.271 274.99L183.719 277.473L179.581 274.059L180.719 274.266L179.374 271.576L179.581 271.473L178.03 270.542L177.616 271.783L176.995 268.576L178.547 268.783L178.34 269.507L179.478 268.783L179.167 267.231L178.236 267.128L178.857 266.3L178.03 262.887L179.995 262.162V265.266L183.202 261.852L181.443 267.645L180.926 267.438V268.68L182.892 267.542L182.581 270.542L188.374 268.576L190.857 267.645Z" fill="#D7A9A7"/>
<path d="M178.237 262.99L181.237 249.025L179.065 246.852L178.237 262.99Z" fill="#D7A9A7"/>
<path d="M181.444 293.196L178.237 275.61L178.651 274.679L176.789 272.921L176.995 278.3L177.72 276.645L176.064 286.679L181.444 293.196Z" fill="#D7A9A7"/>
<path d="M167.996 285.748L165.823 286.472L166.651 293.714L167.996 285.748Z" fill="#D7A9A7"/>
<path d="M165.41 267.128L170.065 261.541L164.686 256.99L165.41 267.128Z" fill="#D7A9A7"/>
<path d="M170.065 261.542L167.996 264.438L173.272 267.335L173.065 265.679L172.651 261.852L171.72 263.921L170.065 261.542Z" fill="#D7A9A7"/>
<path d="M174.616 273.438V280.679L174.306 280.162L172.34 288.541L170.789 282.024L173.375 278.507L173.064 277.989L170.996 279.541L171.927 275.921L170.892 273.955L164.582 283.886L163.754 285.231L164.582 289.369L165.927 295.782L164.582 291.851L162.927 286.989V281.92L164.478 280.058L170.168 273.645L168.72 271.162L168.203 273.438L165.203 275.921L167.478 268.99L167.996 268.472L169.754 266.921L169.134 269.61L169.961 270.541L171.823 271.783L173.168 270.334L172.03 271.99L172.651 272.403L173.685 268.576V273.127L174.616 273.438Z" fill="#D7A9A7"/>
<path d="M173.685 265.162V267.748L172.857 265.679L173.685 265.162Z" fill="#D7A9A7"/>
<path d="M190.857 256.886V260.3L188.167 261.748L185.788 262.99L188.167 260.093L190.857 256.886Z" fill="#D7A9A7"/>
<path d="M188.167 287.196L187.96 287.817L188.167 288.438L189.202 292.058L188.581 299.506L188.167 296.61L187.236 290.713L185.684 296.61L186.719 287.196L185.478 279.231L187.029 284.507L187.65 277.99L188.167 278.093L190.34 278.714L189.408 282.334L188.167 287.196Z" fill="#D7A9A7"/>
<path d="M169.858 314.92L172.754 308.403L173.685 297.334L166.03 311.092L169.858 314.92Z" fill="#D7A9A7"/>
<path d="M171.719 294.024L173.685 286.576L170.788 290.92L171.719 294.024Z" fill="#D7A9A7"/>
<path d="M178.237 290.817L178.341 300.955L181.444 303.645L178.237 290.817Z" fill="#D7A9A7"/>
<path d="M181.856 284.507L183.201 293.196L184.339 288.438L181.856 284.507Z" fill="#D7A9A7"/>
<path d="M183.926 243.956L183.409 236.197L180.409 260.093L183.926 243.956Z" fill="#D7A9A7"/>
<path d="M168.306 256.162L167.686 246.231L164.789 249.852L168.306 256.162Z" fill="#D7A9A7"/>
<path d="M176.581 259.369L178.133 259.162L177.616 265.266L176.374 269.507L176.064 267.438L175.754 272.197L175.547 263.404V263.197V241.266L178.961 219.335L179.167 219.439L176.581 259.369Z" fill="#D7A9A7"/>
<path d="M182.995 279.024L182.581 280.99L180.099 276.852L181.237 282.335L182.374 281.921L181.857 284.507L184.133 284.093L182.995 279.024Z" fill="#D7A9A7"/>
<path d="M181.65 315.024L181.857 316.369V312.024L182.995 306.955L180.202 305.817L181.65 315.024Z" fill="#D7A9A7"/>
<path d="M185.478 297.127L185.581 296.61L185.478 297.024V297.127Z" fill="#D7A9A7"/>
<path d="M184.651 300.231L185.479 297.024L184.03 294.438L184.651 300.231Z" fill="#D7A9A7"/>
<path d="M422.369 495.331C421.231 495.021 419.99 494.607 418.748 494.297C416.473 493.676 413.473 493.78 411.611 494.607C410.99 494.917 410.369 495.124 409.749 495.435C407.68 496.366 405.611 496.469 403.025 495.745C393.921 493.262 384.922 490.78 375.922 488.4C372.818 487.573 369.405 487.159 365.474 487.159C356.888 487.159 348.302 487.159 339.716 487.056C338.992 487.056 338.267 486.952 337.647 486.849C334.13 486.228 330.509 485.607 326.992 484.987C323.164 484.366 319.337 483.642 315.613 483.021C314.371 482.814 313.027 482.607 311.578 482.297C314.682 481.366 317.682 480.435 320.682 479.607C320.888 479.504 321.509 479.607 321.819 479.711C324.819 480.435 327.819 481.056 330.819 481.78C333.612 482.4 336.405 483.125 339.302 483.745C341.371 484.159 343.647 484.262 345.922 483.849C347.681 483.538 348.612 482.918 349.75 482.297C352.44 480.952 351.715 479.504 347.784 478.676C341.578 477.332 335.371 475.883 329.164 474.538C323.578 473.297 317.785 473.297 312.199 474.538C308.682 475.263 305.268 475.987 301.854 476.814L301.751 477.642C305.578 476.814 309.303 475.987 313.13 475.159C318.095 474.125 323.061 474.125 328.026 475.159C329.474 475.469 330.716 475.78 332.164 476.09C337.026 477.125 341.888 478.263 346.75 479.297C349.646 479.918 350.164 480.952 348.198 481.883C347.784 482.09 347.371 482.297 346.957 482.504C345.405 483.331 342.198 483.642 339.716 483.021C333.923 481.573 328.026 480.331 322.233 478.883C321.509 478.676 320.888 478.573 320.061 478.883C316.544 479.918 312.923 481.056 309.303 482.09C308.372 482.4 308.475 482.607 309.509 482.814C311.785 483.228 313.958 483.642 316.233 484.056C320.061 484.676 323.888 485.297 327.716 486.021C330.819 486.538 334.026 487.159 337.129 487.676C337.957 487.78 338.888 487.883 339.716 487.883C347.888 487.883 356.06 487.987 364.232 487.883C368.577 487.883 372.301 488.4 375.715 489.331C384.508 491.711 393.301 494.193 402.197 496.573C405.197 497.4 408.714 497.193 411.093 496.159C411.714 495.849 412.335 495.642 412.955 495.331C414.3 494.711 416.059 494.711 417.714 495.124C418.748 495.435 419.679 495.642 420.61 495.952C422.472 496.469 422.679 497.09 421.334 497.711C418.955 498.848 416.576 500.09 414.093 501.228C410.68 502.883 404.887 503.09 400.335 501.848C392.163 499.573 383.991 497.297 375.818 495.021C371.784 493.883 367.232 493.262 362.163 493.262C355.543 493.262 349.026 493.159 342.405 493.159C340.44 493.159 340.233 493.262 340.543 493.883C341.371 495.952 342.198 498.021 343.026 500.09C343.44 501.021 345.095 501.435 347.681 501.124C354.302 500.297 360.922 499.573 367.439 498.745C372.818 498.124 376.853 498.642 379.749 500.297C381.404 501.228 383.059 502.159 384.611 503.193C385.853 503.917 387.094 504.641 388.232 505.366C388.852 505.779 388.646 506.297 387.611 506.4C385.025 506.917 382.439 507.435 379.853 507.952C378.508 508.262 377.577 508.159 376.646 507.641C375.922 507.228 375.405 506.917 374.68 506.504C373.542 505.883 372.508 505.262 371.163 504.745C370.543 504.538 370.232 504.331 370.129 504.021C370.025 503.71 369.922 503.504 369.715 503.09C366.922 503.4 364.336 503.71 361.75 504.124C361.543 504.124 361.336 504.331 361.336 504.435C361.646 504.952 362.06 505.469 362.267 505.986C362.37 506.09 362.06 506.193 361.957 506.297C362.267 506.504 362.681 506.607 362.784 506.814C363.198 507.435 363.508 508.055 363.922 508.779C366.301 508.366 368.577 507.952 370.956 507.641C371.784 507.538 371.991 507.435 371.784 507.124C371.577 506.814 371.577 506.504 371.37 506.193C371.68 506.193 371.784 506.193 371.887 506.297C372.922 506.814 373.853 507.435 374.887 507.952C376.336 508.779 378.611 508.986 380.991 508.469C383.37 507.952 385.749 507.538 388.232 507.021C390.818 506.504 391.439 505.676 389.783 504.745C386.887 503.09 384.094 501.435 381.197 499.779C377.991 497.917 372.715 497.193 366.922 497.917C360.301 498.745 353.681 499.469 347.06 500.297C345.509 500.504 345.095 500.4 344.888 499.779C344.371 498.331 343.75 496.883 343.233 495.435C343.026 494.814 342.819 494.297 342.612 493.573H344.164C349.957 493.573 355.646 493.676 361.439 493.676C366.508 493.676 370.956 494.297 374.991 495.331C383.06 497.607 391.232 499.883 399.404 502.159C404.473 503.504 411.507 503.193 415.438 501.435C418.128 500.193 420.61 498.952 423.197 497.607C425.059 497.09 424.645 496.055 422.369 495.331ZM369.922 507.228C369.715 507.538 368.991 507.848 368.06 507.745C367.336 507.745 366.612 507.538 365.887 507.331C365.784 507.331 365.887 507.124 365.991 507.124C366.198 507.124 366.508 507.124 366.612 507.228C367.129 507.435 367.853 507.641 368.474 507.435C368.887 507.228 368.991 506.917 368.887 506.71C368.577 506.09 368.267 505.986 366.094 505.986C366.508 505.573 366.922 505.159 367.336 504.745C366.715 504.848 366.198 504.952 365.577 504.952C365.267 504.952 364.956 504.952 364.646 504.952C364.853 504.848 365.06 504.745 365.37 504.745C366.301 504.642 367.336 504.538 368.681 504.435C368.267 504.952 367.853 505.366 367.543 505.779C369.405 505.883 370.336 506.607 369.922 507.228ZM301.751 497.297C300.303 495.849 298.854 494.4 297.406 492.952C297.303 492.849 297.096 492.642 296.889 492.435C297.406 492.538 297.717 492.538 297.923 492.538C299.268 492.745 300.613 492.952 301.854 493.262L301.751 492.435C299.889 492.124 297.923 491.814 296.061 491.504C295.544 491.4 294.924 491.504 294.303 491.4C294.303 491.607 294.096 491.918 294.303 492.021C296.061 493.78 297.82 495.538 299.579 497.297C301.027 498.745 299.785 499.676 295.751 500.193C289.027 501.021 282.303 501.952 275.579 502.883C271.545 503.4 267.51 504.021 263.476 504.538C260.993 504.848 258.821 504.538 257.89 503.607C257.373 503.09 256.855 502.676 256.338 502.159C255.2 501.124 256.131 500.4 259.028 499.883C266.89 498.745 274.752 497.504 282.613 496.366C284.062 496.159 284.165 495.952 283.131 495.538C281.372 494.814 279.614 494.193 277.855 493.469C275.683 492.642 275.269 491.711 276.51 490.676C277.441 489.849 278.372 489.124 279.303 488.4C279.51 488.193 279.407 487.987 279.407 487.78C278.786 487.78 278.165 487.78 277.648 487.883C276.2 488.09 274.752 488.297 273.2 488.4C266.166 488.918 260.373 487.676 259.235 485.09C258.407 483.228 260.579 481.676 264.924 480.538C272.993 478.469 283.338 479.711 286.027 482.711C286.131 482.814 286.648 483.021 286.958 483.021C287.372 483.021 287.889 482.918 287.993 482.711C288.406 482.4 288.82 482.194 289.131 481.883L291.82 478.883C290.475 479.297 289.441 479.918 288.613 480.538C288.2 480.952 287.579 481.262 287.062 481.676C285.303 480.435 282.924 479.607 279.614 479.194C273.51 478.366 267.821 478.78 262.855 480.228C257.993 481.573 256.131 483.435 257.373 485.607C257.993 486.642 259.442 487.469 261.614 488.193C265.545 489.331 269.993 489.435 274.752 489.021C275.269 489.021 275.786 488.918 276.51 488.814C275.786 489.435 275.269 489.849 274.648 490.366C272.993 491.711 273.51 492.952 276.407 493.986C277.958 494.607 279.407 495.124 280.958 495.745C280.545 495.849 280.234 495.849 279.924 495.952C272.683 496.986 265.441 498.124 258.097 499.159C254.166 499.676 252.821 500.917 254.373 502.366C254.89 502.779 255.304 503.193 255.821 503.71C257.373 505.159 260.579 505.676 264.614 505.159C267.097 504.848 269.579 504.435 272.062 504.124C275.683 503.607 279.2 503.193 282.82 502.779C287.579 502.159 292.234 501.538 296.992 500.814C301.544 500.193 303.303 498.848 301.751 497.297ZM359.06 505.573C352.129 506.4 345.198 507.228 338.267 508.055C333.612 508.572 329.888 507.848 328.647 506.193C328.337 505.779 328.026 505.366 327.716 504.848L326.371 505.779C326.475 505.986 326.578 506.09 326.785 506.297C326.992 506.607 327.406 507.021 327.923 507.331C330.095 508.676 334.336 509.297 338.578 508.779C344.991 508.055 351.302 507.228 357.715 506.504C359.37 506.297 360.198 505.986 360.612 505.366C359.784 505.469 359.37 505.469 359.06 505.573Z" fill="white"/>
<path d="M376.026 391.161L377.578 390.436L378.302 390.333V387.126L379.75 386.712L381.199 386.402L386.474 384.85L389.267 380.299V378.85L389.992 378.437V378.126L392.164 376.988L391.75 373.885L391.44 371.713L392.164 371.092L392.371 370.885L392.888 370.368L393.612 369.747L395.164 368.299L396.509 367.057L396.612 366.954L397.026 366.54L399.509 364.161L404.164 361.678L404.267 356.402L403.129 356.092L400.957 355.471V355.058L400.44 349.885L400.026 345.851L399.509 340.678H401.578L401.474 340.368L400.853 337.782L400.44 336.23L399.715 333.437L400.543 332.816L401.578 331.989V331.782L402.302 331.265L404.371 329.713L404.577 329.61L405.508 328.989L405.819 328.782L406.957 324.644L411.819 319.472L415.336 318.955L415.75 309.541V308.403V307.989L417.198 305.817L414.612 304.679L409.957 298.472L408.922 294.541L404.577 290.714C403.75 289.886 402.922 288.955 402.302 287.921L393.509 286.783V284.921L390.095 281.817L393.509 277.472V277.576L397.543 272.404L398.474 271.162L399.405 270.024L399.922 269.404L400.957 268.162L401.474 267.438V267.231L400.853 266.714L399.405 265.576L398.991 265.162L398.267 264.542L398.578 262.576V262.369L398.784 260.817L399.302 256.887V256.783V256.473L399.715 256.059L401.371 254.611L403.853 252.438L407.681 249.128L407.888 248.921V248.404L409.336 247.163V247.68L411.198 246.025L412.232 242.197L408.612 240.232L404.991 241.369V241.473L401.267 239.611L404.991 234.542L406.439 232.887V232.783L403.543 230.197L396.405 229.266V229.163L400.44 222.232L391.854 216.439L397.853 207.749H415.957L418.232 213.025L421.129 213.749V232.37L425.474 235.163V241.887L427.542 247.163C426.198 247.887 424.956 248.507 423.612 249.231C421.439 250.369 419.887 251.714 419.06 253.473L418.129 253.99V254.404L409.439 263.817V264.024L413.06 267.335L411.612 270.645L410.681 272.817L408.198 278.61L407.991 278.507V279.128L408.198 278.61L409.543 279.334L414.094 281.921L415.336 282.645L415.646 287.817L415.75 288.852V288.955L416.577 289.472L418.129 290.403L418.853 290.817L419.577 291.231L419.06 294.851C418.956 294.748 418.956 294.541 418.853 294.438C418.853 294.645 418.956 294.852 418.956 295.162V294.955C418.956 295.058 418.956 295.058 418.956 295.162L420.301 296.817L420.198 296.507L420.922 296.714L421.439 296.92V297.024L421.646 297.127L421.853 297.231L421.749 298.265V298.369V298.782L423.198 299.196L425.991 299.817L424.439 303.024L422.577 306.955L420.094 312.127L421.025 312.748L423.818 315.231L421.025 318.748V324.644L408.715 333.851L406.646 335.092H406.543L404.888 336.437L405.508 337.782L406.026 339.023L406.439 340.058L406.853 341.092L407.474 342.644L406.439 342.747L405.922 342.851L406.646 345.437L406.957 346.471L407.784 349.265L407.991 349.885V350.196L410.577 359.195L407.991 362.506L408.302 364.471L401.681 370.057L398.888 372.437L396.302 374.609V376.471L396.198 379.781V381.54L393.405 382.368V381.85L392.681 384.747L390.509 384.85L391.233 388.885L380.992 390.85V392.195H376.026V391.161Z" fill="#F8F1F0"/>
<path d="M419.163 253.369C419.991 251.611 421.542 250.266 423.715 249.128C425.06 248.507 426.301 247.783 427.646 247.059L428.059 248.094L419.163 253.369Z" fill="#F8F1F0"/>
<path d="M408.094 278.921V278.3L408.301 278.403L408.094 278.921Z" fill="#F8F1F0"/>
<path d="M419.059 294.334C419.059 294.541 419.162 294.645 419.266 294.748V294.955C419.059 294.748 419.059 294.541 419.059 294.334Z" fill="#F8F1F0"/>
<path d="M408.094 278.921V278.3L408.301 278.403L408.094 278.921Z" fill="#F8F1F0"/>
<path d="M419.059 294.334C419.059 294.541 419.162 294.645 419.266 294.748V294.955C419.059 294.748 419.059 294.541 419.059 294.334Z" fill="#F8F1F0"/>
</g>
<defs>
<clipPath id="clip0">
<rect width="837.188" height="560.785" fill="white" transform="translate(0 0.234863)"/>
</clipPath>
</defs>
</svg>
