<svg width="544" height="564" viewBox="0 0 544 564" fill="none" xmlns="http://www.w3.org/2000/svg">
<path d="M837.188 478.011V562.885L509.606 563.02L47.1114 562.885L331.314 393.55H440.21L461.916 426.568L634.405 425.966L654.019 437.511L692.028 455.595L694.267 456.631L697.778 456.952L710.917 458.155L712.346 458.289L714.175 458.144L726.19 456.683L728.239 456.383L733.4 455.709L751.269 453.864L770.778 448.766L771.829 448.444L772.702 448.848L833.53 477.244L837.188 478.011Z" fill="#BD6F6D"/>
<path d="M256.264 133.361L462.284 131.568L461.863 446.154L440.179 393.561V208.256L458.048 140.066L256.264 133.361Z" stroke="#BD6F6D" stroke-width="1.32416" stroke-miterlimit="10"/>
<path d="M332.018 208.567H440.179L462.252 131.568H253.373L332.018 208.567Z" fill="#BD6F6D"/>
<path d="M519.749 260.383H614.034V425.998L519.749 426.205V260.383Z" stroke="#BD6F6D" stroke-width="1.32416" stroke-miterlimit="10"/>
<path d="M351.885 272.508H421.049V393.136L351.885 393.55V272.508Z" stroke="#BD6F6D" stroke-width="1.32416" stroke-miterlimit="10"/>
<path d="M47.4787 192.089L3.33152 166.492V411.168L47.4787 395.312V192.089ZM6.01194 393.55V174.638L21.2532 183.446V388.742L6.01194 393.55ZM43.2217 382.358L23.2504 388.369V184.213L43.2217 195.613V382.358Z" fill="#BD6F6D"/>
<path d="M0 17.8005V136.356L22.5992 149.932L44.1472 162.678V84.1252C44.1472 65.1605 28.3803 31.8945 0 17.8005ZM17.8691 139.568L2.62781 130.552L1.99716 26.2984C7.86571 30.1218 13.2016 34.6858 17.8691 39.8742V139.568ZM39.8376 153.041L19.8663 140.708V41.325C23.7554 45.0558 39.8376 65.6786 39.8376 88.0632V153.041Z" fill="#BD6F6D"/>
<path d="M178.66 232.671L149.333 217.126V365.217L178.66 355.621V232.671ZM151.068 354.595V222.101L161.19 227.376V351.734L151.068 354.595ZM175.853 347.796L162.609 351.455V227.883L175.948 234.765L175.853 347.796Z" fill="#BD6F6D"/>
<path d="M149.333 144.004V215.821L164.375 224.06L178.66 231.708V184.203C178.66 172.731 168.159 152.584 149.333 144.004ZM161.158 217.769L151.036 212.328L150.563 149.268C154.437 151.541 157.975 154.331 161.074 157.559V217.811L161.158 217.769ZM175.727 225.925L162.483 218.453V158.284C165.132 160.574 175.727 173.072 175.727 186.576V225.925Z" fill="#BD6F6D"/>
<path d="M273.261 261.865L259.807 253.792V330.698L273.261 325.723V261.865ZM260.584 325.226V256.393L265.188 259.129V323.64L260.584 325.226ZM271.947 321.692L265.861 323.568V259.419L271.947 263.016V321.692Z" fill="#BD6F6D"/>
<path d="M259.806 215.884V253.191L266.67 257.44L273.261 261.399V236.714C273.261 230.796 268.447 220.35 259.806 215.884ZM265.262 254.155L260.658 251.347L260.448 218.619C262.238 219.817 263.857 221.246 265.262 222.868V254.155ZM271.915 258.404L265.829 254.518V223.345C267.028 224.495 271.915 230.983 271.915 238.051V258.404Z" fill="#BD6F6D"/>
<path d="M315.968 277.233L307.212 272.881V314.541L315.968 311.857V277.233ZM307.706 311.432V274.249L310.744 275.741V310.706L307.706 311.432ZM315.127 309.525L311.164 310.561V275.844L315.127 277.751V309.525Z" fill="#BD6F6D"/>
<path d="M307.212 252.299V272.466L311.732 274.788L316.041 276.943V263.575C315.968 260.414 312.867 254.745 307.212 252.299ZM310.744 273.026L307.706 271.482L307.569 253.761C308.715 254.401 309.774 255.181 310.723 256.082L310.744 273.026ZM315.127 275.295L311.164 273.223V256.331C311.942 256.994 315.127 260.476 315.127 264.269V275.295Z" fill="#BD6F6D"/>
</svg>
