<svg width="461" height="542" viewBox="0 0 461 542" fill="none" xmlns="http://www.w3.org/2000/svg">
<path d="M153.279 497.782L91.1895 539.831M837.567 1.00024C837.567 1.00024 837.567 459.118 837.567 468.57" stroke="#BD6F6D" stroke-miterlimit="10"/>
<path d="M358.27 348.311H461.838L527.679 540.491H90.3076L358.27 348.311Z" fill="#BD6F6D"/>
<path d="M478.815 134.023L461.839 199.806V351.071L483.879 410.713L482.83 125.816L283.55 125.816" stroke="#BD6F6D" stroke-miterlimit="10"/>
<path d="M357.936 200.67H460.789L481.78 126.381L284.349 126.381L357.936 200.67Z" fill="#BD6F6D"/>
<path d="M377.863 261.836H443.617V349.77L377.863 350.04V261.836Z" stroke="#BD6F6D" stroke-miterlimit="10"/>
<path d="M8.22499 42.4447C8.22499 42.4447 4.02772 32.1987 0.300537 34.4456L0.669897 144.158L7.1337 152.171L8.22499 42.4447Z" fill="white"/>
<path d="M335.896 313.039L351.989 309.581V259.697L335.896 252.326V313.039Z" fill="#BD6F6D"/>
<path d="M335.97 250.891L351.762 258.339L352.06 238.685C352.06 238.685 349.381 223.784 335.97 220.551V250.891Z" fill="#BD6F6D"/>
<path d="M343.513 258.986L350.418 261.766V307.853L344.376 308.829L343.513 258.986Z" fill="white"/>
<path d="M342.646 258.858L337.064 256.713L337.388 310.184L343.39 309.118L342.646 258.858Z" fill="white"/>
<path d="M343.432 226.079C343.432 226.079 350.519 231.958 350.831 238.939V257.02L343.432 253.342L343.432 226.079Z" fill="white"/>
<path d="M342.645 225.761C342.645 225.761 340.785 223.615 336.763 222.201L336.998 250.581L342.645 253.036V225.761Z" fill="white"/>
<path d="M298.113 324.275L321.475 318.957L320.286 250.283L298.113 240.128V324.275Z" fill="#BD6F6D"/>
<path d="M298.215 238.15L319.973 248.413L320.383 221.334C320.383 221.334 316.693 200.803 298.215 196.348V238.15Z" fill="#BD6F6D"/>
<path d="M308.608 249.304L318.121 253.134L319.097 315.928L309.797 317.978L308.608 249.304Z" fill="white"/>
<path d="M307.412 249.129L299.722 246.173L300.168 319.846L308.437 318.376L307.412 249.129Z" fill="white"/>
<path d="M308.496 203.964C308.496 203.964 318.26 212.064 318.691 221.683V246.595L308.495 241.528L308.496 203.964Z" fill="white"/>
<path d="M307.412 203.526C307.412 203.526 304.848 200.57 299.307 198.621L299.631 237.723L307.412 241.106V203.526Z" fill="white"/>
<path d="M193.161 353.665L236.682 343L234.466 212.446L193.161 193.14V353.665Z" fill="#BD6F6D"/>
<path d="M193.35 189.38L233.884 208.889L234.648 157.41C234.648 157.41 227.772 118.38 193.35 109.911V189.38Z" fill="#BD6F6D"/>
<path d="M212.711 210.584L230.434 217.865L232.252 337.241L214.926 341.138L212.711 210.584Z" fill="white"/>
<path d="M210.482 210.25L196.156 204.631L196.987 344.688L212.392 341.895L210.482 210.25Z" fill="white"/>
<path d="M212.502 124.389C212.502 124.389 230.692 139.788 231.494 158.073V205.434L212.501 195.801L212.502 124.389Z" fill="white"/>
<path d="M210.484 123.558C210.484 123.558 205.709 117.939 195.385 114.233L195.989 188.569L210.484 194.999V123.558Z" fill="white"/>
<path d="M47.4588 395.154L90.3084 379.498L88.2093 184.247L46.2285 159.49L47.4588 395.154Z" fill="#BD6F6D"/>
<path d="M46.4192 153.97L87.4737 182.612L88.2475 107.036C88.2475 107.036 81.2838 49.7363 46.4192 37.3037V153.97Z" fill="#BD6F6D"/>
<path d="M65.1199 179.061L84.1573 190.052L86.1103 370.255L67.4995 376.138L65.1199 179.061Z" fill="white"/>
<path d="M63.1448 178.879L48.3276 170.417L49.1869 381.324L65.12 377.117L63.1448 178.879Z" fill="white"/>
<path d="M65.8181 58.5591C65.8181 58.5591 84.2421 81.1656 85.0545 108.01V177.539L65.8174 163.398L65.8181 58.5591Z" fill="white"/>
<path d="M63.7721 57.3373C63.7721 57.3373 58.9353 49.0882 48.4795 43.6482L49.0908 152.78L63.7721 162.219V57.3373Z" fill="white"/>
</svg>
