<svg width="772" height="777" viewBox="0 0 772 777" fill="none" xmlns="http://www.w3.org/2000/svg">
<g clip-path="url(#clip0)">
<path d="M36.3232 183.326V695.971H217.032V183.326H36.3232ZM116.467 487.709H48.8647V397.992H116.452L116.467 487.709ZM116.949 387.828H49.3465V298.111H116.933L116.949 387.828ZM117.415 287.947H49.8127V198.245H117.4L117.415 287.947ZM203.527 487.18H135.924V397.401H203.511L203.527 487.18ZM204.009 387.299H136.406V297.582H203.993L204.009 387.299ZM204.475 287.419H136.872V197.717H204.459L204.475 287.419Z" stroke="#BD6F6D" stroke-miterlimit="10"/>
<path d="M116.452 397.976H48.8647V487.693H116.452V397.976Z" stroke="#BD6F6D" stroke-miterlimit="10"/>
<path d="M116.933 298.095H49.3462V387.812H116.933V298.095Z" stroke="#BD6F6D" stroke-miterlimit="10"/>
<path d="M117.4 198.23H49.8125V287.932H117.4V198.23Z" stroke="#BD6F6D" stroke-miterlimit="10"/>
<path d="M203.511 397.448H135.924V487.165H203.511V397.448Z" stroke="#BD6F6D" stroke-miterlimit="10"/>
<path d="M203.993 297.567H136.406V387.284H203.993V297.567Z" stroke="#BD6F6D" stroke-miterlimit="10"/>
<path d="M204.46 197.701H136.873V287.403H204.46V197.701Z" stroke="#BD6F6D" stroke-miterlimit="10"/>
<path d="M407.78 29.8606H217.032V466.915H407.78V29.8606Z" stroke="#BD6F6D" stroke-miterlimit="10"/>
<path d="M751.714 68.1531H407.78V466.915H751.714V68.1531Z" stroke="#BD6F6D" stroke-miterlimit="10"/>
<path d="M757.728 496.21H674.554V695.956H757.728V496.21Z" stroke="#BD6F6D" stroke-miterlimit="10"/>
<path d="M674.554 496.21H217.032V695.956H674.554V496.21Z" stroke="#BD6F6D" stroke-miterlimit="10"/>
<path d="M771.249 695.956H0.750488V776.069H771.249V695.956Z" fill="#BD6F6D"/>
<path d="M287.121 96.6863H339.199V140.745H381.252V192.822H339.199V236.367H287.121V193.319H243.063V140.247H286.624L287.121 96.6863Z" fill="#BD6F6D"/>
<path d="M414.23 0.0688477H208.967V29.8606H414.23V0.0688477Z" fill="#BD6F6D"/>
<path d="M759.236 38.1128H407.78V68.1532H759.236V38.1128Z" fill="#BD6F6D"/>
<path d="M758.475 466.915H217.033V496.21H758.475V466.915Z" fill="#BD6F6D"/>
<path d="M209.774 503.716H42.8037V520.484H209.774V503.716Z" stroke="#BD6F6D" stroke-miterlimit="10"/>
<path d="M204.77 526.499H46.3159V533.259H204.77V526.499Z" stroke="#BD6F6D" stroke-miterlimit="10"/>
<path d="M204.77 535.264H46.3159V542.024H204.77V535.264Z" stroke="#BD6F6D" stroke-miterlimit="10"/>
<path d="M204.77 544.013H46.3159V550.773H204.77V544.013Z" stroke="#BD6F6D" stroke-miterlimit="10"/>
<path d="M204.77 552.778H46.3159V559.538H204.77V552.778Z" stroke="#BD6F6D" stroke-miterlimit="10"/>
<path d="M204.77 561.543H46.3159V568.303H204.77V561.543Z" stroke="#BD6F6D" stroke-miterlimit="10"/>
<path d="M204.77 570.308H46.3159V577.069H204.77V570.308Z" stroke="#BD6F6D" stroke-miterlimit="10"/>
<path d="M204.77 579.058H46.3159V585.818H204.77V579.058Z" stroke="#BD6F6D" stroke-miterlimit="10"/>
<path d="M204.77 587.823H46.3159V594.583H204.77V587.823Z" stroke="#BD6F6D" stroke-miterlimit="10"/>
<path d="M204.77 596.588H46.3159V603.348H204.77V596.588Z" stroke="#BD6F6D" stroke-miterlimit="10"/>
<path d="M204.77 605.353H46.3159V612.113H204.77V605.353Z" stroke="#BD6F6D" stroke-miterlimit="10"/>
<path d="M204.77 614.102H46.3159V620.863H204.77V614.102Z" stroke="#BD6F6D" stroke-miterlimit="10"/>
<path d="M204.77 622.867H46.3159V629.628H204.77V622.867Z" stroke="#BD6F6D" stroke-miterlimit="10"/>
<path d="M204.77 631.633H46.3159V638.393H204.77V631.633Z" stroke="#BD6F6D" stroke-miterlimit="10"/>
<path d="M204.77 640.397H46.3159V647.158H204.77V640.397Z" stroke="#BD6F6D" stroke-miterlimit="10"/>
<path d="M204.77 649.147H46.3159V655.907H204.77V649.147Z" stroke="#BD6F6D" stroke-miterlimit="10"/>
<path d="M204.77 657.912H46.3159V664.672H204.77V657.912Z" stroke="#BD6F6D" stroke-miterlimit="10"/>
<path d="M204.77 666.677H46.3159V673.437H204.77V666.677Z" stroke="#BD6F6D" stroke-miterlimit="10"/>
<path d="M204.77 675.442H46.3159V682.202H204.77V675.442Z" stroke="#BD6F6D" stroke-miterlimit="10"/>
<path d="M204.77 684.191H46.3159V690.952H204.77V684.191Z" stroke="#BD6F6D" stroke-miterlimit="10"/>
<path d="M204.77 520.484H46.3159V523.608H204.77V520.484Z" stroke="#BD6F6D" stroke-miterlimit="10"/>
<path d="M504.91 87.688H423.803V194.08H504.91V87.688Z" stroke="#BD6F6D" stroke-miterlimit="10"/>
<path d="M498.399 92.9409H429.304V187.569H498.399V92.9409Z" stroke="#BD6F6D" stroke-miterlimit="10"/>
<path d="M620.301 87.688H539.193V194.08H620.301V87.688Z" stroke="#BD6F6D" stroke-miterlimit="10"/>
<path d="M613.805 92.9409H544.71V187.569H613.805V92.9409Z" stroke="#BD6F6D" stroke-miterlimit="10"/>
<path d="M735.707 87.688H654.599V194.08H735.707V87.688Z" stroke="#BD6F6D" stroke-miterlimit="10"/>
<path d="M729.195 92.9409H660.101V187.569H729.195V92.9409Z" stroke="#BD6F6D" stroke-miterlimit="10"/>
<path d="M504.91 214.346H423.803V320.738H504.91V214.346Z" stroke="#BD6F6D" stroke-miterlimit="10"/>
<path d="M498.399 219.598H429.304V314.226H498.399V219.598Z" stroke="#BD6F6D" stroke-miterlimit="10"/>
<path d="M620.301 214.346H539.193V320.738H620.301V214.346Z" stroke="#BD6F6D" stroke-miterlimit="10"/>
<path d="M613.805 219.598H544.71V314.226H613.805V219.598Z" stroke="#BD6F6D" stroke-miterlimit="10"/>
<path d="M735.707 214.346H654.599V320.738H735.707V214.346Z" stroke="#BD6F6D" stroke-miterlimit="10"/>
<path d="M729.195 219.598H660.101V314.226H729.195V219.598Z" stroke="#BD6F6D" stroke-miterlimit="10"/>
<path d="M504.91 341.003H423.803V447.396H504.91V341.003Z" stroke="#BD6F6D" stroke-miterlimit="10"/>
<path d="M498.399 346.256H429.304V440.884H498.399V346.256Z" stroke="#BD6F6D" stroke-miterlimit="10"/>
<path d="M620.301 341.003H539.193V447.396H620.301V341.003Z" stroke="#BD6F6D" stroke-miterlimit="10"/>
<path d="M613.805 346.256H544.71V440.884H613.805V346.256Z" stroke="#BD6F6D" stroke-miterlimit="10"/>
<path d="M735.707 341.003H654.599V447.396H735.707V341.003Z" stroke="#BD6F6D" stroke-miterlimit="10"/>
<path d="M729.195 346.256H660.101V440.884H729.195V346.256Z" stroke="#BD6F6D" stroke-miterlimit="10"/>
<path d="M117.4 198.23H49.813V287.932H117.4V198.23Z" stroke="#BD6F6D" stroke-miterlimit="10"/>
<path d="M111.992 202.659H54.4131V282.446H111.992V202.659Z" stroke="#BD6F6D" stroke-miterlimit="10"/>
<path d="M204.46 197.701H136.873V287.403H204.46V197.701Z" stroke="#BD6F6D" stroke-miterlimit="10"/>
<path d="M199.051 202.131H141.473V281.917H199.051V202.131Z" stroke="#BD6F6D" stroke-miterlimit="10"/>
<path d="M116.933 298.095H49.3462V387.812H116.933V298.095Z" stroke="#BD6F6D" stroke-miterlimit="10"/>
<path d="M111.509 302.54H53.9307V382.327H111.509V302.54Z" stroke="#BD6F6D" stroke-miterlimit="10"/>
<path d="M203.993 297.567H136.406V387.284H203.993V297.567Z" stroke="#BD6F6D" stroke-miterlimit="10"/>
<path d="M198.569 302.012H140.991V381.798H198.569V302.012Z" stroke="#BD6F6D" stroke-miterlimit="10"/>
<path d="M116.452 397.976H48.8647V487.693H116.452V397.976Z" stroke="#BD6F6D" stroke-miterlimit="10"/>
<path d="M111.044 402.421H53.4648V482.207H111.044V402.421Z" stroke="#BD6F6D" stroke-miterlimit="10"/>
<path d="M203.511 397.448H135.924V487.165H203.511V397.448Z" stroke="#BD6F6D" stroke-miterlimit="10"/>
<path d="M198.103 401.893H140.524V481.679H198.103V401.893Z" stroke="#BD6F6D" stroke-miterlimit="10"/>
<path d="M674.554 496.21H645.461V695.956H674.554V496.21Z" stroke="#BD6F6D" stroke-miterlimit="10"/>
<path d="M324.419 496.21H295.327V695.972H324.419V496.21Z" stroke="#BD6F6D" stroke-miterlimit="10"/>
<path d="M568.488 512.729H400.771V695.971H568.488V512.729Z" stroke="#BD6F6D" stroke-miterlimit="10"/>
<path d="M563.484 517.734H407.283V556.29H563.484V517.734Z" fill="#E5C5C5"/>
<path d="M478.382 565.289H411.79V638.377H478.382V565.289Z" fill="#E5C5C5"/>
<path d="M556.972 565.289H490.38V638.377H556.972V565.289Z" fill="#E5C5C5"/>
<path d="M478.382 643.894H411.79V685.948H478.382V643.894Z" fill="#E5C5C5"/>
<path d="M556.972 643.894H490.38V685.948H556.972V643.894Z" fill="#E5C5C5"/>
</g>
<defs>
<clipPath id="clip0">
<rect width="770.499" height="776" fill="white" transform="translate(0.750488 0.0688477)"/>
</clipPath>
</defs>
</svg>
