<svg width="157" height="123" viewBox="0 0 157 123" fill="none" xmlns="http://www.w3.org/2000/svg">
<rect x="0.5" y="1.48096" width="156" height="121" rx="15.5" stroke="#BD6F6D"/>
<g clip-path="url(#clip0)">
<path d="M34.5264 46.9004V112.114H57.5143V46.9004H34.5264ZM47.3151 48.7388H55.9133V60.1447H47.3151V48.7388ZM47.2558 61.4296H55.854V72.8356H47.2558V61.4296ZM47.1965 74.1402H55.7947V85.5462H47.1965V74.1402ZM36.2461 48.7981H44.8443V60.204H36.2461V48.7981ZM36.1868 61.5087H44.785V72.9146H36.1868V61.5087ZM36.1275 74.1995H44.7257V85.6055H36.1275V74.1995Z" stroke="#BD6F6D" stroke-width="0.198278" stroke-miterlimit="10"/>
<path d="M44.7257 74.1996H36.1275V85.6046H44.7257V74.1996Z" stroke="#BD6F6D" stroke-width="0.198278" stroke-miterlimit="10"/>
<path d="M44.785 61.5087H36.1868V72.9137H44.785V61.5087Z" stroke="#BD6F6D" stroke-width="0.198278" stroke-miterlimit="10"/>
<path d="M44.8443 48.7981H36.2461V60.2031H44.8443V48.7981Z" stroke="#BD6F6D" stroke-width="0.198278" stroke-miterlimit="10"/>
<path d="M55.7947 74.1404H47.1964V85.5454H55.7947V74.1404Z" stroke="#BD6F6D" stroke-width="0.198278" stroke-miterlimit="10"/>
<path d="M55.854 61.4297H47.2557V72.8347H55.854V61.4297Z" stroke="#BD6F6D" stroke-width="0.198278" stroke-miterlimit="10"/>
<path d="M55.9133 48.7389H47.3151V60.1439H55.9133V48.7389Z" stroke="#BD6F6D" stroke-width="0.198278" stroke-miterlimit="10"/>
<path d="M81.7672 27.3895H57.5143V82.9762H81.7672V27.3895Z" stroke="#BD6F6D" stroke-width="0.198278" stroke-miterlimit="10"/>
<path d="M125.509 32.2518H81.7672V82.9757H125.509V32.2518Z" stroke="#BD6F6D" stroke-width="0.198278" stroke-miterlimit="10"/>
<path d="M126.28 86.7125H115.706V112.114H126.28V86.7125Z" stroke="#BD6F6D" stroke-width="0.198278" stroke-miterlimit="10"/>
<path d="M115.706 86.7125H57.5143V112.114H115.706V86.7125Z" stroke="#BD6F6D" stroke-width="0.198278" stroke-miterlimit="10"/>
<path d="M128 112.114H30V122.313H128V112.114Z" fill="#BD6F6D"/>
<path d="M66.4288 35.8899H73.0504V41.4841H78.3873V48.1063H73.0504V53.661H66.4288V48.1656H60.8152V41.4248H66.3497L66.4288 35.8899Z" fill="#BD6F6D"/>
<path d="M82.5974 23.5944H56.4865V27.3894H82.5974V23.5944Z" fill="#BD6F6D"/>
<path d="M126.458 28.437H81.7672V32.2519H126.458V28.437Z" fill="#BD6F6D"/>
<path d="M126.379 82.9764H57.5143V86.6925H126.379V82.9764Z" fill="#BD6F6D"/>
<path d="M56.5853 87.6614H35.3566V89.7961H56.5853V87.6614Z" stroke="#BD6F6D" stroke-width="0.198278" stroke-miterlimit="10"/>
<path d="M55.9528 90.5475H35.7914V91.3974H55.9528V90.5475Z" stroke="#BD6F6D" stroke-width="0.198278" stroke-miterlimit="10"/>
<path d="M55.9528 91.6742H35.7914V92.5241H55.9528V91.6742Z" stroke="#BD6F6D" stroke-width="0.198278" stroke-miterlimit="10"/>
<path d="M55.9528 92.7812H35.7914V93.6312H55.9528V92.7812Z" stroke="#BD6F6D" stroke-width="0.198278" stroke-miterlimit="10"/>
<path d="M55.9528 93.9081H35.7914V94.758H55.9528V93.9081Z" stroke="#BD6F6D" stroke-width="0.198278" stroke-miterlimit="10"/>
<path d="M55.9528 95.0149H35.7914V95.8648H55.9528V95.0149Z" stroke="#BD6F6D" stroke-width="0.198278" stroke-miterlimit="10"/>
<path d="M55.9528 96.1219H35.7914V96.9719H55.9528V96.1219Z" stroke="#BD6F6D" stroke-width="0.198278" stroke-miterlimit="10"/>
<path d="M55.9528 97.2488H35.7914V98.0987H55.9528V97.2488Z" stroke="#BD6F6D" stroke-width="0.198278" stroke-miterlimit="10"/>
<path d="M55.9528 98.3557H35.7914V99.2057H55.9528V98.3557Z" stroke="#BD6F6D" stroke-width="0.198278" stroke-miterlimit="10"/>
<path d="M55.9528 99.4626H35.7914V100.313H55.9528V99.4626Z" stroke="#BD6F6D" stroke-width="0.198278" stroke-miterlimit="10"/>
<path d="M55.9528 100.589H35.7914V101.439H55.9528V100.589Z" stroke="#BD6F6D" stroke-width="0.198278" stroke-miterlimit="10"/>
<path d="M55.9528 101.696H35.7914V102.546H55.9528V101.696Z" stroke="#BD6F6D" stroke-width="0.198278" stroke-miterlimit="10"/>
<path d="M55.9528 102.823H35.7914V103.673H55.9528V102.823Z" stroke="#BD6F6D" stroke-width="0.198278" stroke-miterlimit="10"/>
<path d="M55.9528 103.93H35.7914V104.78H55.9528V103.93Z" stroke="#BD6F6D" stroke-width="0.198278" stroke-miterlimit="10"/>
<path d="M55.9528 105.037H35.7914V105.887H55.9528V105.037Z" stroke="#BD6F6D" stroke-width="0.198278" stroke-miterlimit="10"/>
<path d="M55.9528 106.164H35.7914V107.014H55.9528V106.164Z" stroke="#BD6F6D" stroke-width="0.198278" stroke-miterlimit="10"/>
<path d="M55.9528 107.271H35.7914V108.121H55.9528V107.271Z" stroke="#BD6F6D" stroke-width="0.198278" stroke-miterlimit="10"/>
<path d="M55.9528 108.378H35.7914V109.228H55.9528V108.378Z" stroke="#BD6F6D" stroke-width="0.198278" stroke-miterlimit="10"/>
<path d="M55.9528 109.505H35.7914V110.355H55.9528V109.505Z" stroke="#BD6F6D" stroke-width="0.198278" stroke-miterlimit="10"/>
<path d="M55.9528 110.612H35.7914V111.462H55.9528V110.612Z" stroke="#BD6F6D" stroke-width="0.198278" stroke-miterlimit="10"/>
<path d="M55.9528 89.7963H35.7914V90.1916H55.9528V89.7963Z" stroke="#BD6F6D" stroke-width="0.198278" stroke-miterlimit="10"/>
<path d="M94.121 34.7424H83.8032V48.2833H94.121V34.7424Z" stroke="#BD6F6D" stroke-width="0.198278" stroke-miterlimit="10"/>
<path d="M93.3106 35.4147H84.5147V47.4522H93.3106V35.4147Z" stroke="#BD6F6D" stroke-width="0.198278" stroke-miterlimit="10"/>
<path d="M108.807 34.7424H98.4893V48.2833H108.807V34.7424Z" stroke="#BD6F6D" stroke-width="0.198278" stroke-miterlimit="10"/>
<path d="M107.977 35.4147H99.1811V47.4522H107.977V35.4147Z" stroke="#BD6F6D" stroke-width="0.198278" stroke-miterlimit="10"/>
<path d="M123.474 34.7424H113.156V48.2833H123.474V34.7424Z" stroke="#BD6F6D" stroke-width="0.198278" stroke-miterlimit="10"/>
<path d="M122.663 35.4147H113.867V47.4522H122.663V35.4147Z" stroke="#BD6F6D" stroke-width="0.198278" stroke-miterlimit="10"/>
<path d="M94.121 50.854H83.8032V64.3949H94.121V50.854Z" stroke="#BD6F6D" stroke-width="0.198278" stroke-miterlimit="10"/>
<path d="M93.3106 51.5262H84.5147V63.5638H93.3106V51.5262Z" stroke="#BD6F6D" stroke-width="0.198278" stroke-miterlimit="10"/>
<path d="M108.807 50.854H98.4893V64.3949H108.807V50.854Z" stroke="#BD6F6D" stroke-width="0.198278" stroke-miterlimit="10"/>
<path d="M107.977 51.5262H99.1811V63.5638H107.977V51.5262Z" stroke="#BD6F6D" stroke-width="0.198278" stroke-miterlimit="10"/>
<path d="M123.474 50.854H113.156V64.3949H123.474V50.854Z" stroke="#BD6F6D" stroke-width="0.198278" stroke-miterlimit="10"/>
<path d="M122.663 51.5262H113.867V63.5638H122.663V51.5262Z" stroke="#BD6F6D" stroke-width="0.198278" stroke-miterlimit="10"/>
<path d="M94.121 66.9646H83.8032V80.5055H94.121V66.9646Z" stroke="#BD6F6D" stroke-width="0.198278" stroke-miterlimit="10"/>
<path d="M93.3106 67.6367H84.5147V79.6742H93.3106V67.6367Z" stroke="#BD6F6D" stroke-width="0.198278" stroke-miterlimit="10"/>
<path d="M108.807 66.9646H98.4893V80.5055H108.807V66.9646Z" stroke="#BD6F6D" stroke-width="0.198278" stroke-miterlimit="10"/>
<path d="M107.977 67.6367H99.1811V79.6742H107.977V67.6367Z" stroke="#BD6F6D" stroke-width="0.198278" stroke-miterlimit="10"/>
<path d="M123.474 66.9646H113.156V80.5055H123.474V66.9646Z" stroke="#BD6F6D" stroke-width="0.198278" stroke-miterlimit="10"/>
<path d="M122.663 67.6367H113.867V79.6742H122.663V67.6367Z" stroke="#BD6F6D" stroke-width="0.198278" stroke-miterlimit="10"/>
<path d="M44.8443 48.7981H36.2461V60.2031H44.8443V48.7981Z" stroke="#BD6F6D" stroke-width="0.198278" stroke-miterlimit="10"/>
<path d="M44.1327 49.3715H36.8193V59.5114H44.1327V49.3715Z" stroke="#BD6F6D" stroke-width="0.198278" stroke-miterlimit="10"/>
<path d="M55.9133 48.7389H47.3151V60.1439H55.9133V48.7389Z" stroke="#BD6F6D" stroke-width="0.198278" stroke-miterlimit="10"/>
<path d="M55.2017 49.2921H47.8883V59.4321H55.2017V49.2921Z" stroke="#BD6F6D" stroke-width="0.198278" stroke-miterlimit="10"/>
<path d="M44.785 61.5087H36.1868V72.9137H44.785V61.5087Z" stroke="#BD6F6D" stroke-width="0.198278" stroke-miterlimit="10"/>
<path d="M44.0734 62.0619H36.76V72.2019H44.0734V62.0619Z" stroke="#BD6F6D" stroke-width="0.198278" stroke-miterlimit="10"/>
<path d="M55.854 61.4297H47.2557V72.8347H55.854V61.4297Z" stroke="#BD6F6D" stroke-width="0.198278" stroke-miterlimit="10"/>
<path d="M55.1424 62.0031H47.8289V72.143H55.1424V62.0031Z" stroke="#BD6F6D" stroke-width="0.198278" stroke-miterlimit="10"/>
<path d="M44.7257 74.1996H36.1275V85.6046H44.7257V74.1996Z" stroke="#BD6F6D" stroke-width="0.198278" stroke-miterlimit="10"/>
<path d="M44.0141 74.7726H36.7007V84.9126H44.0141V74.7726Z" stroke="#BD6F6D" stroke-width="0.198278" stroke-miterlimit="10"/>
<path d="M55.7947 74.1404H47.1964V85.5454H55.7947V74.1404Z" stroke="#BD6F6D" stroke-width="0.198278" stroke-miterlimit="10"/>
<path d="M55.0831 74.7135H47.7697V84.8535H55.0831V74.7135Z" stroke="#BD6F6D" stroke-width="0.198278" stroke-miterlimit="10"/>
<path d="M115.706 86.7125H112.009V112.114H115.706V86.7125Z" stroke="#BD6F6D" stroke-width="0.198278" stroke-miterlimit="10"/>
<path d="M71.1529 86.6929H67.4566V112.094H71.1529V86.6929Z" stroke="#BD6F6D" stroke-width="0.198278" stroke-miterlimit="10"/>
<path d="M102.205 88.8079H80.8778V112.114H102.205V88.8079Z" stroke="#BD6F6D" stroke-width="0.198278" stroke-miterlimit="10"/>
<path d="M101.573 89.4406H81.7079V94.3425H101.573V89.4406Z" fill="#BD6F6D"/>
<path d="M90.741 95.4895H82.2812V104.78H90.741V95.4895Z" fill="#BD6F6D"/>
<path d="M100.743 95.4895H92.2828V104.78H100.743V95.4895Z" fill="#BD6F6D"/>
<path d="M90.741 105.492H82.2812V110.848H90.741V105.492Z" fill="#BD6F6D"/>
<path d="M100.743 105.492H92.2828V110.848H100.743V105.492Z" fill="#BD6F6D"/>
</g>
<defs>
<clipPath id="clip0">
<rect width="97.9997" height="98.6994" fill="white" transform="translate(30 23.981)"/>
</clipPath>
</defs>
</svg>
