<svg width="84" height="113" viewBox="0 0 84 113" fill="none" xmlns="http://www.w3.org/2000/svg">
<g clip-path="url(#clip0)">
<path d="M82.9571 104.9V112.472H2.4014V104.978L4.97949 103.573H80.3047L82.9571 104.9Z" fill="#BD6F6D"/>
<path d="M13.6917 89.3689V95.6396H16.0565V89.3689H13.6917ZM16.6574 89.3689V95.6396H19.0272V89.3689H16.6574ZM28.3057 58.3106V64.5814H30.6722V58.3138L28.3057 58.3106ZM31.2699 58.3106V64.5814H33.6396V58.3138L31.2699 58.3106ZM31.2699 58.3106V64.5814H33.6396V58.3138L31.2699 58.3106ZM28.3057 58.3106V64.5814H30.6722V58.3138L28.3057 58.3106ZM16.6574 89.3689V95.6396H19.0272V89.3689H16.6574ZM13.6917 89.3689V95.6396H16.0565V89.3689H13.6917ZM13.6917 89.3689V95.6396H16.0565V89.3689H13.6917ZM16.6574 89.3689V95.6396H19.0272V89.3689H16.6574ZM28.3057 58.3106V64.5814H30.6722V58.3138L28.3057 58.3106ZM31.2699 58.3106V64.5814H33.6396V58.3138L31.2699 58.3106ZM31.2699 58.3106V64.5814H33.6396V58.3138L31.2699 58.3106ZM28.3057 58.3106V64.5814H30.6722V58.3138L28.3057 58.3106ZM16.6574 89.3689V95.6396H19.0272V89.3689H16.6574ZM13.6917 89.3689V95.6396H16.0565V89.3689H13.6917ZM13.6917 89.3689V95.6396H16.0565V89.3689H13.6917ZM16.6574 89.3689V95.6396H19.0272V89.3689H16.6574ZM28.3057 58.3106V64.5814H30.6722V58.3138L28.3057 58.3106ZM31.2699 58.3106V64.5814H33.6396V58.3138L31.2699 58.3106ZM43.7953 89.2865V95.5556H46.165V89.2897L43.7953 89.2865ZM46.7643 89.2865V95.5556H49.1291V89.2897L46.7643 89.2865ZM31.2699 58.3138V64.5846H33.6396V58.3138H31.2699ZM28.3057 58.3138V64.5846H30.6722V58.3138H28.3057ZM16.6574 89.3689V95.6396H19.0272V89.3689H16.6574ZM13.6917 89.3689V95.6396H16.0565V89.3689H13.6917ZM46.7643 89.2865V95.5556H49.1291V89.2897L46.7643 89.2865ZM43.7953 89.2865V95.5556H46.165V89.2897L43.7953 89.2865ZM13.6917 89.3689V95.6396H16.0565V89.3689H13.6917ZM16.6574 89.3689V95.6396H19.0272V89.3689H16.6574ZM28.3057 58.3106V64.5814H30.6722V58.3138L28.3057 58.3106ZM31.2699 58.3106V64.5814H33.6396V58.3138L31.2699 58.3106ZM43.7953 89.2865V95.5556H46.165V89.2897L43.7953 89.2865ZM46.7643 89.2865V95.5556H49.1291V89.2897L46.7643 89.2865ZM31.2699 58.3138V64.5846H33.6396V58.3138H31.2699ZM28.3057 58.3138V64.5846H30.6722V58.3138H28.3057ZM16.6574 89.3689V95.6396H19.0272V89.3689H16.6574ZM13.6917 89.3689V95.6396H16.0565V89.3689H13.6917ZM46.7643 89.2865V95.5556H49.1291V89.2897L46.7643 89.2865ZM43.7953 89.2865V95.5556H46.165V89.2897L43.7953 89.2865ZM13.6917 89.3689V95.6396H16.0565V89.3689H13.6917ZM16.6574 89.3689V95.6396H19.0272V89.3689H16.6574ZM28.3057 58.3106V64.5814H30.6722V58.3138L28.3057 58.3106ZM31.2699 58.3106V64.5814H33.6396V58.3138L31.2699 58.3106ZM43.7953 89.2865V95.5556H46.165V89.2897L43.7953 89.2865ZM46.7643 89.2865V95.5556H49.1291V89.2897L46.7643 89.2865ZM31.2699 58.3138V64.5846H33.6396V58.3138H31.2699ZM28.3057 58.3138V64.5846H30.6722V58.3138H28.3057ZM16.6574 89.3689V95.6396H19.0272V89.3689H16.6574ZM13.6917 89.3689V95.6396H16.0565V89.3689H13.6917ZM46.7643 89.2865V95.5556H49.1291V89.2897L46.7643 89.2865ZM43.7953 89.2865V95.5556H46.165V89.2897L43.7953 89.2865ZM13.6917 89.3689V95.6396H16.0565V89.3689H13.6917ZM16.6574 89.3689V95.6396H19.0272V89.3689H16.6574ZM43.7953 89.2865V95.5556H46.165V89.2897L43.7953 89.2865ZM46.7643 89.2865V95.5556H49.1291V89.2897L46.7643 89.2865ZM16.6574 89.3689V95.6396H19.0272V89.3689H16.6574ZM13.6917 89.3689V95.6396H16.0565V89.3689H13.6917ZM46.7643 89.2865V95.5556H49.1291V89.2897L46.7643 89.2865ZM43.7953 89.2865V95.5556H46.165V89.2897L43.7953 89.2865ZM13.6917 89.3689V95.6396H16.0565V89.3689H13.6917ZM16.6574 89.3689V95.6396H19.0272V89.3689H16.6574ZM43.7953 89.2865V95.5556H46.165V89.2897L43.7953 89.2865ZM46.7643 89.2865V95.5556H49.1291V89.2897L46.7643 89.2865ZM46.7643 89.2865V95.5556H49.1291V89.2897L46.7643 89.2865ZM43.7953 89.2865V95.5556H46.165V89.2897L43.7953 89.2865ZM16.6574 89.3689V95.6396H19.0272V89.3689H16.6574ZM13.6917 89.3689V95.6396H16.0565V89.3689H13.6917ZM13.6917 89.3689V95.6396H16.0565V89.3689H13.6917ZM16.6574 89.3689V95.6396H19.0272V89.3689H16.6574ZM43.7953 89.2865V95.5556H46.165V89.2897L43.7953 89.2865ZM46.7643 89.2865V95.5556H49.1291V89.2897L46.7643 89.2865ZM46.7643 89.2865V95.5556H49.1291V89.2897L46.7643 89.2865ZM43.7953 95.5556H46.165V89.2897H43.7953V95.5556ZM16.6574 89.3689V95.6396H19.0272V89.3689H16.6574ZM13.6917 95.6396H16.0565V89.3689H13.6917V95.6396ZM5.23372 71.7616V104.207H58.4465V71.8634L5.23372 71.7616ZM20.0351 96.7478V97.3325H12.6465V96.7284L11.9423 95.7721H12.7499V84.3484C12.7726 84.2386 12.8033 84.1306 12.842 84.0253C13.0843 83.3323 13.9001 81.7638 16.3021 81.7638C18.8769 81.7638 19.7654 83.4276 19.9867 83.9768C20.0303 84.0867 20.0481 84.1513 20.0481 84.1513V95.7818H20.5957L20.0351 96.7478ZM38.7732 84.7005L38.4356 85.4113H24.5193L24.2318 84.6036V84.2611H38.778L38.7732 84.7005ZM50.1404 96.6654V97.2501H42.7485V96.646L42.0475 95.6897H42.8551V84.266C42.8779 84.1562 42.9087 84.0482 42.9472 83.9429C43.1895 83.2483 44.0053 81.6814 46.4073 81.6814C48.9805 81.6814 49.869 83.3452 50.0919 83.8945C50.1355 84.0043 50.1533 84.0689 50.1533 84.0689V95.6994H50.6993L50.1404 96.6654ZM46.7594 95.5589H49.1243V89.2897H46.7643L46.7594 95.5589ZM43.7904 95.5589H46.1601V89.2897H43.7953L43.7904 95.5589ZM16.6526 95.6429H19.0223V89.3689H16.6574L16.6526 95.6429ZM13.6868 95.6429H16.0565V89.3689H13.6917L13.6868 95.6429ZM13.6868 89.3721V95.6429H16.0565V89.3689L13.6868 89.3721ZM16.6526 89.3721V95.6429H19.0223V89.3689L16.6526 89.3721ZM43.7904 89.2897V95.5589H46.1601V89.2897H43.7904ZM46.7594 89.2897V95.5589H49.1243V89.2897H46.7594ZM46.7594 89.2897V95.5589H49.1243V89.2897H46.7594ZM43.7904 89.2897V95.5589H46.1601V89.2897H43.7904ZM16.6526 89.3721V95.6429H19.0223V89.3689L16.6526 89.3721ZM13.6868 89.3721V95.6429H16.0565V89.3689L13.6868 89.3721ZM43.7904 89.2897V95.5589H46.1601V89.2897H43.7904ZM46.7594 89.2897V95.5589H49.1243V89.2897H46.7594ZM13.6917 89.3689V95.6396H16.0565V89.3689H13.6917ZM16.6574 89.3689V95.6396H19.0272V89.3689H16.6574ZM46.7643 89.2865V95.5556H49.1291V89.2897L46.7643 89.2865ZM43.7953 89.2865V95.5556H46.165V89.2897L43.7953 89.2865ZM16.6574 89.3689V95.6396H19.0272V89.3689H16.6574ZM13.6917 89.3689V95.6396H16.0565V89.3689H13.6917ZM13.6917 89.3689V95.6396H16.0565V89.3689H13.6917ZM16.6574 89.3689V95.6396H19.0272V89.3689H16.6574ZM43.7953 89.2865V95.5556H46.165V89.2897L43.7953 89.2865ZM46.7643 89.2865V95.5556H49.1291V89.2897L46.7643 89.2865ZM28.3057 58.3138V64.5846H30.6722V58.3138H28.3057ZM31.2699 58.3138V64.5846H33.6396V58.3138H31.2699ZM31.2699 58.3138V64.5846H33.6396V58.3138H31.2699ZM28.3057 58.3138V64.5846H30.6722V58.3138H28.3057ZM28.3057 58.3138V64.5846H30.6722V58.3138H28.3057ZM31.2699 58.3138V64.5846H33.6396V58.3138H31.2699ZM31.2699 58.3138V64.5846H33.6396V58.3138H31.2699ZM28.3057 58.3138V64.5846H30.6722V58.3138H28.3057ZM28.3057 58.3138V64.5846H30.6722V58.3138H28.3057ZM31.2699 58.3138V64.5846H33.6396V58.3138H31.2699ZM31.2699 58.3138V64.5846H33.6396V58.3138H31.2699ZM28.3057 64.5846H30.6722V58.3138H28.3057V64.5846ZM55.2061 56.9844L54.3887 56.7389H41.684L30.9339 36.0931L21.6456 57.5191L3.92368 57.2703V69.463H58.4465V54.7875L55.2061 56.9844ZM34.6524 65.6895V66.2694H27.259V65.6637L26.5563 64.7138H27.364V53.2901C27.3866 53.1803 27.4174 53.0723 27.456 52.967C27.6983 52.2724 28.5109 50.7056 30.9145 50.7056C33.4877 50.7056 34.3762 52.3694 34.5975 52.9202C34.6226 52.9768 34.6437 53.0351 34.6605 53.0947V64.7171H35.2081L34.6524 65.6895ZM31.2699 64.5846H33.6396V58.3138H31.2699V64.5846ZM28.3057 64.5846H30.6722V58.3138H28.3057V64.5846ZM28.3057 58.3138V64.5846H30.6722V58.3138H28.3057ZM31.2699 58.3138V64.5846H33.6396V58.3138H31.2699ZM31.2699 58.3138V64.5846H33.6396V58.3138H31.2699ZM28.3057 58.3138V64.5846H30.6722V58.3138H28.3057ZM28.3057 58.3138V64.5846H30.6722V58.3138H28.3057ZM31.2699 58.3138V64.5846H33.6396V58.3138H31.2699ZM31.2699 58.3138V64.5846H33.6396V58.3138H31.2699ZM28.3057 58.3138V64.5846H30.6722V58.3138H28.3057ZM28.3057 58.3138V64.5846H30.6722V58.3138H28.3057ZM31.2699 58.3138V64.5846H33.6396V58.3138H31.2699ZM46.7643 89.2897V95.5589H49.1291V89.2897H46.7643ZM43.7953 89.2897V95.5589H46.165V89.2897H43.7953ZM31.2699 58.3138V64.5846H33.6396V58.3138H31.2699ZM28.3057 58.3138V64.5846H30.6722V58.3138H28.3057ZM16.6574 89.3689V95.6396H19.0272V89.3689H16.6574ZM13.6917 89.3689V95.6396H16.0565V89.3689H13.6917ZM43.7953 89.2865V95.5556H46.165V89.2897L43.7953 89.2865ZM46.7643 89.2865V95.5556H49.1291V89.2897L46.7643 89.2865ZM13.6917 89.3689V95.6396H16.0565V89.3689H13.6917ZM16.6574 89.3689V95.6396H19.0272V89.3689H16.6574ZM28.3057 58.3106V64.5814H30.6722V58.3138L28.3057 58.3106ZM31.2699 58.3106V64.5814H33.6396V58.3138L31.2699 58.3106ZM46.7643 89.2897V95.5589H49.1291V89.2897H46.7643ZM43.7953 89.2897V95.5589H46.165V89.2897H43.7953ZM31.2699 58.3138V64.5846H33.6396V58.3138H31.2699ZM28.3057 58.3138V64.5846H30.6722V58.3138H28.3057ZM16.6574 89.3689V95.6396H19.0272V89.3689H16.6574ZM13.6917 89.3689V95.6396H16.0565V89.3689H13.6917ZM43.7953 89.2865V95.5556H46.165V89.2897L43.7953 89.2865ZM46.7643 89.2865V95.5556H49.1291V89.2897L46.7643 89.2865ZM13.6917 89.3689V95.6396H16.0565V89.3689H13.6917ZM16.6574 89.3689V95.6396H19.0272V89.3689H16.6574ZM28.3057 58.3106V64.5814H30.6722V58.3138L28.3057 58.3106ZM31.2699 58.3106V64.5814H33.6396V58.3138L31.2699 58.3106ZM46.7643 89.2897V95.5589H49.1291V89.2897H46.7643ZM43.7953 89.2897V95.5589H46.165V89.2897H43.7953ZM31.2699 58.3138V64.5846H33.6396V58.3138H31.2699ZM28.3057 58.3138V64.5846H30.6722V58.3138H28.3057ZM16.6574 89.3689V95.6396H19.0272V89.3689H16.6574ZM13.6917 89.3689V95.6396H16.0565V89.3689H13.6917ZM43.7953 89.2865V95.5556H46.165V89.2897L43.7953 89.2865ZM46.7643 89.2865V95.5556H49.1291V89.2897L46.7643 89.2865ZM13.6917 89.3689V95.6396H16.0565V89.3689H13.6917ZM16.6574 89.3689V95.6396H19.0272V89.3689H16.6574ZM28.3057 58.3106V64.5814H30.6722V58.3138L28.3057 58.3106ZM31.2699 58.3106V64.5814H33.6396V58.3138L31.2699 58.3106ZM46.7643 89.2897V95.5589H49.1291V89.2897H46.7643ZM43.7953 89.2897V95.5589H46.165V89.2897H43.7953ZM31.2699 58.3138V64.5846H33.6396V58.3138H31.2699ZM28.3057 58.3138V64.5846H30.6722V58.3138H28.3057ZM16.6574 89.3689V95.6396H19.0272V89.3689H16.6574ZM13.6917 89.3689V95.6396H16.0565V89.3689H13.6917ZM13.6917 89.3689V95.6396H16.0565V89.3689H13.6917ZM16.6574 89.3689V95.6396H19.0272V89.3689H16.6574ZM28.3057 58.3106V64.5814H30.6722V58.3138L28.3057 58.3106ZM31.2699 58.3106V64.5814H33.6396V58.3138L31.2699 58.3106ZM31.2699 58.3106V64.5814H33.6396V58.3138L31.2699 58.3106ZM28.3057 58.3106V64.5814H30.6722V58.3138L28.3057 58.3106ZM16.6574 89.3689V95.6396H19.0272V89.3689H16.6574ZM13.6917 89.3689V95.6396H16.0565V89.3689H13.6917ZM28.3057 58.3106V64.5814H30.6722V58.3138L28.3057 58.3106ZM31.2699 58.3106V64.5814H33.6396V58.3138L31.2699 58.3106ZM31.2699 58.3106V64.5814H33.6396V58.3138L31.2699 58.3106ZM28.3057 58.3106V64.5814H30.6722V58.3138L28.3057 58.3106Z" stroke="#BD6F6D" stroke-width="0.143706" stroke-miterlimit="10"/>
<path d="M66.8359 89.2897V95.5589H69.2008V89.2897H66.8359ZM69.8017 89.2897V95.5589H72.1714V89.2897H69.8017ZM69.8017 89.2897V95.5589H72.1714V89.2897H69.8017ZM66.8359 89.2897V95.5589H69.2008V89.2897H66.8359ZM66.8359 89.2897V95.5589H69.2008V89.2897H66.8359ZM69.8017 89.2897V95.5589H72.1714V89.2897H69.8017ZM69.8017 89.2897V95.5589H72.1714V89.2897H69.8017ZM66.8359 89.2897V95.5589H69.2008V89.2897H66.8359ZM66.8359 89.2897V95.5589H69.2008V89.2897H66.8359ZM66.8521 58.3009V64.5717H69.2185V58.3009H66.8521ZM69.8017 89.2897V95.5589H72.1714V89.2897H69.8017ZM69.8178 58.3009V64.5717H72.1843V58.3009H69.8178ZM69.8178 58.3009V64.5717H72.1843V58.3009H69.8178ZM66.8521 58.3009V64.5717H69.2185V58.3009H66.8521ZM69.8017 89.2897V95.5589H72.1714V89.2897H69.8017ZM66.8359 89.2897V95.5589H69.2008V89.2897H66.8359ZM66.8359 89.2897V95.5589H69.2008V89.2897H66.8359ZM69.8017 89.2897V95.5589H72.1714V89.2897H69.8017ZM69.8017 89.2897V95.5589H72.1714V89.2897H69.8017ZM66.8359 89.2897V95.5589H69.2008V89.2897H66.8359ZM66.8359 89.2897V95.5589H69.2008V89.2897H66.8359ZM69.8017 89.2897V95.5589H72.1714V89.2897H69.8017ZM69.8017 89.2897V95.5589H72.1714V89.2897H69.8017ZM66.8359 89.2897V95.5589H69.2008V89.2897H66.8359ZM66.8359 89.2897V95.5589H69.2008V89.2897H66.8359ZM69.8017 89.2897V95.5589H72.1714V89.2897H69.8017ZM69.8017 89.2897V95.5589H72.1714V89.2897H69.8017ZM66.8359 89.2897V95.5589H69.2008V89.2897H66.8359ZM66.8359 89.2897V95.5589H69.2008V89.2897H66.8359ZM69.8017 89.2897V95.5589H72.1714V89.2897H69.8017ZM69.8017 89.2897V95.5589H72.1714V89.2897H69.8017ZM66.8359 95.5589H69.2008V89.2897H66.8359V95.5589ZM58.4458 71.8634V103.573H80.253V71.8634H58.4458ZM73.1842 96.6654V97.2502H65.7892V96.646L65.0865 95.6897H65.8942V84.266C65.917 84.1562 65.9477 84.0482 65.9862 83.9429C66.2285 83.2483 67.0443 81.6815 69.4463 81.6815C72.0196 81.6815 72.908 83.3453 73.1309 83.8945C73.1745 84.0043 73.1923 84.0689 73.1923 84.0689V95.6994H73.7237L73.1842 96.6654ZM69.8017 95.5589H72.1714V89.2897H69.8017V95.5589ZM66.8359 95.5589H69.2008V89.2897H66.8359V95.5589ZM66.8359 89.2897V95.5589H69.2008V89.2897H66.8359ZM69.8017 89.2897V95.5589H72.1714V89.2897H69.8017ZM69.8017 89.2897V95.5589H72.1714V89.2897H69.8017ZM66.8359 89.2897V95.5589H69.2008V89.2897H66.8359ZM66.8359 89.2897V95.5589H69.2008V89.2897H66.8359ZM69.8017 89.2897V95.5589H72.1714V89.2897H69.8017ZM69.8017 89.2897V95.5589H72.1714V89.2897H69.8017ZM66.8359 89.2897V95.5589H69.2008V89.2897H66.8359ZM66.8359 89.2897V95.5589H69.2008V89.2897H66.8359ZM69.8017 89.2897V95.5589H72.1714V89.2897H69.8017ZM69.8017 89.2897V95.5589H72.1714V89.2897H69.8017ZM66.8359 89.2897V95.5589H69.2008V89.2897H66.8359ZM66.8359 89.2897V95.5589H69.2008V89.2897H66.8359ZM69.8017 89.2897V95.5589H72.1714V89.2897H69.8017ZM66.8521 58.3009V64.5717H69.2185V58.3009H66.8521ZM69.8178 58.3009V64.5717H72.1843V58.3009H69.8178ZM69.8178 58.3009V64.5717H72.1843V58.3009H69.8178ZM66.8521 58.3009V64.5717H69.2185V58.3009H66.8521ZM66.8521 58.3009V64.5717H69.2185V58.3009H66.8521ZM69.8178 58.3009V64.5717H72.1843V58.3009H69.8178ZM69.8178 58.3009V64.5717H72.1843V58.3009H69.8178ZM66.8521 58.3009V64.5717H69.2185V58.3009H66.8521ZM66.8521 58.3009V64.5717H69.2185V58.3009H66.8521ZM69.8178 58.3009V64.5717H72.1843V58.3009H69.8178ZM69.8178 58.3009V64.5717H72.1843V58.3009H69.8178ZM66.8521 58.3009V64.5717H69.2185V58.3009H66.8521ZM66.8521 58.3009V64.5717H69.2185V58.3009H66.8521ZM69.8178 58.3009V64.5717H72.1843V58.3009H69.8178ZM69.8178 58.3009V64.5717H72.1843V58.3009H69.8178ZM66.8521 64.5717H69.2185V58.3009H66.8521V64.5717ZM58.4523 47.021V69.463H80.2594V47.021H58.4523ZM73.2068 65.6766V66.2694H65.8086V65.6637L65.1059 64.7074H65.9136V53.2772C65.9361 53.1674 65.9669 53.0594 66.0056 52.9541V52.9541C66.2495 52.2595 67.0653 50.6926 69.4657 50.6926C72.0373 50.6926 72.9258 52.3565 73.1471 52.9073C73.1721 52.9641 73.1937 53.0223 73.2117 53.0817V64.7042H73.7593L73.2068 65.6766ZM69.8243 64.5717H72.1908V58.3009H69.8178L69.8243 64.5717ZM66.8585 64.5717H69.225V58.3009H66.8521L66.8585 64.5717ZM66.8585 58.3009V64.5717H69.225V58.3009H66.8585ZM69.8243 58.3009V64.5717H72.1908V58.3009H69.8243ZM69.8243 58.3009V64.5717H72.1908V58.3009H69.8243ZM66.8585 58.3009V64.5717H69.225V58.3009H66.8585ZM66.8585 58.3009V64.5717H69.225V58.3009H66.8585ZM69.8243 58.3009V64.5717H72.1908V58.3009H69.8243ZM69.8243 58.3009V64.5717H72.1908V58.3009H69.8243ZM66.8585 58.3009V64.5717H69.225V58.3009H66.8585ZM66.8585 58.3009V64.5717H69.225V58.3009H66.8585ZM69.8243 58.3009V64.5717H72.1908V58.3009H69.8243ZM58.4458 38.2916V44.5236H80.253V38.2916H58.4458ZM69.8178 58.3009V64.5717H72.1843V58.3009H69.8178ZM66.8521 58.3009V64.5717H69.2185V58.3009H66.8521ZM66.8521 58.3009V64.5717H69.2185V58.3009H66.8521ZM69.8178 58.3009V64.5717H72.1843V58.3009H69.8178ZM69.8178 58.3009V64.5717H72.1843V58.3009H69.8178ZM69.8017 89.2897V95.5589H72.1714V89.2897H69.8017ZM66.8521 58.3009V64.5717H69.2185V58.3009H66.8521ZM66.8359 89.2897V95.5589H69.2008V89.2897H66.8359ZM66.8359 89.2897V95.5589H69.2008V89.2897H66.8359ZM69.8017 89.2897V95.5589H72.1714V89.2897H69.8017ZM66.8521 58.3009V64.5717H69.2185V58.3009H66.8521ZM69.8178 58.3009V64.5717H72.1843V58.3009H69.8178ZM69.8178 58.3009V64.5717H72.1843V58.3009H69.8178ZM69.8017 89.2897V95.5589H72.1714V89.2897H69.8017ZM66.8521 58.3009V64.5717H69.2185V58.3009H66.8521ZM66.8359 89.2897V95.5589H69.2008V89.2897H66.8359ZM66.8359 89.2897V95.5589H69.2008V89.2897H66.8359ZM69.8017 89.2897V95.5589H72.1714V89.2897H69.8017ZM69.8017 89.2897V95.5589H72.1714V89.2897H69.8017ZM66.8359 89.2897V95.5589H69.2008V89.2897H66.8359ZM66.8359 89.2897V95.5589H69.2008V89.2897H66.8359ZM69.8017 89.2897V95.5589H72.1714V89.2897H69.8017ZM69.8017 89.2897V95.5589H72.1714V89.2897H69.8017ZM66.8359 89.2897V95.5589H69.2008V89.2897H66.8359Z" stroke="#BD6F6D" stroke-width="0.143706" stroke-miterlimit="10"/>
<path d="M37.7988 84.2677H25.1183V84.216C25.1183 84.216 25.8969 79.2972 31.5183 79.2972C36.8942 79.2972 37.7374 83.8767 37.7988 84.2677Z" fill="#BD6F6D"/>
<path d="M37.802 85.413H25.1183V103.495H37.802V85.413Z" stroke="#BD6F6D" stroke-width="0.143706" stroke-miterlimit="10"/>
<path d="M38.7758 84.2676V84.7021L38.4382 85.4129H24.5172L24.2329 84.61V84.2676H38.7758Z" stroke="#BD6F6D" stroke-width="0.143706" stroke-miterlimit="10"/>
<path d="M31.4597 85.6198H26.0014V103.495H31.4597V85.6198Z" stroke="#BD6F6D" stroke-width="0.143706" stroke-miterlimit="10"/>
<path d="M37.1383 85.6198H31.6801V103.495H37.1383V85.6198Z" stroke="#BD6F6D" stroke-width="0.143706" stroke-miterlimit="10"/>
<path d="M30.3472 86.0106H26.9905V93.3863H30.3472V86.0106Z" fill="#BD6F6D"/>
<path d="M35.9478 86.0106H32.5911V93.3863H35.9478V86.0106Z" fill="#BD6F6D"/>
<path d="M30.3472 94.5574H26.9905V96.646H30.3472V94.5574Z" fill="#BD6F6D"/>
<path d="M30.3472 97.6605H26.9905V102.169H30.3472V97.6605Z" fill="#BD6F6D"/>
<path d="M35.9478 94.5574H32.5911V96.646H35.9478V94.5574Z" fill="#BD6F6D"/>
<path d="M35.9478 97.6605H32.5911V102.169H35.9478V97.6605Z" fill="#BD6F6D"/>
<path d="M69.8176 58.3009V64.5717H72.184V58.3009H69.8176ZM66.8518 64.5717H69.2183V58.3009H66.8518V64.5717Z" stroke="#BD6F6D" stroke-width="0.143706" stroke-miterlimit="10"/>
<path d="M73.1361 52.9041C72.9148 52.3533 72.0263 50.6895 69.4547 50.6895C67.0543 50.6895 66.2386 52.258 65.9946 52.9509C65.9559 53.0562 65.9251 53.1642 65.9026 53.274V64.6977H73.2007V53.0786C73.1827 53.0191 73.1611 52.9609 73.1361 52.9041V52.9041ZM69.2189 64.5717H66.8524V58.301H69.2189V64.5717ZM69.2189 57.5983H66.8524V53.799C66.85 53.5705 66.8788 53.3428 66.938 53.1222C67.3612 51.5957 69.2189 51.7184 69.2189 51.7184V57.5983ZM72.1846 64.5717H69.8182V58.301H72.1846V64.5717ZM72.1846 57.5983H69.8182V51.7184C69.8182 51.7184 71.6758 51.5957 72.0974 53.1222C72.1579 53.3426 72.1873 53.5704 72.1846 53.799V57.5983Z" stroke="#BD6F6D" stroke-width="0.143706" stroke-miterlimit="10"/>
<path d="M74.2945 52.1852L73.1362 52.904C72.9149 52.3532 72.0265 50.6894 69.4549 50.6894C67.0545 50.6894 66.2387 52.2579 65.9948 52.9509L64.9254 52.1836C64.9254 52.1836 66.7233 49.3486 69.5502 49.3486C72.377 49.3486 74.2945 52.1852 74.2945 52.1852Z" stroke="#BD6F6D" stroke-width="0.143706" stroke-miterlimit="10"/>
<path d="M69.2184 51.7184V57.5983H66.8519V53.799C66.8496 53.5705 66.8784 53.3428 66.9375 53.1222C67.3608 51.5957 69.2184 51.7184 69.2184 51.7184Z" stroke="#BD6F6D" stroke-width="0.143706" stroke-miterlimit="10"/>
<path d="M69.2199 58.3009H66.8518V64.5717H69.2199V58.3009Z" stroke="#BD6F6D" stroke-width="0.143706" stroke-miterlimit="10"/>
<path d="M72.1863 58.3009H69.8182V64.5717H72.1863V58.3009Z" stroke="#BD6F6D" stroke-width="0.143706" stroke-miterlimit="10"/>
<path d="M72.1847 53.799V57.5983H69.8182V51.7184C69.8182 51.7184 71.6759 51.5957 72.0975 53.1222C72.158 53.3426 72.1874 53.5704 72.1847 53.799V53.799Z" stroke="#BD6F6D" stroke-width="0.143706" stroke-miterlimit="10"/>
<path d="M73.7461 64.7009L73.1985 65.6766V66.263H65.805V65.6572L65.1024 64.7009H73.7461Z" stroke="#BD6F6D" stroke-width="0.143706" stroke-miterlimit="10"/>
<path d="M31.2697 58.3138V64.5846H33.6394V58.3138H31.2697ZM28.3056 64.5846H30.6721V58.3138H28.3056V64.5846Z" stroke="#BD6F6D" stroke-width="0.143706" stroke-miterlimit="10"/>
<path d="M34.589 52.9169C34.3677 52.3661 33.4793 50.7023 30.9061 50.7023C28.5024 50.7023 27.6899 52.274 27.4476 52.9638C27.4089 53.069 27.3782 53.177 27.3555 53.2868V64.7105H34.652V53.0914C34.6352 53.0318 34.6142 52.9735 34.589 52.9169V52.9169ZM30.6718 64.5846H28.3053V58.3138H30.6718V64.5846ZM30.6718 57.6111H28.3053V53.8118C28.303 53.5834 28.3318 53.3557 28.391 53.135C28.8142 51.6085 30.6718 51.7312 30.6718 51.7312V57.6111ZM33.6392 64.5846H31.2695V58.3138H33.6392V64.5846ZM33.6392 57.6111H31.2695V51.7312C31.2695 51.7312 33.1272 51.6085 33.5504 53.135C33.6123 53.3552 33.6422 53.5831 33.6392 53.8118V57.6111Z" stroke="#BD6F6D" stroke-width="0.143706" stroke-miterlimit="10"/>
<path d="M35.7474 52.1998L34.5892 52.917C34.3679 52.3662 33.4794 50.7024 30.9062 50.7024C28.5026 50.7024 27.69 52.2741 27.4477 52.9639L26.38 52.1949C26.38 52.1949 28.1763 49.3584 31.0031 49.3584C33.83 49.3584 35.7474 52.1998 35.7474 52.1998Z" stroke="#BD6F6D" stroke-width="0.143706" stroke-miterlimit="10"/>
<path d="M30.6714 51.7314V57.6112H28.3049V53.8119C28.3026 53.5835 28.3314 53.3558 28.3905 53.1351C28.817 51.6086 30.6714 51.7314 30.6714 51.7314Z" stroke="#BD6F6D" stroke-width="0.143706" stroke-miterlimit="10"/>
<path d="M30.6737 58.3138H28.3056V64.5846H30.6737V58.3138Z" stroke="#BD6F6D" stroke-width="0.143706" stroke-miterlimit="10"/>
<path d="M33.6377 58.3138H31.2696V64.5846H33.6377V58.3138Z" stroke="#BD6F6D" stroke-width="0.143706" stroke-miterlimit="10"/>
<path d="M33.6393 53.8119V57.6112H31.2696V51.7314C31.2696 51.7314 33.1273 51.6086 33.5505 53.1351C33.6124 53.3553 33.6423 53.5832 33.6393 53.8119Z" stroke="#BD6F6D" stroke-width="0.143706" stroke-miterlimit="10"/>
<path d="M35.1983 64.7139L34.6539 65.6895V66.2759H27.2588V65.6702L26.5562 64.7139H35.1983Z" stroke="#BD6F6D" stroke-width="0.143706" stroke-miterlimit="10"/>
<path d="M20.5884 95.7738L20.0408 96.7495V97.3342H12.6442V96.7301L11.9431 95.7738H20.5884Z" stroke="#BD6F6D" stroke-width="0.143706" stroke-miterlimit="10"/>
<path d="M16.059 89.3721H13.6909V95.6428H16.059V89.3721Z" stroke="#BD6F6D" stroke-width="0.143706" stroke-miterlimit="10"/>
<path d="M19.0255 89.3721H16.6574V95.6428H19.0255V89.3721Z" stroke="#BD6F6D" stroke-width="0.143706" stroke-miterlimit="10"/>
<path d="M19.9784 83.9752C19.7571 83.426 18.8687 81.7622 16.2938 81.7622C13.8918 81.7622 13.0761 83.3339 12.8338 84.0237C12.7951 84.129 12.7643 84.2369 12.7417 84.3468V95.7721H20.0398V84.1416C20.0398 84.1416 20.0221 84.0851 19.9784 83.9752ZM16.0564 95.6429H13.6915V89.3689H16.0564V95.6429ZM16.0564 88.6694H13.6915V84.8717C13.6889 84.6432 13.7182 84.4154 13.7787 84.1949C14.2036 82.6668 16.0612 82.7896 16.0612 82.7896L16.0564 88.6694ZM19.0222 95.6429H16.6573V89.3689H19.027L19.0222 95.6429ZM19.0222 88.6694H16.6573V82.7896C16.6573 82.7896 18.5149 82.6668 18.9398 84.1949C19.0003 84.4154 19.0297 84.6432 19.027 84.8717L19.0222 88.6694Z" stroke="#BD6F6D" stroke-width="0.143706" stroke-miterlimit="10"/>
<path d="M21.1327 83.258L19.9778 83.9752C19.7565 83.426 18.868 81.7622 16.2932 81.7622C13.8911 81.7622 13.0754 83.3339 12.8331 84.0237L11.767 83.2548C11.767 83.2548 13.5632 80.4182 16.3917 80.4182C19.2202 80.4182 21.1327 83.258 21.1327 83.258Z" stroke="#BD6F6D" stroke-width="0.143706" stroke-miterlimit="10"/>
<path d="M16.056 82.7896V88.6694H13.6911V84.8718C13.6884 84.6432 13.7178 84.4154 13.7783 84.1949C14.2031 82.6668 16.056 82.7896 16.056 82.7896Z" stroke="#BD6F6D" stroke-width="0.143706" stroke-miterlimit="10"/>
<path d="M16.059 89.3721H13.6909V95.6428H16.059V89.3721Z" stroke="#BD6F6D" stroke-width="0.143706" stroke-miterlimit="10"/>
<path d="M19.0255 89.3721H16.6574V95.6428H19.0255V89.3721Z" stroke="#BD6F6D" stroke-width="0.143706" stroke-miterlimit="10"/>
<path d="M19.0271 84.8718V88.6694H16.6574V82.7896C16.6574 82.7896 18.515 82.6668 18.9399 84.1949C19.0004 84.4154 19.0298 84.6432 19.0271 84.8718V84.8718Z" stroke="#BD6F6D" stroke-width="0.143706" stroke-miterlimit="10"/>
<path d="M46.1634 89.2898H43.7953V95.5589H46.1634V89.2898Z" stroke="#BD6F6D" stroke-width="0.143706" stroke-miterlimit="10"/>
<path d="M49.1306 89.2898H46.7641V95.5589H49.1306V89.2898Z" stroke="#BD6F6D" stroke-width="0.143706" stroke-miterlimit="10"/>
<path d="M50.0836 83.8912C49.8607 83.342 48.9723 81.6782 46.399 81.6782C43.997 81.6782 43.1812 83.2483 42.9389 83.9397C42.9004 84.045 42.8697 84.153 42.8469 84.2628V95.6865H50.1401V84.056C50.1401 84.056 50.1272 84.0011 50.0836 83.8912ZM46.1648 95.5589H43.7951V89.2897H46.1648V95.5589ZM46.1648 88.587H43.7951V84.7878C43.7924 84.5592 43.8218 84.3314 43.8823 84.1109C44.3071 82.5844 46.1648 82.7056 46.1648 82.7056V88.587ZM49.1289 95.5589H46.7641V89.2897H49.1289V95.5589ZM49.1289 88.587H46.7641V82.7056C46.7641 82.7056 48.6201 82.5844 49.0449 84.1109C49.1027 84.3318 49.131 84.5594 49.1289 84.7878V88.587Z" stroke="#BD6F6D" stroke-width="0.143706" stroke-miterlimit="10"/>
<path d="M46.1644 82.7056V88.5871H43.7947V84.7878C43.792 84.5592 43.8214 84.3314 43.8819 84.111C44.3067 82.5845 46.1644 82.7056 46.1644 82.7056Z" stroke="#BD6F6D" stroke-width="0.143706" stroke-miterlimit="10"/>
<path d="M51.2371 83.1741L50.0837 83.8913C49.8608 83.3421 48.9724 81.6783 46.3991 81.6783C43.9971 81.6783 43.1814 83.2484 42.9391 83.9398L41.8729 83.1709C41.8729 83.1709 43.666 80.3359 46.4977 80.3359C49.3294 80.3359 51.2371 83.1741 51.2371 83.1741Z" stroke="#BD6F6D" stroke-width="0.143706" stroke-miterlimit="10"/>
<path d="M46.1634 89.2898H43.7953V95.5589H46.1634V89.2898Z" stroke="#BD6F6D" stroke-width="0.143706" stroke-miterlimit="10"/>
<path d="M49.1306 89.2898H46.7641V95.5589H49.1306V89.2898Z" stroke="#BD6F6D" stroke-width="0.143706" stroke-miterlimit="10"/>
<path d="M49.129 84.7878V88.5871H46.7641V82.7056C46.7641 82.7056 48.6202 82.5845 49.045 84.111C49.1028 84.3319 49.131 84.5595 49.129 84.7878Z" stroke="#BD6F6D" stroke-width="0.143706" stroke-miterlimit="10"/>
<path d="M50.6904 95.6897L50.1445 96.6654V97.2501H42.7494V96.646L42.0451 95.6897H50.6904Z" stroke="#BD6F6D" stroke-width="0.143706" stroke-miterlimit="10"/>
<path d="M69.8016 89.2898V95.5589H72.1713V89.2898H69.8016ZM66.8358 95.5589H69.2007V89.2898H66.8358V95.5589Z" stroke="#BD6F6D" stroke-width="0.143706" stroke-miterlimit="10"/>
<path d="M73.1234 83.8912C72.9005 83.342 72.012 81.6782 69.4388 81.6782C67.0368 81.6782 66.221 83.2483 65.9787 83.9397C65.9402 84.045 65.9094 84.153 65.8866 84.2628V95.6865H73.1848V84.056C73.1848 84.056 73.167 84.0011 73.1234 83.8912ZM69.2013 95.5589H66.8365V89.2897H69.2013V95.5589ZM69.2013 88.587H66.8365V84.7878C66.8338 84.5592 66.8632 84.3314 66.9237 84.1109C67.3485 82.5844 69.2046 82.7056 69.2046 82.7056L69.2013 88.587ZM72.1687 95.5589H69.8022V89.2897H72.1719L72.1687 95.5589ZM72.1687 88.587H69.8022V82.7056C69.8022 82.7056 71.6599 82.5844 72.0847 84.1109C72.1452 84.3314 72.1746 84.5592 72.1719 84.7878L72.1687 88.587Z" stroke="#BD6F6D" stroke-width="0.143706" stroke-miterlimit="10"/>
<path d="M74.2768 83.1741L73.1235 83.8913C72.9006 83.3421 72.0121 81.6783 69.4389 81.6783C67.0369 81.6783 66.2211 83.2484 65.9788 83.9398L64.9127 83.1709C64.9127 83.1709 66.7057 80.3359 69.5374 80.3359C72.3691 80.3359 74.2768 83.1741 74.2768 83.1741Z" stroke="#BD6F6D" stroke-width="0.143706" stroke-miterlimit="10"/>
<path d="M69.2009 82.7056V88.5871H66.836V84.7878C66.8334 84.5592 66.8627 84.3314 66.9232 84.111C67.3481 82.5845 69.2009 82.7056 69.2009 82.7056Z" stroke="#BD6F6D" stroke-width="0.143706" stroke-miterlimit="10"/>
<path d="M69.2023 89.2898H66.8358V95.5589H69.2023V89.2898Z" stroke="#BD6F6D" stroke-width="0.143706" stroke-miterlimit="10"/>
<path d="M72.1704 89.2898H69.8023V95.5589H72.1704V89.2898Z" stroke="#BD6F6D" stroke-width="0.143706" stroke-miterlimit="10"/>
<path d="M72.172 84.7878V88.5871H69.8023V82.7056C69.8023 82.7056 71.6599 82.5845 72.0848 84.111C72.1453 84.3314 72.1747 84.5592 72.172 84.7878V84.7878Z" stroke="#BD6F6D" stroke-width="0.143706" stroke-miterlimit="10"/>
<path d="M73.7302 95.6897L73.1842 96.6654V97.2501H65.7891V96.646L65.0848 95.6897H73.7302Z" stroke="#BD6F6D" stroke-width="0.143706" stroke-miterlimit="10"/>
<path d="M82.5679 69.463L82.3321 70.6131H81.6116L81.2191 71.8634H4.94083L4.5483 70.6632H3.76971L3.59848 69.463H82.5679Z" fill="#BD6F6D"/>
<path d="M82.4883 44.5237V45.8499H81.7065L81.2784 47.021H57.6669L57.1984 45.7723H56.4182V44.5237H82.4883Z" fill="#BD6F6D"/>
<path d="M82.4886 36.2369V37.1076H81.6308L81.2981 38.2917H57.7172L57.2488 37.1205H56.5202V36.2369H82.4886Z" fill="#BD6F6D"/>
<path d="M83.9992 35.5084L83.3482 36.2369H55.7145L69.8568 1.00623L83.9992 35.5084Z" fill="#BD6F6D"/>
<path d="M56.4187 44.5237V45.7723H57.1989L57.6674 47.021H58.446V57.7146H39.5545L30.9334 36.0932L21.6452 57.7146H0.098053L8.6077 39.7616H27.6946L30.9706 32.5814L34.0171 39.8408H58.446V44.5237H56.4187Z" fill="#BD6F6D"/>
</g>
<defs>
<clipPath id="clip0">
<rect width="84.0005" height="111.516" fill="white" transform="translate(0 0.980957)"/>
</clipPath>
</defs>
</svg>
