<svg width="158" height="124" viewBox="0 0 158 124" fill="none" xmlns="http://www.w3.org/2000/svg">
<g clip-path="url(#clip0)">
<path d="M40.8161 119.284V122.981H116.188V119.22H105.377V118.136H51.6278V119.22H51.4277L40.8161 119.284Z" fill="#BD6F6D"/>
<path d="M112.82 84.537V119.22H116.188V84.444L114.686 78.0654L114.446 77.05L112.82 84.537Z" stroke="#BD6F6D" stroke-width="0.525862" stroke-miterlimit="10"/>
<path d="M105.376 72.2534V88.7017H112.82V84.537L114.446 77.05L114.686 78.0654V71.9498H113.837V72.2534H105.376Z" stroke="#BD6F6D" stroke-width="0.525862" stroke-miterlimit="10"/>
<path d="M105.377 88.7017H112.82V119.22H105.377V88.7017Z" stroke="#BD6F6D" stroke-width="0.525862" stroke-miterlimit="10"/>
<path d="M89.0642 72.2201H93.4984V94.7927H89.0642V72.2201Z" stroke="#BD6F6D" stroke-width="0.525862" stroke-miterlimit="10"/>
<path d="M89.0642 96.3368H93.4984V118.137H89.0642V96.3368Z" stroke="#BD6F6D" stroke-width="0.525862" stroke-miterlimit="10"/>
<path d="M89.0642 94.7926H93.4984V96.3368H89.0642V94.7926Z" stroke="#BD6F6D" stroke-width="0.525862" stroke-miterlimit="10"/>
<path d="M89.0642 50.2242V72.2201H93.4984V50.1545L93.4954 50.1414L93.4322 49.7681L93.2923 48.9633L93.1434 48.1033V48.1019L92.1717 42.4729L91.3174 37.5194L89.1454 49.7681L89.0792 50.1414L89.0642 50.2242Z" stroke="#BD6F6D" stroke-width="0.525862" stroke-miterlimit="10"/>
<path d="M100.942 50.2242V118.137H105.377V50.1545L103.196 37.5194L102.295 42.6036L102.206 43.1004L101.318 48.1033L101.145 49.0781L100.942 50.2242Z" stroke="#BD6F6D" stroke-width="0.525862" stroke-miterlimit="10"/>
<path d="M93.1434 48.1019V48.1033L93.2923 48.9633L93.4322 49.7681L93.4954 50.1414L93.4984 50.1545V118.137H100.942V50.2242L100.957 50.1414L101.024 49.7681L101.145 49.0781L101.318 48.1033L97.1685 39.4965L93.1434 48.1019Z" stroke="#BD6F6D" stroke-width="0.525862" stroke-miterlimit="10"/>
<path d="M97.0106 16.3312H97.349L97.182 15.4073L97.0106 16.3312Z" fill="#BD6F6D" stroke="#BD6F6D" stroke-width="0.525862" stroke-miterlimit="10"/>
<path d="M92.1716 42.4729L93.1433 48.1018L97.1684 39.4964L101.318 48.1033L102.206 43.1004L97.4707 16.9979L97.3489 16.3312H97.0104L96.8871 16.9979L92.1716 42.4729Z" fill="#BD6F6D"/>
<path d="M40.8161 84.444V119.22H44.1838V84.537L42.5564 77.05L42.3172 78.0654L40.8161 84.444Z" stroke="#BD6F6D" stroke-width="0.525862" stroke-miterlimit="10"/>
<path d="M42.3171 71.9498V78.0654L42.5563 77.05L44.1837 84.537V88.7017H51.6277V72.2534H43.1654V71.9498H42.3171Z" stroke="#BD6F6D" stroke-width="0.525862" stroke-miterlimit="10"/>
<path d="M44.1837 88.7017H51.6277V119.22H44.1837V88.7017Z" stroke="#BD6F6D" stroke-width="0.525862" stroke-miterlimit="10"/>
<path d="M63.5059 72.2201H67.9385V94.7956H63.5059V72.2201Z" stroke="#BD6F6D" stroke-width="0.525862" stroke-miterlimit="10"/>
<path d="M63.5059 96.3397H67.9385V118.137H63.5059V96.3397Z" stroke="#BD6F6D" stroke-width="0.525862" stroke-miterlimit="10"/>
<path d="M63.5059 94.7955H67.9385V96.3397H63.5059V94.7955Z" stroke="#BD6F6D" stroke-width="0.525862" stroke-miterlimit="10"/>
<path d="M63.5059 50.1545V72.2201H67.9385V50.2242L67.9325 50.1893L67.8663 49.8146L65.6853 37.5194L64.9273 41.9078V41.9107L64.7844 42.7416V42.7431L63.8608 48.1004L63.7119 48.9633L63.5645 49.8146L63.5059 50.1545Z" stroke="#BD6F6D" stroke-width="0.525862" stroke-miterlimit="10"/>
<path d="M51.6278 50.1545V118.137H56.062V50.2242L55.8589 49.0781L55.6859 48.1004L54.7097 42.6051V42.6036L53.8088 37.5194L51.6278 50.1545Z" stroke="#BD6F6D" stroke-width="0.525862" stroke-miterlimit="10"/>
<path d="M55.6858 48.1004L55.8588 49.0781L55.9896 49.8146L56.0558 50.1893L56.0618 50.2242V118.137H63.5058V50.1545L63.5645 49.8146L63.7119 48.9633L63.8608 48.1004L59.8342 39.4965L55.6858 48.1004Z" stroke="#BD6F6D" stroke-width="0.525862" stroke-miterlimit="10"/>
<path d="M59.6493 16.3312H59.9892L59.8223 15.4073L59.6493 16.3312Z" fill="#BD6F6D" stroke="#BD6F6D" stroke-width="0.525862" stroke-miterlimit="10"/>
<path d="M54.7097 42.6036V42.6051L55.6859 48.1004L59.8343 39.4964L63.8609 48.1004L64.7844 42.7431V42.7416L60.111 16.9979L59.9892 16.3312H59.6493L59.5229 16.9979L54.7097 42.6036Z" fill="#BD6F6D"/>
<path d="M88.3994 70.6759H105.989V72.2201H88.3994V70.6759Z" fill="#BD6F6D"/>
<path d="M50.9524 70.6759H68.5417V72.2201H50.9524V70.6759Z" fill="#BD6F6D"/>
<path d="M88.4369 94.7926V96.113L88.6836 96.3368H106.025V94.7926H88.4369Z" fill="#BD6F6D"/>
<path d="M50.9524 94.7955V96.3397H68.2605L68.5417 96.0855V94.7955H50.9524Z" fill="#BD6F6D"/>
<path d="M63.2758 58.5594H68.3507V58.9342H63.2758V58.5594Z" fill="#BD6F6D"/>
<path d="M63.2758 49.8146H68.3507V50.1894H63.2758V49.8146Z" fill="#BD6F6D"/>
<path d="M51.2036 58.5594H56.2785V58.9342H51.2036V58.5594Z" fill="#BD6F6D"/>
<path d="M51.2036 49.8146H56.2785V50.1894H51.2036V49.8146Z" fill="#BD6F6D"/>
<path d="M100.73 58.5129H105.805V58.8877H100.73V58.5129Z" fill="#BD6F6D"/>
<path d="M100.73 49.7681H105.805V50.1428H100.73V49.7681Z" fill="#BD6F6D"/>
<path d="M88.658 58.5129H93.7329V58.8877H88.658V58.5129Z" fill="#BD6F6D"/>
<path d="M88.658 49.7681H93.7329V50.1428H88.658V49.7681Z" fill="#BD6F6D"/>
<path d="M67.9386 72.22V75.7615L69.8007 74.0082L70.3467 73.494L78.3999 65.9126L78.5488 65.7717L78.6962 65.9126L86.65 73.494L87.1885 74.0082L89.0642 75.7949V72.22H88.3994V71.3077L82.261 65.381L79.4753 62.6907H77.5455L75.0366 65.0933L68.5418 71.3092V72.22H67.9386Z" fill="#BD6F6D"/>
<path d="M88.3994 71.3077V72.22H89.344L88.3994 71.3077Z" stroke="#BD6F6D" stroke-width="0.525862" stroke-miterlimit="10"/>
<path d="M67.5911 72.22H68.5417V71.3092L67.9386 71.8874L67.5911 72.22Z" stroke="#BD6F6D" stroke-width="0.525862" stroke-miterlimit="10"/>
<path d="M88.4369 94.7926V96.113L88.6836 96.3368H89.9486V94.7926H88.4369Z" stroke="#BD6F6D" stroke-width="0.525862" stroke-miterlimit="10"/>
<path d="M65.723 118.136H89.9486V119.22H65.723V118.136Z" stroke="#BD6F6D" stroke-width="0.525862" stroke-miterlimit="10"/>
<path d="M65.723 94.7955V96.3397H68.2605L68.5417 96.0855V94.7955H65.723Z" stroke="#BD6F6D" stroke-width="0.525862" stroke-miterlimit="10"/>
<path d="M89.0642 96.3368V96.6767L88.6836 96.3339L89.0642 96.3368ZM83.9892 93.709H79.2407V89.2683L83.9892 93.709ZM77.711 89.2683V93.7133H72.9624L77.711 89.2683ZM69.8007 74.0155L70.3467 73.5013L78.3984 65.9127L78.5488 65.7675L78.6992 65.9127L86.6531 73.494L87.1885 74.0155L89.0642 75.8023V94.7883H88.437V96.1087L78.4706 87.1024L68.5433 96.0768V94.7868H67.9416V75.7587L69.8007 74.0155ZM78.4706 82.5716C79.6678 82.5719 80.8382 82.2293 81.8338 81.5871C82.8294 80.9449 83.6054 80.032 84.0637 78.9638C84.522 77.8956 84.642 76.7202 84.4085 75.5861C84.175 74.4521 83.5985 73.4104 82.7519 72.5928C81.9054 71.7753 80.8267 71.2185 79.6525 70.993C78.4783 70.7675 77.2612 70.8834 76.1551 71.326C75.0491 71.7686 74.1038 72.518 73.4388 73.4795C72.7739 74.441 72.4191 75.5714 72.4194 76.7276C72.4194 78.2775 73.057 79.764 74.1918 80.8599C75.3266 81.9559 76.8657 82.5716 78.4706 82.5716V82.5716ZM77.711 97.3319C77.9712 97.3188 78.2389 97.313 78.5142 97.313C78.7624 97.313 79.0045 97.313 79.2407 97.329C82.807 97.4858 85.0692 98.7947 86.4951 100.26C87.6759 101.477 88.4858 102.985 88.8356 104.618V118.049H86.5087V109.995H79.725V118.044H77.3635V109.995H70.5769V118.044H68.1898V104.427C68.5354 102.863 69.3201 101.422 70.458 100.26C71.8689 98.8121 74.1266 97.5033 77.711 97.3319ZM77.711 93.709H72.9624L77.711 89.2683V93.709ZM79.2407 89.2683L83.9892 93.7133H79.2407V89.2683ZM68.2605 96.3441L67.9386 96.6346V96.3441H68.2605ZM71.2943 95.211H77.711V97.3362C77.9712 97.3231 78.2389 97.3173 78.5142 97.3173C78.7624 97.3173 79.0045 97.3173 79.2407 97.3333V95.2066H85.4437L89.0642 98.4025V118.137H67.9386V98.3807L71.2943 95.211Z" stroke="#BD6F6D" stroke-width="0.525862" stroke-miterlimit="10"/>
<path d="M72.4195 76.7276C72.4198 77.8834 72.7749 79.0131 73.44 79.974C74.1051 80.9348 75.0502 81.6836 76.156 82.1257C77.2617 82.5678 78.4783 82.6833 79.652 82.4577C80.8257 82.232 81.9038 81.6753 82.7499 80.858C83.596 80.0406 84.1722 78.9993 84.4056 77.8658C84.6389 76.7322 84.519 75.5572 84.061 74.4895C83.6029 73.4217 82.8273 72.5091 81.8323 71.867C80.8372 71.2249 79.6673 70.8822 78.4706 70.8822C77.6758 70.8822 76.8888 71.0334 76.1546 71.3272C75.4203 71.621 74.7532 72.0516 74.1913 72.5944C73.6293 73.1372 73.1837 73.7816 72.8797 74.4908C72.5756 75.2 72.4193 75.9601 72.4195 76.7276Z" stroke="#BD6F6D" stroke-width="0.525862" stroke-miterlimit="10"/>
<path d="M88.437 94.7926V96.113L88.6837 96.3368H91.1956V94.7926H88.437Z" stroke="#BD6F6D" stroke-width="0.525862" stroke-miterlimit="10"/>
<path d="M66.7639 94.7955V96.3397H68.2605L68.5417 96.0855V94.7955H66.7639Z" stroke="#BD6F6D" stroke-width="0.525862" stroke-miterlimit="10"/>
<path d="M66.7639 118.136H91.1956V120.558H66.7639V118.136Z" stroke="#BD6F6D" stroke-width="0.525862" stroke-miterlimit="10"/>
<path d="M78.4705 81.6418C75.6602 81.6418 73.382 79.4416 73.382 76.7275C73.382 74.0134 75.6602 71.8132 78.4705 71.8132C81.2808 71.8132 83.559 74.0134 83.559 76.7275C83.559 79.4416 81.2808 81.6418 78.4705 81.6418Z" fill="#BD6F6D"/>
<path d="M77.9801 54.1667V51.382H78.9743L78.9683 54.1435H80.2935L78.4704 43.731L76.7933 54.1667H77.9801Z" fill="#BD6F6D"/>
<path d="M75.0367 65.0934L77.4613 62.772L77.5456 62.6907H79.4754L82.261 65.381L80.4576 55.0789H78.9745V61.3499H77.9562V55.0789H76.6461L75.0367 65.0934Z" fill="#BD6F6D"/>
<path d="M96.4074 16.3312H97.9702V16.9979H96.4074V16.3312Z" fill="#BD6F6D"/>
<path d="M96.6044 14.9091H97.7731V15.4073H96.6044V14.9091Z" fill="#BD6F6D"/>
<path d="M112.644 84.3728H116.364V84.6837H112.644V84.3728Z" fill="#BD6F6D"/>
<path d="M112.644 89.2625H116.364V89.5733H112.644V89.2625Z" fill="#BD6F6D"/>
<path d="M40.6401 84.1361H44.3598V84.447H40.6401V84.1361Z" fill="#BD6F6D"/>
<path d="M40.6401 89.0271H44.3598V89.338H40.6401V89.0271Z" fill="#BD6F6D"/>
<path d="M75.1211 54.1665V55.0788H77.9563V61.3498H78.9746V55.0788H81.9664V54.1433H78.9686L78.9746 51.3818H77.9804V54.1665H75.1211Z" stroke="#BD6F6D" stroke-width="0.525862" stroke-miterlimit="10"/>
<path d="M78.9746 55.0789H79.0588V61.3499H78.9746V55.0789Z" fill="#BD6F6D"/>
<path d="M78.9686 54.1433H79.0528L79.0588 51.3818H78.9746L78.9686 54.1433Z" fill="#BD6F6D"/>
<path d="M95.3245 10.9767V11.472H96.9068V14.8727H97.4588V11.472H99.0352V10.9651H97.4558L97.4588 9.46741H96.9203V10.9767H95.3245Z" stroke="#BD6F6D" stroke-width="0.525862" stroke-miterlimit="10"/>
<path d="M59.0313 16.3312H60.5941V16.9979H59.0313V16.3312Z" fill="#BD6F6D"/>
<path d="M59.2282 14.9091H60.3969V15.4073H59.2282V14.9091Z" fill="#BD6F6D"/>
<path d="M57.9572 10.9767V11.472H59.5396V14.8727H60.0916V11.472H61.6679V10.9651H60.0886L60.0916 9.46741H59.5531V10.9767H57.9572Z" stroke="#BD6F6D" stroke-width="0.525862" stroke-miterlimit="10"/>
<path d="M76.8327 61.3499H80.2546V62.772H76.8327V61.3499Z" fill="#BD6F6D"/>
<path d="M78.514 102.702C78.8136 102.702 79.1065 102.788 79.3555 102.949C79.6046 103.109 79.7988 103.338 79.9134 103.605C80.028 103.872 80.058 104.167 79.9996 104.45C79.9412 104.734 79.7969 104.995 79.5851 105.199C79.3732 105.404 79.1033 105.543 78.8095 105.6C78.5157 105.656 78.2112 105.627 77.9344 105.516C77.6576 105.406 77.4211 105.218 77.2546 104.978C77.0882 104.737 76.9994 104.454 76.9994 104.165C76.9994 103.777 77.159 103.405 77.443 103.131C77.7271 102.856 78.1123 102.702 78.514 102.702V102.702ZM73.952 106.205C76.6895 106.205 77.1738 108.819 77.1738 108.819H70.7271C70.7271 108.819 71.2145 106.205 73.952 106.205V106.205ZM86.5085 109.994V118.044H79.7249V109.994H86.5085ZM78.514 102.702C78.8136 102.702 79.1065 102.788 79.3555 102.949C79.6046 103.109 79.7988 103.338 79.9134 103.605C80.028 103.872 80.058 104.167 79.9996 104.45C79.9412 104.734 79.7969 104.995 79.5851 105.199C79.3732 105.404 79.1033 105.543 78.8095 105.6C78.5157 105.656 78.2112 105.627 77.9344 105.516C77.6576 105.406 77.4211 105.218 77.2546 104.978C77.0882 104.737 76.9994 104.454 76.9994 104.165C76.9994 103.777 77.159 103.405 77.443 103.131C77.7271 102.856 78.1123 102.702 78.514 102.702V102.702ZM73.952 106.205C76.6895 106.205 77.1738 108.819 77.1738 108.819H70.7271C70.7271 108.819 71.2145 106.205 73.952 106.205V106.205ZM77.3634 109.994V118.044H70.5767V109.994H77.3634ZM86.5085 109.994V118.044H79.7249V109.994H86.5085ZM83.9891 93.7089H79.2405V89.2682L83.9891 93.7089ZM78.514 102.702C78.8136 102.702 79.1065 102.788 79.3555 102.949C79.6046 103.109 79.7988 103.338 79.9134 103.605C80.028 103.872 80.058 104.167 79.9996 104.45C79.9412 104.734 79.7969 104.995 79.5851 105.199C79.3732 105.404 79.1033 105.543 78.8095 105.6C78.5157 105.656 78.2112 105.627 77.9344 105.516C77.6576 105.406 77.4211 105.218 77.2546 104.978C77.0882 104.737 76.9994 104.454 76.9994 104.165C76.9994 103.777 77.159 103.405 77.443 103.131C77.7271 102.856 78.1123 102.702 78.514 102.702V102.702ZM77.7108 89.2682V93.7133H72.9623L77.7108 89.2682ZM73.9505 106.209C76.688 106.209 77.1723 108.824 77.1723 108.824H70.7271C70.7271 108.824 71.2145 106.205 73.952 106.205L73.9505 106.209ZM77.3619 109.999V118.048H70.5767V109.994L77.3619 109.999ZM77.3619 109.999V118.048H70.5767V109.994L77.3619 109.999ZM73.9505 106.209C76.688 106.209 77.1723 108.824 77.1723 108.824H70.7271C70.7271 108.824 71.2145 106.205 73.952 106.205L73.9505 106.209ZM78.5125 102.707C78.8121 102.707 79.1049 102.792 79.354 102.953C79.6031 103.114 79.7973 103.342 79.9119 103.61C80.0265 103.877 80.0565 104.171 79.9981 104.455C79.9396 104.738 79.7954 104.999 79.5836 105.204C79.3717 105.408 79.1018 105.548 78.808 105.604C78.5142 105.66 78.2097 105.632 77.9329 105.521C77.6561 105.41 77.4196 105.223 77.2531 104.982C77.0867 104.741 76.9979 104.459 76.9979 104.169C76.9973 103.977 77.0361 103.786 77.112 103.608C77.188 103.43 77.2996 103.268 77.4404 103.132C77.5813 102.995 77.7487 102.887 77.9329 102.814C78.1171 102.74 78.3146 102.702 78.514 102.702L78.5125 102.707ZM86.507 109.999V118.048H79.7234V109.994L86.507 109.999ZM73.9505 106.209C76.688 106.209 77.1723 108.824 77.1723 108.824H70.7271C70.7271 108.824 71.2145 106.205 73.952 106.205L73.9505 106.209ZM78.5125 102.707C78.8121 102.707 79.1049 102.792 79.354 102.953C79.6031 103.114 79.7973 103.342 79.9119 103.61C80.0265 103.877 80.0565 104.171 79.9981 104.455C79.9396 104.738 79.7954 104.999 79.5836 105.204C79.3717 105.408 79.1018 105.548 78.808 105.604C78.5142 105.66 78.2097 105.632 77.9329 105.521C77.6561 105.41 77.4196 105.223 77.2531 104.982C77.0867 104.741 76.9979 104.459 76.9979 104.169C76.9973 103.977 77.0361 103.786 77.112 103.608C77.188 103.43 77.2996 103.268 77.4404 103.132C77.5813 102.995 77.7487 102.887 77.9329 102.814C78.1171 102.74 78.3146 102.702 78.514 102.702L78.5125 102.707ZM77.3619 109.999V118.048H70.5767V109.994L77.3619 109.999ZM73.9505 106.209C76.688 106.209 77.1723 108.824 77.1723 108.824H70.7271C70.7271 108.824 71.2145 106.205 73.952 106.205L73.9505 106.209ZM78.5125 102.707C78.8121 102.707 79.1049 102.792 79.354 102.953C79.6031 103.114 79.7973 103.342 79.9119 103.61C80.0265 103.877 80.0565 104.171 79.9981 104.455C79.9396 104.738 79.7954 104.999 79.5836 105.204C79.3717 105.408 79.1018 105.548 78.808 105.604C78.5142 105.66 78.2097 105.632 77.9329 105.521C77.6561 105.41 77.4196 105.223 77.2531 104.982C77.0867 104.741 76.9979 104.459 76.9979 104.169C76.9973 103.977 77.0361 103.786 77.112 103.608C77.188 103.43 77.2996 103.268 77.4404 103.132C77.5813 102.995 77.7487 102.887 77.9329 102.814C78.1171 102.74 78.3146 102.702 78.514 102.702L78.5125 102.707ZM86.507 109.999V118.048H79.7234V109.994L86.507 109.999Z" stroke="#BD6F6D" stroke-width="0.525862" stroke-miterlimit="10"/>
<path d="M68.2605 96.3396L68.5417 96.0854L78.469 87.111L88.4354 96.1173L88.6821 96.341L89.0641 96.6766V98.4038L85.4437 95.208H79.2406V97.3303C79.0045 97.3201 78.7623 97.3143 78.5141 97.3143C78.2389 97.3143 77.9712 97.3143 77.7109 97.3332V95.2065H71.2943L67.9386 98.3878V96.6301L68.2605 96.3396ZM79.2406 93.7088H83.9892L79.2406 89.2681V93.7088ZM77.7109 93.7088V89.2681L72.9624 93.7132L77.7109 93.7088Z" stroke="#BD6F6D" stroke-width="0.525862" stroke-miterlimit="10"/>
<path d="M67.2256 118.136V119.22V120.382L89.938 120.557L89.9305 119.219V118.135H89.0596V98.4067L85.4391 95.2109H79.2406V97.3332C82.8069 97.4901 85.0691 98.7989 86.495 100.265C87.6758 101.481 88.4857 102.99 88.8355 104.623V118.054H68.1927V104.426C68.5383 102.863 69.323 101.421 70.461 100.26C71.8688 98.8076 74.1265 97.5003 77.7109 97.3318V95.2065H71.2942L67.9385 98.3878V118.144L67.2256 118.136Z" stroke="#BD6F6D" stroke-width="0.525862" stroke-miterlimit="10"/>
<path d="M79.2406 89.2638V93.7089H83.9891L79.2406 89.2638Z" stroke="#BD6F6D" stroke-width="0.525862" stroke-miterlimit="10"/>
<path d="M72.9622 93.7089H77.7108V89.2638L72.9622 93.7089Z" stroke="#BD6F6D" stroke-width="0.525862" stroke-miterlimit="10"/>
<path d="M70.461 100.26C71.8688 98.8076 74.1265 97.5003 77.7109 97.3318C77.9711 97.3187 78.2388 97.3129 78.5141 97.3129C78.7623 97.3129 79.0045 97.3129 79.2406 97.3288C82.8069 97.4857 85.0691 98.7946 86.495 100.26C87.6758 101.477 88.4857 102.985 88.8355 104.618V118.049H86.5086V109.994H79.7249V118.043H77.3634V109.994H70.5768V118.043H68.1897V104.426C68.5361 102.863 69.322 101.421 70.461 100.26V100.26ZM78.5141 105.635C78.8137 105.635 79.1065 105.549 79.3556 105.389C79.6047 105.228 79.7988 104.999 79.9135 104.732C80.0281 104.465 80.0581 104.171 79.9997 103.887C79.9412 103.603 79.797 103.342 79.5851 103.138C79.3733 102.933 79.1034 102.794 78.8096 102.738C78.5158 102.681 78.2112 102.71 77.9345 102.821C77.6577 102.931 77.4211 103.119 77.2547 103.36C77.0883 103.6 76.9994 103.883 76.9994 104.172C77.0014 104.559 77.1619 104.929 77.4457 105.202C77.7296 105.475 78.1137 105.628 78.5141 105.628V105.635ZM77.1739 108.831C77.1739 108.831 76.6896 106.216 73.9521 106.216C71.2145 106.216 70.7302 108.831 70.7302 108.831H77.1739Z" stroke="#BD6F6D" stroke-width="0.525862" stroke-miterlimit="10"/>
<path d="M79.7249 109.994H86.5085V118.043H79.7249V109.994Z" stroke="#BD6F6D" stroke-width="0.525862" stroke-miterlimit="10"/>
<path d="M78.5141 105.628C77.6776 105.628 76.9995 104.973 76.9995 104.165C76.9995 103.357 77.6776 102.702 78.5141 102.702C79.3506 102.702 80.0288 103.357 80.0288 104.165C80.0288 104.973 79.3506 105.628 78.5141 105.628Z" stroke="#BD6F6D" stroke-width="0.525862" stroke-miterlimit="10"/>
<path d="M77.1739 108.825C77.1739 108.825 76.6896 106.21 73.952 106.21C71.2145 106.21 70.7302 108.825 70.7302 108.825H77.1739Z" stroke="#BD6F6D" stroke-width="0.525862" stroke-miterlimit="10"/>
<path d="M70.5797 109.994H77.3634V118.043H70.5797V109.994Z" stroke="#BD6F6D" stroke-width="0.525862" stroke-miterlimit="10"/>
<path d="M79.7249 109.994H86.5085V118.043H79.7249V109.994Z" stroke="#BD6F6D" stroke-width="0.525862" stroke-miterlimit="10"/>
<path d="M78.5141 105.628C77.6776 105.628 76.9995 104.973 76.9995 104.165C76.9995 103.357 77.6776 102.702 78.5141 102.702C79.3506 102.702 80.0288 103.357 80.0288 104.165C80.0288 104.973 79.3506 105.628 78.5141 105.628Z" fill="#BD6F6D"/>
<path d="M83.1167 113.527H83.3589V113.972H83.1167V113.527Z" fill="#BD6F6D"/>
<path d="M83.1167 114.323H83.3589V115.06H83.1167V114.323Z" fill="#BD6F6D"/>
<path d="M82.6324 113.527H82.8746V113.972H82.6324V113.527Z" fill="#BD6F6D"/>
<path d="M82.6324 114.323H82.8746V115.06H82.6324V114.323Z" fill="#BD6F6D"/>
<path d="M70.5797 109.994H77.3634V118.043H70.5797V109.994Z" stroke="#BD6F6D" stroke-width="0.525862" stroke-miterlimit="10"/>
<path d="M70.7272 108.825H77.1739C77.1739 108.825 76.6896 106.21 73.952 106.21C71.2145 106.21 70.7272 108.825 70.7272 108.825Z" fill="#BD6F6D"/>
<path d="M79.8949 108.825H86.3386C86.3386 108.825 85.8543 106.21 83.1167 106.21C80.3792 106.21 79.8949 108.825 79.8949 108.825Z" fill="#BD6F6D"/>
<path d="M73.9716 113.527H74.2137V113.972H73.9716V113.527Z" fill="#BD6F6D"/>
<path d="M73.9716 114.323H74.2137V115.06H73.9716V114.323Z" fill="#BD6F6D"/>
<path d="M73.4873 113.527H73.7295V113.972H73.4873V113.527Z" fill="#BD6F6D"/>
<path d="M73.4873 114.323H73.7295V115.06H73.4873V114.323Z" fill="#BD6F6D"/>
</g>
<rect x="1.20039" y="1.50682" width="154.603" height="121.474" rx="16.3017" stroke="#BD6F6D" stroke-width="1.05172"/>
<defs>
<clipPath id="clip0">
<rect width="75.7241" height="113.586" fill="white" transform="matrix(-1 0 0 1 116.364 9.39478)"/>
</clipPath>
</defs>
</svg>
