<svg width="793" height="542" viewBox="0 0 793 542" fill="none" xmlns="http://www.w3.org/2000/svg">
<path d="M792.352 464.233L733.465 438.707L733.02 392.759L651.751 370.952L653.758 103.934L791.338 1" stroke="#BD6F6D" stroke-miterlimit="10"/>
<path d="M107.051 497.782L44.9611 539.831M791.338 1.00031C791.338 1.00031 791.338 459.118 791.338 468.57" stroke="#BD6F6D" stroke-miterlimit="10"/>
<path d="M792.772 459.118V541.019L481.451 540.491L429.253 408.911L597.451 408.911L598.201 409.284L658.668 438.481L675.891 440.102L695.832 438.481L712.624 436.644L732.565 430.594L792.772 459.118Z" fill="#BD6F6D"/>
<path d="M312.041 348.311H415.609L481.451 540.491H44.0791L312.041 348.311Z" fill="#BD6F6D"/>
<path d="M432.587 134.023L415.611 199.806V351.071L437.651 410.713L436.601 125.816L237.321 125.816" stroke="#BD6F6D" stroke-miterlimit="10"/>
<path d="M311.708 200.67H414.561L435.551 126.381L238.12 126.381L311.708 200.67Z" fill="#BD6F6D"/>
<path d="M491.258 250.076H580.928V409.256L491.258 409.442V250.076Z" stroke="#BD6F6D" stroke-miterlimit="10"/>
<path d="M730.812 431.593C718.774 435.119 705.356 439.624 692.684 440.966L690.77 443.559V441.83C690.77 441.83 686.387 440.744 692.499 439.237C692.633 438.103 692.382 437.653 692.499 435.78C692.684 429.729 692.005 423.435 690.77 421.396C689.534 419.357 686.386 418.492 684.287 417.628L684.793 407.721H688.789C700.172 407.804 731.064 408.059 731.064 408.059L731.516 431.458L730.812 431.593Z" stroke="#BD6F6D" stroke-miterlimit="10"/>
<path d="M684.288 418.492L624.094 394.585L624.095 384.782L684.761 407.714L684.288 418.492Z" stroke="#BD6F6D" stroke-miterlimit="10"/>
<path d="M692.323 440.532C692.323 440.532 692.222 439.979 692.323 439.039C678.455 440.338 663.395 440.028 651.139 435.423L597.414 408.46V394.598L624.126 394.598L684.287 418.492L690.762 421.95V439.179L696.881 446.152L693.935 440.553L692.323 440.532Z" stroke="#BD6F6D" stroke-miterlimit="10"/>
<path d="M626.564 383.917L651.324 382.728L721.021 406.391H685.337L626.564 383.917Z" stroke="#BD6F6D" stroke-miterlimit="10"/>
<path d="M651.323 382.727L651.55 372.516L717.871 389.968C717.871 389.968 725.218 392.344 732.565 393.425V407.527H722.635L651.323 382.727Z" stroke="#BD6F6D" stroke-miterlimit="10"/>
<path d="M717.687 381.552L668.428 369.572L668.429 215.76L717.687 204.123V381.552Z" stroke="#BD6F6D"/>
<path d="M331.634 261.836H397.389V349.771L331.634 350.04V261.836Z" stroke="#BD6F6D" stroke-miterlimit="10"/>
<path d="M289.668 313.039L305.76 309.581V259.697L289.668 252.326V313.039Z" fill="#BD6F6D"/>
<path d="M289.741 250.89L305.533 258.339L305.831 238.685C305.831 238.685 303.152 223.784 289.741 220.551V250.89Z" fill="#BD6F6D"/>
<path d="M297.284 258.986L304.189 261.766V307.852L298.147 308.829L297.284 258.986Z" fill="white"/>
<path d="M296.417 258.858L290.836 256.713L291.159 310.184L297.161 309.118L296.417 258.858Z" fill="white"/>
<path d="M297.204 226.078C297.204 226.078 304.29 231.957 304.603 238.938V257.02L297.203 253.342L297.204 226.078Z" fill="white"/>
<path d="M296.417 225.761C296.417 225.761 294.556 223.615 290.534 222.201L290.769 250.581L296.417 253.036V225.761Z" fill="white"/>
<path d="M251.885 324.275L275.246 318.958L274.057 250.284L251.885 240.128V324.275Z" fill="#BD6F6D"/>
<path d="M251.986 238.15L273.745 248.413L274.155 221.334C274.155 221.334 270.464 200.803 251.986 196.348V238.15Z" fill="#BD6F6D"/>
<path d="M262.379 249.305L271.893 253.134L272.869 315.929L263.568 317.979L262.379 249.305Z" fill="white"/>
<path d="M261.183 249.129L253.493 246.173L253.939 319.846L262.208 318.376L261.183 249.129Z" fill="white"/>
<path d="M262.267 203.964C262.267 203.964 272.032 212.064 272.462 221.683V246.595L262.267 241.528L262.267 203.964Z" fill="white"/>
<path d="M261.183 203.526C261.183 203.526 258.62 200.57 253.078 198.621L253.402 237.724L261.183 241.106V203.526Z" fill="white"/>
<path d="M146.933 353.664L190.453 343L188.238 212.446L146.933 193.14V353.664Z" fill="#BD6F6D"/>
<path d="M147.122 189.379L187.655 208.889L188.419 157.41C188.419 157.41 181.544 118.38 147.122 109.911V189.379Z" fill="#BD6F6D"/>
<path d="M166.482 210.584L184.205 217.865L186.023 337.241L168.698 341.138L166.482 210.584Z" fill="white"/>
<path d="M164.254 210.25L149.928 204.631L150.759 344.688L166.164 341.895L164.254 210.25Z" fill="white"/>
<path d="M166.274 124.389C166.274 124.389 184.464 139.788 185.266 158.073V205.434L166.273 195.801L166.274 124.389Z" fill="white"/>
<path d="M164.256 123.558C164.256 123.558 159.48 117.939 149.157 114.233L149.761 188.569L164.256 194.999V123.558Z" fill="white"/>
<path d="M1.23024 395.154L44.0798 379.498L41.9808 184.247L0 159.491L1.23024 395.154Z" fill="#BD6F6D"/>
<path d="M0.190552 157.5L21.5 170.5L42.0188 182.749V107.036C42.0188 99.5 38.5 59 0.190552 37.3036V157.5Z" fill="#BD6F6D"/>
<path d="M18.8915 179.061L37.9289 190.051L39.8819 370.255L21.2712 376.138L18.8915 179.061Z" fill="white"/>
<path d="M16.2356 177.465L3 169L3.76758 380L18 375.791L16.2356 177.465Z" fill="white"/>
</svg>
