<svg width="1440" height="1024" viewBox="0 0 1440 1024" fill="none" xmlns="http://www.w3.org/2000/svg">
<g clip-path="url(#clip0)">
<path d="M1262.76 1100.35L379.318 1098.71C379.236 1098.71 379.156 1098.68 379.089 1098.63C379.022 1098.59 378.97 1098.52 378.94 1098.44C378.909 1098.37 378.9 1098.29 378.915 1098.21C378.93 1098.13 378.967 1098.06 379.023 1098L798.489 688.08C798.572 688.009 798.676 687.968 798.785 687.965L936.306 688.556C936.366 688.554 936.426 688.567 936.48 688.592C936.534 688.618 936.582 688.656 936.618 688.704L953.794 711.443H962.966C963.07 711.447 963.171 711.489 963.246 711.562C963.322 711.634 963.368 711.732 963.376 711.837V724.702L995.657 762.605H1015.56C1015.67 762.605 1015.77 762.648 1015.85 762.725C1015.93 762.802 1015.97 762.907 1015.97 763.016L1016.78 791.209L1131.62 943.742H1190.59C1190.69 943.74 1190.78 943.775 1190.85 943.841L1242.76 987.823C1242.8 987.861 1242.84 987.909 1242.87 987.963C1242.89 988.017 1242.91 988.075 1242.91 988.135V1077.55L1263.12 1099.68C1263.16 1099.74 1263.18 1099.81 1263.18 1099.89C1263.18 1099.96 1263.16 1100.04 1263.12 1100.1C1263.09 1100.18 1263.04 1100.24 1262.98 1100.28C1262.91 1100.33 1262.84 1100.35 1262.76 1100.35ZM380.321 1097.87L1261.82 1099.51L1242.1 1077.97C1242.04 1077.89 1242 1077.79 1242 1077.69V988.316L1190.36 944.563H1131.34C1131.27 944.562 1131.21 944.547 1131.15 944.518C1131.1 944.49 1131.05 944.449 1131.01 944.399L1015.96 791.603C1015.93 791.528 1015.93 791.448 1015.96 791.373L1015.17 763.443H995.46C995.342 763.442 995.23 763.395 995.147 763.311L962.653 725.129C962.588 725.057 962.552 724.963 962.555 724.866V712.281H953.679C953.615 712.281 953.552 712.266 953.495 712.237C953.438 712.209 953.389 712.167 953.35 712.116L936.175 689.394L799.032 688.803L380.321 1097.87Z" fill="#BD6F6D"/>
<path d="M1439.51 1100.35H1262.76C1262.7 1100.35 1262.65 1100.34 1262.6 1100.32C1262.55 1100.29 1262.5 1100.26 1262.46 1100.22L1242.13 1077.99C1242.07 1077.91 1242.03 1077.81 1242.03 1077.71L1241.71 -9.58926C1241.71 -9.69808 1241.75 -9.80245 1241.82 -9.88499C1241.9 -9.95599 1242.01 -9.99658 1242.12 -10C1273.18 -10 1436.62 -9.35924 1438.27 -9.34281C1438.37 -9.34281 1438.48 -9.29954 1438.56 -9.22251C1438.63 -9.14548 1438.68 -9.04101 1438.68 -8.93207L1439.93 1099.94C1439.92 1100.05 1439.88 1100.15 1439.81 1100.23C1439.77 1100.27 1439.73 1100.3 1439.67 1100.32C1439.62 1100.34 1439.57 1100.35 1439.51 1100.35ZM1262.94 1099.53H1439.1L1437.85 -8.52133C1428.72 -8.52133 1273.81 -9.17852 1242.53 -9.17852L1242.86 1077.55L1262.94 1099.53Z" fill="#BD6F6D"/>
<path d="M-203.901 -9.35938L506.978 -8.60361L798.768 480.721L799.344 687.834L378.414 1099.17L-204 1099.94C-204 1099.94 -203.03 -9.35938 -203.901 -9.35938Z" fill="#BD6F6D"/>
<path d="M1130.61 943.529C1130.55 943.528 1130.49 943.513 1130.43 943.484C1130.37 943.456 1130.32 943.415 1130.29 943.365L1015.56 791.538C1015.51 791.467 1015.48 791.381 1015.48 791.292L1008.76 310.264C1008.75 310.21 1008.75 310.154 1008.76 310.1L1121.38 47.3402C1121.42 47.254 1121.48 47.1831 1121.57 47.1385C1121.65 47.0939 1121.74 47.0782 1121.84 47.0937C1121.93 47.1182 1122.01 47.1712 1122.07 47.2451C1122.13 47.319 1122.16 47.4099 1122.17 47.5045L1122.4 71.3439L1130.99 943.119C1130.99 943.205 1130.96 943.289 1130.91 943.359C1130.86 943.429 1130.79 943.483 1130.71 943.513L1130.61 943.529ZM1016.27 791.144L1130.19 941.87L1121.59 71.3439L1121.36 49.4596L1009.53 310.379L1016.27 791.144Z" fill="#BD6F6D"/>
<path d="M1190.92 425.305H1190.1V539.442H1190.92V425.305Z" fill="#BD6F6D"/>
<path d="M1190.92 174.424H1190.1V293.161H1190.92V174.424Z" fill="#BD6F6D"/>
<path d="M1190.51 944.565H1131.34C1131.23 944.565 1131.12 944.521 1131.05 944.444C1130.97 944.367 1130.93 944.263 1130.93 944.154L1121.41 48.474C1121.4 48.4195 1121.4 48.3642 1121.41 48.3097L1145.75 -8.93129C1145.78 -9.00476 1145.84 -9.06724 1145.9 -9.11103C1145.97 -9.15483 1146.05 -9.17801 1146.13 -9.17773H1190.51C1190.62 -9.17773 1190.72 -9.13446 1190.8 -9.05743C1190.88 -8.9804 1190.92 -8.87593 1190.92 -8.76699V154.478H1190.1V-8.35625H1146.39L1122.23 48.5561L1131.75 943.743H1190.1V814.047H1190.92V944.154C1190.92 944.263 1190.88 944.367 1190.8 944.444C1190.72 944.521 1190.62 944.565 1190.51 944.565Z" fill="#BD6F6D"/>
<path d="M1190.92 302.756H1190.1V416.909H1190.92V302.756Z" fill="#BD6F6D"/>
<path d="M1190.92 551.549H1190.1V795.513H1190.92V551.549Z" fill="#BD6F6D"/>
<path d="M994.764 541.804L993.942 541.809L994.172 584.328L994.994 584.324L994.764 541.804Z" fill="#BD6F6D"/>
<path d="M961.124 507.535L960.566 422.528C960.558 422.473 960.558 422.418 960.566 422.363L992.945 346.787C992.982 346.7 993.048 346.628 993.133 346.584C993.217 346.54 993.314 346.526 993.407 346.546C993.5 346.565 993.583 346.616 993.643 346.69C993.702 346.764 993.734 346.856 993.734 346.951L994.21 441.159H993.389L992.928 348.923L961.322 422.61L961.881 507.535H961.124Z" fill="#BD6F6D"/>
<path d="M994.286 448.805L993.464 448.809L993.678 492.61L994.5 492.606L994.286 448.805Z" fill="#BD6F6D"/>
<path d="M995.476 763.426C995.416 763.426 995.358 763.412 995.304 763.387C995.25 763.361 995.202 763.324 995.164 763.278L962.653 725.112C962.588 725.04 962.552 724.946 962.554 724.849L962.078 653.232H962.9L963.376 724.701L995.065 761.898L994.671 686.322H995.492L995.838 763.015C995.837 763.098 995.811 763.177 995.764 763.245C995.717 763.312 995.651 763.364 995.575 763.393C995.545 763.411 995.511 763.422 995.476 763.426Z" fill="#BD6F6D"/>
<path d="M962.484 595.209L961.662 595.215L962.02 649.119L962.842 649.114L962.484 595.209Z" fill="#BD6F6D"/>
<path d="M994.539 496.156L993.718 496.16L993.933 538.68L994.755 538.675L994.539 496.156Z" fill="#BD6F6D"/>
<path d="M994.976 588.865L994.154 588.869L994.612 679.363L995.434 679.358L994.976 588.865Z" fill="#BD6F6D"/>
<path d="M952.902 566.929L952.08 566.936L952.279 592.302L953.101 592.296L952.902 566.929Z" fill="#BD6F6D"/>
<path d="M952.907 595.302L952.085 595.309L952.51 649.414L953.332 649.408L952.907 595.302Z" fill="#D7A9A7"/>
<path d="M952.359 510.697L951.537 510.703L951.749 537.663L952.571 537.657L952.359 510.697Z" fill="#BD6F6D"/>
<path d="M952.653 539.638L951.831 539.645L952.048 565.011L952.87 565.004L952.653 539.638Z" fill="#BD6F6D"/>
<path d="M953.597 712.264C953.533 712.263 953.471 712.247 953.414 712.219C953.357 712.191 953.307 712.15 953.268 712.1L935.977 689.213C935.926 689.141 935.897 689.055 935.895 688.967V480.063C935.887 480.009 935.887 479.954 935.895 479.899L951.049 444.559C951.088 444.473 951.154 444.402 951.237 444.357C951.321 444.313 951.416 444.297 951.509 444.312C951.601 444.337 951.682 444.39 951.741 444.464C951.8 444.538 951.834 444.629 951.838 444.723L952.331 506.252H951.509L951.066 446.744L936.668 480.146V688.802L953.104 710.588L952.66 653.594H953.482L953.942 711.82C953.941 711.907 953.913 711.99 953.863 712.061C953.814 712.131 953.744 712.185 953.663 712.215L953.597 712.264Z" fill="#BD6F6D"/>
<path d="M936.076 689.378L799.179 688.786C799.07 688.786 798.966 688.743 798.889 688.666C798.812 688.589 798.768 688.485 798.768 688.376L798.357 480.721C798.358 480.665 798.37 480.611 798.393 480.56C798.415 480.509 798.448 480.463 798.489 480.425C798.565 480.354 798.664 480.313 798.768 480.31L936.076 480.195C936.131 480.196 936.186 480.208 936.237 480.231C936.288 480.253 936.334 480.286 936.372 480.327C936.41 480.362 936.44 480.406 936.46 480.454C936.48 480.502 936.489 480.554 936.487 480.606V688.967C936.489 689.019 936.48 689.071 936.46 689.119C936.44 689.168 936.41 689.211 936.372 689.246C936.334 689.287 936.288 689.32 936.237 689.343C936.186 689.365 936.131 689.377 936.076 689.378ZM799.656 687.965L935.731 688.54V481.017L799.311 481.132L799.656 687.965Z" fill="#BD6F6D"/>
<path d="M1143.96 816.543C1143.88 816.517 1143.82 816.472 1143.76 816.412C1143.72 816.374 1143.69 816.328 1143.67 816.277C1143.64 816.226 1143.63 816.172 1143.63 816.116L1138.21 298.68V291.303V146.952C1138.2 146.893 1138.21 146.835 1138.24 146.781C1138.26 146.727 1138.29 146.679 1138.34 146.64C1138.38 146.601 1138.44 146.571 1138.49 146.554C1138.55 146.537 1138.61 146.533 1138.67 146.541L1242.35 161.509C1242.44 161.527 1242.53 161.578 1242.59 161.653C1242.65 161.728 1242.69 161.822 1242.69 161.919V182.982C1242.68 183.101 1242.63 183.213 1242.54 183.294C1242.5 183.335 1242.44 183.365 1242.38 183.382C1242.32 183.399 1242.26 183.402 1242.2 183.393L1220.63 179.811L1221 293.455L1242.2 293.274C1242.25 293.272 1242.31 293.282 1242.36 293.305C1242.41 293.328 1242.46 293.363 1242.49 293.406C1242.57 293.482 1242.61 293.581 1242.61 293.685V304.02C1242.61 304.074 1242.6 304.129 1242.58 304.179C1242.56 304.23 1242.53 304.276 1242.49 304.315C1242.46 304.354 1242.41 304.384 1242.36 304.404C1242.31 304.424 1242.25 304.433 1242.2 304.43L1220.31 304.069L1219.89 416.694H1242.2C1242.31 416.694 1242.41 416.737 1242.49 416.815C1242.57 416.892 1242.61 416.996 1242.61 417.105V425.78C1242.61 425.834 1242.6 425.889 1242.58 425.94C1242.56 425.991 1242.53 426.037 1242.49 426.075C1242.46 426.114 1242.41 426.144 1242.36 426.164C1242.31 426.184 1242.25 426.193 1242.2 426.191L1219.89 425.845V539.21H1242.26C1242.37 539.21 1242.48 539.253 1242.55 539.331C1242.63 539.408 1242.68 539.512 1242.68 539.621V551.68C1242.67 551.736 1242.66 551.791 1242.64 551.842C1242.62 551.893 1242.58 551.938 1242.54 551.976C1242.47 552.047 1242.37 552.088 1242.26 552.091L1161.73 551.73V795.99L1242.38 793.41C1242.44 793.405 1242.49 793.413 1242.55 793.433C1242.6 793.453 1242.65 793.484 1242.69 793.525C1242.77 793.606 1242.81 793.711 1242.81 793.821V811.762C1242.8 811.867 1242.76 811.967 1242.69 812.043C1242.62 812.118 1242.52 812.165 1242.41 812.173L1143.93 816.609L1143.96 816.543ZM1138.93 147.428V291.319V298.696L1144.35 815.705L1242.02 811.302V794.182L1161.35 796.926C1161.29 796.928 1161.24 796.919 1161.19 796.9C1161.14 796.88 1161.09 796.85 1161.05 796.811C1161.01 796.773 1160.98 796.727 1160.96 796.677C1160.93 796.626 1160.92 796.571 1160.92 796.515V551.417C1160.92 551.308 1160.96 551.202 1161.04 551.122C1161.12 551.051 1161.22 551.01 1161.33 551.007L1241.87 551.368V540.13H1219.37C1219.26 540.13 1219.16 540.087 1219.08 540.01C1219 539.933 1218.96 539.828 1218.96 539.72V425.385C1218.96 425.276 1219 425.171 1219.07 425.09C1219.16 425.022 1219.26 424.982 1219.37 424.975L1241.67 425.303V417.466H1219.37C1219.31 417.469 1219.26 417.46 1219.21 417.44C1219.16 417.42 1219.11 417.39 1219.07 417.351C1219 417.269 1218.96 417.164 1218.96 417.056L1219.37 303.609C1219.37 303.553 1219.38 303.498 1219.4 303.447C1219.43 303.397 1219.46 303.351 1219.5 303.313C1219.54 303.275 1219.58 303.245 1219.63 303.225C1219.68 303.205 1219.73 303.196 1219.78 303.198L1241.66 303.559V294.063L1220.47 294.244C1220.41 294.244 1220.36 294.233 1220.31 294.21C1220.26 294.187 1220.21 294.154 1220.17 294.112C1220.13 294.078 1220.1 294.035 1220.08 293.987C1220.06 293.939 1220.04 293.886 1220.04 293.833L1219.68 179.269C1219.68 179.209 1219.7 179.151 1219.72 179.097C1219.75 179.043 1219.78 178.995 1219.83 178.957C1219.87 178.918 1219.93 178.889 1219.98 178.872C1220.04 178.855 1220.1 178.85 1220.16 178.858L1222.23 179.203L1241.74 182.489V162.297L1138.93 147.428ZM1211.91 539.966L1161.33 539.687C1161.22 539.687 1161.12 539.643 1161.04 539.566C1160.97 539.489 1160.92 539.385 1160.92 539.276L1161.35 425.385C1161.35 425.277 1161.39 425.172 1161.47 425.095C1161.55 425.018 1161.65 424.975 1161.76 424.975H1212.19C1212.24 424.974 1212.29 424.983 1212.34 425.003C1212.39 425.023 1212.43 425.052 1212.47 425.09C1212.51 425.128 1212.54 425.173 1212.56 425.224C1212.58 425.275 1212.6 425.33 1212.6 425.385L1212.32 539.654C1212.32 539.709 1212.3 539.764 1212.28 539.815C1212.26 539.866 1212.23 539.912 1212.19 539.95C1212.1 539.986 1212 539.992 1211.91 539.966ZM1161.84 538.865L1211.58 539.145L1211.84 425.698H1162.24L1161.84 538.865ZM1212.12 417.532L1161.84 417.023C1161.73 417.015 1161.63 416.967 1161.56 416.888C1161.48 416.809 1161.44 416.705 1161.43 416.596L1161.58 376.54L1162.37 302.607C1162.37 302.498 1162.41 302.393 1162.49 302.316C1162.57 302.239 1162.67 302.196 1162.78 302.196L1211.97 302.426C1212.08 302.426 1212.19 302.469 1212.26 302.546C1212.34 302.623 1212.38 302.728 1212.38 302.837L1212.51 417.105C1212.51 417.214 1212.47 417.318 1212.4 417.401C1212.36 417.452 1212.3 417.49 1212.24 417.513C1212.17 417.536 1212.1 417.543 1212.04 417.532H1212.12ZM1162.29 416.201L1211.71 416.711L1211.58 303.264L1163.19 303.034L1162.42 376.556V384.771L1162.29 416.201ZM1211.71 293.685L1162.83 293.422C1162.72 293.422 1162.62 293.379 1162.54 293.302C1162.46 293.225 1162.42 293.121 1162.42 293.012V291.188L1162.99 169.904C1163 169.785 1163.05 169.673 1163.14 169.592C1163.19 169.551 1163.24 169.522 1163.3 169.505C1163.36 169.488 1163.42 169.484 1163.49 169.493L1211 177.396C1211.1 177.412 1211.18 177.46 1211.24 177.532C1211.3 177.605 1211.33 177.696 1211.33 177.79L1212.12 293.274C1212.12 293.33 1212.11 293.385 1212.09 293.436C1212.06 293.487 1212.03 293.532 1211.99 293.57C1211.94 293.616 1211.88 293.65 1211.82 293.67C1211.76 293.69 1211.69 293.695 1211.63 293.685H1211.71ZM1163.24 292.601L1211.3 292.864L1210.53 178.135L1163.81 170.397L1163.24 292.601Z" fill="#BD6F6D"/>
<path d="M1043.8 752.171C1043.7 752.171 1043.6 752.136 1043.52 752.073C1043.44 751.994 1043.39 751.888 1043.39 751.777L1039.23 396.042V390.981V291.779C1039.23 291.719 1039.24 291.66 1039.27 291.606C1039.29 291.553 1039.33 291.505 1039.38 291.467C1039.42 291.427 1039.47 291.397 1039.52 291.38C1039.58 291.363 1039.63 291.359 1039.69 291.368L1124.52 301.489C1124.61 301.501 1124.7 301.547 1124.77 301.619C1124.84 301.691 1124.87 301.785 1124.88 301.883L1125.01 316.358C1125.01 316.417 1124.99 316.476 1124.97 316.53C1124.94 316.584 1124.91 316.632 1124.86 316.67C1124.82 316.71 1124.77 316.739 1124.72 316.756C1124.66 316.774 1124.6 316.778 1124.55 316.768L1108.24 314.665L1107.03 314.501L1107.32 392.328L1125.4 392.181C1125.51 392.181 1125.62 392.224 1125.69 392.301C1125.77 392.378 1125.81 392.482 1125.81 392.591V399.673C1125.81 399.728 1125.8 399.783 1125.78 399.834C1125.76 399.885 1125.72 399.93 1125.68 399.968C1125.64 400.007 1125.6 400.037 1125.55 400.057C1125.5 400.077 1125.44 400.086 1125.39 400.083L1106.7 399.886L1106.35 477.106H1126.08C1126.18 477.105 1126.29 477.146 1126.36 477.22C1126.44 477.294 1126.48 477.394 1126.49 477.5V483.464C1126.49 483.519 1126.48 483.574 1126.45 483.625C1126.43 483.676 1126.4 483.722 1126.36 483.76C1126.28 483.834 1126.17 483.876 1126.06 483.875L1106.34 483.645V561.258H1127C1127.1 561.263 1127.2 561.308 1127.28 561.384C1127.35 561.461 1127.39 561.563 1127.39 561.669V569.966C1127.39 570.075 1127.35 570.179 1127.28 570.262C1127.19 570.331 1127.09 570.371 1126.98 570.377L1058.61 570.048L1060.33 737.631L1128.87 735.528C1128.93 735.52 1128.98 735.527 1129.03 735.547C1129.09 735.567 1129.13 735.6 1129.17 735.643C1129.21 735.681 1129.24 735.726 1129.26 735.777C1129.29 735.828 1129.3 735.883 1129.3 735.939L1129.41 748.294C1129.41 748.399 1129.37 748.499 1129.3 748.574C1129.22 748.65 1129.12 748.696 1129.02 748.704L1043.68 751.99L1043.8 752.171ZM1040.03 292.305V391.047V396.107L1044.19 751.399L1128.69 748.113L1128.59 736.612L1060.05 738.715C1060 738.719 1059.94 738.71 1059.89 738.69C1059.84 738.67 1059.8 738.64 1059.76 738.6C1059.72 738.564 1059.68 738.518 1059.66 738.467C1059.64 738.416 1059.62 738.36 1059.63 738.304L1057.88 569.835C1057.88 569.779 1057.89 569.723 1057.92 569.672C1057.94 569.621 1057.97 569.575 1058.02 569.539C1058.05 569.499 1058.09 569.466 1058.14 569.443C1058.19 569.421 1058.24 569.408 1058.29 569.407L1126.69 569.736V562.261H1106.03C1105.92 562.261 1105.81 562.217 1105.73 562.14C1105.66 562.063 1105.61 561.959 1105.61 561.85V483.316C1105.63 483.211 1105.67 483.112 1105.75 483.038C1105.82 482.963 1105.92 482.916 1106.03 482.905L1125.75 483.152V478.026H1105.96C1105.85 478.015 1105.76 477.968 1105.68 477.893C1105.61 477.818 1105.56 477.72 1105.55 477.615L1105.89 399.64C1105.89 399.584 1105.91 399.529 1105.93 399.478C1105.95 399.427 1105.98 399.382 1106.03 399.344C1106.1 399.273 1106.2 399.232 1106.3 399.229L1124.99 399.443V393.183L1106.91 393.331C1106.86 393.334 1106.8 393.326 1106.75 393.306C1106.7 393.286 1106.66 393.255 1106.62 393.216C1106.58 393.177 1106.55 393.131 1106.53 393.08C1106.51 393.029 1106.5 392.975 1106.5 392.92L1106.19 314.205C1106.2 314.086 1106.25 313.974 1106.34 313.893C1106.38 313.854 1106.43 313.825 1106.49 313.808C1106.55 313.791 1106.61 313.786 1106.67 313.795L1108.31 314.025L1124.12 316.078L1124.01 302.442L1040.03 292.305ZM1099.83 562.031L1058.29 561.751C1058.18 561.747 1058.08 561.7 1058 561.62C1057.93 561.541 1057.88 561.435 1057.88 561.324L1058.23 483.037C1058.23 482.928 1058.27 482.823 1058.35 482.746C1058.43 482.669 1058.53 482.626 1058.64 482.626H1100.01C1100.12 482.625 1100.23 482.666 1100.31 482.741C1100.38 482.823 1100.42 482.928 1100.42 483.037L1100.19 561.554C1100.19 561.609 1100.18 561.663 1100.16 561.714C1100.14 561.765 1100.11 561.811 1100.08 561.85C1100.04 561.888 1099.99 561.918 1099.94 561.938C1099.89 561.958 1099.83 561.967 1099.78 561.965L1099.83 562.031ZM1058.74 561.028L1099.39 561.209L1099.62 483.513H1059.07L1058.74 561.028ZM1099.91 477.911L1058.67 477.549C1058.57 477.545 1058.47 477.5 1058.39 477.423C1058.32 477.347 1058.28 477.245 1058.28 477.138L1058.38 449.602L1059.03 398.802C1059.03 398.693 1059.08 398.588 1059.15 398.511C1059.23 398.434 1059.34 398.391 1059.45 398.391L1099.8 398.555C1099.9 398.555 1100.01 398.599 1100.09 398.676C1100.16 398.753 1100.21 398.857 1100.21 398.966L1100.32 477.5C1100.32 477.553 1100.31 477.605 1100.29 477.654C1100.26 477.702 1100.23 477.745 1100.19 477.779C1100.12 477.832 1100.03 477.855 1099.94 477.845L1099.91 477.911ZM1059.1 476.728L1099.5 477.073L1099.39 399.311L1059.94 399.097L1059.3 449.504V455.188L1059.1 476.728ZM1099.57 392.789L1059.51 392.526C1059.4 392.526 1059.3 392.482 1059.22 392.405C1059.14 392.328 1059.1 392.224 1059.1 392.115V390.883L1059.58 307.535C1059.58 307.418 1059.62 307.305 1059.71 307.223C1059.8 307.157 1059.92 307.128 1060.04 307.141L1099.02 312.562C1099.12 312.574 1099.21 312.621 1099.27 312.694C1099.33 312.767 1099.37 312.86 1099.37 312.957L1100.01 392.312C1100.01 392.367 1100 392.421 1099.98 392.472C1099.96 392.523 1099.93 392.569 1099.89 392.608C1099.86 392.646 1099.81 392.676 1099.76 392.696C1099.71 392.716 1099.65 392.725 1099.6 392.723L1099.57 392.789ZM1059.94 391.721L1099.2 391.901L1098.58 313.318L1060.41 308.011L1059.94 391.721Z" fill="#BD6F6D"/>
<path d="M969.54 687.867C969.436 687.861 969.338 687.821 969.26 687.752C969.22 687.714 969.187 687.668 969.164 687.618C969.142 687.567 969.13 687.512 969.129 687.456L967.288 494.687V491.943V438.185C967.289 438.068 967.336 437.956 967.42 437.873C967.463 437.833 967.516 437.803 967.573 437.786C967.63 437.769 967.69 437.765 967.748 437.774L1011.04 442.818C1011.14 442.83 1011.23 442.879 1011.3 442.955C1011.37 443.031 1011.4 443.128 1011.4 443.229V451.083C1011.4 451.143 1011.39 451.202 1011.37 451.256C1011.34 451.311 1011.3 451.358 1011.25 451.395C1011.22 451.437 1011.17 451.468 1011.11 451.486C1011.06 451.503 1011 451.506 1010.94 451.493L1004.86 450.77H1004.42L1004.57 492.535L1011.62 492.321C1011.67 492.318 1011.73 492.327 1011.78 492.347C1011.84 492.367 1011.89 492.397 1011.93 492.436C1012 492.519 1012.04 492.623 1012.04 492.732V496.56C1012.04 496.669 1012 496.773 1011.92 496.85C1011.85 496.927 1011.74 496.971 1011.63 496.971H1004.25L1004.06 538.373H1012.27C1012.38 538.373 1012.49 538.417 1012.56 538.494C1012.64 538.571 1012.68 538.675 1012.68 538.784V542.07C1012.68 542.126 1012.67 542.181 1012.65 542.231C1012.63 542.282 1012.59 542.328 1012.55 542.366C1012.48 542.437 1012.38 542.478 1012.27 542.481L1004.06 542.366V584.097H1012.87C1012.92 584.096 1012.97 584.105 1013.02 584.125C1013.08 584.145 1013.12 584.174 1013.16 584.212C1013.23 584.295 1013.27 584.399 1013.28 584.508V588.993C1013.27 589.102 1013.23 589.206 1013.16 589.289C1013.12 589.328 1013.08 589.358 1013.03 589.377C1012.97 589.397 1012.92 589.406 1012.87 589.404H978.185L978.711 679.866L1014.15 678.223C1014.2 678.217 1014.26 678.224 1014.32 678.244C1014.37 678.264 1014.42 678.296 1014.46 678.338C1014.54 678.416 1014.59 678.522 1014.59 678.633L1014.77 685.649C1014.77 685.755 1014.73 685.857 1014.66 685.934C1014.58 686.01 1014.48 686.055 1014.38 686.06L969.54 687.867ZM968.11 438.645V491.943V494.687L969.951 687.029L1014 685.074L1013.84 678.863L978.382 680.506C978.328 680.512 978.272 680.505 978.221 680.485C978.169 680.465 978.123 680.433 978.087 680.391C978.044 680.355 978.01 680.309 977.988 680.258C977.965 680.207 977.954 680.152 977.955 680.096L977.429 588.796C977.427 588.741 977.436 588.687 977.456 588.636C977.476 588.585 977.506 588.539 977.544 588.5C977.583 588.462 977.629 588.432 977.68 588.412C977.731 588.392 977.785 588.383 977.84 588.385H1012.52V584.754H1003.73C1003.67 584.764 1003.61 584.756 1003.56 584.733C1003.51 584.709 1003.46 584.671 1003.43 584.623C1003.39 584.588 1003.36 584.545 1003.34 584.497C1003.31 584.449 1003.3 584.397 1003.3 584.344V541.791C1003.3 541.735 1003.31 541.68 1003.34 541.629C1003.36 541.579 1003.39 541.533 1003.43 541.495C1003.47 541.457 1003.51 541.427 1003.56 541.407C1003.61 541.387 1003.66 541.378 1003.71 541.38L1011.93 541.495V539.096H1003.71C1003.66 539.098 1003.61 539.089 1003.56 539.069C1003.51 539.049 1003.47 539.019 1003.43 538.981C1003.39 538.943 1003.36 538.898 1003.34 538.847C1003.31 538.796 1003.3 538.741 1003.3 538.686L1003.5 496.445C1003.5 496.339 1003.54 496.237 1003.61 496.16C1003.68 496.083 1003.79 496.038 1003.89 496.034H1011.27V493.044L1004.22 493.257C1004.11 493.252 1004.01 493.211 1003.92 493.142C1003.88 493.105 1003.85 493.059 1003.83 493.008C1003.81 492.957 1003.79 492.902 1003.79 492.847L1003.64 450.13C1003.64 450.071 1003.65 450.013 1003.68 449.959C1003.7 449.905 1003.73 449.856 1003.78 449.817C1003.82 449.778 1003.87 449.749 1003.93 449.732C1003.99 449.715 1004.05 449.711 1004.11 449.719L1005.03 449.834L1010.61 450.507V443.476L968.11 438.645ZM1000.36 584.754L977.84 584.656C977.731 584.656 977.627 584.612 977.55 584.535C977.472 584.458 977.429 584.354 977.429 584.245L977.61 541.807C977.614 541.699 977.659 541.597 977.735 541.521C977.811 541.445 977.913 541.4 978.021 541.396H1000.49C1000.59 541.399 1000.69 541.44 1000.77 541.511C1000.81 541.549 1000.84 541.595 1000.86 541.646C1000.89 541.697 1000.9 541.752 1000.9 541.807L1000.77 584.36C1000.77 584.415 1000.76 584.469 1000.74 584.52C1000.72 584.571 1000.69 584.617 1000.65 584.656C1000.61 584.694 1000.57 584.724 1000.52 584.744C1000.47 584.764 1000.41 584.773 1000.36 584.771V584.754ZM978.251 583.834L999.947 583.933L1000.08 542.201H978.432L978.251 583.834ZM1000.42 539.162L978.037 538.965C977.928 538.965 977.824 538.922 977.747 538.844C977.67 538.767 977.626 538.663 977.626 538.554V523.636L977.972 496.1C977.976 495.994 978.021 495.893 978.098 495.82C978.174 495.746 978.276 495.705 978.382 495.705L1000.29 495.788C1000.4 495.788 1000.51 495.831 1000.58 495.908C1000.66 495.985 1000.7 496.089 1000.7 496.198V538.751C1000.7 538.807 1000.69 538.862 1000.67 538.913C1000.64 538.963 1000.61 539.009 1000.57 539.047C1000.54 539.11 1000.49 539.162 1000.42 539.195V539.162ZM978.448 538.16L1000.01 538.34V496.609L978.925 496.527L978.563 526.725L978.448 538.16ZM1000.24 493.044L978.481 492.945C978.376 492.935 978.277 492.888 978.203 492.813C978.128 492.738 978.081 492.64 978.07 492.535V491.845L978.317 446.696C978.319 446.637 978.333 446.579 978.358 446.525C978.384 446.472 978.42 446.424 978.465 446.386C978.51 446.347 978.562 446.318 978.619 446.301C978.675 446.284 978.735 446.278 978.793 446.285L999.947 449.226C1000.04 449.241 1000.13 449.288 1000.2 449.36C1000.26 449.431 1000.3 449.523 1000.31 449.62L1000.65 492.633C1000.65 492.689 1000.64 492.744 1000.62 492.794C1000.6 492.845 1000.56 492.891 1000.52 492.929C1000.45 493.012 1000.35 493.065 1000.24 493.077V493.044ZM978.876 492.124L999.815 492.222L999.486 449.982L979.139 447.156L978.876 492.124Z" fill="#BD6F6D"/>
<path d="M943.242 654.448C943.134 654.444 943.032 654.399 942.956 654.323C942.879 654.247 942.835 654.145 942.831 654.037L942.732 538.832V537.189V505.069C942.739 504.95 942.792 504.838 942.88 504.757C942.977 504.69 943.092 504.656 943.209 504.658L967.863 507.944C967.959 507.956 968.047 508.003 968.111 508.076C968.174 508.149 968.209 508.242 968.208 508.339V513.037C968.208 513.097 968.194 513.156 968.169 513.21C968.143 513.264 968.106 513.311 968.06 513.35C968.016 513.39 967.964 513.419 967.907 513.437C967.85 513.454 967.79 513.458 967.732 513.448L963.064 512.725V537.37H967.995C968.104 537.37 968.208 537.413 968.285 537.49C968.362 537.567 968.405 537.672 968.405 537.781V540.081C968.4 540.192 968.353 540.298 968.274 540.376C968.188 540.441 968.085 540.481 967.978 540.491H962.916L962.965 564.791H968.373C968.479 564.791 968.581 564.832 968.657 564.905C968.734 564.979 968.779 565.079 968.783 565.185V567.124C968.786 567.178 968.777 567.233 968.757 567.284C968.737 567.335 968.707 567.381 968.668 567.42C968.63 567.458 968.583 567.488 968.533 567.508C968.482 567.528 968.427 567.537 968.373 567.535H962.949V592.179H968.619C968.728 592.179 968.833 592.222 968.91 592.299C968.987 592.377 969.03 592.481 969.03 592.59V595.268C969.031 595.324 969.02 595.379 968.998 595.431C968.975 595.482 968.941 595.527 968.899 595.564C968.864 595.604 968.821 595.637 968.773 595.659C968.725 595.682 968.672 595.694 968.619 595.695H948.994L948.403 649.42L969.112 648.549C969.167 648.543 969.223 648.551 969.274 648.571C969.326 648.591 969.372 648.623 969.408 648.664C969.451 648.701 969.484 648.746 969.507 648.797C969.53 648.849 969.541 648.904 969.54 648.96V653.15C969.54 653.256 969.499 653.358 969.425 653.434C969.352 653.511 969.251 653.556 969.145 653.56L943.225 654.645L943.242 654.448ZM943.538 505.546V537.205V538.848L943.636 653.61L968.734 652.558V649.272L948.025 650.143C947.912 650.132 947.805 650.093 947.712 650.028C947.673 649.986 947.643 649.937 947.623 649.884C947.603 649.83 947.595 649.773 947.597 649.716L948.189 595.153C948.197 595.048 948.243 594.95 948.319 594.877C948.395 594.805 948.495 594.762 948.6 594.759H968.208V592.968H962.538C962.429 592.968 962.324 592.925 962.247 592.848C962.17 592.77 962.127 592.666 962.127 592.557V567.042C962.133 566.933 962.173 566.83 962.242 566.746C962.324 566.675 962.429 566.634 962.538 566.631H967.962V565.53H962.554C962.499 565.529 962.444 565.517 962.393 565.495C962.342 565.472 962.296 565.44 962.258 565.399C962.185 565.318 962.144 565.212 962.143 565.103L962.242 539.867C962.243 539.811 962.255 539.757 962.277 539.706C962.3 539.655 962.333 539.609 962.373 539.571C962.408 539.532 962.451 539.502 962.5 539.482C962.548 539.462 962.601 539.453 962.653 539.456H967.715V537.994H962.784C962.677 537.99 962.574 537.945 962.498 537.869C962.422 537.793 962.377 537.691 962.373 537.583V512.101C962.371 512.042 962.381 511.984 962.404 511.93C962.427 511.876 962.461 511.828 962.505 511.789C962.552 511.748 962.607 511.719 962.667 511.702C962.726 511.685 962.789 511.681 962.85 511.69L963.343 511.772L967.518 512.413V508.552L943.538 505.546ZM960.713 592.853H948.6C948.491 592.853 948.386 592.81 948.309 592.732C948.232 592.655 948.189 592.551 948.189 592.442L948.288 567.091C948.288 566.982 948.331 566.878 948.408 566.801C948.485 566.724 948.59 566.68 948.699 566.68H960.779C960.883 566.683 960.983 566.724 961.059 566.795C961.099 566.833 961.132 566.879 961.155 566.93C961.177 566.981 961.189 567.035 961.19 567.091V592.524C961.189 592.58 961.177 592.635 961.155 592.686C961.132 592.736 961.099 592.782 961.059 592.82C960.962 592.87 960.851 592.882 960.746 592.853H960.713ZM949.011 591.966H960.302V567.321H949.044L949.011 591.966ZM960.746 565.678L948.699 565.547C948.59 565.547 948.485 565.503 948.408 565.426C948.331 565.349 948.288 565.245 948.288 565.136V556.231L948.485 539.801C948.489 539.695 948.534 539.595 948.611 539.522C948.687 539.448 948.79 539.407 948.896 539.407H960.68C960.789 539.407 960.894 539.45 960.971 539.527C961.048 539.604 961.091 539.709 961.091 539.818V565.251C961.081 565.356 961.034 565.454 960.959 565.529C960.884 565.604 960.786 565.651 960.68 565.662L960.746 565.678ZM949.126 564.742L960.335 564.84V540.196H949.372L949.175 558.071L949.126 564.742ZM960.631 538.109H948.929C948.82 538.109 948.715 538.066 948.638 537.989C948.561 537.912 948.518 537.807 948.518 537.698V537.107L948.649 510.129C948.647 510.069 948.66 510.01 948.685 509.955C948.711 509.901 948.749 509.854 948.797 509.817C948.841 509.777 948.893 509.747 948.95 509.73C949.007 509.713 949.067 509.709 949.126 509.719L960.5 511.477C960.594 511.492 960.68 511.54 960.743 511.612C960.806 511.684 960.842 511.775 960.845 511.871L961.042 537.583C961.037 537.695 960.99 537.801 960.911 537.879C960.855 537.958 960.774 538.016 960.68 538.043L960.631 538.109ZM949.34 537.222H960.204L960.039 512.282L949.471 510.639L949.34 537.222Z" fill="#BD6F6D"/>
<path d="M921.431 638.528C921.376 638.53 921.322 638.521 921.271 638.501C921.22 638.482 921.174 638.451 921.135 638.413C921.096 638.375 921.065 638.329 921.045 638.278C921.025 638.226 921.017 638.172 921.02 638.117L920.938 552.863V529.55C920.939 529.494 920.951 529.439 920.973 529.388C920.996 529.338 921.029 529.292 921.07 529.254C921.108 529.215 921.154 529.185 921.205 529.166C921.256 529.146 921.311 529.137 921.365 529.139L936.158 530.141C936.261 530.15 936.358 530.196 936.428 530.273C936.498 530.349 936.536 530.449 936.536 530.552V533.937C936.535 534.054 936.488 534.166 936.405 534.249C936.36 534.288 936.308 534.317 936.251 534.334C936.194 534.351 936.135 534.355 936.076 534.347L931.704 533.69V551.664H936.059C936.115 551.653 936.172 551.658 936.224 551.679C936.276 551.699 936.322 551.734 936.355 551.779C936.394 551.818 936.424 551.864 936.444 551.915C936.464 551.966 936.473 552.02 936.47 552.075V553.8C936.472 553.852 936.463 553.904 936.443 553.952C936.423 554 936.393 554.044 936.355 554.079C936.317 554.12 936.272 554.153 936.221 554.175C936.17 554.198 936.115 554.21 936.059 554.211H931.572V572.053H936.142C936.251 572.053 936.355 572.097 936.432 572.174C936.509 572.251 936.552 572.355 936.552 572.464V573.811C936.552 573.92 936.509 574.025 936.432 574.102C936.355 574.179 936.251 574.222 936.142 574.222H931.572V592.147H936.142C936.251 592.147 936.355 592.19 936.432 592.267C936.509 592.344 936.552 592.449 936.552 592.558V594.611C936.555 594.666 936.546 594.72 936.526 594.771C936.506 594.822 936.476 594.868 936.437 594.907C936.399 594.946 936.352 594.976 936.302 594.995C936.251 595.015 936.196 595.024 936.142 595.022H925.951L925.507 634.568L936.125 634.207C936.237 634.218 936.345 634.257 936.437 634.322C936.476 634.36 936.506 634.407 936.526 634.458C936.546 634.508 936.555 634.563 936.552 634.618V637.756C936.553 637.862 936.512 637.964 936.438 638.04C936.364 638.117 936.264 638.162 936.158 638.166L921.513 638.643L921.431 638.528ZM921.76 529.993V552.863L921.842 637.706L935.665 637.23V634.93L925.031 635.275C924.976 635.277 924.922 635.268 924.871 635.248C924.82 635.228 924.773 635.198 924.735 635.16C924.696 635.121 924.666 635.075 924.646 635.024C924.626 634.973 924.617 634.919 924.62 634.864L925.064 594.48C925.072 594.375 925.118 594.277 925.194 594.204C925.269 594.132 925.369 594.089 925.474 594.086H935.665V592.968H931.096C930.987 592.968 930.882 592.925 930.805 592.848C930.728 592.771 930.685 592.667 930.685 592.558V573.746C930.685 573.637 930.728 573.532 930.805 573.455C930.882 573.378 930.987 573.335 931.096 573.335H935.665V572.809H931.096C931.044 572.811 930.992 572.802 930.943 572.782C930.895 572.762 930.852 572.732 930.816 572.694C930.775 572.656 930.743 572.611 930.72 572.56C930.698 572.509 930.685 572.454 930.685 572.398V553.718C930.685 553.662 930.698 553.607 930.72 553.556C930.743 553.506 930.775 553.46 930.816 553.422C930.898 553.36 930.994 553.321 931.096 553.307H935.583V552.42H931.227C931.172 552.429 931.116 552.423 931.064 552.403C931.011 552.383 930.966 552.349 930.931 552.305C930.893 552.266 930.863 552.22 930.843 552.169C930.823 552.118 930.814 552.064 930.816 552.009V533.148C930.817 533.031 930.864 532.918 930.948 532.836C930.992 532.797 931.045 532.767 931.101 532.75C931.158 532.733 931.218 532.729 931.276 532.737H931.654L935.649 533.329V530.798L921.76 529.993ZM929.748 592.968H925.507C925.398 592.968 925.294 592.925 925.217 592.848C925.14 592.771 925.096 592.667 925.096 592.558V573.795C925.1 573.687 925.145 573.585 925.221 573.509C925.297 573.433 925.4 573.388 925.507 573.384H929.748C929.852 573.387 929.951 573.428 930.027 573.499C930.107 573.578 930.154 573.683 930.159 573.795V592.623C930.158 592.676 930.145 592.729 930.123 592.777C930.1 592.825 930.068 592.868 930.027 592.903C929.945 592.957 929.846 592.981 929.748 592.968ZM925.902 592.098H929.337V574.025H925.935L925.902 592.098ZM929.764 572.793H925.557C925.45 572.788 925.35 572.743 925.277 572.667C925.203 572.59 925.162 572.488 925.162 572.382V565.81L925.31 553.619C925.314 553.513 925.36 553.413 925.436 553.339C925.513 553.266 925.615 553.225 925.721 553.225H929.731C929.84 553.225 929.945 553.268 930.022 553.345C930.099 553.422 930.142 553.527 930.142 553.636V572.448C930.142 572.557 930.101 572.662 930.027 572.743C929.946 572.784 929.853 572.796 929.764 572.776V572.793ZM925.984 571.905H929.271V553.964H926.083L925.935 567.108L925.984 571.905ZM929.682 552.403H925.737C925.628 552.403 925.524 552.36 925.447 552.283C925.37 552.206 925.326 552.102 925.326 551.993V551.697L925.442 532.458C925.442 532.398 925.456 532.339 925.481 532.285C925.507 532.232 925.544 532.184 925.589 532.146C925.633 532.106 925.686 532.076 925.743 532.059C925.8 532.042 925.86 532.038 925.918 532.047L929.616 532.622C929.712 532.634 929.8 532.681 929.864 532.754C929.928 532.826 929.962 532.92 929.962 533.016L930.093 552.042C930.094 552.152 930.053 552.258 929.978 552.338C929.887 552.386 929.783 552.403 929.682 552.387V552.403ZM926.148 551.533H929.271L929.14 533.279L926.263 532.836L926.148 551.533Z" fill="#BD6F6D"/>
<path d="M798.768 481.132C798.697 481.131 798.626 481.112 798.563 481.078C798.5 481.044 798.447 480.995 798.407 480.935L506.616 -8.35705C506.584 -8.42083 506.568 -8.49114 506.568 -8.56242C506.568 -8.6337 506.584 -8.70401 506.616 -8.76779C506.653 -8.8315 506.705 -8.88463 506.769 -8.92205C506.832 -8.95947 506.904 -8.97991 506.978 -8.98138L1146 -9.44141C1146.07 -9.44079 1146.13 -9.42408 1146.19 -9.39265C1146.25 -9.36123 1146.3 -9.316 1146.34 -9.26068C1146.37 -9.19876 1146.39 -9.13154 1146.39 -9.06352C1146.39 -8.99551 1146.37 -8.92829 1146.34 -8.86637L936.421 480.738C936.389 480.811 936.336 480.874 936.269 480.918C936.202 480.961 936.123 480.985 936.043 480.984L798.768 481.132ZM507.684 -8.19275L798.998 480.311L935.796 480.196L935.928 479.9L1145.41 -8.61992L507.684 -8.19275Z" fill="#BD6F6D"/>
<path d="M852.416 575.932H903.566V688.261H852.581L852.416 575.932Z" fill="#22222E"/>
<path d="M838.757 193.729L857.182 193.844C857.182 193.844 856.541 207.48 848.077 207.48C839.612 207.48 838.757 196.357 838.757 193.729Z" fill="#BD6F6D"/>
<path d="M845.513 204.803V253.78C834.78 253.78 836.16 262.405 836.16 268.944H862.458C862.458 268.944 863.773 253.55 851.824 253.55L851.331 204.803H845.513Z" fill="#BD6F6D"/>
<path d="M856.245 361.92H866.485C866.485 361.92 866.123 369.51 861.423 369.51C856.722 369.51 856.245 363.366 856.245 361.92Z" fill="#BD6F6D"/>
<path d="M859.993 368.064V395.305C854.027 395.305 854.799 400.102 854.799 403.733H869.394C869.394 403.733 870.118 395.173 863.477 395.173L863.215 368.064H859.993Z" fill="#BD6F6D"/>
<path d="M861.768 446.861H868.343C868.343 446.861 868.112 451.79 865.055 451.79C861.998 451.79 861.768 447.798 861.768 446.861Z" fill="#BD6F6D"/>
<path d="M864.201 450.854V468.483C860.338 468.483 860.914 471.604 860.914 473.954H870.381C870.381 473.954 870.841 468.4 866.535 468.4L866.37 450.854H864.201Z" fill="#BD6F6D"/>
</g>
<defs>
<clipPath id="clip0">
<rect width="1643.93" height="1110.35" fill="white" transform="translate(-204 -10)"/>
</clipPath>
</defs>
</svg>
