<svg width="164" height="362" viewBox="0 0 164 362" fill="none" xmlns="http://www.w3.org/2000/svg">
<path d="M-152.276 245.299L-112.664 214.405C-93.5567 235.458 -68.2002 245.847 -37.1523 245.418C-23.0289 245.212 -9.02765 241.305 3.26088 234.171C19.3722 224.802 31.7963 213.007 40.2591 199.083C47.4628 187.231 51.889 173.598 53.4259 158.673C54.5448 147.727 53.7421 136.728 51.0428 126.019C48.9769 117.788 45.8456 109.932 41.6962 102.527L81.5752 71.4225C90.0264 84.6045 96.1491 98.5572 99.754 112.979C104.019 129.988 105.026 148.226 102.655 167.201C99.9961 188.792 93.3821 208.397 83.041 225.411C74.1861 239.98 62.3266 253.142 47.7442 264.509C31.9774 276.831 14.9225 285.532 -2.90822 290.461C-20.7729 295.368 -39.9729 296.581 -60.0106 294.122C-80.0484 291.663 -98.3763 285.779 -114.478 276.69C-128.446 268.759 -141.131 258.258 -152.276 245.299ZM-163.603 244.042C-137.58 277.437 -103.367 296.744 -61.0165 301.975C-18.6663 307.205 19.2339 296.803 52.5954 270.76C67.9788 258.763 80.3869 245.005 89.7992 229.519C100.801 211.418 107.699 190.962 110.528 168.173C115.467 128.064 106.41 92.0045 83.3447 59.9413L31.1905 100.606C42.388 117.457 47.5554 137.572 45.5039 157.858C44.1095 171.706 40.0721 184.088 33.467 194.955C25.6853 207.758 14.2892 218.551 -0.734669 227.278C-11.806 233.71 -24.4423 237.284 -37.2432 237.456C-68.6867 237.925 -93.4312 226.606 -111.524 203.424L-163.603 244.042Z" fill="#2B2B39"/>
</svg>
