<svg width="32" height="32" viewBox="0 0 32 32" fill="none" xmlns="http://www.w3.org/2000/svg">
<g clip-path="url(#clip0)">
<path d="M12 27.8665C12 28.5332 12.6667 29.1999 13.3333 29.1999H18.6667C19.3333 29.1999 20 28.5332 20 27.8665V26.5332H12V27.8665Z" fill="white"/>
<path d="M22.667 11.4673L20.8003 9.06732L12.4003 10.534L10.8003 7.73398L9.33366 5.33398C8.53366 6.13398 7.86699 7.20065 7.33366 8.26732C6.93366 9.33398 6.66699 10.534 6.66699 11.8673C6.66699 15.0673 8.26699 17.8673 10.667 19.4673V22.534C10.667 23.2006 11.3337 23.8673 12.0003 23.8673H20.0003C20.667 23.8673 21.3337 23.2006 21.3337 22.534V19.4673C22.8003 18.4007 24.0003 16.934 24.667 15.2007C24.8003 14.934 24.8003 14.6673 24.9337 14.4007L22.667 11.4673ZM18.667 18.0007V21.2006H13.3337V18.0007C10.9337 16.934 9.33366 14.534 9.33366 11.8673C9.33366 11.6007 9.33366 11.4673 9.33366 11.2007L10.9337 13.4673L19.467 11.334L22.4003 13.4673C22.0003 15.4673 20.5337 17.2007 18.667 18.0007Z" fill="white"/>
</g>
<defs>
<clipPath id="clip0">
<rect width="18.2667" height="23.8667" fill="white" transform="translate(6.66699 5.33398)"/>
</clipPath>
</defs>
</svg>
