<svg width="33" height="32" viewBox="0 0 33 32" fill="none" xmlns="http://www.w3.org/2000/svg">
<path d="M12.5 28.0013C12.5 28.7346 13.1 29.3346 13.8333 29.3346H19.1667C19.9 29.3346 20.5 28.7346 20.5 28.0013V26.668H12.5V28.0013ZM16.5 2.66797C11.3533 2.66797 7.16666 6.85464 7.16666 12.0013C7.16666 15.1746 8.75332 17.9613 11.1667 19.6546V22.668C11.1667 23.4013 11.7667 24.0013 12.5 24.0013H20.5C21.2333 24.0013 21.8333 23.4013 21.8333 22.668V19.6546C24.2467 17.9613 25.8333 15.1746 25.8333 12.0013C25.8333 6.85464 21.6467 2.66797 16.5 2.66797ZM20.3 17.468L19.1667 18.268V21.3346H13.8333V18.268L12.7 17.468C10.9 16.2146 9.83332 14.1746 9.83332 12.0013C9.83332 8.3213 12.82 5.33464 16.5 5.33464C20.18 5.33464 23.1667 8.3213 23.1667 12.0013C23.1667 14.1746 22.1 16.2146 20.3 17.468Z" fill="#2B2B39"/>
</svg>
