<svg width="31" height="30" viewBox="0 0 31 30" fill="none" xmlns="http://www.w3.org/2000/svg">
<path d="M8.51337 6.45334L6.11337 4.06667L4.23337 5.94667L6.62004 8.33334L8.51337 6.45334ZM0.833374 14H4.83337V16.6667H0.833374V14ZM14.1667 0.733337H16.8334V4.66667H14.1667V0.733337ZM24.8867 4.06L26.764 5.936L24.3774 8.32267L22.5014 6.44534L24.8867 4.06ZM22.4867 24.2133L24.8734 26.6133L26.7534 24.7333L24.3534 22.3467L22.4867 24.2133ZM26.1667 14H30.1667V16.6667H26.1667V14ZM15.5 7.33334C11.0867 7.33334 7.50004 10.92 7.50004 15.3333C7.50004 19.7467 11.0867 23.3333 15.5 23.3333C19.9134 23.3333 23.5 19.7467 23.5 15.3333C23.5 10.92 19.9134 7.33334 15.5 7.33334ZM15.5 20.6667C12.5534 20.6667 10.1667 18.28 10.1667 15.3333C10.1667 12.3867 12.5534 10 15.5 10C18.4467 10 20.8334 12.3867 20.8334 15.3333C20.8334 18.28 18.4467 20.6667 15.5 20.6667ZM14.1667 26H16.8334V29.9333H14.1667V26ZM4.23337 24.72L6.11337 26.6L8.50004 24.2L6.62004 22.32L4.23337 24.72Z" fill="white"/>
</svg>
