<svg width="28" height="28" viewBox="0 0 28 28" fill="none" xmlns="http://www.w3.org/2000/svg">
<path d="M23.5833 10.0347V4.41652H17.9651L14 0.451416L10.0349 4.41652H4.41664V10.0347L0.451538 13.9999L4.41664 17.965V23.5832H10.0349L14 27.5483L17.9651 23.5832H23.5833V17.965L27.5484 13.9999L23.5833 10.0347ZM21.1875 16.9707V21.1874H16.9708L14 24.1582L11.0291 21.1874H6.81248V16.9707L3.84164 13.9999L6.81248 11.029V6.81235H11.0291L14 3.84152L16.9708 6.81235H21.1875V11.029L24.1583 13.9999L21.1875 16.9707ZM14 7.41131C10.3703 7.41131 7.41143 10.3702 7.41143 13.9999C7.41143 17.6295 10.3703 20.5884 14 20.5884C17.6297 20.5884 20.5885 17.6295 20.5885 13.9999C20.5885 10.3702 17.6297 7.41131 14 7.41131ZM14 18.1926C11.688 18.1926 9.80727 16.3118 9.80727 13.9999C9.80727 11.6879 11.688 9.80714 14 9.80714C16.312 9.80714 18.1927 11.6879 18.1927 13.9999C18.1927 16.3118 16.312 18.1926 14 18.1926Z" fill="#22222E"/>
</svg>
