<svg width="157" height="124" viewBox="0 0 157 124" fill="none" xmlns="http://www.w3.org/2000/svg">
<rect x="0.5" y="1.48096" width="156" height="120.84" rx="15.5" stroke="#BD6F6D"/>
<g clip-path="url(#clip0)">
<path d="M97.7655 122.98H60.9375L61.2228 118.216L61.4646 114.151L61.7023 110.173L61.9564 105.934L62.1941 101.957L62.4427 97.7931L62.6805 93.8165L62.9291 89.6527L63.1668 85.6761L63.4195 81.458L63.6559 77.4814L63.9086 73.2633L64.1463 69.2853L64.3881 65.2423L64.6259 61.2657L64.9207 56.338V56.3271H93.7171V56.338L94.0174 61.2657L94.2592 65.2423L94.5037 69.2853L94.7455 73.2633L95.0023 77.4814L95.2441 81.458L95.4995 85.6761L95.7413 89.6527L95.994 93.8165L96.2358 97.7931L96.4885 101.957L96.7303 105.934L96.9871 110.173L97.2289 114.151L97.4761 118.216L97.7655 122.98Z" stroke="#BD6F6D" stroke-width="0.132704" stroke-miterlimit="10"/>
<path d="M78.8753 50.8641H72.3979V53.7486H78.8753V50.8641Z" stroke="#BD6F6D" stroke-width="0.132704" stroke-miterlimit="10"/>
<path d="M78.9351 47.1489H72.459V50.0334H78.9351V47.1489Z" stroke="#BD6F6D" stroke-width="0.132704" stroke-miterlimit="10"/>
<path d="M86.1515 50.8641H79.6741V53.7486H86.1515V50.8641Z" stroke="#BD6F6D" stroke-width="0.132704" stroke-miterlimit="10"/>
<path d="M86.2112 47.1489H79.7338V50.0334H86.2112V47.1489Z" stroke="#BD6F6D" stroke-width="0.132704" stroke-miterlimit="10"/>
<path d="M92.2729 42.7334H66.4082V46.4047H92.2729V42.7334Z" stroke="#BD6F6D" stroke-width="0.132704" stroke-miterlimit="10"/>
<path d="M87.9475 28.1917H70.606V41.4226H87.9475V28.1917Z" stroke="#BD6F6D" stroke-width="0.132704" stroke-miterlimit="10"/>
<path d="M82.6996 41.7179V34.8067C82.6996 34.8067 82.1154 32.1461 79.3413 32.1461C76.5672 32.1461 75.9709 34.8067 75.9709 34.8067V41.7179H82.6996Z" fill="#BD6F6D"/>
<path d="M74.2195 28.1917H73.4098V38.1135H74.2195V28.1917Z" fill="#BD6F6D"/>
<path d="M79.6808 28.1917H78.8711V35.1517H79.6808V28.1917Z" fill="#BD6F6D"/>
<path d="M85.2263 28.1917H84.4166V38.1135H85.2263V28.1917Z" fill="#BD6F6D"/>
<path d="M97.7655 122.981H60.9375L61.2228 118.217H97.4761L97.7655 122.981Z" fill="#BD6F6D"/>
<path d="M97.2287 114.153H61.4644L61.7021 110.175H96.9868L97.2287 114.153Z" fill="#BD6F6D"/>
<path d="M96.7304 105.934H61.9565L62.1943 101.958H96.4886L96.7304 105.934Z" fill="#BD6F6D"/>
<path d="M96.2359 97.7941H62.4428L62.6806 93.8175H95.9941L96.2359 97.7941Z" fill="#BD6F6D"/>
<path d="M95.7413 89.6531H62.9291L63.1668 85.6765H95.4995L95.7413 89.6531Z" fill="#BD6F6D"/>
<path d="M95.2444 81.4593H63.4198L63.6562 77.4827H95.0026L95.2444 81.4593Z" fill="#BD6F6D"/>
<path d="M94.7457 73.2638H63.9088L64.1465 69.2859H94.5039L94.7457 73.2638Z" fill="#BD6F6D"/>
<path d="M94.2595 65.2436H64.3885L64.6262 61.267H94.0177L94.2595 65.2436Z" fill="#BD6F6D"/>
<path d="M80.0327 35.5122H78.6551V41.3679H80.0327V35.5122Z" fill="#BD6F6D"/>
<path d="M79.324 36.7564C80.1838 36.7564 80.8808 36.0482 80.8808 35.1745C80.8808 34.3008 80.1838 33.5925 79.324 33.5925C78.4641 33.5925 77.7671 34.3008 77.7671 35.1745C77.7671 36.0482 78.4641 36.7564 79.324 36.7564Z" fill="#BD6F6D"/>
<path d="M79.3234 36.3349C79.9544 36.3349 80.4659 35.815 80.4659 35.1736C80.4659 34.5322 79.9544 34.0122 79.3234 34.0122C78.6924 34.0122 78.1809 34.5322 78.1809 35.1736C78.1809 35.815 78.6924 36.3349 79.3234 36.3349Z" fill="white"/>
<path d="M92.2728 50.8646H86.9501V53.749H92.2728V50.8646Z" stroke="#BD6F6D" stroke-width="0.132704" stroke-miterlimit="10"/>
<path d="M71.5988 50.8646H66.408V53.749H71.5988V50.8646Z" stroke="#BD6F6D" stroke-width="0.132704" stroke-miterlimit="10"/>
<path d="M71.66 47.1498H66.408V50.0342H71.66V47.1498Z" stroke="#BD6F6D" stroke-width="0.132704" stroke-miterlimit="10"/>
<path d="M92.2729 47.1498H87.01V50.0342H92.2729V47.1498Z" stroke="#BD6F6D" stroke-width="0.132704" stroke-miterlimit="10"/>
<path d="M72.3979 50.8645V53.749H78.8753V50.8645H72.3979ZM72.4591 47.1498V50.0288H78.9351V47.1498H72.4591ZM79.6701 50.8645V53.749H86.1475V50.8645H79.6701ZM79.7298 47.1498V50.0288H86.2072V47.1498H79.7298Z" stroke="#BD6F6D" stroke-width="0.132704" stroke-miterlimit="10"/>
<path d="M64.2195 46.4061V54.1395H94.3297V46.4061H64.2195ZM71.599 53.7488H65.123V50.8644H71.599V53.7488ZM71.6547 50.0286H65.1827V47.1496H71.6547V50.0286ZM78.8698 53.7434H72.3978V50.8644H78.8752L78.8698 53.7434ZM78.9296 50.0286H72.4589V47.1496H78.935L78.9296 50.0286ZM86.146 53.7434H79.6699V50.8644H86.1473L86.146 53.7434ZM86.2058 50.0286H79.7338V47.1496H86.2112L86.2058 50.0286ZM93.4222 53.7434H86.9502V50.8644H93.4276L93.4222 53.7434ZM93.482 50.0286H87.0059V47.1496H93.4833L93.482 50.0286Z" stroke="#BD6F6D" stroke-width="0.132704" stroke-miterlimit="10"/>
<path d="M78.9351 47.1498H72.4591V50.0342H78.9351V47.1498Z" stroke="#BD6F6D" stroke-width="0.132704" stroke-miterlimit="10"/>
<path d="M86.2112 47.1498H79.7338V50.0342H86.2112V47.1498Z" stroke="#BD6F6D" stroke-width="0.132704" stroke-miterlimit="10"/>
<path d="M78.8753 50.8646H72.3979V53.749H78.8753V50.8646Z" stroke="#BD6F6D" stroke-width="0.132704" stroke-miterlimit="10"/>
<path d="M86.1516 50.8646H79.6742V53.749H86.1516V50.8646Z" stroke="#BD6F6D" stroke-width="0.132704" stroke-miterlimit="10"/>
<path d="M91.1562 38.1136V41.3576H90.4348V38.4108H85.4232V41.3576H84.6801V38.4216H79.712V41.3576H78.9689V38.4447H73.9791V41.3576H73.2129V38.4447H68.181V41.3576H67.4148V38.1136H91.1562Z" stroke="#BD6F6D" stroke-width="0.132704" stroke-miterlimit="10"/>
<path d="M89.396 27.0649V28.191H69.275V27.0649H71.2204L71.2123 27.0975H87.3935L87.3854 27.0649H89.396Z" fill="#BD6F6D"/>
<path d="M93.4878 41.3566H65.0405V42.7337H93.4878V41.3566Z" fill="#BD6F6D"/>
<path d="M93.7174 56.3275H64.9209V56.3384H93.7174V56.3275Z" stroke="#BD6F6D" stroke-width="0.132704" stroke-miterlimit="10"/>
<path d="M96.6817 54.1412V56.3378H93.7174V56.3269H64.9209V56.3378H61.9553V54.1412H96.6817Z" fill="#BD6F6D"/>
<path d="M87.3937 27.0995H71.2124L71.2205 27.0669C71.3319 26.6667 72.5695 22.7159 78.2359 22.2587V19.9196V19.6008C78.0468 19.4571 77.8955 19.2696 77.7952 19.0546C77.6948 18.8395 77.6484 18.6032 77.6599 18.3662C77.6613 17.9843 77.7988 17.6155 78.0477 17.3256C78.2966 17.0358 78.6407 16.8438 79.0184 16.7842V16.6662L79.2901 10.9679L79.6026 16.6662V16.8019C79.9631 16.8785 80.287 17.0749 80.5213 17.359C80.7557 17.6431 80.8868 17.9981 80.8932 18.3662C80.8932 18.8397 80.7573 19.2671 80.4381 19.5615V22.2573C86.0976 22.7159 87.2823 26.6653 87.3882 27.0656L87.3937 27.0995Z" fill="#BD6F6D"/>
</g>
<defs>
<clipPath id="clip0">
<rect width="38" height="112.852" fill="white" transform="translate(60 10.9679)"/>
</clipPath>
</defs>
</svg>
