<svg width="46" height="32" viewBox="0 0 46 32" fill="none" xmlns="http://www.w3.org/2000/svg">
<path d="M2.2005 18.0289C4.92059 23.984 9.35035 28.111 15.4898 30.4097C21.6292 32.7084 27.7183 32.5151 33.757 29.8297C39.4743 27.2895 43.5263 23.2347 45.913 17.6652L36.3207 14.0776C34.9958 16.8912 32.7196 19.1618 29.8831 20.4996C25.6411 22.496 21.331 22.3203 16.9527 19.9724C15.2014 19.034 13.7238 17.6674 12.6614 16.0036C10.0637 11.9285 9.57333 7.78816 11.1904 3.5827L1.61113 0C-0.718219 6.06196 -0.521761 12.0716 2.2005 18.0289Z" fill="#2B2B39"/>
<path d="M23.8076 13.2876C26.3802 13.2876 28.4657 11.2295 28.4657 8.6907C28.4657 6.15187 26.3802 4.09375 23.8076 4.09375C21.2349 4.09375 19.1494 6.15187 19.1494 8.6907C19.1494 11.2295 21.2349 13.2876 23.8076 13.2876Z" fill="#BD6F6D"/>
</svg>
