<svg width="586" height="777" viewBox="0 0 586 777" fill="none" xmlns="http://www.w3.org/2000/svg">
<g clip-path="url(#clip0)">
<path d="M578.015 723.209V775.893H17.4556V723.748L35.3956 713.969H559.558L578.015 723.209Z" fill="#BD6F6D"/>
<path d="M96.0161 615.13V658.766H112.472V615.13H96.0161ZM116.654 615.13V658.766H133.144V615.13H116.654ZM197.71 399.006V442.642H214.178V399.029L197.71 399.006ZM218.337 399.006V442.642H234.827V399.029L218.337 399.006ZM218.337 399.006V442.642H234.827V399.029L218.337 399.006ZM197.71 399.006V442.642H214.178V399.029L197.71 399.006ZM116.654 615.13V658.766H133.144V615.13H116.654ZM96.0161 615.13V658.766H112.472V615.13H96.0161ZM96.0161 615.13V658.766H112.472V615.13H96.0161ZM116.654 615.13V658.766H133.144V615.13H116.654ZM197.71 399.006V442.642H214.178V399.029L197.71 399.006ZM218.337 399.006V442.642H234.827V399.029L218.337 399.006ZM218.337 399.006V442.642H234.827V399.029L218.337 399.006ZM197.71 399.006V442.642H214.178V399.029L197.71 399.006ZM116.654 615.13V658.766H133.144V615.13H116.654ZM96.0161 615.13V658.766H112.472V615.13H96.0161ZM96.0161 615.13V658.766H112.472V615.13H96.0161ZM116.654 615.13V658.766H133.144V615.13H116.654ZM197.71 399.006V442.642H214.178V399.029L197.71 399.006ZM218.337 399.006V442.642H234.827V399.029L218.337 399.006ZM305.497 614.557V658.181H321.987V614.579L305.497 614.557ZM326.157 614.557V658.181H342.613V614.579L326.157 614.557ZM218.337 399.029V442.665H234.827V399.029H218.337ZM197.71 399.029V442.665H214.178V399.029H197.71ZM116.654 615.13V658.766H133.144V615.13H116.654ZM96.0161 615.13V658.766H112.472V615.13H96.0161ZM326.157 614.557V658.181H342.613V614.579L326.157 614.557ZM305.497 614.557V658.181H321.987V614.579L305.497 614.557ZM96.0161 615.13V658.766H112.472V615.13H96.0161ZM116.654 615.13V658.766H133.144V615.13H116.654ZM197.71 399.006V442.642H214.178V399.029L197.71 399.006ZM218.337 399.006V442.642H234.827V399.029L218.337 399.006ZM305.497 614.557V658.181H321.987V614.579L305.497 614.557ZM326.157 614.557V658.181H342.613V614.579L326.157 614.557ZM218.337 399.029V442.665H234.827V399.029H218.337ZM197.71 399.029V442.665H214.178V399.029H197.71ZM116.654 615.13V658.766H133.144V615.13H116.654ZM96.0161 615.13V658.766H112.472V615.13H96.0161ZM326.157 614.557V658.181H342.613V614.579L326.157 614.557ZM305.497 614.557V658.181H321.987V614.579L305.497 614.557ZM96.0161 615.13V658.766H112.472V615.13H96.0161ZM116.654 615.13V658.766H133.144V615.13H116.654ZM197.71 399.006V442.642H214.178V399.029L197.71 399.006ZM218.337 399.006V442.642H234.827V399.029L218.337 399.006ZM305.497 614.557V658.181H321.987V614.579L305.497 614.557ZM326.157 614.557V658.181H342.613V614.579L326.157 614.557ZM218.337 399.029V442.665H234.827V399.029H218.337ZM197.71 399.029V442.665H214.178V399.029H197.71ZM116.654 615.13V658.766H133.144V615.13H116.654ZM96.0161 615.13V658.766H112.472V615.13H96.0161ZM326.157 614.557V658.181H342.613V614.579L326.157 614.557ZM305.497 614.557V658.181H321.987V614.579L305.497 614.557ZM96.0161 615.13V658.766H112.472V615.13H96.0161ZM116.654 615.13V658.766H133.144V615.13H116.654ZM305.497 614.557V658.181H321.987V614.579L305.497 614.557ZM326.157 614.557V658.181H342.613V614.579L326.157 614.557ZM116.654 615.13V658.766H133.144V615.13H116.654ZM96.0161 615.13V658.766H112.472V615.13H96.0161ZM326.157 614.557V658.181H342.613V614.579L326.157 614.557ZM305.497 614.557V658.181H321.987V614.579L305.497 614.557ZM96.0161 615.13V658.766H112.472V615.13H96.0161ZM116.654 615.13V658.766H133.144V615.13H116.654ZM305.497 614.557V658.181H321.987V614.579L305.497 614.557ZM326.157 614.557V658.181H342.613V614.579L326.157 614.557ZM326.157 614.557V658.181H342.613V614.579L326.157 614.557ZM305.497 614.557V658.181H321.987V614.579L305.497 614.557ZM116.654 615.13V658.766H133.144V615.13H116.654ZM96.0161 615.13V658.766H112.472V615.13H96.0161ZM96.0161 615.13V658.766H112.472V615.13H96.0161ZM116.654 615.13V658.766H133.144V615.13H116.654ZM305.497 614.557V658.181H321.987V614.579L305.497 614.557ZM326.157 614.557V658.181H342.613V614.579L326.157 614.557ZM326.157 614.557V658.181H342.613V614.579L326.157 614.557ZM305.497 658.181H321.987V614.579H305.497V658.181ZM116.654 615.13V658.766H133.144V615.13H116.654ZM96.0161 658.766H112.472V615.13H96.0161V658.766ZM37.1601 492.607V718.386H407.449V493.315L37.1601 492.607ZM140.158 666.477V670.546H88.7434V666.342L83.8425 659.688H89.4628V580.194C89.6203 579.43 89.8345 578.678 90.1035 577.946C91.7896 573.124 97.4661 562.209 114.181 562.209C132.099 562.209 138.281 573.787 139.821 577.609C140.124 578.373 140.248 578.823 140.248 578.823V659.755H144.059L140.158 666.477ZM270.549 582.644L268.2 587.59H171.362L169.361 581.97V579.587H270.583L270.549 582.644ZM349.65 665.904V669.973H298.213V665.769L293.334 659.114H298.955V579.621C299.113 578.857 299.327 578.105 299.595 577.373C301.281 572.539 306.958 561.636 323.673 561.636C341.579 561.636 347.761 573.213 349.313 577.035C349.616 577.8 349.74 578.249 349.74 578.249V659.182H353.539L349.65 665.904ZM326.123 658.204H342.58V614.579H326.157L326.123 658.204ZM305.463 658.204H321.953V614.579H305.497L305.463 658.204ZM116.62 658.789H133.11V615.13H116.654L116.62 658.789ZM95.9823 658.789H112.472V615.13H96.0161L95.9823 658.789ZM95.9823 615.152V658.789H112.472V615.13L95.9823 615.152ZM116.62 615.152V658.789H133.11V615.13L116.62 615.152ZM305.463 614.579V658.204H321.953V614.579H305.463ZM326.123 614.579V658.204H342.58V614.579H326.123ZM326.123 614.579V658.204H342.58V614.579H326.123ZM305.463 614.579V658.204H321.953V614.579H305.463ZM116.62 615.152V658.789H133.11V615.13L116.62 615.152ZM95.9823 615.152V658.789H112.472V615.13L95.9823 615.152ZM305.463 614.579V658.204H321.953V614.579H305.463ZM326.123 614.579V658.204H342.58V614.579H326.123ZM96.0161 615.13V658.766H112.472V615.13H96.0161ZM116.654 615.13V658.766H133.144V615.13H116.654ZM326.157 614.557V658.181H342.613V614.579L326.157 614.557ZM305.497 614.557V658.181H321.987V614.579L305.497 614.557ZM116.654 615.13V658.766H133.144V615.13H116.654ZM96.0161 615.13V658.766H112.472V615.13H96.0161ZM96.0161 615.13V658.766H112.472V615.13H96.0161ZM116.654 615.13V658.766H133.144V615.13H116.654ZM305.497 614.557V658.181H321.987V614.579L305.497 614.557ZM326.157 614.557V658.181H342.613V614.579L326.157 614.557ZM197.71 399.029V442.665H214.178V399.029H197.71ZM218.337 399.029V442.665H234.827V399.029H218.337ZM218.337 399.029V442.665H234.827V399.029H218.337ZM197.71 399.029V442.665H214.178V399.029H197.71ZM197.71 399.029V442.665H214.178V399.029H197.71ZM218.337 399.029V442.665H234.827V399.029H218.337ZM218.337 399.029V442.665H234.827V399.029H218.337ZM197.71 399.029V442.665H214.178V399.029H197.71ZM197.71 399.029V442.665H214.178V399.029H197.71ZM218.337 399.029V442.665H234.827V399.029H218.337ZM218.337 399.029V442.665H234.827V399.029H218.337ZM197.71 442.665H214.178V399.029H197.71V442.665ZM384.901 389.778L379.213 388.069H290.805L215.999 244.402L151.365 393.498L28.0439 391.767V476.611H407.449V374.49L384.901 389.778ZM241.875 450.353V454.389H190.426V450.173L185.537 443.564H191.157V364.07C191.314 363.306 191.529 362.554 191.798 361.822C193.484 356.989 199.138 346.085 215.864 346.085C233.77 346.085 239.952 357.663 241.492 361.496C241.667 361.89 241.814 362.296 241.931 362.71V443.586H245.741L241.875 450.353ZM218.337 442.665H234.827V399.029H218.337V442.665ZM197.71 442.665H214.178V399.029H197.71V442.665ZM197.71 399.029V442.665H214.178V399.029H197.71ZM218.337 399.029V442.665H234.827V399.029H218.337ZM218.337 399.029V442.665H234.827V399.029H218.337ZM197.71 399.029V442.665H214.178V399.029H197.71ZM197.71 399.029V442.665H214.178V399.029H197.71ZM218.337 399.029V442.665H234.827V399.029H218.337ZM218.337 399.029V442.665H234.827V399.029H218.337ZM197.71 399.029V442.665H214.178V399.029H197.71ZM197.71 399.029V442.665H214.178V399.029H197.71ZM218.337 399.029V442.665H234.827V399.029H218.337ZM326.157 614.579V658.204H342.613V614.579H326.157ZM305.497 614.579V658.204H321.987V614.579H305.497ZM218.337 399.029V442.665H234.827V399.029H218.337ZM197.71 399.029V442.665H214.178V399.029H197.71ZM116.654 615.13V658.766H133.144V615.13H116.654ZM96.0161 615.13V658.766H112.472V615.13H96.0161ZM305.497 614.557V658.181H321.987V614.579L305.497 614.557ZM326.157 614.557V658.181H342.613V614.579L326.157 614.557ZM96.0161 615.13V658.766H112.472V615.13H96.0161ZM116.654 615.13V658.766H133.144V615.13H116.654ZM197.71 399.006V442.642H214.178V399.029L197.71 399.006ZM218.337 399.006V442.642H234.827V399.029L218.337 399.006ZM326.157 614.579V658.204H342.613V614.579H326.157ZM305.497 614.579V658.204H321.987V614.579H305.497ZM218.337 399.029V442.665H234.827V399.029H218.337ZM197.71 399.029V442.665H214.178V399.029H197.71ZM116.654 615.13V658.766H133.144V615.13H116.654ZM96.0161 615.13V658.766H112.472V615.13H96.0161ZM305.497 614.557V658.181H321.987V614.579L305.497 614.557ZM326.157 614.557V658.181H342.613V614.579L326.157 614.557ZM96.0161 615.13V658.766H112.472V615.13H96.0161ZM116.654 615.13V658.766H133.144V615.13H116.654ZM197.71 399.006V442.642H214.178V399.029L197.71 399.006ZM218.337 399.006V442.642H234.827V399.029L218.337 399.006ZM326.157 614.579V658.204H342.613V614.579H326.157ZM305.497 614.579V658.204H321.987V614.579H305.497ZM218.337 399.029V442.665H234.827V399.029H218.337ZM197.71 399.029V442.665H214.178V399.029H197.71ZM116.654 615.13V658.766H133.144V615.13H116.654ZM96.0161 615.13V658.766H112.472V615.13H96.0161ZM305.497 614.557V658.181H321.987V614.579L305.497 614.557ZM326.157 614.557V658.181H342.613V614.579L326.157 614.557ZM96.0161 615.13V658.766H112.472V615.13H96.0161ZM116.654 615.13V658.766H133.144V615.13H116.654ZM197.71 399.006V442.642H214.178V399.029L197.71 399.006ZM218.337 399.006V442.642H234.827V399.029L218.337 399.006ZM326.157 614.579V658.204H342.613V614.579H326.157ZM305.497 614.579V658.204H321.987V614.579H305.497ZM218.337 399.029V442.665H234.827V399.029H218.337ZM197.71 399.029V442.665H214.178V399.029H197.71ZM116.654 615.13V658.766H133.144V615.13H116.654ZM96.0161 615.13V658.766H112.472V615.13H96.0161ZM96.0161 615.13V658.766H112.472V615.13H96.0161ZM116.654 615.13V658.766H133.144V615.13H116.654ZM197.71 399.006V442.642H214.178V399.029L197.71 399.006ZM218.337 399.006V442.642H234.827V399.029L218.337 399.006ZM218.337 399.006V442.642H234.827V399.029L218.337 399.006ZM197.71 399.006V442.642H214.178V399.029L197.71 399.006ZM116.654 615.13V658.766H133.144V615.13H116.654ZM96.0161 615.13V658.766H112.472V615.13H96.0161ZM197.71 399.006V442.642H214.178V399.029L197.71 399.006ZM218.337 399.006V442.642H234.827V399.029L218.337 399.006ZM218.337 399.006V442.642H234.827V399.029L218.337 399.006ZM197.71 399.006V442.642H214.178V399.029L197.71 399.006Z" stroke="#BD6F6D" stroke-miterlimit="10"/>
<path d="M465.833 614.579V658.204H482.289V614.579H465.833ZM486.471 614.579V658.204H502.961V614.579H486.471ZM486.471 614.579V658.204H502.961V614.579H486.471ZM465.833 614.579V658.204H482.289V614.579H465.833ZM465.833 614.579V658.204H482.289V614.579H465.833ZM486.471 614.579V658.204H502.961V614.579H486.471ZM486.471 614.579V658.204H502.961V614.579H486.471ZM465.833 614.579V658.204H482.289V614.579H465.833ZM465.833 614.579V658.204H482.289V614.579H465.833ZM465.946 398.939V442.575H482.413V398.939H465.946ZM486.471 614.579V658.204H502.961V614.579H486.471ZM486.583 398.939V442.575H503.051V398.939H486.583ZM486.583 398.939V442.575H503.051V398.939H486.583ZM465.946 398.939V442.575H482.413V398.939H465.946ZM486.471 614.579V658.204H502.961V614.579H486.471ZM465.833 614.579V658.204H482.289V614.579H465.833ZM465.833 614.579V658.204H482.289V614.579H465.833ZM486.471 614.579V658.204H502.961V614.579H486.471ZM486.471 614.579V658.204H502.961V614.579H486.471ZM465.833 614.579V658.204H482.289V614.579H465.833ZM465.833 614.579V658.204H482.289V614.579H465.833ZM486.471 614.579V658.204H502.961V614.579H486.471ZM486.471 614.579V658.204H502.961V614.579H486.471ZM465.833 614.579V658.204H482.289V614.579H465.833ZM465.833 614.579V658.204H482.289V614.579H465.833ZM486.471 614.579V658.204H502.961V614.579H486.471ZM486.471 614.579V658.204H502.961V614.579H486.471ZM465.833 614.579V658.204H482.289V614.579H465.833ZM465.833 614.579V658.204H482.289V614.579H465.833ZM486.471 614.579V658.204H502.961V614.579H486.471ZM486.471 614.579V658.204H502.961V614.579H486.471ZM465.833 658.204H482.289V614.579H465.833V658.204ZM407.449 493.315V713.969H559.198V493.315H407.449ZM510.009 665.904V669.973H458.549V665.769L453.66 659.114H459.28V579.621C459.439 578.857 459.653 578.105 459.921 577.372C461.607 572.539 467.283 561.636 483.998 561.636C501.904 561.636 508.087 573.213 509.638 577.035C509.941 577.8 510.065 578.249 510.065 578.249V659.182H513.763L510.009 665.904ZM486.471 658.204H502.961V614.579H486.471V658.204ZM465.833 658.204H482.289V614.579H465.833V658.204ZM465.833 614.579V658.204H482.289V614.579H465.833ZM486.471 614.579V658.204H502.961V614.579H486.471ZM486.471 614.579V658.204H502.961V614.579H486.471ZM465.833 614.579V658.204H482.289V614.579H465.833ZM465.833 614.579V658.204H482.289V614.579H465.833ZM486.471 614.579V658.204H502.961V614.579H486.471ZM486.471 614.579V658.204H502.961V614.579H486.471ZM465.833 614.579V658.204H482.289V614.579H465.833ZM465.833 614.579V658.204H482.289V614.579H465.833ZM486.471 614.579V658.204H502.961V614.579H486.471ZM486.471 614.579V658.204H502.961V614.579H486.471ZM465.833 614.579V658.204H482.289V614.579H465.833ZM465.833 614.579V658.204H482.289V614.579H465.833ZM486.471 614.579V658.204H502.961V614.579H486.471ZM465.946 398.939V442.575H482.413V398.939H465.946ZM486.583 398.939V442.575H503.051V398.939H486.583ZM486.583 398.939V442.575H503.051V398.939H486.583ZM465.946 398.939V442.575H482.413V398.939H465.946ZM465.946 398.939V442.575H482.413V398.939H465.946ZM486.583 398.939V442.575H503.051V398.939H486.583ZM486.583 398.939V442.575H503.051V398.939H486.583ZM465.946 398.939V442.575H482.413V398.939H465.946ZM465.946 398.939V442.575H482.413V398.939H465.946ZM486.583 398.939V442.575H503.051V398.939H486.583ZM486.583 398.939V442.575H503.051V398.939H486.583ZM465.946 398.939V442.575H482.413V398.939H465.946ZM465.946 398.939V442.575H482.413V398.939H465.946ZM486.583 398.939V442.575H503.051V398.939H486.583ZM486.583 398.939V442.575H503.051V398.939H486.583ZM465.946 442.575H482.413V398.939H465.946V442.575ZM407.494 320.445V476.611H559.243V320.445H407.494ZM510.166 450.263V454.389H458.684V450.173L453.794 443.519H459.415V363.98C459.572 363.216 459.786 362.464 460.055 361.732V361.732C461.753 356.899 467.429 345.995 484.133 345.995C502.028 345.995 508.21 357.573 509.75 361.406C509.925 361.801 510.075 362.207 510.2 362.62V443.496H514.01L510.166 450.263ZM486.628 442.575H503.096V398.939H486.583L486.628 442.575ZM465.99 442.575H482.458V398.939H465.946L465.99 442.575ZM465.99 398.939V442.575H482.458V398.939H465.99ZM486.628 398.939V442.575H503.096V398.939H486.628ZM486.628 398.939V442.575H503.096V398.939H486.628ZM465.99 398.939V442.575H482.458V398.939H465.99ZM465.99 398.939V442.575H482.458V398.939H465.99ZM486.628 398.939V442.575H503.096V398.939H486.628ZM486.628 398.939V442.575H503.096V398.939H486.628ZM465.99 398.939V442.575H482.458V398.939H465.99ZM465.99 398.939V442.575H482.458V398.939H465.99ZM486.628 398.939V442.575H503.096V398.939H486.628ZM407.449 259.701V303.067H559.198V259.701H407.449ZM486.583 398.939V442.575H503.051V398.939H486.583ZM465.946 398.939V442.575H482.413V398.939H465.946ZM465.946 398.939V442.575H482.413V398.939H465.946ZM486.583 398.939V442.575H503.051V398.939H486.583ZM486.583 398.939V442.575H503.051V398.939H486.583ZM486.471 614.579V658.204H502.961V614.579H486.471ZM465.946 398.939V442.575H482.413V398.939H465.946ZM465.833 614.579V658.204H482.289V614.579H465.833ZM465.833 614.579V658.204H482.289V614.579H465.833ZM486.471 614.579V658.204H502.961V614.579H486.471ZM465.946 398.939V442.575H482.413V398.939H465.946ZM486.583 398.939V442.575H503.051V398.939H486.583ZM486.583 398.939V442.575H503.051V398.939H486.583ZM486.471 614.579V658.204H502.961V614.579H486.471ZM465.946 398.939V442.575H482.413V398.939H465.946ZM465.833 614.579V658.204H482.289V614.579H465.833ZM465.833 614.579V658.204H482.289V614.579H465.833ZM486.471 614.579V658.204H502.961V614.579H486.471ZM486.471 614.579V658.204H502.961V614.579H486.471ZM465.833 614.579V658.204H482.289V614.579H465.833ZM465.833 614.579V658.204H482.289V614.579H465.833ZM486.471 614.579V658.204H502.961V614.579H486.471ZM486.471 614.579V658.204H502.961V614.579H486.471ZM465.833 614.579V658.204H482.289V614.579H465.833Z" stroke="#BD6F6D" stroke-miterlimit="10"/>
<path d="M263.772 579.632H175.533V579.272C175.533 579.272 180.951 545.044 220.068 545.044C257.477 545.044 263.345 576.912 263.772 579.632Z" fill="#BD6F6D"/>
<path d="M263.794 587.602H175.533V713.429H263.794V587.602Z" stroke="#BD6F6D" stroke-miterlimit="10"/>
<path d="M270.572 579.632V582.656L268.223 587.602H171.351L169.373 582.015V579.632H270.572Z" stroke="#BD6F6D" stroke-miterlimit="10"/>
<path d="M219.663 589.041H181.681V713.429H219.663V589.041Z" stroke="#BD6F6D" stroke-miterlimit="10"/>
<path d="M259.174 589.041H221.192V713.429H259.174V589.041Z" stroke="#BD6F6D" stroke-miterlimit="10"/>
<path d="M211.919 591.761H188.561V643.085H211.919V591.761Z" fill="#BD6F6D"/>
<path d="M250.89 591.761H227.532V643.085H250.89V591.761Z" fill="#BD6F6D"/>
<path d="M211.919 651.235H188.561V665.769H211.919V651.235Z" fill="#BD6F6D"/>
<path d="M211.919 672.828H188.561V704.201H211.919V672.828Z" fill="#BD6F6D"/>
<path d="M250.89 651.235H227.532V665.769H250.89V651.235Z" fill="#BD6F6D"/>
<path d="M250.89 672.828H227.532V704.201H250.89V672.828Z" fill="#BD6F6D"/>
<path d="M486.584 398.938V442.575H503.051V398.938H486.584ZM465.946 442.575H482.413V398.938H465.946V442.575Z" stroke="#BD6F6D" stroke-miterlimit="10"/>
<path d="M509.672 361.384C508.132 357.551 501.949 345.973 484.054 345.973C467.351 345.973 461.674 356.887 459.977 361.71C459.707 362.442 459.493 363.193 459.336 363.958V443.452H510.121V362.598C509.996 362.184 509.846 361.779 509.672 361.384V361.384ZM482.413 442.575H465.945V398.939H482.413V442.575ZM482.413 394.049H465.945V367.611C465.929 366.021 466.13 364.437 466.541 362.901C469.486 352.279 482.413 353.133 482.413 353.133V394.049ZM503.051 442.575H486.583V398.939H503.051V442.575ZM503.051 394.049H486.583V353.133C486.583 353.133 499.51 352.279 502.444 362.901C502.865 364.435 503.069 366.02 503.051 367.611V394.049Z" stroke="#BD6F6D" stroke-miterlimit="10"/>
<path d="M517.731 356.382L509.672 361.384C508.132 357.551 501.949 345.973 484.054 345.973C467.351 345.973 461.674 356.887 459.977 361.71L452.536 356.37C452.536 356.37 465.046 336.643 484.718 336.643C504.389 336.643 517.731 356.382 517.731 356.382Z" stroke="#BD6F6D" stroke-miterlimit="10"/>
<path d="M482.413 353.133V394.049H465.946V367.611C465.929 366.021 466.13 364.437 466.541 362.901C469.487 352.279 482.413 353.133 482.413 353.133Z" stroke="#BD6F6D" stroke-miterlimit="10"/>
<path d="M482.425 398.938H465.946V442.575H482.425V398.938Z" stroke="#BD6F6D" stroke-miterlimit="10"/>
<path d="M503.062 398.938H486.583V442.575H503.062V398.938Z" stroke="#BD6F6D" stroke-miterlimit="10"/>
<path d="M503.051 367.611V394.049H486.583V353.133C486.583 353.133 499.51 352.279 502.444 362.901C502.865 364.435 503.069 366.02 503.051 367.611V367.611Z" stroke="#BD6F6D" stroke-miterlimit="10"/>
<path d="M513.921 443.474L510.11 450.264V454.344H458.662V450.129L453.772 443.474H513.921Z" stroke="#BD6F6D" stroke-miterlimit="10"/>
<path d="M218.337 399.029V442.665H234.827V399.029H218.337ZM197.71 442.665H214.178V399.029H197.71V442.665Z" stroke="#BD6F6D" stroke-miterlimit="10"/>
<path d="M241.436 361.473C239.896 357.64 233.714 346.062 215.807 346.062C199.081 346.062 193.427 357 191.741 361.799C191.472 362.532 191.258 363.283 191.101 364.048V443.541H241.875V362.687C241.757 362.273 241.611 361.867 241.436 361.473V361.473ZM214.178 442.665H197.71V399.028H214.178V442.665ZM214.178 394.139H197.71V367.701C197.694 366.111 197.894 364.526 198.306 362.991C201.251 352.368 214.178 353.223 214.178 353.223V394.139ZM234.827 442.665H218.337V399.028H234.827V442.665ZM234.827 394.139H218.337V353.223C218.337 353.223 231.263 352.368 234.208 362.991C234.639 364.523 234.847 366.109 234.827 367.701V394.139Z" stroke="#BD6F6D" stroke-miterlimit="10"/>
<path d="M249.496 356.483L241.436 361.474C239.896 357.641 233.714 346.063 215.808 346.063C199.082 346.063 193.428 357 191.742 361.8L184.312 356.449C184.312 356.449 196.811 336.71 216.482 336.71C236.153 336.71 249.496 356.483 249.496 356.483Z" stroke="#BD6F6D" stroke-miterlimit="10"/>
<path d="M214.178 353.223V394.139H197.71V367.701C197.694 366.111 197.895 364.527 198.306 362.991C201.274 352.369 214.178 353.223 214.178 353.223Z" stroke="#BD6F6D" stroke-miterlimit="10"/>
<path d="M214.189 399.029H197.71V442.665H214.189V399.029Z" stroke="#BD6F6D" stroke-miterlimit="10"/>
<path d="M234.816 399.029H218.337V442.665H234.816V399.029Z" stroke="#BD6F6D" stroke-miterlimit="10"/>
<path d="M234.827 367.701V394.139H218.337V353.223C218.337 353.223 231.264 352.369 234.209 362.991C234.639 364.523 234.848 366.109 234.827 367.701Z" stroke="#BD6F6D" stroke-miterlimit="10"/>
<path d="M245.674 443.564L241.886 450.353V454.434H190.426V450.218L185.537 443.564H245.674Z" stroke="#BD6F6D" stroke-miterlimit="10"/>
<path d="M144.014 659.699L140.203 666.488V670.557H88.7324V666.353L83.854 659.699H144.014Z" stroke="#BD6F6D" stroke-miterlimit="10"/>
<path d="M112.495 615.152H96.0161V658.788H112.495V615.152Z" stroke="#BD6F6D" stroke-miterlimit="10"/>
<path d="M133.133 615.152H116.654V658.788H133.133V615.152Z" stroke="#BD6F6D" stroke-miterlimit="10"/>
<path d="M139.765 577.597C138.225 573.776 132.042 562.198 114.125 562.198C97.4101 562.198 91.7335 573.135 90.0474 577.935C89.7784 578.667 89.5643 579.419 89.4067 580.183V659.688H140.192V578.755C140.192 578.755 140.068 578.362 139.765 577.597ZM112.473 658.789H96.0162V615.13H112.473V658.789ZM112.473 610.263H96.0162V583.836C95.9977 582.245 96.202 580.66 96.6232 579.126C99.5795 568.493 112.506 569.347 112.506 569.347L112.473 610.263ZM133.11 658.789H116.654V615.13H133.144L133.11 658.789ZM133.11 610.263H116.654V569.347C116.654 569.347 129.581 568.493 132.537 579.126C132.958 580.66 133.163 582.245 133.144 583.836L133.11 610.263Z" stroke="#BD6F6D" stroke-miterlimit="10"/>
<path d="M147.802 572.606L139.765 577.597C138.225 573.775 132.043 562.197 114.125 562.197C97.4103 562.197 91.7338 573.135 90.0477 577.934L82.6289 572.584C82.6289 572.584 95.1285 552.845 114.811 552.845C134.493 552.845 147.802 572.606 147.802 572.606Z" stroke="#BD6F6D" stroke-miterlimit="10"/>
<path d="M112.473 569.346V610.262H96.0163V583.836C95.9978 582.245 96.2021 580.66 96.6233 579.126C99.5796 568.492 112.473 569.346 112.473 569.346Z" stroke="#BD6F6D" stroke-miterlimit="10"/>
<path d="M112.495 615.152H96.0161V658.788H112.495V615.152Z" stroke="#BD6F6D" stroke-miterlimit="10"/>
<path d="M133.133 615.152H116.654V658.788H133.133V615.152Z" stroke="#BD6F6D" stroke-miterlimit="10"/>
<path d="M133.144 583.836V610.262H116.654V569.346C116.654 569.346 129.581 568.492 132.537 579.126C132.958 580.66 133.163 582.245 133.144 583.836V583.836Z" stroke="#BD6F6D" stroke-miterlimit="10"/>
<path d="M321.976 614.579H305.497V658.204H321.976V614.579Z" stroke="#BD6F6D" stroke-miterlimit="10"/>
<path d="M342.625 614.579H326.157V658.204H342.625V614.579Z" stroke="#BD6F6D" stroke-miterlimit="10"/>
<path d="M349.257 577.013C347.705 573.191 341.523 561.613 323.617 561.613C306.902 561.613 301.225 572.539 299.539 577.35C299.271 578.083 299.057 578.834 298.898 579.598V659.092H349.65V578.159C349.65 578.159 349.56 577.777 349.257 577.013ZM321.987 658.204H305.497V614.579H321.987V658.204ZM321.987 609.689H305.497V583.252C305.478 581.661 305.683 580.076 306.104 578.542C309.06 567.919 321.987 568.762 321.987 568.762V609.689ZM342.613 658.204H326.157V614.579H342.613V658.204ZM342.613 609.689H326.157V568.762C326.157 568.762 339.072 567.919 342.029 578.542C342.431 580.079 342.627 581.663 342.613 583.252V609.689Z" stroke="#BD6F6D" stroke-miterlimit="10"/>
<path d="M321.987 568.762V609.689H305.497V583.251C305.478 581.661 305.683 580.075 306.104 578.541C309.06 567.919 321.987 568.762 321.987 568.762Z" stroke="#BD6F6D" stroke-miterlimit="10"/>
<path d="M357.283 572.022L349.257 577.013C347.706 573.191 341.523 561.613 323.617 561.613C306.902 561.613 301.226 572.539 299.539 577.35L292.121 572C292.121 572 304.598 552.272 324.303 552.272C344.007 552.272 357.283 572.022 357.283 572.022Z" stroke="#BD6F6D" stroke-miterlimit="10"/>
<path d="M321.976 614.579H305.497V658.204H321.976V614.579Z" stroke="#BD6F6D" stroke-miterlimit="10"/>
<path d="M342.625 614.579H326.157V658.204H342.625V614.579Z" stroke="#BD6F6D" stroke-miterlimit="10"/>
<path d="M342.614 583.251V609.689H326.157V568.762C326.157 568.762 339.073 567.919 342.029 578.541C342.431 580.079 342.628 581.662 342.614 583.251Z" stroke="#BD6F6D" stroke-miterlimit="10"/>
<path d="M353.483 659.114L349.684 665.904V669.973H298.224V665.769L293.323 659.114H353.483Z" stroke="#BD6F6D" stroke-miterlimit="10"/>
<path d="M486.471 614.579V658.204H502.961V614.579H486.471ZM465.833 658.204H482.289V614.579H465.833V658.204Z" stroke="#BD6F6D" stroke-miterlimit="10"/>
<path d="M509.582 577.013C508.031 573.191 501.848 561.613 483.942 561.613C467.227 561.613 461.55 572.539 459.864 577.35C459.596 578.083 459.382 578.834 459.224 579.598V659.092H510.009V578.159C510.009 578.159 509.885 577.777 509.582 577.013ZM482.289 658.204H465.833V614.579H482.289V658.204ZM482.289 609.689H465.833V583.252C465.815 581.661 466.019 580.076 466.44 578.542C469.396 567.919 482.312 568.762 482.312 568.762L482.289 609.689ZM502.938 658.204H486.471V614.579H502.961L502.938 658.204ZM502.938 609.689H486.471V568.762C486.471 568.762 499.398 567.919 502.354 578.542C502.775 580.076 502.979 581.661 502.961 583.252L502.938 609.689Z" stroke="#BD6F6D" stroke-miterlimit="10"/>
<path d="M517.608 572.022L509.582 577.013C508.031 573.191 501.848 561.613 483.942 561.613C467.227 561.613 461.551 572.539 459.865 577.35L452.446 572C452.446 572 464.923 552.272 484.628 552.272C504.333 552.272 517.608 572.022 517.608 572.022Z" stroke="#BD6F6D" stroke-miterlimit="10"/>
<path d="M482.29 568.762V609.689H465.833V583.251C465.815 581.661 466.019 580.075 466.44 578.541C469.397 567.919 482.29 568.762 482.29 568.762Z" stroke="#BD6F6D" stroke-miterlimit="10"/>
<path d="M482.301 614.579H465.833V658.204H482.301V614.579Z" stroke="#BD6F6D" stroke-miterlimit="10"/>
<path d="M502.95 614.579H486.471V658.204H502.95V614.579Z" stroke="#BD6F6D" stroke-miterlimit="10"/>
<path d="M502.961 583.251V609.689H486.471V568.762C486.471 568.762 499.398 567.919 502.354 578.541C502.775 580.075 502.98 581.661 502.961 583.251V583.251Z" stroke="#BD6F6D" stroke-miterlimit="10"/>
<path d="M513.808 659.114L510.009 665.904V669.973H458.549V665.769L453.648 659.114H513.808Z" stroke="#BD6F6D" stroke-miterlimit="10"/>
<path d="M575.306 476.611L573.665 484.615H568.651L565.92 493.315H35.1256L32.3942 484.963H26.9762L25.7847 476.611H575.306Z" fill="#BD6F6D"/>
<path d="M574.755 303.067V312.295H569.314L566.336 320.445H402.031L398.772 311.756H393.342V303.067H574.755Z" fill="#BD6F6D"/>
<path d="M574.755 245.403V251.462H568.787L566.471 259.701H402.38L399.12 251.551H394.051V245.403H574.755Z" fill="#BD6F6D"/>
<path d="M585.265 240.333L580.735 245.403H388.441L486.853 0.244385L585.265 240.333Z" fill="#BD6F6D"/>
<path d="M393.342 303.067V311.756H398.772L402.031 320.445H407.449V394.858H275.99L215.999 244.402L151.365 394.858H1.42627L60.642 269.93H193.461L216.257 219.965L237.457 270.481H407.449V303.067H393.342Z" fill="#BD6F6D"/>
</g>
<defs>
<clipPath id="clip0">
<rect width="584.53" height="776" fill="white" transform="translate(0.734863 0.0688477)"/>
</clipPath>
</defs>
</svg>
