<svg width="256" height="777" viewBox="0 0 256 777" fill="none" xmlns="http://www.w3.org/2000/svg">
<g clip-path="url(#clip0)">
<path d="M255.328 775.599H0.672363L2.64505 742.618L4.31714 714.474L5.96105 686.932L7.71769 657.576L9.36159 630.043L11.0807 601.213L12.7246 573.68L14.4436 544.851L16.0875 517.318L17.8348 488.112L19.4693 460.579L21.2165 431.374L22.8604 403.832L24.5325 375.838L26.1764 348.305L28.2149 314.187V314.112H227.334V314.187L229.41 348.305L231.083 375.838L232.773 403.832L234.446 431.374L236.221 460.579L237.893 488.112L239.659 517.318L241.331 544.851L243.078 573.68L244.75 601.213L246.498 630.043L248.17 657.576L249.945 686.932L251.617 714.474L253.327 742.618L255.328 775.599Z" stroke="#BD6F6D" stroke-miterlimit="10"/>
<path d="M124.707 276.283H79.918V296.254H124.707V276.283Z" stroke="#BD6F6D" stroke-miterlimit="10"/>
<path d="M125.121 250.563H80.3408V270.534H125.121V250.563Z" stroke="#BD6F6D" stroke-miterlimit="10"/>
<path d="M175.02 276.283H130.231V296.254H175.02V276.283Z" stroke="#BD6F6D" stroke-miterlimit="10"/>
<path d="M175.434 250.563H130.645V270.534H175.434V250.563Z" stroke="#BD6F6D" stroke-miterlimit="10"/>
<path d="M217.349 219.996H38.501V245.415H217.349V219.996Z" stroke="#BD6F6D" stroke-miterlimit="10"/>
<path d="M187.439 119.304H67.5278V210.912H187.439V119.304Z" stroke="#BD6F6D" stroke-miterlimit="10"/>
<path d="M151.151 212.96V165.108C151.151 165.108 147.112 146.687 127.929 146.687C108.747 146.687 104.624 165.108 104.624 165.108V212.96H151.151Z" fill="#BD6F6D"/>
<path d="M92.5152 119.304H86.9165V167.494H92.5152V119.304Z" fill="#BD6F6D"/>
<path d="M130.278 119.304H124.679V167.494H130.278V119.304Z" fill="#BD6F6D"/>
<path d="M168.624 119.304H163.025V167.494H168.624V119.304Z" fill="#BD6F6D"/>
<path d="M255.328 775.599H0.672363L2.64505 742.618H253.327L255.328 775.599Z" fill="#BD6F6D"/>
<path d="M251.618 714.474H4.31738L5.96129 686.932H249.946L251.618 714.474Z" fill="#BD6F6D"/>
<path d="M248.17 657.576H7.71777L9.36168 630.043H246.498L248.17 657.576Z" fill="#BD6F6D"/>
<path d="M244.75 601.214H11.0806L12.7245 573.68H243.078L244.75 601.214Z" fill="#BD6F6D"/>
<path d="M241.331 544.851H14.4438L16.0878 517.318H239.659L241.331 544.851Z" fill="#BD6F6D"/>
<path d="M237.893 488.112H17.835L19.4695 460.579H236.221L237.893 488.112Z" fill="#BD6F6D"/>
<path d="M234.445 431.374H21.2163L22.8602 403.832H232.773L234.445 431.374Z" fill="#BD6F6D"/>
<path d="M231.083 375.838H24.5327L26.1766 348.305H229.411L231.083 375.838Z" fill="#BD6F6D"/>
<path d="M217.349 276.283H180.544V296.254H217.349V276.283Z" stroke="#BD6F6D" stroke-miterlimit="10"/>
<path d="M74.3946 276.283H38.501V296.254H74.3946V276.283Z" stroke="#BD6F6D" stroke-miterlimit="10"/>
<path d="M74.8173 250.563H38.501V270.534H74.8173V250.563Z" stroke="#BD6F6D" stroke-miterlimit="10"/>
<path d="M217.349 250.563H180.958V270.534H217.349V250.563Z" stroke="#BD6F6D" stroke-miterlimit="10"/>
<path d="M79.918 276.283V296.254H124.707V276.283H79.918ZM80.3407 250.563V270.497H125.121V250.563H80.3407ZM130.203 276.283V296.254H174.992V276.283H130.203ZM130.616 250.563V270.497H175.406V250.563H130.616Z" stroke="#BD6F6D" stroke-miterlimit="10"/>
<path d="M23.3677 245.415V298.959H231.571V245.415H23.3677ZM74.3946 296.254H29.6146V276.283H74.3946V296.254ZM74.7798 270.496H30.0279V250.563H74.7798V270.496ZM124.67 296.217H79.9181V276.283H124.708L124.67 296.217ZM125.083 270.496H80.3409V250.563H125.121L125.083 270.496ZM174.983 296.217H130.203V276.283H174.992L174.983 296.217ZM175.396 270.496H130.644V250.563H175.434L175.396 270.496ZM225.296 296.217H180.544V276.283H225.334L225.296 296.217ZM225.709 270.496H180.929V250.563H225.719L225.709 270.496Z" stroke="#5F3837" stroke-miterlimit="10"/>
<path d="M125.121 250.563H80.3408V270.534H125.121V250.563Z" stroke="#5F3837" stroke-miterlimit="10"/>
<path d="M175.434 250.563H130.645V270.534H175.434V250.563Z" stroke="#5F3837" stroke-miterlimit="10"/>
<path d="M124.707 276.283H79.918V296.254H124.707V276.283Z" stroke="#5F3837" stroke-miterlimit="10"/>
<path d="M175.02 276.283H130.231V296.254H175.02V276.283Z" stroke="#5F3837" stroke-miterlimit="10"/>
<path d="M209.627 167.494V210.461H204.639V171.42H169.986V210.461H164.847V171.58H130.494V210.461H125.356V171.881H90.8526V210.461H85.5545V171.881H50.76V210.461H45.4619V167.494H209.627Z" stroke="#5F3837" stroke-miterlimit="10"/>
<path d="M197.453 111.507V119.304H58.3218V111.507H71.7736L71.7173 111.733H183.606L183.55 111.507H197.453Z" fill="#BD6F6D"/>
<path d="M225.746 210.461H29.041V219.996H225.746V210.461Z" fill="#BD6F6D"/>
<path d="M227.334 314.112H28.2144V314.187H227.334V314.112Z" stroke="#BD6F6D" stroke-miterlimit="10"/>
<path d="M247.831 298.979V314.187H227.334V314.112H28.2146V314.187H7.70801V298.979H247.831Z" fill="#BD6F6D"/>
<path d="M183.606 111.742H71.7173L71.7736 111.516C72.5439 108.745 81.1017 81.3906 120.283 78.225V62.0301V59.8226C118.975 58.8277 117.93 57.5296 117.236 56.0404C116.542 54.5511 116.221 52.9153 116.3 51.2742C116.31 48.6304 117.261 46.0764 118.982 44.0695C120.703 42.0626 123.082 40.7339 125.694 40.3211V39.5039L127.573 0.0500488L129.733 39.5039V40.4432C132.226 40.9738 134.466 42.3336 136.086 44.3006C137.707 46.2677 138.613 48.7259 138.657 51.2742C138.657 54.5527 137.718 57.5117 135.51 59.5501V78.2155C174.645 81.3906 182.836 108.736 183.569 111.507L183.606 111.742Z" fill="#BD6F6D"/>
</g>
<defs>
<clipPath id="clip0">
<rect width="255.651" height="776" fill="white" transform="translate(0.174316 0.0688477)"/>
</clipPath>
</defs>
</svg>
