<svg width="27" height="28" viewBox="0 0 27 28" fill="none" xmlns="http://www.w3.org/2000/svg">
<path d="M13.5 0.856506C6.13996 0.856506 0.166626 6.82984 0.166626 14.1898C0.166626 21.5498 6.13996 27.5232 13.5 27.5232C20.86 27.5232 26.8333 21.5498 26.8333 14.1898C26.8333 6.82984 20.86 0.856506 13.5 0.856506ZM6.92663 22.5632C7.49996 21.3632 10.9933 20.1898 13.5 20.1898C16.0066 20.1898 19.5133 21.3632 20.0733 22.5632C18.26 24.0032 15.98 24.8565 13.5 24.8565C11.02 24.8565 8.73996 24.0032 6.92663 22.5632ZM21.98 20.6298C20.0733 18.3098 15.4466 17.5232 13.5 17.5232C11.5533 17.5232 6.92663 18.3098 5.01996 20.6298C3.65996 18.8432 2.83329 16.6165 2.83329 14.1898C2.83329 8.30984 7.61996 3.52317 13.5 3.52317C19.38 3.52317 24.1666 8.30984 24.1666 14.1898C24.1666 16.6165 23.34 18.8432 21.98 20.6298V20.6298ZM13.5 6.18984C10.9133 6.18984 8.83329 8.26984 8.83329 10.8565C8.83329 13.4432 10.9133 15.5232 13.5 15.5232C16.0866 15.5232 18.1666 13.4432 18.1666 10.8565C18.1666 8.26984 16.0866 6.18984 13.5 6.18984ZM13.5 12.8565C12.3933 12.8565 11.5 11.9632 11.5 10.8565C11.5 9.74984 12.3933 8.85651 13.5 8.85651C14.6066 8.85651 15.5 9.74984 15.5 10.8565C15.5 11.9632 14.6066 12.8565 13.5 12.8565Z" fill="#F8F1F0"/>
</svg>
