<svg width="458" height="370" viewBox="0 0 458 370" fill="none" xmlns="http://www.w3.org/2000/svg">
<path d="M227.941 350.958L227.848 351.32L227.708 351.08L227.941 350.958Z" stroke="#BD6F6D" stroke-width="0.471617" stroke-miterlimit="10"/>
<path d="M300.52 364.243H224.495L227.861 351.32L227.955 350.957C229.083 350.373 230.579 349.525 232.315 348.473C236.992 345.66 241.389 342.407 245.449 338.759C246.033 338.233 246.618 337.695 247.161 337.134C252.334 332.078 256.987 325.847 259.108 318.629H266.491C266.568 318.894 266.65 319.157 266.736 319.418C266.818 319.675 266.906 319.938 266.999 320.195C267.093 320.453 267.18 320.71 267.28 320.967L267.461 321.44C267.531 321.61 267.595 321.774 267.665 321.937C267.952 322.627 268.25 323.305 268.589 323.971C268.706 324.217 268.829 324.462 268.957 324.702C269.086 324.941 269.138 325.058 269.238 325.234C269.337 325.409 269.407 325.555 269.501 325.713C270.085 326.73 270.67 327.724 271.324 328.688C271.582 329.074 271.85 329.46 272.119 329.857C272.388 330.254 272.639 330.57 272.902 330.921C272.915 330.943 272.931 330.962 272.949 330.979C273.206 331.318 273.469 331.657 273.744 331.99C273.795 332.063 273.85 332.134 273.908 332.201C274.147 332.499 274.399 332.785 274.65 333.095C275.001 333.516 275.369 333.931 275.737 334.34C275.948 334.574 276.158 334.808 276.374 335.036L276.655 335.34L277.409 336.123C277.748 336.474 278.093 336.818 278.438 337.157L279.256 337.941L279.84 338.49C282.083 340.548 284.444 342.473 286.913 344.253C287.386 344.598 287.854 344.931 288.31 345.253C288.766 345.574 289.362 345.977 289.87 346.316L291.226 347.205L291.367 347.292L292.226 347.836C293.921 348.9 295.435 349.765 296.656 350.437L297.241 350.759L300.52 364.243Z" fill="#BD6F6D"/>
<path d="M291.369 347.287L292.228 347.83L291.369 347.292V347.287Z" stroke="#BD6F6D" stroke-width="0.471617" stroke-miterlimit="10"/>
<path d="M297.25 350.753L296.666 350.431C295.444 349.759 293.931 348.894 292.236 347.83L291.376 347.287L291.236 347.199L289.88 346.31C289.371 345.971 288.851 345.621 288.319 345.247C287.788 344.873 287.396 344.592 286.922 344.247C284.447 342.462 282.08 340.531 279.833 338.467L279.248 337.917L278.43 337.134C278.085 336.795 277.74 336.45 277.401 336.099L276.647 335.316L276.367 335.012C276.15 334.784 275.94 334.55 275.729 334.317C275.361 333.908 274.993 333.493 274.642 333.072C274.391 332.774 274.14 332.487 273.9 332.177C273.842 332.11 273.787 332.04 273.736 331.967C273.462 331.634 273.199 331.295 272.941 330.956C272.923 330.939 272.907 330.919 272.895 330.897C272.632 330.547 272.369 330.196 272.111 329.834C271.854 329.471 271.574 329.074 271.316 328.665C270.668 327.7 270.054 326.707 269.493 325.69C269.399 325.532 269.312 325.368 269.23 325.21C269.148 325.052 269.037 324.86 268.949 324.678C268.862 324.497 268.698 324.193 268.581 323.948C268.248 323.281 267.944 322.603 267.658 321.914C267.587 321.75 267.523 321.586 267.453 321.417L267.272 320.943C267.174 320.686 267.081 320.429 266.991 320.172C266.898 319.915 266.81 319.652 266.728 319.395C266.646 319.137 266.559 318.868 266.483 318.605H289.459L297.25 350.753Z" stroke="#BD6F6D" stroke-width="0.471617" stroke-miterlimit="10"/>
<path d="M291.369 347.287L292.228 347.83L291.369 347.292V347.287Z" stroke="#BD6F6D" stroke-width="0.471617" stroke-miterlimit="10"/>
<path d="M145.269 338.823L132.532 359.643L120.27 338.823L132.351 317.793L145.269 338.823Z" fill="#BD6F6D"/>
<path d="M170.387 338.934L157.651 359.754L145.394 338.934L157.47 317.898L170.387 338.934Z" fill="#BD6F6D"/>
<path d="M195.5 339.039L182.77 359.859L170.507 339.039L182.583 318.009L195.5 339.039Z" fill="#BD6F6D"/>
<path d="M220.623 339.15L207.886 359.97L195.624 339.15L207.705 318.115L220.623 339.15Z" fill="#BD6F6D"/>
<path d="M321.094 339.577L308.357 360.397L296.095 339.577L308.176 318.547L321.094 339.577Z" fill="#BD6F6D"/>
<path d="M346.208 339.688L333.478 360.502L321.215 339.688L333.291 318.652L346.208 339.688Z" fill="#BD6F6D"/>
<path d="M371.327 339.793L358.591 360.613L346.328 339.793L358.41 318.757L371.327 339.793Z" fill="#BD6F6D"/>
<path d="M396.444 339.898L383.708 360.718L371.445 339.898L383.527 318.868L396.444 339.898Z" fill="#BD6F6D"/>
<path d="M421.559 340.01L408.828 360.829L396.566 340.01L408.641 318.974L421.559 340.01Z" fill="#BD6F6D"/>
<path d="M446.681 340.115L433.945 360.934L421.682 340.115L433.764 319.084L446.681 340.115Z" fill="#BD6F6D"/>
<path d="M120.137 338.881L107.401 359.701L95.138 338.881L107.219 317.845L120.137 338.881Z" fill="#BD6F6D"/>
<path d="M94.9496 338.878L82.2193 359.698L69.9567 338.878L82.0323 317.842L94.9496 338.878Z" fill="#BD6F6D"/>
<path d="M235.384 322.387L227.943 350.957L227.709 351.08L226.628 349.245L220.748 339.256L232.718 318.407L232.824 318.22L235.384 322.387Z" fill="#BD6F6D"/>
<path d="M259.093 318.629C256.972 325.847 252.319 332.072 247.146 337.134C246.562 337.718 246.012 338.233 245.434 338.759C241.374 342.407 236.976 345.66 232.3 348.473C230.547 349.525 229.068 350.355 227.94 350.957L235.38 322.387L236.356 318.629H259.093Z" stroke="#BD6F6D" stroke-width="0.471617" stroke-miterlimit="10"/>
<path d="M295.752 364.243H228.927L232.299 348.462C236.976 345.648 241.373 342.395 245.433 338.747C246.017 338.221 246.602 337.683 247.145 337.122H278.422L279.24 337.906L279.824 338.455C282.071 340.526 284.439 342.462 286.914 344.253C287.388 344.598 287.855 344.931 288.311 345.253C288.767 345.574 289.363 345.977 289.872 346.316L291.228 347.205L291.368 347.293L295.752 364.243Z" fill="#BD6F6D"/>
<path d="M285.374 364.243H239.608L244.874 345.603H280.184L285.374 364.243Z" fill="#BD6F6D"/>
<path d="M263.848 197.984C263.848 198.313 263.791 198.639 263.679 198.948C263.654 199.028 263.622 199.106 263.585 199.182C263.409 199.573 263.163 199.93 262.86 200.234C262.166 200.912 261.308 201.399 260.37 201.648C259.961 201.769 259.54 201.848 259.114 201.882C258.842 201.918 258.569 201.935 258.295 201.935C257.851 201.935 257.407 201.896 256.969 201.818C256.57 201.75 256.179 201.646 255.8 201.508C255.317 201.342 254.859 201.112 254.438 200.824C254.311 200.741 254.19 200.649 254.075 200.55C253.862 200.385 253.666 200.199 253.491 199.994C253.201 199.651 252.983 199.254 252.848 198.825C252.759 198.546 252.713 198.254 252.714 197.96C252.714 196.078 254.555 194.506 257.021 194.108C257.284 194.067 257.55 194.043 257.816 194.038C257.968 194.038 258.126 194.038 258.284 194.038C258.838 194.039 259.39 194.098 259.932 194.214C262.206 194.705 263.848 196.207 263.848 197.984Z" fill="#BD6F6D"/>
<path d="M257.956 194.623C257.956 194.623 251.701 193.308 258.236 175.796H258.563C265.098 193.331 259.148 194.623 259.148 194.623H257.956Z" fill="#BD6F6D"/>
<path d="M164.101 170.933C171.39 170.933 177.299 165.024 177.299 157.735C177.299 150.446 171.39 144.537 164.101 144.537C156.812 144.537 150.903 150.446 150.903 157.735C150.903 165.024 156.812 170.933 164.101 170.933Z" fill="#BD6F6D"/>
<path d="M295.623 122.496V122.508L176.965 154.772L167.578 157.326H167.573L166.567 157.595L166.211 157.694L165.93 157.77L165.509 157.887L163.762 158.361L162.715 158.647L162.289 158.764L161.809 158.893L160.67 159.202L151.511 161.692L33.1039 193.886L32.5779 192.974V191.198L150.955 158.846L156.333 157.379H156.339L160.389 156.268L162.084 155.806H162.09L163.002 155.555L163.095 155.532V155.526L163.598 155.391L164.644 155.105L165.801 154.789L166.328 154.643L170.203 153.585L175.995 152.001L294.034 119.743L294.098 119.854L294.361 120.31L295.623 122.496Z" fill="#BD6F6D"/>
<path d="M295.623 192.788V192.975L294.121 195.576L176.252 162.897L168.975 160.88L167.345 160.43L165.03 159.787L164.358 159.6L164.077 159.524L163.382 159.331L162.224 159.01L161.809 158.893L161.149 158.712L156.339 157.379H156.333L151.031 155.906L32.5779 123.063V122.496L33.8521 120.287L151.797 152.954L159.138 154.988L162.084 155.807H162.09L162.967 156.046L163.148 156.099L163.569 156.216L164.714 156.531L165.778 156.824L166.404 156.999H166.409L166.783 157.104L167.573 157.326H167.578L177.111 159.968L295.623 192.788Z" fill="#BD6F6D"/>
<path d="M259.985 61.2236L174.31 149.359L170.207 153.585L166.788 157.104L166.513 157.384L166.215 157.694L166.034 157.875L165.338 158.6L165.332 158.606L164.362 159.6L164.158 159.804L164.006 159.968L161.294 162.756L156.027 168.174L70.8724 255.778L70.8023 255.737L68.4701 254.387L68.4059 254.352L153.935 166.152L160.674 159.202L161.153 158.711L161.966 157.875L162.702 157.116L162.708 157.11L163.269 156.525L163.573 156.215L163.988 155.789L164.649 155.105L165.619 154.105L166.764 152.925L172.206 147.314L257.232 59.6338L257.302 59.6747L259.921 61.1885L259.985 61.2236Z" fill="#BD6F6D"/>
<path d="M227.89 221.013C227.072 221.626 226.247 222.228 225.429 222.825L172.094 168.245L168.47 164.533L164.788 160.769L164.28 160.243L164.005 159.968L163.385 159.331L162.719 158.647L162.403 158.326L161.965 157.876L160.393 156.268L159.142 154.988L153.776 149.506L91.6854 85.9538L75.8339 69.7341L67.7913 61.5044L67.8205 61.4518L70.1585 60.1192L70.217 60.0841L76.2139 66.2038L93.5032 83.8554L155.822 147.454L162.713 154.468L163.227 154.994L163.601 155.374L163.987 155.772L164.718 156.514L165.624 157.437L165.934 157.753L166.033 157.858L166.886 158.729L168.979 160.862L174.239 166.205L227.89 221.013Z" fill="#BD6F6D"/>
<path d="M234.018 227.273C233.34 228.015 232.651 228.763 231.949 229.505L228.004 225.461C228.811 224.829 229.606 224.198 230.383 223.555L234.018 227.273Z" fill="#BD6F6D"/>
<path d="M249.219 242.779C248.92 243.948 248.634 245.07 248.301 246.228L237.114 234.777C237.698 233.93 238.312 233.082 238.867 232.235L249.219 242.779Z" fill="#BD6F6D"/>
<path d="M198.641 26.2125L196.647 34.1441L190.68 57.8512L168.668 145.35L166.762 152.948L166.33 154.667L166.061 155.742L165.78 156.841L165.623 157.472L165.511 157.905L165.336 158.618L165.038 159.787L164.793 160.769L164.617 161.47L162.279 170.822L140.916 255.778L135.34 277.948C134.451 278.727 133.559 279.476 132.663 280.192L131.745 280.935L131.938 280.175L138.11 255.515L159.456 170.074L161.291 162.739L162.227 158.992L162.291 158.746L162.402 158.308L162.7 157.098L162.963 156.034L163.045 155.719L163.092 155.526L163.22 155.012L164.483 149.973L165.815 144.654L187.541 57.8512L193.474 34.1441L195.461 26.2125H198.641Z" fill="#BD6F6D"/>
<path d="M190.081 243.627C189.138 244.067 188.209 244.494 187.293 244.907L167.087 170.594L164.609 161.47L164.275 160.243L164.153 159.804L164.077 159.524L163.761 158.355L163.264 156.52L163.147 156.093L163.048 155.725L163.001 155.555L162.709 154.485L160.167 145.134L136.717 58.8974L130.182 34.8513L127.973 26.7269L128.861 26.2125H130.661L132.999 34.8513L139.306 57.8512L163.013 144.584L164.486 149.973L165.614 154.106L165.801 154.789L166.058 155.719L166.403 156.993L166.502 157.379L166.561 157.589L166.876 158.758L167.338 160.441L168.46 164.533L169.852 169.618L190.081 243.627Z" fill="#BD6F6D"/>
<path d="M194.203 258.695C193.268 259.135 192.327 259.546 191.38 259.928L190.252 255.778L188.668 249.933C189.597 249.489 190.521 249.045 191.444 248.583L193.157 254.843L194.203 258.695Z" fill="#BD6F6D"/>
<path d="M294.364 120.31L294.101 119.854L294.037 119.743L293.902 119.509L292.914 117.797L290.798 114.132L289.337 111.601L287.14 107.802L267.653 74.0416L260.387 61.4516L259.984 61.2237L259.92 61.1886L257.301 59.6748L257.231 59.6339L252.462 56.8809L249.843 55.3671L247.505 54.0227L213.073 34.15L199.366 26.2125H128.865L127.976 26.7269L113.902 34.8513L76.2134 56.612L70.1931 60.0722L70.1346 60.1073L67.7967 61.44L67.7674 61.4926L63.0155 69.7222L38.6889 111.911L35.9359 116.686L33.8551 120.287L32.5809 122.496V192.974L33.107 193.886L33.142 193.945L37.292 201.134L44.0136 212.777L63.8864 247.192L66.8965 252.4L67.8317 254.019L68.4162 254.352L68.4805 254.387L70.8185 255.737L70.8886 255.778L75.4535 258.414L77.4993 259.583L78.7325 260.296L88.3767 265.861L115.784 281.712L122.277 285.459L123.996 286.452L126.334 284.752C128.292 283.343 129.735 282.548 131.723 280.946L132.64 280.204C133.537 279.479 134.429 278.731 135.317 277.96C142.719 271.692 149.211 264.423 154.606 256.363C154.606 256.363 155.447 256.187 157.008 255.778C167.395 253.016 177.528 249.373 187.296 244.889C188.216 244.476 189.145 244.049 190.084 243.609C202.497 237.809 214.332 230.843 225.429 222.807C226.247 222.222 227.071 221.638 227.889 220.995C236.822 214.319 245.178 206.905 252.871 198.831C253.005 199.259 253.224 199.657 253.514 200L253.256 200.345C248.177 207.47 240.193 215.588 230.379 223.561C229.602 224.204 228.807 224.835 228 225.466C216.636 234.406 204.388 242.159 191.446 248.606C190.523 249.068 189.599 249.512 188.67 249.957C184.14 252.108 179.546 254.048 174.934 255.802C172.456 256.709 169.974 257.553 167.488 258.332C161.019 266.926 153.861 274.978 146.084 282.408C145.014 283.442 143.933 284.453 142.851 285.447C141.77 286.441 140.695 287.411 139.619 288.37L138.579 289.258H173.537C183.9 276.253 191.148 260.033 191.148 260.033L191.382 259.934C192.329 259.544 193.27 259.133 194.205 258.701C205.199 253.598 215.831 245.316 225.107 236.42C227.48 234.146 229.783 231.832 231.946 229.517C232.647 228.775 233.337 228.026 234.015 227.284C239.807 220.976 245.199 214.311 250.159 207.33V207.3C251.912 204.787 253.362 202.589 254.408 200.871C254.829 201.159 255.287 201.389 255.77 201.555V201.607C251.116 212.341 245.462 222.613 238.884 232.287C238.299 233.135 237.715 233.982 237.13 234.83C230.691 244.006 223.131 252.343 214.627 259.648C212.389 266.983 209.203 276.919 203.691 286.803L244.068 263.499C244.068 261.442 243.951 260.355 243.951 260.355C245.617 255.603 247.061 250.886 248.317 246.28C248.633 245.111 248.937 243.977 249.235 242.832C253.666 225.572 255.559 210.316 256.986 201.87C257.424 201.948 257.868 201.987 258.312 201.987C258.586 201.988 258.859 201.97 259.131 201.935C260.557 210.445 262.462 225.653 266.887 242.849L274.97 228.856C269.367 220.222 264.48 211.144 260.358 201.713C261.296 201.463 262.153 200.976 262.848 200.298C265.618 204.974 271.317 213.075 278.927 221.924L281.084 218.189C273.988 211.894 268.173 205.652 264.134 200.029L263.549 199.228C263.587 199.153 263.618 199.075 263.643 198.995C269.703 204.785 276.051 210.267 282.662 215.419L285.456 210.573L294.089 195.622L295.363 193.419L295.591 193.021V122.496L294.364 120.31Z" stroke="#BD6F6D" stroke-width="0.471617" stroke-miterlimit="10"/>
<path d="M264.009 130.328V183.36L263.658 183.944L262.881 185.271L262.074 186.674L261.572 187.545L257.813 194.038L257.556 194.482L255.674 197.744L255.136 198.679L254.061 200.544L250.215 207.283V207.312C245.255 214.294 239.863 220.958 234.071 227.267C233.393 228.009 232.703 228.757 232.002 229.499C229.822 231.837 227.537 234.129 225.163 236.402L193.706 254.563L193.215 254.849L191.625 255.761H174.932C179.544 254.048 184.138 252.084 188.668 249.916C189.597 249.472 190.521 249.027 191.444 248.566C204.386 242.13 216.637 234.388 228.004 225.461C228.811 224.829 229.606 224.198 230.383 223.555C240.197 215.583 248.181 207.464 253.26 200.339L253.517 199.994C253.228 199.651 253.009 199.254 252.874 198.825C245.182 206.899 236.826 214.313 227.893 220.989C227.075 221.603 226.251 222.205 225.432 222.801C214.335 230.838 202.501 237.803 190.088 243.603C189.145 244.044 188.216 244.47 187.3 244.883C177.525 249.362 167.387 252.999 156.994 255.755H138.53L138.08 255.492L95.1896 230.733L94.8915 230.563H94.8389L93.0854 229.546H93.0387L92.6821 229.347L92.5945 229.301L66.8768 184.739L66.4793 184.049L66.0818 183.365V130.328L66.6196 129.393L67.0404 128.668L91.6827 86.0005L92.5769 84.4516V84.4106L93.4654 83.8963L94.3187 83.4053H94.3655L136.683 58.9735L137.852 58.313L138.518 57.9272H191.549L234.755 82.8734L235.106 83.0722L235.158 83.1072L237.128 84.247H237.181L237.479 84.4106L262.793 128.277V128.318V128.359L262.986 128.704L264.009 130.328Z" stroke="#BD6F6D" stroke-width="0.471617" stroke-miterlimit="10"/>
<path d="M247.51 74.0412H288.606V49.0424C288.606 49.0424 286.35 43.6768 268.061 43.6768C249.772 43.6768 247.51 48.9021 247.51 48.9021V74.0412Z" fill="#BD6F6D"/>
<path d="M285.639 48.9718H277.73V56.88H285.639V48.9718Z" stroke="white" stroke-width="0.471617" stroke-miterlimit="10"/>
<path d="M257.755 48.9718H249.846V56.88H257.755V48.9718Z" stroke="white" stroke-width="0.471617" stroke-miterlimit="10"/>
<path d="M275.685 48.9718H259.869V56.88H275.685V48.9718Z" stroke="white" stroke-width="0.471617" stroke-miterlimit="10"/>
<path d="M182.692 34.1439H223.788V9.15091C223.788 9.15091 221.532 3.77942 203.243 3.77942C184.954 3.77942 182.692 9.00478 182.692 9.00478V34.1439Z" fill="#BD6F6D"/>
<path d="M220.817 9.07446H212.909V16.9827H220.817V9.07446Z" stroke="white" stroke-width="0.471617" stroke-miterlimit="10"/>
<path d="M192.929 9.07446H185.021V16.9827H192.929V9.07446Z" stroke="white" stroke-width="0.471617" stroke-miterlimit="10"/>
<path d="M210.863 9.07446H195.047V16.9827H210.863V9.07446Z" stroke="white" stroke-width="0.471617" stroke-miterlimit="10"/>
<path d="M103.606 34.8515H144.702V9.85272C144.702 9.85272 142.44 4.48706 124.157 4.48706C105.874 4.48706 103.606 9.71243 103.606 9.71243V34.8515Z" fill="#BD6F6D"/>
<path d="M141.731 9.78259H133.822V17.6908H141.731V9.78259Z" stroke="white" stroke-width="0.471617" stroke-miterlimit="10"/>
<path d="M113.839 9.78259H105.931V17.6908H113.839V9.78259Z" stroke="white" stroke-width="0.471617" stroke-miterlimit="10"/>
<path d="M131.777 9.78259H115.961V17.6908H131.777V9.78259Z" stroke="white" stroke-width="0.471617" stroke-miterlimit="10"/>
<path d="M35.1237 69.7337H76.2136V44.7349C76.2136 44.7349 73.9516 39.3693 55.6686 39.3693C37.3856 39.3693 35.1237 44.5946 35.1237 44.5946V69.7337Z" fill="#BD6F6D"/>
<path d="M73.2455 44.6648H65.3373V52.573H73.2455V44.6648Z" stroke="white" stroke-width="0.471617" stroke-miterlimit="10"/>
<path d="M45.3504 44.6648H37.4422V52.573H45.3504V44.6648Z" stroke="white" stroke-width="0.471617" stroke-miterlimit="10"/>
<path d="M63.2919 44.6648H47.4755V52.573H63.2919V44.6648Z" stroke="white" stroke-width="0.471617" stroke-miterlimit="10"/>
<path d="M9.28061 141.755H50.3705V116.756C50.3705 116.756 48.1144 111.391 29.8256 111.391C11.5368 111.391 9.28061 116.616 9.28061 116.616V141.755Z" fill="#BD6F6D"/>
<path d="M47.4066 116.686H39.4984V124.594H47.4066V116.686Z" stroke="white" stroke-width="0.471617" stroke-miterlimit="10"/>
<path d="M19.5152 116.686H11.607V124.594H19.5152V116.686Z" stroke="white" stroke-width="0.471617" stroke-miterlimit="10"/>
<path d="M37.4456 116.686H21.6292V124.594H37.4456V116.686Z" stroke="white" stroke-width="0.471617" stroke-miterlimit="10"/>
<path d="M2.91571 218.295H44.0115V193.302C44.0115 193.302 41.7553 187.93 23.4665 187.93C5.1777 187.93 2.91571 193.156 2.91571 193.156V218.295Z" fill="#BD6F6D"/>
<path d="M41.0434 193.226H33.1352V201.134H41.0434V193.226Z" stroke="white" stroke-width="0.471617" stroke-miterlimit="10"/>
<path d="M13.1557 193.226H5.24747V201.134H13.1557V193.226Z" stroke="white" stroke-width="0.471617" stroke-miterlimit="10"/>
<path d="M31.0897 193.226H15.2733V201.134H31.0897V193.226Z" stroke="white" stroke-width="0.471617" stroke-miterlimit="10"/>
<path d="M47.2611 277.463H88.3569V252.487C88.3569 252.487 86.0949 247.122 67.8061 247.122C49.5173 247.122 47.2611 252.347 47.2611 252.347V277.463Z" fill="#BD6F6D"/>
<path d="M85.3887 252.394H77.4805V260.302H85.3887V252.394Z" stroke="white" stroke-width="0.471617" stroke-miterlimit="10"/>
<path d="M57.4936 252.394H49.5854V260.302H57.4936V252.394Z" stroke="white" stroke-width="0.471617" stroke-miterlimit="10"/>
<path d="M75.435 252.394H59.6187V260.302H75.435V252.394Z" stroke="white" stroke-width="0.471617" stroke-miterlimit="10"/>
<path d="M122.795 287.282L123.964 286.441L126.302 284.74C128.26 283.331 129.704 282.536 131.691 280.935L132.609 280.192H131.884C131.253 280.192 130.598 280.192 129.92 280.192C123.327 280.192 118.815 280.87 115.746 281.741C110.299 283.278 109.375 285.412 109.375 285.412V295.74C110.696 295.021 112.105 294.226 113.584 293.361L122.795 287.282ZM146.058 282.413C144.989 283.448 143.907 284.459 142.826 285.453C141.745 286.446 140.669 287.417 139.594 288.375L138.577 289.258L137.571 290.123C136.235 291.253 134.91 292.33 133.597 293.355C130.402 295.918 127.013 298.229 123.462 300.27H150.495V285.517C150.495 285.517 149.805 283.875 146.082 282.408L146.058 282.413Z" fill="#BD6F6D"/>
<path d="M147.526 285.447V293.355H139.618V288.352C140.693 287.411 141.774 286.441 142.85 285.429L147.526 285.447Z" fill="#BD6F6D"/>
<path d="M282.4 210.527H323.495V185.534C323.495 185.534 321.233 180.168 302.945 180.168C284.656 180.168 282.4 185.387 282.4 185.387V210.527Z" fill="#BD6F6D"/>
<path d="M320.527 185.457H312.619V193.365H320.527V185.457Z" stroke="white" stroke-width="0.471617" stroke-miterlimit="10"/>
<path d="M292.632 185.457H284.724V193.365H292.632V185.457Z" stroke="white" stroke-width="0.471617" stroke-miterlimit="10"/>
<path d="M310.57 185.457H294.753V193.365H310.57V185.457Z" stroke="white" stroke-width="0.471617" stroke-miterlimit="10"/>
<path d="M280.556 136.67H321.652V111.671C321.652 111.671 319.39 106.306 301.101 106.306C282.812 106.306 280.556 111.531 280.556 111.531V136.67Z" fill="#BD6F6D"/>
<path d="M318.681 111.601H310.773V119.509H318.681V111.601Z" stroke="white" stroke-width="0.471617" stroke-miterlimit="10"/>
<path d="M290.794 111.601H282.885V119.509H290.794V111.601Z" stroke="white" stroke-width="0.471617" stroke-miterlimit="10"/>
<path d="M308.731 111.601H292.915V119.509H308.731V111.601Z" stroke="white" stroke-width="0.471617" stroke-miterlimit="10"/>
<path d="M454.37 313.403H63.3438C63.3438 310.37 64.3842 300.27 77.3716 300.27H440.845C440.845 300.27 453.727 302.683 454.37 313.403Z" stroke="#BD6F6D" stroke-width="0.471617" stroke-miterlimit="10"/>
<path d="M454.37 313.403H63.3438C63.3438 313.935 63.3438 314.251 63.3438 314.251V364.242H224.5L227.867 351.319L227.727 351.08L226.645 349.244L220.765 339.255L232.736 318.406L232.841 318.219L235.401 322.387L236.377 318.628H289.473L297.27 350.776L300.543 364.266H454.399V314.251C454.399 313.964 454.393 313.678 454.37 313.403ZM82.2229 359.701L69.9486 338.881L82.0242 317.839L94.9415 338.881L82.2229 359.701ZM107.403 359.701L95.1285 338.881L107.21 317.839L120.127 338.881L107.403 359.701ZM132.536 359.642L120.262 338.823L132.343 317.781L145.261 338.823L132.536 359.642ZM157.669 359.753L145.395 338.934L157.471 317.892L170.388 338.934L157.669 359.753ZM182.803 359.859L170.528 339.039L182.604 317.997L195.521 339.039L182.803 359.859ZM207.936 359.97L195.661 339.15L207.743 318.108L220.66 339.15L207.936 359.97ZM308.404 360.396L296.13 339.577L308.212 318.535L321.129 339.577L308.404 360.396ZM333.538 360.502L321.263 339.688L333.339 318.646L346.256 339.688L333.538 360.502ZM358.671 360.613L346.396 339.793L358.478 318.751L371.395 339.793L358.671 360.613ZM383.804 360.718L371.53 339.898L383.611 318.856L396.529 339.898L383.804 360.718ZM408.937 360.829L396.663 340.009L408.739 318.967L421.656 340.009L408.937 360.829ZM434.071 360.934L421.796 340.114L433.878 319.073L446.795 340.114L434.071 360.934Z" stroke="#BD6F6D" stroke-width="0.471617" stroke-miterlimit="10"/>
<path d="M94.9548 338.882L82.2246 359.701L69.9619 338.882L82.0375 317.846L94.9548 338.882Z" stroke="#BD6F6D" stroke-width="0.471617" stroke-miterlimit="10"/>
<path d="M120.141 338.882L107.405 359.701L95.142 338.882L107.223 317.846L120.141 338.882Z" stroke="#BD6F6D" stroke-width="0.471617" stroke-miterlimit="10"/>
<path d="M145.269 338.823L132.533 359.643L120.27 338.823L132.351 317.793L145.269 338.823Z" stroke="#BD6F6D" stroke-width="0.471617" stroke-miterlimit="10"/>
<path d="M170.391 338.934L157.655 359.754L145.398 338.934L157.474 317.898L170.391 338.934Z" stroke="#BD6F6D" stroke-width="0.471617" stroke-miterlimit="10"/>
<path d="M195.504 339.039L182.774 359.859L170.511 339.039L182.587 318.009L195.504 339.039Z" stroke="#BD6F6D" stroke-width="0.471617" stroke-miterlimit="10"/>
<path d="M220.627 339.15L207.89 359.97L195.628 339.15L207.709 318.114L220.627 339.15Z" stroke="#BD6F6D" stroke-width="0.471617" stroke-miterlimit="10"/>
<path d="M321.094 339.577L308.358 360.396L296.095 339.577L308.176 318.547L321.094 339.577Z" stroke="#BD6F6D" stroke-width="0.471617" stroke-miterlimit="10"/>
<path d="M346.209 339.688L333.478 360.502L321.216 339.688L333.291 318.652L346.209 339.688Z" stroke="#BD6F6D" stroke-width="0.471617" stroke-miterlimit="10"/>
<path d="M371.327 339.793L358.591 360.613L346.329 339.793L358.41 318.757L371.327 339.793Z" stroke="#BD6F6D" stroke-width="0.471617" stroke-miterlimit="10"/>
<path d="M396.444 339.898L383.708 360.718L371.445 339.898L383.527 318.868L396.444 339.898Z" stroke="#BD6F6D" stroke-width="0.471617" stroke-miterlimit="10"/>
<path d="M421.563 340.009L408.832 360.829L396.57 340.009L408.645 318.973L421.563 340.009Z" stroke="#BD6F6D" stroke-width="0.471617" stroke-miterlimit="10"/>
<path d="M446.685 340.115L433.949 360.934L421.686 340.115L433.768 319.084L446.685 340.115Z" stroke="#BD6F6D" stroke-width="0.471617" stroke-miterlimit="10"/>
<path d="M227.943 350.957L227.849 351.319L227.709 351.08L227.943 350.957Z" stroke="#BD6F6D" stroke-width="0.471617" stroke-miterlimit="10"/>
<path d="M291.373 347.287L292.232 347.83L291.373 347.292V347.287Z" stroke="#BD6F6D" stroke-width="0.471617" stroke-miterlimit="10"/>
<path d="M119.635 285.447V289.638L113.608 293.355H111.726L111.791 285.441L119.635 285.447Z" stroke="white" stroke-width="0.471617" stroke-miterlimit="10"/>
<path d="M253.515 199.994L253.257 200.339C248.178 207.464 240.194 215.583 230.38 223.555C229.603 224.198 228.808 224.829 228.001 225.461C216.637 234.4 204.389 242.154 191.447 248.601C190.524 249.062 189.6 249.507 188.671 249.951C184.141 252.102 179.547 254.042 174.935 255.796C172.457 256.708 169.975 257.553 167.489 258.332C161.02 266.926 153.862 274.978 146.085 282.408C145.015 283.442 143.934 284.454 142.852 285.447C141.771 286.441 140.696 287.411 139.62 288.37L138.58 289.258L137.575 290.123C136.238 291.253 134.913 292.331 133.6 293.355C130.405 295.918 127.016 298.23 123.465 300.27H100.36C102.289 299.393 105.462 297.885 109.402 295.734C110.723 295.015 112.283 293.981 113.762 293.139L119.8 289.398C120.706 288.755 121.916 287.943 122.816 287.282L124.412 286.113L126.329 284.722C128.287 283.314 129.731 282.519 131.718 280.917L132.636 280.175C133.532 279.45 134.424 278.702 135.313 277.931C142.715 271.663 149.206 264.394 154.601 256.334C154.601 256.334 155.442 256.158 157.003 255.749C167.391 252.996 177.526 249.363 187.297 244.889C188.217 244.476 189.146 244.049 190.085 243.609C202.498 237.809 214.333 230.843 225.43 222.807C226.248 222.222 227.072 221.638 227.89 220.995C236.823 214.319 245.179 206.905 252.872 198.831C253.007 199.257 253.226 199.653 253.515 199.994V199.994Z" stroke="#BD6F6D" stroke-width="0.471617" stroke-miterlimit="10"/>
<path d="M162.583 300.27H150.502H123.469" stroke="#BD6F6D" stroke-width="0.471617" stroke-miterlimit="10"/>
<path d="M255.799 201.508V201.561C251.145 212.295 245.492 222.567 238.913 232.241C238.329 233.088 237.744 233.936 237.16 234.783C230.72 243.96 223.161 252.297 214.657 259.601C212.418 266.936 209.232 276.873 203.721 286.757C201.058 291.565 197.915 296.09 194.34 300.264H162.578C166.465 297.383 170.177 293.49 173.537 289.252C183.901 276.247 191.148 260.028 191.148 260.028L191.382 259.928C192.329 259.539 193.27 259.128 194.205 258.695C205.199 253.592 215.831 245.31 225.107 236.414C227.48 234.14 229.783 231.826 231.946 229.511C232.647 228.769 233.337 228.021 234.015 227.278C239.807 220.97 245.199 214.305 250.159 207.324V207.295C251.912 204.781 253.362 202.584 254.408 200.865C254.841 201.141 255.309 201.357 255.799 201.508V201.508Z" stroke="#BD6F6D" stroke-width="0.471617" stroke-miterlimit="10"/>
<path d="M239.068 300.27C243.645 282.361 244.124 269.169 244.054 263.447C244.054 261.389 243.937 260.302 243.937 260.302C245.603 255.55 247.047 250.833 248.303 246.228C248.619 245.059 248.923 243.925 249.221 242.779C253.651 225.519 255.545 210.264 256.971 201.818C257.409 201.896 257.853 201.935 258.298 201.935C258.572 201.935 258.845 201.918 259.116 201.882C260.543 210.392 262.448 225.601 266.873 242.797C268.328 248.431 270.046 254.276 272.133 260.174C272.133 260.174 270.783 275.867 277.037 300.276L239.068 300.27Z" stroke="#BD6F6D" stroke-width="0.471617" stroke-miterlimit="10"/>
<path d="M355.338 300.27H321.876C310.075 286.692 304.727 270.256 301.419 259.466C290.734 250.43 281.955 239.593 274.935 228.792C269.332 220.158 264.445 211.08 260.323 201.648C261.261 201.398 262.118 200.911 262.813 200.234C265.583 204.91 271.282 213.011 278.892 221.86C291.167 236.127 308.339 252.394 326.236 259.653C326.283 259.671 339.282 288.767 355.338 300.27Z" stroke="#BD6F6D" stroke-width="0.471617" stroke-miterlimit="10"/>
<path d="M321.879 300.27H277.019" stroke="#BD6F6D" stroke-width="0.471617" stroke-miterlimit="10"/>
<path d="M421.844 300.27H394.618C380.888 292.911 360.846 272.798 349.945 257.976C324.526 250.044 298.826 233.9 281.098 218.142C274.002 211.848 268.186 205.605 264.148 199.982L263.563 199.182C263.6 199.106 263.632 199.028 263.657 198.948C269.716 204.739 276.064 210.22 282.676 215.372C301.21 229.932 331.095 249.787 363.289 256.637C363.313 256.637 383.069 284.775 421.844 300.27Z" stroke="#BD6F6D" stroke-width="0.471617" stroke-miterlimit="10"/>
<path d="M252.867 198.848L253.019 198.685H263.411L263.674 198.948" stroke="#BD6F6D" stroke-width="0.471617" stroke-miterlimit="10"/>
<path d="M394.619 300.27H355.341" stroke="#BD6F6D" stroke-width="0.471617" stroke-miterlimit="10"/>
<path d="M239.063 300.27H194.291" stroke="#BD6F6D" stroke-width="0.471617" stroke-miterlimit="10"/>
<path d="M256.097 197.75C255.974 198.024 255.828 198.334 255.647 198.685C255.576 198.819 255.5 198.965 255.419 199.111C255.144 199.62 254.834 200.193 254.442 200.824C253.396 202.577 251.964 204.769 250.193 207.253V207.283C245.233 214.264 239.841 220.929 234.049 227.237C233.371 227.98 232.682 228.728 231.98 229.47C229.8 231.808 227.515 234.099 225.142 236.373C215.866 245.269 205.234 253.551 194.24 258.654C193.304 259.094 192.363 259.505 191.417 259.887L191.183 259.986C191.183 259.986 183.935 276.212 173.572 289.211C170.199 293.449 166.5 297.341 162.613 300.223H123.469C127.021 298.183 130.409 295.871 133.604 293.308C134.914 292.287 136.238 291.21 137.579 290.076L138.584 289.211L139.625 288.305C140.7 287.364 141.781 286.394 142.857 285.383C143.932 284.371 145.019 283.378 146.089 282.343C153.863 274.934 161.022 266.903 167.493 258.332C169.979 257.553 172.461 256.702 174.94 255.778C179.551 254.065 184.145 252.102 188.675 249.933C189.605 249.489 190.528 249.045 191.452 248.583C204.395 242.142 216.645 234.394 228.012 225.46C228.818 224.829 229.613 224.198 230.391 223.555C240.204 215.582 248.188 207.464 253.268 200.339L253.525 199.994L254.174 199.111L254.489 198.685L255.185 197.75H256.097Z" fill="#BD6F6D"/>
<path d="M257.732 197.82C257.667 198.088 257.603 198.375 257.545 198.685L257.457 199.111C257.299 199.912 257.135 200.812 256.966 201.818C255.54 210.263 253.646 225.519 249.216 242.779C248.917 243.948 248.631 245.07 248.298 246.227C247.041 250.833 245.598 255.579 243.932 260.302C243.932 260.302 244.025 261.389 244.049 263.447C244.119 269.163 243.64 282.355 239.063 300.27H194.291C197.866 296.096 201.009 291.57 203.672 286.762C209.184 276.878 212.369 266.942 214.608 259.606C223.112 252.302 230.671 243.965 237.111 234.789C237.695 233.941 238.309 233.094 238.864 232.246C245.443 222.572 251.097 212.3 255.75 201.566V201.514L256.791 199.117L256.978 198.691L257.352 197.825L257.732 197.82Z" fill="#BD6F6D"/>
<path d="M321.88 300.27H277.02C270.766 275.861 272.116 260.168 272.116 260.168C270.047 254.27 268.328 248.425 266.855 242.791C262.431 225.607 260.525 210.398 259.099 201.876C258.93 200.853 258.766 199.93 258.602 199.106L258.515 198.679C258.445 198.322 258.374 197.983 258.304 197.674H258.638L259.07 198.679L259.257 199.106L260.257 201.444L260.356 201.672C264.478 211.103 269.365 220.181 274.968 228.815C281.982 239.605 290.75 250.442 301.452 259.49C304.731 270.256 310.079 286.692 321.88 300.27Z" fill="#BD6F6D"/>
<path d="M394.616 300.27H355.338C339.282 288.767 326.283 259.671 326.283 259.671C308.386 252.411 291.213 236.145 278.939 221.878C271.34 213.011 265.63 204.927 262.859 200.251C262.62 199.854 262.403 199.48 262.216 199.129C262.135 198.983 262.053 198.837 261.983 198.702C261.714 198.206 261.497 197.779 261.34 197.411H262.257L263.216 198.702L263.531 199.129L263.584 199.199L264.169 200C268.178 205.623 273.994 211.865 281.119 218.16C298.847 233.941 324.547 250.062 349.966 257.993C360.844 272.822 380.886 292.911 394.616 300.27Z" fill="#BD6F6D"/>
</svg>
