<svg width="36" height="35" viewBox="0 0 36 35" fill="none" xmlns="http://www.w3.org/2000/svg">
<path d="M25.3246 21.574H23.7836L23.2375 21.0473C25.1491 18.8236 26.3 15.9366 26.3 12.7961C26.3 5.7933 20.6236 0.116943 13.6208 0.116943C6.61801 0.116943 0.94165 5.7933 0.94165 12.7961C0.94165 19.7989 6.61801 25.4753 13.6208 25.4753C16.7613 25.4753 19.6483 24.3244 21.872 22.4128L22.3987 22.9589V24.4999L32.1519 34.2336L35.0583 31.3272L25.3246 21.574ZM13.6208 21.574C8.76371 21.574 4.84293 17.6532 4.84293 12.7961C4.84293 7.93901 8.76371 4.01822 13.6208 4.01822C18.4779 4.01822 22.3987 7.93901 22.3987 12.7961C22.3987 17.6532 18.4779 21.574 13.6208 21.574Z" fill="#BD6F6D"/>
</svg>
