<svg width="205" height="350" viewBox="0 0 205 350" fill="none" xmlns="http://www.w3.org/2000/svg">
<path d="M-78.0746 267.237L-45.2177 229.237C-22.3853 246.179 4.50608 251.444 34.8794 244.993C48.6938 242.048 61.6695 235.495 72.3384 226.11C86.3232 213.791 96.2198 199.808 101.817 184.505C106.581 171.479 108.275 157.246 106.884 142.307C105.856 131.352 102.932 120.719 98.204 110.738C94.5787 103.064 89.9811 95.9662 84.4725 89.5081L117.551 51.2505C128.401 62.5401 137.117 75.0378 143.455 88.4851C150.942 104.342 155.472 122.037 156.832 141.111C158.417 162.807 155.737 183.323 148.898 202.022C143.041 218.034 133.964 233.248 121.867 247.231C108.794 262.38 93.7539 274.229 77.2199 282.526C60.6486 290.81 42.0499 295.729 21.9161 297.209C1.78234 298.689 -17.3395 296.476 -34.8995 290.688C-50.1418 285.621 -64.6252 277.784 -78.0746 267.237ZM-89.4305 268.203C-57.417 295.909 -20.105 308.202 22.4547 305.108C65.0143 302.013 100.172 284.447 127.84 252.42C140.6 237.664 150.1 221.758 156.325 204.739C163.601 184.846 166.395 163.44 164.744 140.535C161.798 100.23 145.91 66.6169 117.056 39.6443L73.7938 89.6646C88.051 104.02 97.027 122.748 98.9547 143.046C100.277 156.901 98.7209 169.831 94.3524 181.775C89.2057 195.846 80.1228 208.646 67.0801 220.125C57.4689 228.585 45.7675 234.545 33.2439 237.201C2.49008 243.767 -23.9817 237.47 -46.2325 218.244L-89.4305 268.203Z" fill="#2B2B39"/>
</svg>
