<svg width="415" height="542" viewBox="0 0 415 542" fill="none" xmlns="http://www.w3.org/2000/svg">
<path d="M791.3 1C791.3 1 791.3 459.1 791.3 468.6M107.1 497.8L45 539.8L107.1 497.8Z" stroke="#BD6F6D" stroke-miterlimit="10"/>
<path d="M312 348.3H415.6L481.4 540.5H44.1001L312 348.3Z" fill="#BD6F6D"/>
<path d="M432.6 134L415.6 199.8V351.1L437.6 410.7L436.6 125.8H237.3" stroke="#BD6F6D" stroke-miterlimit="10"/>
<path d="M311.7 200.7H414.6L435.6 126.4H238.1L311.7 200.7Z" fill="#BD6F6D"/>
<path d="M331.6 261.8H397.4V349.7L331.6 350V261.8Z" stroke="#BD6F6D" stroke-miterlimit="10"/>
<path d="M42 184.2L0 159.5V395.6L42 380.3V184.2ZM2.5 378.6V167.4L17 175.9V374L2.5 378.6ZM37.9 367.8L18.9 373.6V176.6L37.9 187.6V367.8Z" fill="#BD6F6D"/>
<path d="M0 43V157.4L21.5 170.5L42 182.8V107C42 88.7 27 56.6 0 43ZM17 160.5L2.5 151.8L1.9 51.2C6.8 54.4 12.8 59.4 17 64.3V160.5ZM37.9 173.5L18.9 161.6V65.7C22.6 69.3 37.9 89.2 37.9 110.8V173.5Z" fill="#BD6F6D"/>
<path d="M169.9 203.4L138.9 185.1V359.4L169.9 348.1V203.4ZM140.7 346.9V191L151.4 197.2V343.5L140.7 346.9ZM166.9 338.9L152.9 343.2V197.8L167 205.9L166.9 338.9Z" fill="#BD6F6D"/>
<path d="M138.9 99.1001V183.6L154.8 193.3L169.9 202.3V146.4C169.9 132.9 158.8 109.2 138.9 99.1001ZM151.4 185.9L140.7 179.5L140.2 105.3C143.8 107.7 148.3 111.3 151.3 115V185.9H151.4ZM166.8 195.5L152.8 186.7V115.9C155.6 118.6 166.8 133.3 166.8 149.2V195.5Z" fill="#BD6F6D"/>
<path d="M263 234.2L244 223V329.7L263 322.8V234.2ZM245.1 322.1V226.6L251.6 230.4V319.9L245.1 322.1ZM261.1 317.2L252.5 319.8V230.8L261.1 235.8V317.2Z" fill="#BD6F6D"/>
<path d="M244 170.4V222.1L253.7 228L263 233.5V199.3C263 191.1 256.2 176.6 244 170.4ZM251.7 223.5L245.2 219.6L244.9 174.2C247.1 175.6 249.8 177.9 251.7 180.1V223.5ZM261.1 229.4L252.5 224V180.7C254.2 182.3 261.1 191.3 261.1 201.1V229.4Z" fill="#BD6F6D"/>
<path d="M301.5 253L289.1 245.7V315.5L301.5 311V253ZM289.8 310.4V248L294.1 250.5V309.1L289.8 310.4ZM300.3 307.2L294.7 308.9V250.7L300.3 253.9V307.2Z" fill="#BD6F6D"/>
<path d="M289.1 211.2V245L295.5 248.9L301.6 252.5V230.1C301.5 224.8 297.1 215.3 289.1 211.2ZM294.1 246L289.8 243.4L289.6 213.7C291 214.6 292.8 216.1 294.1 217.6V246ZM300.3 249.8L294.7 246.3V218C295.8 219.1 300.3 225 300.3 231.3V249.8Z" fill="#BD6F6D"/>
</svg>
