<svg width="210" height="52" viewBox="0 0 210 52" fill="none" xmlns="http://www.w3.org/2000/svg">
<path d="M70.0572 -144.239C81.0666 -148.455 92.7077 -150.637 104.629 -150.652C117.817 -150.711 130.609 -148.16 142.633 -143.114C154.259 -138.245 164.72 -131.242 173.726 -122.288C182.72 -113.366 189.796 -102.939 194.753 -91.3337C199.87 -79.3125 202.513 -66.5642 202.539 -53.3645C202.602 -33.1702 196.567 -13.7598 185.025 2.76885C179.484 10.7247 172.798 17.7982 165.155 23.8073C157.459 29.873 148.917 34.6851 139.827 38.1654C128.818 42.381 117.177 44.5633 105.256 44.5778C92.068 44.6371 79.2752 42.0867 67.2513 37.0401C55.6257 32.1713 45.1647 25.1686 36.1583 16.2146C27.1642 7.29256 20.089 -3.13481 15.1316 -14.74C10.0148 -26.7613 7.40393 -39.5218 7.34513 -52.7092C7.28218 -72.9036 13.3174 -92.314 24.8597 -108.843C30.4003 -116.799 37.0862 -123.872 44.73 -129.881C52.4378 -135.915 60.936 -140.747 70.0572 -144.239ZM67.6064 -150.64C28.2414 -135.567 0.338922 -97.3619 0.490349 -52.6898C0.671302 4.9975 47.6172 51.6034 105.307 51.42C118.355 51.3777 130.821 48.9529 142.31 44.5536C181.675 29.4805 209.578 -8.72408 209.426 -53.3962C209.245 -111.084 162.299 -157.689 104.609 -157.506C91.5617 -157.464 79.0959 -155.039 67.6064 -150.64Z" fill="#BD6F6D"/>
</svg>
