<svg width="94" height="94" viewBox="0 0 94 94" fill="none" xmlns="http://www.w3.org/2000/svg">
<path d="M33.1171 23.0153L35.3437 32.2904L33.2016 37.0772L34.5778 45.7432L32.0098 56.722L35.389 69.4602L32.8376 57.1577L34.9887 46.0297L33.4645 37.3697L35.9268 33.1965L33.1171 23.0153Z" fill="#D7A9A7"/>
<path d="M2.89778 56.0902L1.58203 69.819L5.85256 72.6292L1.58203 84.6709L4.9764 87.84L2.89778 93.3912H23.1915V67.7474H24.116V56.0902H2.89778V56.0902ZM11.1473 72.6292H8.617V64.6628C8.617 64.6628 8.95689 63.4973 9.8814 63.4973C10.8059 63.4973 11.1473 64.518 11.1473 64.518V72.6292ZM17.5584 72.6036H15.0281V64.6386C15.0281 64.6386 15.368 63.4732 16.2925 63.4732C17.2185 63.4732 17.5584 64.4939 17.5584 64.4939V72.6036Z" stroke="#D7A9A7" stroke-width="0.14397" stroke-miterlimit="10"/>
<path d="M11.1465 64.5182V72.6295H8.61621V64.663C8.61621 64.663 8.9561 63.4976 9.8806 63.4976C10.8051 63.4976 11.1465 64.5182 11.1465 64.5182Z" stroke="#D7A9A7" stroke-width="0.14397" stroke-miterlimit="10"/>
<path d="M73.8496 56.1647V93.6104H91.0768V56.1647H73.8496ZM78.9177 72.6178H76.3875V64.6513C76.3875 64.6513 76.7273 63.4859 77.6518 63.4859C78.5763 63.4859 78.9177 64.5066 78.9177 64.5066V72.6178ZM85.3288 72.5921H82.7985V64.6272C82.7985 64.6272 83.1384 63.4618 84.0629 63.4618C84.9889 63.4618 85.3288 64.4824 85.3288 64.4824V72.5921Z" stroke="#D7A9A7" stroke-width="0.14397" stroke-miterlimit="10"/>
<path d="M78.918 64.5062V72.6174H76.3877V64.6509C76.3877 64.6509 76.7276 63.4855 77.6521 63.4855C78.5766 63.4855 78.918 64.5062 78.918 64.5062Z" stroke="#D7A9A7" stroke-width="0.14397" stroke-miterlimit="10"/>
<path d="M85.3291 64.4819V72.5916H82.7988V64.6266C82.7988 64.6266 83.1387 63.4612 84.0632 63.4612C84.9892 63.4612 85.3291 64.4819 85.3291 64.4819Z" stroke="#D7A9A7" stroke-width="0.14397" stroke-miterlimit="10"/>
<path d="M16.4987 40.8885C15.9549 41.971 15.2887 42.9978 14.5802 43.9506C13.7856 45.018 12.8747 45.9663 11.8535 46.785V50.4079H12.2433V53.2499H14.0439V50.4079H16.7192V53.2499H18.6181V50.4079H21.3433V53.2499H23.1923V50.4079H24.1168V40.8885H16.4987Z" stroke="#D7A9A7" stroke-width="0.14397" stroke-miterlimit="10"/>
<path d="M24.7285 23.0153L26.6938 24.7641V69.4225H26.9506V67.7475H29.7967V69.4964H31.694V67.7475H34.395V69.4602H36.2576V51.501H34.5778L42.9723 44.5944V24.7641L44.7201 23.0153H24.7285ZM30.2468 36.9068V31.7371C30.2468 31.7371 30.5882 30.9802 31.5127 30.9802C32.4372 30.9802 32.7771 31.6421 32.7771 31.6421V36.9068H30.2468V36.9068ZM39.2501 36.9068H36.7198V31.7371C36.7198 31.7371 37.0597 30.9802 37.9842 30.9802C38.9087 30.9802 39.2501 31.6421 39.2501 31.6421V36.9068Z" stroke="#D7A9A7" stroke-width="0.14397" stroke-miterlimit="10"/>
<path d="M32.7774 31.6423V36.9071H30.2471V31.7373C30.2471 31.7373 30.5885 30.9805 31.513 30.9805C32.4375 30.9805 32.7774 31.6423 32.7774 31.6423Z" stroke="#D7A9A7" stroke-width="0.14397" stroke-miterlimit="10"/>
<path d="M39.25 31.6423V36.9071H36.7197V31.7373C36.7197 31.7373 37.0596 30.9805 37.9841 30.9805C38.9086 30.9805 39.25 31.6423 39.25 31.6423Z" stroke="#D7A9A7" stroke-width="0.14397" stroke-miterlimit="10"/>
<path d="M36.2578 51.5009V67.7474H38.1552V64.5421H43.1916V62.3922H50.6374V64.4682H55.698V67.7112H57.7177V51.5009H36.2578ZM45.0164 59.6844H42.4861V54.5162C42.4861 54.5162 42.6266 54.2041 42.9725 53.981C43.1644 53.8573 43.4212 53.7593 43.752 53.7593C44.6765 53.7593 45.0164 54.4212 45.0164 54.4212V59.6844V59.6844ZM51.4894 59.6844H48.9591V54.5162C48.9591 54.5162 49.299 53.7593 50.2235 53.7593C51.148 53.7593 51.4894 54.4212 51.4894 54.4212V59.6844Z" stroke="#D7A9A7" stroke-width="0.14397" stroke-miterlimit="10"/>
<path d="M51.4893 54.4214V59.6846H48.959V54.5164C48.959 54.5164 49.2989 53.7595 50.2234 53.7595C51.1479 53.7595 51.4893 54.4214 51.4893 54.4214Z" stroke="#D7A9A7" stroke-width="0.14397" stroke-miterlimit="10"/>
<path d="M70.8712 33.7037L70.847 36.312H70.1823V38.2237H68.4859V36.312H66.9526V38.2433H65.3287V36.312H63.8498V38.2433H62.2259V36.312H60.6745V38.2237H58.9962V36.312H57.4629V38.2237H55.9115V36.4024H54.2694V38.1513H52.6274V36.312H51.9521V34.0897H70.6386L70.8712 33.7037Z" stroke="#D7A9A7" stroke-width="0.14397" stroke-miterlimit="10"/>
<path d="M68.717 50.3351V56.1637H70.6386V67.6008H68.717V69.4597H66.8439V67.747H64.1429V69.3497H62.244V67.747H59.5551V69.422H57.7182V51.5005H59.324L51.9521 45.399V40.4448H70.6386V50.3351H68.717Z" stroke="#D7A9A7" stroke-width="0.14397" stroke-miterlimit="10"/>
<path d="M77.7447 30.5745V35.8377H75.2129V30.6679C75.2129 30.6679 75.5543 29.9126 76.4788 29.9126C77.4033 29.9126 77.7447 30.5745 77.7447 30.5745Z" stroke="#D7A9A7" stroke-width="0.14397" stroke-miterlimit="10"/>
<path d="M84.5967 50.4307V53.25H84.8761" stroke="#D7A9A7" stroke-width="0.14397" stroke-miterlimit="10"/>
<path d="M80.8594 45.9139L83.8973 43.3961L82.4637 39.722L77.7929 39.5033L81.6857 32.3631L82.0951 25.3871C81.8413 25.167 81.5875 24.9469 81.3338 24.7283H69.8047L70.9497 25.357L70.9225 28.2381L72.3909 31.175L70.8712 33.7019V33.7034L70.847 36.3116H71.8063V40.4456H70.6385V50.3359H70.7141V53.2502H72.6583V50.3359H75.2867V53.2502H77.2083V50.3359H79.9334V53.2502H81.7824V50.3359H84.5876L80.8594 45.9139ZM77.7445 35.8382H75.2127V30.6685C75.2127 30.6685 75.5541 29.9131 76.4786 29.9131C77.4031 29.9131 77.7445 30.575 77.7445 30.575V35.8382Z" stroke="#D7A9A7" stroke-width="0.14397" stroke-miterlimit="10"/>
<path d="M71.0039 16.1616V22.141H71.8801V21.1218H73.1686V22.141H74.507V21.1218H75.9195V22.141H77.208V21.2138C75.1642 19.5011 73.0976 17.814 71.0039 16.1616Z" stroke="#D7A9A7" stroke-width="0.14397" stroke-miterlimit="10"/>
<path d="M79.1537 22.1746C80.5782 23.6748 81.9846 25.1915 83.3789 26.7187L83.4303 26.3192L84.7581 26.4881L84.6282 27.4997L85.3276 27.5886L86.4742 18.6271L75.6128 17.2416L75.4678 18.3768C76.711 19.6297 77.9376 20.8961 79.1537 22.1746Z" stroke="#D7A9A7" stroke-width="0.14397" stroke-miterlimit="10"/>
<path d="M81.3239 24.7192L71.0049 24.683V24.7268H81.3345C81.33 24.7253 81.327 24.7222 81.3239 24.7192Z" stroke="#D7A9A7" stroke-width="0.14397" stroke-miterlimit="10"/>
<path d="M42.9003 10.4851V19.8824H41.9018V17.8666H40.3942V19.8824H38.74V17.8666H37.1584V19.8824H35.5269V17.8666H33.9952V19.8824H32.2912V17.8666H30.7821V19.8824H29.1521V17.8666H27.6445V19.8824H26.6943V10.4851H42.9003Z" stroke="#D7A9A7" stroke-width="0.14397" stroke-miterlimit="10"/>
<path d="M48.5214 86.2132L45.8627 90.0623L48.4111 93.3912H38.3262V81.0073C38.3262 81.0073 39.5422 73.6243 46.9881 73.6243L51.0033 82.0189L42.4864 83.507L48.5214 86.2132Z" stroke="#D7A9A7" stroke-width="0.14397" stroke-miterlimit="10"/>
<path d="M48.4188 93.3918H48.4113H38.3263V81.0079C38.3263 81.0079 39.5424 73.6249 46.9883 73.6249M70.6386 56.1647V67.6018H68.7171V69.4607H66.8439V67.748H64.1429V69.3507H62.244V67.748H59.5551V69.423H57.7182V67.7118H55.6985V64.4689H50.6379V62.3928H43.1921V64.5427H38.1556V67.748H36.2583V69.4607H34.3957V67.748H31.6947V69.4969H29.7974V67.748H26.9513V69.423H25.125V67.748H23.1914V93.3918L48.4943 93.5004L73.8502 93.6104V56.1647H70.6386Z" stroke="#D7A9A7" stroke-width="0.14397" stroke-miterlimit="10"/>
<path d="M70.6589 56.1647H70.6387" stroke="#D7A9A7" stroke-width="0.14397" stroke-miterlimit="10"/>
<path d="M26.5306 10.4854H25.9097V8.75461H25.0713V6.8429H44.3106V8.66415H43.5326V10.4854H26.5306Z" stroke="#D7A9A7" stroke-width="0.14397" stroke-miterlimit="10"/>
<path d="M75.1521 14.6672L87.6978 16.2669L87.4954 17.8378L87.0981 17.7881L86.9818 18.6912L75.288 17.2001L75.4044 16.297L74.9512 16.2397L75.1521 14.6672Z" stroke="#D7A9A7" stroke-width="0.14397" stroke-miterlimit="10"/>
<path d="M11.1465 64.5182V72.6295H8.61621V64.663C8.61621 64.663 8.9561 63.4976 9.8806 63.4976C10.8051 63.4976 11.1465 64.5182 11.1465 64.5182Z" stroke="#D7A9A7" stroke-width="0.14397" stroke-miterlimit="10"/>
<path d="M17.5576 64.494V72.6037H15.0273V64.6387C15.0273 64.6387 15.3672 63.4733 16.2917 63.4733C17.2177 63.4733 17.5576 64.494 17.5576 64.494Z" stroke="#D7A9A7" stroke-width="0.14397" stroke-miterlimit="10"/>
<path d="M32.7774 31.6423V36.9071H30.2471V31.7373C30.2471 31.7373 30.5885 30.9805 31.513 30.9805C32.4375 30.9805 32.7774 31.6423 32.7774 31.6423Z" stroke="#D7A9A7" stroke-width="0.14397" stroke-miterlimit="10"/>
<path d="M15.9902 49.1521H20.0176V44.0396C20.0176 44.0396 19.4752 43.3973 18.0039 43.3973C16.5325 43.3973 15.9902 44.1316 15.9902 44.1316V49.1521Z" stroke="#D7A9A7" stroke-width="0.14397" stroke-miterlimit="10"/>
<path d="M39.25 31.6423V36.9071H36.7197V31.7373C36.7197 31.7373 37.0596 30.9805 37.9841 30.9805C38.9086 30.9805 39.25 31.6423 39.25 31.6423Z" stroke="#D7A9A7" stroke-width="0.14397" stroke-miterlimit="10"/>
<path d="M45.0166 54.4214V59.6846H42.4863V54.5164C42.4863 54.5164 42.6268 54.2043 42.9727 53.9811C43.1646 53.8575 43.4214 53.7595 43.7522 53.7595C44.6767 53.7595 45.0166 54.4214 45.0166 54.4214Z" stroke="#D7A9A7" stroke-width="0.14397" stroke-miterlimit="10"/>
<path d="M51.4893 54.4214V59.6846H48.959V54.5164C48.959 54.5164 49.2989 53.7595 50.2234 53.7595C51.1479 53.7595 51.4893 54.4214 51.4893 54.4214Z" stroke="#D7A9A7" stroke-width="0.14397" stroke-miterlimit="10"/>
<path d="M78.918 64.5062V72.6174H76.3877V64.6509C76.3877 64.6509 76.7276 63.4855 77.6521 63.4855C78.5766 63.4855 78.918 64.5062 78.918 64.5062Z" stroke="#D7A9A7" stroke-width="0.14397" stroke-miterlimit="10"/>
<path d="M85.3291 64.4819V72.5916H82.7988V64.6266C82.7988 64.6266 83.1387 63.4612 84.0632 63.4612C84.9892 63.4612 85.3291 64.4819 85.3291 64.4819Z" stroke="#D7A9A7" stroke-width="0.14397" stroke-miterlimit="10"/>
<path d="M77.7447 30.5745V35.8377H75.2129V30.6679C75.2129 30.6679 75.5543 29.9126 76.4788 29.9126C77.4033 29.9126 77.7447 30.5745 77.7447 30.5745Z" stroke="#D7A9A7" stroke-width="0.14397" stroke-miterlimit="10"/>
<path d="M81.5055 24.6832L82.1309 19.7938C82.1309 19.7938 81.8771 19.0943 80.9602 18.9767C80.0432 18.8591 79.6097 19.5677 79.6097 19.5677L79.2607 22.289C80.0145 23.082 80.7608 23.8811 81.5055 24.6832Z" stroke="#D7A9A7" stroke-width="0.14397" stroke-miterlimit="10"/>
<path d="M75.2617 19.5966V20.0775H75.8418C75.6484 19.9177 75.4551 19.7564 75.2617 19.5966Z" stroke="#D7A9A7" stroke-width="0.14397" stroke-miterlimit="10"/>
<path d="M59.5566 55.2538H63.2667V46.3993C63.2667 46.3993 62.7667 45.2852 61.4117 45.2852C60.0551 45.2852 59.5566 46.5576 59.5566 46.5576V55.2538V55.2538Z" stroke="#D7A9A7" stroke-width="0.14397" stroke-miterlimit="10"/>
<path d="M23.1911 50.408V53.2499H21.3421V50.408H18.6169V53.2499H16.718V50.408H14.0427V53.2499H12.2421V50.408H9.4187V53.2499L5.91708 51.0743C5.76149 51.1859 5.55906 51.2402 5.3234 51.195C5.01826 51.1362 4.7116 51.0894 4.40494 51.0517L2.89734 53.2514V50.9266C2.83994 50.9236 2.78254 50.9236 2.72664 50.9221L1 56.0903H25.1383V50.408H23.1911Z" stroke="#D7A9A7" stroke-width="0.14397" stroke-miterlimit="10"/>
<path d="M44.8718 17.8673V23.016H24.5781V17.8673H25.9649V19.8831H27.6447V17.8673H29.1523V19.8831H30.7823V17.8673H32.2914V19.8831H33.9953V17.8673H35.5271V19.8831H37.1586V17.8673H38.7402V19.8831H40.3943V17.8673H41.902V19.8831H43.5334V17.8673H44.8718Z" stroke="#D7A9A7" stroke-width="0.14397" stroke-miterlimit="10"/>
<path d="M72.3907 31.1751L70.871 33.702V33.7035L70.6384 34.0894H51.952L50.2979 30.9806L52.3614 26.8527C53.3387 27.4723 54.4989 27.8326 55.7436 27.8326C57.854 27.8326 68.2712 27.5462 69.8967 26.1863L70.9224 28.2382L72.3907 31.1751Z" fill="#D7A9A7"/>
<path d="M83.2145 0.980957L86.6467 15.1771L85.9442 16.0666L76.8699 14.9102L76.4258 13.7765L83.2145 0.980957Z" fill="#D7A9A7"/>
<path d="M86.5784 30.2698L87.0255 26.7766L86.1569 26.665L86.027 27.6766L84.6282 27.4987L84.7581 26.4871L83.4303 26.3182L83.3789 26.7178C84.453 27.8953 85.5195 29.0788 86.5784 30.2698Z" stroke="#D7A9A7" stroke-width="0.14397" stroke-miterlimit="10"/>
<path d="M77.2081 21.2137V22.1409H75.9196V21.1217H74.5071V22.1409H73.1687V21.1217H71.8801V22.1409H70.4934V21.1217H69.4707V24.6798L71.004 24.6843L81.323 24.7205C79.9605 23.5415 78.5903 22.3716 77.2081 21.2137Z" stroke="#D7A9A7" stroke-width="0.14397" stroke-miterlimit="10"/>
<path d="M71.8057 36.3121V40.4461H51.0029V36.3121H52.6268V38.1515H54.2689V36.4026H55.9109V38.2238H57.4624V36.3121H58.9956V38.2238H60.6739V36.3121H62.2253V38.2434H63.8493V36.3121H65.3282V38.2434H66.9521V36.3121H68.4854V38.2238H70.1818V36.3121H71.8057Z" stroke="#D7A9A7" stroke-width="0.14397" stroke-miterlimit="10"/>
<path d="M90.4048 53.2502H89.1555V51.4968C89.0815 51.3219 89.0135 51.1425 88.9576 50.9511C88.8987 50.749 88.8519 50.544 88.8111 50.3359H86.3579V53.2502H84.5965V50.4309L84.5874 50.3359H81.7822V53.2502H79.9332V50.3359H77.208V53.2502H75.2865V50.3359H72.658V53.2502H70.7138V50.3359H68.7168V56.1646H93.0001V54.8529C92.5242 54.6448 92.059 54.4142 91.6209 54.1503C91.1828 53.8865 90.7719 53.5895 90.4048 53.2502Z" stroke="#D7A9A7" stroke-width="0.14397" stroke-miterlimit="10"/>
<path d="M84.596 50.3359V50.4309L84.5869 50.3359H84.596Z" stroke="#D7A9A7" stroke-width="0.14397" stroke-miterlimit="10"/>
<path d="M59.3236 51.5015H34.5781L42.9727 44.5949L46.9879 41.2916L51.9518 45.4L59.3236 51.5015Z" fill="#D7A9A7"/>
<path d="M48.5214 86.2132L45.8627 90.0623L48.4111 93.3912H38.3262V81.0073C38.3262 81.0073 39.5422 73.6243 46.9881 73.6243L51.0033 82.0189L42.4864 83.507L48.5214 86.2132Z" fill="#D7A9A7"/>
<path d="M48.4942 93.5004L48.4111 93.3918H48.4187L48.4942 93.5004Z" fill="#D7A9A7"/>
<path d="M69.8962 26.1861L69.3086 25.0116C70.1696 25.4729 70.286 25.8604 69.8962 26.1861Z" fill="#D7A9A7"/>
</svg>
