<svg width="94" height="113" viewBox="0 0 94 113" fill="none" xmlns="http://www.w3.org/2000/svg">
<path d="M1.99658 75.0042V112.703H22.4664V86.7857H23.3989V75.0042H1.99658ZM10.3177 91.7195H7.76543V83.6651C7.76543 83.6651 8.10827 82.4872 9.0408 82.4872C9.97332 82.4872 10.3177 83.5188 10.3177 83.5188V91.7195ZM16.7844 91.6936H14.2322V83.6437C14.2322 83.6437 14.575 82.4659 15.5075 82.4659C16.44 82.4659 16.7844 83.4974 16.7844 83.4974V91.6936Z" stroke="white" stroke-width="0.150719" stroke-miterlimit="10"/>
<path d="M10.3176 83.5218V91.7195H7.76538V83.665C7.76538 83.665 8.10822 82.4872 9.04074 82.4872C9.97327 82.4872 10.3176 83.5218 10.3176 83.5218Z" stroke="white" stroke-width="0.150719" stroke-miterlimit="10"/>
<path d="M73.5649 75.0789V112.921H90.9355V75.0789H73.5649ZM78.6771 91.7074H76.1248V83.6559C76.1248 83.6559 76.4676 82.4781 77.4002 82.4781C78.3327 82.4781 78.6771 83.5097 78.6771 83.5097V91.7074ZM85.1438 91.6814H82.5915V83.6316C82.5915 83.6316 82.9344 82.4537 83.8669 82.4537C84.7994 82.4537 85.1438 83.4853 85.1438 83.4853V91.6814Z" stroke="white" stroke-width="0.150719" stroke-miterlimit="10"/>
<path d="M78.6768 83.5127V91.7104H76.1245V83.6559C76.1245 83.6559 76.4674 82.4781 77.3999 82.4781C78.3324 82.4781 78.6768 83.5127 78.6768 83.5127Z" stroke="white" stroke-width="0.150719" stroke-miterlimit="10"/>
<path d="M85.1436 83.4852V91.6814H82.5913V83.6315C82.5913 83.6315 82.9341 82.4537 83.8667 82.4537C84.7992 82.4537 85.1436 83.4852 85.1436 83.4852Z" stroke="white" stroke-width="0.150719" stroke-miterlimit="10"/>
<path d="M23.3992 59.6404V69.2612H22.4667V72.1334H20.6016V69.2612H17.8528V72.1334H15.9375V69.2612H13.239V72.1334H11.4227V69.2612H11.0295V59.6404H23.3992Z" stroke="white" stroke-width="0.150719" stroke-miterlimit="10"/>
<path d="M24.022 41.5765L26.0028 43.3441V88.4785H26.2619V86.7857H29.1326V88.5532H31.0464V86.7857H33.7739V88.5166H35.6526V70.3659H33.9521L42.4195 63.3857V43.3441L44.1825 41.5765H24.022ZM32.1404 55.6162H29.5836V50.3913C29.7089 50.1676 29.8896 49.9799 30.1084 49.8461C30.3271 49.7123 30.5766 49.637 30.8328 49.6274C31.089 49.6177 31.3434 49.6741 31.5716 49.7911C31.7998 49.908 31.9941 50.0817 32.1359 50.2953L32.1404 55.6162ZM38.6696 55.6162H36.1128V50.3913C36.2381 50.1676 36.4188 49.9799 36.6376 49.8461C36.8563 49.7123 37.1058 49.637 37.362 49.6274C37.6182 49.6177 37.8726 49.6741 38.1008 49.7911C38.329 49.908 38.5233 50.0817 38.665 50.2953L38.6696 55.6162Z" stroke="white" stroke-width="0.150719" stroke-miterlimit="10"/>
<path d="M32.136 50.2953V55.6162H29.5837V50.3913C29.7091 50.1676 29.8898 49.9799 30.1085 49.8461C30.3272 49.7123 30.5767 49.637 30.8329 49.6273C31.0892 49.6177 31.3436 49.6741 31.5718 49.791C31.7999 49.908 31.9942 50.0817 32.136 50.2953V50.2953Z" stroke="white" stroke-width="0.150719" stroke-miterlimit="10"/>
<path d="M38.6653 50.2953V55.6162H36.113V50.3913C36.2384 50.1676 36.419 49.9799 36.6378 49.8461C36.8565 49.7123 37.106 49.637 37.3622 49.6273C37.6185 49.6177 37.8729 49.6741 38.101 49.791C38.3292 49.908 38.5235 50.0817 38.6653 50.2953V50.2953Z" stroke="white" stroke-width="0.150719" stroke-miterlimit="10"/>
<path d="M35.6467 70.3659V86.7857H37.5605V83.5462H42.6407V81.3795H50.1511V83.4776H55.2587V86.7552H57.2959V70.3659H35.6467ZM44.4844 78.6367H41.9291V73.4134C42.0422 73.193 42.2114 73.0065 42.4197 72.8725C42.7544 72.6664 43.1558 72.5977 43.5399 72.6806C43.9241 72.7635 44.2614 72.9917 44.4813 73.3174L44.4844 78.6367ZM51.0136 78.6367H48.4583V73.4134C48.5836 73.1897 48.7643 73.0019 48.983 72.8681C49.2018 72.7344 49.4512 72.659 49.7075 72.6494C49.9637 72.6398 50.2181 72.6961 50.4463 72.8131C50.6745 72.9301 50.8688 73.1037 51.0105 73.3174L51.0136 78.6367Z" stroke="white" stroke-width="0.150719" stroke-miterlimit="10"/>
<path d="M51.0107 73.3174V78.6367H48.4585V73.4133C48.5838 73.1896 48.7645 73.0019 48.9833 72.8681C49.202 72.7343 49.4515 72.659 49.7077 72.6494C49.9639 72.6397 50.2183 72.6961 50.4465 72.8131C50.6747 72.93 50.869 73.1037 51.0107 73.3174V73.3174Z" stroke="white" stroke-width="0.150719" stroke-miterlimit="10"/>
<path d="M70.56 52.3782L70.5356 55.0143H69.8652V56.9464H68.1541V55.0143H66.6075V56.9662H64.9695V55.0143H63.4777V56.9662H61.8397V55.0143H60.2748V56.9464H58.582V55.0143H57.0354V56.9464H55.4705V55.1057H53.8142V56.8732H52.1579V55.0143H51.4768V52.7683H70.3254L70.56 52.3782Z" stroke="white" stroke-width="0.150719" stroke-miterlimit="10"/>
<path d="M68.3872 69.1881V75.0788H70.3254V86.6379H68.3872V88.5166H66.4978V86.7857H63.7733V88.4054H61.858V86.7857H59.1458V88.4785H57.2929V70.3659H58.9126L51.4768 64.1994V59.1924H70.3254V69.1881H68.3872Z" stroke="white" stroke-width="0.150719" stroke-miterlimit="10"/>
<path d="M77.493 49.2165V54.5359H74.9392V49.311C75.0649 49.0874 75.2458 48.8998 75.4648 48.7662C75.6837 48.6326 75.9333 48.5574 76.1896 48.548C76.4459 48.5385 76.7004 48.595 76.9286 48.712C77.1568 48.8291 77.3512 49.0028 77.493 49.2165V49.2165Z" stroke="white" stroke-width="0.150719" stroke-miterlimit="10"/>
<path d="M84.4045 69.2841V72.1334H84.6864" stroke="white" stroke-width="0.150719" stroke-miterlimit="10"/>
<path d="M81.8858 43.8957L83.3151 43.3151V43.3075H69.4841L70.6391 43.9429L70.6117 46.8547L72.0928 49.823L70.5599 52.3767L70.5355 55.0128H71.5031V59.1909H70.3252V69.1896H70.4014V72.135H72.3625V69.1896H75.0138V72.135H76.9519V69.1896H79.6947V72.135H81.5597V69.1896H84.3893L81.8858 43.8957ZM77.4929 54.5359H74.9391V49.311C75.0647 49.0874 75.2457 48.8998 75.4647 48.7662C75.6836 48.6326 75.9332 48.5575 76.1895 48.548C76.4458 48.5385 76.7003 48.595 76.9285 48.712C77.1567 48.8291 77.351 49.0028 77.4929 49.2165V54.5359Z" stroke="white" stroke-width="0.150719" stroke-miterlimit="10"/>
<path d="M81.7384 31.5626V40.6928H81.0268V39.6627H79.6768V40.6928H78.3755V39.6627H76.9523V40.6928H75.6526V39.6627H74.2279V40.6928H72.8778V39.6627H71.5781V40.6928H70.6943V31.5626H81.7384Z" stroke="white" stroke-width="0.150719" stroke-miterlimit="10"/>
<path d="M81.7384 43.3014V43.3075H70.6943V43.2633L81.7384 43.3014Z" stroke="white" stroke-width="0.150719" stroke-miterlimit="10"/>
<path d="M42.3466 28.9128V38.4102H41.3394V36.373H39.8187V38.4102H38.1502V36.373H36.5549V38.4102H34.9093V36.373H33.3642V38.4102H31.6454V36.373H30.1232V38.4102H28.4791V36.373H26.9584V38.4102H26V28.9128H42.3466Z" stroke="white" stroke-width="0.150719" stroke-miterlimit="10"/>
<path d="M55.2585 100.088V112.703H37.7356V100.187C37.7356 100.187 38.9546 92.7206 46.4727 92.7206C53.9908 92.7206 55.2585 100.088 55.2585 100.088Z" stroke="white" stroke-width="0.150719" stroke-miterlimit="10"/>
<path d="M70.3255 75.0789V86.6379H68.3873V88.5167H66.4979V86.7857H63.7734V88.4054H61.8581V86.7857H59.1459V88.4786H57.293V86.7491H55.2588V83.4716H50.1543V81.3795H42.6408V83.5523H37.5607V86.7918H35.6468V88.5228H33.7742V86.7857H31.0436V88.5532H29.1298V86.7857H26.2591V88.4786H24.4169V86.7857H22.4666V112.703L73.5649 112.921V75.0789H70.3255ZM55.2588 112.703H37.7359V100.187C37.7359 100.187 38.9549 92.7206 46.473 92.7206C53.9911 92.7206 55.2588 100.088 55.2588 100.088V112.703Z" stroke="white" stroke-width="0.150719" stroke-miterlimit="10"/>
<path d="M70.3467 75.0789H70.3254" stroke="white" stroke-width="0.150719" stroke-miterlimit="10"/>
<path d="M25.8348 28.9128H25.2085V27.1636H24.3613V25.23H43.7691V27.0706H42.9844V28.9128H25.8348Z" stroke="white" stroke-width="0.150719" stroke-miterlimit="10"/>
<path d="M69.9009 29.0408H82.6575V30.6423H82.2522V31.5626H70.361V30.6423H69.9009V29.0408Z" stroke="white" stroke-width="0.150719" stroke-miterlimit="10"/>
<path d="M10.3174 83.5219V91.7196H7.76514V83.6651C7.76514 83.6651 8.10798 82.4873 9.0405 82.4873C9.97303 82.4873 10.3174 83.5219 10.3174 83.5219Z" stroke="white" stroke-width="0.150719" stroke-miterlimit="10"/>
<path d="M16.7842 83.4975V91.6937H14.2319V83.6438C14.2319 83.6438 14.5748 82.4659 15.5073 82.4659C16.4398 82.4659 16.7842 83.4975 16.7842 83.4975Z" stroke="white" stroke-width="0.150719" stroke-miterlimit="10"/>
<path d="M32.1357 50.2954V55.6163H29.5835V50.3914C29.7088 50.1677 29.8895 49.9799 30.1083 49.8461C30.327 49.7124 30.5765 49.637 30.8327 49.6274C31.0889 49.6178 31.3433 49.6741 31.5715 49.7911C31.7997 49.9081 31.994 50.0817 32.1357 50.2954V50.2954Z" stroke="white" stroke-width="0.150719" stroke-miterlimit="10"/>
<path d="M15.2009 67.992H19.2632V62.825C19.2632 62.825 18.7162 62.1805 17.2321 62.1805C15.748 62.1805 15.2009 62.9241 15.2009 62.9241V67.992Z" stroke="white" stroke-width="0.150719" stroke-miterlimit="10"/>
<path d="M38.6648 50.2954V55.6163H36.1125V50.3914C36.2379 50.1677 36.4186 49.9799 36.6373 49.8461C36.8561 49.7124 37.1055 49.637 37.3618 49.6274C37.618 49.6178 37.8724 49.6741 38.1006 49.7911C38.3288 49.9081 38.523 50.0817 38.6648 50.2954V50.2954Z" stroke="white" stroke-width="0.150719" stroke-miterlimit="10"/>
<path d="M44.4812 73.3175V78.6368H41.929V73.4134C42.0421 73.1931 42.2113 73.0065 42.4196 72.8725C42.7543 72.6665 43.1556 72.5977 43.5398 72.6807C43.924 72.7636 44.2613 72.9917 44.4812 73.3175V73.3175Z" stroke="white" stroke-width="0.150719" stroke-miterlimit="10"/>
<path d="M51.0103 73.3175V78.6368H48.458V73.4135C48.5833 73.1898 48.764 73.002 48.9828 72.8682C49.2015 72.7345 49.451 72.6591 49.7072 72.6495C49.9634 72.6399 50.2178 72.6962 50.446 72.8132C50.6742 72.9302 50.8685 73.1038 51.0103 73.3175V73.3175Z" stroke="white" stroke-width="0.150719" stroke-miterlimit="10"/>
<path d="M78.6768 83.5128V91.7104H76.1245V83.656C76.1245 83.656 76.4674 82.4781 77.3999 82.4781C78.3324 82.4781 78.6768 83.5128 78.6768 83.5128Z" stroke="white" stroke-width="0.150719" stroke-miterlimit="10"/>
<path d="M85.1433 83.4853V91.6815H82.5911V83.6316C82.5911 83.6316 82.9339 82.4537 83.8664 82.4537C84.7989 82.4537 85.1433 83.4853 85.1433 83.4853Z" stroke="white" stroke-width="0.150719" stroke-miterlimit="10"/>
<path d="M77.4927 49.2166V54.5359H74.939V49.3111C75.0646 49.0874 75.2456 48.8999 75.4645 48.7663C75.6835 48.6326 75.9331 48.5575 76.1894 48.548C76.4457 48.5385 76.7001 48.595 76.9284 48.7121C77.1566 48.8292 77.3509 49.0029 77.4927 49.2166V49.2166Z" stroke="white" stroke-width="0.150719" stroke-miterlimit="10"/>
<path d="M74.9893 38.6068H77.5415V33.2875C77.3997 33.0738 77.2055 32.9002 76.9773 32.7832C76.7491 32.6663 76.4947 32.6099 76.2385 32.6195C75.9822 32.6292 75.7328 32.7045 75.514 32.8383C75.2953 32.972 75.1146 33.1598 74.9893 33.3835V38.6068Z" stroke="white" stroke-width="0.150719" stroke-miterlimit="10"/>
<path d="M59.1455 74.1586H62.8893V65.2082C62.7131 64.8651 62.4446 64.578 62.114 64.3793C61.7834 64.1806 61.4038 64.0782 61.0182 64.0836C59.6468 64.0836 59.1455 65.3697 59.1455 65.3697V74.1586Z" stroke="white" stroke-width="0.150719" stroke-miterlimit="10"/>
<path d="M24.4302 69.2613V75.0042H0.0825195V69.2613H1.99633V72.1335H3.96042V69.2613H6.61171V72.1335H8.57428V69.2613H11.4221V72.1335H13.2384V69.2613H15.937V72.1335H17.8523V69.2613H20.6011V72.1335H22.4662V69.2613H24.4302Z" stroke="white" stroke-width="0.150719" stroke-miterlimit="10"/>
<path d="M17.2139 37.6987L24.4288 57.1857L23.3987 59.6404H11.0291L9.94873 56.9404L17.2139 37.6987Z" fill="white"/>
<path d="M44.3351 36.373V41.5765H23.8652V36.373H25.264V38.4102H26.9584V36.373H28.4791V38.4102H30.1232V36.373H31.6454V38.4102H33.3642V36.373H34.9093V38.4102H36.5549V36.373H38.1502V38.4102H39.8187V36.373H41.3394V38.4102H42.985V36.373H44.3351Z" stroke="white" stroke-width="0.150719" stroke-miterlimit="10"/>
<path d="M34.0999 0L43.7695 25.23H24.479L34.0999 0Z" fill="white"/>
<path d="M72.0927 49.823L70.5598 52.3768V52.3783L70.3252 52.7684H51.4766L49.8081 49.6265L60.9009 27.3906L70.6116 46.8548L72.0927 49.823Z" fill="white"/>
<path d="M76.2158 14.2896L81.4681 28.0824L80.8785 29.0652H71.6507L71.061 27.9849L76.2158 14.2896Z" fill="white"/>
<path d="M83.3332 39.6627V43.3075L81.7378 43.3014L70.6938 43.2633L69.1472 43.2587V39.6627H70.1788V40.6928H71.5776V39.6627H72.8773V40.6928H74.2273V39.6627H75.652V40.6928H76.9518V39.6627H78.3749V40.6928H79.6762V39.6627H81.0262V40.6928H82.4494V39.6627H83.3332Z" stroke="white" stroke-width="0.150719" stroke-miterlimit="10"/>
<path d="M71.5029 55.0143V59.1924H50.5195V55.0143H52.1575V56.8733H53.8138V55.1058H55.4701V56.9464H57.035V55.0143H58.5816V56.9464H60.2745V55.0143H61.8393V56.9662H63.4774V55.0143H64.9691V56.9662H66.6071V55.0143H68.1537V56.9464H69.8649V55.0143H71.5029Z" stroke="white" stroke-width="0.150719" stroke-miterlimit="10"/>
<path d="M92.881 69.1881V75.0789H73.5646H70.3465H68.387V69.1881H70.4013V72.1335H72.3624V69.1881H75.0137V72.1335H76.9519V69.1881H79.7007V72.1335H81.5657V69.1881H84.3953L84.4044 69.2841V72.1335H86.1811V69.1881H89.0031V72.1335H90.8437V69.1881H92.881Z" stroke="white" stroke-width="0.150719" stroke-miterlimit="10"/>
<path d="M84.4045 69.1881V69.2846L84.3953 69.1881H84.4045Z" stroke="white" stroke-width="0.150719" stroke-miterlimit="10"/>
<path d="M58.9124 70.366H33.9521L42.4195 63.3857L46.4696 60.0472L51.4766 64.1994L58.9124 70.366Z" fill="white"/>
<path d="M55.2583 100.088V112.703H37.7354V100.187C37.7354 100.187 38.9543 92.7206 46.4724 92.7206C53.9905 92.7206 55.2583 100.088 55.2583 100.088Z" fill="white"/>
</svg>
