<svg width="71" height="96" viewBox="0 0 71 96" fill="none" xmlns="http://www.w3.org/2000/svg">
<path d="M70.3159 92.3081V95.98H0V92.2446H11.3217V91.1683H60.2295V92.2446H60.4161L70.3159 92.3081Z" fill="#D7A9A7"/>
<path d="M0.0737305 61.4589V66.7625C1.39044 68.6955 2.66605 70.6578 3.91817 72.6333C4.19119 72.8326 4.34973 73.196 4.14569 73.58C3.18715 75.3826 1.80585 76.8363 0.0737305 77.9149V92.2475H7.33838V61.4589H0.0737305Z" stroke="#D7A9A7" stroke-width="0.148669" stroke-miterlimit="10"/>
<path d="M23.2575 44.8312H18.9302V67.6035H23.2575V44.8312Z" stroke="#D7A9A7" stroke-width="0.148669" stroke-miterlimit="10"/>
<path d="M23.2575 69.1624H18.9302V91.1551H23.2575V69.1624Z" stroke="#D7A9A7" stroke-width="0.148669" stroke-miterlimit="10"/>
<path d="M23.2575 67.604H18.9302V69.1618H23.2575V67.604Z" stroke="#D7A9A7" stroke-width="0.148669" stroke-miterlimit="10"/>
<path d="M9.82794 23.1096C9.17032 21.8493 8.54793 20.5714 7.88297 19.3154L7.33984 22.5703V91.1541H11.6672V26.4539C11.0272 25.3489 10.4136 24.2322 9.82794 23.1096Z" stroke="#D7A9A7" stroke-width="0.148669" stroke-miterlimit="10"/>
<path d="M11.6653 23.441V22.6408L11.6506 22.5573L11.586 22.1806L11.4671 21.4845L11.2983 20.5012L15.3483 11.8181L19.2764 20.4997V20.5012L19.1311 21.3688L18.9945 22.1806L18.9329 22.5573L18.93 22.5705V91.1543H11.6653V26.454V23.441Z" stroke="#D7A9A7" stroke-width="0.148669" stroke-miterlimit="10"/>
<path d="M16.6169 1.25207L12.1398 5.72184L10.4326 15.4542L11.2987 20.5014L15.3486 11.8183L19.2767 20.4999L20.225 14.8211L17.7472 0.980957C17.3699 1.06889 16.9927 1.15975 16.6169 1.25207Z" fill="#D7A9A7"/>
<path d="M70.3433 57.1641V92.2481H67.0566V57.2579L68.6449 49.7047L68.8783 50.7291L70.3433 57.1641Z" stroke="#D7A9A7" stroke-width="0.148669" stroke-miterlimit="10"/>
<path d="M68.8783 44.5587V50.7285L68.6449 49.7041L67.0566 57.2573V61.4588H59.792V44.865H68.0504V44.5587H68.8783Z" fill="#D7A9A7"/>
<path d="M67.0566 61.4589H59.792V92.2475H67.0566V61.4589Z" stroke="#D7A9A7" stroke-width="0.148669" stroke-miterlimit="10"/>
<path d="M48.2004 44.8312H43.8745V67.6065H48.2004V44.8312Z" stroke="#D7A9A7" stroke-width="0.148669" stroke-miterlimit="10"/>
<path d="M48.2004 69.1631H43.8745V91.1529H48.2004V69.1631Z" stroke="#D7A9A7" stroke-width="0.148669" stroke-miterlimit="10"/>
<path d="M48.2004 67.6064H43.8745V69.1643H48.2004V67.6064Z" stroke="#D7A9A7" stroke-width="0.148669" stroke-miterlimit="10"/>
<path d="M45.5288 28.5767C44.9813 27.9978 44.4338 27.4131 43.8745 26.8416V44.8335H48.2004V31.241C47.2888 30.3719 46.3949 29.4897 45.5288 28.5767Z" stroke="#D7A9A7" stroke-width="0.148669" stroke-miterlimit="10"/>
<path d="M55.7423 38.0815C55.6498 37.998 55.5573 37.9159 55.4648 37.8339V91.1545H59.7922V41.4551C58.3786 40.4102 57.0487 39.2525 55.7423 38.0815Z" stroke="#D7A9A7" stroke-width="0.148669" stroke-miterlimit="10"/>
<path d="M50.5063 33.3791C49.7312 32.6713 48.9591 31.9605 48.2002 31.238V91.1534H55.4648V37.8328C53.809 36.3512 52.1489 34.8769 50.5063 33.3791Z" stroke="#D7A9A7" stroke-width="0.148669" stroke-miterlimit="10"/>
<path d="M23.9064 43.2738H6.74072V44.8316H23.9064V43.2738Z" fill="#D7A9A7"/>
<path d="M60.4513 43.2738H43.2856V44.8316H60.4513V43.2738Z" fill="#D7A9A7"/>
<path d="M23.8697 67.604V68.9361L23.629 69.1618H6.70557V67.604H23.8697Z" fill="#D7A9A7"/>
<path d="M60.4513 67.6057V69.1635H43.5601L43.2856 68.9071V67.6057H60.4513Z" fill="#D7A9A7"/>
<path d="M48.0021 31.0499H43.4722V31.428H48.3999C48.2678 31.302 48.1342 31.176 48.0021 31.0499Z" fill="#D7A9A7"/>
<path d="M11.8741 31.0016H6.92139V31.3797H11.8741V31.0016Z" fill="#D7A9A7"/>
<path d="M11.1928 22.558H11.8739V22.1799H10.9961C11.0621 22.306 11.1267 22.432 11.1928 22.558Z" fill="#D7A9A7"/>
<path d="M9.3493 22.1799H6.92139V22.558H9.54306C9.477 22.432 9.41388 22.306 9.3493 22.1799Z" fill="#D7A9A7"/>
<path d="M43.8745 44.8318V48.4047L42.0572 46.6358L41.5244 46.117L33.6652 38.4686L33.5199 38.3265L33.3761 38.4686L25.6138 46.117L25.0883 46.6358L23.2578 48.4384V44.8318H23.9066V43.9115L29.8971 37.9322L32.6157 35.2181H34.499L36.9475 37.6421L43.2859 43.9129V44.8318H43.8745Z" fill="#D7A9A7"/>
<path d="M23.9062 43.9117V44.8321H22.9844L23.9062 43.9117Z" stroke="#D7A9A7" stroke-width="0.148669" stroke-miterlimit="10"/>
<path d="M44.2134 44.8315H43.2856V43.9126L43.8743 44.4959L44.2134 44.8315Z" stroke="#D7A9A7" stroke-width="0.148669" stroke-miterlimit="10"/>
<path d="M23.8698 67.604V68.9361L23.629 69.1618H22.3945V67.604H23.8698Z" stroke="#D7A9A7" stroke-width="0.148669" stroke-miterlimit="10"/>
<path d="M46.0366 91.1543H22.3945V92.2476H46.0366V91.1543Z" stroke="#D7A9A7" stroke-width="0.148669" stroke-miterlimit="10"/>
<path d="M46.0365 67.6057V69.1635H43.5601L43.2856 68.9071V67.6057H46.0365Z" stroke="#D7A9A7" stroke-width="0.148669" stroke-miterlimit="10"/>
<path d="M32.8446 63.7043V66.5093H31.431C30.747 66.2426 30.0688 65.9583 29.3965 65.6652C29.304 65.6256 29.2248 65.6007 29.1514 65.5992L30.9613 63.848C31.1609 63.9696 31.362 64.0883 31.5646 64.2041C31.6864 64.273 31.9184 64.2832 32.0343 64.2129C32.3074 64.0473 32.5775 63.8773 32.8446 63.7043Z" stroke="#D7A9A7" stroke-width="0.148669" stroke-miterlimit="10"/>
<path d="M41.4671 68.8702L41.1882 68.5977L41.0003 68.413L40.5996 68.0203H34.3375V70.1643C34.3067 70.1628 34.2744 70.1614 34.2436 70.1614C34.2113 70.1584 34.1805 70.1584 34.1482 70.157C34.1159 70.1555 34.0821 70.154 34.0484 70.154C34.0161 70.1511 33.9838 70.1511 33.9515 70.1496C33.8208 70.1467 33.6887 70.1452 33.5537 70.1452C33.357 70.1452 33.1632 70.1496 32.9739 70.157C32.9313 70.1584 32.8872 70.1599 32.8447 70.1614V68.0203H26.7911L26.5958 68.1976L26.5914 68.202L26.0865 68.6636L23.2578 71.2488V91.1531H43.8745V71.2297L41.4671 68.8702Z" stroke="#D7A9A7" stroke-width="0.148669" stroke-miterlimit="10"/>
<path d="M38.9716 66.509H34.3374V62.0245L35.3385 62.9932L37.1411 64.7386L38.9716 66.509Z" stroke="#D7A9A7" stroke-width="0.148669" stroke-miterlimit="10"/>
<path d="M27.9639 65.1127L26.9055 66.1004L26.0674 66.883L23.8699 68.9347V67.6025H23.2578V48.4368L25.0883 46.6342L25.6138 46.1154L33.3761 38.467L33.5199 38.3248L33.6652 38.467L41.5244 46.1154L42.0572 46.6342L43.8745 48.4031V67.6055H43.2859V68.9068M41.4275 67.1717L40.604 66.4008L38.8132 64.7272L38.0366 64.0018L34.7353 60.9169L34.0983 60.3219L41.4275 67.1717Z" stroke="#D7A9A7" stroke-width="0.148669" stroke-miterlimit="10"/>
<path d="M23.8699 67.604V68.9361L23.6291 69.1618H21.1777V67.604H23.8699Z" stroke="#D7A9A7" stroke-width="0.148669" stroke-miterlimit="10"/>
<path d="M45.0207 67.6057V69.1635H43.5601L43.2856 68.9071V67.6057H45.0207Z" stroke="#D7A9A7" stroke-width="0.148669" stroke-miterlimit="10"/>
<path d="M45.0209 91.1543H21.1777V93.5973H45.0209V91.1543Z" stroke="#D7A9A7" stroke-width="0.148669" stroke-miterlimit="10"/>
<path d="M29.2068 50.9894C29.1437 50.9938 29.0321 51.0437 29.0292 51.0803C29.0219 51.158 29.016 51.2342 29.0087 51.3119C28.7488 50.7095 28.6035 50.0442 28.6035 49.3466C28.6035 48.7165 28.7209 48.1141 28.9367 47.5602C29.5518 47.5997 30.1815 47.5485 30.7437 47.8972C30.87 47.9764 31.0226 48.013 31.1547 48.0848C31.2443 48.1361 31.3309 48.2065 31.3955 48.2856C31.5232 48.4395 31.6347 48.6065 31.7522 48.7663C32.1617 49.3261 32.1632 49.3276 31.7815 49.9167C31.7463 49.9724 31.6773 50.009 31.6553 50.0676C31.5892 50.242 31.5379 50.4238 31.4674 50.6436C30.5852 50.138 29.7235 49.7291 28.7327 49.7892C28.8061 49.817 28.8912 49.8449 28.9734 49.8801C29.3022 50.0237 29.6266 50.1761 29.9584 50.3109C30.0846 50.3637 30.2255 50.3798 30.3606 50.4091C30.4384 50.4267 30.5558 50.4106 30.5867 50.456C30.6733 50.582 30.7232 50.7315 30.798 50.8927C30.6909 50.903 30.6307 50.9118 30.569 50.9147C30.1155 50.9382 29.6604 50.9587 29.2068 50.9894Z" fill="#D7A9A7"/>
<path d="M36.5495 51.8971C36.9575 51.9646 37.3539 52.0305 37.7487 52.0965C36.8621 53.4447 35.3326 54.3357 33.596 54.3357C31.6995 54.3357 30.0511 53.2732 29.2144 51.7125C29.2745 51.5982 29.3259 51.4809 29.3744 51.3637C29.4301 51.2289 29.5109 51.1834 29.6547 51.1922C30.2067 51.2245 30.7586 51.2494 31.3105 51.2684C31.3942 51.2714 31.4999 51.2479 31.5571 51.1966C31.7891 50.9871 32.0034 50.7585 32.228 50.5416C32.4643 50.3159 32.7065 50.096 32.9502 49.8689C33.2848 50.1122 33.5887 50.3437 33.9058 50.5577C34.0584 50.6603 34.0731 50.7585 33.9982 50.9182C33.8676 51.1996 33.7604 51.4927 33.6445 51.7814C33.7839 51.7228 33.8837 51.6392 33.9894 51.5659C34.4665 51.2391 34.8716 50.7819 35.5439 50.8391C35.905 50.8684 36.272 50.8054 36.6669 50.7819C36.6258 51.1732 36.5876 51.5278 36.5495 51.8971Z" fill="#D7A9A7"/>
<path d="M29.8822 47.3481C29.593 47.3818 29.3038 47.4214 29.0146 47.4609C29.7662 45.676 31.535 44.4215 33.596 44.4215C35.629 44.4215 37.3758 45.6408 38.1435 47.3862C37.5505 47.609 36.9428 47.5665 36.3175 47.3774C36.4041 47.0623 36.4892 46.756 36.5729 46.4498C36.3321 46.6886 36.1354 46.9436 35.9197 47.181C35.8595 47.2484 35.7435 47.2939 35.6525 47.2953C35.4426 47.2997 35.1872 47.1913 35.0345 47.2778C34.876 47.3672 34.8173 47.6324 34.716 47.8215C34.6837 47.8815 34.6631 47.9548 34.6191 48.0032C34.5442 48.0852 34.465 48.1776 34.3666 48.2215C33.9556 48.4106 33.5387 48.5894 33.1174 48.7535C33.0411 48.7828 32.9046 48.7564 32.8415 48.7022C32.633 48.5234 32.429 48.3315 32.2558 48.119C32.153 47.9944 32.0341 47.9299 31.8947 47.8771C31.5394 47.7423 31.1842 47.6046 30.804 47.458C30.92 47.2162 31.0286 47.0066 31.1196 46.7897C31.1725 46.6637 31.2473 46.6241 31.3824 46.6285C31.7728 46.6373 32.1618 46.6315 32.5523 46.6315C32.0958 46.5406 31.6363 46.4688 31.1739 46.4131C31.1079 46.4043 31.0169 46.4629 30.9611 46.5157C30.7541 46.7091 30.5471 46.9055 30.3607 47.118C30.2271 47.2704 30.073 47.3261 29.8822 47.3481Z" fill="#D7A9A7"/>
<path d="M37.9512 47.6676C38.0378 47.6089 38.117 47.5547 38.1934 47.502C38.2565 47.6544 38.3123 47.8112 38.3592 47.9724C38.2271 47.8727 38.0906 47.7716 37.9512 47.6676Z" fill="#D7A9A7"/>
<path d="M38.5619 49.3774C38.5619 50.3431 38.2845 51.2459 37.8059 52.0079C37.5916 51.9112 37.3744 51.8248 37.1542 51.7442C37.0147 51.6929 36.9707 51.6284 37.0514 51.4892C37.1513 51.3162 37.2437 51.1389 37.323 50.9557C37.3964 50.7828 37.5138 50.6743 37.6797 50.5908C37.9527 50.453 38.2184 50.2962 38.4856 50.1482C38.4166 50.1204 38.3637 50.1277 38.3124 50.1409C37.5549 50.3446 36.796 50.5175 36.0004 50.4223C35.4676 50.3578 34.9054 50.4604 34.4107 50.1878C34.1802 50.0603 33.9028 49.9152 33.7971 49.7027C33.6914 49.4902 33.7736 49.1854 33.7736 48.8982C33.8984 48.9143 34.0026 48.9377 34.1068 48.9392C34.1773 48.9407 34.2595 48.9304 34.3153 48.8923C34.7733 48.586 35.1681 48.2255 35.3766 47.6935C35.4001 47.6334 35.5307 47.5763 35.6085 47.5792C35.8522 47.5909 36.0973 47.6232 36.3395 47.6627C36.9032 47.7521 37.4918 47.7126 38.0247 47.9764C38.1509 48.0394 38.2801 48.098 38.4092 48.1551C38.5091 48.5464 38.5619 48.9553 38.5619 49.3774Z" fill="#D7A9A7"/>
<path d="M34.2302 27.5386L34.0981 27.6705V33.8651H33.1043V28.6626C32.4467 29.3192 31.7906 29.9742 31.1329 30.6308L29.897 37.9333L32.6155 35.2192H34.4988L34.581 35.3013L36.9473 37.6432L35.3767 27.54H34.2302V27.5386Z" fill="#D7A9A7"/>
<path d="M70.5149 56.8531H66.8848V57.1668H70.5149V56.8531Z" fill="#D7A9A7"/>
<path d="M70.5149 61.7856H66.8848V62.0993H70.5149V61.7856Z" fill="#D7A9A7"/>
<path d="M34.23 27.5386H36.8649V26.6183H35.1518C34.8436 26.9246 34.5368 27.2309 34.23 27.5386Z" stroke="#D7A9A7" stroke-width="0.148669" stroke-miterlimit="10"/>
<path d="M33.104 28.6612V33.8637H34.0978V27.6691C33.766 28.0003 33.4357 28.3315 33.104 28.6612Z" stroke="#D7A9A7" stroke-width="0.148669" stroke-miterlimit="10"/>
<path d="M33.022 28.7438V33.8643H33.1042V28.6617C33.0763 28.6896 33.0499 28.7174 33.022 28.7438Z" fill="#D7A9A7"/>
<path d="M35.1945 33.8652H31.855V35.3H35.1945V33.8652Z" fill="#D7A9A7"/>
<path d="M38.9716 66.509H34.3374V62.0245L35.3385 62.9932L37.1411 64.7386L38.9716 66.509Z" stroke="#D7A9A7" stroke-width="0.148669" stroke-miterlimit="10"/>
<path d="M32.8446 63.7043V66.5093H31.431C30.747 66.2426 30.0688 65.9583 29.3965 65.6652C29.304 65.6256 29.2248 65.6007 29.1514 65.5992L30.9613 63.848C31.1609 63.9696 31.362 64.0883 31.5646 64.2041C31.6864 64.273 31.9184 64.2832 32.0343 64.2129C32.3074 64.0473 32.5775 63.8773 32.8446 63.7043Z" stroke="#D7A9A7" stroke-width="0.148669" stroke-miterlimit="10"/>
<path d="M38.6999 81.7592H38.2903H37.85H34.8613C34.8613 81.7592 34.8643 81.746 34.8687 81.7226C34.8701 81.7182 34.8716 81.7123 34.8731 81.7064C34.8731 81.705 34.8731 81.702 34.8745 81.7006C34.876 81.6933 34.8775 81.6845 34.8804 81.6742C34.8804 81.6713 34.8804 81.6698 34.8819 81.6669C34.8848 81.6522 34.8892 81.6346 34.8936 81.617C34.8995 81.5965 34.9054 81.5746 34.9127 81.5511C34.9186 81.5277 34.9259 81.5027 34.9347 81.4764C34.9626 81.3855 34.9993 81.277 35.0478 81.1583C35.0566 81.1364 35.0654 81.1144 35.0756 81.0924C35.1446 80.9283 35.2356 80.7465 35.3516 80.5604C35.3648 80.5399 35.378 80.5194 35.3912 80.4989C35.538 80.2717 35.7259 80.0431 35.9608 79.8379C35.9843 79.816 36.0107 79.7954 36.0357 79.7749C36.0738 79.7427 36.112 79.7134 36.1531 79.6841C36.1575 79.6797 36.1634 79.6767 36.1678 79.6738C36.2074 79.6445 36.2485 79.6152 36.2911 79.5888C36.3219 79.5683 36.3542 79.5478 36.3879 79.5287C36.4041 79.5185 36.4217 79.5097 36.4393 79.4994C36.4848 79.473 36.5318 79.4481 36.5802 79.4261C36.6316 79.3998 36.683 79.3763 36.7373 79.3543C36.8445 79.3089 36.9575 79.2693 37.0779 79.2371C37.138 79.2195 37.1997 79.2048 37.2628 79.1917" stroke="#D7A9A7" stroke-width="0.148669" stroke-miterlimit="10"/>
<path d="M34.1216 78.4236C34.8758 78.1117 35.234 77.2484 34.9216 76.4954C34.6092 75.7424 33.7444 75.3848 32.9902 75.6967C32.236 76.0086 31.8778 76.8719 32.1902 77.6249C32.5026 78.3779 33.3673 78.7355 34.1216 78.4236Z" stroke="#D7A9A7" stroke-width="0.148669" stroke-miterlimit="10"/>
<path d="M26.2094 89.6132C26.0671 89.7554 25.9085 89.8199 25.7515 89.8272V91.0597H32.3717V83.4698C30.3298 85.5303 28.2616 87.5644 26.2094 89.6132Z" stroke="#D7A9A7" stroke-width="0.148669" stroke-miterlimit="10"/>
<path d="M40.604 66.4007L38.8132 64.7271L38.0366 64.0016L34.7353 60.9168L34.0983 60.3218C33.834 60.4551 33.5684 60.5988 33.2909 60.7424C33.517 61.1615 33.7181 61.5381 33.9236 61.9148C33.9559 61.9719 33.9999 62.032 34.0528 62.0672C34.2069 62.1683 34.3023 62.2782 34.3375 62.3881V62.0247L35.3386 62.9934L37.1412 64.7388L38.9717 66.5091H34.5518C34.4711 66.5545 34.386 66.6029 34.2979 66.6439C33.6462 66.9531 32.9885 67.2506 32.3427 67.5716C32.1827 67.6522 32.0285 67.787 31.9272 67.935C31.9082 67.9643 31.8876 67.9922 31.8685 68.02H32.8447V70.1611C32.8872 70.1597 32.9313 70.1582 32.9739 70.1567C33.1632 70.1494 33.357 70.145 33.5537 70.145C33.6887 70.145 33.8208 70.1465 33.9515 70.1494C33.9838 70.1509 34.0161 70.1509 34.0484 70.1538C34.0821 70.1538 34.1159 70.1553 34.1482 70.1567C34.1805 70.1582 34.2113 70.1582 34.2436 70.1611C34.2744 70.1626 34.3052 70.1641 34.3375 70.1655V68.02H40.5996L41.0003 68.4128C41.1471 67.9863 41.2866 67.5745 41.4275 67.1715L40.604 66.4007ZM32.303 66.6176C32.3764 66.5853 32.4498 66.5487 32.5203 66.5091H31.4311C31.5456 66.5545 31.6601 66.5985 31.7746 66.6425C31.9272 66.7011 32.1504 66.685 32.303 66.6176ZM31.4311 66.5091C31.5456 66.5545 31.6601 66.5985 31.7746 66.6425C31.9272 66.7011 32.1504 66.685 32.303 66.6176C32.3764 66.5853 32.4498 66.5487 32.5203 66.5091H31.4311ZM34.0645 62.904C33.6608 63.1736 33.2542 63.4433 32.8447 63.7041V66.323C33.0164 66.2219 33.1867 66.1266 33.3717 66.0621C33.7768 65.92 34.1056 65.8599 34.3375 65.9918V62.5977C34.3008 62.7032 34.2113 62.8058 34.0645 62.904ZM31.4311 66.5091C31.5456 66.5545 31.6601 66.5985 31.7746 66.6425C31.9272 66.7011 32.1504 66.685 32.303 66.6176C32.3764 66.5853 32.4498 66.5487 32.5203 66.5091H31.4311ZM29.9705 63.2381L27.9639 65.1125L26.9055 66.1002L26.0674 66.8828L23.8699 68.9345L23.6292 69.1602L23.2578 69.506V71.2485L26.0865 68.6634L26.5914 68.2018L26.5958 68.1974L26.7911 68.02H28.1151C28.2575 67.6932 28.1885 67.5731 27.8259 67.2199C27.6101 67.0088 27.6439 66.8608 27.8509 66.6762C28.1826 66.3831 28.5114 66.0826 28.8168 65.7617C28.9298 65.6415 29.0325 65.5932 29.1514 65.599L30.9614 63.8478C30.6281 63.6485 30.2993 63.4433 29.9705 63.2381Z" stroke="#D7A9A7" stroke-width="0.148669" stroke-miterlimit="10"/>
<path d="M44.5701 91.1531L44.5642 92.2464L44.5598 93.4217L22.3945 93.5961L22.4019 92.2464L22.4077 91.1531H23.2577V71.2488L26.0863 68.6636L26.5913 68.202L26.5957 68.1976L26.7909 68.0203H32.8445V70.1614C29.3641 70.3196 27.1564 71.64 25.7648 73.1187C23.8434 75.1631 23.4808 77.5094 23.4808 77.5094V91.0593H43.6263V77.3218C43.6263 77.3218 43.274 75.0942 41.4127 73.1187C40.0387 71.6591 37.8354 70.3372 34.3374 70.1657V68.0203H40.5994L41.0002 68.413L41.1881 68.5977L41.467 68.8702L43.8743 71.2297V91.1531H44.5701Z" stroke="#D7A9A7" stroke-width="0.148669" stroke-miterlimit="10"/>
<path d="M32.8446 63.7043V66.5093H31.431C30.747 66.2426 30.0688 65.9583 29.3965 65.6652C29.304 65.6256 29.2248 65.6007 29.1514 65.5992L30.9613 63.848C31.1609 63.9696 31.362 64.0883 31.5646 64.2041C31.6864 64.273 31.9184 64.2832 32.0343 64.2129C32.3074 64.0473 32.5775 63.8773 32.8446 63.7043Z" stroke="#D7A9A7" stroke-width="0.148669" stroke-miterlimit="10"/>
<path d="M38.9716 66.509H34.3374V62.0245L35.3385 62.9932L37.1411 64.7386L38.9716 66.509Z" stroke="#D7A9A7" stroke-width="0.148669" stroke-miterlimit="10"/>
<path d="M38.6998 81.7587H38.2903H37.8499H34.8613C34.8613 81.7587 34.8657 81.7382 34.8745 81.7001C34.876 81.6928 34.8774 81.684 34.8804 81.6737C34.8877 81.6415 34.898 81.599 34.9127 81.5506C34.9185 81.5272 34.9259 81.5023 34.9347 81.4759C34.9626 81.385 34.9993 81.2766 35.0477 81.1579C35.0565 81.1359 35.0653 81.1139 35.0756 81.0919C35.0815 81.0773 35.0873 81.0626 35.0947 81.0465C35.1064 81.0201 35.1182 80.9938 35.1314 80.9659C35.1328 80.963 35.1328 80.9615 35.1343 80.9586C35.1504 80.9234 35.1681 80.8897 35.1857 80.8531C35.2106 80.8032 35.2385 80.7505 35.2694 80.6992C35.2811 80.6772 35.2928 80.6567 35.3046 80.6362C35.306 80.6347 35.3075 80.6318 35.309 80.6303C35.3222 80.6069 35.3354 80.5849 35.3516 80.56C35.3648 80.5395 35.378 80.5189 35.3912 80.4984C35.4147 80.4618 35.4396 80.4266 35.466 80.39C35.4705 80.3812 35.4763 80.3738 35.4822 80.3665C35.5027 80.3387 35.5233 80.3108 35.5438 80.283C35.6231 80.1789 35.7127 80.0763 35.811 79.9782C35.8448 79.943 35.88 79.9093 35.9167 79.877C35.9314 79.8639 35.9461 79.8507 35.9607 79.8375C35.9842 79.8155 36.0106 79.795 36.0356 79.7745C36.0738 79.7422 36.1119 79.7129 36.153 79.6836C36.1662 79.6733 36.1795 79.6645 36.1927 79.6557C36.225 79.6323 36.2572 79.6089 36.291 79.5883C36.3306 79.562 36.3717 79.537 36.4143 79.5136C36.4275 79.5048 36.4407 79.4975 36.4539 79.4916C36.495 79.4682 36.5361 79.4462 36.5802 79.4257C36.6316 79.3993 36.6829 79.3758 36.7373 79.3539C36.8444 79.3099 36.9589 79.2703 37.0778 79.2366C37.138 79.219 37.1996 79.2044 37.2628 79.1912L38.6998 81.7587ZM33.5534 75.5817C32.7372 75.5817 32.0752 76.2426 32.0752 77.0574C32.0752 77.8722 32.7372 78.5332 33.5534 78.5332C34.3695 78.5332 35.0316 77.8722 35.0316 77.0574C35.0316 76.2426 34.3695 75.5817 33.5534 75.5817Z" stroke="#D7A9A7" stroke-width="0.148669" stroke-miterlimit="10"/>
<path d="M26.2094 89.6132C26.0671 89.7554 25.9085 89.8199 25.7515 89.8272V91.0597H32.3717V83.4698C30.3298 85.5303 28.2616 87.5644 26.2094 89.6132Z" stroke="#D7A9A7" stroke-width="0.148669" stroke-miterlimit="10"/>
<path d="M33.5534 78.5349C34.3697 78.5349 35.0316 77.8742 35.0316 77.0591C35.0316 76.2441 34.3697 75.5834 33.5534 75.5834C32.737 75.5834 32.0752 76.2441 32.0752 77.0591C32.0752 77.8742 32.737 78.5349 33.5534 78.5349Z" stroke="#D7A9A7" stroke-width="0.148669" stroke-miterlimit="10"/>
<path d="M37.2628 79.1917C37.1997 79.2048 37.138 79.2195 37.0779 79.2371C36.9575 79.2693 36.8445 79.3089 36.7373 79.3543C36.683 79.3763 36.6316 79.3998 36.5802 79.4261C36.5318 79.4481 36.4848 79.473 36.4393 79.4994C36.4217 79.5097 36.4041 79.5185 36.3879 79.5287C36.3542 79.5478 36.3219 79.5683 36.2911 79.5888C36.2485 79.6152 36.2074 79.6445 36.1678 79.6738C36.1634 79.6767 36.1575 79.6797 36.1531 79.6841C36.112 79.7134 36.0738 79.7427 36.0357 79.7749C36.0107 79.7954 35.9843 79.816 35.9608 79.8379C35.7259 80.0431 35.538 80.2717 35.3912 80.4989C35.378 80.5194 35.3648 80.5399 35.3516 80.5604C35.2356 80.7465 35.1446 80.9283 35.0756 81.0924C35.0654 81.1144 35.0566 81.1364 35.0478 81.1583C34.9993 81.277 34.9626 81.3855 34.9347 81.4764C34.9259 81.5027 34.9186 81.5277 34.9127 81.5511C34.9054 81.5746 34.8995 81.5965 34.8936 81.617C34.8892 81.6346 34.8848 81.6522 34.8819 81.6669C34.8804 81.6698 34.8804 81.6713 34.8804 81.6742C34.8775 81.6845 34.876 81.6933 34.8745 81.7006C34.8731 81.702 34.8731 81.705 34.8731 81.7064C34.8716 81.7123 34.8701 81.7182 34.8687 81.7226C34.8643 81.746 34.8613 81.7592 34.8613 81.7592H37.85H38.2903H38.6999" stroke="#D7A9A7" stroke-width="0.148669" stroke-miterlimit="10"/>
<path d="M26.2094 89.6132C26.0671 89.7554 25.9085 89.8199 25.7515 89.8272V91.0597H32.3717V83.4698C30.3298 85.5303 28.2616 87.5644 26.2094 89.6132Z" stroke="#D7A9A7" stroke-width="0.148669" stroke-miterlimit="10"/>
<path d="M33.5534 78.5349C34.3697 78.5349 35.0316 77.8742 35.0316 77.0591C35.0316 76.2441 34.3697 75.5834 33.5534 75.5834C32.737 75.5834 32.0752 76.2441 32.0752 77.0591C32.0752 77.8742 32.737 78.5349 33.5534 78.5349Z" fill="#D7A9A7"/>
<path d="M29.0615 87.308H28.8252V88.051H29.0615V87.308Z" fill="#D7A9A7"/>
<path d="M29.2979 86.5438V86.9527H29.5342V86.5043H29.3375C29.3243 86.5175 29.3111 86.5306 29.2979 86.5438Z" fill="#D7A9A7"/>
<path d="M29.5342 87.308H29.2979V88.051H29.5342V87.308Z" fill="#D7A9A7"/>
<path d="M38.0217 81.2038C37.9703 81.4221 37.9131 81.6053 37.85 81.7592H34.8613C34.8613 81.7592 35.243 79.6225 37.2628 79.1917C37.2687 79.2473 37.2746 79.3177 37.2819 79.4041C37.2819 79.4085 37.2834 79.4144 37.2834 79.4188C37.2936 79.4921 37.2848 79.5302 37.2584 79.5419C37.072 79.6181 36.887 79.7896 36.6962 79.6049C36.6947 79.6049 36.6933 79.6093 36.683 79.621C36.7652 79.6899 36.8298 79.8365 36.9179 79.7969C37.003 79.7573 37.0911 79.7573 37.1777 79.731C37.2158 79.7192 37.2291 79.7573 37.2247 79.8614C37.2232 79.8951 37.2217 79.9317 37.2232 79.9654C37.2408 80.2849 37.1968 80.5047 37.1058 80.6894C37.0441 80.8154 36.9883 80.9297 36.909 80.9283C36.8562 80.9268 36.8019 80.984 36.749 80.9722C36.6478 80.9502 36.5993 81.1525 36.5421 81.3327C36.5788 81.2917 36.6155 81.2492 36.6492 81.1921C36.7094 81.0851 36.774 81.0514 36.8445 81.0558C36.9487 81.0616 37.0529 81.0514 37.1571 81.0455C37.163 81.0455 37.1689 81.0382 37.1733 81.0294C37.2364 80.8916 37.3024 80.7641 37.3612 80.6147C37.4081 80.4974 37.4507 80.4842 37.505 80.556C37.5872 80.6674 37.6724 80.7641 37.7648 80.877C37.7017 81.0455 37.6489 81.1921 37.5858 81.3606C37.6973 81.2727 37.7957 81.2023 37.894 81.1115C37.9454 81.0616 37.9806 81.1246 38.0217 81.2038Z" fill="#D7A9A7"/>
<path d="M38.7001 81.7591H38.2905C38.3757 81.7416 38.4623 81.7284 38.5489 81.7269C38.6003 81.7254 38.6502 81.7416 38.7001 81.7591Z" fill="#D7A9A7"/>
<path d="M42.8247 90.9569L41.2643 89.1939C41.323 88.8583 41.0926 88.7527 40.9487 88.5784C40.959 88.5681 40.9693 88.5564 40.9781 88.5476C41.1161 88.4934 41.2555 88.4391 41.4096 88.3776C41.4449 88.1797 41.4772 87.998 41.5124 87.8031C41.5946 87.765 41.6577 87.7401 41.7223 87.7064C41.8133 87.6595 41.8603 87.6551 41.8618 87.7122C41.8647 87.7841 41.8676 87.8603 41.8985 87.9101C41.9719 88.0273 42.0599 88.1314 42.1451 88.2398C42.1553 88.2515 42.173 88.2618 42.2009 88.256C42.3242 88.2237 42.4519 88.1827 42.5796 88.146C42.5091 88.1314 42.4196 88.1402 42.3491 88.1284C42.2845 88.1182 42.2243 88.1006 42.1935 88.061C42.1054 87.9511 42.0218 87.8339 41.9557 87.7035C41.9087 87.6082 41.8221 87.554 41.6665 87.5642C41.6328 87.5657 41.6166 87.5379 41.621 87.5027C41.6313 87.403 41.6695 87.2872 41.6709 87.1949C41.6739 87.0982 41.7752 86.9868 41.9102 86.8505C41.9308 86.8637 41.9454 86.8754 41.9616 86.8886C42.0599 86.9722 42.1524 87.063 42.2566 87.1407C42.286 87.1627 42.3388 87.1656 42.4034 87.148C42.5664 87.0997 42.697 87.0835 42.7704 87.1407C42.7998 87.1627 42.8394 87.1715 42.8731 87.1861C42.8115 87.1173 42.7704 87.0205 42.6383 87.0293C42.4122 87.044 42.261 86.9971 42.1994 86.8564C42.1876 86.83 42.173 86.8051 42.1465 86.7934C42.0673 86.7553 42.0893 86.6586 42.2331 86.4856C42.2508 86.4651 42.2654 86.4461 42.2801 86.427C42.4313 86.5472 42.5796 86.6879 42.7264 86.8535C44.4966 88.8539 42.8247 90.9569 42.8247 90.9569Z" fill="#D7A9A7"/>
<path d="M32.1663 81.5936C32.0107 81.0148 31.3252 79.1169 29.0617 79.1169C26.3901 79.1169 25.9175 81.7607 25.9175 81.7607H32.0019C32.0562 81.705 32.112 81.6493 32.1663 81.5936Z" fill="#D7A9A7"/>
<path d="M38.8294 81.8072C38.7868 81.794 38.7442 81.775 38.7002 81.7589H38.7941C38.8059 81.7735 38.8176 81.7896 38.8294 81.8072Z" fill="#D7A9A7"/>
</svg>
