<svg width="73" height="113" viewBox="0 0 73 113" fill="none" xmlns="http://www.w3.org/2000/svg">
<g clip-path="url(#clip0)">
<path d="M72.5863 109.322V113H0.170166V109.259H10.5579V108.181H62.1986V109.259H62.3908L72.5863 109.322Z" fill="white"/>
<path d="M3.40462 74.7542V109.258H0.168945V74.6617L1.61264 68.3161L1.84242 67.306L3.40462 74.7542Z" stroke="white" stroke-width="0.14811" stroke-miterlimit="10"/>
<path d="M10.5568 62.5341V78.8975H3.40477V74.7542L1.84257 67.306L1.61279 68.3161V62.2321H2.42785V62.5341H10.5568Z" stroke="white" stroke-width="0.14811" stroke-miterlimit="10"/>
<path d="M10.5568 78.8975H3.40479V109.258H10.5568V78.8975Z" stroke="white" stroke-width="0.14811" stroke-miterlimit="10"/>
<path d="M26.2293 62.5009H21.969V84.9569H26.2293V62.5009Z" stroke="white" stroke-width="0.14811" stroke-miterlimit="10"/>
<path d="M26.2293 86.4931H21.969V108.18H26.2293V86.4931Z" stroke="white" stroke-width="0.14811" stroke-miterlimit="10"/>
<path d="M26.2293 84.9569H21.969V86.4931H26.2293V84.9569Z" stroke="white" stroke-width="0.14811" stroke-miterlimit="10"/>
<path d="M26.2293 40.6185V62.5009H21.969V40.5492L21.9719 40.5361L22.0326 40.1647L22.167 39.3641L22.31 38.5086V38.5072L23.2436 32.9072L24.0644 27.9793L26.1512 40.1647L26.2148 40.5361L26.2293 40.6185Z" stroke="white" stroke-width="0.14811" stroke-miterlimit="10"/>
<path d="M14.8172 40.6185V108.18H10.5569V40.5492L12.6523 27.9793L13.518 33.0373L13.6032 33.5315L14.4559 38.5086L14.6221 39.4783L14.8172 40.6185Z" stroke="white" stroke-width="0.14811" stroke-miterlimit="10"/>
<path d="M22.3102 38.5072V38.5086L22.1671 39.3641L22.0327 40.1647L21.972 40.5361L21.9691 40.5491V108.18H14.8171V40.6185L14.8026 40.5361L14.7391 40.1647L14.622 39.4783L14.4558 38.5086L18.443 29.9461L22.3102 38.5072Z" stroke="white" stroke-width="0.14811" stroke-miterlimit="10"/>
<path d="M18.5947 6.90046H18.2695L18.4299 5.98135L18.5947 6.90046Z" fill="white" stroke="white" stroke-width="0.14811" stroke-miterlimit="10"/>
<path d="M23.2436 32.9072L22.31 38.5072L18.4428 29.9461L14.4557 38.5086L13.603 33.5315L18.1523 7.56377L18.2694 6.90045H18.5945L18.7131 7.56377L23.2436 32.9072Z" fill="white"/>
<path d="M72.5851 74.6617V109.258H69.3494V74.7542L70.913 67.306L71.1428 68.3161L72.5851 74.6617Z" stroke="white" stroke-width="0.14811" stroke-miterlimit="10"/>
<path d="M71.1429 62.2321V68.3161L70.9132 67.306L69.3495 74.7542V78.8975H62.1975V62.5341H70.3279V62.2321H71.1429Z" stroke="white" stroke-width="0.14811" stroke-miterlimit="10"/>
<path d="M69.3495 78.8975H62.1975V109.258H69.3495V78.8975Z" stroke="white" stroke-width="0.14811" stroke-miterlimit="10"/>
<path d="M50.7852 62.5009H46.5264V84.9598H50.7852V62.5009Z" stroke="white" stroke-width="0.14811" stroke-miterlimit="10"/>
<path d="M50.7852 86.496H46.5264V108.18H50.7852V86.496Z" stroke="white" stroke-width="0.14811" stroke-miterlimit="10"/>
<path d="M50.7852 84.9598H46.5264V86.496H50.7852V84.9598Z" stroke="white" stroke-width="0.14811" stroke-miterlimit="10"/>
<path d="M50.7852 40.5492V62.5009H46.5264V40.6185L46.5321 40.5838L46.5957 40.211L48.6912 27.9793L49.4195 32.3451V32.348L49.5568 33.1746V33.176L50.4441 38.5057L50.5872 39.3641L50.7288 40.211L50.7852 40.5492Z" stroke="white" stroke-width="0.14811" stroke-miterlimit="10"/>
<path d="M62.1973 40.5492V108.18H57.937V40.6185L58.1321 39.4783L58.2983 38.5057L59.2362 33.0388V33.0373L60.1018 27.9793L62.1973 40.5492Z" stroke="white" stroke-width="0.14811" stroke-miterlimit="10"/>
<path d="M58.2985 38.5057L58.1323 39.4783L58.0065 40.211L57.9429 40.5838L57.9372 40.6185V108.18H50.7851V40.5491L50.7288 40.211L50.5872 39.3641L50.4441 38.5057L54.3127 29.9461L58.2985 38.5057Z" stroke="white" stroke-width="0.14811" stroke-miterlimit="10"/>
<path d="M54.4904 6.90046H54.1638L54.3242 5.98135L54.4904 6.90046Z" fill="white" stroke="white" stroke-width="0.14811" stroke-miterlimit="10"/>
<path d="M59.2362 33.0373V33.0387L58.2983 38.5057L54.3126 29.9461L50.444 38.5057L49.5566 33.176V33.1746L54.0467 7.56377L54.1638 6.90045H54.4904L54.6117 7.56377L59.2362 33.0373Z" fill="white"/>
<path d="M26.868 60.9647H9.96851V62.5009H26.868V60.9647Z" fill="white"/>
<path d="M62.8463 60.9647H45.9468V62.5009H62.8463V60.9647Z" fill="white"/>
<path d="M26.8319 84.9569V86.2705L26.5949 86.4931H9.93384V84.9569H26.8319Z" fill="white"/>
<path d="M62.8463 84.9598V86.496H46.217L45.9468 86.2431V84.9598H62.8463Z" fill="white"/>
<path d="M51.0063 48.9107H46.1304V49.2836H51.0063V48.9107Z" fill="white"/>
<path d="M51.0063 40.211H46.1304V40.5838H51.0063V40.211Z" fill="white"/>
<path d="M62.6049 48.9107H57.729V49.2836H62.6049V48.9107Z" fill="white"/>
<path d="M62.6049 40.211H57.729V40.5838H62.6049V40.211Z" fill="white"/>
<path d="M15.0209 48.8645H10.145V49.2373H15.0209V48.8645Z" fill="white"/>
<path d="M15.0209 40.1647H10.145V40.5376H15.0209V40.1647Z" fill="white"/>
<path d="M26.6196 48.8645H21.7437V49.2373H26.6196V48.8645Z" fill="white"/>
<path d="M26.6196 40.1647H21.7437V40.5376H26.6196V40.1647Z" fill="white"/>
<path d="M46.5263 62.5009V66.0241L44.7372 64.2798L44.2126 63.7682L36.4753 56.226L36.3322 56.0859L36.1906 56.226L28.5487 63.7682L28.0313 64.2798L26.2292 66.0574V62.5009H26.868V61.5933L32.7656 55.6971L35.442 53.0207H37.2962L39.7067 55.411L45.9468 61.5947V62.5009H46.5263Z" fill="white"/>
<path d="M26.868 61.5933V62.5008H25.9604L26.868 61.5933Z" stroke="white" stroke-width="0.14811" stroke-miterlimit="10"/>
<path d="M46.8601 62.5009H45.9468V61.5948L46.5263 62.1699L46.8601 62.5009Z" stroke="white" stroke-width="0.14811" stroke-miterlimit="10"/>
<path d="M26.832 84.9569V86.2705L26.595 86.4931H25.3796V84.9569H26.832Z" stroke="white" stroke-width="0.14811" stroke-miterlimit="10"/>
<path d="M48.6551 108.18H25.3796V109.258H48.6551V108.18Z" stroke="white" stroke-width="0.14811" stroke-miterlimit="10"/>
<path d="M48.655 84.9598V86.496H46.217L45.9468 86.2431V84.9598H48.655Z" stroke="white" stroke-width="0.14811" stroke-miterlimit="10"/>
<path d="M26.2292 86.4931V86.8313L26.5949 86.4902L26.2292 86.4931ZM31.1052 83.8789H35.6675V79.4611L31.1052 83.8789ZM37.1372 79.4611V83.8832H41.6995L37.1372 79.4611ZM44.7372 64.2871L44.2126 63.7755L36.4768 56.2261L36.3322 56.0815L36.1877 56.2261L28.5458 63.7683L28.0313 64.2871L26.2292 66.0646V84.9526H26.8319V86.2662L36.4074 77.3063L45.9453 86.2344V84.9511H46.5234V66.0212L44.7372 64.2871ZM36.4074 72.799C35.2571 72.7992 34.1326 72.4584 33.1761 71.8195C32.2195 71.1806 31.4739 70.2724 31.0336 69.2098C30.5933 68.1471 30.478 66.9777 30.7024 65.8495C30.9267 64.7214 31.4806 63.6851 32.2939 62.8717C33.1073 62.0583 34.1436 61.5044 35.2718 61.2801C36.4 61.0558 37.5694 61.1711 38.632 61.6114C39.6947 62.0517 40.6029 62.7973 41.2418 63.7538C41.8806 64.7104 42.2215 65.8349 42.2212 66.9851C42.2212 68.5271 41.6087 70.0058 40.5184 71.0961C39.4281 72.1864 37.9493 72.799 36.4074 72.799V72.799ZM37.1372 87.483C36.8872 87.47 36.6299 87.4643 36.3655 87.4643C36.127 87.4643 35.8944 87.4642 35.6675 87.4801C32.241 87.6362 30.0675 88.9383 28.6976 90.3964C27.5631 91.607 26.785 93.1072 26.4489 94.7319V108.094H28.6845V100.08H35.2021V108.088H37.471V100.08H43.9915V108.088H46.2849V94.5411C45.9529 92.9856 45.1989 91.5516 44.1057 90.3964C42.7501 88.9556 40.581 87.6536 37.1372 87.483ZM37.1372 83.8789H41.6995L37.1372 79.4611V83.8789ZM35.6675 79.4611L31.1052 83.8832H35.6675V79.4611ZM46.217 86.5003L46.5263 86.7894V86.5003H46.217ZM43.3022 85.3731H37.1372V87.4874C36.8872 87.4744 36.6299 87.4686 36.3655 87.4686C36.127 87.4686 35.8944 87.4686 35.6675 87.4845V85.3688H29.7077L26.2292 88.5481V108.18H46.5263V88.5264L43.3022 85.3731Z" stroke="white" stroke-width="0.14811" stroke-miterlimit="10"/>
<path d="M42.2211 66.9851C42.2208 68.135 41.8796 69.2589 41.2406 70.2147C40.6016 71.1706 39.6935 71.9156 38.6312 72.3554C37.5688 72.7952 36.3999 72.9101 35.2722 72.6856C34.1445 72.4611 33.1087 71.9073 32.2958 71.0942C31.4829 70.2811 30.9293 69.2451 30.7051 68.1174C30.4809 66.9897 30.5961 65.8208 31.0362 64.7585C31.4763 63.6963 32.2214 62.7884 33.1775 62.1496C34.1335 61.5108 35.2575 61.1699 36.4073 61.1699C37.1709 61.1699 37.927 61.3203 38.6325 61.6126C39.3379 61.9048 39.9789 62.3332 40.5188 62.8732C41.0587 63.4132 41.4869 64.0543 41.779 64.7599C42.0711 65.4654 42.2213 66.2215 42.2211 66.9851Z" stroke="white" stroke-width="0.14811" stroke-miterlimit="10"/>
<path d="M26.8318 84.9569V86.2705L26.5948 86.4931H24.1814V84.9569H26.8318Z" stroke="white" stroke-width="0.14811" stroke-miterlimit="10"/>
<path d="M47.6549 84.9598V86.496H46.217L45.9468 86.2431V84.9598H47.6549Z" stroke="white" stroke-width="0.14811" stroke-miterlimit="10"/>
<path d="M47.6548 108.18H24.1814V110.589H47.6548V108.18Z" stroke="white" stroke-width="0.14811" stroke-miterlimit="10"/>
<path d="M36.4075 71.874C39.1075 71.874 41.2964 69.6852 41.2964 66.9851C41.2964 64.285 39.1075 62.0962 36.4075 62.0962C33.7074 62.0962 31.5186 64.285 31.5186 66.9851C31.5186 69.6852 33.7074 71.874 36.4075 71.874Z" fill="white"/>
<path d="M36.8786 44.5406V41.7703H35.9234L35.9292 44.5175H34.656L36.4075 34.1588L38.0189 44.5406H36.8786Z" fill="white"/>
<path d="M39.7066 55.411L37.3771 53.1017L37.2961 53.0207H35.442L32.7656 55.6971L34.4983 45.4482H35.9233V51.6869H36.9016V45.4482H38.1603L39.7066 55.411Z" fill="white"/>
<path d="M19.1741 6.90045H17.6726V7.56377H19.1741V6.90045Z" fill="white"/>
<path d="M18.9847 5.48566H17.8618V5.98134H18.9847V5.48566Z" fill="white"/>
<path d="M3.57384 74.5909H0V74.9002H3.57384V74.5909Z" fill="white"/>
<path d="M3.57384 79.4553H0V79.7645H3.57384V79.4553Z" fill="white"/>
<path d="M72.754 74.3553H69.1802V74.6646H72.754V74.3553Z" fill="white"/>
<path d="M72.754 79.2211H69.1802V79.5304H72.754V79.2211Z" fill="white"/>
<path d="M39.6254 44.5407V45.4482H36.9013V51.6869H35.923V45.4482H33.0486V44.5176H35.9288L35.923 41.7704H36.8782V44.5407H39.6254Z" stroke="white" stroke-width="0.14811" stroke-miterlimit="10"/>
<path d="M35.923 45.4482H35.842V51.6869H35.923V45.4482Z" fill="white"/>
<path d="M35.9288 44.5176H35.8478L35.842 41.7704H35.923L35.9288 44.5176Z" fill="white"/>
<path d="M20.2146 1.57383V2.06662H18.6943V5.4497H18.1639V2.06662H16.6494V1.56227H18.1668L18.1639 0.0723267H18.6813V1.57383H20.2146Z" stroke="white" stroke-width="0.14811" stroke-miterlimit="10"/>
<path d="M55.084 6.90051H53.5825V7.56383H55.084V6.90051Z" fill="white"/>
<path d="M54.8948 5.48572H53.772V5.9814H54.8948V5.48572Z" fill="white"/>
<path d="M56.116 1.57371V2.0665H54.5957V5.44958H54.0653V2.0665H52.5508V1.56215H54.0682L54.0653 0.0722046H54.5827V1.57371H56.116Z" stroke="white" stroke-width="0.14811" stroke-miterlimit="10"/>
<path d="M37.9808 51.6869H34.6931V53.1017H37.9808V51.6869Z" fill="white"/>
<path d="M36.3665 92.8259C36.0787 92.8259 35.7973 92.9113 35.558 93.0712C35.3187 93.2311 35.1321 93.4584 35.022 93.7243C34.9119 93.9902 34.883 94.2828 34.9392 94.5651C34.9953 94.8474 35.1339 95.1067 35.3375 95.3102C35.541 95.5137 35.8003 95.6523 36.0826 95.7085C36.3649 95.7646 36.6575 95.7358 36.9234 95.6257C37.1893 95.5155 37.4166 95.329 37.5765 95.0897C37.7364 94.8504 37.8217 94.569 37.8217 94.2812C37.8217 93.8952 37.6684 93.5251 37.3955 93.2522C37.1226 92.9792 36.7524 92.8259 36.3665 92.8259V92.8259ZM40.7496 96.3102C38.1194 96.3102 37.6541 98.9114 37.6541 98.9114H43.848C43.848 98.9114 43.3798 96.3102 40.7496 96.3102V96.3102ZM28.6855 100.081V108.088H35.2031V100.081H28.6855ZM36.3665 92.8259C36.0787 92.8259 35.7973 92.9113 35.558 93.0712C35.3187 93.2311 35.1321 93.4584 35.022 93.7243C34.9119 93.9902 34.883 94.2828 34.9392 94.5651C34.9953 94.8474 35.1339 95.1067 35.3375 95.3102C35.541 95.5137 35.8003 95.6523 36.0826 95.7085C36.3649 95.7646 36.6575 95.7358 36.9234 95.6257C37.1893 95.5155 37.4166 95.329 37.5765 95.0897C37.7364 94.8504 37.8217 94.569 37.8217 94.2812C37.8217 93.8952 37.6684 93.5251 37.3955 93.2522C37.1226 92.9792 36.7524 92.8259 36.3665 92.8259V92.8259ZM40.7496 96.3102C38.1194 96.3102 37.6541 98.9114 37.6541 98.9114H43.848C43.848 98.9114 43.3798 96.3102 40.7496 96.3102V96.3102ZM37.472 100.081V108.088H43.9925V100.081H37.472ZM28.6855 100.081V108.088H35.2031V100.081H28.6855ZM31.1062 83.879H35.6685V79.4612L31.1062 83.879ZM36.3665 92.8259C36.0787 92.8259 35.7973 92.9113 35.558 93.0712C35.3187 93.2311 35.1321 93.4584 35.022 93.7243C34.9119 93.9902 34.883 94.2828 34.9392 94.5651C34.9953 94.8474 35.1339 95.1067 35.3375 95.3102C35.541 95.5137 35.8003 95.6523 36.0826 95.7085C36.3649 95.7646 36.6575 95.7358 36.9234 95.6257C37.1893 95.5155 37.4166 95.329 37.5765 95.0897C37.7364 94.8504 37.8217 94.569 37.8217 94.2812C37.8217 93.8952 37.6684 93.5251 37.3955 93.2522C37.1226 92.9792 36.7524 92.8259 36.3665 92.8259V92.8259ZM37.1382 79.4612V83.8834H41.7005L37.1382 79.4612ZM40.7511 96.3145C38.1209 96.3145 37.6556 98.9157 37.6556 98.9157H43.848C43.848 98.9157 43.3798 96.3102 40.7496 96.3102L40.7511 96.3145ZM37.4735 100.085V108.092H43.9925V100.081L37.4735 100.085ZM37.4735 100.085V108.092H43.9925V100.081L37.4735 100.085ZM40.7511 96.3145C38.1209 96.3145 37.6556 98.9157 37.6556 98.9157H43.848C43.848 98.9157 43.3798 96.3102 40.7496 96.3102L40.7511 96.3145ZM36.3679 92.8303C36.0801 92.8303 35.7987 92.9156 35.5594 93.0755C35.3201 93.2354 35.1336 93.4627 35.0234 93.7286C34.9133 93.9945 34.8845 94.2871 34.9406 94.5694C34.9968 94.8517 35.1354 95.111 35.3389 95.3145C35.5424 95.5181 35.8017 95.6567 36.084 95.7128C36.3663 95.769 36.6589 95.7401 36.9248 95.63C37.1907 95.5199 37.418 95.3333 37.5779 95.094C37.7378 94.8547 37.8232 94.5733 37.8232 94.2855C37.8238 94.0939 37.7865 93.9041 37.7135 93.7269C37.6406 93.5498 37.5333 93.3888 37.398 93.2532C37.2626 93.1176 37.1018 93.01 36.9248 92.9367C36.7478 92.8634 36.5581 92.8257 36.3665 92.8259L36.3679 92.8303ZM28.687 100.085V108.092H35.2046V100.081L28.687 100.085ZM40.7511 96.3145C38.1209 96.3145 37.6556 98.9157 37.6556 98.9157H43.848C43.848 98.9157 43.3798 96.3102 40.7496 96.3102L40.7511 96.3145ZM36.3679 92.8303C36.0801 92.8303 35.7987 92.9156 35.5594 93.0755C35.3201 93.2354 35.1336 93.4627 35.0234 93.7286C34.9133 93.9945 34.8845 94.2871 34.9406 94.5694C34.9968 94.8517 35.1354 95.111 35.3389 95.3145C35.5424 95.5181 35.8017 95.6567 36.084 95.7128C36.3663 95.769 36.6589 95.7401 36.9248 95.63C37.1907 95.5199 37.418 95.3333 37.5779 95.094C37.7378 94.8547 37.8232 94.5733 37.8232 94.2855C37.8238 94.0939 37.7865 93.9041 37.7135 93.7269C37.6406 93.5498 37.5333 93.3888 37.398 93.2532C37.2626 93.1176 37.1018 93.01 36.9248 92.9367C36.7478 92.8634 36.5581 92.8257 36.3665 92.8259L36.3679 92.8303ZM37.4735 100.085V108.092H43.9925V100.081L37.4735 100.085ZM40.7511 96.3145C38.1209 96.3145 37.6556 98.9157 37.6556 98.9157H43.848C43.848 98.9157 43.3798 96.3102 40.7496 96.3102L40.7511 96.3145ZM36.3679 92.8303C36.0801 92.8303 35.7987 92.9156 35.5594 93.0755C35.3201 93.2354 35.1336 93.4627 35.0234 93.7286C34.9133 93.9945 34.8845 94.2871 34.9406 94.5694C34.9968 94.8517 35.1354 95.111 35.3389 95.3145C35.5424 95.5181 35.8017 95.6567 36.084 95.7128C36.3663 95.769 36.6589 95.7401 36.9248 95.63C37.1907 95.5199 37.418 95.3333 37.5779 95.094C37.7378 94.8547 37.8232 94.5733 37.8232 94.2855C37.8238 94.0939 37.7865 93.9041 37.7135 93.7269C37.6406 93.5498 37.5333 93.3888 37.398 93.2532C37.2626 93.1176 37.1018 93.01 36.9248 92.9367C36.7478 92.8634 36.5581 92.8257 36.3665 92.8259L36.3679 92.8303ZM28.687 100.085V108.092H35.2046V100.081L28.687 100.085Z" stroke="white" stroke-width="0.14811" stroke-miterlimit="10"/>
<path d="M46.218 86.4962L45.9478 86.2433L36.4098 77.3152L26.8343 86.2751L26.5973 86.4976L26.2302 86.8314V88.5497L29.7087 85.3704H35.6685V87.4818C35.8953 87.4716 36.128 87.4659 36.3665 87.4659C36.6309 87.4659 36.8882 87.4659 37.1382 87.4847V85.369H43.3031L46.5273 88.5338V86.7852L46.218 86.4962ZM35.6685 83.879H31.1061L35.6685 79.4612V83.879ZM37.1382 83.879V79.4612L41.7005 83.8834L37.1382 83.879Z" stroke="white" stroke-width="0.14811" stroke-miterlimit="10"/>
<path d="M47.2123 108.181V109.259V110.415L25.3906 110.588L25.3978 109.257V108.179H26.2346V88.5526L29.713 85.3733H35.6685V87.4846C32.242 87.6407 30.0686 88.9428 28.6986 90.4009C27.5641 91.6115 26.786 93.1118 26.4499 94.7364V108.098H46.283V94.5413C45.951 92.9858 45.1971 91.5518 44.1038 90.3966C42.7511 88.9515 40.582 87.6508 37.1382 87.4832V85.369H43.3032L46.5273 88.5338V108.188L47.2123 108.181Z" stroke="white" stroke-width="0.14811" stroke-miterlimit="10"/>
<path d="M35.6685 79.4569V83.879H31.1062L35.6685 79.4569Z" stroke="white" stroke-width="0.14811" stroke-miterlimit="10"/>
<path d="M41.7005 83.879H37.1382V79.4569L41.7005 83.879Z" stroke="white" stroke-width="0.14811" stroke-miterlimit="10"/>
<path d="M44.1038 90.3966C42.7512 88.9515 40.582 87.6508 37.1382 87.4832C36.8882 87.4702 36.631 87.4644 36.3665 87.4644C36.1281 87.4644 35.8954 87.4644 35.6685 87.4803C32.2421 87.6364 30.0686 88.9385 28.6986 90.3966C27.5642 91.6071 26.786 93.1074 26.45 94.732V108.094H28.6856V100.081H35.2032V108.088H37.4721V100.081H43.9925V108.088H46.286V94.5413C45.9532 92.9855 45.1982 91.5515 44.1038 90.3966V90.3966ZM36.3665 95.7436C36.0787 95.7436 35.7973 95.6583 35.558 95.4984C35.3187 95.3385 35.1322 95.1112 35.022 94.8453C34.9119 94.5794 34.8831 94.2868 34.9392 94.0045C34.9954 93.7222 35.134 93.4629 35.3375 93.2594C35.541 93.0558 35.8003 92.9172 36.0826 92.8611C36.3649 92.8049 36.6575 92.8338 36.9234 92.9439C37.1893 93.054 37.4166 93.2406 37.5765 93.4799C37.7364 93.7192 37.8218 94.0006 37.8218 94.2884C37.8199 94.6731 37.6657 95.0414 37.393 95.3127C37.1203 95.5841 36.7512 95.7364 36.3665 95.7364V95.7436ZM37.6541 98.923C37.6541 98.923 38.1195 96.3217 40.7496 96.3217C43.3798 96.3217 43.8451 98.923 43.8451 98.923H37.6541Z" stroke="white" stroke-width="0.14811" stroke-miterlimit="10"/>
<path d="M35.2031 100.081H28.6855V108.088H35.2031V100.081Z" stroke="white" stroke-width="0.14811" stroke-miterlimit="10"/>
<path d="M36.3666 95.7364C37.1704 95.7364 37.8219 95.0848 37.8219 94.2811C37.8219 93.4774 37.1704 92.8259 36.3666 92.8259C35.5629 92.8259 34.9114 93.4774 34.9114 94.2811C34.9114 95.0848 35.5629 95.7364 36.3666 95.7364Z" stroke="white" stroke-width="0.14811" stroke-miterlimit="10"/>
<path d="M37.6541 98.9172C37.6541 98.9172 38.1194 96.3159 40.7495 96.3159C43.3797 96.3159 43.845 98.9172 43.845 98.9172H37.6541Z" stroke="white" stroke-width="0.14811" stroke-miterlimit="10"/>
<path d="M43.9895 100.081H37.4719V108.088H43.9895V100.081Z" stroke="white" stroke-width="0.14811" stroke-miterlimit="10"/>
<path d="M35.2031 100.081H28.6855V108.088H35.2031V100.081Z" stroke="white" stroke-width="0.14811" stroke-miterlimit="10"/>
<path d="M36.3666 95.7364C37.1704 95.7364 37.8219 95.0848 37.8219 94.2811C37.8219 93.4774 37.1704 92.8259 36.3666 92.8259C35.5629 92.8259 34.9114 93.4774 34.9114 94.2811C34.9114 95.0848 35.5629 95.7364 36.3666 95.7364Z" fill="white"/>
<path d="M31.9443 103.595H31.7117V104.037H31.9443V103.595Z" fill="white"/>
<path d="M31.9443 104.387H31.7117V105.12H31.9443V104.387Z" fill="white"/>
<path d="M32.4097 103.595H32.177V104.037H32.4097V103.595Z" fill="white"/>
<path d="M32.4097 104.387H32.177V105.12H32.4097V104.387Z" fill="white"/>
<path d="M43.9895 100.081H37.4719V108.088H43.9895V100.081Z" stroke="white" stroke-width="0.14811" stroke-miterlimit="10"/>
<path d="M43.8479 98.9172H37.6541C37.6541 98.9172 38.1194 96.3159 40.7496 96.3159C43.3797 96.3159 43.8479 98.9172 43.8479 98.9172Z" fill="white"/>
<path d="M35.0399 98.9172H28.8489C28.8489 98.9172 29.3142 96.3159 31.9444 96.3159C34.5745 96.3159 35.0399 98.9172 35.0399 98.9172Z" fill="white"/>
<path d="M40.7307 103.595H40.498V104.037H40.7307V103.595Z" fill="white"/>
<path d="M40.7307 104.387H40.498V105.12H40.7307V104.387Z" fill="white"/>
<path d="M41.196 103.595H40.9634V104.037H41.196V103.595Z" fill="white"/>
<path d="M41.196 104.387H40.9634V105.12H41.196V104.387Z" fill="white"/>
</g>
<defs>
<clipPath id="clip0">
<rect width="72.7543" height="113" fill="white"/>
</clipPath>
</defs>
</svg>
