<svg width="73" height="113" viewBox="0 0 73 113" fill="none" xmlns="http://www.w3.org/2000/svg">
<g clip-path="url(#clip0)">
<path d="M72.586 109.322V113H0.169922V109.259H10.5576V108.181H62.1983V109.259H62.3905L72.586 109.322Z" fill="#BD6F6D"/>
<path d="M3.40462 74.7542V109.258H0.168945V74.6617L1.61264 68.3161L1.84242 67.306L3.40462 74.7542Z" stroke="#BD6F6D" stroke-width="0.14811" stroke-miterlimit="10"/>
<path d="M10.5568 62.5341V78.8975H3.40477V74.7542L1.84257 67.306L1.61279 68.3161V62.2321H2.42785V62.5341H10.5568Z" stroke="#BD6F6D" stroke-width="0.14811" stroke-miterlimit="10"/>
<path d="M10.5568 78.8975H3.40479V109.258H10.5568V78.8975Z" stroke="#BD6F6D" stroke-width="0.14811" stroke-miterlimit="10"/>
<path d="M26.2295 62.5009H21.9692V84.9569H26.2295V62.5009Z" stroke="#BD6F6D" stroke-width="0.14811" stroke-miterlimit="10"/>
<path d="M26.2295 86.4931H21.9692V108.18H26.2295V86.4931Z" stroke="#BD6F6D" stroke-width="0.14811" stroke-miterlimit="10"/>
<path d="M26.2295 84.9569H21.9692V86.4931H26.2295V84.9569Z" stroke="#BD6F6D" stroke-width="0.14811" stroke-miterlimit="10"/>
<path d="M26.2295 40.6185V62.5009H21.9692V40.5492L21.9721 40.5361L22.0328 40.1647L22.1672 39.3641L22.3103 38.5086V38.5072L23.2439 32.9072L24.0647 27.9793L26.1515 40.1647L26.2151 40.5361L26.2295 40.6185Z" stroke="#BD6F6D" stroke-width="0.14811" stroke-miterlimit="10"/>
<path d="M14.8169 40.6185V108.18H10.5566V40.5492L12.6521 27.9793L13.5177 33.0373L13.603 33.5315L14.4556 38.5086L14.6218 39.4783L14.8169 40.6185Z" stroke="#BD6F6D" stroke-width="0.14811" stroke-miterlimit="10"/>
<path d="M22.3099 38.5072V38.5086L22.1668 39.3641L22.0324 40.1647L21.9717 40.5361L21.9689 40.5491V108.18H14.8169V40.6185L14.8024 40.5361L14.7388 40.1647L14.6218 39.4783L14.4556 38.5086L18.4427 29.9461L22.3099 38.5072Z" stroke="#BD6F6D" stroke-width="0.14811" stroke-miterlimit="10"/>
<path d="M18.5947 6.90046H18.2695L18.4299 5.98135L18.5947 6.90046Z" fill="#BD6F6D" stroke="#BD6F6D" stroke-width="0.14811" stroke-miterlimit="10"/>
<path d="M23.2436 32.9072L22.31 38.5072L18.4428 29.9461L14.4557 38.5086L13.603 33.5315L18.1523 7.56377L18.2694 6.90045H18.5945L18.7131 7.56377L23.2436 32.9072Z" fill="#BD6F6D"/>
<path d="M72.5853 74.6617V109.258H69.3496V74.7542L70.9133 67.306L71.143 68.3161L72.5853 74.6617Z" stroke="#BD6F6D" stroke-width="0.14811" stroke-miterlimit="10"/>
<path d="M71.1427 62.2321V68.3161L70.9129 67.306L69.3493 74.7542V78.8975H62.1973V62.5341H70.3276V62.2321H71.1427Z" stroke="#BD6F6D" stroke-width="0.14811" stroke-miterlimit="10"/>
<path d="M69.3493 78.8975H62.1973V109.258H69.3493V78.8975Z" stroke="#BD6F6D" stroke-width="0.14811" stroke-miterlimit="10"/>
<path d="M50.7852 62.5009H46.5264V84.9598H50.7852V62.5009Z" stroke="#BD6F6D" stroke-width="0.14811" stroke-miterlimit="10"/>
<path d="M50.7852 86.496H46.5264V108.18H50.7852V86.496Z" stroke="#BD6F6D" stroke-width="0.14811" stroke-miterlimit="10"/>
<path d="M50.7852 84.9598H46.5264V86.496H50.7852V84.9598Z" stroke="#BD6F6D" stroke-width="0.14811" stroke-miterlimit="10"/>
<path d="M50.7852 40.5492V62.5009H46.5264V40.6185L46.5321 40.5838L46.5957 40.211L48.6912 27.9793L49.4195 32.3451V32.348L49.5568 33.1746V33.176L50.4441 38.5057L50.5872 39.3641L50.7288 40.211L50.7852 40.5492Z" stroke="#BD6F6D" stroke-width="0.14811" stroke-miterlimit="10"/>
<path d="M62.1973 40.5492V108.18H57.937V40.6185L58.1321 39.4783L58.2983 38.5057L59.2362 33.0388V33.0373L60.1018 27.9793L62.1973 40.5492Z" stroke="#BD6F6D" stroke-width="0.14811" stroke-miterlimit="10"/>
<path d="M58.2982 38.5057L58.132 39.4783L58.0063 40.211L57.9427 40.5838L57.9369 40.6185V108.18H50.7849V40.5491L50.7285 40.211L50.5869 39.3641L50.4438 38.5057L54.3125 29.9461L58.2982 38.5057Z" stroke="#BD6F6D" stroke-width="0.14811" stroke-miterlimit="10"/>
<path d="M54.4907 6.90046H54.1641L54.3245 5.98135L54.4907 6.90046Z" fill="#BD6F6D" stroke="#BD6F6D" stroke-width="0.14811" stroke-miterlimit="10"/>
<path d="M59.2362 33.0373V33.0387L58.2983 38.5057L54.3126 29.9461L50.444 38.5057L49.5566 33.176V33.1746L54.0467 7.56377L54.1638 6.90045H54.4904L54.6117 7.56377L59.2362 33.0373Z" fill="#BD6F6D"/>
<path d="M26.8682 60.9647H9.96875V62.5009H26.8682V60.9647Z" fill="#BD6F6D"/>
<path d="M62.8463 60.9647H45.9468V62.5009H62.8463V60.9647Z" fill="#BD6F6D"/>
<path d="M26.8316 84.9569V86.2705L26.5946 86.4931H9.93359V84.9569H26.8316Z" fill="#BD6F6D"/>
<path d="M62.8463 84.9598V86.496H46.217L45.9468 86.2431V84.9598H62.8463Z" fill="#BD6F6D"/>
<path d="M51.0063 48.9107H46.1304V49.2836H51.0063V48.9107Z" fill="#BD6F6D"/>
<path d="M51.0063 40.211H46.1304V40.5838H51.0063V40.211Z" fill="#BD6F6D"/>
<path d="M62.6049 48.9107H57.729V49.2836H62.6049V48.9107Z" fill="#BD6F6D"/>
<path d="M62.6049 40.211H57.729V40.5838H62.6049V40.211Z" fill="#BD6F6D"/>
<path d="M15.0209 48.8645H10.145V49.2373H15.0209V48.8645Z" fill="#BD6F6D"/>
<path d="M15.0209 40.1647H10.145V40.5376H15.0209V40.1647Z" fill="#BD6F6D"/>
<path d="M26.6196 48.8645H21.7437V49.2373H26.6196V48.8645Z" fill="#BD6F6D"/>
<path d="M26.6196 40.1647H21.7437V40.5376H26.6196V40.1647Z" fill="#BD6F6D"/>
<path d="M46.526 62.5009V66.0241L44.737 64.2798L44.2124 63.7682L36.4751 56.226L36.332 56.0859L36.1904 56.226L28.5485 63.7682L28.0311 64.2798L26.229 66.0574V62.5009H26.8678V61.5933L32.7654 55.6971L35.4418 53.0207H37.2959L39.7064 55.411L45.9465 61.5947V62.5009H46.526Z" fill="#BD6F6D"/>
<path d="M26.868 61.5933V62.5008H25.9604L26.868 61.5933Z" stroke="#BD6F6D" stroke-width="0.14811" stroke-miterlimit="10"/>
<path d="M46.8601 62.5009H45.9468V61.5948L46.5263 62.1699L46.8601 62.5009Z" stroke="#BD6F6D" stroke-width="0.14811" stroke-miterlimit="10"/>
<path d="M26.8318 84.9569V86.2705L26.5948 86.4931H25.3794V84.9569H26.8318Z" stroke="#BD6F6D" stroke-width="0.14811" stroke-miterlimit="10"/>
<path d="M48.6549 108.18H25.3794V109.258H48.6549V108.18Z" stroke="#BD6F6D" stroke-width="0.14811" stroke-miterlimit="10"/>
<path d="M48.655 84.9598V86.496H46.217L45.9468 86.2431V84.9598H48.655Z" stroke="#BD6F6D" stroke-width="0.14811" stroke-miterlimit="10"/>
<path d="M26.229 86.4931V86.8313L26.5946 86.4902L26.229 86.4931ZM31.1049 83.8789H35.6672V79.4611L31.1049 83.8789ZM37.1369 79.4611V83.8832H41.6993L37.1369 79.4611ZM44.7369 64.2871L44.2124 63.7755L36.4765 56.2261L36.332 56.0815L36.1875 56.2261L28.5456 63.7683L28.0311 64.2871L26.229 66.0646V84.9526H26.8316V86.2662L36.4071 77.3063L45.9451 86.2344V84.9511H46.5231V66.0212L44.7369 64.2871ZM36.4071 72.799C35.2569 72.7992 34.1324 72.4584 33.1758 71.8195C32.2193 71.1806 31.4737 70.2724 31.0334 69.2098C30.5931 68.1471 30.4778 66.9777 30.7021 65.8495C30.9265 64.7214 31.4803 63.6851 32.2937 62.8717C33.1071 62.0583 34.1434 61.5044 35.2716 61.2801C36.3997 61.0558 37.5691 61.1711 38.6318 61.6114C39.6944 62.0517 40.6026 62.7973 41.2415 63.7538C41.8804 64.7104 42.2212 65.8349 42.221 66.9851C42.221 68.5271 41.6084 70.0058 40.5181 71.0961C39.4278 72.1864 37.9491 72.799 36.4071 72.799V72.799ZM37.1369 87.483C36.8869 87.47 36.6297 87.4643 36.3652 87.4643C36.1268 87.4643 35.8941 87.4642 35.6672 87.4801C32.2408 87.6362 30.0673 88.9383 28.6973 90.3964C27.5629 91.607 26.7847 93.1072 26.4487 94.7319V108.094H28.6843V100.08H35.2019V108.088H37.4708V100.08H43.9913V108.088H46.2847V94.5411C45.9527 92.9856 45.1987 91.5516 44.1054 90.3964C42.7499 88.9556 40.5807 87.6536 37.1369 87.483ZM37.1369 83.8789H41.6993L37.1369 79.4611V83.8789ZM35.6672 79.4611L31.1049 83.8832H35.6672V79.4611ZM46.2168 86.5003L46.526 86.7894V86.5003H46.2168ZM43.3019 85.3731H37.1369V87.4874C36.8869 87.4744 36.6297 87.4686 36.3652 87.4686C36.1268 87.4686 35.8941 87.4686 35.6672 87.4845V85.3688H29.7075L26.229 88.5481V108.18H46.526V88.5264L43.3019 85.3731Z" stroke="#BD6F6D" stroke-width="0.14811" stroke-miterlimit="10"/>
<path d="M42.2214 66.9851C42.2211 68.135 41.8799 69.2589 41.2409 70.2147C40.6018 71.1706 39.6938 71.9156 38.6314 72.3554C37.569 72.7952 36.4001 72.9101 35.2725 72.6856C34.1448 72.4611 33.109 71.9073 32.2961 71.0942C31.4831 70.2811 30.9296 69.2451 30.7054 68.1174C30.4811 66.9897 30.5964 65.8208 31.0364 64.7585C31.4765 63.6963 32.2217 62.7884 33.1777 62.1496C34.1338 61.5108 35.2578 61.1699 36.4076 61.1699C37.1712 61.1699 37.9273 61.3203 38.6327 61.6126C39.3382 61.9048 39.9792 62.3332 40.519 62.8732C41.0589 63.4132 41.4871 64.0543 41.7792 64.7599C42.0713 65.4654 42.2215 66.2215 42.2214 66.9851Z" stroke="#BD6F6D" stroke-width="0.14811" stroke-miterlimit="10"/>
<path d="M26.832 84.9569V86.2705L26.595 86.4931H24.1816V84.9569H26.832Z" stroke="#BD6F6D" stroke-width="0.14811" stroke-miterlimit="10"/>
<path d="M47.6549 84.9598V86.496H46.217L45.9468 86.2431V84.9598H47.6549Z" stroke="#BD6F6D" stroke-width="0.14811" stroke-miterlimit="10"/>
<path d="M47.6551 108.18H24.1816V110.589H47.6551V108.18Z" stroke="#BD6F6D" stroke-width="0.14811" stroke-miterlimit="10"/>
<path d="M36.4075 71.874C39.1075 71.874 41.2964 69.6852 41.2964 66.9851C41.2964 64.285 39.1075 62.0962 36.4075 62.0962C33.7074 62.0962 31.5186 64.285 31.5186 66.9851C31.5186 69.6852 33.7074 71.874 36.4075 71.874Z" fill="#BD6F6D"/>
<path d="M36.8784 44.5406V41.7703H35.9232L35.9289 44.5175H34.6558L36.4073 34.1588L38.0186 44.5406H36.8784Z" fill="#BD6F6D"/>
<path d="M39.7066 55.411L37.3771 53.1017L37.2961 53.0207H35.442L32.7656 55.6971L34.4983 45.4482H35.9233V51.6869H36.9016V45.4482H38.1603L39.7066 55.411Z" fill="#BD6F6D"/>
<path d="M19.1739 6.90045H17.6724V7.56377H19.1739V6.90045Z" fill="#BD6F6D"/>
<path d="M18.9847 5.48566H17.8618V5.98134H18.9847V5.48566Z" fill="#BD6F6D"/>
<path d="M3.57384 74.5909H0V74.9002H3.57384V74.5909Z" fill="#BD6F6D"/>
<path d="M3.57384 79.4553H0V79.7645H3.57384V79.4553Z" fill="#BD6F6D"/>
<path d="M72.754 74.3553H69.1802V74.6646H72.754V74.3553Z" fill="#BD6F6D"/>
<path d="M72.754 79.2211H69.1802V79.5304H72.754V79.2211Z" fill="#BD6F6D"/>
<path d="M39.6252 44.5407V45.4482H36.9011V51.6869H35.9227V45.4482H33.0483V44.5176H35.9285L35.9227 41.7704H36.878V44.5407H39.6252Z" stroke="#BD6F6D" stroke-width="0.14811" stroke-miterlimit="10"/>
<path d="M35.9227 45.4482H35.8418V51.6869H35.9227V45.4482Z" fill="#BD6F6D"/>
<path d="M35.9285 44.5176H35.8476L35.8418 41.7704H35.9227L35.9285 44.5176Z" fill="#BD6F6D"/>
<path d="M20.2146 1.57383V2.06662H18.6943V5.4497H18.1639V2.06662H16.6494V1.56227H18.1668L18.1639 0.0723267H18.6813V1.57383H20.2146Z" stroke="#BD6F6D" stroke-width="0.14811" stroke-miterlimit="10"/>
<path d="M55.084 6.90051H53.5825V7.56383H55.084V6.90051Z" fill="#BD6F6D"/>
<path d="M54.8948 5.48572H53.772V5.9814H54.8948V5.48572Z" fill="#BD6F6D"/>
<path d="M56.116 1.57371V2.0665H54.5957V5.44958H54.0653V2.0665H52.5508V1.56215H54.0682L54.0653 0.0722046H54.5827V1.57371H56.116Z" stroke="#BD6F6D" stroke-width="0.14811" stroke-miterlimit="10"/>
<path d="M37.9811 51.6869H34.6934V53.1017H37.9811V51.6869Z" fill="#BD6F6D"/>
<path d="M36.3665 92.8259C36.0787 92.8259 35.7973 92.9113 35.558 93.0712C35.3187 93.2311 35.1321 93.4584 35.022 93.7243C34.9119 93.9902 34.883 94.2828 34.9392 94.5651C34.9953 94.8474 35.1339 95.1067 35.3375 95.3102C35.541 95.5137 35.8003 95.6523 36.0826 95.7085C36.3649 95.7646 36.6575 95.7358 36.9234 95.6257C37.1893 95.5155 37.4166 95.329 37.5765 95.0897C37.7364 94.8504 37.8217 94.569 37.8217 94.2812C37.8217 93.8952 37.6684 93.5251 37.3955 93.2522C37.1226 92.9792 36.7524 92.8259 36.3665 92.8259V92.8259ZM40.7496 96.3102C38.1194 96.3102 37.6541 98.9114 37.6541 98.9114H43.848C43.848 98.9114 43.3798 96.3102 40.7496 96.3102V96.3102ZM28.6855 100.081V108.088H35.2031V100.081H28.6855ZM36.3665 92.8259C36.0787 92.8259 35.7973 92.9113 35.558 93.0712C35.3187 93.2311 35.1321 93.4584 35.022 93.7243C34.9119 93.9902 34.883 94.2828 34.9392 94.5651C34.9953 94.8474 35.1339 95.1067 35.3375 95.3102C35.541 95.5137 35.8003 95.6523 36.0826 95.7085C36.3649 95.7646 36.6575 95.7358 36.9234 95.6257C37.1893 95.5155 37.4166 95.329 37.5765 95.0897C37.7364 94.8504 37.8217 94.569 37.8217 94.2812C37.8217 93.8952 37.6684 93.5251 37.3955 93.2522C37.1226 92.9792 36.7524 92.8259 36.3665 92.8259V92.8259ZM40.7496 96.3102C38.1194 96.3102 37.6541 98.9114 37.6541 98.9114H43.848C43.848 98.9114 43.3798 96.3102 40.7496 96.3102V96.3102ZM37.472 100.081V108.088H43.9925V100.081H37.472ZM28.6855 100.081V108.088H35.2031V100.081H28.6855ZM31.1062 83.879H35.6685V79.4612L31.1062 83.879ZM36.3665 92.8259C36.0787 92.8259 35.7973 92.9113 35.558 93.0712C35.3187 93.2311 35.1321 93.4584 35.022 93.7243C34.9119 93.9902 34.883 94.2828 34.9392 94.5651C34.9953 94.8474 35.1339 95.1067 35.3375 95.3102C35.541 95.5137 35.8003 95.6523 36.0826 95.7085C36.3649 95.7646 36.6575 95.7358 36.9234 95.6257C37.1893 95.5155 37.4166 95.329 37.5765 95.0897C37.7364 94.8504 37.8217 94.569 37.8217 94.2812C37.8217 93.8952 37.6684 93.5251 37.3955 93.2522C37.1226 92.9792 36.7524 92.8259 36.3665 92.8259V92.8259ZM37.1382 79.4612V83.8834H41.7005L37.1382 79.4612ZM40.7511 96.3145C38.1209 96.3145 37.6556 98.9157 37.6556 98.9157H43.848C43.848 98.9157 43.3798 96.3102 40.7496 96.3102L40.7511 96.3145ZM37.4735 100.085V108.092H43.9925V100.081L37.4735 100.085ZM37.4735 100.085V108.092H43.9925V100.081L37.4735 100.085ZM40.7511 96.3145C38.1209 96.3145 37.6556 98.9157 37.6556 98.9157H43.848C43.848 98.9157 43.3798 96.3102 40.7496 96.3102L40.7511 96.3145ZM36.3679 92.8303C36.0801 92.8303 35.7987 92.9156 35.5594 93.0755C35.3201 93.2354 35.1336 93.4627 35.0234 93.7286C34.9133 93.9945 34.8845 94.2871 34.9406 94.5694C34.9968 94.8517 35.1354 95.111 35.3389 95.3145C35.5424 95.5181 35.8017 95.6567 36.084 95.7128C36.3663 95.769 36.6589 95.7401 36.9248 95.63C37.1907 95.5199 37.418 95.3333 37.5779 95.094C37.7378 94.8547 37.8232 94.5733 37.8232 94.2855C37.8238 94.0939 37.7865 93.9041 37.7135 93.7269C37.6406 93.5498 37.5333 93.3888 37.398 93.2532C37.2626 93.1176 37.1018 93.01 36.9248 92.9367C36.7478 92.8634 36.5581 92.8257 36.3665 92.8259L36.3679 92.8303ZM28.687 100.085V108.092H35.2046V100.081L28.687 100.085ZM40.7511 96.3145C38.1209 96.3145 37.6556 98.9157 37.6556 98.9157H43.848C43.848 98.9157 43.3798 96.3102 40.7496 96.3102L40.7511 96.3145ZM36.3679 92.8303C36.0801 92.8303 35.7987 92.9156 35.5594 93.0755C35.3201 93.2354 35.1336 93.4627 35.0234 93.7286C34.9133 93.9945 34.8845 94.2871 34.9406 94.5694C34.9968 94.8517 35.1354 95.111 35.3389 95.3145C35.5424 95.5181 35.8017 95.6567 36.084 95.7128C36.3663 95.769 36.6589 95.7401 36.9248 95.63C37.1907 95.5199 37.418 95.3333 37.5779 95.094C37.7378 94.8547 37.8232 94.5733 37.8232 94.2855C37.8238 94.0939 37.7865 93.9041 37.7135 93.7269C37.6406 93.5498 37.5333 93.3888 37.398 93.2532C37.2626 93.1176 37.1018 93.01 36.9248 92.9367C36.7478 92.8634 36.5581 92.8257 36.3665 92.8259L36.3679 92.8303ZM37.4735 100.085V108.092H43.9925V100.081L37.4735 100.085ZM40.7511 96.3145C38.1209 96.3145 37.6556 98.9157 37.6556 98.9157H43.848C43.848 98.9157 43.3798 96.3102 40.7496 96.3102L40.7511 96.3145ZM36.3679 92.8303C36.0801 92.8303 35.7987 92.9156 35.5594 93.0755C35.3201 93.2354 35.1336 93.4627 35.0234 93.7286C34.9133 93.9945 34.8845 94.2871 34.9406 94.5694C34.9968 94.8517 35.1354 95.111 35.3389 95.3145C35.5424 95.5181 35.8017 95.6567 36.084 95.7128C36.3663 95.769 36.6589 95.7401 36.9248 95.63C37.1907 95.5199 37.418 95.3333 37.5779 95.094C37.7378 94.8547 37.8232 94.5733 37.8232 94.2855C37.8238 94.0939 37.7865 93.9041 37.7135 93.7269C37.6406 93.5498 37.5333 93.3888 37.398 93.2532C37.2626 93.1176 37.1018 93.01 36.9248 92.9367C36.7478 92.8634 36.5581 92.8257 36.3665 92.8259L36.3679 92.8303ZM28.687 100.085V108.092H35.2046V100.081L28.687 100.085Z" stroke="#BD6F6D" stroke-width="0.14811" stroke-miterlimit="10"/>
<path d="M46.2178 86.4962L45.9475 86.2433L36.4096 77.3152L26.834 86.2751L26.597 86.4976L26.23 86.8314V88.5497L29.7084 85.3704H35.6682V87.4818C35.8951 87.4716 36.1278 87.4659 36.3662 87.4659C36.6307 87.4659 36.8879 87.4659 37.1379 87.4847V85.369H43.3029L46.527 88.5338V86.7852L46.2178 86.4962ZM35.6682 83.879H31.1059L35.6682 79.4612V83.879ZM37.1379 83.879V79.4612L41.7002 83.8834L37.1379 83.879Z" stroke="#BD6F6D" stroke-width="0.14811" stroke-miterlimit="10"/>
<path d="M47.2123 108.181V109.259V110.415L25.3906 110.588L25.3978 109.257V108.179H26.2346V88.5526L29.713 85.3733H35.6685V87.4846C32.242 87.6407 30.0686 88.9428 28.6986 90.4009C27.5641 91.6115 26.786 93.1118 26.4499 94.7364V108.098H46.283V94.5413C45.951 92.9858 45.1971 91.5518 44.1038 90.3966C42.7511 88.9515 40.582 87.6508 37.1382 87.4832V85.369H43.3032L46.5273 88.5338V108.188L47.2123 108.181Z" stroke="#BD6F6D" stroke-width="0.14811" stroke-miterlimit="10"/>
<path d="M35.6683 79.4569V83.879H31.106L35.6683 79.4569Z" stroke="#BD6F6D" stroke-width="0.14811" stroke-miterlimit="10"/>
<path d="M41.7005 83.879H37.1382V79.4569L41.7005 83.879Z" stroke="#BD6F6D" stroke-width="0.14811" stroke-miterlimit="10"/>
<path d="M44.1036 90.3966C42.7509 88.9515 40.5818 87.6508 37.138 87.4832C36.888 87.4702 36.6307 87.4644 36.3663 87.4644C36.1278 87.4644 35.8952 87.4644 35.6683 87.4803C32.2418 87.6364 30.0683 88.9385 28.6984 90.3966C27.5639 91.6071 26.7858 93.1074 26.4497 94.732V108.094H28.6853V100.081H35.2029V108.088H37.4718V100.081H43.9923V108.088H46.2857V94.5413C45.9529 92.9855 45.1979 91.5515 44.1036 90.3966V90.3966ZM36.3663 95.7436C36.0785 95.7436 35.7971 95.6583 35.5578 95.4984C35.3185 95.3385 35.1319 95.1112 35.0218 94.8453C34.9117 94.5794 34.8828 94.2868 34.939 94.0045C34.9951 93.7222 35.1337 93.4629 35.3373 93.2594C35.5408 93.0558 35.8001 92.9172 36.0824 92.8611C36.3647 92.8049 36.6573 92.8338 36.9232 92.9439C37.1891 93.054 37.4164 93.2406 37.5763 93.4799C37.7362 93.7192 37.8215 94.0006 37.8215 94.2884C37.8196 94.6731 37.6655 95.0414 37.3928 95.3127C37.1201 95.5841 36.751 95.7364 36.3663 95.7364V95.7436ZM37.6539 98.923C37.6539 98.923 38.1192 96.3217 40.7494 96.3217C43.3796 96.3217 43.8449 98.923 43.8449 98.923H37.6539Z" stroke="#BD6F6D" stroke-width="0.14811" stroke-miterlimit="10"/>
<path d="M35.2031 100.081H28.6855V108.088H35.2031V100.081Z" stroke="#BD6F6D" stroke-width="0.14811" stroke-miterlimit="10"/>
<path d="M36.3664 95.7364C37.1701 95.7364 37.8216 95.0848 37.8216 94.2811C37.8216 93.4774 37.1701 92.8259 36.3664 92.8259C35.5627 92.8259 34.9111 93.4774 34.9111 94.2811C34.9111 95.0848 35.5627 95.7364 36.3664 95.7364Z" stroke="#BD6F6D" stroke-width="0.14811" stroke-miterlimit="10"/>
<path d="M37.6543 98.9172C37.6543 98.9172 38.1196 96.3159 40.7498 96.3159C43.38 96.3159 43.8453 98.9172 43.8453 98.9172H37.6543Z" stroke="#BD6F6D" stroke-width="0.14811" stroke-miterlimit="10"/>
<path d="M43.9898 100.081H37.4722V108.088H43.9898V100.081Z" stroke="#BD6F6D" stroke-width="0.14811" stroke-miterlimit="10"/>
<path d="M35.2031 100.081H28.6855V108.088H35.2031V100.081Z" stroke="#BD6F6D" stroke-width="0.14811" stroke-miterlimit="10"/>
<path d="M36.3664 95.7364C37.1701 95.7364 37.8216 95.0848 37.8216 94.2811C37.8216 93.4774 37.1701 92.8259 36.3664 92.8259C35.5627 92.8259 34.9111 93.4774 34.9111 94.2811C34.9111 95.0848 35.5627 95.7364 36.3664 95.7364Z" fill="#BD6F6D"/>
<path d="M31.9446 103.595H31.7119V104.037H31.9446V103.595Z" fill="#BD6F6D"/>
<path d="M31.9446 104.387H31.7119V105.12H31.9446V104.387Z" fill="#BD6F6D"/>
<path d="M32.4094 103.595H32.1768V104.037H32.4094V103.595Z" fill="#BD6F6D"/>
<path d="M32.4094 104.387H32.1768V105.12H32.4094V104.387Z" fill="#BD6F6D"/>
<path d="M43.9898 100.081H37.4722V108.088H43.9898V100.081Z" stroke="#BD6F6D" stroke-width="0.14811" stroke-miterlimit="10"/>
<path d="M43.8482 98.9172H37.6543C37.6543 98.9172 38.1196 96.3159 40.7498 96.3159C43.38 96.3159 43.8482 98.9172 43.8482 98.9172Z" fill="#BD6F6D"/>
<path d="M35.0396 98.9172H28.8486C28.8486 98.9172 29.314 96.3159 31.9441 96.3159C34.5743 96.3159 35.0396 98.9172 35.0396 98.9172Z" fill="#BD6F6D"/>
<path d="M40.7307 103.595H40.498V104.037H40.7307V103.595Z" fill="#BD6F6D"/>
<path d="M40.7307 104.387H40.498V105.12H40.7307V104.387Z" fill="#BD6F6D"/>
<path d="M41.196 103.595H40.9634V104.037H41.196V103.595Z" fill="#BD6F6D"/>
<path d="M41.196 104.387H40.9634V105.12H41.196V104.387Z" fill="#BD6F6D"/>
</g>
<defs>
<clipPath id="clip0">
<rect width="72.7543" height="113" fill="white"/>
</clipPath>
</defs>
</svg>
