<svg width="99" height="95" viewBox="0 0 99 95" fill="none" xmlns="http://www.w3.org/2000/svg">
<path d="M16.6164 19.4259C16.7931 25.1269 16.2531 30.8377 15.0361 36.4159C14.9726 36.711 14.9071 37.0062 14.8416 37.3013V45.4922H12.489C12.3203 45.928 12.1436 46.3598 11.957 46.7877H14.78V58.2233H6.14609V55.3015C5.61602 55.874 5.08 56.4405 4.54199 57.0031V84.769H27.6287V19.4259H16.6164ZM17.3887 21.2602H26.0226V32.6938H17.3887V21.2602ZM17.3291 33.9893H25.963V45.4249H17.3291V33.9893ZM17.2676 46.7204H25.9015V58.1559H17.2676V46.7204Z" stroke="#D7A9A7" stroke-width="0.127742" stroke-miterlimit="10"/>
<path d="M9.29515 51.5338C8.32833 52.863 7.25628 54.099 6.14453 55.3014V58.2212H14.7785V46.7856H11.9574C11.2288 48.4654 10.3632 50.068 9.29515 51.5338Z" stroke="#D7A9A7" stroke-width="0.127742" stroke-miterlimit="10"/>
<path d="M12.4893 45.4925H14.8418V37.3036C14.2303 40.0293 13.5117 42.8342 12.4893 45.4925Z" stroke="#D7A9A7" stroke-width="0.127742" stroke-miterlimit="10"/>
<path d="M25.9015 46.7203H17.2676V58.1559H25.9015V46.7203Z" stroke="#D7A9A7" stroke-width="0.127742" stroke-miterlimit="10"/>
<path d="M25.963 33.9897H17.3291V45.4253H25.963V33.9897Z" stroke="#D7A9A7" stroke-width="0.127742" stroke-miterlimit="10"/>
<path d="M26.0226 21.2609H17.3887V32.6945H26.0226V21.2609Z" stroke="#D7A9A7" stroke-width="0.127742" stroke-miterlimit="10"/>
<path d="M41.0339 41.3609L39.3841 41.9116L37.5974 36.587L31.2902 38.6947L32.9975 43.9797L27.7227 45.7446L29.8747 52.1567L35.2131 50.3719L36.9601 55.5757L38.8183 54.9557" stroke="#D7A9A7" stroke-width="0.127742" stroke-miterlimit="10"/>
<path d="M78.0587 40.1955L77.9634 39.526L77.5941 36.941L77.477 36.111L76.3216 28.0072L72.8176 24.0514L72.222 23.3799L69.933 20.7968L68.7835 19.4974L67.8544 18.4495L68.7835 15.6367L69.4863 13.5112V9.88025L68.7835 9.28598L63.4273 4.7478H62.9428H51.9961V55.575" stroke="#D7A9A7" stroke-width="0.127742" stroke-miterlimit="10"/>
<path d="M89.5553 55.5755L87.1332 53.0855L86.3292 52.2575L84.2288 50.0984L83.524 49.3734L79.1445 44.8708" stroke="#D7A9A7" stroke-width="0.127742" stroke-miterlimit="10"/>
<path d="M96.7003 59.309H86.0752V84.7691H96.7003V59.309Z" stroke="#D7A9A7" stroke-width="0.127742" stroke-miterlimit="10"/>
<path d="M98.4256 84.7693H0V94.9807H98.4256V84.7693Z" fill="#D7A9A7"/>
<path d="M42.5466 46.493C42.6797 46.7069 42.7174 47.2437 42.5983 47.3705C42.4573 47.5191 42.2826 47.6419 42.09 47.626C41.9431 47.6142 41.7843 47.525 41.6175 47.3071C41.0339 46.5465 40.4204 45.8116 39.7891 45.1064C39.3385 44.6052 38.999 44.0466 38.7389 43.4147C38.6873 43.284 38.6357 43.1493 38.586 43.0086C38.3041 42.1885 37.9845 41.3804 37.6768 40.5702C37.6629 40.5325 37.647 40.4949 37.6331 40.4573C37.5994 40.3721 37.5696 40.2869 37.5358 40.2017C37.5497 40.2889 37.5676 40.378 37.5815 40.4632C37.6013 40.5642 37.6172 40.6633 37.6351 40.7643V40.7663C37.8356 41.9192 38.0242 43.076 38.3617 44.1793C38.4014 44.3081 38.4431 44.4368 38.4868 44.5616C38.9613 45.9364 39.7176 47.216 40.3807 48.5987L38.8382 49.1137C39.6263 49.8882 40.3331 50.5835 41.1014 51.3362L41.0259 51.459C41.0239 51.459 41.0239 51.459 41.0239 51.459C40.3311 51.9741 39.672 52.4415 39.0427 52.9605C38.6992 53.2418 38.4649 53.1329 38.1731 52.7525C37.6272 52.0355 37.0574 51.3402 36.4975 50.637C36.4757 50.6588 36.4519 50.6806 36.4281 50.7043C37.2281 52.1246 38.0262 53.5429 38.8183 54.9553L36.9601 55.5773L35.2131 50.3735L29.8767 52.1583L27.7227 45.7462L32.9995 43.9812L31.2922 38.6963L37.5974 36.5886L39.3861 41.9132L41.0359 41.3625C40.9922 41.7528 41.0239 42.1668 41.1887 42.6283C41.2463 42.7888 41.2959 42.9512 41.3396 43.1176C41.4726 43.5989 41.5639 44.0961 41.685 44.5795C41.6493 44.5993 41.6136 44.6171 41.5778 44.6369C41.3694 44.421 41.1589 44.2031 40.9505 43.9852C40.9703 44.2467 41.0597 44.4408 41.1808 44.6072C41.6354 45.2332 42.1317 45.8294 42.5466 46.493Z" fill="#D7A9A7"/>
<path d="M50.4672 48.25L51.9303 52.6099L50.354 55.2861L49.4865 55.5753C49.2443 55.1732 49.1688 54.7829 49.1668 54.3986C49.1629 53.8024 49.3376 53.224 49.3415 52.6436C49.3415 52.6099 49.3415 52.5782 49.3396 52.5465C49.01 52.3187 48.6209 52.8694 48.339 52.1484C47.9657 51.1916 47.523 50.2606 47.4277 49.2642L50.4672 48.25Z" fill="#D7A9A7"/>
<path d="M63.4273 4.74797H51.9961V0.918945H58.9068L63.4273 4.74797Z" fill="#D7A9A7"/>
<path d="M41.3473 59.3074H37.6289V59.3093H41.3473V59.3074Z" fill="#D7A9A7"/>
<path d="M26.7018 60.2639H5.37207V62.4013H26.7018V60.2639Z" stroke="#D7A9A7" stroke-width="0.127742" stroke-miterlimit="10"/>
<path d="M26.0631 63.1681H5.82129V64.0298H26.0631V63.1681Z" stroke="#D7A9A7" stroke-width="0.127742" stroke-miterlimit="10"/>
<path d="M26.0631 64.2854H5.82129V65.1471H26.0631V64.2854Z" stroke="#D7A9A7" stroke-width="0.127742" stroke-miterlimit="10"/>
<path d="M26.0631 65.4021H5.82129V66.2638H26.0631V65.4021Z" stroke="#D7A9A7" stroke-width="0.127742" stroke-miterlimit="10"/>
<path d="M26.0631 66.5194H5.82129V67.3811H26.0631V66.5194Z" stroke="#D7A9A7" stroke-width="0.127742" stroke-miterlimit="10"/>
<path d="M26.0631 67.6353H5.82129V68.4969H26.0631V67.6353Z" stroke="#D7A9A7" stroke-width="0.127742" stroke-miterlimit="10"/>
<path d="M26.0631 68.7518H5.82129V69.6135H26.0631V68.7518Z" stroke="#D7A9A7" stroke-width="0.127742" stroke-miterlimit="10"/>
<path d="M26.0631 69.8693H5.82129V70.731H26.0631V69.8693Z" stroke="#D7A9A7" stroke-width="0.127742" stroke-miterlimit="10"/>
<path d="M26.0631 70.9867H5.82129V71.8484H26.0631V70.9867Z" stroke="#D7A9A7" stroke-width="0.127742" stroke-miterlimit="10"/>
<path d="M26.0631 72.1016H5.82129V72.9633H26.0631V72.1016Z" stroke="#D7A9A7" stroke-width="0.127742" stroke-miterlimit="10"/>
<path d="M26.0631 73.219H5.82129V74.0807H26.0631V73.219Z" stroke="#D7A9A7" stroke-width="0.127742" stroke-miterlimit="10"/>
<path d="M26.0631 74.3364H5.82129V75.1981H26.0631V74.3364Z" stroke="#D7A9A7" stroke-width="0.127742" stroke-miterlimit="10"/>
<path d="M26.0631 75.453H5.82129V76.3147H26.0631V75.453Z" stroke="#D7A9A7" stroke-width="0.127742" stroke-miterlimit="10"/>
<path d="M26.0631 76.5687H5.82129V77.4304H26.0631V76.5687Z" stroke="#D7A9A7" stroke-width="0.127742" stroke-miterlimit="10"/>
<path d="M26.0631 77.6854H5.82129V78.5471H26.0631V77.6854Z" stroke="#D7A9A7" stroke-width="0.127742" stroke-miterlimit="10"/>
<path d="M26.0631 78.8027H5.82129V79.6644H26.0631V78.8027Z" stroke="#D7A9A7" stroke-width="0.127742" stroke-miterlimit="10"/>
<path d="M26.0631 79.9202H5.82129V80.7818H26.0631V79.9202Z" stroke="#D7A9A7" stroke-width="0.127742" stroke-miterlimit="10"/>
<path d="M26.0631 81.0352H5.82129V81.8968H26.0631V81.0352Z" stroke="#D7A9A7" stroke-width="0.127742" stroke-miterlimit="10"/>
<path d="M26.0631 82.1526H5.82129V83.0143H26.0631V82.1526Z" stroke="#D7A9A7" stroke-width="0.127742" stroke-miterlimit="10"/>
<path d="M26.0631 83.2699H5.82129V84.1316H26.0631V83.2699Z" stroke="#D7A9A7" stroke-width="0.127742" stroke-miterlimit="10"/>
<path d="M26.0631 62.4032H5.82129V62.8013H26.0631V62.4032Z" stroke="#D7A9A7" stroke-width="0.127742" stroke-miterlimit="10"/>
<path d="M64.4021 7.23572H54.041V20.7968H64.4021V7.23572Z" stroke="#D7A9A7" stroke-width="0.127742" stroke-miterlimit="10"/>
<path d="M63.5726 7.90466H54.7461V19.9662H63.5726V7.90466Z" stroke="#D7A9A7" stroke-width="0.127742" stroke-miterlimit="10"/>
<path d="M68.7832 19.4977L69.9327 20.7971H68.7832V19.4977Z" stroke="#D7A9A7" stroke-width="0.127742" stroke-miterlimit="10"/>
<path d="M69.486 9.88027V13.5112L68.7832 15.6367V9.28601L69.486 9.88027Z" stroke="#D7A9A7" stroke-width="0.127742" stroke-miterlimit="10"/>
<path d="M64.4021 23.3798H54.041V36.9408H64.4021V23.3798Z" stroke="#D7A9A7" stroke-width="0.127742" stroke-miterlimit="10"/>
<path d="M63.5726 24.0514H54.7461V36.1129H63.5726V24.0514Z" stroke="#D7A9A7" stroke-width="0.127742" stroke-miterlimit="10"/>
<path d="M77.5938 36.9408H68.7832V23.3798H72.2217L72.8173 24.0513L76.3213 28.0071L77.4767 36.1108L77.5938 36.9408Z" stroke="#D7A9A7" stroke-width="0.127742" stroke-miterlimit="10"/>
<path d="M77.477 36.1109H69.4863V24.0514H72.8176L76.3216 28.0072L77.477 36.1109Z" stroke="#D7A9A7" stroke-width="0.127742" stroke-miterlimit="10"/>
<path d="M64.4021 39.5262H54.041V53.0873H64.4021V39.5262Z" stroke="#D7A9A7" stroke-width="0.127742" stroke-miterlimit="10"/>
<path d="M63.5726 40.1951H54.7461V52.2566H63.5726V40.1951Z" stroke="#D7A9A7" stroke-width="0.127742" stroke-miterlimit="10"/>
<path d="M78.0584 40.1958L77.9631 39.5262H76.2419H68.7832V53.0853H79.1443V46.7901V44.8706" stroke="#D7A9A7" stroke-width="0.127742" stroke-miterlimit="10"/>
<path d="M78.0587 40.1951H76.2978H69.4863V52.2566H78.3128V46.0624V41.9798" stroke="#D7A9A7" stroke-width="0.127742" stroke-miterlimit="10"/>
<path d="M87.1336 53.0852H83.5244V49.373L84.2292 50.098L86.3296 52.2572L87.1336 53.0852Z" stroke="#D7A9A7" stroke-width="0.127742" stroke-miterlimit="10"/>
<path d="M86.3299 52.257H84.2295V50.0979L86.3299 52.257Z" stroke="#D7A9A7" stroke-width="0.127742" stroke-miterlimit="10"/>
<path d="M26.0226 21.2609H17.3887V32.6945H26.0226V21.2609Z" stroke="#D7A9A7" stroke-width="0.127742" stroke-miterlimit="10"/>
<path d="M25.33 21.8235H17.9746V31.9933H25.33V21.8235Z" stroke="#D7A9A7" stroke-width="0.127742" stroke-miterlimit="10"/>
<path d="M25.963 33.9897H17.3291V45.4253H25.963V33.9897Z" stroke="#D7A9A7" stroke-width="0.127742" stroke-miterlimit="10"/>
<path d="M25.2705 34.5535H17.915V44.7233H25.2705V34.5535Z" stroke="#D7A9A7" stroke-width="0.127742" stroke-miterlimit="10"/>
<path d="M9.29515 51.5338C8.32833 52.863 7.25628 54.099 6.14453 55.3014V58.2212H14.7785V46.7856H11.9574C11.2288 48.4654 10.3632 50.068 9.29515 51.5338Z" stroke="#D7A9A7" stroke-width="0.127742" stroke-miterlimit="10"/>
<path d="M9.2954 51.5339C8.49931 52.6273 7.63175 53.6554 6.73242 54.6577V57.5241H14.0878V47.3542H11.7075C11.0305 48.826 10.2424 50.2344 9.2954 51.5339Z" stroke="#D7A9A7" stroke-width="0.127742" stroke-miterlimit="10"/>
<path d="M25.9015 46.7203H17.2676V58.1559H25.9015V46.7203Z" stroke="#D7A9A7" stroke-width="0.127742" stroke-miterlimit="10"/>
<path d="M25.2089 47.2849H17.8535V57.4547H25.2089V47.2849Z" stroke="#D7A9A7" stroke-width="0.127742" stroke-miterlimit="10"/>
<path d="M86.0748 59.309H82.3584V84.7691H86.0748V59.309Z" stroke="#D7A9A7" stroke-width="0.127742" stroke-miterlimit="10"/>
<path d="M41.3473 59.3074H37.6289V84.7695H41.3473V59.3074Z" stroke="#D7A9A7" stroke-width="0.127742" stroke-miterlimit="10"/>
<path d="M51.1006 61.4132V84.114C51.5671 83.8921 52.0337 83.6723 52.5062 83.4643V83.494H61.013V78.1337H60.6279C61.2671 77.8346 61.9084 77.5375 62.5476 77.2344C62.6409 77.1909 62.7323 77.1473 62.8256 77.1037C63.1154 76.967 63.3914 76.7986 63.6534 76.656C63.441 75.8894 63.0658 75.521 62.5476 75.412V73.5361C62.0354 73.4569 61.5232 73.3579 61.013 73.2568V75.5903C60.886 75.6279 60.753 75.6715 60.618 75.7191C59.7246 76.0301 58.9464 76.656 58.0728 77.0423C57.7095 77.2027 57.1775 77.2404 56.8142 77.1017C55.3669 76.5471 53.9316 75.9647 52.5062 75.3585V68.99C53.7648 69.7745 55.0255 70.5589 56.3119 71.2938C56.6037 71.4602 57.1576 71.482 57.4336 71.3136C58.6426 70.5807 59.8318 69.8141 61.013 69.0356V70.5688C61.4696 70.3113 61.966 70.137 62.5476 70.1805V68.1145H71.0545V71.3869C71.527 70.9729 72.0094 70.5708 72.5236 70.2162V61.4132H51.1006V61.4132ZM71.8844 66.9656H62.9169C62.8276 66.7041 62.5993 66.4486 62.2399 66.2069C62.1129 66.1237 62.0096 65.9811 61.9342 65.8444C61.4438 64.9491 60.9634 64.0497 60.4254 63.0514C61.0865 62.7127 61.7178 62.3719 62.3471 62.051H71.8844V66.9656V66.9656Z" stroke="#D7A9A7" stroke-width="0.127742" stroke-miterlimit="10"/>
<path d="M62.9171 66.9652H51.9307V62.0507H62.3474C61.718 62.3716 61.0867 62.7123 60.4256 63.051C60.9636 64.0494 61.4441 64.9487 61.9344 65.844C62.0099 65.9807 62.1131 66.1233 62.2402 66.2065C62.5995 66.4482 62.8278 66.7037 62.9171 66.9652Z" fill="#D7A9A7"/>
<path d="M61.0137 68.1135V69.0346C59.8325 69.8131 58.6433 70.5797 57.4343 71.3126C57.1583 71.481 56.6044 71.4592 56.3126 71.2928C55.0261 70.5579 53.7655 69.7735 52.5068 68.9891V68.1135H61.0137Z" fill="#D7A9A7"/>
<path d="M61.0137 75.59V77.4303H52.5068V75.3583C53.9323 75.9644 55.3676 76.5468 56.8149 77.1014C57.1782 77.2401 57.7102 77.2025 58.0735 77.042C58.947 76.6557 59.7253 76.0298 60.6186 75.7188C60.7536 75.6712 60.8866 75.6277 61.0137 75.59Z" fill="#D7A9A7"/>
<path d="M63.6537 76.6554C63.3916 76.798 63.1156 76.9664 62.8258 77.103C62.7325 77.1466 62.6412 77.1902 62.5479 77.2338V75.4114C63.066 75.5203 63.4412 75.8888 63.6537 76.6554Z" fill="#D7A9A7"/>
<path d="M61.0137 78.1334H52.5068V83.4937H61.0137V78.1334Z" fill="#D7A9A7"/>
<path d="M71.0547 78.1334H62.5479V83.4937H71.0547V78.1334Z" fill="#D7A9A7"/>
<path d="M38.6631 49.9076C38.6631 49.9095 38.665 49.9114 38.665 49.9114C38.6708 49.8942 38.6688 49.8942 38.6631 49.9076Z" fill="#D7A9A7"/>
<path d="M89.5556 55.5752H89.2122L86.3594 53.0852L85.4104 52.2572L84.2292 51.2272L83.5244 50.6111L79.1449 46.79L78.3131 46.063L76.6653 44.6249L76.298 40.1957L76.2424 39.5262L76.03 36.9411L75.9605 36.1111L75.2935 28.049L71.9344 24.0516L71.3706 23.3801L69.1987 20.797L68.7838 20.3018L67.1301 18.3348L68.6547 10.0963L62.9431 4.74797L58.8555 0.918945H58.9071L63.4275 4.74797L68.7838 9.28615L69.4866 9.88041V13.5114L68.7838 15.6368L67.8547 18.4497L68.7838 19.4976L69.9333 20.797L72.2223 23.3801L72.8179 24.0516L76.3219 28.0074L77.4773 36.1111L77.5944 36.9411L77.9637 39.5262L78.059 40.1957L78.3131 41.9805L79.1449 44.8706L83.5244 49.3731L84.2292 50.0981L86.3296 52.2572L87.1336 53.0852L89.5556 55.5752Z" fill="#D7A9A7"/>
<path d="M49.7086 84.7696C50.1752 84.5576 50.6377 84.3358 51.1003 84.1139V84.6884C50.8224 84.7181 50.5405 84.7458 50.2586 84.7696C50.0422 84.7874 49.8258 84.8033 49.6094 84.8151C49.6431 84.7993 49.6749 84.7854 49.7086 84.7696Z" fill="#D7A9A7"/>
</svg>
