<svg width="98" height="99" viewBox="0 0 98 99" fill="none" xmlns="http://www.w3.org/2000/svg">
<g clip-path="url(#clip0)">
<path d="M4.52637 22.9195V88.133H27.5143V22.9195H4.52637ZM17.315 24.7579H25.9132V36.1638H17.315V24.7579ZM17.2557 37.4487H25.8539V48.8547H17.2557V37.4487ZM17.1964 50.1593H25.7946V61.5653H17.1964V50.1593ZM6.24601 24.8172H14.8442V36.2231H6.24601V24.8172ZM6.18671 37.5278H14.7849V48.9338H6.18671V37.5278ZM6.12742 50.2187H14.7256V61.6246H6.12742V50.2187Z" stroke="#BD6F6D" stroke-width="0.198278" stroke-miterlimit="10"/>
<path d="M14.7257 50.2186H6.12744V61.6236H14.7257V50.2186Z" stroke="#BD6F6D" stroke-width="0.198278" stroke-miterlimit="10"/>
<path d="M14.7852 37.5278H6.18701V48.9328H14.7852V37.5278Z" stroke="#BD6F6D" stroke-width="0.198278" stroke-miterlimit="10"/>
<path d="M14.8443 24.8172H6.24609V36.2222H14.8443V24.8172Z" stroke="#BD6F6D" stroke-width="0.198278" stroke-miterlimit="10"/>
<path d="M25.7945 50.1594H17.1963V61.5644H25.7945V50.1594Z" stroke="#BD6F6D" stroke-width="0.198278" stroke-miterlimit="10"/>
<path d="M25.8541 37.4487H17.2559V48.8537H25.8541V37.4487Z" stroke="#BD6F6D" stroke-width="0.198278" stroke-miterlimit="10"/>
<path d="M25.9132 24.7579H17.3149V36.1629H25.9132V24.7579Z" stroke="#BD6F6D" stroke-width="0.198278" stroke-miterlimit="10"/>
<path d="M51.7671 3.40851H27.5142V58.9952H51.7671V3.40851Z" stroke="#BD6F6D" stroke-width="0.198278" stroke-miterlimit="10"/>
<path d="M95.5093 8.27087H51.7671V58.9947H95.5093V8.27087Z" stroke="#BD6F6D" stroke-width="0.198278" stroke-miterlimit="10"/>
<path d="M96.2804 62.7316H85.7056V88.133H96.2804V62.7316Z" stroke="#BD6F6D" stroke-width="0.198278" stroke-miterlimit="10"/>
<path d="M85.7054 62.7316H27.5142V88.133H85.7054V62.7316Z" stroke="#BD6F6D" stroke-width="0.198278" stroke-miterlimit="10"/>
<path d="M98 88.133H0V98.3323H98V88.133Z" fill="#BD6F6D"/>
<path d="M36.429 11.9089H43.0506V17.5032H48.3874V24.1254H43.0506V29.6801H36.429V24.1847H30.8154V17.4439H36.3499L36.429 11.9089Z" fill="#BD6F6D"/>
<path d="M52.5973 -0.386597H26.4863V3.40848H52.5973V-0.386597Z" fill="#BD6F6D"/>
<path d="M96.4581 4.45605H51.7671V8.2709H96.4581V4.45605Z" fill="#BD6F6D"/>
<path d="M96.379 58.9955H27.5142V62.7115H96.379V58.9955Z" fill="#BD6F6D"/>
<path d="M26.5852 63.6805H5.35645V65.8152H26.5852V63.6805Z" stroke="#BD6F6D" stroke-width="0.198278" stroke-miterlimit="10"/>
<path d="M25.9529 66.5665H5.7915V67.4165H25.9529V66.5665Z" stroke="#BD6F6D" stroke-width="0.198278" stroke-miterlimit="10"/>
<path d="M25.9529 67.6932H5.7915V68.5432H25.9529V67.6932Z" stroke="#BD6F6D" stroke-width="0.198278" stroke-miterlimit="10"/>
<path d="M25.9529 68.8003H5.7915V69.6502H25.9529V68.8003Z" stroke="#BD6F6D" stroke-width="0.198278" stroke-miterlimit="10"/>
<path d="M25.9529 69.9271H5.7915V70.777H25.9529V69.9271Z" stroke="#BD6F6D" stroke-width="0.198278" stroke-miterlimit="10"/>
<path d="M25.9529 71.034H5.7915V71.8839H25.9529V71.034Z" stroke="#BD6F6D" stroke-width="0.198278" stroke-miterlimit="10"/>
<path d="M25.9529 72.141H5.7915V72.9909H25.9529V72.141Z" stroke="#BD6F6D" stroke-width="0.198278" stroke-miterlimit="10"/>
<path d="M25.9529 73.2678H5.7915V74.1177H25.9529V73.2678Z" stroke="#BD6F6D" stroke-width="0.198278" stroke-miterlimit="10"/>
<path d="M25.9529 74.3748H5.7915V75.2247H25.9529V74.3748Z" stroke="#BD6F6D" stroke-width="0.198278" stroke-miterlimit="10"/>
<path d="M25.9529 75.4817H5.7915V76.3316H25.9529V75.4817Z" stroke="#BD6F6D" stroke-width="0.198278" stroke-miterlimit="10"/>
<path d="M25.9529 76.6085H5.7915V77.4585H25.9529V76.6085Z" stroke="#BD6F6D" stroke-width="0.198278" stroke-miterlimit="10"/>
<path d="M25.9529 77.7155H5.7915V78.5655H25.9529V77.7155Z" stroke="#BD6F6D" stroke-width="0.198278" stroke-miterlimit="10"/>
<path d="M25.9529 78.8422H5.7915V79.6922H25.9529V78.8422Z" stroke="#BD6F6D" stroke-width="0.198278" stroke-miterlimit="10"/>
<path d="M25.9529 79.9492H5.7915V80.7992H25.9529V79.9492Z" stroke="#BD6F6D" stroke-width="0.198278" stroke-miterlimit="10"/>
<path d="M25.9529 81.0562H5.7915V81.9062H25.9529V81.0562Z" stroke="#BD6F6D" stroke-width="0.198278" stroke-miterlimit="10"/>
<path d="M25.9529 82.183H5.7915V83.0329H25.9529V82.183Z" stroke="#BD6F6D" stroke-width="0.198278" stroke-miterlimit="10"/>
<path d="M25.9529 83.2899H5.7915V84.1399H25.9529V83.2899Z" stroke="#BD6F6D" stroke-width="0.198278" stroke-miterlimit="10"/>
<path d="M25.9529 84.397H5.7915V85.2469H25.9529V84.397Z" stroke="#BD6F6D" stroke-width="0.198278" stroke-miterlimit="10"/>
<path d="M25.9529 85.5237H5.7915V86.3737H25.9529V85.5237Z" stroke="#BD6F6D" stroke-width="0.198278" stroke-miterlimit="10"/>
<path d="M25.9529 86.6307H5.7915V87.4807H25.9529V86.6307Z" stroke="#BD6F6D" stroke-width="0.198278" stroke-miterlimit="10"/>
<path d="M25.9529 65.8153H5.7915V66.2106H25.9529V65.8153Z" stroke="#BD6F6D" stroke-width="0.198278" stroke-miterlimit="10"/>
<path d="M64.1211 10.7614H53.8032V24.3023H64.1211V10.7614Z" stroke="#BD6F6D" stroke-width="0.198278" stroke-miterlimit="10"/>
<path d="M63.3105 11.4337H54.5146V23.4712H63.3105V11.4337Z" stroke="#BD6F6D" stroke-width="0.198278" stroke-miterlimit="10"/>
<path d="M78.8071 10.7614H68.4893V24.3023H78.8071V10.7614Z" stroke="#BD6F6D" stroke-width="0.198278" stroke-miterlimit="10"/>
<path d="M77.977 11.4337H69.1812V23.4712H77.977V11.4337Z" stroke="#BD6F6D" stroke-width="0.198278" stroke-miterlimit="10"/>
<path d="M93.4736 10.7614H83.1558V24.3023H93.4736V10.7614Z" stroke="#BD6F6D" stroke-width="0.198278" stroke-miterlimit="10"/>
<path d="M92.6631 11.4337H83.8672V23.4712H92.6631V11.4337Z" stroke="#BD6F6D" stroke-width="0.198278" stroke-miterlimit="10"/>
<path d="M64.1211 26.873H53.8032V40.4138H64.1211V26.873Z" stroke="#BD6F6D" stroke-width="0.198278" stroke-miterlimit="10"/>
<path d="M63.3105 27.5452H54.5146V39.5827H63.3105V27.5452Z" stroke="#BD6F6D" stroke-width="0.198278" stroke-miterlimit="10"/>
<path d="M78.8071 26.873H68.4893V40.4138H78.8071V26.873Z" stroke="#BD6F6D" stroke-width="0.198278" stroke-miterlimit="10"/>
<path d="M77.977 27.5452H69.1812V39.5827H77.977V27.5452Z" stroke="#BD6F6D" stroke-width="0.198278" stroke-miterlimit="10"/>
<path d="M93.4736 26.873H83.1558V40.4138H93.4736V26.873Z" stroke="#BD6F6D" stroke-width="0.198278" stroke-miterlimit="10"/>
<path d="M92.6631 27.5452H83.8672V39.5827H92.6631V27.5452Z" stroke="#BD6F6D" stroke-width="0.198278" stroke-miterlimit="10"/>
<path d="M64.1211 42.9836H53.8032V56.5245H64.1211V42.9836Z" stroke="#BD6F6D" stroke-width="0.198278" stroke-miterlimit="10"/>
<path d="M63.3105 43.6558H54.5146V55.6933H63.3105V43.6558Z" stroke="#BD6F6D" stroke-width="0.198278" stroke-miterlimit="10"/>
<path d="M78.8071 42.9836H68.4893V56.5245H78.8071V42.9836Z" stroke="#BD6F6D" stroke-width="0.198278" stroke-miterlimit="10"/>
<path d="M77.977 43.6558H69.1812V55.6933H77.977V43.6558Z" stroke="#BD6F6D" stroke-width="0.198278" stroke-miterlimit="10"/>
<path d="M93.4736 42.9836H83.1558V56.5245H93.4736V42.9836Z" stroke="#BD6F6D" stroke-width="0.198278" stroke-miterlimit="10"/>
<path d="M92.6631 43.6558H83.8672V55.6933H92.6631V43.6558Z" stroke="#BD6F6D" stroke-width="0.198278" stroke-miterlimit="10"/>
<path d="M14.8443 24.8172H6.24609V36.2222H14.8443V24.8172Z" stroke="#BD6F6D" stroke-width="0.198278" stroke-miterlimit="10"/>
<path d="M14.1328 25.3905H6.81934V35.5305H14.1328V25.3905Z" stroke="#BD6F6D" stroke-width="0.198278" stroke-miterlimit="10"/>
<path d="M25.9132 24.7579H17.3149V36.1629H25.9132V24.7579Z" stroke="#BD6F6D" stroke-width="0.198278" stroke-miterlimit="10"/>
<path d="M25.2016 25.3111H17.8882V35.4511H25.2016V25.3111Z" stroke="#BD6F6D" stroke-width="0.198278" stroke-miterlimit="10"/>
<path d="M14.7852 37.5278H6.18701V48.9328H14.7852V37.5278Z" stroke="#BD6F6D" stroke-width="0.198278" stroke-miterlimit="10"/>
<path d="M14.0737 38.081H6.76025V48.221H14.0737V38.081Z" stroke="#BD6F6D" stroke-width="0.198278" stroke-miterlimit="10"/>
<path d="M25.8541 37.4487H17.2559V48.8537H25.8541V37.4487Z" stroke="#BD6F6D" stroke-width="0.198278" stroke-miterlimit="10"/>
<path d="M25.1425 38.022H17.8291V48.162H25.1425V38.022Z" stroke="#BD6F6D" stroke-width="0.198278" stroke-miterlimit="10"/>
<path d="M14.7257 50.2186H6.12744V61.6236H14.7257V50.2186Z" stroke="#BD6F6D" stroke-width="0.198278" stroke-miterlimit="10"/>
<path d="M14.0141 50.7916H6.70068V60.9316H14.0141V50.7916Z" stroke="#BD6F6D" stroke-width="0.198278" stroke-miterlimit="10"/>
<path d="M25.7945 50.1594H17.1963V61.5644H25.7945V50.1594Z" stroke="#BD6F6D" stroke-width="0.198278" stroke-miterlimit="10"/>
<path d="M25.083 50.7325H17.7695V60.8725H25.083V50.7325Z" stroke="#BD6F6D" stroke-width="0.198278" stroke-miterlimit="10"/>
<path d="M85.7055 62.7316H82.0093V88.133H85.7055V62.7316Z" stroke="#BD6F6D" stroke-width="0.198278" stroke-miterlimit="10"/>
<path d="M41.1528 62.7119H37.4565V88.1133H41.1528V62.7119Z" stroke="#BD6F6D" stroke-width="0.198278" stroke-miterlimit="10"/>
<path d="M72.2055 64.827H50.8779V88.133H72.2055V64.827Z" stroke="#BD6F6D" stroke-width="0.198278" stroke-miterlimit="10"/>
<path d="M71.5729 65.4595H51.708V70.3615H71.5729V65.4595Z" fill="#BD6F6D"/>
<path d="M60.7411 71.5085H52.2812V80.7985H60.7411V71.5085Z" fill="#BD6F6D"/>
<path d="M70.7426 71.5085H62.2827V80.7985H70.7426V71.5085Z" fill="#BD6F6D"/>
<path d="M60.7411 81.5109H52.2812V86.8675H60.7411V81.5109Z" fill="#BD6F6D"/>
<path d="M70.7426 81.5109H62.2827V86.8675H70.7426V81.5109Z" fill="#BD6F6D"/>
</g>
<defs>
<clipPath id="clip0">
<rect width="97.9997" height="98.6994" fill="white"/>
</clipPath>
</defs>
</svg>
