<svg width="84" height="112" viewBox="0 0 84 112" fill="none" xmlns="http://www.w3.org/2000/svg">
<g clip-path="url(#clip0)">
<path d="M82.9571 103.92V111.491H2.40137V103.997L4.97946 102.592H80.3047L82.9571 103.92Z" fill="white"/>
<path d="M13.6918 88.3879V94.6587H16.0567V88.3879H13.6918ZM16.6576 88.3879V94.6587H19.0273V88.3879H16.6576ZM28.3059 57.3297V63.6004H30.6724V57.3329L28.3059 57.3297ZM31.27 57.3297V63.6004H33.6397V57.3329L31.27 57.3297ZM31.27 57.3297V63.6004H33.6397V57.3329L31.27 57.3297ZM28.3059 57.3297V63.6004H30.6724V57.3329L28.3059 57.3297ZM16.6576 88.3879V94.6587H19.0273V88.3879H16.6576ZM13.6918 88.3879V94.6587H16.0567V88.3879H13.6918ZM13.6918 88.3879V94.6587H16.0567V88.3879H13.6918ZM16.6576 88.3879V94.6587H19.0273V88.3879H16.6576ZM28.3059 57.3297V63.6004H30.6724V57.3329L28.3059 57.3297ZM31.27 57.3297V63.6004H33.6397V57.3329L31.27 57.3297ZM31.27 57.3297V63.6004H33.6397V57.3329L31.27 57.3297ZM28.3059 57.3297V63.6004H30.6724V57.3329L28.3059 57.3297ZM16.6576 88.3879V94.6587H19.0273V88.3879H16.6576ZM13.6918 88.3879V94.6587H16.0567V88.3879H13.6918ZM13.6918 88.3879V94.6587H16.0567V88.3879H13.6918ZM16.6576 88.3879V94.6587H19.0273V88.3879H16.6576ZM28.3059 57.3297V63.6004H30.6724V57.3329L28.3059 57.3297ZM31.27 57.3297V63.6004H33.6397V57.3329L31.27 57.3297ZM43.7954 88.3055V94.5747H46.1651V88.3088L43.7954 88.3055ZM46.7644 88.3055V94.5747H49.1293V88.3088L46.7644 88.3055ZM31.27 57.3329V63.6037H33.6397V57.3329H31.27ZM28.3059 57.3329V63.6037H30.6724V57.3329H28.3059ZM16.6576 88.3879V94.6587H19.0273V88.3879H16.6576ZM13.6918 88.3879V94.6587H16.0567V88.3879H13.6918ZM46.7644 88.3055V94.5747H49.1293V88.3088L46.7644 88.3055ZM43.7954 88.3055V94.5747H46.1651V88.3088L43.7954 88.3055ZM13.6918 88.3879V94.6587H16.0567V88.3879H13.6918ZM16.6576 88.3879V94.6587H19.0273V88.3879H16.6576ZM28.3059 57.3297V63.6004H30.6724V57.3329L28.3059 57.3297ZM31.27 57.3297V63.6004H33.6397V57.3329L31.27 57.3297ZM43.7954 88.3055V94.5747H46.1651V88.3088L43.7954 88.3055ZM46.7644 88.3055V94.5747H49.1293V88.3088L46.7644 88.3055ZM31.27 57.3329V63.6037H33.6397V57.3329H31.27ZM28.3059 57.3329V63.6037H30.6724V57.3329H28.3059ZM16.6576 88.3879V94.6587H19.0273V88.3879H16.6576ZM13.6918 88.3879V94.6587H16.0567V88.3879H13.6918ZM46.7644 88.3055V94.5747H49.1293V88.3088L46.7644 88.3055ZM43.7954 88.3055V94.5747H46.1651V88.3088L43.7954 88.3055ZM13.6918 88.3879V94.6587H16.0567V88.3879H13.6918ZM16.6576 88.3879V94.6587H19.0273V88.3879H16.6576ZM28.3059 57.3297V63.6004H30.6724V57.3329L28.3059 57.3297ZM31.27 57.3297V63.6004H33.6397V57.3329L31.27 57.3297ZM43.7954 88.3055V94.5747H46.1651V88.3088L43.7954 88.3055ZM46.7644 88.3055V94.5747H49.1293V88.3088L46.7644 88.3055ZM31.27 57.3329V63.6037H33.6397V57.3329H31.27ZM28.3059 57.3329V63.6037H30.6724V57.3329H28.3059ZM16.6576 88.3879V94.6587H19.0273V88.3879H16.6576ZM13.6918 88.3879V94.6587H16.0567V88.3879H13.6918ZM46.7644 88.3055V94.5747H49.1293V88.3088L46.7644 88.3055ZM43.7954 88.3055V94.5747H46.1651V88.3088L43.7954 88.3055ZM13.6918 88.3879V94.6587H16.0567V88.3879H13.6918ZM16.6576 88.3879V94.6587H19.0273V88.3879H16.6576ZM43.7954 88.3055V94.5747H46.1651V88.3088L43.7954 88.3055ZM46.7644 88.3055V94.5747H49.1293V88.3088L46.7644 88.3055ZM16.6576 88.3879V94.6587H19.0273V88.3879H16.6576ZM13.6918 88.3879V94.6587H16.0567V88.3879H13.6918ZM46.7644 88.3055V94.5747H49.1293V88.3088L46.7644 88.3055ZM43.7954 88.3055V94.5747H46.1651V88.3088L43.7954 88.3055ZM13.6918 88.3879V94.6587H16.0567V88.3879H13.6918ZM16.6576 88.3879V94.6587H19.0273V88.3879H16.6576ZM43.7954 88.3055V94.5747H46.1651V88.3088L43.7954 88.3055ZM46.7644 88.3055V94.5747H49.1293V88.3088L46.7644 88.3055ZM46.7644 88.3055V94.5747H49.1293V88.3088L46.7644 88.3055ZM43.7954 88.3055V94.5747H46.1651V88.3088L43.7954 88.3055ZM16.6576 88.3879V94.6587H19.0273V88.3879H16.6576ZM13.6918 88.3879V94.6587H16.0567V88.3879H13.6918ZM13.6918 88.3879V94.6587H16.0567V88.3879H13.6918ZM16.6576 88.3879V94.6587H19.0273V88.3879H16.6576ZM43.7954 88.3055V94.5747H46.1651V88.3088L43.7954 88.3055ZM46.7644 88.3055V94.5747H49.1293V88.3088L46.7644 88.3055ZM46.7644 88.3055V94.5747H49.1293V88.3088L46.7644 88.3055ZM43.7954 94.5747H46.1651V88.3088H43.7954V94.5747ZM16.6576 88.3879V94.6587H19.0273V88.3879H16.6576ZM13.6918 94.6587H16.0567V88.3879H13.6918V94.6587ZM5.23387 70.7806V103.226H58.4466V70.8824L5.23387 70.7806ZM20.0353 95.7668V96.3516H12.6467V95.7474L11.9424 94.7912H12.7501V83.3674C12.7727 83.2576 12.8035 83.1496 12.8422 83.0443C13.0845 82.3514 13.9002 80.7829 16.3022 80.7829C18.8771 80.7829 19.7655 82.4467 19.9868 82.9959C20.0304 83.1057 20.0482 83.1703 20.0482 83.1703V94.8008H20.5958L20.0353 95.7668ZM38.7733 83.7196L38.4357 84.4303H24.5195L24.232 83.6226V83.2802H38.7782L38.7733 83.7196ZM50.1405 95.6844V96.2692H42.7487V95.665L42.0476 94.7088H42.8553V83.285C42.8781 83.1752 42.9089 83.0673 42.9474 82.962C43.1897 82.2674 44.0054 80.7005 46.4074 80.7005C48.9807 80.7005 49.8691 82.3643 50.092 82.9135C50.1357 83.0233 50.1534 83.088 50.1534 83.088V94.7185H50.6994L50.1405 95.6844ZM46.7596 94.5779H49.1245V88.3088H46.7644L46.7596 94.5779ZM43.7906 94.5779H46.1603V88.3088H43.7954L43.7906 94.5779ZM16.6528 94.6619H19.0225V88.3879H16.6576L16.6528 94.6619ZM13.687 94.6619H16.0567V88.3879H13.6918L13.687 94.6619ZM13.687 88.3911V94.6619H16.0567V88.3879L13.687 88.3911ZM16.6528 88.3911V94.6619H19.0225V88.3879L16.6528 88.3911ZM43.7906 88.3088V94.5779H46.1603V88.3088H43.7906ZM46.7596 88.3088V94.5779H49.1245V88.3088H46.7596ZM46.7596 88.3088V94.5779H49.1245V88.3088H46.7596ZM43.7906 88.3088V94.5779H46.1603V88.3088H43.7906ZM16.6528 88.3911V94.6619H19.0225V88.3879L16.6528 88.3911ZM13.687 88.3911V94.6619H16.0567V88.3879L13.687 88.3911ZM43.7906 88.3088V94.5779H46.1603V88.3088H43.7906ZM46.7596 88.3088V94.5779H49.1245V88.3088H46.7596ZM13.6918 88.3879V94.6587H16.0567V88.3879H13.6918ZM16.6576 88.3879V94.6587H19.0273V88.3879H16.6576ZM46.7644 88.3055V94.5747H49.1293V88.3088L46.7644 88.3055ZM43.7954 88.3055V94.5747H46.1651V88.3088L43.7954 88.3055ZM16.6576 88.3879V94.6587H19.0273V88.3879H16.6576ZM13.6918 88.3879V94.6587H16.0567V88.3879H13.6918ZM13.6918 88.3879V94.6587H16.0567V88.3879H13.6918ZM16.6576 88.3879V94.6587H19.0273V88.3879H16.6576ZM43.7954 88.3055V94.5747H46.1651V88.3088L43.7954 88.3055ZM46.7644 88.3055V94.5747H49.1293V88.3088L46.7644 88.3055ZM28.3059 57.3329V63.6037H30.6724V57.3329H28.3059ZM31.27 57.3329V63.6037H33.6397V57.3329H31.27ZM31.27 57.3329V63.6037H33.6397V57.3329H31.27ZM28.3059 57.3329V63.6037H30.6724V57.3329H28.3059ZM28.3059 57.3329V63.6037H30.6724V57.3329H28.3059ZM31.27 57.3329V63.6037H33.6397V57.3329H31.27ZM31.27 57.3329V63.6037H33.6397V57.3329H31.27ZM28.3059 57.3329V63.6037H30.6724V57.3329H28.3059ZM28.3059 57.3329V63.6037H30.6724V57.3329H28.3059ZM31.27 57.3329V63.6037H33.6397V57.3329H31.27ZM31.27 57.3329V63.6037H33.6397V57.3329H31.27ZM28.3059 63.6037H30.6724V57.3329H28.3059V63.6037ZM55.2062 56.0035L54.3889 55.7579H41.6842L30.934 35.1122L21.6458 56.5381L3.92383 56.2894V68.482H58.4466V53.8066L55.2062 56.0035ZM34.6526 64.7086V65.2885H27.2591V64.6827L26.5564 63.7329H27.3641V52.3092C27.3868 52.1993 27.4175 52.0913 27.4562 51.9861C27.6985 51.2915 28.511 49.7246 30.9147 49.7246C33.4879 49.7246 34.3763 51.3884 34.5976 51.9392C34.6228 51.9958 34.6438 52.0541 34.6606 52.1137V63.7361H35.2082L34.6526 64.7086ZM31.27 63.6037H33.6397V57.3329H31.27V63.6037ZM28.3059 63.6037H30.6724V57.3329H28.3059V63.6037ZM28.3059 57.3329V63.6037H30.6724V57.3329H28.3059ZM31.27 57.3329V63.6037H33.6397V57.3329H31.27ZM31.27 57.3329V63.6037H33.6397V57.3329H31.27ZM28.3059 57.3329V63.6037H30.6724V57.3329H28.3059ZM28.3059 57.3329V63.6037H30.6724V57.3329H28.3059ZM31.27 57.3329V63.6037H33.6397V57.3329H31.27ZM31.27 57.3329V63.6037H33.6397V57.3329H31.27ZM28.3059 57.3329V63.6037H30.6724V57.3329H28.3059ZM28.3059 57.3329V63.6037H30.6724V57.3329H28.3059ZM31.27 57.3329V63.6037H33.6397V57.3329H31.27ZM46.7644 88.3088V94.5779H49.1293V88.3088H46.7644ZM43.7954 88.3088V94.5779H46.1651V88.3088H43.7954ZM31.27 57.3329V63.6037H33.6397V57.3329H31.27ZM28.3059 57.3329V63.6037H30.6724V57.3329H28.3059ZM16.6576 88.3879V94.6587H19.0273V88.3879H16.6576ZM13.6918 88.3879V94.6587H16.0567V88.3879H13.6918ZM43.7954 88.3055V94.5747H46.1651V88.3088L43.7954 88.3055ZM46.7644 88.3055V94.5747H49.1293V88.3088L46.7644 88.3055ZM13.6918 88.3879V94.6587H16.0567V88.3879H13.6918ZM16.6576 88.3879V94.6587H19.0273V88.3879H16.6576ZM28.3059 57.3297V63.6004H30.6724V57.3329L28.3059 57.3297ZM31.27 57.3297V63.6004H33.6397V57.3329L31.27 57.3297ZM46.7644 88.3088V94.5779H49.1293V88.3088H46.7644ZM43.7954 88.3088V94.5779H46.1651V88.3088H43.7954ZM31.27 57.3329V63.6037H33.6397V57.3329H31.27ZM28.3059 57.3329V63.6037H30.6724V57.3329H28.3059ZM16.6576 88.3879V94.6587H19.0273V88.3879H16.6576ZM13.6918 88.3879V94.6587H16.0567V88.3879H13.6918ZM43.7954 88.3055V94.5747H46.1651V88.3088L43.7954 88.3055ZM46.7644 88.3055V94.5747H49.1293V88.3088L46.7644 88.3055ZM13.6918 88.3879V94.6587H16.0567V88.3879H13.6918ZM16.6576 88.3879V94.6587H19.0273V88.3879H16.6576ZM28.3059 57.3297V63.6004H30.6724V57.3329L28.3059 57.3297ZM31.27 57.3297V63.6004H33.6397V57.3329L31.27 57.3297ZM46.7644 88.3088V94.5779H49.1293V88.3088H46.7644ZM43.7954 88.3088V94.5779H46.1651V88.3088H43.7954ZM31.27 57.3329V63.6037H33.6397V57.3329H31.27ZM28.3059 57.3329V63.6037H30.6724V57.3329H28.3059ZM16.6576 88.3879V94.6587H19.0273V88.3879H16.6576ZM13.6918 88.3879V94.6587H16.0567V88.3879H13.6918ZM43.7954 88.3055V94.5747H46.1651V88.3088L43.7954 88.3055ZM46.7644 88.3055V94.5747H49.1293V88.3088L46.7644 88.3055ZM13.6918 88.3879V94.6587H16.0567V88.3879H13.6918ZM16.6576 88.3879V94.6587H19.0273V88.3879H16.6576ZM28.3059 57.3297V63.6004H30.6724V57.3329L28.3059 57.3297ZM31.27 57.3297V63.6004H33.6397V57.3329L31.27 57.3297ZM46.7644 88.3088V94.5779H49.1293V88.3088H46.7644ZM43.7954 88.3088V94.5779H46.1651V88.3088H43.7954ZM31.27 57.3329V63.6037H33.6397V57.3329H31.27ZM28.3059 57.3329V63.6037H30.6724V57.3329H28.3059ZM16.6576 88.3879V94.6587H19.0273V88.3879H16.6576ZM13.6918 88.3879V94.6587H16.0567V88.3879H13.6918ZM13.6918 88.3879V94.6587H16.0567V88.3879H13.6918ZM16.6576 88.3879V94.6587H19.0273V88.3879H16.6576ZM28.3059 57.3297V63.6004H30.6724V57.3329L28.3059 57.3297ZM31.27 57.3297V63.6004H33.6397V57.3329L31.27 57.3297ZM31.27 57.3297V63.6004H33.6397V57.3329L31.27 57.3297ZM28.3059 57.3297V63.6004H30.6724V57.3329L28.3059 57.3297ZM16.6576 88.3879V94.6587H19.0273V88.3879H16.6576ZM13.6918 88.3879V94.6587H16.0567V88.3879H13.6918ZM28.3059 57.3297V63.6004H30.6724V57.3329L28.3059 57.3297ZM31.27 57.3297V63.6004H33.6397V57.3329L31.27 57.3297ZM31.27 57.3297V63.6004H33.6397V57.3329L31.27 57.3297ZM28.3059 57.3297V63.6004H30.6724V57.3329L28.3059 57.3297Z" stroke="white" stroke-width="0.143706" stroke-miterlimit="10"/>
<path d="M66.8359 88.3088V94.5779H69.2008V88.3088H66.8359ZM69.8017 88.3088V94.5779H72.1714V88.3088H69.8017ZM69.8017 88.3088V94.5779H72.1714V88.3088H69.8017ZM66.8359 88.3088V94.5779H69.2008V88.3088H66.8359ZM66.8359 88.3088V94.5779H69.2008V88.3088H66.8359ZM69.8017 88.3088V94.5779H72.1714V88.3088H69.8017ZM69.8017 88.3088V94.5779H72.1714V88.3088H69.8017ZM66.8359 88.3088V94.5779H69.2008V88.3088H66.8359ZM66.8359 88.3088V94.5779H69.2008V88.3088H66.8359ZM66.8521 57.32V63.5907H69.2185V57.32H66.8521ZM69.8017 88.3088V94.5779H72.1714V88.3088H69.8017ZM69.8178 57.32V63.5907H72.1843V57.32H69.8178ZM69.8178 57.32V63.5907H72.1843V57.32H69.8178ZM66.8521 57.32V63.5907H69.2185V57.32H66.8521ZM69.8017 88.3088V94.5779H72.1714V88.3088H69.8017ZM66.8359 88.3088V94.5779H69.2008V88.3088H66.8359ZM66.8359 88.3088V94.5779H69.2008V88.3088H66.8359ZM69.8017 88.3088V94.5779H72.1714V88.3088H69.8017ZM69.8017 88.3088V94.5779H72.1714V88.3088H69.8017ZM66.8359 88.3088V94.5779H69.2008V88.3088H66.8359ZM66.8359 88.3088V94.5779H69.2008V88.3088H66.8359ZM69.8017 88.3088V94.5779H72.1714V88.3088H69.8017ZM69.8017 88.3088V94.5779H72.1714V88.3088H69.8017ZM66.8359 88.3088V94.5779H69.2008V88.3088H66.8359ZM66.8359 88.3088V94.5779H69.2008V88.3088H66.8359ZM69.8017 88.3088V94.5779H72.1714V88.3088H69.8017ZM69.8017 88.3088V94.5779H72.1714V88.3088H69.8017ZM66.8359 88.3088V94.5779H69.2008V88.3088H66.8359ZM66.8359 88.3088V94.5779H69.2008V88.3088H66.8359ZM69.8017 88.3088V94.5779H72.1714V88.3088H69.8017ZM69.8017 88.3088V94.5779H72.1714V88.3088H69.8017ZM66.8359 94.5779H69.2008V88.3088H66.8359V94.5779ZM58.4458 70.8824V102.592H80.253V70.8824H58.4458ZM73.1842 95.6845V96.2692H65.7892V95.6651L65.0865 94.7088H65.8942V83.285C65.917 83.1753 65.9477 83.0673 65.9862 82.962C66.2285 82.2674 67.0443 80.7005 69.4463 80.7005C72.0196 80.7005 72.908 82.3643 73.1309 82.9135C73.1745 83.0234 73.1923 83.088 73.1923 83.088V94.7185H73.7237L73.1842 95.6845ZM69.8017 94.5779H72.1714V88.3088H69.8017V94.5779ZM66.8359 94.5779H69.2008V88.3088H66.8359V94.5779ZM66.8359 88.3088V94.5779H69.2008V88.3088H66.8359ZM69.8017 88.3088V94.5779H72.1714V88.3088H69.8017ZM69.8017 88.3088V94.5779H72.1714V88.3088H69.8017ZM66.8359 88.3088V94.5779H69.2008V88.3088H66.8359ZM66.8359 88.3088V94.5779H69.2008V88.3088H66.8359ZM69.8017 88.3088V94.5779H72.1714V88.3088H69.8017ZM69.8017 88.3088V94.5779H72.1714V88.3088H69.8017ZM66.8359 88.3088V94.5779H69.2008V88.3088H66.8359ZM66.8359 88.3088V94.5779H69.2008V88.3088H66.8359ZM69.8017 88.3088V94.5779H72.1714V88.3088H69.8017ZM69.8017 88.3088V94.5779H72.1714V88.3088H69.8017ZM66.8359 88.3088V94.5779H69.2008V88.3088H66.8359ZM66.8359 88.3088V94.5779H69.2008V88.3088H66.8359ZM69.8017 88.3088V94.5779H72.1714V88.3088H69.8017ZM66.8521 57.32V63.5907H69.2185V57.32H66.8521ZM69.8178 57.32V63.5907H72.1843V57.32H69.8178ZM69.8178 57.32V63.5907H72.1843V57.32H69.8178ZM66.8521 57.32V63.5907H69.2185V57.32H66.8521ZM66.8521 57.32V63.5907H69.2185V57.32H66.8521ZM69.8178 57.32V63.5907H72.1843V57.32H69.8178ZM69.8178 57.32V63.5907H72.1843V57.32H69.8178ZM66.8521 57.32V63.5907H69.2185V57.32H66.8521ZM66.8521 57.32V63.5907H69.2185V57.32H66.8521ZM69.8178 57.32V63.5907H72.1843V57.32H69.8178ZM69.8178 57.32V63.5907H72.1843V57.32H69.8178ZM66.8521 57.32V63.5907H69.2185V57.32H66.8521ZM66.8521 57.32V63.5907H69.2185V57.32H66.8521ZM69.8178 57.32V63.5907H72.1843V57.32H69.8178ZM69.8178 57.32V63.5907H72.1843V57.32H69.8178ZM66.8521 63.5907H69.2185V57.32H66.8521V63.5907ZM58.4523 46.04V68.482H80.2594V46.04H58.4523ZM73.2068 64.6956V65.2885H65.8086V64.6827L65.1059 63.7264H65.9136V52.2962C65.9361 52.1864 65.9669 52.0784 66.0056 51.9732V51.9732C66.2495 51.2786 67.0653 49.7117 69.4657 49.7117C72.0373 49.7117 72.9258 51.3755 73.1471 51.9263C73.1721 51.9831 73.1937 52.0414 73.2117 52.1008V63.7232H73.7593L73.2068 64.6956ZM69.8243 63.5907H72.1908V57.32H69.8178L69.8243 63.5907ZM66.8585 63.5907H69.225V57.32H66.8521L66.8585 63.5907ZM66.8585 57.32V63.5907H69.225V57.32H66.8585ZM69.8243 57.32V63.5907H72.1908V57.32H69.8243ZM69.8243 57.32V63.5907H72.1908V57.32H69.8243ZM66.8585 57.32V63.5907H69.225V57.32H66.8585ZM66.8585 57.32V63.5907H69.225V57.32H66.8585ZM69.8243 57.32V63.5907H72.1908V57.32H69.8243ZM69.8243 57.32V63.5907H72.1908V57.32H69.8243ZM66.8585 57.32V63.5907H69.225V57.32H66.8585ZM66.8585 57.32V63.5907H69.225V57.32H66.8585ZM69.8243 57.32V63.5907H72.1908V57.32H69.8243ZM58.4458 37.3107V43.5427H80.253V37.3107H58.4458ZM69.8178 57.32V63.5907H72.1843V57.32H69.8178ZM66.8521 57.32V63.5907H69.2185V57.32H66.8521ZM66.8521 57.32V63.5907H69.2185V57.32H66.8521ZM69.8178 57.32V63.5907H72.1843V57.32H69.8178ZM69.8178 57.32V63.5907H72.1843V57.32H69.8178ZM69.8017 88.3088V94.5779H72.1714V88.3088H69.8017ZM66.8521 57.32V63.5907H69.2185V57.32H66.8521ZM66.8359 88.3088V94.5779H69.2008V88.3088H66.8359ZM66.8359 88.3088V94.5779H69.2008V88.3088H66.8359ZM69.8017 88.3088V94.5779H72.1714V88.3088H69.8017ZM66.8521 57.32V63.5907H69.2185V57.32H66.8521ZM69.8178 57.32V63.5907H72.1843V57.32H69.8178ZM69.8178 57.32V63.5907H72.1843V57.32H69.8178ZM69.8017 88.3088V94.5779H72.1714V88.3088H69.8017ZM66.8521 57.32V63.5907H69.2185V57.32H66.8521ZM66.8359 88.3088V94.5779H69.2008V88.3088H66.8359ZM66.8359 88.3088V94.5779H69.2008V88.3088H66.8359ZM69.8017 88.3088V94.5779H72.1714V88.3088H69.8017ZM69.8017 88.3088V94.5779H72.1714V88.3088H69.8017ZM66.8359 88.3088V94.5779H69.2008V88.3088H66.8359ZM66.8359 88.3088V94.5779H69.2008V88.3088H66.8359ZM69.8017 88.3088V94.5779H72.1714V88.3088H69.8017ZM69.8017 88.3088V94.5779H72.1714V88.3088H69.8017ZM66.8359 88.3088V94.5779H69.2008V88.3088H66.8359Z" stroke="white" stroke-width="0.143706" stroke-miterlimit="10"/>
<path d="M37.7989 83.2867H25.1184V83.235C25.1184 83.235 25.897 78.3163 31.5184 78.3163C36.8943 78.3163 37.7375 82.8958 37.7989 83.2867Z" fill="white"/>
<path d="M37.8021 84.4319H25.1184V102.514H37.8021V84.4319Z" stroke="white" stroke-width="0.143706" stroke-miterlimit="10"/>
<path d="M38.7759 83.2867V83.7212L38.4383 84.432H24.5172L24.2329 83.6291V83.2867H38.7759Z" stroke="white" stroke-width="0.143706" stroke-miterlimit="10"/>
<path d="M31.4597 84.6387H26.0015V102.514H31.4597V84.6387Z" stroke="white" stroke-width="0.143706" stroke-miterlimit="10"/>
<path d="M37.1384 84.6387H31.6802V102.514H37.1384V84.6387Z" stroke="white" stroke-width="0.143706" stroke-miterlimit="10"/>
<path d="M30.3474 85.0297H26.9907V92.4053H30.3474V85.0297Z" fill="white"/>
<path d="M35.9478 85.0297H32.5911V92.4053H35.9478V85.0297Z" fill="white"/>
<path d="M30.3474 93.5765H26.9907V95.6651H30.3474V93.5765Z" fill="white"/>
<path d="M30.3474 96.6796H26.9907V101.188H30.3474V96.6796Z" fill="white"/>
<path d="M35.9478 93.5765H32.5911V95.6651H35.9478V93.5765Z" fill="white"/>
<path d="M35.9478 96.6796H32.5911V101.188H35.9478V96.6796Z" fill="white"/>
<path d="M69.8176 57.32V63.5908H72.1841V57.32H69.8176ZM66.8518 63.5908H69.2183V57.32H66.8518V63.5908Z" stroke="white" stroke-width="0.143706" stroke-miterlimit="10"/>
<path d="M73.1361 51.9231C72.9148 51.3722 72.0264 49.7084 69.4547 49.7084C67.0543 49.7084 66.2386 51.2769 65.9947 51.9699C65.9559 52.0752 65.9252 52.1831 65.9026 52.293V63.7167H73.2007V52.0975C73.1827 52.0381 73.1612 51.9799 73.1361 51.9231V51.9231ZM69.2189 63.5907H66.8524V57.3199H69.2189V63.5907ZM69.2189 56.6173H66.8524V52.818C66.8501 52.5895 66.8789 52.3618 66.938 52.1411C67.3612 50.6146 69.2189 50.7374 69.2189 50.7374V56.6173ZM72.1847 63.5907H69.8182V57.3199H72.1847V63.5907ZM72.1847 56.6173H69.8182V50.7374C69.8182 50.7374 71.6758 50.6146 72.0974 52.1411C72.158 52.3616 72.1873 52.5894 72.1847 52.818V56.6173Z" stroke="white" stroke-width="0.143706" stroke-miterlimit="10"/>
<path d="M74.2945 51.2043L73.1363 51.9231C72.915 51.3723 72.0266 49.7085 69.455 49.7085C67.0546 49.7085 66.2388 51.277 65.9949 51.97L64.9255 51.2027C64.9255 51.2027 66.7234 48.3677 69.5503 48.3677C72.3771 48.3677 74.2945 51.2043 74.2945 51.2043Z" stroke="white" stroke-width="0.143706" stroke-miterlimit="10"/>
<path d="M69.2184 50.7374V56.6173H66.8519V52.818C66.8496 52.5895 66.8784 52.3618 66.9375 52.1411C67.3608 50.6146 69.2184 50.7374 69.2184 50.7374Z" stroke="white" stroke-width="0.143706" stroke-miterlimit="10"/>
<path d="M69.2199 57.32H66.8518V63.5908H69.2199V57.32Z" stroke="white" stroke-width="0.143706" stroke-miterlimit="10"/>
<path d="M72.1864 57.32H69.8184V63.5908H72.1864V57.32Z" stroke="white" stroke-width="0.143706" stroke-miterlimit="10"/>
<path d="M72.1848 52.818V56.6173H69.8184V50.7374C69.8184 50.7374 71.676 50.6146 72.0976 52.1411C72.1581 52.3616 72.1875 52.5894 72.1848 52.818V52.818Z" stroke="white" stroke-width="0.143706" stroke-miterlimit="10"/>
<path d="M73.7463 63.72L73.1987 64.6957V65.2821H65.8052V64.6763L65.1025 63.72H73.7463Z" stroke="white" stroke-width="0.143706" stroke-miterlimit="10"/>
<path d="M31.2698 57.3329V63.6037H33.6395V57.3329H31.2698ZM28.3057 63.6037H30.6722V57.3329H28.3057V63.6037Z" stroke="white" stroke-width="0.143706" stroke-miterlimit="10"/>
<path d="M34.5892 51.936C34.3679 51.3852 33.4795 49.7214 30.9062 49.7214C28.5026 49.7214 27.6901 51.2931 27.4478 51.9829C27.4091 52.0881 27.3784 52.1961 27.3557 52.3059V63.7297H34.6522V52.1105C34.6354 52.0509 34.6143 51.9926 34.5892 51.936V51.936ZM30.672 63.6037H28.3055V57.3329H30.672V63.6037ZM30.672 56.6302H28.3055V52.8309C28.3032 52.6025 28.332 52.3748 28.3911 52.1541C28.8144 50.6276 30.672 50.7503 30.672 50.7503V56.6302ZM33.6394 63.6037H31.2697V57.3329H33.6394V63.6037ZM33.6394 56.6302H31.2697V50.7503C31.2697 50.7503 33.1273 50.6276 33.5506 52.1541C33.6125 52.3743 33.6424 52.6022 33.6394 52.8309V56.6302Z" stroke="white" stroke-width="0.143706" stroke-miterlimit="10"/>
<path d="M35.7475 51.2188L34.5893 51.9361C34.368 51.3852 33.4796 49.7214 30.9063 49.7214C28.5027 49.7214 27.6902 51.2931 27.4479 51.9829L26.3801 51.214C26.3801 51.214 28.1764 48.3774 31.0032 48.3774C33.8301 48.3774 35.7475 51.2188 35.7475 51.2188Z" stroke="white" stroke-width="0.143706" stroke-miterlimit="10"/>
<path d="M30.6716 50.7503V56.6302H28.3051V52.8309C28.3027 52.6025 28.3315 52.3748 28.3907 52.1541C28.8171 50.6276 30.6716 50.7503 30.6716 50.7503Z" stroke="white" stroke-width="0.143706" stroke-miterlimit="10"/>
<path d="M30.6738 57.3329H28.3057V63.6037H30.6738V57.3329Z" stroke="white" stroke-width="0.143706" stroke-miterlimit="10"/>
<path d="M33.6379 57.3329H31.2698V63.6037H33.6379V57.3329Z" stroke="white" stroke-width="0.143706" stroke-miterlimit="10"/>
<path d="M33.6395 52.8309V56.6302H31.2698V50.7503C31.2698 50.7503 33.1274 50.6276 33.5506 52.1541C33.6125 52.3743 33.6425 52.6022 33.6395 52.8309Z" stroke="white" stroke-width="0.143706" stroke-miterlimit="10"/>
<path d="M35.1983 63.7329L34.6539 64.7086V65.295H27.2588V64.6892L26.5562 63.7329H35.1983Z" stroke="white" stroke-width="0.143706" stroke-miterlimit="10"/>
<path d="M20.5884 94.7928L20.0408 95.7684V96.3532H12.6442V95.7491L11.9431 94.7928H20.5884Z" stroke="white" stroke-width="0.143706" stroke-miterlimit="10"/>
<path d="M16.059 88.3912H13.6909V94.6619H16.059V88.3912Z" stroke="white" stroke-width="0.143706" stroke-miterlimit="10"/>
<path d="M19.0256 88.3912H16.6575V94.6619H19.0256V88.3912Z" stroke="white" stroke-width="0.143706" stroke-miterlimit="10"/>
<path d="M19.9784 82.9943C19.7571 82.4451 18.8687 80.7813 16.2938 80.7813C13.8918 80.7813 13.0761 82.353 12.8338 83.0428C12.7951 83.1481 12.7643 83.256 12.7417 83.3659V94.7912H20.0398V83.1607C20.0398 83.1607 20.0221 83.1042 19.9784 82.9943ZM16.0564 94.662H13.6915V88.388H16.0564V94.662ZM16.0564 87.6885H13.6915V83.8909C13.6889 83.6623 13.7182 83.4345 13.7787 83.214C14.2036 81.6859 16.0612 81.8087 16.0612 81.8087L16.0564 87.6885ZM19.0222 94.662H16.6573V88.388H19.027L19.0222 94.662ZM19.0222 87.6885H16.6573V81.8087C16.6573 81.8087 18.5149 81.6859 18.9398 83.214C19.0003 83.4345 19.0297 83.6623 19.027 83.8909L19.0222 87.6885Z" stroke="white" stroke-width="0.143706" stroke-miterlimit="10"/>
<path d="M21.1329 82.2771L19.9779 82.9943C19.7566 82.4451 18.8682 80.7813 16.2933 80.7813C13.8913 80.7813 13.0755 82.353 12.8332 83.0428L11.7671 82.2739C11.7671 82.2739 13.5634 79.4373 16.3918 79.4373C19.2203 79.4373 21.1329 82.2771 21.1329 82.2771Z" stroke="white" stroke-width="0.143706" stroke-miterlimit="10"/>
<path d="M16.056 81.8086V87.6885H13.6911V83.8908C13.6884 83.6622 13.7178 83.4344 13.7783 83.214C14.2031 81.6859 16.056 81.8086 16.056 81.8086Z" stroke="white" stroke-width="0.143706" stroke-miterlimit="10"/>
<path d="M16.059 88.3912H13.6909V94.6619H16.059V88.3912Z" stroke="white" stroke-width="0.143706" stroke-miterlimit="10"/>
<path d="M19.0256 88.3912H16.6575V94.6619H19.0256V88.3912Z" stroke="white" stroke-width="0.143706" stroke-miterlimit="10"/>
<path d="M19.0272 83.8908V87.6885H16.6575V81.8086C16.6575 81.8086 18.5151 81.6859 18.94 83.214C19.0005 83.4344 19.0298 83.6622 19.0272 83.8908V83.8908Z" stroke="white" stroke-width="0.143706" stroke-miterlimit="10"/>
<path d="M46.1635 88.3088H43.7954V94.578H46.1635V88.3088Z" stroke="white" stroke-width="0.143706" stroke-miterlimit="10"/>
<path d="M49.1306 88.3088H46.7642V94.578H49.1306V88.3088Z" stroke="white" stroke-width="0.143706" stroke-miterlimit="10"/>
<path d="M50.0837 82.9104C49.8608 82.3611 48.9723 80.6973 46.3991 80.6973C43.9971 80.6973 43.1813 82.2674 42.939 82.9588C42.9005 83.0641 42.8697 83.1721 42.8469 83.2819V94.7056H50.1402V83.0751C50.1402 83.0751 50.1273 83.0202 50.0837 82.9104ZM46.1648 94.578H43.7951V88.3088H46.1648V94.578ZM46.1648 87.6062H43.7951V83.8069C43.7925 83.5783 43.8218 83.3505 43.8824 83.13C44.3072 81.6035 46.1648 81.7247 46.1648 81.7247V87.6062ZM49.129 94.578H46.7641V88.3088H49.129V94.578ZM49.129 87.6062H46.7641V81.7247C46.7641 81.7247 48.6202 81.6035 49.045 83.13C49.1028 83.3509 49.131 83.5785 49.129 83.8069V87.6062Z" stroke="white" stroke-width="0.143706" stroke-miterlimit="10"/>
<path d="M46.1646 81.7246V87.6061H43.7948V83.8068C43.7922 83.5782 43.8215 83.3504 43.8821 83.13C44.3069 81.6035 46.1646 81.7246 46.1646 81.7246Z" stroke="white" stroke-width="0.143706" stroke-miterlimit="10"/>
<path d="M51.2372 82.1931L50.0839 82.9104C49.8609 82.3611 48.9725 80.6973 46.3992 80.6973C43.9972 80.6973 43.1815 82.2674 42.9392 82.9588L41.873 82.1899C41.873 82.1899 43.6661 79.355 46.4978 79.355C49.3295 79.355 51.2372 82.1931 51.2372 82.1931Z" stroke="white" stroke-width="0.143706" stroke-miterlimit="10"/>
<path d="M46.1635 88.3088H43.7954V94.578H46.1635V88.3088Z" stroke="white" stroke-width="0.143706" stroke-miterlimit="10"/>
<path d="M49.1306 88.3088H46.7642V94.578H49.1306V88.3088Z" stroke="white" stroke-width="0.143706" stroke-miterlimit="10"/>
<path d="M49.129 83.8068V87.6061H46.7642V81.7246C46.7642 81.7246 48.6202 81.6035 49.045 83.13C49.1028 83.3509 49.131 83.5785 49.129 83.8068Z" stroke="white" stroke-width="0.143706" stroke-miterlimit="10"/>
<path d="M50.6905 94.7087L50.1445 95.6844V96.2692H42.7495V95.665L42.0452 94.7087H50.6905Z" stroke="white" stroke-width="0.143706" stroke-miterlimit="10"/>
<path d="M69.8017 88.3088V94.578H72.1714V88.3088H69.8017ZM66.8359 94.578H69.2008V88.3088H66.8359V94.578Z" stroke="white" stroke-width="0.143706" stroke-miterlimit="10"/>
<path d="M73.1235 82.9104C72.9006 82.3611 72.0121 80.6973 69.4389 80.6973C67.0368 80.6973 66.2211 82.2674 65.9788 82.9588C65.9403 83.0641 65.9095 83.1721 65.8867 83.2819V94.7056H73.1849V83.0751C73.1849 83.0751 73.1671 83.0202 73.1235 82.9104ZM69.2014 94.578H66.8365V88.3088H69.2014V94.578ZM69.2014 87.6062H66.8365V83.8069C66.8339 83.5783 66.8633 83.3505 66.9238 83.13C67.3486 81.6035 69.2046 81.7247 69.2046 81.7247L69.2014 87.6062ZM72.1688 94.578H69.8023V88.3088H72.172L72.1688 94.578ZM72.1688 87.6062H69.8023V81.7247C69.8023 81.7247 71.66 81.6035 72.0848 83.13C72.1453 83.3505 72.1747 83.5783 72.172 83.8069L72.1688 87.6062Z" stroke="white" stroke-width="0.143706" stroke-miterlimit="10"/>
<path d="M74.277 82.1931L73.1237 82.9104C72.9007 82.3611 72.0123 80.6973 69.439 80.6973C67.037 80.6973 66.2213 82.2674 65.979 82.9588L64.9128 82.1899C64.9128 82.1899 66.7059 79.355 69.5376 79.355C72.3693 79.355 74.277 82.1931 74.277 82.1931Z" stroke="white" stroke-width="0.143706" stroke-miterlimit="10"/>
<path d="M69.201 81.7246V87.6061H66.8361V83.8068C66.8334 83.5782 66.8628 83.3504 66.9233 83.13C67.3482 81.6035 69.201 81.7246 69.201 81.7246Z" stroke="white" stroke-width="0.143706" stroke-miterlimit="10"/>
<path d="M69.2024 88.3088H66.8359V94.578H69.2024V88.3088Z" stroke="white" stroke-width="0.143706" stroke-miterlimit="10"/>
<path d="M72.1706 88.3088H69.8025V94.578H72.1706V88.3088Z" stroke="white" stroke-width="0.143706" stroke-miterlimit="10"/>
<path d="M72.1722 83.8068V87.6061H69.8025V81.7246C69.8025 81.7246 71.6601 81.6035 72.085 83.13C72.1455 83.3504 72.1749 83.5782 72.1722 83.8068V83.8068Z" stroke="white" stroke-width="0.143706" stroke-miterlimit="10"/>
<path d="M73.7303 94.7087L73.1843 95.6844V96.2692H65.7892V95.665L65.085 94.7087H73.7303Z" stroke="white" stroke-width="0.143706" stroke-miterlimit="10"/>
<path d="M82.5681 68.482L82.3322 69.6321H81.6118L81.2193 70.8824H4.94099L4.54846 69.6822H3.76986L3.59863 68.482H82.5681Z" fill="white"/>
<path d="M82.4883 43.5427V44.8689H81.7065L81.2784 46.04H57.6669L57.1984 44.7914H56.4182V43.5427H82.4883Z" fill="white"/>
<path d="M82.4886 35.256V36.1267H81.6308L81.2981 37.3108H57.7172L57.2488 36.1396H56.5203V35.256H82.4886Z" fill="white"/>
<path d="M83.9993 34.5275L83.3483 35.256H55.7146L69.857 0.0252686L83.9993 34.5275Z" fill="white"/>
<path d="M56.4188 43.5427V44.7914H57.199L57.6675 46.04H58.4461V56.7336H39.5546L30.9335 35.1122L21.6453 56.7336H0.0981445L8.60779 38.7807H27.6947L30.9706 31.6005L34.0172 38.8598H58.4461V43.5427H56.4188Z" fill="white"/>
</g>
<defs>
<clipPath id="clip0">
<rect width="84.0005" height="111.516" fill="white"/>
</clipPath>
</defs>
</svg>
