<svg width="81" height="78" viewBox="0 0 81 78" fill="none" xmlns="http://www.w3.org/2000/svg">
<path d="M81 70.1574V77.7692H0V70.2354L2.59069 68.8225H78.3313L81 70.1574Z" fill="#D7A9A7"/>
<path d="M46.985 54.4633H44.6055V60.7661H46.985V54.4633Z" stroke="#D7A9A7" stroke-width="0.144385" stroke-miterlimit="10"/>
<path d="M13.7327 54.5457H11.3516V60.8501H13.7327V54.5457Z" stroke="#D7A9A7" stroke-width="0.144385" stroke-miterlimit="10"/>
<path d="M44.0023 54.4633H41.6211V60.7661H44.0023V54.4633Z" stroke="#D7A9A7" stroke-width="0.144385" stroke-miterlimit="10"/>
<path d="M52.9397 22.8369L52.2738 21.7375L39.8726 22.6794L38.4984 21.895L38.8915 23.1894L38.4984 24.0144H37.8309L28.6879 0.980957L19.3485 22.5219H18.7199L18.3674 21.856L17.5423 22.9539L11.3295 25.0083L2.85254 22.9539L2.89152 23.8211L14.4156 28.7743L13.9722 29.8608L2.9841 25.9096L3.01009 26.4731L4.29163 28.5129L3.19201 31.3646L3.95054 32.9334L3.5331 34.3983V34.5298H56.3539V19.7757L52.9397 22.8369ZM32.4286 30.7362V31.3257H24.9928V30.7167L24.2862 29.7552H25.0902V18.2702C25.0902 18.2702 25.113 18.1435 25.1828 17.947C25.4264 17.2487 26.2451 15.6685 28.662 15.6685C31.2494 15.6685 32.1427 17.3413 32.3653 17.8951C32.4107 18.0055 32.4286 18.0705 32.4286 18.0705V29.7552H32.9776L32.4286 30.7362Z" stroke="#D7A9A7" stroke-width="0.144385" stroke-miterlimit="10"/>
<path d="M16.7151 54.5457H14.334V60.8501H16.7151V54.5457Z" stroke="#D7A9A7" stroke-width="0.144385" stroke-miterlimit="10"/>
<path d="M28.4261 23.3208H26.0449V29.6252H28.4261V23.3208Z" stroke="#D7A9A7" stroke-width="0.144385" stroke-miterlimit="10"/>
<path d="M25.4784 59.759H24.7248V61.8589H25.7399L25.4784 59.759ZM26.3149 59.759L26.6674 60.9267L26.7291 61.8589H28.0983V59.759H26.3149ZM26.8071 62.8788L27.6793 65.8507L26.0079 62.8788H24.7248V67.4114H28.0983V62.8788H26.8071ZM27.6793 65.8507L26.0079 62.8788H24.7248V67.4114H28.0983V62.8788H26.8071L27.6793 65.8507ZM26.3149 59.759L26.6674 60.9267L26.7291 61.8589H28.0983V59.759H26.3149ZM25.4784 59.759H24.7248V61.8589H25.7399L25.4784 59.759ZM3.5331 36.9432V36.9887L2.85254 42.4551V68.8226H56.3539V36.9432H3.5331ZM23.7307 68.7447V50.7733H29.2175V68.7447H23.7307V68.7447ZM48.0068 61.8784V62.4663H40.5694V61.8589L39.8628 60.8975H40.6685V49.4124C40.6685 49.4124 40.6912 49.2857 40.761 49.0876C41.0047 48.3893 41.8233 46.8107 44.2386 46.8107C46.826 46.8107 47.7193 48.4835 47.9435 49.0357C47.989 49.1461 48.0068 49.211 48.0068 49.211V60.8975H48.5558L48.0068 61.8784ZM27.6793 65.8507L26.0079 62.8788H24.7248V67.4114H28.0983V62.8788H26.8071L27.6793 65.8507ZM26.6674 60.9267L26.7291 61.8589H28.0983V59.759H26.3149L26.6674 60.9267ZM25.4784 59.759H24.7248V61.8589H25.7399L25.4784 59.759ZM25.4784 59.759H24.7248V61.8589H25.7399L25.4784 59.759ZM26.3149 59.759L26.6674 60.9267L26.7291 61.8589H28.0983V59.759H26.3149ZM26.8071 62.8788L27.6793 65.8507L26.0079 62.8788H24.7248V67.4114H28.0983V62.8788H26.8071ZM26.8071 62.8788L27.6793 65.8507L26.0079 62.8788H24.7248V67.4114H28.0983V62.8788H26.8071ZM26.3149 59.759L26.6674 60.9267L26.7291 61.8589H28.0983V59.759H26.3149ZM25.4784 59.759H24.7248V61.8589H25.7399L25.4784 59.759Z" stroke="#D7A9A7" stroke-width="0.144385" stroke-miterlimit="10"/>
<path d="M31.4085 23.3208H29.0273V29.6252H31.4085V23.3208Z" stroke="#D7A9A7" stroke-width="0.144385" stroke-miterlimit="10"/>
<path d="M64.7899 54.4629V60.7657H67.1694V54.4629H64.7899ZM67.772 54.4629V60.7657H70.1532V54.4629H67.772ZM67.772 54.4629V60.7657H70.1532V54.4629H67.772ZM64.7899 54.4629V60.7657H67.1694V54.4629H64.7899ZM64.7899 54.4629V60.7657H67.1694V54.4629H64.7899ZM67.772 54.4629V60.7657H70.1532V54.4629H67.772ZM67.772 54.4629V60.7657H70.1532V54.4629H67.772ZM64.7899 54.4629V60.7657H67.1694V54.4629H64.7899ZM64.7899 54.4629V60.7657H67.1694V54.4629H64.7899ZM64.8045 23.3078V29.6123H67.1857V23.3078H64.8045ZM67.772 54.4629V60.7657H70.1532V54.4629H67.772ZM67.7866 23.3078V29.6123H70.1678V23.3078H67.7866ZM67.7866 23.3078V29.6123H70.1678V23.3078H67.7866ZM64.8045 23.3078V29.6123H67.1857V23.3078H64.8045ZM67.772 54.4629V60.7657H70.1532V54.4629H67.772ZM64.7899 54.4629V60.7657H67.1694V54.4629H64.7899ZM64.7899 54.4629V60.7657H67.1694V54.4629H64.7899ZM67.772 54.4629V60.7657H70.1532V54.4629H67.772ZM67.772 54.4629V60.7657H70.1532V54.4629H67.772ZM64.7899 54.4629V60.7657H67.1694V54.4629H64.7899ZM64.7899 54.4629V60.7657H67.1694V54.4629H64.7899ZM67.772 54.4629V60.7657H70.1532V54.4629H67.772ZM67.772 54.4629V60.7657H70.1532V54.4629H67.772ZM64.7899 54.4629V60.7657H67.1694V54.4629H64.7899ZM64.7899 54.4629V60.7657H67.1694V54.4629H64.7899ZM67.772 54.4629V60.7657H70.1532V54.4629H67.772ZM67.772 54.4629V60.7657H70.1532V54.4629H67.772ZM64.7899 54.4629V60.7657H67.1694V54.4629H64.7899ZM64.7899 54.4629V60.7657H67.1694V54.4629H64.7899ZM67.772 54.4629V60.7657H70.1532V54.4629H67.772ZM67.772 54.4629V60.7657H70.1532V54.4629H67.772ZM64.7899 54.4629V60.7657H67.1694V54.4629H64.7899ZM64.7899 54.4629V60.7657H67.1694V54.4629H64.7899ZM67.772 54.4629V60.7657H70.1532V54.4629H67.772ZM67.772 54.4629V60.7657H70.1532V54.4629H67.772ZM64.7899 54.4629V60.7657H67.1694V54.4629H64.7899ZM64.7899 54.4629V60.7657H67.1694V54.4629H64.7899ZM67.772 54.4629V60.7657H70.1532V54.4629H67.772ZM67.772 54.4629V60.7657H70.1532V54.4629H67.772ZM64.7899 60.7657H67.1694V54.4629H64.7899V60.7657ZM77.2317 52.8828L79.2198 45.0323L78.2777 36.9431H56.3535V68.8225H78.2777L75.8186 62.4661L78.2777 57.0516L77.2317 52.8828ZM71.1732 61.8782V62.4661H63.7358V61.8587L63.0292 60.8973H63.8348V49.4122C63.8348 49.4122 63.8576 49.2856 63.9274 49.0874C64.1711 48.3891 64.9913 46.8106 67.4049 46.8106C69.9924 46.8106 70.8857 48.4833 71.1099 49.0355C71.1553 49.1459 71.1732 49.2109 71.1732 49.2109V60.8973H71.7222L71.1732 61.8782ZM67.772 60.7657H70.1532V54.4629H67.772V60.7657ZM64.7899 60.7657H67.1694V54.4629H64.7899V60.7657ZM64.7899 54.4629V60.7657H67.1694V54.4629H64.7899ZM67.772 54.4629V60.7657H70.1532V54.4629H67.772ZM67.772 54.4629V60.7657H70.1532V54.4629H67.772ZM64.7899 54.4629V60.7657H67.1694V54.4629H64.7899ZM64.7899 54.4629V60.7657H67.1694V54.4629H64.7899ZM67.772 54.4629V60.7657H70.1532V54.4629H67.772ZM67.772 54.4629V60.7657H70.1532V54.4629H67.772ZM64.7899 54.4629V60.7657H67.1694V54.4629H64.7899ZM64.7899 54.4629V60.7657H67.1694V54.4629H64.7899ZM67.772 54.4629V60.7657H70.1532V54.4629H67.772ZM67.772 54.4629V60.7657H70.1532V54.4629H67.772ZM64.7899 54.4629V60.7657H67.1694V54.4629H64.7899ZM64.7899 54.4629V60.7657H67.1694V54.4629H64.7899ZM67.772 54.4629V60.7657H70.1532V54.4629H67.772ZM67.772 54.4629V60.7657H70.1532V54.4629H67.772ZM64.7899 54.4629V60.7657H67.1694V54.4629H64.7899ZM64.7899 54.4629V60.7657H67.1694V54.4629H64.7899ZM67.772 54.4629V60.7657H70.1532V54.4629H67.772ZM67.772 54.4629V60.7657H70.1532V54.4629H67.772ZM64.7899 54.4629V60.7657H67.1694V54.4629H64.7899ZM64.7899 54.4629V60.7657H67.1694V54.4629H64.7899ZM67.772 54.4629V60.7657H70.1532V54.4629H67.772ZM64.8045 23.3078V29.6123H67.1857V23.3078H64.8045ZM67.7866 23.3078V29.6123H70.1678V23.3078H67.7866ZM67.7866 23.3078V29.6123H70.1678V23.3078H67.7866ZM64.8045 23.3078V29.6123H67.1857V23.3078H64.8045ZM64.8045 23.3078V29.6123H67.1857V23.3078H64.8045ZM67.7866 23.3078V29.6123H70.1678V23.3078H67.7866ZM67.7866 23.3078V29.6123H70.1678V23.3078H67.7866ZM64.8045 23.3078V29.6123H67.1857V23.3078H64.8045ZM64.8045 23.3078V29.6123H67.1857V23.3078H64.8045ZM67.7866 23.3078V29.6123H70.1678V23.3078H67.7866ZM67.7866 23.3078V29.6123H70.1678V23.3078H67.7866ZM64.8045 23.3078V29.6123H67.1857V23.3078H64.8045ZM64.8045 23.3078V29.6123H67.1857V23.3078H64.8045ZM67.7866 23.3078V29.6123H70.1678V23.3078H67.7866ZM67.7866 23.3078V29.6123H70.1678V23.3078H67.7866ZM64.8045 23.3078V29.6123H67.1857V23.3078H64.8045ZM64.8045 23.3078V29.6123H67.1857V23.3078H64.8045ZM67.7866 23.3078V29.6123H70.1678V23.3078H67.7866ZM67.7866 23.3078V29.6123H70.1678V23.3078H67.7866ZM64.8045 23.3078V29.6123H67.1857V23.3078H64.8045ZM64.8045 23.3078V29.6123H67.1857V23.3078H64.8045ZM67.7866 23.3078V29.6123H70.1678V23.3078H67.7866ZM67.7866 23.3078V29.6123H70.1678V23.3078H67.7866ZM64.8045 29.6123H67.1857V23.3078H64.8045V29.6123ZM56.3535 11.9673V34.5298H78.2777V11.9673H56.3535ZM71.1878 30.7231V31.3126H63.752V30.7036L63.0454 29.7422H63.8495V18.2571C63.8495 18.2571 63.8722 18.1288 63.942 17.9323V17.9307C64.1873 17.2324 65.0075 15.6555 67.4212 15.6555C70.0086 15.6555 70.902 17.3282 71.1245 17.882C71.17 17.9924 71.1878 18.0574 71.1878 18.0574V29.7422H71.7385L71.1878 30.7231ZM67.7866 29.6123H70.1678V23.3078H67.7866V29.6123ZM64.8045 29.6123H67.1857V23.3078H64.8045V29.6123ZM64.8045 23.3078V29.6123H67.1857V23.3078H64.8045ZM67.7866 23.3078V29.6123H70.1678V23.3078H67.7866ZM67.7866 23.3078V29.6123H70.1678V23.3078H67.7866ZM64.8045 23.3078V29.6123H67.1857V23.3078H64.8045ZM64.8045 23.3078V29.6123H67.1857V23.3078H64.8045ZM67.7866 23.3078V29.6123H70.1678V23.3078H67.7866ZM67.7866 23.3078V29.6123H70.1678V23.3078H67.7866ZM64.8045 23.3078V29.6123H67.1857V23.3078H64.8045ZM64.8045 23.3078V29.6123H67.1857V23.3078H64.8045ZM67.7866 23.3078V29.6123H70.1678V23.3078H67.7866ZM67.7866 23.3078V29.6123H70.1678V23.3078H67.7866ZM64.8045 23.3078V29.6123H67.1857V23.3078H64.8045ZM64.8045 23.3078V29.6123H67.1857V23.3078H64.8045ZM67.7866 23.3078V29.6123H70.1678V23.3078H67.7866ZM67.7866 23.3078V29.6123H70.1678V23.3078H67.7866ZM64.8045 23.3078V29.6123H67.1857V23.3078H64.8045ZM64.8045 23.3078V29.6123H67.1857V23.3078H64.8045ZM67.7866 23.3078V29.6123H70.1678V23.3078H67.7866ZM56.3535 3.19116V9.45661H78.2777V3.19116H56.3535ZM67.7866 23.3078V29.6123H70.1678V23.3078H67.7866ZM64.8045 23.3078V29.6123H67.1857V23.3078H64.8045ZM64.8045 23.3078V29.6123H67.1857V23.3078H64.8045ZM67.7866 23.3078V29.6123H70.1678V23.3078H67.7866ZM67.7866 23.3078V29.6123H70.1678V23.3078H67.7866ZM67.772 54.4629V60.7657H70.1532V54.4629H67.772ZM64.8045 23.3078V29.6123H67.1857V23.3078H64.8045ZM64.7899 54.4629V60.7657H67.1694V54.4629H64.7899ZM64.7899 54.4629V60.7657H67.1694V54.4629H64.7899ZM67.772 54.4629V60.7657H70.1532V54.4629H67.772ZM64.8045 23.3078V29.6123H67.1857V23.3078H64.8045ZM67.7866 23.3078V29.6123H70.1678V23.3078H67.7866ZM67.7866 23.3078V29.6123H70.1678V23.3078H67.7866ZM67.772 54.4629V60.7657H70.1532V54.4629H67.772ZM64.8045 23.3078V29.6123H67.1857V23.3078H64.8045ZM64.7899 54.4629V60.7657H67.1694V54.4629H64.7899ZM64.7899 54.4629V60.7657H67.1694V54.4629H64.7899ZM67.772 54.4629V60.7657H70.1532V54.4629H67.772ZM67.772 54.4629V60.7657H70.1532V54.4629H67.772ZM64.7899 54.4629V60.7657H67.1694V54.4629H64.7899ZM64.7899 54.4629V60.7657H67.1694V54.4629H64.7899ZM67.772 54.4629V60.7657H70.1532V54.4629H67.772ZM67.772 54.4629V60.7657H70.1532V54.4629H67.772ZM64.7899 54.4629V60.7657H67.1694V54.4629H64.7899Z" stroke="#D7A9A7" stroke-width="0.144385" stroke-miterlimit="10"/>
<path d="M25.4783 59.7588L25.7398 61.8586H24.7246V59.7588H25.4783Z" stroke="#D7A9A7" stroke-width="0.144385" stroke-miterlimit="10"/>
<path d="M26.3145 59.7588H28.0979V61.8586H26.7286L26.6669 60.9265L26.3145 59.7588Z" stroke="#D7A9A7" stroke-width="0.144385" stroke-miterlimit="10"/>
<path d="M26.8069 62.8785H28.0982V67.4112H24.7246V62.8785H26.0078L27.6791 65.8505L26.8069 62.8785Z" stroke="#D7A9A7" stroke-width="0.144385" stroke-miterlimit="10"/>
<path d="M35.5935 50.5653V68.7445H29.2167V50.7732H23.7299V68.7445H22.8398V50.5653H35.5935Z" stroke="#D7A9A7" stroke-width="0.144385" stroke-miterlimit="10"/>
<path d="M36.575 49.4137V49.8506L36.2355 50.5651H22.2377L21.9502 49.758V49.4137H36.575Z" stroke="#D7A9A7" stroke-width="0.144385" stroke-miterlimit="10"/>
<path d="M25.7398 61.8586H24.7246V59.7588H25.4783L25.7398 61.8586Z" stroke="#D7A9A7" stroke-width="0.144385" stroke-miterlimit="10"/>
<path d="M28.0979 59.7588V61.8586H26.7286L26.6669 60.9265L26.3145 59.7588H28.0979Z" stroke="#D7A9A7" stroke-width="0.144385" stroke-miterlimit="10"/>
<path d="M26.8069 62.8785H28.0982V67.4112H24.7246V62.8785H26.0078L27.6791 65.8505L26.8069 62.8785Z" stroke="#D7A9A7" stroke-width="0.144385" stroke-miterlimit="10"/>
<path d="M34.9278 50.775H29.4395V68.7464H34.9278V50.775Z" stroke="#D7A9A7" stroke-width="0.144385" stroke-miterlimit="10"/>
<path d="M33.7307 51.1663H30.3555V58.5815H33.7307V51.1663Z" fill="#D7A9A7"/>
<path d="M25.4783 59.7588L25.7398 61.8586H24.7246V59.7588H25.4783Z" fill="#D7A9A7"/>
<path d="M28.0979 59.7588V61.8586H26.7286L26.6669 60.9265L26.3145 59.7588H28.0979Z" fill="#D7A9A7"/>
<path d="M28.0982 62.8785V67.4112H24.7246V62.8785H26.0078L27.6791 65.8505L26.8069 62.8785H28.0982Z" fill="#D7A9A7"/>
<path d="M33.7307 59.7607H30.3555V61.8606H33.7307V59.7607Z" fill="#D7A9A7"/>
<path d="M33.7307 62.8785H30.3555V67.4112H33.7307V62.8785Z" fill="#D7A9A7"/>
<path d="M67.7868 23.3079V29.6123H70.168V23.3079H67.7868ZM64.8047 23.3079V29.6123H67.1858V23.3079H64.8047Z" stroke="#D7A9A7" stroke-width="0.144385" stroke-miterlimit="10"/>
<path d="M71.1247 17.8818C70.9021 17.328 70.0088 15.6553 67.4213 15.6553C65.0077 15.6553 64.1875 17.2322 63.9422 17.9305V17.9321C63.8724 18.1286 63.8496 18.2569 63.8496 18.2569V29.742H71.188V18.0572C71.188 18.0572 71.1701 17.9922 71.1247 17.8818ZM67.1858 29.6121H64.8047V23.3076H67.1858V29.6121ZM67.1858 22.6012H64.8047V18.7815C64.8047 18.5249 64.8355 18.2992 64.8924 18.101C65.3179 16.5663 67.1858 16.6898 67.1858 16.6898V22.6012ZM70.168 29.6121H67.7868V23.3076H70.168V29.6121ZM70.168 22.6012H67.7868V16.6898C67.7868 16.6898 69.6547 16.5663 70.0803 18.101C70.1371 18.2992 70.168 18.5249 70.168 18.7815V22.6012Z" stroke="#D7A9A7" stroke-width="0.144385" stroke-miterlimit="10"/>
<path d="M72.2872 17.1593L71.1243 17.882C70.9017 17.3282 70.0084 15.6555 67.421 15.6555C65.0073 15.6555 64.1871 17.2324 63.9418 17.9308L62.8682 17.1593C62.8682 17.1593 64.6743 14.3092 67.5184 14.3092C70.3641 14.3092 72.2872 17.1593 72.2872 17.1593Z" stroke="#D7A9A7" stroke-width="0.144385" stroke-miterlimit="10"/>
<path d="M67.1858 16.69V22.6014H64.8047V18.7817C64.8047 18.5251 64.8355 18.2994 64.8924 18.1013C65.3179 16.5666 67.1858 16.69 67.1858 16.69Z" stroke="#D7A9A7" stroke-width="0.144385" stroke-miterlimit="10"/>
<path d="M67.1858 23.3079H64.8047V29.6123H67.1858V23.3079Z" stroke="#D7A9A7" stroke-width="0.144385" stroke-miterlimit="10"/>
<path d="M70.1683 23.3079H67.7871V29.6123H70.1683V23.3079Z" stroke="#D7A9A7" stroke-width="0.144385" stroke-miterlimit="10"/>
<path d="M70.1683 18.7817V22.6014H67.7871V16.69C67.7871 16.69 69.655 16.5666 70.0806 18.1013C70.1374 18.2994 70.1683 18.5251 70.1683 18.7817Z" stroke="#D7A9A7" stroke-width="0.144385" stroke-miterlimit="10"/>
<path d="M71.7389 29.7423L71.1883 30.7232V31.3127H63.7525V30.7037L63.0459 29.7423H71.7389Z" stroke="#D7A9A7" stroke-width="0.144385" stroke-miterlimit="10"/>
<path d="M29.0271 23.3208V29.6252H31.4082V23.3208H29.0271ZM26.0449 23.3208V29.6252H28.4261V23.3208H26.0449Z" stroke="#D7A9A7" stroke-width="0.144385" stroke-miterlimit="10"/>
<path d="M32.3649 17.8951C32.1424 17.3413 31.249 15.6686 28.6616 15.6686C26.2447 15.6686 25.4261 17.2487 25.1824 17.9471C25.1126 18.1436 25.0898 18.2703 25.0898 18.2703V29.7553H32.4282V18.0705C32.4282 18.0705 32.4104 18.0055 32.3649 17.8951ZM28.4261 29.6254H26.0449V23.3209H28.4261V29.6254ZM28.4261 22.6145H26.0449V18.7948C26.0449 18.5382 26.0758 18.3125 26.1326 18.1143C26.5582 16.5797 28.4261 16.7031 28.4261 16.7031V22.6145ZM31.4082 29.6254H29.027V23.3209H31.4082V29.6254ZM31.4082 22.6145H29.027V16.7031C29.027 16.7031 30.8949 16.5797 31.3205 18.1143C31.3773 18.3125 31.4082 18.5382 31.4082 18.7948V22.6145Z" stroke="#D7A9A7" stroke-width="0.144385" stroke-miterlimit="10"/>
<path d="M33.5275 17.1739L32.3645 17.895C32.142 17.3412 31.2486 15.6685 28.6612 15.6685C26.2443 15.6685 25.4257 17.2486 25.182 17.9469L24.1084 17.1739C24.1084 17.1739 25.9146 14.3221 28.7586 14.3221C31.6043 14.3221 33.5275 17.1739 33.5275 17.1739Z" stroke="#D7A9A7" stroke-width="0.144385" stroke-miterlimit="10"/>
<path d="M28.4261 16.7029V22.6143H26.0449V18.7947C26.0449 18.5381 26.0758 18.3123 26.1326 18.1142C26.5582 16.5795 28.4261 16.7029 28.4261 16.7029Z" stroke="#D7A9A7" stroke-width="0.144385" stroke-miterlimit="10"/>
<path d="M28.4261 23.3208H26.0449V29.6252H28.4261V23.3208Z" stroke="#D7A9A7" stroke-width="0.144385" stroke-miterlimit="10"/>
<path d="M31.4085 23.3208H29.0273V29.6252H31.4085V23.3208Z" stroke="#D7A9A7" stroke-width="0.144385" stroke-miterlimit="10"/>
<path d="M31.4085 18.7947V22.6143H29.0273V16.7029C29.0273 16.7029 30.8952 16.5795 31.3208 18.1142C31.3776 18.3123 31.4085 18.5381 31.4085 18.7947Z" stroke="#D7A9A7" stroke-width="0.144385" stroke-miterlimit="10"/>
<path d="M32.9775 29.755L32.4285 30.7359V31.3254H24.9927V30.7164L24.2861 29.755H32.9775Z" stroke="#D7A9A7" stroke-width="0.144385" stroke-miterlimit="10"/>
<path d="M18.2863 60.9821L17.7356 61.963V62.5509L12.7947 61.4287L10.2998 61.9435L11.3523 60.8506L18.2863 60.9821Z" stroke="#D7A9A7" stroke-width="0.144385" stroke-miterlimit="10"/>
<path d="M13.7327 54.5457H11.3516V60.8501H13.7327V54.5457Z" stroke="#D7A9A7" stroke-width="0.144385" stroke-miterlimit="10"/>
<path d="M16.7151 54.5457H14.334V60.8501H16.7151V54.5457Z" stroke="#D7A9A7" stroke-width="0.144385" stroke-miterlimit="10"/>
<path d="M13.7327 50.9047V53.8393H11.3516V53.2855L13.7327 50.9047Z" stroke="#D7A9A7" stroke-width="0.144385" stroke-miterlimit="10"/>
<path d="M13.7327 54.5457H11.3516V60.8501H13.7327V54.5457Z" stroke="#D7A9A7" stroke-width="0.144385" stroke-miterlimit="10"/>
<path d="M16.7151 54.5457H14.334V60.8501H16.7151V54.5457Z" stroke="#D7A9A7" stroke-width="0.144385" stroke-miterlimit="10"/>
<path d="M16.7151 50.0216V53.8397H14.334V50.3042L16.1288 48.5081C16.3464 48.7094 16.5284 48.979 16.6291 49.3412C16.6843 49.5393 16.7151 49.765 16.7151 50.0216Z" stroke="#D7A9A7" stroke-width="0.144385" stroke-miterlimit="10"/>
<path d="M44.0023 54.4633H41.6211V60.7661H44.0023V54.4633Z" stroke="#D7A9A7" stroke-width="0.144385" stroke-miterlimit="10"/>
<path d="M46.985 54.4633H44.6055V60.7661H46.985V54.4633Z" stroke="#D7A9A7" stroke-width="0.144385" stroke-miterlimit="10"/>
<path d="M47.943 49.0356C47.7189 48.4834 46.8255 46.8107 44.2381 46.8107C41.8228 46.8107 41.0042 48.3892 40.7606 49.0875C40.6907 49.2857 40.668 49.4123 40.668 49.4123V60.8974H48.0064V49.211C48.0064 49.211 47.9885 49.146 47.943 49.0356ZM44.0026 60.7658H41.6214V54.463H44.0026V60.7658ZM44.0026 53.7566H41.6214V49.9369C41.6214 49.6803 41.6523 49.4546 41.7075 49.2564C42.1347 47.7217 44.0026 47.8435 44.0026 47.8435V53.7566V53.7566ZM46.9847 60.7658H44.6052V54.463H46.9847V60.7658ZM46.9847 53.7566H44.6052V47.8435C44.6052 47.8435 46.4714 47.7217 46.8986 49.2564C46.9538 49.4546 46.9847 49.6803 46.9847 49.9369V53.7566Z" stroke="#D7A9A7" stroke-width="0.144385" stroke-miterlimit="10"/>
<path d="M44.0023 47.8436V53.7566H41.6211V49.937C41.6211 49.6804 41.652 49.4546 41.7072 49.2565C42.1344 47.7218 44.0023 47.8436 44.0023 47.8436Z" stroke="#D7A9A7" stroke-width="0.144385" stroke-miterlimit="10"/>
<path d="M49.1049 48.3144L47.9436 49.0354C47.7194 48.4833 46.8261 46.8105 44.2387 46.8105C41.8234 46.8105 41.0048 48.3891 40.7611 49.0874L39.6875 48.3144C39.6875 48.3144 41.492 45.4642 44.3377 45.4642C47.1818 45.4642 49.1049 48.3144 49.1049 48.3144Z" stroke="#D7A9A7" stroke-width="0.144385" stroke-miterlimit="10"/>
<path d="M44.0023 54.4633H41.6211V60.7661H44.0023V54.4633Z" stroke="#D7A9A7" stroke-width="0.144385" stroke-miterlimit="10"/>
<path d="M46.985 54.4633H44.6055V60.7661H46.985V54.4633Z" stroke="#D7A9A7" stroke-width="0.144385" stroke-miterlimit="10"/>
<path d="M46.985 49.937V53.7566H44.6055V47.8436C44.6055 47.8436 46.4717 47.7218 46.8989 49.2565C46.9541 49.4546 46.985 49.6804 46.985 49.937Z" stroke="#D7A9A7" stroke-width="0.144385" stroke-miterlimit="10"/>
<path d="M48.5553 60.8973L48.0063 61.8782V62.4661H40.5689V61.8588L39.8623 60.8973H48.5553Z" stroke="#D7A9A7" stroke-width="0.144385" stroke-miterlimit="10"/>
<path d="M67.7722 54.4633V60.7661H70.1533V54.4633H67.7722ZM64.79 54.4633V60.7661H67.1696V54.4633H64.79Z" stroke="#D7A9A7" stroke-width="0.144385" stroke-miterlimit="10"/>
<path d="M71.11 49.0356C70.8858 48.4834 69.9925 46.8107 67.4051 46.8107C64.9914 46.8107 64.1712 48.3892 63.9275 49.0875C63.8577 49.2857 63.835 49.4123 63.835 49.4123V60.8974H71.1733V49.211C71.1733 49.211 71.1555 49.146 71.11 49.0356ZM67.1696 60.7658H64.79V54.463H67.1696V60.7658ZM67.1696 53.7566H64.79V49.9369C64.79 49.6803 64.8209 49.4546 64.8761 49.2564C65.3033 47.7217 67.1696 47.8435 67.1696 47.8435V53.7566ZM70.1533 60.7658H67.7722V54.463H70.1533V60.7658ZM70.1533 53.7566H67.7722V47.8435C67.7722 47.8435 69.64 47.7217 70.0672 49.2564C70.1225 49.4546 70.1533 49.6803 70.1533 49.9369V53.7566V53.7566Z" stroke="#D7A9A7" stroke-width="0.144385" stroke-miterlimit="10"/>
<path d="M72.271 48.3144L71.1096 49.0354C70.8855 48.4833 69.9921 46.8105 67.4047 46.8105C64.991 46.8105 64.1708 48.3891 63.9271 49.0874L62.8535 48.3144C62.8535 48.3144 64.6581 45.4642 67.5038 45.4642C70.3478 45.4642 72.271 48.3144 72.271 48.3144Z" stroke="#D7A9A7" stroke-width="0.144385" stroke-miterlimit="10"/>
<path d="M67.1696 47.8436V53.7566H64.79V49.937C64.79 49.6804 64.8209 49.4546 64.8761 49.2565C65.3033 47.7218 67.1696 47.8436 67.1696 47.8436Z" stroke="#D7A9A7" stroke-width="0.144385" stroke-miterlimit="10"/>
<path d="M67.1696 54.4633H64.79V60.7661H67.1696V54.4633Z" stroke="#D7A9A7" stroke-width="0.144385" stroke-miterlimit="10"/>
<path d="M70.1536 54.4633H67.7725V60.7661H70.1536V54.4633Z" stroke="#D7A9A7" stroke-width="0.144385" stroke-miterlimit="10"/>
<path d="M70.1536 49.937V53.7566H67.7725V47.8436C67.7725 47.8436 69.6404 47.7218 70.0675 49.2565C70.1228 49.4546 70.1536 49.6804 70.1536 49.937Z" stroke="#D7A9A7" stroke-width="0.144385" stroke-miterlimit="10"/>
<path d="M71.7223 60.8973L71.1733 61.8782V62.4661H63.7358V61.8588L63.0293 60.8973H71.7223Z" stroke="#D7A9A7" stroke-width="0.144385" stroke-miterlimit="10"/>
<path d="M80.6074 34.53L80.3719 35.6863H79.6459L79.2528 36.9433H2.55223L2.15916 35.7367H1.37465L1.2041 34.53H80.6074Z" fill="#D7A9A7"/>
<path d="M80.529 9.45679V10.7901H79.7428L79.3124 11.9675H55.569L55.098 10.7122H54.3135V9.45679H80.529Z" fill="#D7A9A7"/>
<path d="M80.5285 1.12524V2.00059H79.6644L79.3314 3.19099H55.6206L55.1495 2.01358H54.417V1.12524H80.5285Z" fill="#D7A9A7"/>
</svg>
