<svg width="52" height="87" viewBox="0 0 52 87" fill="none" xmlns="http://www.w3.org/2000/svg">
<path d="M51.0436 81.235L50.7958 77.1846L50.5548 73.226L50.3002 69.0069L50.0592 65.0496L49.8073 60.906L49.5663 56.9488L49.3144 52.8052L49.072 48.848L48.8202 44.6558L48.5791 40.6985L48.3218 36.501L48.0808 32.5383L47.8371 28.5149L47.6015 24.5617L47.3022 19.658V19.6472H28.8078C28.9256 22.0437 28.7631 24.4186 27.9303 26.7746C27.2734 28.6156 26.8725 30.5376 26.7387 32.487C26.6141 34.2503 26.6236 36.023 26.4367 37.7809C26.3135 38.938 26.1293 40.118 25.9276 41.2643C25.7096 42.501 25.2126 43.4447 24.0968 44.109C23.52 44.4519 22.8781 44.672 22.3053 45.0257C21.6987 45.3997 21.455 45.8534 21.2803 46.5257C20.9296 47.8759 20.0927 48.6454 18.828 49.1707C18.1678 49.4383 17.4855 49.6479 16.7887 49.7971L16.6073 52.8106L16.3608 56.9542L16.1238 60.9114L15.876 65.055L15.6445 69.0123L15.3899 73.2314L15.1529 77.19L14.9133 81.2404L14.6289 85.9808H51.3374L51.0436 81.235Z" stroke="#D7A9A7" stroke-width="0.135411" stroke-miterlimit="10"/>
<path d="M30.3464 14.2103C29.923 14.538 29.4892 14.8588 29.0451 15.173L28.4141 15.6199C28.4782 16.1077 28.5373 16.5947 28.5914 17.0807H32.5035V14.2103H30.3464Z" stroke="#D7A9A7" stroke-width="0.135411" stroke-miterlimit="10"/>
<path d="M31.3711 13.3843H32.5627V12.3218C32.1772 12.6881 31.78 13.0423 31.3711 13.3843Z" stroke="#D7A9A7" stroke-width="0.135411" stroke-miterlimit="10"/>
<path d="M39.7562 14.2103H33.2998V17.0807H39.7562V14.2103Z" stroke="#D7A9A7" stroke-width="0.135411" stroke-miterlimit="10"/>
<path d="M33.3574 11.5265V13.3843H39.8152V10.5139H34.2633C33.9735 10.8636 33.6702 11.2065 33.3574 11.5265Z" stroke="#D7A9A7" stroke-width="0.135411" stroke-miterlimit="10"/>
<path d="M35.2886 9.18149C35.1531 9.38536 35.0015 9.58653 34.8525 9.77825H45.856V6.12073H37.2222C36.602 7.15628 35.9805 8.18914 35.2886 9.18149Z" stroke="#D7A9A7" stroke-width="0.135411" stroke-miterlimit="10"/>
<path d="M40.0038 2.08482C39.1494 2.79094 38.5535 3.83055 37.9902 4.8148H41.5461V1.30444C40.9828 1.45369 40.4572 1.71959 40.0038 2.08482V2.08482Z" stroke="#D7A9A7" stroke-width="0.135411" stroke-miterlimit="10"/>
<path d="M51.3326 85.9755H14.624L14.9084 81.2352H51.0441L51.3326 85.9755Z" fill="#D7A9A7"/>
<path d="M50.7977 77.1902H15.1494L15.3864 73.2316H50.5567L50.7977 77.1902Z" fill="#D7A9A7"/>
<path d="M50.3008 69.0127H15.6396L15.8766 65.0554H50.0597L50.3008 69.0127Z" fill="#D7A9A7"/>
<path d="M49.8075 60.9114H16.124L16.361 56.9541H49.5665L49.8075 60.9114Z" fill="#D7A9A7"/>
<path d="M49.0722 48.8534H19.4822C19.2707 48.972 19.0523 49.0779 18.8282 49.1707C18.168 49.4383 17.4856 49.648 16.7889 49.7971L16.6074 52.8106H49.3146L49.0722 48.8534Z" fill="#D7A9A7"/>
<path d="M25.9278 41.2646C25.7098 42.5013 25.2128 43.4451 24.0971 44.1093C23.7463 44.3173 23.3712 44.4806 23.0029 44.6494H48.8204L48.5793 40.6921H26.024C25.9915 40.8879 25.9603 41.0769 25.9278 41.2646Z" fill="#D7A9A7"/>
<path d="M26.543 36.5009H48.3211L48.0814 32.5382H26.7353C26.6459 33.86 26.6256 35.1831 26.543 36.5009Z" fill="#D7A9A7"/>
<path d="M27.9303 26.7748C27.7245 27.3567 27.5485 27.9372 27.3887 28.5191H47.8357L47.6015 24.5619H28.5248C28.383 25.3134 28.1843 26.0532 27.9303 26.7748Z" fill="#D7A9A7"/>
<path d="M45.8572 14.2103H40.5518V17.0807H45.8572V14.2103Z" stroke="#D7A9A7" stroke-width="0.135411" stroke-miterlimit="10"/>
<path d="M45.8571 10.5139H40.6113V13.3843H45.8571V10.5139Z" stroke="#D7A9A7" stroke-width="0.135411" stroke-miterlimit="10"/>
<path d="M30.3464 14.2103C29.923 14.538 29.4892 14.8588 29.0451 15.173L28.4141 15.6199C28.4782 16.1077 28.5373 16.5947 28.5914 17.0807H32.5035V14.2103H30.3464Z" stroke="#D7A9A7" stroke-width="0.135411" stroke-miterlimit="10"/>
<path d="M33.3574 11.5265V13.3843H39.8152V10.5139H34.2633C33.9735 10.8636 33.6702 11.2065 33.3574 11.5265Z" stroke="#D7A9A7" stroke-width="0.135411" stroke-miterlimit="10"/>
<path d="M39.7562 14.2103H33.2998V17.0807H39.7562V14.2103Z" stroke="#D7A9A7" stroke-width="0.135411" stroke-miterlimit="10"/>
<path d="M31.3711 13.3843H32.5627V12.3218C32.1772 12.6881 31.78 13.0423 31.3711 13.3843Z" stroke="#D7A9A7" stroke-width="0.135411" stroke-miterlimit="10"/>
<path d="M34.8528 9.77417C34.6619 10.0266 34.4669 10.2737 34.2651 10.514H39.817V13.3844H33.3592V11.5266C33.1006 11.7967 32.8352 12.0667 32.5644 12.3219V13.3844H31.3728C31.0378 13.6653 30.6962 13.9407 30.3477 14.2107H32.5048V17.0811H28.5928C28.6077 17.2161 28.6212 17.3417 28.6361 17.4726H47.9091V9.77687L34.8528 9.77417ZM39.7561 17.0811H33.2997V14.2107H39.7561V17.0811ZM47.0073 17.0811H40.5523V14.2107H47.0073V17.0811ZM47.0682 13.3844H40.6118V10.514H47.0682V13.3844Z" stroke="#D7A9A7" stroke-width="0.135411" stroke-miterlimit="10"/>
<path d="M31.3711 13.3843H32.5627V12.3218C32.1772 12.6881 31.78 13.0423 31.3711 13.3843Z" stroke="#D7A9A7" stroke-width="0.135411" stroke-miterlimit="10"/>
<path d="M33.3574 11.5265V13.3843H39.8152V10.5139H34.2633C33.9735 10.8636 33.6702 11.2065 33.3574 11.5265Z" stroke="#D7A9A7" stroke-width="0.135411" stroke-miterlimit="10"/>
<path d="M30.3464 14.2103C29.923 14.538 29.4892 14.8588 29.0451 15.173L28.4141 15.6199C28.4782 16.1077 28.5373 16.5947 28.5914 17.0807H32.5035V14.2103H30.3464Z" stroke="#D7A9A7" stroke-width="0.135411" stroke-miterlimit="10"/>
<path d="M39.7562 14.2103H33.2998V17.0807H39.7562V14.2103Z" stroke="#D7A9A7" stroke-width="0.135411" stroke-miterlimit="10"/>
<path d="M44.0244 0.945345V4.74733H44.7448V0.872437C44.5051 0.899439 44.2654 0.923743 44.0244 0.945345Z" stroke="#D7A9A7" stroke-width="0.135411" stroke-miterlimit="10"/>
<path d="M38.2891 4.29741V4.74971H39.0298V3.14709C38.7631 3.51755 38.5159 3.9015 38.2891 4.29741V4.29741Z" stroke="#D7A9A7" stroke-width="0.135411" stroke-miterlimit="10"/>
<path d="M37.5707 5.53578C37.4542 5.7302 37.3378 5.92327 37.2227 6.11769H47.0684V4.75H38.027C37.874 5.01868 37.7169 5.28465 37.5707 5.53578Z" fill="#D7A9A7"/>
<path d="M28.8076 19.6472V19.6581H47.2966V19.6472H28.8076Z" stroke="#D7A9A7" stroke-width="0.135411" stroke-miterlimit="10"/>
<path d="M28.6348 17.4724C28.7106 18.2001 28.7702 18.9252 28.8081 19.6475H47.2971V19.6583H50.2504V17.4724H28.6348Z" fill="#D7A9A7"/>
<path d="M11.9277 82.6109L10.4381 85.9498L1 81.7644C1.01354 80.5182 1.36968 79.3341 1.95736 78.1906L11.9277 82.6109Z" stroke="#D7A9A7" stroke-width="0.135411" stroke-miterlimit="10"/>
<path d="M11.4465 66.5649L10.7085 66.2382L8.26027 65.158C7.95424 65.8691 7.63423 66.573 7.30021 67.2697C7.49656 66.5109 7.68477 65.7494 7.88518 64.992L6.4715 64.3655L5.73352 64.0388L4.83708 63.6418L4.22909 64.4924C3.99846 64.8565 3.67007 65.1489 3.28121 65.3363C2.54954 65.6889 1.84961 66.1036 1.18912 66.5757C1.16193 66.595 1.13654 66.6167 1.11328 66.6405L1.37328 67.9056C1.37328 67.9056 1.37328 67.9137 1.37328 67.9177C1.40307 68.0635 1.4315 68.208 1.45994 68.3538L1.63056 69.2625C1.66712 69.4582 1.70367 69.654 1.74159 69.8484C1.78628 70.0833 1.83367 70.3196 1.877 70.5532C1.90544 70.6882 1.93523 70.8232 1.96502 70.9582C2.02574 71.1308 2.07105 71.3083 2.10043 71.4888C2.10043 71.4888 2.10043 71.4969 2.10043 71.501C2.13474 71.6306 2.16859 71.7629 2.20199 71.8979L2.2548 72.118C2.2548 72.1477 2.26835 72.1774 2.27376 72.2071L2.29001 72.276C2.3022 72.33 2.31303 72.3826 2.32522 72.4366C2.32575 72.4416 2.32575 72.4466 2.32522 72.4515C2.35578 72.5172 2.39156 72.5804 2.4322 72.6405C2.49043 72.6905 2.55136 72.7391 2.61364 72.7877C3.03883 73.1171 3.52226 73.4317 3.63465 73.8448C3.77006 74.3403 3.27444 74.987 3.13226 75.5838C3.07196 75.8712 3.12018 76.1708 3.26767 76.4249C3.46402 76.7233 3.6739 77.0163 3.87567 77.3106L3.78495 77.5145L1.83232 76.6464C1.82491 76.6675 1.81633 76.6883 1.8066 76.7085L3.74432 77.5658L4.1817 77.7589L8.6313 79.7287L8.65839 79.6693L10.9143 74.6023L11.1716 74.0257L13.9909 67.695L11.4465 66.5649Z" stroke="#D7A9A7" stroke-width="0.135411" stroke-miterlimit="10"/>
<path d="M4.85244 67.984C4.7179 67.9041 4.57861 67.8324 4.43537 67.7693C4.32839 67.722 4.22278 67.6802 4.11987 67.6451C3.66988 67.4799 3.18823 67.4184 2.71101 67.4651C2.23379 67.5119 1.77338 67.6657 1.36426 67.9151C1.39405 68.0596 1.42247 68.2054 1.45226 68.3512L1.62288 69.2598C1.65944 69.4556 1.69601 69.6514 1.73393 69.8458C1.77861 70.0807 1.82601 70.317 1.86934 70.5506C1.89777 70.6856 1.92757 70.8206 1.95736 70.9556C2.01808 71.1282 2.06339 71.3057 2.09277 71.4862C2.09277 71.4862 2.09277 71.4943 2.09277 71.4984C2.12707 71.628 2.16093 71.7603 2.19433 71.8953L2.24714 72.1154C2.25933 72.168 2.2715 72.2207 2.28233 72.2733C2.29316 72.326 2.30535 72.38 2.31754 72.434C2.31807 72.4389 2.31807 72.4439 2.31754 72.4489C2.3481 72.5146 2.38388 72.5778 2.42452 72.6379C2.48275 72.6878 2.54368 72.7364 2.60597 72.785C3.03116 73.1145 3.51458 73.4291 3.62697 73.8422C3.76238 74.3377 3.26678 74.9844 3.1246 75.5812C3.0643 75.8686 3.11251 76.1681 3.26001 76.4223C3.45636 76.7207 3.66624 77.0137 3.868 77.308L6.03458 72.4475L6.29186 71.871L6.42727 71.5578C6.42727 71.5578 6.90527 69.195 4.85244 67.984Z" fill="#D7A9A7"/>
<path d="M10.7086 66.2456L7.88867 72.5754L8.62623 72.9021L11.4461 66.5722L10.7086 66.2456Z" fill="#D7A9A7"/>
<path d="M5.73297 64.042L2.91309 70.3718L3.65064 70.6985L6.47053 64.3686L5.73297 64.042Z" fill="#D7A9A7"/>
<path d="M10.1035 76.2657L7.83945 75.5001L7.18542 75.2801L5.77037 74.8021L3.42912 74.0096L2.77372 73.7882L1.73242 73.4371C1.77169 73.5965 1.81366 73.7558 1.85834 73.9137L2.5354 74.1446L2.14001 74.8197C2.16303 74.8885 2.18469 74.9547 2.205 75.0276L2.2199 75.0749L2.25104 75.1829V75.1937C2.27886 75.2391 2.31058 75.282 2.34584 75.3219C2.39729 75.3543 2.45009 75.3881 2.50561 75.4205L3.11767 74.3728L5.53882 75.191L7.1475 75.731L5.14613 79.1604L5.76496 79.3683L7.76632 75.9403L9.87061 76.6518L11.83 77.3134L9.82864 80.7427L10.4475 80.952L12.6763 77.1338L10.1035 76.2657Z" stroke="#D7A9A7" stroke-width="0.135411" stroke-miterlimit="10"/>
<path d="M3.99926 70.4092L3.75416 70.9249L3.7474 70.9398L3.59303 71.2705L3.54293 71.3772L2.7765 72.9866C2.70856 72.941 2.64345 72.8914 2.58151 72.838C2.45934 72.6969 2.36017 72.5374 2.28767 72.3655C2.15225 72.0266 2.13465 71.6567 2.06152 71.2975L2.29444 70.8088L2.50296 70.3714L2.76025 69.8313L2.90515 69.9001L3.15023 70.9114C3.34203 70.9729 3.54691 70.9818 3.74333 70.9371L3.44544 70.1553L3.99926 70.4092Z" fill="#D7A9A7"/>
<path d="M4.17928 68.3806C3.85543 68.2325 3.49095 68.1977 3.1448 68.2818C2.79865 68.3659 2.49107 68.5639 2.27181 68.8439C2.05254 69.1239 1.93442 69.4695 1.93655 69.8247C1.93868 70.1799 2.06092 70.524 2.28353 70.8014C2.43215 70.9873 2.62267 71.1357 2.8396 71.2345C3.05653 71.3332 3.29376 71.3796 3.53203 71.3698C3.61303 71.3682 3.69371 71.3592 3.77305 71.3428C3.81003 71.3362 3.84665 71.3276 3.88274 71.3171C4.10361 71.257 4.30878 71.1498 4.4841 71.0029C4.65943 70.8561 4.80074 70.6731 4.89832 70.4666C5.0801 70.0948 5.10648 69.6663 4.97166 69.2752C4.83684 68.8841 4.55185 68.5623 4.17928 68.3806ZM2.89965 69.89L2.68706 69.0098C2.81441 68.8748 2.97287 68.773 3.14867 68.713C3.32448 68.653 3.51231 68.6367 3.69587 68.6655L3.01881 69.0597L3.43316 70.1398L3.73108 70.9215C3.53466 70.9663 3.32977 70.9574 3.13798 70.8959L2.89965 69.89Z" fill="#D7A9A7"/>
<path d="M2.90016 69.8904L3.14525 70.9017C3.09894 70.8862 3.0537 70.8677 3.00984 70.8463C2.7932 70.744 2.61521 70.575 2.50205 70.3643C2.4159 70.2038 2.3688 70.0254 2.36457 69.8434C2.36034 69.6614 2.39909 69.4809 2.47768 69.3166C2.53135 69.2033 2.60366 69.0997 2.69163 69.0101L2.90016 69.8904Z" fill="#D7A9A7"/>
<path d="M4.53116 70.29C4.45682 70.4473 4.34802 70.5859 4.2128 70.6958C4.07758 70.8056 3.91938 70.8838 3.74984 70.9245H3.73764L3.43974 70.1428L3.02539 69.0627L3.70245 68.6685C3.80742 68.6852 3.90952 68.7166 4.00576 68.7616C4.27798 68.8956 4.48599 69.1315 4.58442 69.4178C4.68285 69.7041 4.66371 70.0177 4.53116 70.29Z" fill="#D7A9A7"/>
<path d="M5.47975 62.7343L8.16766 63.9237C8.16812 63.9327 8.16812 63.9417 8.16766 63.9507C8.07016 64.2955 7.97627 64.6411 7.88599 64.9876L6.47231 64.3612L5.73433 64.0344L4.83789 63.6375C5.04372 63.3391 5.26039 63.034 5.47975 62.7343Z" fill="#D7A9A7"/>
<path d="M15.6637 67.2083L15.6501 67.2394L15.6379 67.2664L15.2073 68.2263L13.9886 67.6863L11.447 66.5643L10.709 66.2376L8.26074 65.1575C8.40428 64.8235 8.54465 64.4887 8.68187 64.153L13.8844 66.4563C13.8844 66.4563 13.8844 66.4455 13.8844 66.4225L15.6339 67.1975L15.6637 67.2083Z" fill="#D7A9A7"/>
<path d="M13.7314 81.9144L13.1735 83.1673L11.9277 82.6151L1.95875 78.2001C2.09687 77.9301 2.24627 77.6646 2.40696 77.4035L4.86467 78.8063C4.64801 78.4404 4.41781 78.0948 4.18761 77.7586L3.75024 77.5656L1.8125 76.7082C1.82223 76.688 1.83082 76.6673 1.83824 76.6461L3.77731 77.5048L4.1172 77.656L5.59047 78.3081L6.28919 78.6173L8.66429 79.6691L10.8728 80.6479L11.5702 80.9558L13.7314 81.9144Z" fill="#D7A9A7"/>
<path d="M13.8909 66.423C13.8909 66.446 13.8909 66.4568 13.8909 66.4568L8.68024 64.1494C8.73305 64.0144 8.78587 63.8902 8.83733 63.7605C8.86982 63.6795 8.90096 63.5985 8.93346 63.5162C8.96346 63.4207 8.96628 63.3188 8.94159 63.2218C8.91218 63.0875 8.8629 62.9583 8.79536 62.8384C8.47308 62.2538 8.14944 61.6665 7.7906 61.1021C7.70123 60.9671 7.61186 60.8321 7.51978 60.6971C7.18531 60.2083 7.13928 59.7304 7.21511 59.1714C7.25437 58.8798 7.29228 58.5909 7.32885 58.2979L7.45207 58.3397L8.54349 55.8879C8.36611 55.4896 8.42161 55.0481 8.61389 54.6174C8.76694 54.2878 9.02664 54.019 9.35128 53.8542C9.67592 53.6895 10.0467 53.6382 10.404 53.7088L10.4609 53.594L13.0554 48.5323L10.9985 53.8235L10.9552 53.9329C11.2754 54.139 11.5114 54.4522 11.6209 54.8162C11.7303 55.1802 11.706 55.5712 11.5523 55.9189C11.4669 56.1393 11.3289 56.3356 11.1503 56.4909C10.9717 56.6462 10.7579 56.7557 10.5273 56.81L10.4027 57.1017L9.45481 59.2268C14.4257 61.9216 13.9518 66.0153 13.8909 66.423Z" fill="#D7A9A7"/>
</svg>
