<svg width="38" height="113" viewBox="0 0 38 113" fill="none" xmlns="http://www.w3.org/2000/svg">
<path d="M37.7655 112.159H0.9375L1.22279 107.389L1.4646 103.319L1.70234 99.3355L1.95639 95.0901L2.19413 91.1083L2.44274 86.939L2.68048 82.9572L2.92908 78.7879L3.16682 74.8061L3.41951 70.5825L3.65589 66.6007L3.90857 62.3771L4.14631 58.3939L4.38813 54.3455L4.62587 50.3637L4.92067 45.4296V45.4187H33.7171V45.4296L34.0174 50.3637L34.2592 54.3455L34.5037 58.3939L34.7455 62.3771L35.0023 66.6007L35.2441 70.5825L35.4995 74.8061L35.7413 78.7879L35.994 82.9572L36.2358 86.939L36.4885 91.1083L36.7303 95.0901L36.9871 99.3355L37.2289 103.319L37.4761 107.389L37.7655 112.159Z" stroke="#BD6F6D" stroke-width="0.132704" stroke-miterlimit="10"/>
<path d="M18.8754 39.9486H12.3979V42.8368H18.8754V39.9486Z" stroke="#BD6F6D" stroke-width="0.132704" stroke-miterlimit="10"/>
<path d="M18.935 36.2284H12.459V39.1166H18.935V36.2284Z" stroke="#BD6F6D" stroke-width="0.132704" stroke-miterlimit="10"/>
<path d="M26.1517 39.9486H19.6743V42.8368H26.1517V39.9486Z" stroke="#BD6F6D" stroke-width="0.132704" stroke-miterlimit="10"/>
<path d="M26.2113 36.2284H19.7339V39.1166H26.2113V36.2284Z" stroke="#BD6F6D" stroke-width="0.132704" stroke-miterlimit="10"/>
<path d="M32.273 31.8071H6.4082V35.4833H32.273V31.8071Z" stroke="#BD6F6D" stroke-width="0.132704" stroke-miterlimit="10"/>
<path d="M27.9474 17.2463H10.606V30.4946H27.9474V17.2463Z" stroke="#BD6F6D" stroke-width="0.132704" stroke-miterlimit="10"/>
<path d="M22.6994 30.7903V23.87C22.6994 23.87 22.1153 21.2059 19.3412 21.2059C16.5671 21.2059 15.9707 23.87 15.9707 23.87V30.7903H22.6994Z" fill="#BD6F6D"/>
<path d="M14.2193 17.2463H13.4097V27.1812H14.2193V17.2463Z" fill="#BD6F6D"/>
<path d="M19.6808 17.2463H18.8711V24.2155H19.6808V17.2463Z" fill="#BD6F6D"/>
<path d="M25.2262 17.2463H24.4165V27.1812H25.2262V17.2463Z" fill="#BD6F6D"/>
<path d="M37.7655 112.16H0.9375L1.22279 107.39H37.4761L37.7655 112.16Z" fill="#BD6F6D"/>
<path d="M37.2286 103.32H1.46436L1.7021 99.337H36.9868L37.2286 103.32Z" fill="#BD6F6D"/>
<path d="M36.7305 95.0908H1.95654L2.19428 91.109H36.4886L36.7305 95.0908Z" fill="#BD6F6D"/>
<path d="M36.2359 86.9401H2.44287L2.68061 82.9583H35.9941L36.2359 86.9401Z" fill="#BD6F6D"/>
<path d="M35.7414 78.7883H2.9292L3.16694 74.8065H35.4996L35.7414 78.7883Z" fill="#BD6F6D"/>
<path d="M35.2445 70.5837H3.41992L3.6563 66.6019H35.0027L35.2445 70.5837Z" fill="#BD6F6D"/>
<path d="M34.7456 62.3777H3.90869L4.14643 58.3945H34.5038L34.7456 62.3777Z" fill="#BD6F6D"/>
<path d="M34.2597 54.3468H4.38867L4.62641 50.365H34.0179L34.2597 54.3468Z" fill="#BD6F6D"/>
<path d="M20.0328 24.5765H18.6553V30.4399H20.0328V24.5765Z" fill="#BD6F6D"/>
<path d="M19.3239 25.8224C20.1838 25.8224 20.8808 25.1132 20.8808 24.2383C20.8808 23.3635 20.1838 22.6543 19.3239 22.6543C18.4641 22.6543 17.7671 23.3635 17.7671 24.2383C17.7671 25.1132 18.4641 25.8224 19.3239 25.8224Z" fill="#BD6F6D"/>
<path d="M19.3232 25.4002C19.9542 25.4002 20.4657 24.8796 20.4657 24.2374C20.4657 23.5951 19.9542 23.0745 19.3232 23.0745C18.6922 23.0745 18.1807 23.5951 18.1807 24.2374C18.1807 24.8796 18.6922 25.4002 19.3232 25.4002Z" fill="white"/>
<path d="M32.2729 39.9491H26.9502V42.8373H32.2729V39.9491Z" stroke="#BD6F6D" stroke-width="0.132704" stroke-miterlimit="10"/>
<path d="M11.5991 39.9491H6.4082V42.8373H11.5991V39.9491Z" stroke="#BD6F6D" stroke-width="0.132704" stroke-miterlimit="10"/>
<path d="M11.6602 36.2294H6.4082V39.1176H11.6602V36.2294Z" stroke="#BD6F6D" stroke-width="0.132704" stroke-miterlimit="10"/>
<path d="M32.2731 36.2294H27.0103V39.1176H32.2731V36.2294Z" stroke="#BD6F6D" stroke-width="0.132704" stroke-miterlimit="10"/>
<path d="M12.3979 39.949V42.8372H18.8754V39.949H12.3979ZM12.4591 36.2294V39.1121H18.9351V36.2294H12.4591ZM19.6701 39.949V42.8372H26.1475V39.949H19.6701ZM19.7299 36.2294V39.1121H26.2073V36.2294H19.7299Z" stroke="#BD6F6D" stroke-width="0.132704" stroke-miterlimit="10"/>
<path d="M4.21973 35.4847V43.2283H34.3299V35.4847H4.21973ZM11.5992 42.837H5.12314V39.9488H11.5992V42.837ZM11.6549 39.112H5.18291V36.2292H11.6549V39.112ZM18.87 42.8316H12.398V39.9488H18.8754L18.87 42.8316ZM18.9297 39.112H12.4591V36.2292H18.9352L18.9297 39.112ZM26.1462 42.8316H19.6701V39.9488H26.1475L26.1462 42.8316ZM26.2059 39.112H19.734V36.2292H26.2114L26.2059 39.112ZM33.4224 42.8316H26.9504V39.9488H33.4278L33.4224 42.8316ZM33.4822 39.112H27.0061V36.2292H33.4835L33.4822 39.112Z" stroke="#BD6F6D" stroke-width="0.132704" stroke-miterlimit="10"/>
<path d="M18.9355 36.2294H12.4595V39.1176H18.9355V36.2294Z" stroke="#BD6F6D" stroke-width="0.132704" stroke-miterlimit="10"/>
<path d="M26.2113 36.2294H19.7339V39.1176H26.2113V36.2294Z" stroke="#BD6F6D" stroke-width="0.132704" stroke-miterlimit="10"/>
<path d="M18.8754 39.9491H12.3979V42.8373H18.8754V39.9491Z" stroke="#BD6F6D" stroke-width="0.132704" stroke-miterlimit="10"/>
<path d="M26.1517 39.9491H19.6743V42.8373H26.1517V39.9491Z" stroke="#BD6F6D" stroke-width="0.132704" stroke-miterlimit="10"/>
<path d="M31.1565 27.1814V30.4296H30.4351V27.4789H25.4235V30.4296H24.6804V27.4898H19.7123V30.4296H18.9692V27.5129H13.9794V30.4296H13.2132V27.5129H8.18124V30.4296H7.41504V27.1814H31.1565Z" stroke="#BD6F6D" stroke-width="0.132704" stroke-miterlimit="10"/>
<path d="M29.3959 16.1182V17.2457H9.2749V16.1182H11.2203L11.2121 16.1508H27.3934L27.3853 16.1182H29.3959Z" fill="#BD6F6D"/>
<path d="M33.4874 30.4286H5.04004V31.8075H33.4874V30.4286Z" fill="#BD6F6D"/>
<path d="M33.7174 45.4191H4.9209V45.4299H33.7174V45.4191Z" stroke="#BD6F6D" stroke-width="0.132704" stroke-miterlimit="10"/>
<path d="M36.6815 43.23V45.4294H33.7172V45.4185H4.92072V45.4294H1.95508V43.23H36.6815Z" fill="#BD6F6D"/>
<path d="M27.3937 16.1527H11.2124L11.2206 16.1201C11.332 15.7194 12.5696 11.7634 18.2359 11.3056V8.96348V8.64423C18.0468 8.50036 17.8956 8.31263 17.7952 8.09725C17.6949 7.88188 17.6484 7.64532 17.6599 7.40798C17.6614 7.02563 17.7989 6.65628 18.0478 6.36604C18.2967 6.07581 18.6408 5.88365 19.0184 5.82396V5.70576L19.2901 0L19.6026 5.70576V5.84162C19.9631 5.91835 20.287 6.115 20.5214 6.39947C20.7558 6.68394 20.8868 7.03945 20.8932 7.40798C20.8932 7.88211 20.7573 8.31004 20.4381 8.60484V11.3042C26.0977 11.7634 27.2823 15.718 27.3882 16.1188L27.3937 16.1527Z" fill="#BD6F6D"/>
</svg>
