<svg width="128" height="104" viewBox="0 0 128 104" fill="none" xmlns="http://www.w3.org/2000/svg">
<g clip-path="url(#clip0)">
<path d="M63.7043 98.3812L63.6781 98.4825L63.6389 98.4155L63.7043 98.3812Z" stroke="white" stroke-width="0.131806" stroke-miterlimit="10"/>
<path d="M83.988 102.094H62.7407L63.6816 98.4825L63.7078 98.3812C64.023 98.2179 64.4412 97.981 64.9264 97.687C66.2333 96.9006 67.4624 95.9915 68.5969 94.972C68.7603 94.825 68.9236 94.6748 69.0755 94.5179C70.5212 93.1049 71.8215 91.3636 72.4145 89.3462H74.4776C74.4994 89.4202 74.5222 89.4938 74.5462 89.5667C74.5691 89.6386 74.5936 89.7121 74.6197 89.784C74.6458 89.8559 74.6704 89.9277 74.6981 89.9996L74.7488 90.1319C74.7684 90.1793 74.7863 90.225 74.8059 90.2708C74.886 90.4635 74.9693 90.653 75.064 90.8392C75.0967 90.9078 75.131 90.9765 75.1669 91.0434C75.2029 91.1104 75.2176 91.1431 75.2453 91.1921C75.2731 91.2411 75.2927 91.2819 75.3189 91.326C75.4822 91.6103 75.6456 91.888 75.8285 92.1575C75.9004 92.2653 75.9755 92.3731 76.0507 92.4842C76.1258 92.5953 76.1961 92.6835 76.2696 92.7815C76.273 92.7876 76.2774 92.7931 76.2826 92.7978C76.3545 92.8926 76.428 92.9873 76.5048 93.0804C76.519 93.1008 76.5343 93.1204 76.5505 93.1392C76.6175 93.2225 76.6878 93.3026 76.758 93.3892C76.856 93.5068 76.9589 93.6228 77.0618 93.7371C77.1206 93.8024 77.1794 93.8678 77.2399 93.9315L77.3183 94.0164L77.529 94.2353C77.6238 94.3333 77.7201 94.4297 77.8165 94.5245L78.0452 94.7434L78.2086 94.8969C78.8352 95.4722 79.4952 96.01 80.1851 96.5076C80.3174 96.6039 80.4481 96.6971 80.5755 96.7869C80.703 96.8767 80.8696 96.9895 81.0117 97.0842L81.3907 97.3325L81.4299 97.357L81.67 97.5089C82.1437 97.8062 82.5668 98.048 82.9082 98.2358L83.0716 98.3257L83.988 102.094Z" fill="white"/>
<path d="M81.4304 97.3553L81.6706 97.5073L81.4304 97.357V97.3553Z" stroke="white" stroke-width="0.131806" stroke-miterlimit="10"/>
<path d="M83.0745 98.324L82.9111 98.2341C82.5697 98.0463 82.1466 97.8045 81.6729 97.5072L81.4328 97.3553L81.3936 97.3308L81.0146 97.0825C80.8725 96.9878 80.7271 96.8897 80.5784 96.7852C80.4298 96.6807 80.3203 96.6022 80.188 96.5059C79.4963 96.0068 78.8346 95.4674 78.2065 94.8903L78.0432 94.7368L77.8145 94.5179C77.7181 94.4231 77.6218 94.3267 77.527 94.2287L77.3163 94.0098L77.2379 93.9249C77.1774 93.8612 77.1186 93.7959 77.0598 93.7305C76.9569 93.6162 76.854 93.5002 76.756 93.3826C76.6857 93.2993 76.6155 93.2192 76.5485 93.1326C76.5323 93.1138 76.517 93.0942 76.5028 93.0738C76.426 92.9807 76.3525 92.886 76.2806 92.7912C76.2754 92.7865 76.271 92.781 76.2676 92.7749C76.194 92.6769 76.1205 92.5789 76.0487 92.4776C75.9768 92.3763 75.8984 92.2652 75.8265 92.1509C75.6452 91.8814 75.4737 91.6037 75.3168 91.3194C75.2907 91.2753 75.2662 91.2296 75.2433 91.1855C75.2205 91.1414 75.1894 91.0875 75.1649 91.0368C75.1404 90.9862 75.0947 90.9013 75.062 90.8326C74.9689 90.6464 74.884 90.4569 74.8039 90.2642C74.7843 90.2184 74.7663 90.1727 74.7467 90.1253L74.6961 89.993C74.6689 89.9211 74.6427 89.8493 74.6177 89.7774C74.5916 89.7055 74.5671 89.632 74.5442 89.5601C74.5213 89.4882 74.4968 89.4131 74.4756 89.3396H80.897L83.0745 98.324Z" stroke="white" stroke-width="0.131806" stroke-miterlimit="10"/>
<path d="M81.4304 97.3553L81.6706 97.5073L81.4304 97.357V97.3553Z" stroke="white" stroke-width="0.131806" stroke-miterlimit="10"/>
<path d="M40.5989 94.99L37.0394 100.809L33.6123 94.99L36.9888 89.1125L40.5989 94.99Z" fill="white"/>
<path d="M47.619 95.021L44.0595 100.84L40.634 95.021L44.0089 89.142L47.619 95.021Z" fill="white"/>
<path d="M54.6375 95.0504L51.0797 100.869L47.6526 95.0504L51.0275 89.173L54.6375 95.0504Z" fill="white"/>
<path d="M61.6587 95.0815L58.0992 100.9L54.6721 95.0815L58.0486 89.2024L61.6587 95.0815Z" fill="white"/>
<path d="M89.738 95.2008L86.1786 101.019L82.7515 95.2008L86.128 89.3234L89.738 95.2008Z" fill="white"/>
<path d="M96.7569 95.2317L93.1991 101.049L89.772 95.2317L93.1468 89.3527L96.7569 95.2317Z" fill="white"/>
<path d="M103.777 95.2611L100.218 101.08L96.7905 95.2611L100.167 89.3821L103.777 95.2611Z" fill="white"/>
<path d="M110.797 95.2906L107.237 101.109L103.81 95.2906L107.187 89.4132L110.797 95.2906Z" fill="white"/>
<path d="M117.816 95.3216L114.258 101.14L110.831 95.3216L114.205 89.4425L117.816 95.3216Z" fill="white"/>
<path d="M124.837 95.3511L121.277 101.17L117.85 95.3511L121.227 89.4736L124.837 95.3511Z" fill="white"/>
<path d="M33.5752 95.0064L30.0158 100.825L26.5886 95.0064L29.9651 89.1273L33.5752 95.0064Z" fill="white"/>
<path d="M26.536 95.0054L22.9782 100.824L19.551 95.0054L22.9259 89.1263L26.536 95.0054Z" fill="white"/>
<path d="M65.784 90.3965L63.7045 98.3812L63.6391 98.4155L63.3369 97.9025L61.6936 95.1109L65.0391 89.2841L65.0685 89.2318L65.784 90.3965Z" fill="white"/>
<path d="M72.4103 89.3462C71.8173 91.3636 70.517 93.1033 69.0714 94.5179C68.908 94.6813 68.7545 94.825 68.5927 94.972C67.4582 95.9915 66.2292 96.9006 64.9222 97.687C64.4322 97.981 64.0189 98.213 63.7036 98.3812L65.7831 90.3966L66.0559 89.3462H72.4103Z" stroke="white" stroke-width="0.131806" stroke-miterlimit="10"/>
<path d="M82.6556 102.094H63.9795L64.922 97.6837C66.229 96.8973 67.4581 95.9883 68.5926 94.9688C68.7559 94.8218 68.9193 94.6715 69.0712 94.5146H77.8122L78.0409 94.7335L78.2042 94.8871C78.8322 95.4658 79.4938 96.0069 80.1857 96.5075C80.318 96.6039 80.4487 96.697 80.5761 96.7869C80.7035 96.8767 80.8701 96.9894 81.0122 97.0842L81.3912 97.3325L81.4304 97.357L82.6556 102.094Z" fill="white"/>
<path d="M79.7551 102.094H66.9646L68.4364 96.8849H78.3045L79.7551 102.094Z" fill="white"/>
<path d="M73.7393 55.6286C73.7392 55.7205 73.7232 55.8117 73.6919 55.8982C73.6849 55.9206 73.6762 55.9424 73.6658 55.9635C73.6165 56.0729 73.5479 56.1725 73.4632 56.2575C73.2691 56.4469 73.0294 56.5831 72.7674 56.6528C72.6529 56.6867 72.5352 56.7085 72.4162 56.7182C72.3403 56.7281 72.2639 56.733 72.1875 56.7329C72.0631 56.7329 71.9391 56.7219 71.8166 56.7002C71.7054 56.6812 71.596 56.6523 71.4899 56.6136C71.3551 56.5672 71.2271 56.5029 71.1093 56.4225C71.0739 56.3992 71.0401 56.3735 71.0081 56.3457C70.9484 56.2998 70.8936 56.2478 70.8447 56.1906C70.7638 56.0946 70.7027 55.9836 70.665 55.8639C70.6401 55.7857 70.6274 55.7041 70.6274 55.6221C70.6274 55.0961 71.142 54.6567 71.8314 54.5456C71.9049 54.5339 71.9791 54.5274 72.0535 54.526C72.096 54.526 72.1401 54.526 72.1842 54.526C72.339 54.5262 72.4934 54.5426 72.6448 54.575C73.2803 54.7122 73.7393 55.132 73.7393 55.6286Z" fill="white"/>
<path d="M72.0925 54.6893C72.0925 54.6893 70.3446 54.3218 72.1709 49.4277H72.2624C74.0887 54.3283 72.4257 54.6893 72.4257 54.6893H72.0925Z" fill="white"/>
<path d="M45.8621 48.0686C47.8992 48.0686 49.5506 46.4172 49.5506 44.3801C49.5506 42.343 47.8992 40.6917 45.8621 40.6917C43.825 40.6917 42.1736 42.343 42.1736 44.3801C42.1736 46.4172 43.825 48.0686 45.8621 48.0686Z" fill="white"/>
<path d="M82.6196 34.5316V34.5349L49.4574 43.5519L46.834 44.2658H46.8324L46.5514 44.3409L46.4518 44.3687L46.3734 44.3899L46.2557 44.4226L45.7673 44.5549L45.4749 44.6349L45.3557 44.6676L45.2217 44.7036L44.9032 44.7901L42.3434 45.486L9.25151 54.4835L9.10449 54.2286V53.732L42.1883 44.6905L43.6911 44.2805H43.6927L44.8248 43.9701L45.2985 43.8411H45.3001L45.555 43.7708L45.5811 43.7643V43.7626L45.7216 43.7251L46.014 43.645L46.3374 43.5568L46.4844 43.516L47.5675 43.2203L49.1863 42.7776L82.1753 33.7622L82.1933 33.7932L82.2668 33.9207L82.6196 34.5316Z" fill="white"/>
<path d="M82.6196 54.1764V54.2287L82.1998 54.9556L49.2582 45.8226L47.2244 45.259L46.7687 45.1332L46.1218 44.9535L45.9339 44.9013L45.8555 44.88L45.6611 44.8261L45.3377 44.7363L45.2217 44.7036L45.0371 44.653L43.6927 44.2805H43.6911L42.2095 43.8689L9.10449 34.6901V34.5317L9.4606 33.9142L42.4235 43.044L44.4752 43.6124L45.2985 43.8411H45.3001L45.5452 43.9081L45.5958 43.9228L45.7134 43.9555L46.0336 44.0437L46.3309 44.1253L46.5057 44.1744H46.5073L46.6118 44.2038L46.8324 44.2658H46.834L49.4983 45.0042L82.6196 54.1764Z" fill="white"/>
<path d="M72.6597 17.4073L48.7155 42.0392L47.5688 43.2203L46.6132 44.2037L46.5364 44.2821L46.4531 44.3687L46.4024 44.4193L46.208 44.6218L46.2064 44.6235L45.9352 44.9012L45.8781 44.9584L45.8356 45.0041L45.0776 45.7833L43.6058 47.2976L19.807 71.7808L19.7874 71.7694L19.1356 71.392L19.1177 71.3822L43.021 46.7324L44.9045 44.7901L45.0384 44.6529L45.2655 44.4193L45.4713 44.2069L45.473 44.2053L45.6298 44.0419L45.7147 43.9554L45.8307 43.8361L46.0153 43.645L46.2864 43.3657L46.6066 43.0357L48.1274 41.4675L71.8903 16.963L71.9099 16.9744L72.6417 17.3975L72.6597 17.4073Z" fill="white"/>
<path d="M63.6897 62.0647C63.461 62.2362 63.2306 62.4045 63.0019 62.5711L48.096 47.3172L47.0833 46.2799L46.0541 45.228L45.912 45.0809L45.8352 45.0042L45.6621 44.8261L45.4759 44.635L45.3877 44.5451L45.2651 44.4194L44.8257 43.9701L44.4761 43.6124L42.9766 42.0802L25.6236 24.3188L21.1935 19.7858L18.9458 17.4858L18.954 17.4711L19.6074 17.0987L19.6237 17.0889L21.2997 18.7992L26.1317 23.7324L43.5483 41.5068L45.4742 43.467L45.618 43.614L45.7225 43.7202L45.8303 43.8313L46.0345 44.0387L46.2877 44.2968L46.3743 44.3851L46.4021 44.4145L46.6406 44.6579L47.2254 45.2541L48.6955 46.7471L63.6897 62.0647Z" fill="white"/>
<path d="M65.4026 63.8142C65.2131 64.0216 65.0203 64.2307 64.8243 64.4382L63.7217 63.3078C63.9471 63.1314 64.1693 62.955 64.3865 62.7753L65.4026 63.8142Z" fill="white"/>
<path d="M69.6506 68.1479C69.5673 68.4746 69.4873 68.7883 69.3941 69.1117L66.2676 65.9116C66.4309 65.6748 66.6025 65.4379 66.7576 65.201L69.6506 68.1479Z" fill="white"/>
<path d="M55.5153 7.62256L54.9582 9.83925L53.2904 16.4648L47.1386 40.9187L46.606 43.0423L46.4851 43.5225L46.41 43.8231L46.3316 44.1302L46.2875 44.3066L46.2565 44.4275L46.2074 44.6268L46.1241 44.9535L46.0555 45.2279L46.0065 45.4239L45.3531 48.0376L39.3826 71.7809L37.8242 77.9768C37.5759 78.1946 37.3265 78.4037 37.076 78.6041L36.8196 78.8115L36.8735 78.5992L38.5985 71.7073L44.5641 47.8285L45.077 45.7784L45.3384 44.7313L45.3564 44.6627L45.3874 44.5402L45.4707 44.2021L45.5442 43.9048L45.5671 43.8166L45.5802 43.7626L45.6161 43.6189L45.969 42.2108L46.3414 40.7243L52.4132 16.4648L54.0712 9.83925L54.6266 7.62256H55.5153Z" fill="white"/>
<path d="M53.123 68.3848C52.8594 68.5078 52.5997 68.6271 52.3438 68.7425L46.6967 47.9739L46.0041 45.424L45.911 45.0809L45.8767 44.9584L45.8554 44.88L45.7672 44.5533L45.6284 44.0404L45.5957 43.9211L45.5679 43.8182L45.5548 43.7708L45.4732 43.4719L44.7626 40.8582L38.2089 16.7572L36.3826 10.0369L35.7651 7.76631L36.0134 7.62256H36.5166L37.17 10.0369L38.9325 16.4648L45.5581 40.7047L45.9698 42.2108L46.285 43.3657L46.3373 43.5568L46.4092 43.8166L46.5056 44.1727L46.5333 44.2805L46.5497 44.3393L46.6379 44.666L46.7669 45.1364L47.0806 46.2799L47.4693 47.7011L53.123 68.3848Z" fill="white"/>
<path d="M54.275 72.596C54.0136 72.7191 53.7506 72.834 53.486 72.9407L53.1707 71.7809L52.728 70.1474C52.9878 70.0232 53.2459 69.8991 53.504 69.77L53.9826 71.5195L54.275 72.596Z" fill="white"/>
<path d="M82.2675 33.9207L82.194 33.7932L82.176 33.7622L82.1385 33.6969L81.8624 33.2183L81.2711 32.194L80.8627 31.4867L80.2485 30.4249L74.8023 20.9897L72.7718 17.4711L72.6591 17.4074L72.6412 17.3976L71.9093 16.9745L71.8897 16.963L70.5568 16.1937L69.825 15.7706L69.1716 15.3949L59.5485 9.84089L55.7178 7.62256H36.0143L35.766 7.76631L31.8325 10.0369L21.2995 16.1185L19.617 17.0856L19.6006 17.0954L18.9472 17.4678L18.939 17.4825L17.611 19.7825L10.8123 31.5733L10.0429 32.9079L9.46133 33.9141L9.10522 34.5316V54.2286L9.25224 54.4835L9.26204 54.4998L10.4218 56.509L12.3004 59.763L17.8544 69.3812L18.6956 70.8367L18.957 71.2892L19.1204 71.3823L19.1383 71.3921L19.7917 71.7694L19.8113 71.7809L21.0871 72.5176L21.6589 72.8443L22.0035 73.0436L24.6988 74.5987L32.3584 79.0288L34.1733 80.0759L34.6535 80.3536L35.307 79.8782C35.8542 79.4846 36.2577 79.2624 36.8131 78.8148L37.0695 78.6074C37.32 78.4048 37.5694 78.1957 37.8177 77.9801C39.8864 76.2285 41.7007 74.1969 43.2083 71.9442C43.2083 71.9442 43.4435 71.8952 43.8797 71.7809C46.7827 71.0088 49.6146 69.9907 52.3446 68.7376C52.6016 68.6222 52.8614 68.5029 53.1238 68.3799C56.5929 66.7588 59.9004 64.8122 63.0017 62.5661C63.2304 62.4028 63.4607 62.2394 63.6894 62.0598C66.1859 60.194 68.5213 58.1219 70.6711 55.8654C70.7088 55.9852 70.7699 56.0962 70.8508 56.1921L70.7789 56.2885C69.3594 58.2798 67.128 60.5487 64.3853 62.7769C64.1681 62.9566 63.9459 63.133 63.7205 63.3094C60.5445 65.8077 57.1213 67.9747 53.5044 69.7765C53.2463 69.9056 52.9882 70.0297 52.7285 70.1539C51.4625 70.755 50.1786 71.2973 48.8897 71.7874C48.1971 72.0411 47.5034 72.2769 46.8086 72.4947C45.0008 74.8964 43.0001 77.1466 40.8266 79.2232C40.5277 79.5123 40.2255 79.7949 39.9233 80.0726C39.6211 80.3503 39.3205 80.6215 39.02 80.8894L38.7292 81.1377H48.4993C51.3955 77.5031 53.4211 72.9701 53.4211 72.9701L53.4865 72.9423C53.7511 72.8334 54.0141 72.7185 54.2754 72.5976C57.3481 71.1716 60.3195 68.8569 62.9119 66.3706C63.5751 65.7352 64.2187 65.0883 64.8231 64.4414C65.0191 64.234 65.2119 64.0249 65.4014 63.8174C67.0201 62.0543 68.5269 60.1917 69.9132 58.2406V58.2324C70.4032 57.53 70.8083 56.9158 71.1007 56.4355C71.2185 56.5159 71.3465 56.5802 71.4814 56.6267V56.6414C70.1808 59.6412 68.6007 62.512 66.7621 65.2157C66.5987 65.4526 66.4354 65.6894 66.272 65.9263C64.4724 68.4909 62.3597 70.8209 59.983 72.8623C59.3573 74.9123 58.4671 77.6893 56.9267 80.4516L68.211 73.9387C68.211 73.3637 68.1784 73.0599 68.1784 73.0599C68.6439 71.7319 69.0474 70.4136 69.3986 69.1264C69.4868 68.7997 69.5718 68.4828 69.6551 68.1626C70.8933 63.3388 71.4225 59.0753 71.8211 56.7149C71.9435 56.7366 72.0676 56.7475 72.1919 56.7475C72.2684 56.7476 72.3448 56.7427 72.4206 56.7328C72.8192 59.1112 73.3517 63.3617 74.5883 68.1675L76.8475 64.2568C75.2816 61.8438 73.9157 59.3066 72.7637 56.6708C73.0257 56.601 73.2654 56.4648 73.4596 56.2755C74.2338 57.5823 75.8265 59.8463 77.9534 62.3195L78.5562 61.2757C76.5731 59.5164 74.9477 57.7718 73.8189 56.2003L73.6556 55.9765C73.666 55.9554 73.6747 55.9336 73.6817 55.9112C75.3753 57.5296 77.1494 59.0616 78.9972 60.5014L79.778 59.1472L82.1907 54.9686L82.5468 54.3528L82.6106 54.2417V34.5316L82.2675 33.9207Z" stroke="white" stroke-width="0.131806" stroke-miterlimit="10"/>
<path d="M73.7841 36.7205V51.5415L73.686 51.7049L73.4688 52.0757L73.2434 52.4677L73.1029 52.7111L72.0525 54.526L71.9806 54.6501L71.4546 55.5616L71.3044 55.823L71.0038 56.3441L69.9289 58.2275V58.2357C68.5427 60.1869 67.0358 62.0494 65.4171 63.8125C65.2277 64.02 65.0349 64.2291 64.8389 64.4366C64.2296 65.09 63.5909 65.7303 62.9277 66.3657L54.136 71.4411L53.9988 71.5211L53.5545 71.776H48.8891C50.178 71.2974 51.4619 70.7485 52.7279 70.1425C52.9877 70.0183 53.2458 69.8942 53.5039 69.7651C57.1209 67.9665 60.5446 65.8028 63.7215 63.3078C63.947 63.1314 64.1691 62.9549 64.3864 62.7753C67.1291 60.5471 69.3605 58.2782 70.78 56.2869L70.8519 56.1905C70.7709 56.0946 70.7099 55.9835 70.6722 55.8638C68.5224 58.1203 66.187 60.1924 63.6905 62.0581C63.4618 62.2297 63.2315 62.3979 63.0028 62.5645C59.9015 64.8105 56.594 66.7572 53.1249 68.3782C52.8613 68.5013 52.6016 68.6206 52.3457 68.736C49.6139 69.9877 46.7804 71.0042 43.8759 71.7744H38.7156L38.5898 71.7008L26.603 64.7812L26.5197 64.7339H26.505L26.0149 64.4496H26.0018L25.9022 64.3941L25.8777 64.381L18.6902 51.927L18.5791 51.7343L18.468 51.5431V36.7205L18.6183 36.4592L18.7359 36.2566L25.6229 24.3319L25.8728 23.899V23.8876L26.1211 23.7438L26.3596 23.6066H26.3726L38.1994 16.7785L38.5261 16.5939L38.7123 16.4861H53.5333L65.6083 23.458L65.7063 23.5135L65.721 23.5233L66.2715 23.8418H66.2862L66.3695 23.8876L73.4443 36.1472V36.1586V36.1701L73.4982 36.2664L73.7841 36.7205Z" stroke="white" stroke-width="0.131806" stroke-miterlimit="10"/>
<path d="M69.1733 20.9897H80.6587V14.0031C80.6587 14.0031 80.0281 12.5035 74.9168 12.5035C69.8055 12.5035 69.1733 13.9639 69.1733 13.9639V20.9897Z" fill="white"/>
<path d="M79.8293 13.9835H77.6191V16.1936H79.8293V13.9835Z" stroke="white" stroke-width="0.131806" stroke-miterlimit="10"/>
<path d="M72.0363 13.9835H69.8262V16.1936H72.0363V13.9835Z" stroke="white" stroke-width="0.131806" stroke-miterlimit="10"/>
<path d="M77.0475 13.9835H72.6272V16.1936H77.0475V13.9835Z" stroke="white" stroke-width="0.131806" stroke-miterlimit="10"/>
<path d="M51.0581 9.83925H62.5434V2.8543C62.5434 2.8543 61.9129 1.35309 56.8016 1.35309C51.6903 1.35309 51.0581 2.81346 51.0581 2.81346V9.83925Z" fill="white"/>
<path d="M61.7131 2.83301H59.5029V5.04317H61.7131V2.83301Z" stroke="white" stroke-width="0.131806" stroke-miterlimit="10"/>
<path d="M53.9191 2.83301H51.709V5.04317H53.9191V2.83301Z" stroke="white" stroke-width="0.131806" stroke-miterlimit="10"/>
<path d="M58.9313 2.83301H54.511V5.04317H58.9313V2.83301Z" stroke="white" stroke-width="0.131806" stroke-miterlimit="10"/>
<path d="M28.9553 10.0369H40.4406V3.05036C40.4406 3.05036 39.8085 1.55078 34.6988 1.55078C29.5891 1.55078 28.9553 3.01115 28.9553 3.01115V10.0369Z" fill="white"/>
<path d="M39.6101 3.03076H37.3999V5.24092H39.6101V3.03076Z" stroke="white" stroke-width="0.131806" stroke-miterlimit="10"/>
<path d="M31.8151 3.03076H29.605V5.24092H31.8151V3.03076Z" stroke="white" stroke-width="0.131806" stroke-miterlimit="10"/>
<path d="M36.8283 3.03076H32.408V5.24092H36.8283V3.03076Z" stroke="white" stroke-width="0.131806" stroke-miterlimit="10"/>
<path d="M9.81616 19.7858H21.2998V12.7992C21.2998 12.7992 20.6677 11.2996 15.558 11.2996C10.4483 11.2996 9.81616 12.76 9.81616 12.76V19.7858Z" fill="white"/>
<path d="M20.4704 12.7796H18.2603V14.9898H20.4704V12.7796Z" stroke="white" stroke-width="0.131806" stroke-miterlimit="10"/>
<path d="M12.6743 12.7796H10.4641V14.9898H12.6743V12.7796Z" stroke="white" stroke-width="0.131806" stroke-miterlimit="10"/>
<path d="M17.6886 12.7796H13.2683V14.9898H17.6886V12.7796Z" stroke="white" stroke-width="0.131806" stroke-miterlimit="10"/>
<path d="M2.59351 39.914H14.0772V32.9274C14.0772 32.9274 13.4466 31.4279 8.33534 31.4279C3.22405 31.4279 2.59351 32.8882 2.59351 32.8882V39.914Z" fill="white"/>
<path d="M13.2487 32.9078H11.0386V35.118H13.2487V32.9078Z" stroke="white" stroke-width="0.131806" stroke-miterlimit="10"/>
<path d="M5.45381 32.9078H3.24365V35.118H5.45381V32.9078Z" stroke="white" stroke-width="0.131806" stroke-miterlimit="10"/>
<path d="M10.465 32.9078H6.04468V35.118H10.465V32.9078Z" stroke="white" stroke-width="0.131806" stroke-miterlimit="10"/>
<path d="M0.814697 61.3051H12.3V54.3202C12.3 54.3202 11.6695 52.819 6.55817 52.819C1.44687 52.819 0.814697 54.2793 0.814697 54.2793V61.3051Z" fill="white"/>
<path d="M11.4704 54.299H9.26025V56.5091H11.4704V54.299Z" stroke="white" stroke-width="0.131806" stroke-miterlimit="10"/>
<path d="M3.67647 54.299H1.46631V56.5091H3.67647V54.299Z" stroke="white" stroke-width="0.131806" stroke-miterlimit="10"/>
<path d="M8.68863 54.299H4.26831V56.5091H8.68863V54.299Z" stroke="white" stroke-width="0.131806" stroke-miterlimit="10"/>
<path d="M13.2083 77.8412H24.6936V70.8611C24.6936 70.8611 24.0614 69.3616 18.9501 69.3616C13.8388 69.3616 13.2083 70.8219 13.2083 70.8219V77.8412Z" fill="white"/>
<path d="M23.864 70.835H21.6538V73.0451H23.864V70.835Z" stroke="white" stroke-width="0.131806" stroke-miterlimit="10"/>
<path d="M16.0681 70.835H13.8579V73.0451H16.0681V70.835Z" stroke="white" stroke-width="0.131806" stroke-miterlimit="10"/>
<path d="M21.0822 70.835H16.6619V73.0451H21.0822V70.835Z" stroke="white" stroke-width="0.131806" stroke-miterlimit="10"/>
<path d="M34.3182 80.5856L34.6449 80.3504L35.2983 79.875C35.8455 79.4813 36.249 79.2592 36.8044 78.8116L37.0609 78.6041H36.8583C36.6819 78.6041 36.499 78.6041 36.3095 78.6041C34.4669 78.6041 33.2058 78.7936 32.3482 79.037C30.8257 79.4666 30.5676 80.0629 30.5676 80.0629V82.9493C30.9368 82.7484 31.3305 82.5262 31.7438 82.2844L34.3182 80.5856ZM40.8196 79.2249C40.5207 79.514 40.2185 79.7966 39.9163 80.0743C39.6141 80.352 39.3135 80.6232 39.0129 80.8911L38.7287 81.1377L38.4478 81.3795C38.0742 81.6953 37.704 81.9964 37.337 82.2828C36.444 82.999 35.497 83.6451 34.5044 84.2153H42.0595V80.0923C42.0595 80.0923 41.8667 79.6332 40.8262 79.2232L40.8196 79.2249Z" fill="white"/>
<path d="M41.2297 80.0727V82.2828H39.0195V80.8845C39.3201 80.6215 39.6223 80.3503 39.9229 80.0677L41.2297 80.0727Z" fill="white"/>
<path d="M78.9241 59.1341H90.4094V52.1491C90.4094 52.1491 89.7772 50.6495 84.6659 50.6495C79.5546 50.6495 78.9241 52.1083 78.9241 52.1083V59.1341Z" fill="white"/>
<path d="M89.5798 52.1279H87.3696V54.3381H89.5798V52.1279Z" stroke="white" stroke-width="0.131806" stroke-miterlimit="10"/>
<path d="M81.7839 52.1279H79.5737V54.3381H81.7839V52.1279Z" stroke="white" stroke-width="0.131806" stroke-miterlimit="10"/>
<path d="M86.797 52.1279H82.3767V54.3381H86.797V52.1279Z" stroke="white" stroke-width="0.131806" stroke-miterlimit="10"/>
<path d="M78.4087 38.493H89.894V31.5064C89.894 31.5064 89.2618 30.0068 84.1505 30.0068C79.0392 30.0068 78.4087 31.4672 78.4087 31.4672V38.493Z" fill="white"/>
<path d="M89.0639 31.4868H86.8538V33.697H89.0639V31.4868Z" stroke="white" stroke-width="0.131806" stroke-miterlimit="10"/>
<path d="M81.2697 31.4868H79.0596V33.697H81.2697V31.4868Z" stroke="white" stroke-width="0.131806" stroke-miterlimit="10"/>
<path d="M86.2831 31.4868H81.8628V33.697H86.2831V31.4868Z" stroke="white" stroke-width="0.131806" stroke-miterlimit="10"/>
<path d="M126.986 87.8857H17.7029C17.7029 87.0379 17.9936 84.2152 21.6233 84.2152H123.206C123.206 84.2152 126.806 84.8899 126.986 87.8857Z" stroke="white" stroke-width="0.131806" stroke-miterlimit="10"/>
<path d="M126.986 87.8857H17.7029C17.7029 88.0344 17.7029 88.1226 17.7029 88.1226V102.094H62.7424L63.6833 98.4824L63.6441 98.4154L63.3419 97.9025L61.6986 95.1108L65.0441 89.284L65.0735 89.2318L65.7889 90.3965L66.0617 89.3461H80.9007L83.0798 98.3305L83.9946 102.101H126.994V88.1226C126.994 88.0426 126.992 87.9625 126.986 87.8857ZM22.9792 100.825L19.5488 95.0063L22.9236 89.1256L26.5337 95.0063L22.9792 100.825ZM30.0164 100.825L26.586 95.0063L29.9625 89.1256L33.5726 95.0063L30.0164 100.825ZM37.0405 100.809L33.6101 94.9899L36.9866 89.1093L40.5967 94.9899L37.0405 100.809ZM44.0647 100.84L40.6343 95.021L44.0092 89.1403L47.6192 95.021L44.0647 100.84ZM51.0889 100.869L47.6585 95.0504L51.0333 89.1697L54.6434 95.0504L51.0889 100.869ZM58.113 100.9L54.6826 95.0814L58.0591 89.2007L61.6692 95.0814L58.113 100.9ZM86.1917 101.019L82.7613 95.2007L86.1377 89.32L89.7478 95.2007L86.1917 101.019ZM93.2158 101.049L89.7854 95.2317L93.1603 89.351L96.7704 95.2317L93.2158 101.049ZM100.24 101.08L96.8096 95.2611L100.186 89.3804L103.796 95.2611L100.24 101.08ZM107.264 101.109L103.834 95.2905L107.21 89.4098L110.82 95.2905L107.264 101.109ZM114.288 101.14L110.858 95.3215L114.233 89.4409L117.843 95.3215L114.288 101.14ZM121.312 101.17L117.882 95.351L121.259 89.4703L124.869 95.351L121.312 101.17Z" stroke="white" stroke-width="0.131806" stroke-miterlimit="10"/>
<path d="M26.5374 95.0064L22.9796 100.825L19.5525 95.0064L22.9274 89.1273L26.5374 95.0064Z" stroke="white" stroke-width="0.131806" stroke-miterlimit="10"/>
<path d="M33.5764 95.0064L30.017 100.825L26.5898 95.0064L29.9663 89.1273L33.5764 95.0064Z" stroke="white" stroke-width="0.131806" stroke-miterlimit="10"/>
<path d="M40.5991 94.99L37.0397 100.809L33.6125 94.99L36.989 89.1125L40.5991 94.99Z" stroke="white" stroke-width="0.131806" stroke-miterlimit="10"/>
<path d="M47.62 95.021L44.0605 100.84L40.635 95.021L44.0099 89.142L47.62 95.021Z" stroke="white" stroke-width="0.131806" stroke-miterlimit="10"/>
<path d="M54.6385 95.0504L51.0807 100.869L47.6536 95.0504L51.0284 89.173L54.6385 95.0504Z" stroke="white" stroke-width="0.131806" stroke-miterlimit="10"/>
<path d="M61.6597 95.0815L58.1002 100.9L54.6731 95.0815L58.0496 89.2024L61.6597 95.0815Z" stroke="white" stroke-width="0.131806" stroke-miterlimit="10"/>
<path d="M89.738 95.2007L86.1786 101.019L82.7515 95.2007L86.128 89.3232L89.738 95.2007Z" stroke="white" stroke-width="0.131806" stroke-miterlimit="10"/>
<path d="M96.7569 95.2317L93.1991 101.049L89.772 95.2317L93.1468 89.3527L96.7569 95.2317Z" stroke="white" stroke-width="0.131806" stroke-miterlimit="10"/>
<path d="M103.777 95.2611L100.218 101.08L96.7905 95.2611L100.167 89.3821L103.777 95.2611Z" stroke="white" stroke-width="0.131806" stroke-miterlimit="10"/>
<path d="M110.797 95.2905L107.237 101.109L103.81 95.2905L107.187 89.4131L110.797 95.2905Z" stroke="white" stroke-width="0.131806" stroke-miterlimit="10"/>
<path d="M117.817 95.3216L114.259 101.14L110.832 95.3216L114.207 89.4425L117.817 95.3216Z" stroke="white" stroke-width="0.131806" stroke-miterlimit="10"/>
<path d="M124.838 95.3509L121.278 101.17L117.851 95.3509L121.228 89.4735L124.838 95.3509Z" stroke="white" stroke-width="0.131806" stroke-miterlimit="10"/>
<path d="M63.7045 98.3812L63.6784 98.4825L63.6392 98.4155L63.7045 98.3812Z" stroke="white" stroke-width="0.131806" stroke-miterlimit="10"/>
<path d="M81.4316 97.3553L81.6718 97.5073L81.4316 97.357V97.3553Z" stroke="white" stroke-width="0.131806" stroke-miterlimit="10"/>
<path d="M33.4348 80.0727V81.2439L31.7506 82.2828H31.2246L31.2426 80.071L33.4348 80.0727Z" stroke="white" stroke-width="0.131806" stroke-miterlimit="10"/>
<path d="M70.8513 56.1905L70.7795 56.2869C69.3599 58.2782 67.1285 60.5472 64.3858 62.7753C64.1686 62.955 63.9464 63.1314 63.721 63.3078C60.545 65.8061 57.1218 67.9731 53.5049 69.7749C53.2468 69.904 52.9887 70.0281 52.729 70.1523C51.463 70.7534 50.1791 71.2957 48.8902 71.7858C48.1976 72.0406 47.5039 72.2769 46.8091 72.4948C45.0013 74.8964 43.0007 77.1467 40.8272 79.2232C40.5282 79.5124 40.226 79.795 39.9238 80.0727C39.6216 80.3504 39.321 80.6215 39.0205 80.8894L38.7297 81.1377L38.4487 81.3795C38.0752 81.6953 37.7049 81.9964 37.338 82.2828C36.445 82.999 35.498 83.6451 34.5054 84.2153H28.0481C28.5872 83.9703 29.4742 83.5488 30.5752 82.9477C30.9443 82.7467 31.3805 82.4576 31.7938 82.2224L33.4812 81.1769C33.7344 80.9972 34.0725 80.7702 34.3241 80.5856L34.77 80.2589L35.3058 79.8701C35.8531 79.4764 36.2566 79.2543 36.812 78.8067L37.0684 78.5992C37.3189 78.3967 37.5683 78.1876 37.8166 77.972C39.8853 76.2203 41.6996 74.1888 43.2072 71.9361C43.2072 71.9361 43.4424 71.8871 43.8786 71.7727C46.7819 71.0034 49.6143 69.988 52.3451 68.7376C52.6021 68.6222 52.8619 68.503 53.1243 68.3799C56.5935 66.7588 59.9009 64.8122 63.0022 62.5662C63.2309 62.4028 63.4613 62.2395 63.69 62.0598C66.1864 60.194 68.5218 58.122 70.6716 55.8655C70.7095 55.9846 70.7706 56.0951 70.8513 56.1905V56.1905Z" stroke="white" stroke-width="0.131806" stroke-miterlimit="10"/>
<path d="M45.4381 84.2152H42.0616H34.5066" stroke="white" stroke-width="0.131806" stroke-miterlimit="10"/>
<path d="M71.4896 56.6137V56.6283C70.189 59.6282 68.609 62.499 66.7703 65.2027C66.607 65.4396 66.4436 65.6764 66.2803 65.9133C64.4806 68.4779 62.3679 70.8079 59.9912 72.8492C59.3656 74.8993 58.4753 77.6763 56.9349 80.4386C56.1908 81.7823 55.3123 83.0471 54.3131 84.2137H45.4365C46.5228 83.4083 47.5601 82.3204 48.4994 81.1361C51.3956 77.5015 53.4212 72.9685 53.4212 72.9685L53.4865 72.9407C53.7512 72.8318 54.0142 72.7169 54.2755 72.596C57.3482 71.17 60.3196 68.8553 62.912 66.3691C63.5752 65.7336 64.2188 65.0867 64.8232 64.4399C65.0192 64.2324 65.212 64.0233 65.4015 63.8159C67.0201 62.0528 68.527 60.1902 69.9132 58.239V58.2308C70.4033 57.5284 70.8084 56.9142 71.1008 56.434C71.2218 56.511 71.3525 56.5715 71.4896 56.6137V56.6137Z" stroke="white" stroke-width="0.131806" stroke-miterlimit="10"/>
<path d="M66.8137 84.2153C68.0928 79.2102 68.2267 75.5233 68.2071 73.9241C68.2071 73.3491 68.1744 73.0452 68.1744 73.0452C68.64 71.7172 69.0435 70.3989 69.3947 69.1117C69.4829 68.785 69.5678 68.4681 69.6512 68.1479C70.8894 63.3241 71.4186 59.0606 71.8172 56.7002C71.9396 56.7219 72.0637 56.7329 72.188 56.7329C72.2645 56.733 72.3409 56.728 72.4167 56.7182C72.8153 59.0966 73.3478 63.347 74.5844 68.1528C74.9911 69.7275 75.4714 71.3611 76.0546 73.0093C76.0546 73.0093 75.6772 77.3953 77.4251 84.2169L66.8137 84.2153Z" stroke="white" stroke-width="0.131806" stroke-miterlimit="10"/>
<path d="M99.3085 84.2152H89.9566C86.6585 80.4205 85.1638 75.8271 84.2392 72.8116C81.2531 70.2862 78.7996 67.2576 76.8377 64.2389C75.2718 61.8258 73.906 59.2886 72.7539 56.6528C73.016 56.583 73.2557 56.4468 73.4498 56.2574C74.2241 57.5643 75.8168 59.8283 77.9436 62.3015C81.374 66.2889 86.1733 70.835 91.1752 72.8639C91.1882 72.8688 94.8212 81.0004 99.3085 84.2152Z" stroke="white" stroke-width="0.131806" stroke-miterlimit="10"/>
<path d="M89.9575 84.2152H77.4202" stroke="white" stroke-width="0.131806" stroke-miterlimit="10"/>
<path d="M117.896 84.2152H110.287C106.449 82.1586 100.848 76.5376 97.8015 72.395C90.6973 70.1783 83.5147 65.6665 78.5602 61.2626C76.5771 59.5033 74.9518 57.7586 73.823 56.1872L73.6597 55.9634C73.6701 55.9423 73.6788 55.9205 73.6858 55.8981C75.3794 57.5165 77.1535 59.0485 79.0013 60.4883C84.1812 64.5574 92.5334 70.1065 101.531 72.0209C101.537 72.0209 107.059 79.8847 117.896 84.2152Z" stroke="white" stroke-width="0.131806" stroke-miterlimit="10"/>
<path d="M70.6702 55.8703L70.7126 55.8246H73.617L73.6906 55.8981" stroke="white" stroke-width="0.131806" stroke-miterlimit="10"/>
<path d="M110.287 84.2152H99.3096" stroke="white" stroke-width="0.131806" stroke-miterlimit="10"/>
<path d="M66.8124 84.2152H54.2996" stroke="white" stroke-width="0.131806" stroke-miterlimit="10"/>
<path d="M71.5729 55.5632C71.5386 55.64 71.4978 55.7266 71.4471 55.8246C71.4275 55.8622 71.4063 55.903 71.3834 55.9438C71.3066 56.086 71.2201 56.246 71.1106 56.4225C70.8182 56.9125 70.418 57.5251 69.923 58.2193V58.2275C68.5368 60.1787 67.0299 62.0413 65.4112 63.8044C65.2218 64.0118 65.029 64.2209 64.833 64.4284C64.2237 65.0818 63.585 65.7221 62.9217 66.3576C60.3293 68.8438 57.358 71.1585 54.2853 72.5846C54.0239 72.7076 53.7609 72.8225 53.4963 72.9292L53.431 72.957C53.431 72.957 51.4054 77.4917 48.5092 81.1246C47.5666 82.3089 46.5326 83.3968 45.4463 84.2022H34.5066C35.4991 83.632 36.4461 82.9859 37.3391 82.2697C37.705 81.9844 38.0753 81.6833 38.4499 81.3664L38.7309 81.1246L39.0217 80.8714C39.3222 80.6084 39.6244 80.3373 39.925 80.0547C40.2256 79.7721 40.5294 79.4944 40.8283 79.2052C43.0011 77.1344 45.0017 74.8901 46.8103 72.4947C47.5051 72.2769 48.1988 72.039 48.8914 71.7809C50.1803 71.3022 51.4642 70.7534 52.7302 70.1473C52.9899 70.0232 53.248 69.899 53.5061 69.77C57.1234 67.9698 60.5471 65.8045 63.7238 63.3078C63.9492 63.1314 64.1714 62.9549 64.3887 62.7752C67.1313 60.5471 69.3627 58.2782 70.7823 56.2869L70.8541 56.1905L71.0355 55.9438L71.1237 55.8246L71.3181 55.5632H71.5729Z" fill="white"/>
<path d="M72.0298 55.5829C72.0119 55.658 71.9939 55.7381 71.9776 55.8247L71.953 55.9439C71.9089 56.1677 71.8632 56.4193 71.8158 56.7002C71.4172 59.0607 70.888 63.3242 69.6498 68.148C69.5665 68.4747 69.4864 68.7883 69.3933 69.1117C69.0421 70.399 68.6386 71.7254 68.1731 73.0453C68.1731 73.0453 68.1992 73.3491 68.2057 73.9241C68.2253 75.5217 68.0914 79.2086 66.8124 84.2153H54.2996C55.2988 83.0488 56.1772 81.7839 56.9214 80.4402C58.4618 77.6779 59.352 74.9009 59.9777 72.8509C62.3544 70.8095 64.4671 68.4795 66.2667 65.9149C66.4301 65.6781 66.6016 65.4412 66.7568 65.2043C68.5954 62.5006 70.1755 59.6298 71.4761 56.63V56.6153L71.7668 55.9455L71.8191 55.8263L71.9236 55.5845L72.0298 55.5829Z" fill="white"/>
<path d="M89.9578 84.2152H77.4205C75.6726 77.3937 76.05 73.0076 76.05 73.0076C75.4717 71.3594 74.9914 69.7259 74.5798 68.1512C73.3432 63.3486 72.8107 59.0982 72.4121 56.7165C72.3647 56.4306 72.319 56.1725 72.2733 55.9422L72.2488 55.823C72.2291 55.7233 72.2095 55.6286 72.1899 55.542H72.2831L72.4039 55.823L72.4562 55.9422L72.7355 56.5956L72.7633 56.6593C73.9154 59.2952 75.2812 61.8323 76.8471 64.2454C78.8074 67.2609 81.2576 70.2894 84.2486 72.8181C85.165 75.8271 86.6597 80.4206 89.9578 84.2152Z" fill="white"/>
<path d="M110.286 84.2153H99.3084C94.8211 81.0005 91.1882 72.8688 91.1882 72.8688C86.1863 70.84 81.387 66.2939 77.9566 62.3064C75.833 59.8284 74.2371 57.5692 73.4628 56.2624C73.3958 56.1513 73.3354 56.0468 73.2831 55.9488C73.2602 55.9079 73.2374 55.8671 73.2178 55.8295C73.1426 55.6907 73.0822 55.5714 73.0381 55.4685H73.2945L73.5624 55.8295L73.6507 55.9488L73.6654 55.9684L73.8287 56.1922C74.9493 57.7636 76.5747 59.5082 78.5659 61.2675C83.5204 65.678 90.703 70.1833 97.8072 72.4C100.847 76.5442 106.449 82.1587 110.286 84.2153Z" fill="white"/>
</g>
<defs>
<clipPath id="clip0">
<rect width="128" height="103.387" fill="white"/>
</clipPath>
</defs>
</svg>
