<svg width="103" height="76" viewBox="0 0 103 76" fill="none" xmlns="http://www.w3.org/2000/svg">
<path d="M64.1493 70.4792L64.1226 70.5825L64.0825 70.5142C64.1042 70.5026 64.1259 70.4909 64.1493 70.4792Z" stroke="#D7A9A7" stroke-width="0.134392" stroke-miterlimit="10"/>
<path d="M83.908 70.4209C83.8547 70.3926 83.798 70.3626 83.7397 70.3293C83.3915 70.1377 82.9599 69.8912 82.4767 69.5879C82.3967 69.538 82.3151 69.4863 82.2317 69.433C82.2184 69.4247 82.2051 69.4163 82.1917 69.408C82.0651 69.3264 81.9368 69.2414 81.8052 69.1548C81.6602 69.0582 81.5119 68.9582 81.3603 68.8516C81.2303 68.7599 81.097 68.665 80.9621 68.5667C80.3039 68.0902 79.6124 67.5388 78.9409 66.919C78.8859 66.8674 78.8292 66.8157 78.7743 66.7624C78.6976 66.6891 78.6193 66.6142 78.541 66.5392C78.4427 66.4426 78.3444 66.3443 78.2477 66.2443C78.1761 66.171 78.1044 66.096 78.0328 66.0211C78.0061 65.9927 77.9794 65.9644 77.9528 65.9344C77.8911 65.8695 77.8312 65.8028 77.7712 65.7362C77.7112 65.6695 77.6545 65.6029 77.5962 65.5363C76.3565 66.3276 74.9485 66.8824 73.5955 67.4255C71.1628 68.4034 68.6884 68.9799 66.109 69.3214C65.8591 69.4847 65.6192 69.6346 65.3925 69.7712C64.8977 70.0711 64.4711 70.3077 64.1495 70.4792L64.1228 70.5825L63.1631 74.266H84.8411L83.908 70.4209Z" fill="#D7A9A7"/>
<path d="M40.5817 67.021L36.9509 72.9552L33.4551 67.021L36.8992 61.0267L40.5817 67.021Z" fill="#D7A9A7"/>
<path d="M47.7416 67.0524L44.1108 72.9867L40.6167 67.0524L44.0592 61.0565L47.7416 67.0524Z" fill="#D7A9A7"/>
<path d="M54.9018 67.0825L51.2727 73.0168L47.7769 67.0825L51.2193 61.0883L54.9018 67.0825Z" fill="#D7A9A7"/>
<path d="M62.0631 67.1139L58.4323 73.0482L54.9365 67.1139L58.3807 61.118L62.0631 67.1139Z" fill="#D7A9A7"/>
<path d="M90.7047 67.2361L87.0739 73.1703L83.5781 67.2361L87.0223 61.2418L90.7047 67.2361Z" fill="#D7A9A7"/>
<path d="M97.8642 67.2675L94.2351 73.2001L90.7393 67.2675L94.1817 61.2716L97.8642 67.2675Z" fill="#D7A9A7"/>
<path d="M100.958 67.6272C101.027 67.2257 101.092 66.8242 101.155 66.4193C101.38 64.9782 101.605 63.5371 101.83 62.0961L101.342 61.3014L97.8975 67.2973L99.2905 69.6613C99.8453 68.9816 100.402 68.3052 100.958 67.6272Z" fill="#D7A9A7"/>
<path d="M33.4166 67.0375L29.7858 72.9718L26.29 67.0375L29.7342 61.0416L33.4166 67.0375Z" fill="#D7A9A7"/>
<path d="M26.2367 67.0375L22.6076 72.9718L19.1118 67.0375L22.5543 61.0416L26.2367 67.0375Z" fill="#D7A9A7"/>
<path d="M64.7375 68.2189L66.2705 62.3363L65.5406 61.1484L65.5106 61.2018L62.0981 67.1443L63.7744 69.9915L64.0827 70.5146C64.1043 70.503 64.126 70.4913 64.1493 70.4796L64.6325 68.6221C64.6392 68.4838 64.6742 68.3455 64.7375 68.2189Z" fill="#D7A9A7"/>
<path d="M82.2313 69.4346V69.4329C82.218 69.4246 82.2046 69.4162 82.1913 69.4079C82.0647 69.3263 81.9364 69.2413 81.8047 69.1547C81.6598 69.058 81.5115 68.9581 81.3598 68.8515C81.2299 68.7598 81.0966 68.6649 80.9616 68.5666C80.3034 68.0901 79.6119 67.5387 78.9404 66.9189C78.8855 66.8673 78.8288 66.8156 78.7738 66.7623C78.6972 66.689 78.6188 66.614 78.5405 66.5391H75.7129C75.0131 66.8573 74.2966 67.1438 73.5951 67.4254C71.1623 68.4033 68.688 68.9797 66.1069 69.3213C65.857 69.4829 65.617 69.6361 65.3921 69.7711L64.4307 74.2659H83.481L82.2313 69.4346Z" fill="#D7A9A7"/>
<path d="M80.5219 74.266H67.4751L68.9764 68.9531H79.0422L80.5219 74.266Z" fill="#D7A9A7"/>
<path d="M65.8803 35.2257C65.757 35.3607 65.6304 35.4973 65.5037 35.6339C65.4338 35.7105 65.3621 35.7855 65.2905 35.8621L65.0672 35.6339L64.1641 34.7092C64.394 34.5293 64.6206 34.3494 64.8422 34.1661L65.8803 35.2257Z" fill="#D7A9A7"/>
<path d="M51.1126 49.3181C51.1076 49.3248 51.1043 49.3314 51.101 49.3381C50.7177 49.9362 50.3212 50.521 49.9179 51.1007C49.5314 51.6572 49.1381 52.2069 48.7449 52.7567C48.7266 52.7834 48.7082 52.8084 48.6899 52.835C48.6882 52.835 48.6849 52.835 48.6832 52.835C46.4804 52.835 44.2777 52.835 42.0699 52.8533C41.7883 52.8533 41.505 52.8567 41.2234 52.86C40.4719 52.8667 39.7221 52.8767 38.969 52.8883C38.8973 52.89 38.824 52.89 38.7523 52.8917C38.7257 52.8917 38.699 52.8933 38.6724 52.8933C38.6957 52.8733 38.719 52.8533 38.7423 52.8333C38.8257 52.765 38.9006 52.7084 38.969 52.6601C39.6921 52.152 39.6321 52.7217 38.969 52.8617C38.9023 52.8767 38.8307 52.8867 38.7523 52.8917C38.7257 52.8917 38.699 52.8933 38.6724 52.8933C38.6957 52.8733 38.719 52.8533 38.7423 52.8333C38.8173 52.7667 38.894 52.7017 38.969 52.6351C38.974 52.6301 38.979 52.6268 38.984 52.6218C39.1323 52.4918 39.2805 52.3602 39.4288 52.2269C39.5838 52.0887 39.7371 51.9487 39.8904 51.8071C40.0487 51.6622 40.2053 51.5172 40.3619 51.3706C40.3619 51.3689 40.3619 51.3689 40.3636 51.3689C40.5136 51.2273 40.6635 51.0841 40.8118 50.9408C41.2067 50.5609 41.6 50.1728 41.9865 49.7796" stroke="#D7A9A7" stroke-width="0.134392" stroke-miterlimit="10"/>
<path d="M16.7276 67.2308V74.3546H8.31964C8.18134 73.8764 8.01471 73.4716 7.83976 73.0718C7.6498 72.6353 7.59981 72.6236 7.15492 73.0284C6.93664 73.2284 6.86499 73.1567 6.84833 72.8785C6.82001 72.4353 6.79001 71.9939 6.73503 71.574C6.7017 71.3191 6.76669 71.1409 6.93165 70.8943C7.2449 70.4212 7.55816 69.9447 7.86808 69.4649C7.88808 69.4332 7.90807 69.4016 7.92973 69.3699C8.13135 69.0551 8.33297 68.7385 8.53458 68.4203V67.2108H8.81618C8.83284 66.9626 8.85117 66.7143 8.90116 66.4594C8.95115 66.1979 9.00447 65.9646 9.07279 65.7697C9.24774 65.7547 9.43103 65.7431 9.62098 65.7331C9.8326 65.7214 10.0525 65.7131 10.2825 65.7081C10.4708 65.7031 10.6674 65.7014 10.869 65.7014C16.0827 65.7014 16.7276 67.2308 16.7276 67.2308Z" fill="#D7A9A7"/>
<path d="M15.8829 67.2104H13.6284V69.4645H15.8829V67.2104Z" stroke="#D7A9A7" stroke-width="0.134392" stroke-miterlimit="10"/>
<path d="M7.9299 69.37V69.4649H7.86816C7.88819 69.4333 7.90821 69.4016 7.9299 69.37Z" stroke="#D7A9A7" stroke-width="0.134392" stroke-miterlimit="10"/>
<path d="M13.0436 67.2104H8.53467V69.4645H13.0436V67.2104Z" stroke="#D7A9A7" stroke-width="0.134392" stroke-miterlimit="10"/>
<path d="M42.0697 51.827V56.0319H34.3633C35.2564 55.5355 36.2362 54.8591 37.2526 54.0611C37.6258 53.7695 38.0041 53.4613 38.3856 53.1398C38.4806 53.0581 38.5756 52.9765 38.6722 52.8932C38.6956 52.8732 38.7189 52.8532 38.7422 52.8332C38.8172 52.7666 38.8938 52.7016 38.9688 52.635C38.9738 52.63 38.9788 52.6267 38.9838 52.6217C39.1321 52.4917 39.2804 52.3601 39.4287 52.2268C39.5837 52.0885 39.737 51.9486 39.8903 51.807C40.0486 51.662 40.2052 51.5171 40.3618 51.3705V51.3688H40.3635C40.5134 51.2272 40.6634 51.0839 40.8117 50.9407C41.2483 51.1123 41.5399 51.2939 41.7298 51.4471C42.0014 51.6654 42.0697 51.827 42.0697 51.827Z" fill="#D7A9A7"/>
<path d="M41.2251 51.8068V54.0608H38.9707V52.6348C39.2773 52.3665 39.5856 52.09 39.8921 51.8068H41.2251Z" fill="#D7A9A7"/>
<path d="M33.4536 67.021L36.9494 72.9552L40.5802 67.021L36.8978 61.0267L33.4536 67.021Z" stroke="#D7A9A7" stroke-width="0.134392" stroke-miterlimit="10"/>
<path d="M19.1104 67.0375L22.6062 72.9718L26.2353 67.0375L22.5528 61.0416L19.1104 67.0375Z" stroke="#D7A9A7" stroke-width="0.134392" stroke-miterlimit="10"/>
<path d="M26.2886 67.0375L29.7844 72.9718L33.4152 67.0375L29.7327 61.0416L26.2886 67.0375Z" stroke="#D7A9A7" stroke-width="0.134392" stroke-miterlimit="10"/>
<path d="M100.958 67.6272C101.027 67.2257 101.092 66.8242 101.155 66.4193C101.38 64.9782 101.605 63.5388 101.83 62.0977L101.342 61.3014L97.8975 67.2973L99.2905 69.6613C99.8453 68.9816 100.402 68.3052 100.958 67.6272Z" stroke="#D7A9A7" stroke-width="0.134392" stroke-miterlimit="10"/>
<path d="M90.7028 67.2361L87.0203 61.2418L83.5762 67.2361L87.072 73.1703L90.7028 67.2361Z" stroke="#D7A9A7" stroke-width="0.134392" stroke-miterlimit="10"/>
<path d="M97.8622 67.2675L94.1798 61.2716L90.7373 67.2675L94.2331 73.2001L97.8622 67.2675Z" stroke="#D7A9A7" stroke-width="0.134392" stroke-miterlimit="10"/>
<path d="M47.7749 67.0825L51.2707 73.0168L54.8998 67.0825L51.2174 61.0883L47.7749 67.0825Z" stroke="#D7A9A7" stroke-width="0.134392" stroke-miterlimit="10"/>
<path d="M40.6152 67.0524L44.1094 72.9867L47.7402 67.0524L44.0577 61.0565L40.6152 67.0524Z" stroke="#D7A9A7" stroke-width="0.134392" stroke-miterlimit="10"/>
<path d="M54.9351 67.1139L58.4309 73.0482L62.0616 67.1139L58.3792 61.118L54.9351 67.1139Z" stroke="#D7A9A7" stroke-width="0.134392" stroke-miterlimit="10"/>
<path d="M101.622 59.8319C73.5168 59.8319 45.357 59.8319 17.2223 59.7753C17.2339 60.1435 17.2273 60.5133 17.2956 60.8765C17.3539 60.525 17.3789 60.1051 17.2223 59.7753C17.1973 64.6633 17.1973 69.4946 17.1973 74.326C32.5268 74.326 47.6898 74.326 63.0193 74.326C63.6858 72.8266 64.6856 70.6608 63.3526 69.1614C62.6861 68.4951 62.1862 67.6621 62.3528 66.8291C63.186 64.8299 64.3523 62.9973 65.5387 61.148C65.597 61.3929 65.4837 61.4129 65.5387 61.148C67.2516 63.0706 65.0239 65.6012 64.8922 67.6737" stroke="#D7A9A7" stroke-width="0.134392" stroke-miterlimit="10"/>
<path d="M83.9062 70.4209C84.0146 71.827 84.5144 72.9932 84.8477 74.326C87.8469 74.326 90.6796 74.326 93.6739 74.326" stroke="#D7A9A7" stroke-width="0.134392" stroke-miterlimit="10"/>
<path d="M26.2367 67.0375L22.6076 72.9718L19.1118 67.0375L22.5543 61.0416L26.2367 67.0375Z" stroke="#D7A9A7" stroke-width="0.134392" stroke-miterlimit="10"/>
<path d="M33.4166 67.0375L29.7858 72.9718L26.29 67.0375L29.7342 61.0416L33.4166 67.0375Z" stroke="#D7A9A7" stroke-width="0.134392" stroke-miterlimit="10"/>
<path d="M40.5817 67.021L36.9509 72.9552L33.4551 67.021L36.8992 61.0267L40.5817 67.021Z" stroke="#D7A9A7" stroke-width="0.134392" stroke-miterlimit="10"/>
<path d="M47.7416 67.0524L44.1108 72.9867L40.6167 67.0524L44.0592 61.0565L47.7416 67.0524Z" stroke="#D7A9A7" stroke-width="0.134392" stroke-miterlimit="10"/>
<path d="M54.9018 67.0825L51.2727 73.0168L47.7769 67.0825L51.2193 61.0883L54.9018 67.0825Z" stroke="#D7A9A7" stroke-width="0.134392" stroke-miterlimit="10"/>
<path d="M62.0631 67.1139L58.4323 73.0482L54.9365 67.1139L58.3807 61.118L62.0631 67.1139Z" stroke="#D7A9A7" stroke-width="0.134392" stroke-miterlimit="10"/>
<path d="M90.7047 67.2361L87.0739 73.1703L83.5781 67.2361L87.0223 61.2418L90.7047 67.2361Z" stroke="#D7A9A7" stroke-width="0.134392" stroke-miterlimit="10"/>
<path d="M97.8642 67.2675L94.2351 73.2001L90.7393 67.2675L94.1817 61.2716L97.8642 67.2675Z" stroke="#D7A9A7" stroke-width="0.134392" stroke-miterlimit="10"/>
<path d="M100.958 67.6272C101.027 67.2257 101.092 66.8242 101.155 66.4193C101.38 64.9782 101.605 63.5371 101.83 62.0961L101.342 61.3014L97.8975 67.2973L99.2905 69.6613C99.8453 68.9816 100.402 68.3052 100.958 67.6272Z" stroke="#D7A9A7" stroke-width="0.134392" stroke-miterlimit="10"/>
<path d="M64.1493 70.4792L64.1226 70.5825L64.0825 70.5142C64.1042 70.5026 64.1259 70.4909 64.1493 70.4792Z" stroke="#D7A9A7" stroke-width="0.134392" stroke-miterlimit="10"/>
<path d="M40.3616 51.3687C40.205 51.517 40.0484 51.6619 39.8901 51.8069C39.7368 51.9485 39.5835 52.0884 39.4285 52.2267C39.2802 52.36 39.1319 52.4916 38.9836 52.6215C38.9786 52.6265 38.9736 52.6299 38.9686 52.6349C38.8936 52.7015 38.817 52.7665 38.742 52.8331C38.7187 52.8531 38.6954 52.8731 38.672 52.8931C38.5754 52.9764 38.4804 53.058 38.3854 53.1397C38.0039 53.4612 37.6256 53.7694 37.2524 54.0609C36.236 54.859 35.2562 55.5353 34.3631 56.0318H27.7764C28.3262 55.7819 29.231 55.3521 30.3541 54.739C30.7306 54.5341 31.1755 54.2459 31.5971 53.9993L33.3183 52.9331C33.5766 52.7498 33.9232 52.5182 34.1781 52.33L34.633 52.0018L34.8963 51.8102C34.9763 51.8135 35.0746 51.8252 35.1929 51.8518C36.1943 51.8585 36.1293 51.9085 35.9127 51.5803C35.7511 51.572 36.026 51.4337 36.2443 51.3804C37.6156 51.6186 37.8439 51.457 37.7789 51.3587C37.384 50.9239 38.5754 51.5153 39.3135 51.3604C39.7601 51.3454 40.0767 51.3587 40.3616 51.3687Z" stroke="#D7A9A7" stroke-width="0.134392" stroke-miterlimit="10"/>
<path d="M45.5153 56.032H42.0712H34.3647" stroke="#D7A9A7" stroke-width="0.134392" stroke-miterlimit="10"/>
<path d="M90.9277 56.032H78.1392" stroke="#D7A9A7" stroke-width="0.134392" stroke-miterlimit="10"/>
<path d="M101.923 57.4532C101.67 56.8434 101.233 56.0221 100.467 56.0321" stroke="#D7A9A7" stroke-width="0.134392" stroke-miterlimit="10"/>
<path d="M51.1008 49.3381C50.7476 49.9129 50.366 50.5093 49.9595 51.1024C49.5762 51.6605 49.1696 52.217 48.7448 52.7567C48.7248 52.7834 48.7048 52.8101 48.6831 52.835C48.6681 52.855 48.6531 52.8734 48.6381 52.8934C47.6767 54.1012 46.6219 55.2107 45.5139 56.0321H34.3633C35.2564 55.5356 36.2362 54.8592 37.2526 54.0612C37.6258 53.7697 38.0041 53.4615 38.3856 53.1399C38.4806 53.0583 38.5756 52.9767 38.6722 52.8934C38.6956 52.8734 38.7189 52.8534 38.7422 52.8334C38.8172 52.7667 38.8938 52.7018 38.9688 52.6351C38.9738 52.6301 38.9788 52.6268 38.9838 52.6218C39.1321 52.4919 39.2804 52.3602 39.4287 52.227C39.5837 52.0887 39.737 51.9487 39.8903 51.8071C40.0486 51.6622 40.2052 51.5172 40.3618 51.3706V51.369H40.3635C40.5134 51.2274 40.6634 51.0841 40.8117 50.9408C41.2483 51.1124 41.5399 51.294 41.7298 51.4473C42.1247 51.4873 42.4146 51.4739 42.7879 51.6072C42.8729 51.4406 42.9728 51.6422 43.0928 51.8338C43.2728 51.8954 43.651 51.8521 43.8393 51.8454C44.5724 51.4989 44.834 51.5172 45.5089 51.399C46.1071 51.1191 46.7219 51.3023 47.3118 51.3273C47.87 51.3806 48.1432 51.2557 48.7531 51.1791C49.1413 51.289 49.5296 51.0891 49.9178 51.1007C50.321 50.521 50.7176 49.9362 51.1008 49.3381Z" fill="#D7A9A7"/>
<path d="M68.7048 52.077C68.4998 53.2781 68.2266 54.6026 67.8617 56.032H55.0981C56.1595 54.8042 57.0377 53.4947 57.7725 52.1819V52.1803C57.9374 51.8837 58.0974 51.5855 58.2474 51.289C58.6356 51.249 58.9988 51.2306 59.4171 51.1773C60.0886 51.3439 60.8201 51.0157 61.4582 51.274C62.0831 51.3273 62.8229 51.0141 63.3478 51.4589C63.7893 51.8021 64.1859 51.7254 64.7141 51.9204C64.984 52.2102 65.2823 52.0886 65.5556 52.0336C65.8955 52.3585 66.1221 52.027 66.4837 52.1519C66.9252 52.2386 67.5517 52.2452 68.01 52.2102C68.1049 52.2136 68.2532 52.2652 68.4532 52.0287C68.5365 52.0836 68.6215 52.092 68.7048 52.077Z" fill="#D7A9A7"/>
<path d="M90.926 56.0315H78.1374C77.7292 54.4355 77.4343 52.9695 77.2227 51.66C77.5876 51.6283 77.9191 52.2048 78.2874 52.0382C79.1505 52.4397 80.1786 51.3201 81.0167 51.9599C81.5749 51.7799 82.1214 51.8899 82.6663 51.9515C83.2112 51.7749 83.7544 52.3081 84.3059 52.0382C84.7325 52.3231 85.179 52.1615 85.6056 52.0348C86.0688 52.0832 87.1469 51.7583 87.2602 51.645C87.0319 51.3634 86.3804 51.0269 86.2838 51.0552C86.697 50.8437 87.1352 50.8553 87.5718 50.912C88.4282 52.6429 89.5146 54.4089 90.926 56.0315Z" fill="#D7A9A7"/>
<path d="M102.809 55.7887C102.526 56.8699 102.42 58.0094 102.28 59.1206L100.465 56.0319C98.6671 54.7424 97.0009 52.6783 95.6445 50.6491C96.0244 50.3659 96.2794 50.3892 96.5976 50.799C97.3091 50.6174 97.5141 50.1993 98.1356 50.8174C98.5871 50.4742 98.8004 50.4308 99.2336 50.8973C99.8802 51.2905 100.485 50.3742 100.912 50.9523C101.185 51.1639 101.421 51.2422 101.625 51.2605C102.016 52.7132 102.408 54.256 102.809 55.7887Z" fill="#D7A9A7"/>
<path d="M38.114 48.1855C37.8207 48.2738 37.5291 48.3621 37.2358 48.4504L38.5305 43.2758L40.4434 35.6339H41.2715L39.3303 43.3508L38.114 48.1855Z" fill="#D7A9A7"/>
<path d="M49.918 51.1008C50.3212 50.521 50.7178 49.9362 51.101 49.3381C50.7478 49.9129 50.3662 50.5093 49.9596 51.1024C49.9463 51.1008 49.9313 51.0991 49.918 51.1008Z" fill="#D7A9A7"/>
<path d="M53.3554 39.8872C53.0871 40.0121 52.8222 40.1338 52.5606 40.252L51.3042 35.6339H52.1923L53.3554 39.8872Z" fill="#D7A9A7"/>
<path d="M65.0674 35.6339H65.5039C65.434 35.7105 65.3623 35.7855 65.2907 35.8622L65.0674 35.6339Z" fill="#D7A9A7"/>
<path d="M49.7125 15.4049C49.7125 15.6215 49.6942 15.8348 49.6575 16.0414C49.6092 16.3312 49.5259 16.6111 49.4126 16.876C49.266 17.2209 49.0693 17.5407 48.8311 17.824C48.6528 18.0372 48.4495 18.2305 48.2262 18.4004C48.0279 18.5503 47.8147 18.682 47.5897 18.7902V18.7919C47.3398 18.9119 47.0765 19.0068 46.7999 19.0685C46.5266 19.1334 46.2417 19.1668 45.9484 19.1668C45.7702 19.1668 45.5952 19.1551 45.4236 19.1301C45.147 19.0918 44.8787 19.0218 44.6238 18.9269C44.2689 18.7936 43.9389 18.6086 43.6457 18.3804C43.4257 18.2105 43.2258 18.0156 43.0492 17.804C42.7426 17.4325 42.506 17.0026 42.3593 16.5328C42.276 16.2729 42.2227 16.0014 42.201 15.7215C42.191 15.6165 42.186 15.5116 42.186 15.4049C42.186 15.2284 42.1977 15.0534 42.2227 14.8835C42.2627 14.5903 42.3377 14.3087 42.441 14.0422C42.5793 13.684 42.7709 13.3541 43.0058 13.0592C43.1791 12.8443 43.3741 12.6477 43.5874 12.4745C43.9506 12.1813 44.3705 11.9547 44.8271 11.8131C45.087 11.7314 45.3586 11.6765 45.6385 11.6565V11.6548C45.7402 11.6465 45.8435 11.6415 45.9484 11.6415C46.1151 11.6415 46.2784 11.6515 46.4383 11.6748C46.7199 11.7098 46.9915 11.7781 47.2498 11.8731C47.6164 12.008 47.9563 12.1979 48.2579 12.4345C48.4795 12.6061 48.6811 12.801 48.8577 13.0176C49.046 13.2475 49.2093 13.5007 49.3393 13.7706C49.4592 14.0205 49.5542 14.2837 49.6159 14.5603C49.6792 14.8318 49.7125 15.1151 49.7125 15.4049Z" fill="#D7A9A7"/>
<path d="M83.4443 5.36061V5.36394L49.6176 14.5602L46.9416 15.2882H46.9399L46.6533 15.3649L46.5517 15.3932L46.4717 15.4149L46.3517 15.4482L45.8535 15.5831L45.5553 15.6648L45.4336 15.6981L45.297 15.7347L44.9721 15.823L42.3611 16.5327L8.60602 25.709L8.45605 25.4491V24.9426L42.2028 15.7214L43.7357 15.3032H43.7374L44.8921 14.9867L45.3753 14.8551H45.377L45.6369 14.7834L45.6636 14.7768V14.7751L45.8069 14.7368L46.1051 14.6552L46.4351 14.5652L46.585 14.5236L47.6897 14.222L49.341 13.7705L82.9911 4.57593L83.0094 4.60758L83.0844 4.73753L83.4443 5.36061Z" fill="#D7A9A7"/>
<path d="M83.4428 25.3964V25.4497L83.3795 25.5613H83.3779V25.563L83.0146 26.1911L80.7435 25.5613L80.3353 25.448L79.6704 25.2648L73.8785 23.6588L49.4129 16.8765L47.3384 16.3017L46.8735 16.1735L46.2136 15.9902L46.022 15.9369L45.942 15.9152L45.7438 15.8603L45.4138 15.7686L45.2955 15.7353L45.1072 15.6837L43.7359 15.3038H43.7343L42.223 14.884L18.0056 8.17005L13.5267 6.92889L9.84258 5.90763L8.45459 5.52279V5.36119L8.81783 4.73145L9.84258 5.01466L10.4258 5.17626L12.6802 5.80101L13.5267 6.03592L18.1589 7.31873L42.4412 14.0427L44.5341 14.6224L45.3739 14.8557H45.3755L45.6255 14.924L45.6771 14.939L45.7971 14.9723L46.1237 15.0622L46.4269 15.1455L46.6052 15.1955H46.6069L46.7135 15.2255L46.9385 15.2888H46.9401L49.6578 16.0418L74.3301 22.8741L79.6704 24.3518L80.3353 24.5367L82.5897 25.1598L83.1929 25.3264L83.4428 25.3964Z" fill="#D7A9A7"/>
<path d="M48.2601 12.4349L46.7088 14.0343L46.3822 14.3708L46.1056 14.6557L45.9173 14.8506L45.799 14.9722L45.7123 15.0605L45.5524 15.2271L45.5507 15.2288L45.3408 15.4454L45.1092 15.6836L44.9725 15.8236L43.0513 17.8044L30.6577 30.5842C31.1743 30.4843 31.6891 30.3293 32.199 30.1577L43.6479 18.3825L45.1492 16.8381L45.9223 16.0435L45.9656 15.9968L46.0239 15.9385L46.3005 15.6553L46.3022 15.6536L46.5005 15.447L46.5521 15.3954L46.6371 15.3071L46.7154 15.2271L47.6902 14.2242L48.8599 13.0197L48.2601 12.4349Z" fill="#D7A9A7"/>
<path d="M64.1323 33.441C63.8991 33.6159 63.6641 33.7875 63.4308 33.9574L48.2262 18.4004L47.1932 17.3425L46.1434 16.2696L45.9985 16.1197L45.9201 16.0414L45.7435 15.8598L45.5536 15.6649L45.4636 15.5732L45.3386 15.4449L44.8904 14.9868L44.5338 14.6219L43.0059 13.0592C43.1792 12.8443 43.3741 12.6478 43.5874 12.4745L45.5519 14.4787L45.6985 14.6286L45.8052 14.7369L45.9151 14.8502L46.1234 15.0618L46.3817 15.325L46.47 15.415L46.4983 15.4449L46.7416 15.6932L47.3381 16.3013L48.8311 17.824L64.1323 33.441Z" fill="#D7A9A7"/>
<path d="M47.25 11.8748L46.7068 14.0339L46.5835 14.5237L46.5069 14.8302V14.8319L46.4269 15.1451L46.3819 15.325L46.3503 15.4483L46.3003 15.6516L46.2986 15.6532L46.2136 15.9898L46.1436 16.2696L46.0937 16.4696L45.4238 19.1302V19.1318L41.2715 35.6334L39.3303 43.3503L38.114 48.185C37.8207 48.2733 37.5291 48.3616 37.2358 48.4499L38.5305 43.2753L40.4434 35.6334L44.624 18.9269L45.1472 16.8361L45.4138 15.7682L45.4322 15.6982L45.4638 15.5733L45.5488 15.2284L45.5505 15.2267L45.6254 14.9235L45.6488 14.8336V14.8319L45.6621 14.7769V14.7753L45.6988 14.6286L46.0587 13.1926L46.4386 11.6765L47.25 11.8748Z" fill="#D7A9A7"/>
<path d="M53.355 39.887C53.0868 40.012 52.8218 40.1336 52.5602 40.2519L51.3039 35.6337L46.8 19.0705V19.0688L46.0935 16.4699L45.9985 16.12L45.9635 15.9951L45.9419 15.9151L45.8519 15.5836L45.7103 15.0604L45.6769 14.9388L45.6486 14.8339V14.8322L45.6353 14.7839L45.552 14.479L44.8271 11.8151V11.8134L45.6203 11.6585L45.6386 11.6552V11.6568L46.0585 13.1929L46.3801 14.3707L46.4334 14.5656L46.5067 14.8305V14.8322L46.605 15.1954H46.6067L46.635 15.3053L46.6517 15.3653L46.7417 15.6935L46.8733 16.1733L47.1932 17.3428L47.5898 18.7906V18.7923L52.192 35.6337L53.355 39.887Z" fill="#D7A9A7"/>
<path d="M30.4794 49.7628C26.5304 47.1705 22.3647 45.3379 18.3657 42.6724C15.1998 37.008 12.0339 31.6768 8.70142 26.0125C8.53479 25.6793 8.36816 25.1795 8.36816 24.8463C8.70142 18.3489 8.36816 11.8516 8.53479 5.35419C9.03467 4.3546 9.70117 3.35501 10.1977 2.34375" stroke="#D7A9A7" stroke-width="0.134392" stroke-miterlimit="10"/>
<path d="M1.81104 10.8503H13.5265V3.72481C13.5265 3.72481 12.8816 2.19543 7.6696 2.19543C2.45754 2.19543 1.8127 3.68483 1.8127 3.68483V10.8503H1.81104Z" fill="#D7A9A7"/>
<path d="M12.6817 3.70471H10.4272V5.9588H12.6817V3.70471Z" stroke="#D7A9A7" stroke-width="0.134392" stroke-miterlimit="10"/>
<path d="M4.73052 3.70471H2.47607V5.9588H4.73052V3.70471Z" stroke="#D7A9A7" stroke-width="0.134392" stroke-miterlimit="10"/>
<path d="M9.84239 3.70471H5.3335V5.9588H9.84239V3.70471Z" stroke="#D7A9A7" stroke-width="0.134392" stroke-miterlimit="10"/>
<path d="M0 32.6663H11.7155V25.5409C11.7155 25.5409 11.0706 24.0115 5.85856 24.0115C0.646508 24.0115 0 25.5009 0 25.5009V32.6663Z" fill="#D7A9A7"/>
<path d="M10.8692 25.5208H8.61475V27.7748H10.8692V25.5208Z" stroke="#D7A9A7" stroke-width="0.134392" stroke-miterlimit="10"/>
<path d="M2.91949 25.5208H0.665039V27.7748H2.91949V25.5208Z" stroke="#D7A9A7" stroke-width="0.134392" stroke-miterlimit="10"/>
<path d="M8.03135 25.5208H3.52246V27.7748H8.03135V25.5208Z" stroke="#D7A9A7" stroke-width="0.134392" stroke-miterlimit="10"/>
<path d="M79.6724 30.4523H91.3878V23.3269C91.3878 23.3269 90.743 21.7975 85.5309 21.7975C80.3189 21.7975 79.674 23.2869 79.674 23.2869V30.4523H79.6724Z" fill="#D7A9A7"/>
<path d="M90.5416 23.3068H88.2871V25.5608H90.5416V23.3068Z" stroke="#D7A9A7" stroke-width="0.134392" stroke-miterlimit="10"/>
<path d="M82.5894 23.3068H80.335V25.5608H82.5894V23.3068Z" stroke="#D7A9A7" stroke-width="0.134392" stroke-miterlimit="10"/>
<path d="M87.7032 23.3068H83.1943V25.5608H87.7032V23.3068Z" stroke="#D7A9A7" stroke-width="0.134392" stroke-miterlimit="10"/>
<path d="M90.3942 9.40087H79.147V2.23545C79.147 2.23545 79.5086 1.40079 81.8813 0.980957C82.5611 1.19587 83.201 1.55739 83.8525 1.86227C84.0791 1.96889 84.3207 2.09051 84.5057 2.25544C84.5423 2.28709 84.5773 2.32041 84.609 2.35706C85.2455 3.07677 85.8886 3.78981 86.5268 4.50952C87.4733 5.57409 88.408 6.65032 89.2861 7.76986C89.3878 7.89814 89.4844 8.02976 89.5811 8.1647C89.8693 8.56454 90.1376 8.97937 90.3942 9.40087Z" fill="#D7A9A7"/>
<path d="M82.0665 2.25574H79.812V4.50982H82.0665V2.25574Z" stroke="#D7A9A7" stroke-width="0.134392" stroke-miterlimit="10"/>
<path d="M86.5273 4.50982H82.6699V2.25574H84.5061C84.5428 2.28739 84.5778 2.32071 84.6094 2.35736C85.246 3.07707 85.8891 3.79011 86.5273 4.50982Z" stroke="#D7A9A7" stroke-width="0.134392" stroke-miterlimit="10"/>
<path d="M8.31973 74.3547C8.32473 74.3697 8.32806 74.3847 8.33306 74.4014L8.21143 74.3547H8.31973Z" fill="#D7A9A7"/>
<path d="M8.53467 67.2107H8.81626C8.80127 67.4056 8.78794 67.6005 8.75961 67.8005C8.73129 67.9887 8.64297 68.2469 8.543 68.4069C8.53967 68.4119 8.538 68.4152 8.53467 68.4202V67.2107Z" fill="#D7A9A7"/>
</svg>
