<svg width="128" height="104" viewBox="0 0 128 104" fill="none" xmlns="http://www.w3.org/2000/svg">
<g clip-path="url(#clip0)">
<path d="M63.704 98.3812L63.6779 98.4825L63.6387 98.4155L63.704 98.3812Z" stroke="#BD6F6D" stroke-width="0.131806" stroke-miterlimit="10"/>
<path d="M83.9885 102.094H62.7412L63.6821 98.4825L63.7083 98.3812C64.0235 98.2179 64.4417 97.981 64.9269 97.687C66.2338 96.9006 67.4629 95.9915 68.5974 94.972C68.7607 94.825 68.9241 94.6748 69.076 94.5179C70.5217 93.1049 71.822 91.3636 72.4149 89.3462H74.4781C74.4999 89.4202 74.5227 89.4938 74.5467 89.5667C74.5696 89.6386 74.5941 89.7121 74.6202 89.784C74.6463 89.8559 74.6708 89.9277 74.6986 89.9996L74.7492 90.1319C74.7689 90.1793 74.7868 90.225 74.8064 90.2708C74.8865 90.4635 74.9698 90.653 75.0645 90.8392C75.0972 90.9078 75.1315 90.9765 75.1674 91.0434C75.2034 91.1104 75.2181 91.1431 75.2458 91.1921C75.2736 91.2411 75.2932 91.2819 75.3193 91.326C75.4827 91.6103 75.6461 91.888 75.829 92.1575C75.9009 92.2653 75.976 92.3731 76.0512 92.4842C76.1263 92.5953 76.1966 92.6835 76.2701 92.7815C76.2735 92.7876 76.2779 92.7931 76.2831 92.7978C76.355 92.8926 76.4285 92.9873 76.5053 93.0804C76.5195 93.1008 76.5348 93.1204 76.551 93.1392C76.618 93.2225 76.6882 93.3026 76.7585 93.3892C76.8565 93.5068 76.9594 93.6228 77.0623 93.7371C77.1211 93.8024 77.1799 93.8678 77.2404 93.9315L77.3188 94.0164L77.5295 94.2353C77.6243 94.3333 77.7206 94.4297 77.817 94.5245L78.0457 94.7434L78.2091 94.8969C78.8357 95.4722 79.4957 96.01 80.1856 96.5076C80.3179 96.6039 80.4486 96.6971 80.576 96.7869C80.7034 96.8767 80.8701 96.9895 81.0122 97.0842L81.3912 97.3325L81.4304 97.357L81.6705 97.5089C82.1442 97.8062 82.5673 98.048 82.9087 98.2358L83.0721 98.3257L83.9885 102.094Z" fill="#BD6F6D"/>
<path d="M81.4307 97.3553L81.6708 97.5073L81.4307 97.357V97.3553Z" stroke="#BD6F6D" stroke-width="0.131806" stroke-miterlimit="10"/>
<path d="M83.0745 98.324L82.9111 98.2341C82.5697 98.0463 82.1466 97.8045 81.6729 97.5072L81.4328 97.3553L81.3936 97.3308L81.0146 97.0825C80.8725 96.9878 80.7271 96.8897 80.5784 96.7852C80.4298 96.6807 80.3203 96.6022 80.188 96.5059C79.4963 96.0068 78.8346 95.4674 78.2065 94.8903L78.0432 94.7368L77.8145 94.5179C77.7181 94.4231 77.6218 94.3267 77.527 94.2287L77.3163 94.0098L77.2379 93.9249C77.1774 93.8612 77.1186 93.7959 77.0598 93.7305C76.9569 93.6162 76.854 93.5002 76.756 93.3826C76.6857 93.2993 76.6155 93.2192 76.5485 93.1326C76.5323 93.1138 76.517 93.0942 76.5028 93.0738C76.426 92.9807 76.3525 92.886 76.2806 92.7912C76.2754 92.7865 76.271 92.781 76.2676 92.7749C76.194 92.6769 76.1205 92.5789 76.0487 92.4776C75.9768 92.3763 75.8984 92.2652 75.8265 92.1509C75.6452 91.8814 75.4737 91.6037 75.3168 91.3194C75.2907 91.2753 75.2662 91.2296 75.2433 91.1855C75.2205 91.1414 75.1894 91.0875 75.1649 91.0368C75.1404 90.9862 75.0947 90.9013 75.062 90.8326C74.9689 90.6464 74.884 90.4569 74.8039 90.2642C74.7843 90.2184 74.7663 90.1727 74.7467 90.1253L74.6961 89.993C74.6689 89.9211 74.6427 89.8493 74.6177 89.7774C74.5916 89.7055 74.5671 89.632 74.5442 89.5601C74.5213 89.4882 74.4968 89.4131 74.4756 89.3396H80.897L83.0745 98.324Z" stroke="#BD6F6D" stroke-width="0.131806" stroke-miterlimit="10"/>
<path d="M81.4307 97.3553L81.6708 97.5073L81.4307 97.357V97.3553Z" stroke="#BD6F6D" stroke-width="0.131806" stroke-miterlimit="10"/>
<path d="M40.5994 94.99L37.0399 100.809L33.6128 94.99L36.9893 89.1125L40.5994 94.99Z" fill="#BD6F6D"/>
<path d="M47.6192 95.021L44.0598 100.84L40.6343 95.021L44.0091 89.142L47.6192 95.021Z" fill="#BD6F6D"/>
<path d="M54.6378 95.0504L51.08 100.869L47.6528 95.0504L51.0277 89.173L54.6378 95.0504Z" fill="#BD6F6D"/>
<path d="M61.6589 95.0815L58.0995 100.9L54.6724 95.0815L58.0489 89.2024L61.6589 95.0815Z" fill="#BD6F6D"/>
<path d="M89.738 95.2008L86.1786 101.019L82.7515 95.2008L86.128 89.3234L89.738 95.2008Z" fill="#BD6F6D"/>
<path d="M96.7574 95.2317L93.1996 101.049L89.7725 95.2317L93.1473 89.3527L96.7574 95.2317Z" fill="#BD6F6D"/>
<path d="M103.777 95.2611L100.218 101.08L96.7905 95.2611L100.167 89.3821L103.777 95.2611Z" fill="#BD6F6D"/>
<path d="M110.797 95.2906L107.238 101.109L103.811 95.2906L107.187 89.4132L110.797 95.2906Z" fill="#BD6F6D"/>
<path d="M117.816 95.3216L114.258 101.14L110.831 95.3216L114.206 89.4425L117.816 95.3216Z" fill="#BD6F6D"/>
<path d="M124.837 95.3511L121.278 101.17L117.851 95.3511L121.227 89.4736L124.837 95.3511Z" fill="#BD6F6D"/>
<path d="M33.5755 95.0064L30.016 100.825L26.5889 95.0064L29.9654 89.1273L33.5755 95.0064Z" fill="#BD6F6D"/>
<path d="M26.5362 95.0054L22.9784 100.824L19.5513 95.0054L22.9261 89.1263L26.5362 95.0054Z" fill="#BD6F6D"/>
<path d="M65.7842 90.3965L63.7047 98.3812L63.6394 98.4155L63.3372 97.9025L61.6938 95.1109L65.0393 89.2841L65.0687 89.2318L65.7842 90.3965Z" fill="#BD6F6D"/>
<path d="M72.4108 89.3462C71.8178 91.3636 70.5175 93.1033 69.0719 94.5179C68.9085 94.6813 68.755 94.825 68.5932 94.972C67.4587 95.9915 66.2297 96.9006 64.9227 97.687C64.4327 97.981 64.0194 98.213 63.7041 98.3812L65.7836 90.3966L66.0564 89.3462H72.4108Z" stroke="#BD6F6D" stroke-width="0.131806" stroke-miterlimit="10"/>
<path d="M82.6556 102.094H63.9795L64.922 97.6837C66.229 96.8973 67.4581 95.9883 68.5926 94.9688C68.7559 94.8218 68.9193 94.6715 69.0712 94.5146H77.8122L78.0409 94.7335L78.2042 94.8871C78.8322 95.4658 79.4938 96.0069 80.1857 96.5075C80.318 96.6039 80.4487 96.697 80.5761 96.7869C80.7035 96.8767 80.8701 96.9894 81.0122 97.0842L81.3912 97.3325L81.4304 97.357L82.6556 102.094Z" fill="#BD6F6D"/>
<path d="M79.7553 102.094H66.9648L68.4366 96.8849H78.3048L79.7553 102.094Z" fill="#BD6F6D"/>
<path d="M73.7393 55.6286C73.7392 55.7205 73.7232 55.8117 73.6919 55.8982C73.6849 55.9206 73.6762 55.9424 73.6658 55.9635C73.6165 56.0729 73.5479 56.1725 73.4632 56.2575C73.2691 56.4469 73.0294 56.5831 72.7674 56.6528C72.6529 56.6867 72.5352 56.7085 72.4162 56.7182C72.3403 56.7281 72.2639 56.733 72.1875 56.7329C72.0631 56.7329 71.9391 56.7219 71.8166 56.7002C71.7054 56.6812 71.596 56.6523 71.4899 56.6136C71.3551 56.5672 71.2271 56.5029 71.1093 56.4225C71.0739 56.3992 71.0401 56.3735 71.0081 56.3457C70.9484 56.2998 70.8936 56.2478 70.8447 56.1906C70.7638 56.0946 70.7027 55.9836 70.665 55.8639C70.6401 55.7857 70.6274 55.7041 70.6274 55.6221C70.6274 55.0961 71.142 54.6567 71.8314 54.5456C71.9049 54.5339 71.9791 54.5274 72.0535 54.526C72.096 54.526 72.1401 54.526 72.1842 54.526C72.339 54.5262 72.4934 54.5426 72.6448 54.575C73.2803 54.7122 73.7393 55.132 73.7393 55.6286Z" fill="#BD6F6D"/>
<path d="M72.0925 54.6893C72.0925 54.6893 70.3446 54.3218 72.1709 49.4277H72.2624C74.0887 54.3283 72.4257 54.6893 72.4257 54.6893H72.0925Z" fill="#BD6F6D"/>
<path d="M45.8623 48.0686C47.8994 48.0686 49.5508 46.4172 49.5508 44.3801C49.5508 42.343 47.8994 40.6917 45.8623 40.6917C43.8252 40.6917 42.1738 42.343 42.1738 44.3801C42.1738 46.4172 43.8252 48.0686 45.8623 48.0686Z" fill="#BD6F6D"/>
<path d="M82.6196 34.5316V34.5349L49.4574 43.5519L46.834 44.2658H46.8324L46.5514 44.3409L46.4518 44.3687L46.3734 44.3899L46.2557 44.4226L45.7673 44.5549L45.4749 44.6349L45.3557 44.6676L45.2217 44.7036L44.9032 44.7901L42.3434 45.486L9.25151 54.4835L9.10449 54.2286V53.732L42.1883 44.6905L43.6911 44.2805H43.6927L44.8248 43.9701L45.2985 43.8411H45.3001L45.555 43.7708L45.5811 43.7643V43.7626L45.7216 43.7251L46.014 43.645L46.3374 43.5568L46.4844 43.516L47.5675 43.2203L49.1863 42.7776L82.1753 33.7622L82.1933 33.7932L82.2668 33.9207L82.6196 34.5316Z" fill="#BD6F6D"/>
<path d="M82.6196 54.1764V54.2287L82.1998 54.9556L49.2582 45.8226L47.2244 45.259L46.7687 45.1332L46.1218 44.9535L45.9339 44.9013L45.8555 44.88L45.6611 44.8261L45.3377 44.7363L45.2217 44.7036L45.0371 44.653L43.6927 44.2805H43.6911L42.2095 43.8689L9.10449 34.6901V34.5317L9.4606 33.9142L42.4235 43.044L44.4752 43.6124L45.2985 43.8411H45.3001L45.5452 43.9081L45.5958 43.9228L45.7134 43.9555L46.0336 44.0437L46.3309 44.1253L46.5057 44.1744H46.5073L46.6118 44.2038L46.8324 44.2658H46.834L49.4983 45.0042L82.6196 54.1764Z" fill="#BD6F6D"/>
<path d="M72.6597 17.4073L48.7155 42.0392L47.5688 43.2203L46.6132 44.2037L46.5364 44.2821L46.4531 44.3687L46.4024 44.4193L46.208 44.6218L46.2064 44.6235L45.9352 44.9012L45.8781 44.9584L45.8356 45.0041L45.0776 45.7833L43.6058 47.2976L19.807 71.7808L19.7874 71.7694L19.1356 71.392L19.1177 71.3822L43.021 46.7324L44.9045 44.7901L45.0384 44.6529L45.2655 44.4193L45.4713 44.2069L45.473 44.2053L45.6298 44.0419L45.7147 43.9554L45.8307 43.8361L46.0153 43.645L46.2864 43.3657L46.6066 43.0357L48.1274 41.4675L71.8903 16.963L71.9099 16.9744L72.6417 17.3975L72.6597 17.4073Z" fill="#BD6F6D"/>
<path d="M63.6897 62.0647C63.461 62.2362 63.2306 62.4045 63.0019 62.5711L48.096 47.3172L47.0833 46.2799L46.0541 45.228L45.912 45.0809L45.8352 45.0042L45.6621 44.8261L45.4759 44.635L45.3877 44.5451L45.2651 44.4194L44.8257 43.9701L44.4761 43.6124L42.9766 42.0802L25.6236 24.3188L21.1935 19.7858L18.9458 17.4858L18.954 17.4711L19.6074 17.0987L19.6237 17.0889L21.2997 18.7992L26.1317 23.7324L43.5483 41.5068L45.4742 43.467L45.618 43.614L45.7225 43.7202L45.8303 43.8313L46.0345 44.0387L46.2877 44.2968L46.3743 44.3851L46.4021 44.4145L46.6406 44.6579L47.2254 45.2541L48.6955 46.7471L63.6897 62.0647Z" fill="#BD6F6D"/>
<path d="M65.4026 63.8142C65.2131 64.0216 65.0203 64.2307 64.8243 64.4382L63.7217 63.3078C63.9471 63.1314 64.1693 62.955 64.3865 62.7753L65.4026 63.8142Z" fill="#BD6F6D"/>
<path d="M69.6506 68.1479C69.5673 68.4746 69.4873 68.7883 69.3941 69.1117L66.2676 65.9116C66.4309 65.6748 66.6025 65.4379 66.7576 65.201L69.6506 68.1479Z" fill="#BD6F6D"/>
<path d="M55.515 7.62256L54.958 9.83925L53.2902 16.4648L47.1383 40.9187L46.6058 43.0423L46.4849 43.5225L46.4098 43.8231L46.3314 44.1302L46.2872 44.3066L46.2562 44.4275L46.2072 44.6268L46.1239 44.9535L46.0553 45.2279L46.0063 45.4239L45.3529 48.0376L39.3823 71.7809L37.824 77.9768C37.5757 78.1946 37.3263 78.4037 37.0758 78.6041L36.8193 78.8115L36.8732 78.5992L38.5982 71.7073L44.5639 47.8285L45.0768 45.7784L45.3382 44.7313L45.3561 44.6627L45.3872 44.5402L45.4705 44.2021L45.544 43.9048L45.5669 43.8166L45.5799 43.7626L45.6159 43.6189L45.9687 42.2108L46.3412 40.7243L52.413 16.4648L54.071 9.83925L54.6264 7.62256H55.515Z" fill="#BD6F6D"/>
<path d="M53.123 68.3848C52.8594 68.5078 52.5997 68.6271 52.3438 68.7425L46.6967 47.9739L46.0041 45.424L45.911 45.0809L45.8767 44.9584L45.8554 44.88L45.7672 44.5533L45.6284 44.0404L45.5957 43.9211L45.5679 43.8182L45.5548 43.7708L45.4732 43.4719L44.7626 40.8582L38.2089 16.7572L36.3826 10.0369L35.7651 7.76631L36.0134 7.62256H36.5166L37.17 10.0369L38.9325 16.4648L45.5581 40.7047L45.9698 42.2108L46.285 43.3657L46.3373 43.5568L46.4092 43.8166L46.5056 44.1727L46.5333 44.2805L46.5497 44.3393L46.6379 44.666L46.7669 45.1364L47.0806 46.2799L47.4693 47.7011L53.123 68.3848Z" fill="#BD6F6D"/>
<path d="M54.275 72.596C54.0136 72.7191 53.7506 72.834 53.486 72.9407L53.1707 71.7809L52.728 70.1474C52.9878 70.0232 53.2459 69.8991 53.504 69.77L53.9826 71.5195L54.275 72.596Z" fill="#BD6F6D"/>
<path d="M82.2678 33.9207L82.1943 33.7932L82.1763 33.7622L82.1387 33.6969L81.8626 33.2183L81.2713 32.194L80.8629 31.4867L80.2487 30.4249L74.8026 20.9897L72.7721 17.4711L72.6594 17.4074L72.6414 17.3976L71.9096 16.9745L71.89 16.963L70.557 16.1937L69.8252 15.7706L69.1718 15.3949L59.5487 9.84089L55.7181 7.62256H36.0145L35.7662 7.76631L31.8327 10.0369L21.2997 16.1185L19.6172 17.0856L19.6009 17.0954L18.9475 17.4678L18.9393 17.4825L17.6112 19.7825L10.8125 31.5733L10.0431 32.9079L9.46158 33.9141L9.10547 34.5316V54.2286L9.25249 54.4835L9.26229 54.4998L10.4221 56.509L12.3006 59.763L17.8546 69.3812L18.6959 70.8367L18.9573 71.2892L19.1206 71.3823L19.1386 71.3921L19.792 71.7694L19.8116 71.7809L21.0874 72.5176L21.6591 72.8443L22.0038 73.0436L24.6991 74.5987L32.3587 79.0288L34.1735 80.0759L34.6538 80.3536L35.3072 79.8782C35.8544 79.4846 36.2579 79.2624 36.8133 78.8148L37.0698 78.6074C37.3202 78.4048 37.5696 78.1957 37.8179 77.9801C39.8866 76.2285 41.701 74.1969 43.2086 71.9442C43.2086 71.9442 43.4438 71.8952 43.8799 71.7809C46.7829 71.0088 49.6148 69.9907 52.3449 68.7376C52.6019 68.6222 52.8616 68.5029 53.1241 68.3799C56.5932 66.7588 59.9007 64.8122 63.002 62.5661C63.2307 62.4028 63.461 62.2394 63.6897 62.0598C66.1861 60.194 68.5216 58.1219 70.6714 55.8654C70.709 55.9852 70.7701 56.0962 70.8511 56.1921L70.7792 56.2885C69.3597 58.2798 67.1283 60.5487 64.3856 62.7769C64.1683 62.9566 63.9462 63.133 63.7207 63.3094C60.5447 65.8077 57.1216 67.9747 53.5047 69.7765C53.2466 69.9056 52.9885 70.0297 52.7287 70.1539C51.4628 70.755 50.1788 71.2973 48.89 71.7874C48.1973 72.0411 47.5036 72.2769 46.8088 72.4947C45.001 74.8964 43.0004 77.1466 40.8269 79.2232C40.5279 79.5123 40.2257 79.7949 39.9235 80.0726C39.6213 80.3503 39.3208 80.6215 39.0202 80.8894L38.7294 81.1377H48.4995C51.3958 77.5031 53.4214 72.9701 53.4214 72.9701L53.4867 72.9423C53.7513 72.8334 54.0143 72.7185 54.2757 72.5976C57.3483 71.1716 60.3197 68.8569 62.9121 66.3706C63.5753 65.7352 64.2189 65.0883 64.8234 64.4414C65.0194 64.234 65.2121 64.0249 65.4016 63.8174C67.0203 62.0543 68.5272 60.1917 69.9134 58.2406V58.2324C70.4035 57.53 70.8086 56.9158 71.101 56.4355C71.2188 56.5159 71.3468 56.5802 71.4816 56.6267V56.6414C70.181 59.6412 68.601 62.512 66.7623 65.2157C66.599 65.4526 66.4356 65.6894 66.2723 65.9263C64.4726 68.4909 62.3599 70.8209 59.9832 72.8623C59.3576 74.9123 58.4673 77.6893 56.9269 80.4516L68.2113 73.9387C68.2113 73.3637 68.1786 73.0599 68.1786 73.0599C68.6442 71.7319 69.0476 70.4136 69.3989 69.1264C69.4871 68.7997 69.572 68.4828 69.6553 68.1626C70.8935 63.3388 71.4228 59.0753 71.8214 56.7149C71.9438 56.7366 72.0679 56.7475 72.1922 56.7475C72.2687 56.7476 72.345 56.7427 72.4209 56.7328C72.8195 59.1112 73.352 63.3617 74.5886 68.1675L76.8477 64.2568C75.2818 61.8438 73.916 59.3066 72.7639 56.6708C73.026 56.601 73.2657 56.4648 73.4598 56.2755C74.2341 57.5823 75.8268 59.8463 77.9536 62.3195L78.5564 61.2757C76.5733 59.5164 74.9479 57.7718 73.8192 56.2003L73.6558 55.9765C73.6662 55.9554 73.6749 55.9336 73.682 55.9112C75.3756 57.5296 77.1496 59.0616 78.9974 60.5014L79.7783 59.1472L82.191 54.9686L82.5471 54.3528L82.6108 54.2417V34.5316L82.2678 33.9207Z" stroke="#BD6F6D" stroke-width="0.131806" stroke-miterlimit="10"/>
<path d="M73.7843 36.7205V51.5415L73.6863 51.7049L73.469 52.0757L73.2436 52.4677L73.1031 52.7111L72.0528 54.526L71.9809 54.6501L71.4549 55.5616L71.3046 55.823L71.004 56.3441L69.9292 58.2275V58.2357C68.5429 60.1869 67.0361 62.0494 65.4174 63.8125C65.2279 64.02 65.0351 64.2291 64.8391 64.4366C64.2298 65.09 63.5911 65.7303 62.9279 66.3657L54.1363 71.4411L53.9991 71.5211L53.5547 71.776H48.8894C50.1782 71.2974 51.4622 70.7485 52.7282 70.1425C52.9879 70.0183 53.246 69.8942 53.5041 69.7651C57.1211 67.9665 60.5448 65.8028 63.7218 63.3078C63.9472 63.1314 64.1694 62.9549 64.3866 62.7753C67.1293 60.5471 69.3607 58.2782 70.7802 56.2869L70.8521 56.1905C70.7712 56.0946 70.7101 55.9835 70.6724 55.8638C68.5226 58.1203 66.1872 60.1924 63.6908 62.0581C63.4621 62.2297 63.2317 62.3979 63.003 62.5645C59.9017 64.8105 56.5942 66.7572 53.1251 68.3782C52.8616 68.5013 52.6018 68.6206 52.3459 68.736C49.6141 69.9877 46.7806 71.0042 43.8761 71.7744H38.7158L38.59 71.7008L26.6032 64.7812L26.5199 64.7339H26.5052L26.0151 64.4496H26.0021L25.9024 64.3941L25.8779 64.381L18.6904 51.927L18.5793 51.7343L18.4683 51.5431V36.7205L18.6185 36.4592L18.7362 36.2566L25.6231 24.3319L25.873 23.899V23.8876L26.1213 23.7438L26.3598 23.6066H26.3729L38.1996 16.7785L38.5263 16.5939L38.7125 16.4861H53.5335L65.6085 23.458L65.7065 23.5135L65.7212 23.5233L66.2717 23.8418H66.2864L66.3697 23.8876L73.4445 36.1472V36.1586V36.1701L73.4984 36.2664L73.7843 36.7205Z" stroke="#BD6F6D" stroke-width="0.131806" stroke-miterlimit="10"/>
<path d="M69.1729 20.9897H80.6582V14.0031C80.6582 14.0031 80.0276 12.5035 74.9163 12.5035C69.805 12.5035 69.1729 13.9639 69.1729 13.9639V20.9897Z" fill="#BD6F6D"/>
<path d="M79.8288 13.9835H77.6187V16.1936H79.8288V13.9835Z" stroke="#BD6F6D" stroke-width="0.131806" stroke-miterlimit="10"/>
<path d="M72.0358 13.9835H69.8257V16.1936H72.0358V13.9835Z" stroke="#BD6F6D" stroke-width="0.131806" stroke-miterlimit="10"/>
<path d="M77.0468 13.9835H72.6265V16.1936H77.0468V13.9835Z" stroke="#BD6F6D" stroke-width="0.131806" stroke-miterlimit="10"/>
<path d="M51.0576 9.83925H62.5429V2.8543C62.5429 2.8543 61.9124 1.35309 56.8011 1.35309C51.6898 1.35309 51.0576 2.81346 51.0576 2.81346V9.83925Z" fill="#BD6F6D"/>
<path d="M61.7126 2.83301H59.5024V5.04317H61.7126V2.83301Z" stroke="#BD6F6D" stroke-width="0.131806" stroke-miterlimit="10"/>
<path d="M53.9187 2.83301H51.7085V5.04317H53.9187V2.83301Z" stroke="#BD6F6D" stroke-width="0.131806" stroke-miterlimit="10"/>
<path d="M58.9306 2.83301H54.5103V5.04317H58.9306V2.83301Z" stroke="#BD6F6D" stroke-width="0.131806" stroke-miterlimit="10"/>
<path d="M28.9551 10.0369H40.4404V3.05036C40.4404 3.05036 39.8082 1.55078 34.6985 1.55078C29.5889 1.55078 28.9551 3.01115 28.9551 3.01115V10.0369Z" fill="#BD6F6D"/>
<path d="M39.6101 3.03076H37.3999V5.24092H39.6101V3.03076Z" stroke="#BD6F6D" stroke-width="0.131806" stroke-miterlimit="10"/>
<path d="M31.8151 3.03076H29.605V5.24092H31.8151V3.03076Z" stroke="#BD6F6D" stroke-width="0.131806" stroke-miterlimit="10"/>
<path d="M36.828 3.03076H32.4077V5.24092H36.828V3.03076Z" stroke="#BD6F6D" stroke-width="0.131806" stroke-miterlimit="10"/>
<path d="M9.81592 19.7858H21.2996V12.7992C21.2996 12.7992 20.6674 11.2996 15.5578 11.2996C10.4481 11.2996 9.81592 12.76 9.81592 12.76V19.7858Z" fill="#BD6F6D"/>
<path d="M20.4699 12.7796H18.2598V14.9898H20.4699V12.7796Z" stroke="#BD6F6D" stroke-width="0.131806" stroke-miterlimit="10"/>
<path d="M12.674 12.7796H10.4639V14.9898H12.674V12.7796Z" stroke="#BD6F6D" stroke-width="0.131806" stroke-miterlimit="10"/>
<path d="M17.6884 12.7796H13.2681V14.9898H17.6884V12.7796Z" stroke="#BD6F6D" stroke-width="0.131806" stroke-miterlimit="10"/>
<path d="M2.59326 39.914H14.0769V32.9274C14.0769 32.9274 13.4464 31.4279 8.3351 31.4279C3.2238 31.4279 2.59326 32.8882 2.59326 32.8882V39.914Z" fill="#BD6F6D"/>
<path d="M13.2487 32.9078H11.0386V35.118H13.2487V32.9078Z" stroke="#BD6F6D" stroke-width="0.131806" stroke-miterlimit="10"/>
<path d="M5.45381 32.9078H3.24365V35.118H5.45381V32.9078Z" stroke="#BD6F6D" stroke-width="0.131806" stroke-miterlimit="10"/>
<path d="M10.4648 32.9078H6.04443V35.118H10.4648V32.9078Z" stroke="#BD6F6D" stroke-width="0.131806" stroke-miterlimit="10"/>
<path d="M0.814453 61.3051H12.2998V54.3202C12.2998 54.3202 11.6692 52.819 6.55792 52.819C1.44663 52.819 0.814453 54.2793 0.814453 54.2793V61.3051Z" fill="#BD6F6D"/>
<path d="M11.4704 54.299H9.26025V56.5091H11.4704V54.299Z" stroke="#BD6F6D" stroke-width="0.131806" stroke-miterlimit="10"/>
<path d="M3.67647 54.299H1.46631V56.5091H3.67647V54.299Z" stroke="#BD6F6D" stroke-width="0.131806" stroke-miterlimit="10"/>
<path d="M8.68838 54.299H4.26807V56.5091H8.68838V54.299Z" stroke="#BD6F6D" stroke-width="0.131806" stroke-miterlimit="10"/>
<path d="M13.208 77.8412H24.6933V70.8611C24.6933 70.8611 24.0611 69.3616 18.9498 69.3616C13.8385 69.3616 13.208 70.8219 13.208 70.8219V77.8412Z" fill="#BD6F6D"/>
<path d="M23.864 70.835H21.6538V73.0451H23.864V70.835Z" stroke="#BD6F6D" stroke-width="0.131806" stroke-miterlimit="10"/>
<path d="M16.0676 70.835H13.8574V73.0451H16.0676V70.835Z" stroke="#BD6F6D" stroke-width="0.131806" stroke-miterlimit="10"/>
<path d="M21.0819 70.835H16.6616V73.0451H21.0819V70.835Z" stroke="#BD6F6D" stroke-width="0.131806" stroke-miterlimit="10"/>
<path d="M34.318 80.5856L34.6447 80.3504L35.2981 79.875C35.8453 79.4813 36.2488 79.2592 36.8042 78.8116L37.0606 78.6041H36.8581C36.6817 78.6041 36.4987 78.6041 36.3092 78.6041C34.4666 78.6041 33.2055 78.7936 32.3479 79.037C30.8255 79.4666 30.5674 80.0629 30.5674 80.0629V82.9493C30.9366 82.7484 31.3302 82.5262 31.7435 82.2844L34.318 80.5856ZM40.8194 79.2249C40.5204 79.514 40.2182 79.7966 39.916 80.0743C39.6138 80.352 39.3133 80.6232 39.0127 80.8911L38.7285 81.1377L38.4475 81.3795C38.074 81.6953 37.7037 81.9964 37.3367 82.2828C36.4437 82.999 35.4967 83.6451 34.5042 84.2153H42.0592V80.0923C42.0592 80.0923 41.8665 79.6332 40.8259 79.2232L40.8194 79.2249Z" fill="#BD6F6D"/>
<path d="M41.2297 80.0727V82.2828H39.0195V80.8845C39.3201 80.6215 39.6223 80.3503 39.9229 80.0677L41.2297 80.0727Z" fill="#BD6F6D"/>
<path d="M78.9238 59.1341H90.4091V52.1491C90.4091 52.1491 89.777 50.6495 84.6657 50.6495C79.5544 50.6495 78.9238 52.1083 78.9238 52.1083V59.1341Z" fill="#BD6F6D"/>
<path d="M89.5798 52.1279H87.3696V54.3381H89.5798V52.1279Z" stroke="#BD6F6D" stroke-width="0.131806" stroke-miterlimit="10"/>
<path d="M81.7834 52.1279H79.5732V54.3381H81.7834V52.1279Z" stroke="#BD6F6D" stroke-width="0.131806" stroke-miterlimit="10"/>
<path d="M86.7968 52.1279H82.3765V54.3381H86.7968V52.1279Z" stroke="#BD6F6D" stroke-width="0.131806" stroke-miterlimit="10"/>
<path d="M78.4087 38.493H89.894V31.5064C89.894 31.5064 89.2618 30.0068 84.1505 30.0068C79.0392 30.0068 78.4087 31.4672 78.4087 31.4672V38.493Z" fill="#BD6F6D"/>
<path d="M89.0637 31.4868H86.8535V33.697H89.0637V31.4868Z" stroke="#BD6F6D" stroke-width="0.131806" stroke-miterlimit="10"/>
<path d="M81.2697 31.4868H79.0596V33.697H81.2697V31.4868Z" stroke="#BD6F6D" stroke-width="0.131806" stroke-miterlimit="10"/>
<path d="M86.2831 31.4868H81.8628V33.697H86.2831V31.4868Z" stroke="#BD6F6D" stroke-width="0.131806" stroke-miterlimit="10"/>
<path d="M126.986 87.8857H17.7031C17.7031 87.0379 17.9939 84.2152 21.6236 84.2152H123.206C123.206 84.2152 126.806 84.8899 126.986 87.8857Z" stroke="#BD6F6D" stroke-width="0.131806" stroke-miterlimit="10"/>
<path d="M126.986 87.8857H17.7031C17.7031 88.0344 17.7031 88.1226 17.7031 88.1226V102.094H62.7427L63.6836 98.4824L63.6444 98.4154L63.3422 97.9025L61.6988 95.1108L65.0443 89.284L65.0737 89.2318L65.7892 90.3965L66.062 89.3461H80.9009L83.08 98.3305L83.9948 102.101H126.994V88.1226C126.994 88.0426 126.992 87.9625 126.986 87.8857ZM22.9794 100.825L19.549 95.0063L22.9239 89.1256L26.534 95.0063L22.9794 100.825ZM30.0166 100.825L26.5862 95.0063L29.9627 89.1256L33.5728 95.0063L30.0166 100.825ZM37.0408 100.809L33.6104 94.9899L36.9869 89.1093L40.597 94.9899L37.0408 100.809ZM44.0649 100.84L40.6345 95.021L44.0094 89.1403L47.6195 95.021L44.0649 100.84ZM51.0891 100.869L47.6587 95.0504L51.0336 89.1697L54.6436 95.0504L51.0891 100.869ZM58.1133 100.9L54.6829 95.0814L58.0593 89.2007L61.6694 95.0814L58.1133 100.9ZM86.1919 101.019L82.7615 95.2007L86.138 89.32L89.7481 95.2007L86.1919 101.019ZM93.2161 101.049L89.7857 95.2317L93.1605 89.351L96.7706 95.2317L93.2161 101.049ZM100.24 101.08L96.8098 95.2611L100.186 89.3804L103.796 95.2611L100.24 101.08ZM107.264 101.109L103.834 95.2905L107.21 89.4098L110.821 95.2905L107.264 101.109ZM114.289 101.14L110.858 95.3215L114.233 89.4409L117.843 95.3215L114.289 101.14ZM121.313 101.17L117.882 95.351L121.259 89.4703L124.869 95.351L121.313 101.17Z" stroke="#BD6F6D" stroke-width="0.131806" stroke-miterlimit="10"/>
<path d="M26.5377 95.0064L22.9799 100.825L19.5527 95.0064L22.9276 89.1273L26.5377 95.0064Z" stroke="#BD6F6D" stroke-width="0.131806" stroke-miterlimit="10"/>
<path d="M33.5764 95.0064L30.017 100.825L26.5898 95.0064L29.9663 89.1273L33.5764 95.0064Z" stroke="#BD6F6D" stroke-width="0.131806" stroke-miterlimit="10"/>
<path d="M40.5994 94.99L37.0399 100.809L33.6128 94.99L36.9893 89.1125L40.5994 94.99Z" stroke="#BD6F6D" stroke-width="0.131806" stroke-miterlimit="10"/>
<path d="M47.6202 95.021L44.0608 100.84L40.6353 95.021L44.0101 89.142L47.6202 95.021Z" stroke="#BD6F6D" stroke-width="0.131806" stroke-miterlimit="10"/>
<path d="M54.6388 95.0504L51.0809 100.869L47.6538 95.0504L51.0287 89.173L54.6388 95.0504Z" stroke="#BD6F6D" stroke-width="0.131806" stroke-miterlimit="10"/>
<path d="M61.6599 95.0815L58.1005 100.9L54.6733 95.0815L58.0498 89.2024L61.6599 95.0815Z" stroke="#BD6F6D" stroke-width="0.131806" stroke-miterlimit="10"/>
<path d="M89.7385 95.2007L86.1791 101.019L82.752 95.2007L86.1285 89.3232L89.7385 95.2007Z" stroke="#BD6F6D" stroke-width="0.131806" stroke-miterlimit="10"/>
<path d="M96.7574 95.2317L93.1996 101.049L89.7725 95.2317L93.1473 89.3527L96.7574 95.2317Z" stroke="#BD6F6D" stroke-width="0.131806" stroke-miterlimit="10"/>
<path d="M103.778 95.2611L100.218 101.08L96.791 95.2611L100.168 89.3821L103.778 95.2611Z" stroke="#BD6F6D" stroke-width="0.131806" stroke-miterlimit="10"/>
<path d="M110.797 95.2905L107.238 101.109L103.811 95.2905L107.187 89.4131L110.797 95.2905Z" stroke="#BD6F6D" stroke-width="0.131806" stroke-miterlimit="10"/>
<path d="M117.817 95.3216L114.259 101.14L110.832 95.3216L114.207 89.4425L117.817 95.3216Z" stroke="#BD6F6D" stroke-width="0.131806" stroke-miterlimit="10"/>
<path d="M124.838 95.3509L121.279 101.17L117.852 95.3509L121.228 89.4735L124.838 95.3509Z" stroke="#BD6F6D" stroke-width="0.131806" stroke-miterlimit="10"/>
<path d="M63.705 98.3812L63.6789 98.4825L63.6396 98.4155L63.705 98.3812Z" stroke="#BD6F6D" stroke-width="0.131806" stroke-miterlimit="10"/>
<path d="M81.4321 97.3553L81.6723 97.5073L81.4321 97.357V97.3553Z" stroke="#BD6F6D" stroke-width="0.131806" stroke-miterlimit="10"/>
<path d="M33.4353 80.0727V81.2439L31.7511 82.2828H31.2251L31.2431 80.071L33.4353 80.0727Z" stroke="#BD6F6D" stroke-width="0.131806" stroke-miterlimit="10"/>
<path d="M70.8516 56.1905L70.7797 56.2869C69.3602 58.2782 67.1288 60.5472 64.3861 62.7753C64.1688 62.955 63.9467 63.1314 63.7212 63.3078C60.5452 65.8061 57.1221 67.9731 53.5052 69.7749C53.2471 69.904 52.989 70.0281 52.7293 70.1523C51.4633 70.7534 50.1793 71.2957 48.8905 71.7858C48.1979 72.0406 47.5042 72.2769 46.8094 72.4948C45.0015 74.8964 43.0009 77.1467 40.8274 79.2232C40.5285 79.5124 40.2263 79.795 39.9241 80.0727C39.6219 80.3504 39.3213 80.6215 39.0207 80.8894L38.73 81.1377L38.449 81.3795C38.0755 81.6953 37.7052 81.9964 37.3382 82.2828C36.4452 82.999 35.4982 83.6451 34.5057 84.2153H28.0483C28.5874 83.9703 29.4744 83.5488 30.5754 82.9477C30.9446 82.7467 31.3807 82.4576 31.794 82.2224L33.4814 81.1769C33.7346 80.9972 34.0728 80.7702 34.3243 80.5856L34.7703 80.2589L35.3061 79.8701C35.8533 79.4764 36.2568 79.2543 36.8122 78.8067L37.0687 78.5992C37.3191 78.3967 37.5685 78.1876 37.8168 77.972C39.8855 76.2203 41.6998 74.1888 43.2074 71.9361C43.2074 71.9361 43.4427 71.8871 43.8788 71.7727C46.7821 71.0034 49.6146 69.988 52.3454 68.7376C52.6024 68.6222 52.8621 68.503 53.1246 68.3799C56.5937 66.7588 59.9012 64.8122 63.0025 62.5662C63.2312 62.4028 63.4615 62.2395 63.6902 62.0598C66.1867 60.194 68.5221 58.122 70.6719 55.8655C70.7097 55.9846 70.7708 56.0951 70.8516 56.1905V56.1905Z" stroke="#BD6F6D" stroke-width="0.131806" stroke-miterlimit="10"/>
<path d="M45.4384 84.2152H42.0619H34.5068" stroke="#BD6F6D" stroke-width="0.131806" stroke-miterlimit="10"/>
<path d="M71.4901 56.6137V56.6283C70.1895 59.6282 68.6094 62.499 66.7708 65.2027C66.6075 65.4396 66.4441 65.6764 66.2808 65.9133C64.4811 68.4779 62.3684 70.8079 59.9917 72.8492C59.3661 74.8993 58.4758 77.6763 56.9354 80.4386C56.1913 81.7823 55.3128 83.0471 54.3136 84.2137H45.437C46.5233 83.4083 47.5606 82.3204 48.4999 81.1361C51.3961 77.5015 53.4217 72.9685 53.4217 72.9685L53.487 72.9407C53.7516 72.8318 54.0146 72.7169 54.276 72.596C57.3487 71.17 60.3201 68.8553 62.9125 66.3691C63.5757 65.7336 64.2193 65.0867 64.8237 64.4399C65.0197 64.2324 65.2125 64.0233 65.4019 63.8159C67.0206 62.0528 68.5275 60.1902 69.9137 58.239V58.2308C70.4038 57.5284 70.8089 56.9142 71.1013 56.434C71.2223 56.511 71.353 56.5715 71.4901 56.6137V56.6137Z" stroke="#BD6F6D" stroke-width="0.131806" stroke-miterlimit="10"/>
<path d="M66.814 84.2153C68.093 79.2102 68.227 75.5233 68.2074 73.9241C68.2074 73.3491 68.1747 73.0452 68.1747 73.0452C68.6402 71.7172 69.0437 70.3989 69.3949 69.1117C69.4831 68.785 69.5681 68.4681 69.6514 68.1479C70.8896 63.3241 71.4189 59.0606 71.8174 56.7002C71.9399 56.7219 72.0639 56.7329 72.1883 56.7329C72.2647 56.733 72.3411 56.728 72.4169 56.7182C72.8155 59.0966 73.3481 63.347 74.5846 68.1528C74.9914 69.7275 75.4716 71.3611 76.0548 73.0093C76.0548 73.0093 75.6775 77.3953 77.4253 84.2169L66.814 84.2153Z" stroke="#BD6F6D" stroke-width="0.131806" stroke-miterlimit="10"/>
<path d="M99.309 84.2152H89.957C86.659 80.4205 85.1643 75.8271 84.2397 72.8116C81.2536 70.2862 78.8001 67.2576 76.8382 64.2389C75.2723 61.8258 73.9065 59.2886 72.7544 56.6528C73.0165 56.583 73.2561 56.4468 73.4503 56.2574C74.2246 57.5643 75.8173 59.8283 77.9441 62.3015C81.3745 66.2889 86.1738 70.835 91.1757 72.8639C91.1887 72.8688 94.8217 81.0004 99.309 84.2152Z" stroke="#BD6F6D" stroke-width="0.131806" stroke-miterlimit="10"/>
<path d="M89.9577 84.2152H77.4204" stroke="#BD6F6D" stroke-width="0.131806" stroke-miterlimit="10"/>
<path d="M117.896 84.2152H110.287C106.449 82.1586 100.848 76.5376 97.8015 72.395C90.6973 70.1783 83.5147 65.6665 78.5602 61.2626C76.5771 59.5033 74.9518 57.7586 73.823 56.1872L73.6597 55.9634C73.6701 55.9423 73.6788 55.9205 73.6858 55.8981C75.3794 57.5165 77.1535 59.0485 79.0013 60.4883C84.1812 64.5574 92.5334 70.1065 101.531 72.0209C101.537 72.0209 107.059 79.8847 117.896 84.2152Z" stroke="#BD6F6D" stroke-width="0.131806" stroke-miterlimit="10"/>
<path d="M70.6704 55.8703L70.7129 55.8246H73.6173L73.6908 55.8981" stroke="#BD6F6D" stroke-width="0.131806" stroke-miterlimit="10"/>
<path d="M110.287 84.2152H99.3096" stroke="#BD6F6D" stroke-width="0.131806" stroke-miterlimit="10"/>
<path d="M66.8126 84.2152H54.2998" stroke="#BD6F6D" stroke-width="0.131806" stroke-miterlimit="10"/>
<path d="M71.5731 55.5632C71.5388 55.64 71.498 55.7266 71.4474 55.8246C71.4278 55.8622 71.4065 55.903 71.3837 55.9438C71.3069 56.086 71.2203 56.246 71.1109 56.4225C70.8185 56.9125 70.4182 57.5251 69.9233 58.2193V58.2275C68.537 60.1787 67.0302 62.0413 65.4115 63.8044C65.222 64.0118 65.0292 64.2209 64.8332 64.4284C64.2239 65.0818 63.5852 65.7221 62.922 66.3576C60.3296 68.8438 57.3582 71.1585 54.2855 72.5846C54.0242 72.7076 53.7612 72.8225 53.4966 72.9292L53.4312 72.957C53.4312 72.957 51.4056 77.4917 48.5094 81.1246C47.5669 82.3089 46.5328 83.3968 45.4465 84.2022H34.5068C35.4994 83.632 36.4464 82.9859 37.3394 82.2697C37.7053 81.9844 38.0755 81.6833 38.4502 81.3664L38.7311 81.1246L39.0219 80.8714C39.3225 80.6084 39.6247 80.3373 39.9252 80.0547C40.2258 79.7721 40.5296 79.4944 40.8286 79.2052C43.0013 77.1344 45.0019 74.8901 46.8105 72.4947C47.5053 72.2769 48.199 72.039 48.8917 71.7809C50.1805 71.3022 51.4645 70.7534 52.7304 70.1473C52.9902 70.0232 53.2483 69.899 53.5064 69.77C57.1236 67.9698 60.5473 65.8045 63.7241 63.3078C63.9495 63.1314 64.1716 62.9549 64.3889 62.7752C67.1316 60.5471 69.363 58.2782 70.7825 56.2869L70.8544 56.1905L71.0357 55.9438L71.1239 55.8246L71.3183 55.5632H71.5731Z" fill="#BD6F6D"/>
<path d="M72.0301 55.5829C72.0121 55.658 71.9941 55.7381 71.9778 55.8247L71.9533 55.9439C71.9092 56.1677 71.8634 56.4193 71.8161 56.7002C71.4175 59.0607 70.8882 63.3242 69.65 68.148C69.5667 68.4747 69.4867 68.7883 69.3936 69.1117C69.0424 70.399 68.6389 71.7254 68.1733 73.0453C68.1733 73.0453 68.1995 73.3491 68.206 73.9241C68.2256 75.5217 68.0916 79.2086 66.8126 84.2153H54.2998C55.2991 83.0488 56.1775 81.7839 56.9216 80.4402C58.462 77.6779 59.3523 74.9009 59.9779 72.8509C62.3546 70.8095 64.4673 68.4795 66.267 65.9149C66.4303 65.6781 66.6019 65.4412 66.7571 65.2043C68.5957 62.5006 70.1757 59.6298 71.4763 56.63V56.6153L71.7671 55.9455L71.8193 55.8263L71.9239 55.5845L72.0301 55.5829Z" fill="#BD6F6D"/>
<path d="M89.9578 84.2152H77.4205C75.6726 77.3937 76.05 73.0076 76.05 73.0076C75.4717 71.3594 74.9914 69.7259 74.5798 68.1512C73.3432 63.3486 72.8107 59.0982 72.4121 56.7165C72.3647 56.4306 72.319 56.1725 72.2733 55.9422L72.2488 55.823C72.2291 55.7233 72.2095 55.6286 72.1899 55.542H72.2831L72.4039 55.823L72.4562 55.9422L72.7355 56.5956L72.7633 56.6593C73.9154 59.2952 75.2812 61.8323 76.8471 64.2454C78.8074 67.2609 81.2576 70.2894 84.2486 72.8181C85.165 75.8271 86.6597 80.4206 89.9578 84.2152Z" fill="#BD6F6D"/>
<path d="M110.286 84.2153H99.3089C94.8216 81.0005 91.1887 72.8688 91.1887 72.8688C86.1868 70.84 81.3875 66.2939 77.9571 62.3064C75.8335 59.8284 74.2376 57.5692 73.4633 56.2624C73.3963 56.1513 73.3359 56.0468 73.2836 55.9488C73.2607 55.9079 73.2379 55.8671 73.2183 55.8295C73.1431 55.6907 73.0827 55.5714 73.0386 55.4685H73.295L73.5629 55.8295L73.6511 55.9488L73.6658 55.9684L73.8292 56.1922C74.9498 57.7636 76.5751 59.5082 78.5664 61.2675C83.5209 65.678 90.7035 70.1833 97.8077 72.4C100.848 76.5442 106.449 82.1587 110.286 84.2153Z" fill="#BD6F6D"/>
</g>
<defs>
<clipPath id="clip0">
<rect width="128" height="103.387" fill="white"/>
</clipPath>
</defs>
</svg>
