<svg width="216" height="361" viewBox="0 0 216 361" fill="none" xmlns="http://www.w3.org/2000/svg">
<path d="M-96.4516 248.323L-57.5456 216.544C-37.9692 237.162 -12.3852 246.977 18.6453 245.848C32.7604 245.324 46.6701 241.103 58.7948 233.694C74.6909 223.965 86.8463 211.893 94.9932 197.782C101.928 185.77 106.046 172.041 107.246 157.085C108.119 146.116 107.068 135.139 104.128 124.493C101.878 116.31 98.5701 108.527 94.255 101.217L133.423 69.2227C142.169 82.211 148.605 96.0222 152.534 110.359C157.181 127.268 158.598 145.479 156.655 164.502C154.483 186.147 148.313 205.896 138.357 223.139C129.833 237.904 118.273 251.33 103.95 263.022C88.4649 275.696 71.6104 284.78 53.8952 290.108C36.1456 295.417 16.9779 297.062 -3.11022 295.055C-23.1983 293.048 -41.6541 287.578 -57.9561 278.854C-72.0991 271.24 -85.0178 261.027 -96.4516 248.323ZM-107.804 247.321C-81.0361 280.122 -46.3962 298.653 -3.93892 302.928C38.5184 307.204 76.1746 295.95 108.941 269.162C124.05 256.822 136.145 242.788 145.206 227.094C155.797 208.749 162.233 188.144 164.548 165.297C168.582 125.086 158.715 89.2401 134.934 57.7045L83.7087 99.5338C95.2829 116.128 100.902 136.122 99.3081 156.449C98.2259 170.325 94.4685 182.794 88.1098 193.808C80.6186 206.783 69.4685 217.829 54.645 226.892C43.7214 233.572 31.1688 237.43 18.375 237.891C-13.05 239.067 -38.0432 228.309 -56.6537 205.541L-107.804 247.321Z" fill="#2B2B39"/>
</svg>
