<svg width="160" height="286" viewBox="0 0 160 286" fill="none" xmlns="http://www.w3.org/2000/svg">
<mask id="mask0" mask-type="alpha" maskUnits="userSpaceOnUse" x="0" y="0" width="286" height="286">
<path d="M233.19 194.95C262.039 144.981 244.919 81.0862 194.95 52.2367C144.981 23.3871 81.0862 40.5077 52.2367 90.4766C23.3871 140.445 40.5077 204.34 90.4766 233.19C140.445 262.039 204.34 244.919 233.19 194.95Z" fill="#2B2B39"/>
</mask>
<g mask="url(#mask0)">
<path d="M15.7837 180.683C18.8301 175.406 17.0222 168.659 11.7457 165.613C6.46914 162.566 -0.277925 164.374 -3.32433 169.651C-6.37073 174.927 -4.56286 181.674 0.713665 184.721C5.99019 187.767 12.7373 185.959 15.7837 180.683Z" fill="#BD6F6D"/>
<path d="M41.0146 195.25C44.061 189.973 42.2532 183.226 36.9766 180.18C31.7001 177.134 24.953 178.941 21.9066 184.218C18.8602 189.495 20.6681 196.242 25.9446 199.288C31.2211 202.334 37.9682 200.527 41.0146 195.25Z" fill="#BD6F6D"/>
<path d="M31.8691 152.822C34.9155 147.546 33.1076 140.799 27.8311 137.752C22.5546 134.706 15.8075 136.514 12.7611 141.79C9.71471 147.067 11.5226 153.814 16.7991 156.86C22.0756 159.907 28.8227 158.099 31.8691 152.822Z" fill="#BD6F6D"/>
<path d="M57.1001 167.389C60.1465 162.113 58.3386 155.366 53.0621 152.319C47.7855 149.273 41.0385 151.081 37.9921 156.357C34.9457 161.634 36.7535 168.381 42.0301 171.427C47.3066 174.474 54.0537 172.666 57.1001 167.389Z" fill="#BD6F6D"/>
<path d="M47.9541 124.962C51.0005 119.685 49.1926 112.938 43.9161 109.892C38.6396 106.845 31.8925 108.653 28.8461 113.93C25.7997 119.206 27.6075 125.953 32.8841 129C38.1606 132.046 44.9077 130.238 47.9541 124.962Z" fill="#BD6F6D"/>
<path d="M73.185 139.529C76.2314 134.252 74.4236 127.505 69.147 124.459C63.8705 121.412 57.1234 123.22 54.077 128.497C51.0306 133.773 52.8385 140.52 58.115 143.567C63.3916 146.613 70.1386 144.805 73.185 139.529Z" fill="#BD6F6D"/>
<path d="M64.0395 97.1011C67.0859 91.8245 65.2781 85.0775 60.0015 82.0311C54.725 78.9847 47.9779 80.7925 44.9315 86.069C41.8851 91.3456 43.693 98.0926 48.9695 101.139C54.2461 104.185 60.9931 102.378 64.0395 97.1011Z" fill="#BD6F6D"/>
<path d="M89.2705 111.668C92.3169 106.392 90.509 99.6446 85.2325 96.5982C79.956 93.5518 73.2089 95.3597 70.1625 100.636C67.1161 105.913 68.924 112.66 74.2005 115.706C79.477 118.753 86.2241 116.945 89.2705 111.668Z" fill="#BD6F6D"/>
<path d="M80.125 69.2405C83.1714 63.9639 81.3635 57.2169 76.087 54.1705C70.8105 51.1241 64.0634 52.9319 61.017 58.2085C57.9706 63.485 59.7784 70.2321 65.055 73.2785C70.3315 76.3249 77.0786 74.517 80.125 69.2405Z" fill="#BD6F6D"/>
<path d="M105.356 83.8074C108.402 78.5308 106.594 71.7838 101.318 68.7374C96.0414 65.6909 89.2943 67.4988 86.2479 72.7753C83.2015 78.0519 85.0094 84.7989 90.2859 87.8453C95.5625 90.8918 102.31 89.0839 105.356 83.8074Z" fill="#BD6F6D"/>
<path d="M96.2085 41.3828C99.2549 36.1063 97.447 29.3592 92.1705 26.3128C86.8939 23.2664 80.1469 25.0743 77.1005 30.3508C74.0541 35.6273 75.8619 42.3744 81.1385 45.4208C86.415 48.4672 93.1621 46.6593 96.2085 41.3828Z" fill="#BD6F6D"/>
<path d="M121.439 55.9499C124.486 50.6734 122.678 43.9263 117.401 40.8799C112.125 37.8335 105.378 39.6414 102.331 44.9179C99.285 50.1945 101.093 56.9415 106.369 59.9879C111.646 63.0343 118.393 61.2265 121.439 55.9499Z" fill="#BD6F6D"/>
<path d="M112.294 13.5222C115.34 8.24567 113.532 1.4986 108.256 -1.5478C102.979 -4.59421 96.2323 -2.78634 93.1859 2.49019C90.1395 7.76672 91.9474 14.5138 97.2239 17.5602C102.5 20.6066 109.248 18.7987 112.294 13.5222Z" fill="#BD6F6D"/>
<path d="M137.525 28.0893C140.571 22.8128 138.763 16.0657 133.487 13.0193C128.21 9.97293 121.463 11.7808 118.417 17.0573C115.37 22.3339 117.178 29.0809 122.455 32.1273C127.731 35.1737 134.478 33.3659 137.525 28.0893Z" fill="#BD6F6D"/>
<path d="M66.2456 209.817C69.292 204.541 67.4841 197.794 62.2076 194.747C56.9311 191.701 50.184 193.509 47.1376 198.785C44.0912 204.062 45.8991 210.809 51.1756 213.855C56.4521 216.902 63.1992 215.094 66.2456 209.817Z" fill="#BD6F6D"/>
<path d="M91.476 224.384C94.5225 219.107 92.7146 212.36 87.4381 209.314C82.1615 206.268 75.4145 208.075 72.3681 213.352C69.3216 218.629 71.1295 225.376 76.406 228.422C81.6826 231.468 88.4296 229.661 91.476 224.384Z" fill="#BD6F6D"/>
<path d="M82.3305 181.956C85.3769 176.68 83.5691 169.933 78.2925 166.886C73.016 163.84 66.2689 165.648 63.2225 170.924C60.1761 176.201 61.984 182.948 67.2605 185.994C72.5371 189.041 79.2841 187.233 82.3305 181.956Z" fill="#BD6F6D"/>
<path d="M107.561 196.523C110.608 191.247 108.8 184.5 103.523 181.453C98.247 178.407 91.4999 180.215 88.4535 185.491C85.4071 190.768 87.215 197.515 92.4915 200.561C97.768 203.608 104.515 201.8 107.561 196.523Z" fill="#BD6F6D"/>
<path d="M98.416 154.096C101.462 148.819 99.6545 142.072 94.378 139.026C89.1015 135.979 82.3544 137.787 79.308 143.064C76.2616 148.34 78.0695 155.087 83.346 158.134C88.6225 161.18 95.3696 159.372 98.416 154.096Z" fill="#BD6F6D"/>
<path d="M123.647 168.663C126.693 163.386 124.885 156.639 119.609 153.593C114.332 150.546 107.585 152.354 104.539 157.631C101.493 162.907 103.3 169.654 108.577 172.701C113.853 175.747 120.601 173.939 123.647 168.663Z" fill="#BD6F6D"/>
<path d="M114.501 126.235C117.548 120.959 115.74 114.212 110.463 111.165C105.187 108.119 98.4398 109.927 95.3934 115.203C92.347 120.48 94.1549 127.227 99.4314 130.273C104.708 133.32 111.455 131.512 114.501 126.235Z" fill="#BD6F6D"/>
<path d="M139.732 140.802C142.779 135.526 140.971 128.779 135.694 125.732C130.418 122.686 123.671 124.494 120.624 129.77C117.578 135.047 119.386 141.794 124.662 144.84C129.939 147.887 136.686 146.079 139.732 140.802Z" fill="#BD6F6D"/>
<path d="M130.587 98.3745C133.633 93.098 131.825 86.3509 126.549 83.3045C121.272 80.2581 114.525 82.066 111.479 87.3425C108.432 92.619 110.24 99.3661 115.517 102.412C120.793 105.459 127.54 103.651 130.587 98.3745Z" fill="#BD6F6D"/>
<path d="M155.818 112.942C158.864 107.665 157.056 100.918 151.78 97.8716C146.503 94.8252 139.756 96.6331 136.71 101.91C133.663 107.186 135.471 113.933 140.748 116.98C146.024 120.026 152.771 118.218 155.818 112.942Z" fill="#BD6F6D"/>
<path d="M146.67 70.5168C149.717 65.2403 147.909 58.4932 142.632 55.4468C137.356 52.4004 130.609 54.2083 127.562 59.4848C124.516 64.7613 126.324 71.5084 131.6 74.5548C136.877 77.6012 143.624 75.7934 146.67 70.5168Z" fill="#BD6F6D"/>
<path d="M171.901 85.084C174.948 79.8074 173.14 73.0604 167.863 70.014C162.587 66.9676 155.84 68.7754 152.793 74.052C149.747 79.3285 151.555 86.0756 156.831 89.122C162.108 92.1684 168.855 90.3605 171.901 85.084Z" fill="#BD6F6D"/>
<path d="M162.756 42.6562C165.802 37.3797 163.994 30.6326 158.718 27.5862C153.441 24.5398 146.694 26.3477 143.648 31.6242C140.601 36.9008 142.409 43.6478 147.686 46.6942C152.962 49.7406 159.709 47.9328 162.756 42.6562Z" fill="#BD6F6D"/>
<path d="M116.711 238.953C119.757 233.677 117.949 226.93 112.673 223.883C107.396 220.837 100.649 222.645 97.6029 227.921C94.5565 233.198 96.3644 239.945 101.641 242.991C106.917 246.038 113.665 244.23 116.711 238.953Z" fill="#BD6F6D"/>
<path d="M141.941 253.52C144.988 248.244 143.18 241.497 137.903 238.45C132.627 235.404 125.88 237.212 122.833 242.488C119.787 247.765 121.595 254.512 126.871 257.558C132.148 260.605 138.895 258.797 141.941 253.52Z" fill="#BD6F6D"/>
<path d="M132.796 211.093C135.842 205.816 134.034 199.069 128.758 196.023C123.481 192.976 116.734 194.784 113.688 200.061C110.641 205.337 112.449 212.084 117.726 215.131C123.002 218.177 129.749 216.369 132.796 211.093Z" fill="#BD6F6D"/>
<path d="M158.027 225.66C161.073 220.383 159.265 213.636 153.989 210.59C148.712 207.543 141.965 209.351 138.919 214.628C135.872 219.904 137.68 226.651 142.957 229.698C148.233 232.744 154.98 230.936 158.027 225.66Z" fill="#BD6F6D"/>
<path d="M148.881 183.232C151.928 177.955 150.12 171.208 144.843 168.162C139.567 165.116 132.82 166.923 129.773 172.2C126.727 177.476 128.535 184.224 133.811 187.27C139.088 190.316 145.835 188.508 148.881 183.232Z" fill="#BD6F6D"/>
<path d="M174.112 197.799C177.159 192.523 175.351 185.775 170.074 182.729C164.798 179.683 158.051 181.491 155.004 186.767C151.958 192.044 153.766 198.791 159.042 201.837C164.319 204.883 171.066 203.076 174.112 197.799Z" fill="#BD6F6D"/>
<path d="M164.967 155.371C168.013 150.095 166.205 143.348 160.929 140.301C155.652 137.255 148.905 139.063 145.859 144.339C142.812 149.616 144.62 156.363 149.897 159.409C155.173 162.456 161.92 160.648 164.967 155.371Z" fill="#BD6F6D"/>
<path d="M181.052 127.511C184.099 122.234 182.291 115.487 177.014 112.441C171.738 109.394 164.991 111.202 161.944 116.479C158.898 121.755 160.706 128.502 165.982 131.549C171.259 134.595 178.006 132.787 181.052 127.511Z" fill="#BD6F6D"/>
<path d="M167.172 268.087C170.219 262.811 168.411 256.064 163.134 253.017C157.858 249.971 151.111 251.779 148.064 257.055C145.018 262.332 146.826 269.079 152.102 272.125C157.379 275.172 164.126 273.364 167.172 268.087Z" fill="#BD6F6D"/>
<path d="M183.258 240.227C186.304 234.95 184.496 228.203 179.22 225.157C173.943 222.11 167.196 223.918 164.15 229.195C161.103 234.471 162.911 241.218 168.188 244.265C173.464 247.311 180.211 245.503 183.258 240.227Z" fill="#BD6F6D"/>
</g>
</svg>
