<svg width="286" height="198" viewBox="0 0 286 198" fill="none" xmlns="http://www.w3.org/2000/svg">
<mask id="mask0" mask-type="alpha" maskUnits="userSpaceOnUse" x="0" y="0" width="286" height="286">
<path d="M233.19 194.95C262.039 144.981 244.919 81.0862 194.95 52.2367C144.981 23.3871 81.0862 40.5077 52.2367 90.4766C23.3871 140.445 40.5077 204.34 90.4766 233.19C140.445 262.039 204.34 244.919 233.19 194.95Z" fill="#2B2B39"/>
</mask>
<g mask="url(#mask0)">
<path d="M130.936 -45.8903L-26.4575 226.724L-20.8213 229.978L136.572 -42.6362L130.936 -45.8903Z" fill="#BD6F6D"/>
<path d="M144.548 -38.0316L-12.8462 234.582L-7.20996 237.836L150.184 -34.7775L144.548 -38.0316Z" fill="#BD6F6D"/>
<path d="M158.159 -30.1732L0.765137 242.441L6.40138 245.695L163.795 -26.9191L158.159 -30.1732Z" fill="#BD6F6D"/>
<path d="M171.77 -22.3146L14.3765 250.299L20.0127 253.553L177.406 -19.0605L171.77 -22.3146Z" fill="#BD6F6D"/>
<path d="M185.381 -14.4563L27.9873 258.158L33.6235 261.412L191.017 -11.2022L185.381 -14.4563Z" fill="#BD6F6D"/>
<path d="M198.993 -6.59766L41.5991 266.016L47.2354 269.27L204.629 -3.34358L198.993 -6.59766Z" fill="#BD6F6D"/>
<path d="M212.604 1.26062L55.21 273.875L60.8462 277.129L218.24 4.5147L212.604 1.26062Z" fill="#BD6F6D"/>
<path d="M226.215 9.1189L68.8213 281.733L74.4575 284.987L231.851 12.373L226.215 9.1189Z" fill="#BD6F6D"/>
<path d="M239.829 16.9794L82.4355 289.593L88.0718 292.847L245.465 20.2335L239.829 16.9794Z" fill="#BD6F6D"/>
<path d="M253.44 24.8376L96.0464 297.452L101.683 300.706L259.076 28.0917L253.44 24.8376Z" fill="#BD6F6D"/>
<path d="M267.052 32.6963L109.658 305.31L115.294 308.564L272.688 35.9504L267.052 32.6963Z" fill="#BD6F6D"/>
<path d="M280.663 40.5546L123.269 313.168L128.905 316.423L286.299 43.8086L280.663 40.5546Z" fill="#BD6F6D"/>
<path d="M294.275 48.4132L136.881 321.027L142.517 324.281L299.911 51.6673L294.275 48.4132Z" fill="#BD6F6D"/>
<path d="M307.885 56.2715L150.492 328.885L156.128 332.139L313.522 59.5256L307.885 56.2715Z" fill="#BD6F6D"/>
</g>
</svg>
